<?xml version="1.0" encoding="UTF-8" standalone="no"?>
<!DOCTYPE svg PUBLIC "-//W3C//DTD SVG 1.1//EN"
"http://www.w3.org/Graphics/SVG/1.1/DTD/svg11.dtd">
<svg viewBox="0 0 909 1286" version="1.1" xmlns="http://www.w3.org/2000/svg" xmlns:xlink="http://www.w3.org/1999/xlink">
<defs>
</defs>
<g fill="#000000" >
<use xlink:href="#f0_b" transform="matrix(24.9,0,0,24.9,592.4,271.7)" />
<use xlink:href="#f0_m" transform="matrix(24.9,0,0,24.9,613.1,271.7)" />
<use xlink:href="#f0_u" transform="matrix(24.9,0,0,24.9,624.7,271.7)" />
<use xlink:href="#f0_v" transform="matrix(24.9,0,0,24.9,641.7,271.7)" />
<use xlink:href="#f0_r" transform="matrix(24.9,0,0,24.9,666.4,271.7)" />
<use xlink:href="#f0_k" transform="matrix(24.9,0,0,24.9,688.4,271.7)" />
<use xlink:href="#f0_e" transform="matrix(24.9,0,0,24.9,712.4,271.7)" />
<use xlink:href="#f0_f" transform="matrix(24.9,0,0,24.9,731.7,271.7)" />
<use xlink:href="#f0_g" transform="matrix(24.9,0,0,24.9,752.4,271.7)" />
<use xlink:href="#f0_o" transform="matrix(24.9,0,0,24.9,774.3,271.7)" />
<use xlink:href="#f0_j" transform="matrix(24.9,0,0,24.9,785.9,271.7)" />
<use xlink:href="#f0_u" transform="matrix(24.9,0,0,24.9,805.8,271.7)" />
</g>
<g fill="#0000FF" >
<use xlink:href="#f1_k" transform="matrix(12,0,0,12,156.7,410.6)" />
<use xlink:href="#f1_g" transform="matrix(12,0,0,12,165.7,410.6)" />
<use xlink:href="#f1_j" transform="matrix(12,0,0,12,170.7,410.6)" />
<use xlink:href="#f1_11" transform="matrix(12.2,0,0,12,197.9,410.6)" />
<use xlink:href="#f1_2f" transform="matrix(12.2,0,0,12,210.3,410.6)" />
<use xlink:href="#f1_1s" transform="matrix(12.2,0,0,12,219.9,410.6)" />
<use xlink:href="#f1_24" transform="matrix(12.2,0,0,12,229,410.6)" />
<use xlink:href="#f1_27" transform="matrix(12.2,0,0,12,244.2,410.6)" />
<use xlink:href="#f1_23" transform="matrix(12.2,0,0,12,254.3,410.6)" />
<use xlink:href="#f1_1w" transform="matrix(12.2,0,0,12,259.3,410.6)" />
<use xlink:href="#f1_1w" transform="matrix(12.2,0,0,12,273.3,410.6)" />
<use xlink:href="#f1_2f" transform="matrix(12.2,0,0,12,281.4,410.6)" />
<use xlink:href="#f1_27" transform="matrix(12.2,0,0,12,291,410.6)" />
<use xlink:href="#f1_29" transform="matrix(12.2,0,0,12,301.2,410.6)" />
<use xlink:href="#f1_1w" transform="matrix(12.2,0,0,12,308.2,410.6)" />
<use xlink:href="#f1_2a" transform="matrix(12.2,0,0,12,316.3,410.6)" />
<use xlink:href="#f1_2a" transform="matrix(12.2,0,0,12,323.5,410.6)" />
<use xlink:href="#f1_20" transform="matrix(12.2,0,0,12,330.7,410.6)" />
<use xlink:href="#f1_26" transform="matrix(12.2,0,0,12,335.8,410.6)" />
<use xlink:href="#f1_25" transform="matrix(12.2,0,0,12,344.9,410.6)" />
<use xlink:href="#f1_2a" transform="matrix(12.2,0,0,12,355,410.6)" />
<use xlink:href="#f1_s" transform="matrix(12.2,0,0,12,362.2,410.6)" />
<use xlink:href="#f1_19" transform="matrix(12.2,0,0,12,375.2,410.6)" />
<use xlink:href="#f1_1s" transform="matrix(12.2,0,0,12,391.8,410.6)" />
<use xlink:href="#f1_25" transform="matrix(12.2,0,0,12,400.9,410.6)" />
<use xlink:href="#f1_2g" transform="matrix(12.2,0,0,12,410.6,410.6)" />
<use xlink:href="#f1_1u" transform="matrix(12.2,0,0,12,426.1,410.6)" />
<use xlink:href="#f1_26" transform="matrix(12.2,0,0,12,434.2,410.6)" />
<use xlink:href="#f1_24" transform="matrix(12.2,0,0,12,443.3,410.6)" />
<use xlink:href="#f1_24" transform="matrix(12.2,0,0,12,458.5,410.6)" />
<use xlink:href="#f1_26" transform="matrix(12.2,0,0,12,473.7,410.6)" />
<use xlink:href="#f1_25" transform="matrix(12.2,0,0,12,482.8,410.6)" />
<use xlink:href="#f1_27" transform="matrix(12.2,0,0,12,498.8,410.6)" />
<use xlink:href="#f1_1s" transform="matrix(12.2,0,0,12,508.9,410.6)" />
<use xlink:href="#f1_2b" transform="matrix(12.2,0,0,12,518,410.6)" />
<use xlink:href="#f1_2b" transform="matrix(12.2,0,0,12,525.1,410.6)" />
<use xlink:href="#f1_1w" transform="matrix(12.2,0,0,12,532.2,410.6)" />
<use xlink:href="#f1_29" transform="matrix(12.2,0,0,12,540.3,410.6)" />
<use xlink:href="#f1_25" transform="matrix(12.2,0,0,12,547.4,410.6)" />
<use xlink:href="#f1_2a" transform="matrix(12.2,0,0,12,557.5,410.6)" />
<use xlink:href="#f1_26" transform="matrix(12.2,0,0,12,570.6,410.6)" />
<use xlink:href="#f1_1x" transform="matrix(12.2,0,0,12,579.7,410.6)" />
<use xlink:href="#f1_2a" transform="matrix(12.2,0,0,12,591.2,410.6)" />
<use xlink:href="#f1_2c" transform="matrix(12.2,0,0,12,598.4,410.6)" />
<use xlink:href="#f1_27" transform="matrix(12.2,0,0,12,608.5,410.6)" />
<use xlink:href="#f1_1w" transform="matrix(12.2,0,0,12,619.1,410.6)" />
<use xlink:href="#f1_29" transform="matrix(12.2,0,0,12,627.2,410.6)" />
<use xlink:href="#f1_2d" transform="matrix(12.2,0,0,12,634.3,410.6)" />
<use xlink:href="#f1_20" transform="matrix(12.2,0,0,12,643.9,410.6)" />
<use xlink:href="#f1_2a" transform="matrix(12.2,0,0,12,648.9,410.6)" />
<use xlink:href="#f1_1w" transform="matrix(12.2,0,0,12,656.1,410.6)" />
<use xlink:href="#f1_1v" transform="matrix(12.2,0,0,12,664.2,410.6)" />
<use xlink:href="#f1_23" transform="matrix(12.2,0,0,12,680.3,410.6)" />
<use xlink:href="#f1_1w" transform="matrix(12.2,0,0,12,685.3,410.6)" />
<use xlink:href="#f1_1s" transform="matrix(12.2,0,0,12,693.4,410.6)" />
<use xlink:href="#f1_29" transform="matrix(12.2,0,0,12,702.5,410.6)" />
<use xlink:href="#f1_25" transform="matrix(12.2,0,0,12,709.6,410.6)" />
<use xlink:href="#f1_20" transform="matrix(12.2,0,0,12,719.7,410.6)" />
<use xlink:href="#f1_25" transform="matrix(12.2,0,0,12,724.8,410.6)" />
<use xlink:href="#f1_1y" transform="matrix(12.2,0,0,12,734.9,410.6)" />
<use xlink:href="#f1_1u" transform="matrix(12.2,0,0,12,749.9,410.6)" />
<use xlink:href="#f1_1s" transform="matrix(12.2,0,0,12,758,410.6)" />
<use xlink:href="#f1_25" transform="matrix(12.2,0,0,12,767.1,410.6)" />
<use xlink:href="#f1_1t" transform="matrix(12,0,0,12,197.9,438)" />
<use xlink:href="#f1_1w" transform="matrix(12,0,0,12,208.3,438)" />
<use xlink:href="#f1_1u" transform="matrix(12,0,0,12,222.2,438)" />
<use xlink:href="#f1_1s" transform="matrix(12,0,0,12,230.2,438)" />
<use xlink:href="#f1_27" transform="matrix(12,0,0,12,239.1,438)" />
<use xlink:href="#f1_2b" transform="matrix(12,0,0,12,249,438)" />
<use xlink:href="#f1_2c" transform="matrix(12,0,0,12,256,438)" />
<use xlink:href="#f1_29" transform="matrix(12,0,0,12,265.9,438)" />
<use xlink:href="#f1_1w" transform="matrix(12,0,0,12,272.9,438)" />
<use xlink:href="#f1_1v" transform="matrix(12,0,0,12,280.8,438)" />
<use xlink:href="#f1_2c" transform="matrix(12,0,0,12,296.7,438)" />
<use xlink:href="#f1_2a" transform="matrix(12,0,0,12,306.7,438)" />
<use xlink:href="#f1_20" transform="matrix(12,0,0,12,313.7,438)" />
<use xlink:href="#f1_25" transform="matrix(12,0,0,12,318.7,438)" />
<use xlink:href="#f1_1y" transform="matrix(12,0,0,12,328.6,438)" />
<use xlink:href="#f1_2a" transform="matrix(12,0,0,12,343.5,438)" />
<use xlink:href="#f1_2c" transform="matrix(12,0,0,12,350.6,438)" />
<use xlink:href="#f1_24" transform="matrix(12,0,0,12,360.5,438)" />
<use xlink:href="#f1_2a" transform="matrix(12,0,0,12,375.4,438)" />
<use xlink:href="#f1_1s" transform="matrix(12,0,0,12,388.4,438)" />
<use xlink:href="#f1_25" transform="matrix(12,0,0,12,397.4,438)" />
<use xlink:href="#f1_1v" transform="matrix(12,0,0,12,407.3,438)" />
<use xlink:href="#f1_27" transform="matrix(12,0,0,12,423.2,438)" />
<use xlink:href="#f1_29" transform="matrix(12,0,0,12,433.2,438)" />
<use xlink:href="#f1_26" transform="matrix(12,0,0,12,440.1,438)" />
<use xlink:href="#f1_1v" transform="matrix(12,0,0,12,449.6,438)" />
<use xlink:href="#f1_2c" transform="matrix(12,0,0,12,459.5,438)" />
<use xlink:href="#f1_1u" transform="matrix(12,0,0,12,469.4,438)" />
<use xlink:href="#f1_2b" transform="matrix(12,0,0,12,477.4,438)" />
<use xlink:href="#f1_2a" transform="matrix(12,0,0,12,484.3,438)" />
<use xlink:href="#f1_26" transform="matrix(12,0,0,12,497.3,438)" />
<use xlink:href="#f1_1x" transform="matrix(12,0,0,12,506.3,438)" />
<use xlink:href="#f1_26" transform="matrix(12,0,0,12,517.7,438)" />
<use xlink:href="#f1_25" transform="matrix(12,0,0,12,526.7,438)" />
<use xlink:href="#f1_1w" transform="matrix(12,0,0,12,536.6,438)" />
<use xlink:href="#f1_f" transform="matrix(12,0,0,12,544.5,438)" />
<use xlink:href="#f1_1v" transform="matrix(12,0,0,12,550.5,438)" />
<use xlink:href="#f1_20" transform="matrix(12,0,0,12,560.4,438)" />
<use xlink:href="#f1_24" transform="matrix(12,0,0,12,565.4,438)" />
<use xlink:href="#f1_1w" transform="matrix(12,0,0,12,580.3,438)" />
<use xlink:href="#f1_25" transform="matrix(12,0,0,12,588.2,438)" />
<use xlink:href="#f1_2a" transform="matrix(12,0,0,12,598.2,438)" />
<use xlink:href="#f1_20" transform="matrix(12,0,0,12,605.2,438)" />
<use xlink:href="#f1_26" transform="matrix(12,0,0,12,610.2,438)" />
<use xlink:href="#f1_25" transform="matrix(12,0,0,12,619.1,438)" />
<use xlink:href="#f1_1s" transform="matrix(12,0,0,12,629.1,438)" />
<use xlink:href="#f1_23" transform="matrix(12,0,0,12,638,438)" />
<use xlink:href="#f1_1t" transform="matrix(12,0,0,12,649,438)" />
<use xlink:href="#f1_1s" transform="matrix(12,0,0,12,658.9,438)" />
<use xlink:href="#f1_2a" transform="matrix(12,0,0,12,667.8,438)" />
<use xlink:href="#f1_1w" transform="matrix(12,0,0,12,674.9,438)" />
<use xlink:href="#f1_22" transform="matrix(12,0,0,12,688.8,438)" />
<use xlink:href="#f1_1w" transform="matrix(12,0,0,12,697.7,438)" />
<use xlink:href="#f1_29" transform="matrix(12,0,0,12,705.7,438)" />
<use xlink:href="#f1_25" transform="matrix(12,0,0,12,712.7,438)" />
<use xlink:href="#f1_1w" transform="matrix(12,0,0,12,722.6,438)" />
<use xlink:href="#f1_23" transform="matrix(12,0,0,12,730.5,438)" />
<use xlink:href="#f1_2a" transform="matrix(12,0,0,12,735.5,438)" />
</g>
<g fill="#000000" >
<use xlink:href="#f1_g" transform="matrix(12,0,0,12,754.9,438)" />
<use xlink:href="#f1_g" transform="matrix(12,0,0,12,769,438)" />
<use xlink:href="#f1_g" transform="matrix(12,0,0,12,783.1,438)" />
<use xlink:href="#f1_j" transform="matrix(12,0,0,12,805.4,438)" />
<use xlink:href="#f1_q" transform="matrix(12,0,0,12,814.3,438)" />
</g>
<g fill="#0000FF" >
<use xlink:href="#f1_m" transform="matrix(12,0,0,12,156.7,480.6)" />
<use xlink:href="#f1_g" transform="matrix(12,0,0,12,165.7,480.6)" />
<use xlink:href="#f1_j" transform="matrix(12,0,0,12,170.7,480.6)" />
<use xlink:href="#f1_18" transform="matrix(12,0,0,12,197.9,480.6)" />
<use xlink:href="#f1_20" transform="matrix(12,0,0,12,209.1,480.6)" />
<use xlink:href="#f1_2a" transform="matrix(12,0,0,12,214,480.6)" />
<use xlink:href="#f1_2b" transform="matrix(12,0,0,12,221.1,480.6)" />
<use xlink:href="#f1_26" transform="matrix(12,0,0,12,234,480.6)" />
<use xlink:href="#f1_1x" transform="matrix(12,0,0,12,242.9,480.6)" />
<use xlink:href="#f1_1w" transform="matrix(12,0,0,12,254.4,480.6)" />
<use xlink:href="#f1_2f" transform="matrix(12,0,0,12,262.3,480.6)" />
<use xlink:href="#f1_27" transform="matrix(12,0,0,12,271.8,480.6)" />
<use xlink:href="#f1_1w" transform="matrix(12,0,0,12,282.2,480.6)" />
<use xlink:href="#f1_29" transform="matrix(12,0,0,12,290.1,480.6)" />
<use xlink:href="#f1_20" transform="matrix(12,0,0,12,297.1,480.6)" />
<use xlink:href="#f1_24" transform="matrix(12,0,0,12,302.1,480.6)" />
<use xlink:href="#f1_1w" transform="matrix(12,0,0,12,317,480.6)" />
<use xlink:href="#f1_25" transform="matrix(12,0,0,12,324.9,480.6)" />
<use xlink:href="#f1_2b" transform="matrix(12,0,0,12,334.3,480.6)" />
<use xlink:href="#f1_2a" transform="matrix(12,0,0,12,341.3,480.6)" />
</g>
<g fill="#000000" >
<use xlink:href="#f1_g" transform="matrix(12,0,0,12,360.1,480.6)" />
<use xlink:href="#f1_g" transform="matrix(12,0,0,12,374.2,480.6)" />
<use xlink:href="#f1_g" transform="matrix(12,0,0,12,388.3,480.6)" />
<use xlink:href="#f1_g" transform="matrix(12,0,0,12,402.4,480.6)" />
<use xlink:href="#f1_g" transform="matrix(12,0,0,12,416.5,480.6)" />
<use xlink:href="#f1_g" transform="matrix(12,0,0,12,430.6,480.6)" />
<use xlink:href="#f1_g" transform="matrix(12,0,0,12,444.7,480.6)" />
<use xlink:href="#f1_g" transform="matrix(12,0,0,12,458.8,480.6)" />
<use xlink:href="#f1_g" transform="matrix(12,0,0,12,472.9,480.6)" />
<use xlink:href="#f1_g" transform="matrix(12,0,0,12,487,480.6)" />
<use xlink:href="#f1_g" transform="matrix(12,0,0,12,501.1,480.6)" />
<use xlink:href="#f1_g" transform="matrix(12,0,0,12,515.2,480.6)" />
<use xlink:href="#f1_g" transform="matrix(12,0,0,12,529.3,480.6)" />
<use xlink:href="#f1_g" transform="matrix(12,0,0,12,543.4,480.6)" />
<use xlink:href="#f1_g" transform="matrix(12,0,0,12,557.5,480.6)" />
<use xlink:href="#f1_g" transform="matrix(12,0,0,12,571.6,480.6)" />
<use xlink:href="#f1_g" transform="matrix(12,0,0,12,585.7,480.6)" />
<use xlink:href="#f1_g" transform="matrix(12,0,0,12,599.8,480.6)" />
<use xlink:href="#f1_g" transform="matrix(12,0,0,12,613.9,480.6)" />
<use xlink:href="#f1_g" transform="matrix(12,0,0,12,628,480.6)" />
<use xlink:href="#f1_g" transform="matrix(12,0,0,12,642.1,480.6)" />
<use xlink:href="#f1_g" transform="matrix(12,0,0,12,656.2,480.6)" />
<use xlink:href="#f1_g" transform="matrix(12,0,0,12,670.3,480.6)" />
<use xlink:href="#f1_g" transform="matrix(12,0,0,12,684.4,480.6)" />
<use xlink:href="#f1_g" transform="matrix(12,0,0,12,698.5,480.6)" />
<use xlink:href="#f1_g" transform="matrix(12,0,0,12,712.6,480.6)" />
<use xlink:href="#f1_g" transform="matrix(12,0,0,12,726.7,480.6)" />
<use xlink:href="#f1_g" transform="matrix(12,0,0,12,740.8,480.6)" />
<use xlink:href="#f1_g" transform="matrix(12,0,0,12,754.9,480.6)" />
<use xlink:href="#f1_g" transform="matrix(12,0,0,12,769,480.6)" />
<use xlink:href="#f1_g" transform="matrix(12,0,0,12,783.1,480.6)" />
<use xlink:href="#f1_m" transform="matrix(12,0,0,12,805.6,480.6)" />
<use xlink:href="#f1_m" transform="matrix(12,0,0,12,814.5,480.6)" />
</g>
<g fill="#0000FF" >
<use xlink:href="#f1_m" transform="matrix(12,0,0,12,156.7,508)" />
<use xlink:href="#f1_g" transform="matrix(12,0,0,12,165.7,508)" />
<use xlink:href="#f1_k" transform="matrix(12,0,0,12,170.7,508)" />
<use xlink:href="#f1_10" transform="matrix(12,0,0,12,197.9,508)" />
<use xlink:href="#f1_1s" transform="matrix(12,0,0,12,211.5,508)" />
<use xlink:href="#f1_2b" transform="matrix(12,0,0,12,220.5,508)" />
<use xlink:href="#f1_1s" transform="matrix(12,0,0,12,227.4,508)" />
<use xlink:href="#f1_2a" transform="matrix(12,0,0,12,236.4,508)" />
<use xlink:href="#f1_1w" transform="matrix(12,0,0,12,243.4,508)" />
<use xlink:href="#f1_2b" transform="matrix(12,0,0,12,251.4,508)" />
<use xlink:href="#f1_1v" transform="matrix(12,0,0,12,264.3,508)" />
<use xlink:href="#f1_1w" transform="matrix(12,0,0,12,274.2,508)" />
<use xlink:href="#f1_2a" transform="matrix(12,0,0,12,282.2,508)" />
<use xlink:href="#f1_1u" transform="matrix(12,0,0,12,289.2,508)" />
<use xlink:href="#f1_29" transform="matrix(12,0,0,12,297.2,508)" />
<use xlink:href="#f1_20" transform="matrix(12,0,0,12,304.1,508)" />
<use xlink:href="#f1_27" transform="matrix(12,0,0,12,309.1,508)" />
<use xlink:href="#f1_2b" transform="matrix(12,0,0,12,319,508)" />
<use xlink:href="#f1_20" transform="matrix(12,0,0,12,326,508)" />
<use xlink:href="#f1_26" transform="matrix(12,0,0,12,331,508)" />
<use xlink:href="#f1_25" transform="matrix(12,0,0,12,339.9,508)" />
</g>
<g fill="#000000" >
<use xlink:href="#f1_g" transform="matrix(12,0,0,12,360.1,508)" />
<use xlink:href="#f1_g" transform="matrix(12,0,0,12,374.2,508)" />
<use xlink:href="#f1_g" transform="matrix(12,0,0,12,388.3,508)" />
<use xlink:href="#f1_g" transform="matrix(12,0,0,12,402.4,508)" />
<use xlink:href="#f1_g" transform="matrix(12,0,0,12,416.5,508)" />
<use xlink:href="#f1_g" transform="matrix(12,0,0,12,430.6,508)" />
<use xlink:href="#f1_g" transform="matrix(12,0,0,12,444.7,508)" />
<use xlink:href="#f1_g" transform="matrix(12,0,0,12,458.8,508)" />
<use xlink:href="#f1_g" transform="matrix(12,0,0,12,472.9,508)" />
<use xlink:href="#f1_g" transform="matrix(12,0,0,12,487,508)" />
<use xlink:href="#f1_g" transform="matrix(12,0,0,12,501.1,508)" />
<use xlink:href="#f1_g" transform="matrix(12,0,0,12,515.2,508)" />
<use xlink:href="#f1_g" transform="matrix(12,0,0,12,529.3,508)" />
<use xlink:href="#f1_g" transform="matrix(12,0,0,12,543.4,508)" />
<use xlink:href="#f1_g" transform="matrix(12,0,0,12,557.5,508)" />
<use xlink:href="#f1_g" transform="matrix(12,0,0,12,571.6,508)" />
<use xlink:href="#f1_g" transform="matrix(12,0,0,12,585.7,508)" />
<use xlink:href="#f1_g" transform="matrix(12,0,0,12,599.8,508)" />
<use xlink:href="#f1_g" transform="matrix(12,0,0,12,613.9,508)" />
<use xlink:href="#f1_g" transform="matrix(12,0,0,12,628,508)" />
<use xlink:href="#f1_g" transform="matrix(12,0,0,12,642.1,508)" />
<use xlink:href="#f1_g" transform="matrix(12,0,0,12,656.2,508)" />
<use xlink:href="#f1_g" transform="matrix(12,0,0,12,670.3,508)" />
<use xlink:href="#f1_g" transform="matrix(12,0,0,12,684.4,508)" />
<use xlink:href="#f1_g" transform="matrix(12,0,0,12,698.5,508)" />
<use xlink:href="#f1_g" transform="matrix(12,0,0,12,712.6,508)" />
<use xlink:href="#f1_g" transform="matrix(12,0,0,12,726.7,508)" />
<use xlink:href="#f1_g" transform="matrix(12,0,0,12,740.8,508)" />
<use xlink:href="#f1_g" transform="matrix(12,0,0,12,754.9,508)" />
<use xlink:href="#f1_g" transform="matrix(12,0,0,12,769,508)" />
<use xlink:href="#f1_g" transform="matrix(12,0,0,12,783.1,508)" />
<use xlink:href="#f1_m" transform="matrix(12,0,0,12,805.8,508)" />
<use xlink:href="#f1_p" transform="matrix(12,0,0,12,814.8,508)" />
</g>
<g fill="#0000FF" >
<use xlink:href="#f1_m" transform="matrix(12,0,0,12,156.7,535.4)" />
<use xlink:href="#f1_g" transform="matrix(12,0,0,12,165.7,535.4)" />
<use xlink:href="#f1_l" transform="matrix(12,0,0,12,170.7,535.4)" />
<use xlink:href="#f1_1a" transform="matrix(12,0,0,12,197.9,535.4)" />
<use xlink:href="#f1_1w" transform="matrix(12,0,0,12,211.3,535.4)" />
<use xlink:href="#f1_1f" transform="matrix(12,0,0,12,219.2,535.4)" />
<use xlink:href="#f1_15" transform="matrix(12,0,0,12,229.2,535.4)" />
<use xlink:href="#f1_a" transform="matrix(12,0,0,12,235.6,535.4)" />
<use xlink:href="#f1_2a" transform="matrix(12,0,0,12,240.6,535.4)" />
<use xlink:href="#f1_x" transform="matrix(12,0,0,12,253.6,535.4)" />
<use xlink:href="#f1_1i" transform="matrix(12,0,0,12,265,535.4)" />
<use xlink:href="#f1_1k" transform="matrix(12,0,0,12,278.4,535.4)" />
<use xlink:href="#f1_1a" transform="matrix(12,0,0,12,297.8,535.4)" />
<use xlink:href="#f1_26" transform="matrix(12,0,0,12,311.2,535.4)" />
<use xlink:href="#f1_1v" transform="matrix(12,0,0,12,320.6,535.4)" />
<use xlink:href="#f1_1w" transform="matrix(12,0,0,12,330.6,535.4)" />
<use xlink:href="#f1_2a" transform="matrix(12,0,0,12,344.5,535.4)" />
<use xlink:href="#f1_27" transform="matrix(12,0,0,12,351.5,535.4)" />
<use xlink:href="#f1_1w" transform="matrix(12,0,0,12,362,535.4)" />
<use xlink:href="#f1_1u" transform="matrix(12,0,0,12,369.9,535.4)" />
<use xlink:href="#f1_20" transform="matrix(12,0,0,12,377.9,535.4)" />
<use xlink:href="#f1_2" transform="matrix(12,0,0,12,382.9,535.4)" />
<use xlink:href="#f1_1u" transform="matrix(12,0,0,12,392.8,535.4)" />
<use xlink:href="#f1_1s" transform="matrix(12,0,0,12,400.7,535.4)" />
<use xlink:href="#f1_2b" transform="matrix(12,0,0,12,409.7,535.4)" />
<use xlink:href="#f1_20" transform="matrix(12,0,0,12,416.6,535.4)" />
<use xlink:href="#f1_26" transform="matrix(12,0,0,12,421.6,535.4)" />
<use xlink:href="#f1_25" transform="matrix(12,0,0,12,430.5,535.4)" />
<use xlink:href="#f1_2a" transform="matrix(12,0,0,12,440.5,535.4)" />
</g>
<g fill="#000000" >
<use xlink:href="#f1_g" transform="matrix(12,0,0,12,458.8,535.4)" />
<use xlink:href="#f1_g" transform="matrix(12,0,0,12,472.9,535.4)" />
<use xlink:href="#f1_g" transform="matrix(12,0,0,12,487,535.4)" />
<use xlink:href="#f1_g" transform="matrix(12,0,0,12,501.1,535.4)" />
<use xlink:href="#f1_g" transform="matrix(12,0,0,12,515.2,535.4)" />
<use xlink:href="#f1_g" transform="matrix(12,0,0,12,529.3,535.4)" />
<use xlink:href="#f1_g" transform="matrix(12,0,0,12,543.4,535.4)" />
<use xlink:href="#f1_g" transform="matrix(12,0,0,12,557.5,535.4)" />
<use xlink:href="#f1_g" transform="matrix(12,0,0,12,571.6,535.4)" />
<use xlink:href="#f1_g" transform="matrix(12,0,0,12,585.7,535.4)" />
<use xlink:href="#f1_g" transform="matrix(12,0,0,12,599.8,535.4)" />
<use xlink:href="#f1_g" transform="matrix(12,0,0,12,613.9,535.4)" />
<use xlink:href="#f1_g" transform="matrix(12,0,0,12,628,535.4)" />
<use xlink:href="#f1_g" transform="matrix(12,0,0,12,642.1,535.4)" />
<use xlink:href="#f1_g" transform="matrix(12,0,0,12,656.2,535.4)" />
<use xlink:href="#f1_g" transform="matrix(12,0,0,12,670.3,535.4)" />
<use xlink:href="#f1_g" transform="matrix(12,0,0,12,684.4,535.4)" />
<use xlink:href="#f1_g" transform="matrix(12,0,0,12,698.5,535.4)" />
<use xlink:href="#f1_g" transform="matrix(12,0,0,12,712.6,535.4)" />
<use xlink:href="#f1_g" transform="matrix(12,0,0,12,726.7,535.4)" />
<use xlink:href="#f1_g" transform="matrix(12,0,0,12,740.8,535.4)" />
<use xlink:href="#f1_g" transform="matrix(12,0,0,12,754.9,535.4)" />
<use xlink:href="#f1_g" transform="matrix(12,0,0,12,769,535.4)" />
<use xlink:href="#f1_g" transform="matrix(12,0,0,12,783.1,535.4)" />
<use xlink:href="#f1_m" transform="matrix(12,0,0,12,805.4,535.4)" />
<use xlink:href="#f1_q" transform="matrix(12,0,0,12,814.3,535.4)" />
</g>
<g fill="#0000FF" >
<use xlink:href="#f1_n" transform="matrix(12,0,0,12,156.7,578)" />
<use xlink:href="#f1_g" transform="matrix(12,0,0,12,165.7,578)" />
<use xlink:href="#f1_j" transform="matrix(12,0,0,12,170.7,578)" />
<use xlink:href="#f1_y" transform="matrix(12,0,0,12,197.9,578)" />
<use xlink:href="#f1_1s" transform="matrix(12,0,0,12,210.5,578)" />
<use xlink:href="#f1_2a" transform="matrix(12,0,0,12,219.5,578)" />
<use xlink:href="#f1_1w" transform="matrix(12,0,0,12,226.5,578)" />
<use xlink:href="#f1_23" transform="matrix(12,0,0,12,234.5,578)" />
<use xlink:href="#f1_20" transform="matrix(12,0,0,12,239.5,578)" />
<use xlink:href="#f1_25" transform="matrix(12,0,0,12,244.4,578)" />
<use xlink:href="#f1_1w" transform="matrix(12,0,0,12,254.4,578)" />
<use xlink:href="#f1_1w" transform="matrix(12,0,0,12,268.3,578)" />
<use xlink:href="#f1_2f" transform="matrix(12,0,0,12,276.2,578)" />
<use xlink:href="#f1_27" transform="matrix(12,0,0,12,285.7,578)" />
<use xlink:href="#f1_1w" transform="matrix(12,0,0,12,296.1,578)" />
<use xlink:href="#f1_29" transform="matrix(12,0,0,12,304,578)" />
<use xlink:href="#f1_20" transform="matrix(12,0,0,12,311,578)" />
<use xlink:href="#f1_24" transform="matrix(12,0,0,12,316,578)" />
<use xlink:href="#f1_1w" transform="matrix(12,0,0,12,330.9,578)" />
<use xlink:href="#f1_25" transform="matrix(12,0,0,12,338.8,578)" />
<use xlink:href="#f1_2b" transform="matrix(12,0,0,12,348.3,578)" />
<use xlink:href="#f1_2a" transform="matrix(12,0,0,12,355.2,578)" />
<use xlink:href="#f1_29" transform="matrix(12,0,0,12,368.2,578)" />
<use xlink:href="#f1_1w" transform="matrix(12,0,0,12,375.2,578)" />
<use xlink:href="#f1_2a" transform="matrix(12,0,0,12,383.1,578)" />
<use xlink:href="#f1_2c" transform="matrix(12,0,0,12,390.2,578)" />
<use xlink:href="#f1_23" transform="matrix(12,0,0,12,400.1,578)" />
<use xlink:href="#f1_2b" transform="matrix(12,0,0,12,405.1,578)" />
<use xlink:href="#f1_2a" transform="matrix(12,0,0,12,412,578)" />
<use xlink:href="#f1_2a" transform="matrix(12,0,0,12,425.1,578)" />
<use xlink:href="#f1_1z" transform="matrix(12,0,0,12,432.1,578)" />
<use xlink:href="#f1_26" transform="matrix(12,0,0,12,442.1,578)" />
<use xlink:href="#f1_2e" transform="matrix(12,0,0,12,450.5,578)" />
<use xlink:href="#f1_20" transform="matrix(12,0,0,12,463.4,578)" />
<use xlink:href="#f1_25" transform="matrix(12,0,0,12,468.4,578)" />
<use xlink:href="#f1_1y" transform="matrix(12,0,0,12,478.3,578)" />
<use xlink:href="#f1_2b" transform="matrix(12,0,0,12,493.2,578)" />
<use xlink:href="#f1_1z" transform="matrix(12,0,0,12,500.2,578)" />
<use xlink:href="#f1_1w" transform="matrix(12,0,0,12,510.1,578)" />
<use xlink:href="#f1_1t" transform="matrix(12,0,0,12,524,578)" />
<use xlink:href="#f1_1w" transform="matrix(12,0,0,12,534.4,578)" />
<use xlink:href="#f1_2a" transform="matrix(12,0,0,12,542.4,578)" />
<use xlink:href="#f1_2b" transform="matrix(12,0,0,12,549.4,578)" />
<use xlink:href="#f1_24" transform="matrix(12,0,0,12,562.4,578)" />
<use xlink:href="#f1_26" transform="matrix(12,0,0,12,577.3,578)" />
<use xlink:href="#f1_1v" transform="matrix(12,0,0,12,586.7,578)" />
<use xlink:href="#f1_1w" transform="matrix(12,0,0,12,596.6,578)" />
<use xlink:href="#f1_23" transform="matrix(12,0,0,12,604.6,578)" />
<use xlink:href="#f1_2c" transform="matrix(12,0,0,12,615.5,578)" />
<use xlink:href="#f1_2a" transform="matrix(12,0,0,12,625.5,578)" />
<use xlink:href="#f1_20" transform="matrix(12,0,0,12,632.5,578)" />
<use xlink:href="#f1_25" transform="matrix(12,0,0,12,637.5,578)" />
<use xlink:href="#f1_1y" transform="matrix(12,0,0,12,647.4,578)" />
<use xlink:href="#f1_13" transform="matrix(12,0,0,12,662.3,578)" />
<use xlink:href="#f1_1a" transform="matrix(12,0,0,12,676.3,578)" />
<use xlink:href="#f1_1h" transform="matrix(12,0,0,12,689.8,578)" />
<use xlink:href="#f1_1b" transform="matrix(12,0,0,12,709.1,578)" />
<use xlink:href="#f1_1u" transform="matrix(12,0,0,12,723,578)" />
<use xlink:href="#f1_2b" transform="matrix(12,0,0,12,731,578)" />
<use xlink:href="#f1_1s" transform="matrix(12,0,0,12,737.9,578)" />
<use xlink:href="#f1_2d" transform="matrix(12,0,0,12,746.4,578)" />
<use xlink:href="#f1_1w" transform="matrix(12,0,0,12,755.3,578)" />
</g>
<g fill="#000000" >
<use xlink:href="#f1_g" transform="matrix(12,0,0,12,769,578)" />
<use xlink:href="#f1_g" transform="matrix(12,0,0,12,783.1,578)" />
<use xlink:href="#f1_n" transform="matrix(12,0,0,12,805.4,578)" />
<use xlink:href="#f1_i" transform="matrix(12,0,0,12,814.3,578)" />
</g>
<g fill="#0000FF" >
<use xlink:href="#f1_n" transform="matrix(12,0,0,12,156.7,605.4)" />
<use xlink:href="#f1_g" transform="matrix(12,0,0,12,165.7,605.4)" />
<use xlink:href="#f1_k" transform="matrix(12,0,0,12,170.7,605.4)" />
<use xlink:href="#f1_1e" transform="matrix(12,0,0,12,197.9,605.4)" />
<use xlink:href="#f1_1w" transform="matrix(12,0,0,12,211,605.4)" />
<use xlink:href="#f1_2a" transform="matrix(12,0,0,12,219,605.4)" />
<use xlink:href="#f1_2c" transform="matrix(12,0,0,12,226,605.4)" />
<use xlink:href="#f1_23" transform="matrix(12,0,0,12,236,605.4)" />
<use xlink:href="#f1_2b" transform="matrix(12,0,0,12,241,605.4)" />
<use xlink:href="#f1_2a" transform="matrix(12,0,0,12,247.9,605.4)" />
<use xlink:href="#f1_2a" transform="matrix(12,0,0,12,260.9,605.4)" />
<use xlink:href="#f1_1z" transform="matrix(12,0,0,12,268,605.4)" />
<use xlink:href="#f1_26" transform="matrix(12,0,0,12,277.9,605.4)" />
<use xlink:href="#f1_2e" transform="matrix(12,0,0,12,286.4,605.4)" />
<use xlink:href="#f1_20" transform="matrix(12,0,0,12,299.3,605.4)" />
<use xlink:href="#f1_25" transform="matrix(12,0,0,12,304.2,605.4)" />
<use xlink:href="#f1_1y" transform="matrix(12,0,0,12,314.2,605.4)" />
<use xlink:href="#f1_1t" transform="matrix(12,0,0,12,329.1,605.4)" />
<use xlink:href="#f1_1w" transform="matrix(12,0,0,12,339.5,605.4)" />
<use xlink:href="#f1_2a" transform="matrix(12,0,0,12,347.5,605.4)" />
<use xlink:href="#f1_2b" transform="matrix(12,0,0,12,354.5,605.4)" />
<use xlink:href="#f1_24" transform="matrix(12,0,0,12,367.4,605.4)" />
<use xlink:href="#f1_26" transform="matrix(12,0,0,12,382.3,605.4)" />
<use xlink:href="#f1_1v" transform="matrix(12,0,0,12,391.8,605.4)" />
<use xlink:href="#f1_1w" transform="matrix(12,0,0,12,401.7,605.4)" />
<use xlink:href="#f1_23" transform="matrix(12,0,0,12,409.7,605.4)" />
<use xlink:href="#f1_2c" transform="matrix(12,0,0,12,420.6,605.4)" />
<use xlink:href="#f1_2a" transform="matrix(12,0,0,12,430.5,605.4)" />
<use xlink:href="#f1_20" transform="matrix(12,0,0,12,437.6,605.4)" />
<use xlink:href="#f1_25" transform="matrix(12,0,0,12,442.5,605.4)" />
<use xlink:href="#f1_1y" transform="matrix(12,0,0,12,452.5,605.4)" />
<use xlink:href="#f1_19" transform="matrix(12,0,0,12,467.4,605.4)" />
<use xlink:href="#f1_1s" transform="matrix(12,0,0,12,483.8,605.4)" />
<use xlink:href="#f1_2b" transform="matrix(12,0,0,12,492.7,605.4)" />
<use xlink:href="#f1_23" transform="matrix(12,0,0,12,499.7,605.4)" />
<use xlink:href="#f1_1s" transform="matrix(12,0,0,12,504.6,605.4)" />
<use xlink:href="#f1_1t" transform="matrix(12,0,0,12,513.6,605.4)" />
<use xlink:href="#f1_b" transform="matrix(12,0,0,12,529.5,605.4)" />
<use xlink:href="#f1_18" transform="matrix(12,0,0,12,536.4,605.4)" />
<use xlink:href="#f1_23" transform="matrix(12,0,0,12,547.6,605.4)" />
<use xlink:href="#f1_26" transform="matrix(12,0,0,12,552.6,605.4)" />
<use xlink:href="#f1_2g" transform="matrix(12,0,0,12,561,605.4)" />
<use xlink:href="#f1_1v" transform="matrix(12,0,0,12,570.5,605.4)" />
<use xlink:href="#f1_1n" transform="matrix(12,0,0,12,586.4,605.4)" />
<use xlink:href="#f1_j" transform="matrix(12,0,0,12,591.3,605.4)" />
<use xlink:href="#f1_m" transform="matrix(12,0,0,12,600.3,605.4)" />
<use xlink:href="#f1_1p" transform="matrix(12,0,0,12,609.2,605.4)" />
<use xlink:href="#f1_c" transform="matrix(12,0,0,12,614.2,605.4)" />
</g>
<g fill="#000000" >
<use xlink:href="#f1_g" transform="matrix(12,0,0,12,628,605.4)" />
<use xlink:href="#f1_g" transform="matrix(12,0,0,12,642.1,605.4)" />
<use xlink:href="#f1_g" transform="matrix(12,0,0,12,656.2,605.4)" />
<use xlink:href="#f1_g" transform="matrix(12,0,0,12,670.3,605.4)" />
<use xlink:href="#f1_g" transform="matrix(12,0,0,12,684.4,605.4)" />
<use xlink:href="#f1_g" transform="matrix(12,0,0,12,698.5,605.4)" />
<use xlink:href="#f1_g" transform="matrix(12,0,0,12,712.6,605.4)" />
<use xlink:href="#f1_g" transform="matrix(12,0,0,12,726.7,605.4)" />
<use xlink:href="#f1_g" transform="matrix(12,0,0,12,740.8,605.4)" />
<use xlink:href="#f1_g" transform="matrix(12,0,0,12,754.9,605.4)" />
<use xlink:href="#f1_g" transform="matrix(12,0,0,12,769,605.4)" />
<use xlink:href="#f1_g" transform="matrix(12,0,0,12,783.1,605.4)" />
<use xlink:href="#f1_n" transform="matrix(12,0,0,12,805.4,605.4)" />
<use xlink:href="#f1_i" transform="matrix(12,0,0,12,814.3,605.4)" />
</g>
<g fill="#0000FF" >
<use xlink:href="#f1_n" transform="matrix(12,0,0,12,156.7,632.8)" />
<use xlink:href="#f1_g" transform="matrix(12,0,0,12,165.7,632.8)" />
<use xlink:href="#f1_l" transform="matrix(12,0,0,12,170.7,632.8)" />
<use xlink:href="#f1_1e" transform="matrix(12,0,0,12,197.9,632.8)" />
<use xlink:href="#f1_1w" transform="matrix(12,0,0,12,211,632.8)" />
<use xlink:href="#f1_2a" transform="matrix(12,0,0,12,219,632.8)" />
<use xlink:href="#f1_2c" transform="matrix(12,0,0,12,226,632.8)" />
<use xlink:href="#f1_23" transform="matrix(12,0,0,12,236,632.8)" />
<use xlink:href="#f1_2b" transform="matrix(12,0,0,12,241,632.8)" />
<use xlink:href="#f1_2a" transform="matrix(12,0,0,12,247.9,632.8)" />
<use xlink:href="#f1_26" transform="matrix(12,0,0,12,260.9,632.8)" />
<use xlink:href="#f1_1x" transform="matrix(12,0,0,12,269.9,632.8)" />
<use xlink:href="#f1_1w" transform="matrix(12,0,0,12,281.3,632.8)" />
<use xlink:href="#f1_2f" transform="matrix(12,0,0,12,289.2,632.8)" />
<use xlink:href="#f1_27" transform="matrix(12,0,0,12,298.7,632.8)" />
<use xlink:href="#f1_1w" transform="matrix(12,0,0,12,309.1,632.8)" />
<use xlink:href="#f1_29" transform="matrix(12,0,0,12,317.1,632.8)" />
<use xlink:href="#f1_20" transform="matrix(12,0,0,12,324,632.8)" />
<use xlink:href="#f1_24" transform="matrix(12,0,0,12,329,632.8)" />
<use xlink:href="#f1_1w" transform="matrix(12,0,0,12,343.9,632.8)" />
<use xlink:href="#f1_25" transform="matrix(12,0,0,12,351.8,632.8)" />
<use xlink:href="#f1_2b" transform="matrix(12,0,0,12,361.3,632.8)" />
<use xlink:href="#f1_2a" transform="matrix(12,0,0,12,368.2,632.8)" />
<use xlink:href="#f1_2e" transform="matrix(12,0,0,12,381.2,632.8)" />
<use xlink:href="#f1_20" transform="matrix(12,0,0,12,394.2,632.8)" />
<use xlink:href="#f1_2b" transform="matrix(12,0,0,12,399.1,632.8)" />
<use xlink:href="#f1_1z" transform="matrix(12,0,0,12,406.1,632.8)" />
<use xlink:href="#f1_14" transform="matrix(12,0,0,12,422,632.8)" />
<use xlink:href="#f1_2g" transform="matrix(12,0,0,12,435.4,632.8)" />
<use xlink:href="#f1_1t" transform="matrix(12,0,0,12,444.8,632.8)" />
<use xlink:href="#f1_29" transform="matrix(12,0,0,12,454.8,632.8)" />
<use xlink:href="#f1_20" transform="matrix(12,0,0,12,461.7,632.8)" />
<use xlink:href="#f1_1v" transform="matrix(12,0,0,12,466.7,632.8)" />
<use xlink:href="#f1_1f" transform="matrix(12,0,0,12,482.6,632.8)" />
<use xlink:href="#f1_26" transform="matrix(12,0,0,12,492.5,632.8)" />
<use xlink:href="#f1_10" transform="matrix(12,0,0,12,501.4,632.8)" />
<use xlink:href="#f1_24" transform="matrix(12,0,0,12,521.1,632.8)" />
<use xlink:href="#f1_26" transform="matrix(12,0,0,12,536,632.8)" />
<use xlink:href="#f1_1v" transform="matrix(12,0,0,12,545.4,632.8)" />
<use xlink:href="#f1_1w" transform="matrix(12,0,0,12,555.4,632.8)" />
<use xlink:href="#f1_23" transform="matrix(12,0,0,12,563.3,632.8)" />
<use xlink:href="#f1_1w" transform="matrix(12,0,0,12,574.2,632.8)" />
<use xlink:href="#f1_2d" transform="matrix(12,0,0,12,582.2,632.8)" />
<use xlink:href="#f1_1s" transform="matrix(12,0,0,12,590.6,632.8)" />
<use xlink:href="#f1_23" transform="matrix(12,0,0,12,599.6,632.8)" />
<use xlink:href="#f1_2c" transform="matrix(12,0,0,12,604.5,632.8)" />
<use xlink:href="#f1_1s" transform="matrix(12,0,0,12,614.5,632.8)" />
<use xlink:href="#f1_2b" transform="matrix(12,0,0,12,623.4,632.8)" />
<use xlink:href="#f1_20" transform="matrix(12,0,0,12,630.4,632.8)" />
<use xlink:href="#f1_26" transform="matrix(12,0,0,12,635.3,632.8)" />
<use xlink:href="#f1_25" transform="matrix(12,0,0,12,644.3,632.8)" />
<use xlink:href="#f1_24" transform="matrix(12,0,0,12,660.2,632.8)" />
<use xlink:href="#f1_1w" transform="matrix(12,0,0,12,675.1,632.8)" />
<use xlink:href="#f1_2b" transform="matrix(12,0,0,12,683,632.8)" />
<use xlink:href="#f1_1z" transform="matrix(12,0,0,12,690,632.8)" />
<use xlink:href="#f1_26" transform="matrix(12,0,0,12,699.9,632.8)" />
<use xlink:href="#f1_1v" transform="matrix(12,0,0,12,709.4,632.8)" />
</g>
<g fill="#000000" >
<use xlink:href="#f1_g" transform="matrix(12,0,0,12,726.7,632.8)" />
<use xlink:href="#f1_g" transform="matrix(12,0,0,12,740.8,632.8)" />
<use xlink:href="#f1_g" transform="matrix(12,0,0,12,754.9,632.8)" />
<use xlink:href="#f1_g" transform="matrix(12,0,0,12,769,632.8)" />
<use xlink:href="#f1_g" transform="matrix(12,0,0,12,783.1,632.8)" />
<use xlink:href="#f1_n" transform="matrix(12,0,0,12,806.7,632.8)" />
<use xlink:href="#f1_j" transform="matrix(12,0,0,12,815.7,632.8)" />
</g>
<g fill="#0000FF" >
<use xlink:href="#f1_n" transform="matrix(12,0,0,12,156.7,660.1)" />
<use xlink:href="#f1_g" transform="matrix(12,0,0,12,165.7,660.1)" />
<use xlink:href="#f1_m" transform="matrix(12,0,0,12,170.7,660.1)" />
<use xlink:href="#f1_1e" transform="matrix(12,0,0,12,197.9,660.1)" />
<use xlink:href="#f1_1w" transform="matrix(12,0,0,12,211,660.1)" />
<use xlink:href="#f1_2a" transform="matrix(12,0,0,12,219,660.1)" />
<use xlink:href="#f1_2c" transform="matrix(12,0,0,12,226,660.1)" />
<use xlink:href="#f1_23" transform="matrix(12,0,0,12,236,660.1)" />
<use xlink:href="#f1_2b" transform="matrix(12,0,0,12,241,660.1)" />
<use xlink:href="#f1_2a" transform="matrix(12,0,0,12,247.9,660.1)" />
<use xlink:href="#f1_26" transform="matrix(12,0,0,12,260.9,660.1)" />
<use xlink:href="#f1_1x" transform="matrix(12,0,0,12,269.9,660.1)" />
<use xlink:href="#f1_1w" transform="matrix(12,0,0,12,281.3,660.1)" />
<use xlink:href="#f1_2f" transform="matrix(12,0,0,12,289.2,660.1)" />
<use xlink:href="#f1_27" transform="matrix(12,0,0,12,298.7,660.1)" />
<use xlink:href="#f1_1w" transform="matrix(12,0,0,12,309.1,660.1)" />
<use xlink:href="#f1_29" transform="matrix(12,0,0,12,317.1,660.1)" />
<use xlink:href="#f1_20" transform="matrix(12,0,0,12,324,660.1)" />
<use xlink:href="#f1_24" transform="matrix(12,0,0,12,329,660.1)" />
<use xlink:href="#f1_1w" transform="matrix(12,0,0,12,343.9,660.1)" />
<use xlink:href="#f1_25" transform="matrix(12,0,0,12,351.8,660.1)" />
<use xlink:href="#f1_2b" transform="matrix(12,0,0,12,361.3,660.1)" />
<use xlink:href="#f1_2a" transform="matrix(12,0,0,12,368.2,660.1)" />
<use xlink:href="#f1_2e" transform="matrix(12,0,0,12,381.2,660.1)" />
<use xlink:href="#f1_20" transform="matrix(12,0,0,12,394.2,660.1)" />
<use xlink:href="#f1_2b" transform="matrix(12,0,0,12,399.1,660.1)" />
<use xlink:href="#f1_1z" transform="matrix(12,0,0,12,406.1,660.1)" />
<use xlink:href="#f1_z" transform="matrix(12,0,0,12,422,660.1)" />
<use xlink:href="#f1_1i" transform="matrix(12,0,0,12,434.9,660.1)" />
<use xlink:href="#f1_1f" transform="matrix(12,0,0,12,454.3,660.1)" />
<use xlink:href="#f1_26" transform="matrix(12,0,0,12,464.2,660.1)" />
<use xlink:href="#f1_10" transform="matrix(12,0,0,12,473.1,660.1)" />
<use xlink:href="#f1_24" transform="matrix(12,0,0,12,492.8,660.1)" />
<use xlink:href="#f1_26" transform="matrix(12,0,0,12,507.7,660.1)" />
<use xlink:href="#f1_1v" transform="matrix(12,0,0,12,517.1,660.1)" />
<use xlink:href="#f1_1w" transform="matrix(12,0,0,12,527,660.1)" />
<use xlink:href="#f1_23" transform="matrix(12,0,0,12,535,660.1)" />
<use xlink:href="#f1_1w" transform="matrix(12,0,0,12,545.9,660.1)" />
<use xlink:href="#f1_2d" transform="matrix(12,0,0,12,553.9,660.1)" />
<use xlink:href="#f1_1s" transform="matrix(12,0,0,12,562.3,660.1)" />
<use xlink:href="#f1_23" transform="matrix(12,0,0,12,571.3,660.1)" />
<use xlink:href="#f1_2c" transform="matrix(12,0,0,12,576.2,660.1)" />
<use xlink:href="#f1_1s" transform="matrix(12,0,0,12,586.2,660.1)" />
<use xlink:href="#f1_2b" transform="matrix(12,0,0,12,595.1,660.1)" />
<use xlink:href="#f1_20" transform="matrix(12,0,0,12,602.1,660.1)" />
<use xlink:href="#f1_26" transform="matrix(12,0,0,12,607,660.1)" />
<use xlink:href="#f1_25" transform="matrix(12,0,0,12,616,660.1)" />
<use xlink:href="#f1_24" transform="matrix(12,0,0,12,631.9,660.1)" />
<use xlink:href="#f1_1w" transform="matrix(12,0,0,12,646.8,660.1)" />
<use xlink:href="#f1_2b" transform="matrix(12,0,0,12,654.7,660.1)" />
<use xlink:href="#f1_1z" transform="matrix(12,0,0,12,661.7,660.1)" />
<use xlink:href="#f1_26" transform="matrix(12,0,0,12,671.6,660.1)" />
<use xlink:href="#f1_1v" transform="matrix(12,0,0,12,681,660.1)" />
</g>
<g fill="#000000" >
<use xlink:href="#f1_g" transform="matrix(12,0,0,12,698.5,660.1)" />
<use xlink:href="#f1_g" transform="matrix(12,0,0,12,712.6,660.1)" />
<use xlink:href="#f1_g" transform="matrix(12,0,0,12,726.7,660.1)" />
<use xlink:href="#f1_g" transform="matrix(12,0,0,12,740.8,660.1)" />
<use xlink:href="#f1_g" transform="matrix(12,0,0,12,754.9,660.1)" />
<use xlink:href="#f1_g" transform="matrix(12,0,0,12,769,660.1)" />
<use xlink:href="#f1_g" transform="matrix(12,0,0,12,783.1,660.1)" />
<use xlink:href="#f1_n" transform="matrix(12,0,0,12,805.6,660.1)" />
<use xlink:href="#f1_m" transform="matrix(12,0,0,12,814.5,660.1)" />
</g>
<g fill="#0000FF" >
<use xlink:href="#f1_n" transform="matrix(12,0,0,12,156.7,687.5)" />
<use xlink:href="#f1_g" transform="matrix(12,0,0,12,165.7,687.5)" />
<use xlink:href="#f1_n" transform="matrix(12,0,0,12,170.7,687.5)" />
<use xlink:href="#f1_1c" transform="matrix(12,0,0,12,197.9,687.5)" />
<use xlink:href="#f1_29" transform="matrix(12,0,0,12,210.1,687.5)" />
<use xlink:href="#f1_1w" transform="matrix(12,0,0,12,217.1,687.5)" />
<use xlink:href="#f1_1v" transform="matrix(12,0,0,12,225.1,687.5)" />
<use xlink:href="#f1_20" transform="matrix(12,0,0,12,235.1,687.5)" />
<use xlink:href="#f1_1u" transform="matrix(12,0,0,12,240.1,687.5)" />
<use xlink:href="#f1_2b" transform="matrix(12,0,0,12,248.1,687.5)" />
<use xlink:href="#f1_20" transform="matrix(12,0,0,12,255.1,687.5)" />
<use xlink:href="#f1_26" transform="matrix(12,0,0,12,260.1,687.5)" />
<use xlink:href="#f1_25" transform="matrix(12,0,0,12,269.1,687.5)" />
<use xlink:href="#f1_1w" transform="matrix(12,0,0,12,285.1,687.5)" />
<use xlink:href="#f1_29" transform="matrix(12,0,0,12,293.1,687.5)" />
<use xlink:href="#f1_29" transform="matrix(12,0,0,12,300.1,687.5)" />
<use xlink:href="#f1_26" transform="matrix(12,0,0,12,307.1,687.5)" />
<use xlink:href="#f1_29" transform="matrix(12,0,0,12,316.1,687.5)" />
<use xlink:href="#f1_1f" transform="matrix(12,0,0,12,329,687.5)" />
<use xlink:href="#f1_19" transform="matrix(12,0,0,12,339,687.5)" />
<use xlink:href="#f1_1f" transform="matrix(12,0,0,12,355.5,687.5)" />
<use xlink:href="#f1_11" transform="matrix(12,0,0,12,365.5,687.5)" />
<use xlink:href="#f1_26" transform="matrix(12,0,0,12,383.7,687.5)" />
<use xlink:href="#f1_1x" transform="matrix(12,0,0,12,392.7,687.5)" />
<use xlink:href="#f1_2b" transform="matrix(12,0,0,12,404.2,687.5)" />
<use xlink:href="#f1_1z" transform="matrix(12,0,0,12,411.2,687.5)" />
<use xlink:href="#f1_1w" transform="matrix(12,0,0,12,421.1,687.5)" />
<use xlink:href="#f1_1t" transform="matrix(12,0,0,12,435.1,687.5)" />
<use xlink:href="#f1_1w" transform="matrix(12,0,0,12,445.6,687.5)" />
<use xlink:href="#f1_2a" transform="matrix(12,0,0,12,453.6,687.5)" />
<use xlink:href="#f1_2b" transform="matrix(12,0,0,12,460.7,687.5)" />
<use xlink:href="#f1_24" transform="matrix(12,0,0,12,473.7,687.5)" />
<use xlink:href="#f1_26" transform="matrix(12,0,0,12,488.7,687.5)" />
<use xlink:href="#f1_1v" transform="matrix(12,0,0,12,498.2,687.5)" />
<use xlink:href="#f1_1w" transform="matrix(12,0,0,12,508.2,687.5)" />
<use xlink:href="#f1_23" transform="matrix(12,0,0,12,516.1,687.5)" />
<use xlink:href="#f1_2a" transform="matrix(12,0,0,12,521.1,687.5)" />
<use xlink:href="#f1_1v" transform="matrix(12,0,0,12,534.2,687.5)" />
<use xlink:href="#f1_20" transform="matrix(12,0,0,12,544.2,687.5)" />
<use xlink:href="#f1_2a" transform="matrix(12,0,0,12,549.2,687.5)" />
<use xlink:href="#f1_1u" transform="matrix(12,0,0,12,556.3,687.5)" />
<use xlink:href="#f1_26" transform="matrix(12,0,0,12,564.3,687.5)" />
<use xlink:href="#f1_2d" transform="matrix(12,0,0,12,572.8,687.5)" />
<use xlink:href="#f1_1w" transform="matrix(12,0,0,12,581.8,687.5)" />
<use xlink:href="#f1_29" transform="matrix(12,0,0,12,589.8,687.5)" />
<use xlink:href="#f1_1w" transform="matrix(12,0,0,12,596.8,687.5)" />
<use xlink:href="#f1_1v" transform="matrix(12,0,0,12,604.8,687.5)" />
<use xlink:href="#f1_20" transform="matrix(12,0,0,12,620.8,687.5)" />
<use xlink:href="#f1_25" transform="matrix(12,0,0,12,625.8,687.5)" />
<use xlink:href="#f1_1w" transform="matrix(12,0,0,12,641.7,687.5)" />
<use xlink:href="#f1_2f" transform="matrix(12,0,0,12,649.7,687.5)" />
<use xlink:href="#f1_27" transform="matrix(12,0,0,12,659.2,687.5)" />
<use xlink:href="#f1_1w" transform="matrix(12,0,0,12,669.7,687.5)" />
<use xlink:href="#f1_29" transform="matrix(12,0,0,12,677.7,687.5)" />
<use xlink:href="#f1_20" transform="matrix(12,0,0,12,684.7,687.5)" />
<use xlink:href="#f1_24" transform="matrix(12,0,0,12,689.7,687.5)" />
<use xlink:href="#f1_1w" transform="matrix(12,0,0,12,704.7,687.5)" />
<use xlink:href="#f1_25" transform="matrix(12,0,0,12,712.7,687.5)" />
<use xlink:href="#f1_2b" transform="matrix(12,0,0,12,722.2,687.5)" />
<use xlink:href="#f1_2a" transform="matrix(12,0,0,12,729.2,687.5)" />
<use xlink:href="#f1_2e" transform="matrix(12,0,0,12,742.3,687.5)" />
<use xlink:href="#f1_20" transform="matrix(12,0,0,12,755.2,687.5)" />
<use xlink:href="#f1_2b" transform="matrix(12,0,0,12,760.2,687.5)" />
<use xlink:href="#f1_1z" transform="matrix(12,0,0,12,767.2,687.5)" />
<use xlink:href="#f1_1x" transform="matrix(12,0,0,12,197.9,714.9)" />
<use xlink:href="#f1_26" transform="matrix(12,0,0,12,203.3,714.9)" />
<use xlink:href="#f1_2c" transform="matrix(12,0,0,12,212.3,714.9)" />
<use xlink:href="#f1_29" transform="matrix(12,0,0,12,222.2,714.9)" />
<use xlink:href="#f1_1t" transform="matrix(12,0,0,12,235.1,714.9)" />
<use xlink:href="#f1_1s" transform="matrix(12,0,0,12,245.1,714.9)" />
<use xlink:href="#f1_2a" transform="matrix(12,0,0,12,254,714.9)" />
<use xlink:href="#f1_1w" transform="matrix(12,0,0,12,261.1,714.9)" />
<use xlink:href="#f1_22" transform="matrix(12,0,0,12,275,714.9)" />
<use xlink:href="#f1_1w" transform="matrix(12,0,0,12,283.9,714.9)" />
<use xlink:href="#f1_29" transform="matrix(12,0,0,12,291.9,714.9)" />
<use xlink:href="#f1_25" transform="matrix(12,0,0,12,298.8,714.9)" />
<use xlink:href="#f1_1w" transform="matrix(12,0,0,12,308.8,714.9)" />
<use xlink:href="#f1_23" transform="matrix(12,0,0,12,316.7,714.9)" />
<use xlink:href="#f1_2a" transform="matrix(12,0,0,12,321.7,714.9)" />
<use xlink:href="#f1_e" transform="matrix(12,0,0,12,328.7,714.9)" />
<use xlink:href="#f1_1y" transform="matrix(12,0,0,12,339.7,714.9)" />
<use xlink:href="#f1_29" transform="matrix(12,0,0,12,348.6,714.9)" />
<use xlink:href="#f1_1w" transform="matrix(12,0,0,12,355.6,714.9)" />
<use xlink:href="#f1_1w" transform="matrix(12,0,0,12,363.5,714.9)" />
<use xlink:href="#f1_1v" transform="matrix(12,0,0,12,371.5,714.9)" />
<use xlink:href="#f1_2g" transform="matrix(12,0,0,12,381.4,714.9)" />
<use xlink:href="#f1_2a" transform="matrix(12,0,0,12,396.8,714.9)" />
<use xlink:href="#f1_1w" transform="matrix(12,0,0,12,403.8,714.9)" />
<use xlink:href="#f1_1s" transform="matrix(12,0,0,12,411.8,714.9)" />
<use xlink:href="#f1_29" transform="matrix(12,0,0,12,420.7,714.9)" />
<use xlink:href="#f1_1u" transform="matrix(12,0,0,12,427.7,714.9)" />
<use xlink:href="#f1_1z" transform="matrix(12,0,0,12,435.1,714.9)" />
<use xlink:href="#f1_1s" transform="matrix(12,0,0,12,451,714.9)" />
<use xlink:href="#f1_25" transform="matrix(12,0,0,12,460,714.9)" />
<use xlink:href="#f1_1v" transform="matrix(12,0,0,12,469.9,714.9)" />
<use xlink:href="#f1_y" transform="matrix(12,0,0,12,485.8,714.9)" />
<use xlink:href="#f1_15" transform="matrix(12,0,0,12,498.5,714.9)" />
<use xlink:href="#f1_z" transform="matrix(12,0,0,12,504.9,714.9)" />
<use xlink:href="#f1_2a" transform="matrix(12,0,0,12,523.8,714.9)" />
<use xlink:href="#f1_1u" transform="matrix(12,0,0,12,530.9,714.9)" />
<use xlink:href="#f1_26" transform="matrix(12,0,0,12,538.8,714.9)" />
<use xlink:href="#f1_29" transform="matrix(12,0,0,12,547.8,714.9)" />
<use xlink:href="#f1_20" transform="matrix(12,0,0,12,554.7,714.9)" />
<use xlink:href="#f1_25" transform="matrix(12,0,0,12,559.7,714.9)" />
<use xlink:href="#f1_1y" transform="matrix(12,0,0,12,569.6,714.9)" />
</g>
<g fill="#000000" >
<use xlink:href="#f1_g" transform="matrix(12,0,0,12,599.8,714.9)" />
<use xlink:href="#f1_g" transform="matrix(12,0,0,12,613.9,714.9)" />
<use xlink:href="#f1_g" transform="matrix(12,0,0,12,628,714.9)" />
<use xlink:href="#f1_g" transform="matrix(12,0,0,12,642.1,714.9)" />
<use xlink:href="#f1_g" transform="matrix(12,0,0,12,656.2,714.9)" />
<use xlink:href="#f1_g" transform="matrix(12,0,0,12,670.3,714.9)" />
<use xlink:href="#f1_g" transform="matrix(12,0,0,12,684.4,714.9)" />
<use xlink:href="#f1_g" transform="matrix(12,0,0,12,698.5,714.9)" />
<use xlink:href="#f1_g" transform="matrix(12,0,0,12,712.6,714.9)" />
<use xlink:href="#f1_g" transform="matrix(12,0,0,12,726.7,714.9)" />
<use xlink:href="#f1_g" transform="matrix(12,0,0,12,740.8,714.9)" />
<use xlink:href="#f1_g" transform="matrix(12,0,0,12,754.9,714.9)" />
<use xlink:href="#f1_g" transform="matrix(12,0,0,12,769,714.9)" />
<use xlink:href="#f1_g" transform="matrix(12,0,0,12,783.1,714.9)" />
<use xlink:href="#f1_o" transform="matrix(12,0,0,12,806.7,714.9)" />
<use xlink:href="#f1_j" transform="matrix(12,0,0,12,815.7,714.9)" />
</g>
<g fill="#0000FF" >
<use xlink:href="#f1_n" transform="matrix(12,0,0,12,156.7,742.3)" />
<use xlink:href="#f1_g" transform="matrix(12,0,0,12,165.7,742.3)" />
<use xlink:href="#f1_o" transform="matrix(12,0,0,12,170.7,742.3)" />
<use xlink:href="#f1_x" transform="matrix(12.2,0,0,12,197.9,742.3)" />
<use xlink:href="#f1_2d" transform="matrix(12.2,0,0,12,211.5,742.3)" />
<use xlink:href="#f1_1w" transform="matrix(12.2,0,0,12,220.7,742.3)" />
<use xlink:href="#f1_29" transform="matrix(12.2,0,0,12,228.8,742.3)" />
<use xlink:href="#f1_1s" transform="matrix(12.2,0,0,12,235.8,742.3)" />
<use xlink:href="#f1_1y" transform="matrix(12.2,0,0,12,245,742.3)" />
<use xlink:href="#f1_1w" transform="matrix(12.2,0,0,12,254.1,742.3)" />
<use xlink:href="#f1_25" transform="matrix(12.2,0,0,12,268.1,742.3)" />
<use xlink:href="#f1_2c" transform="matrix(12.2,0,0,12,277.8,742.3)" />
<use xlink:href="#f1_24" transform="matrix(12.2,0,0,12,287.9,742.3)" />
<use xlink:href="#f1_1t" transform="matrix(12.2,0,0,12,302.6,742.3)" />
<use xlink:href="#f1_1w" transform="matrix(12.2,0,0,12,313.2,742.3)" />
<use xlink:href="#f1_29" transform="matrix(12.2,0,0,12,321.3,742.3)" />
<use xlink:href="#f1_26" transform="matrix(12.2,0,0,12,334.4,742.3)" />
<use xlink:href="#f1_1x" transform="matrix(12.2,0,0,12,343.5,742.3)" />
<use xlink:href="#f1_24" transform="matrix(12.2,0,0,12,355,742.3)" />
<use xlink:href="#f1_26" transform="matrix(12.2,0,0,12,370.2,742.3)" />
<use xlink:href="#f1_1v" transform="matrix(12.2,0,0,12,379.8,742.3)" />
<use xlink:href="#f1_1w" transform="matrix(12.2,0,0,12,390,742.3)" />
<use xlink:href="#f1_23" transform="matrix(12.2,0,0,12,398.1,742.3)" />
<use xlink:href="#f1_2a" transform="matrix(12.2,0,0,12,403.1,742.3)" />
<use xlink:href="#f1_2a" transform="matrix(12.2,0,0,12,416.3,742.3)" />
<use xlink:href="#f1_1w" transform="matrix(12.2,0,0,12,423.5,742.3)" />
<use xlink:href="#f1_1s" transform="matrix(12.2,0,0,12,431.6,742.3)" />
<use xlink:href="#f1_29" transform="matrix(12.2,0,0,12,440.7,742.3)" />
<use xlink:href="#f1_1u" transform="matrix(12.2,0,0,12,447.8,742.3)" />
<use xlink:href="#f1_1z" transform="matrix(12.2,0,0,12,455.4,742.3)" />
<use xlink:href="#f1_1w" transform="matrix(12.2,0,0,12,465.5,742.3)" />
<use xlink:href="#f1_1v" transform="matrix(12.2,0,0,12,473.6,742.3)" />
<use xlink:href="#f1_1x" transform="matrix(12.2,0,0,12,489.7,742.3)" />
<use xlink:href="#f1_26" transform="matrix(12.2,0,0,12,495.3,742.3)" />
<use xlink:href="#f1_29" transform="matrix(12.2,0,0,12,504.4,742.3)" />
<use xlink:href="#f1_1w" transform="matrix(12.2,0,0,12,517.4,742.3)" />
<use xlink:href="#f1_1s" transform="matrix(12.2,0,0,12,525.5,742.3)" />
<use xlink:href="#f1_1u" transform="matrix(12.2,0,0,12,534.7,742.3)" />
<use xlink:href="#f1_1z" transform="matrix(12.2,0,0,12,542.3,742.3)" />
<use xlink:href="#f1_1v" transform="matrix(12.2,0,0,12,558.4,742.3)" />
<use xlink:href="#f1_1s" transform="matrix(12.2,0,0,12,568.5,742.3)" />
<use xlink:href="#f1_2b" transform="matrix(12.2,0,0,12,577.6,742.3)" />
<use xlink:href="#f1_1s" transform="matrix(12.2,0,0,12,584.7,742.3)" />
<use xlink:href="#f1_2a" transform="matrix(12.2,0,0,12,593.8,742.3)" />
<use xlink:href="#f1_1w" transform="matrix(12.2,0,0,12,601,742.3)" />
<use xlink:href="#f1_2b" transform="matrix(12.2,0,0,12,609.1,742.3)" />
<use xlink:href="#f1_e" transform="matrix(12.2,0,0,12,616.2,742.3)" />
<use xlink:href="#f1_20" transform="matrix(12.2,0,0,12,627.2,742.3)" />
<use xlink:href="#f1_25" transform="matrix(12.2,0,0,12,632.3,742.3)" />
<use xlink:href="#f1_1s" transform="matrix(12.2,0,0,12,648.4,742.3)" />
<use xlink:href="#f1_23" transform="matrix(12.2,0,0,12,657.5,742.3)" />
<use xlink:href="#f1_23" transform="matrix(12.2,0,0,12,662.6,742.3)" />
<use xlink:href="#f1_26" transform="matrix(12.2,0,0,12,673.6,742.3)" />
<use xlink:href="#f1_1x" transform="matrix(12.2,0,0,12,682.7,742.3)" />
<use xlink:href="#f1_2b" transform="matrix(12.2,0,0,12,694.3,742.3)" />
<use xlink:href="#f1_1z" transform="matrix(12.2,0,0,12,701.4,742.3)" />
<use xlink:href="#f1_1w" transform="matrix(12.2,0,0,12,711.5,742.3)" />
<use xlink:href="#f1_1w" transform="matrix(12.2,0,0,12,725.6,742.3)" />
<use xlink:href="#f1_2f" transform="matrix(12.2,0,0,12,733.7,742.3)" />
<use xlink:href="#f1_27" transform="matrix(12.2,0,0,12,743.3,742.3)" />
<use xlink:href="#f1_1w" transform="matrix(12.2,0,0,12,753.9,742.3)" />
<use xlink:href="#f1_29" transform="matrix(12.2,0,0,12,762,742.3)" />
<use xlink:href="#f1_20" transform="matrix(12.2,0,0,12,769.1,742.3)" />
<use xlink:href="#f1_f" transform="matrix(12.2,0,0,12,774.2,742.3)" />
<use xlink:href="#f1_24" transform="matrix(12,0,0,12,197.9,769.7)" />
<use xlink:href="#f1_1w" transform="matrix(12,0,0,12,212.8,769.7)" />
<use xlink:href="#f1_25" transform="matrix(12,0,0,12,220.7,769.7)" />
<use xlink:href="#f1_2b" transform="matrix(12,0,0,12,230.2,769.7)" />
<use xlink:href="#f1_2a" transform="matrix(12,0,0,12,237.1,769.7)" />
<use xlink:href="#f1_e" transform="matrix(12,0,0,12,244.2,769.7)" />
<use xlink:href="#f1_2b" transform="matrix(12,0,0,12,255.1,769.7)" />
<use xlink:href="#f1_1z" transform="matrix(12,0,0,12,262.1,769.7)" />
<use xlink:href="#f1_1s" transform="matrix(12,0,0,12,272,769.7)" />
<use xlink:href="#f1_2b" transform="matrix(12,0,0,12,280.9,769.7)" />
<use xlink:href="#f1_2a" transform="matrix(12,0,0,12,293.9,769.7)" />
<use xlink:href="#f1_1w" transform="matrix(12,0,0,12,300.9,769.7)" />
<use xlink:href="#f1_1s" transform="matrix(12,0,0,12,308.9,769.7)" />
<use xlink:href="#f1_29" transform="matrix(12,0,0,12,317.8,769.7)" />
<use xlink:href="#f1_1u" transform="matrix(12,0,0,12,324.8,769.7)" />
<use xlink:href="#f1_1z" transform="matrix(12,0,0,12,332.2,769.7)" />
<use xlink:href="#f1_1w" transform="matrix(12,0,0,12,342.1,769.7)" />
<use xlink:href="#f1_1v" transform="matrix(12,0,0,12,350.1,769.7)" />
<use xlink:href="#f1_2b" transform="matrix(12,0,0,12,366,769.7)" />
<use xlink:href="#f1_1z" transform="matrix(12,0,0,12,372.9,769.7)" />
<use xlink:href="#f1_29" transform="matrix(12,0,0,12,382.9,769.7)" />
<use xlink:href="#f1_1w" transform="matrix(12,0,0,12,389.8,769.7)" />
<use xlink:href="#f1_1w" transform="matrix(12,0,0,12,397.8,769.7)" />
<use xlink:href="#f1_23" transform="matrix(12,0,0,12,411.7,769.7)" />
<use xlink:href="#f1_1w" transform="matrix(12,0,0,12,416.7,769.7)" />
<use xlink:href="#f1_2d" transform="matrix(12,0,0,12,424.6,769.7)" />
<use xlink:href="#f1_1w" transform="matrix(12,0,0,12,433.5,769.7)" />
<use xlink:href="#f1_23" transform="matrix(12,0,0,12,441.5,769.7)" />
<use xlink:href="#f1_2a" transform="matrix(12,0,0,12,446.5,769.7)" />
<use xlink:href="#f1_1v" transform="matrix(12,0,0,12,459.5,769.7)" />
<use xlink:href="#f1_1w" transform="matrix(12,0,0,12,469.4,769.7)" />
<use xlink:href="#f1_1w" transform="matrix(12,0,0,12,477.4,769.7)" />
<use xlink:href="#f1_27" transform="matrix(12,0,0,12,485.3,769.7)" />
</g>
<g fill="#000000" >
<use xlink:href="#f1_g" transform="matrix(12,0,0,12,501.1,769.7)" />
<use xlink:href="#f1_g" transform="matrix(12,0,0,12,515.2,769.7)" />
<use xlink:href="#f1_g" transform="matrix(12,0,0,12,529.3,769.7)" />
<use xlink:href="#f1_g" transform="matrix(12,0,0,12,543.4,769.7)" />
<use xlink:href="#f1_g" transform="matrix(12,0,0,12,557.5,769.7)" />
<use xlink:href="#f1_g" transform="matrix(12,0,0,12,571.6,769.7)" />
<use xlink:href="#f1_g" transform="matrix(12,0,0,12,585.7,769.7)" />
<use xlink:href="#f1_g" transform="matrix(12,0,0,12,599.8,769.7)" />
<use xlink:href="#f1_g" transform="matrix(12,0,0,12,613.9,769.7)" />
<use xlink:href="#f1_g" transform="matrix(12,0,0,12,628,769.7)" />
<use xlink:href="#f1_g" transform="matrix(12,0,0,12,642.1,769.7)" />
<use xlink:href="#f1_g" transform="matrix(12,0,0,12,656.2,769.7)" />
<use xlink:href="#f1_g" transform="matrix(12,0,0,12,670.3,769.7)" />
<use xlink:href="#f1_g" transform="matrix(12,0,0,12,684.4,769.7)" />
<use xlink:href="#f1_g" transform="matrix(12,0,0,12,698.5,769.7)" />
<use xlink:href="#f1_g" transform="matrix(12,0,0,12,712.6,769.7)" />
<use xlink:href="#f1_g" transform="matrix(12,0,0,12,726.7,769.7)" />
<use xlink:href="#f1_g" transform="matrix(12,0,0,12,740.8,769.7)" />
<use xlink:href="#f1_g" transform="matrix(12,0,0,12,754.9,769.7)" />
<use xlink:href="#f1_g" transform="matrix(12,0,0,12,769,769.7)" />
<use xlink:href="#f1_g" transform="matrix(12,0,0,12,783.1,769.7)" />
<use xlink:href="#f1_o" transform="matrix(12,0,0,12,805.6,769.7)" />
<use xlink:href="#f1_m" transform="matrix(12,0,0,12,814.5,769.7)" />
<use xlink:href="#f2_1h" transform="matrix(12,0,0,12,489.8,1227.4)" />
<use xlink:href="#f2_1w" transform="matrix(12,0,0,12,495.5,1227.4)" />
</g>
<defs>
	<path d="M41.3,0l0,74.9l93.1,7.6l26,24.4l0,814.4L139,942.6l-97.7,7.7l0,74.8l440,0l0,-74.8l-93.2,-7.7L363.6,921.3l0,-832.7l293.3,0l19.9,24.5l22.9,186.3l113.1,0L812.8,0Z" 
	id="f0_b"
	transform="scale(0.001,-0.001)" />

	<path d="M45.8,0l0,68.8l82.5,6.1l21.4,22.9l0,527.1l-100.8,0l0,61.1l215.4,71.8l73.3,0l0,-660l23,-22.9l85.5,-6.1L446.1,0ZM249,878.5c-61.1,0,-111.5,45.8,-111.5,113c0,65.7,47.4,114.6,110,114.6c68.8,0,114.6,-48.9,114.6,-111.5C362.1,925.8,313.2,878.5,249,878.5Z" 
	id="f0_m"
	transform="scale(0.001,-0.001)" />

	<path d="M314.7,-16.7c-73.3,0,-157.3,12.2,-252.1,38.1l0,226.1l93.2,0L172.6,116.1L187.9,99.3C227.6,77.9,270.4,67.2,316.3,67.2c82.5,0,129.8,42.8,129.8,110c0,82.5,-82.5,97.8,-201.7,157.4C131.4,391.1,73.3,444.6,73.3,536.3c0,131.3,111.6,227.6,299.5,227.6c76.4,0,152.8,-12.2,230.7,-38.2l0,-203.2l-91.7,0L496.5,637.1l-18.3,16.8c-32.1,15.3,-65.7,24.4,-100.8,24.4c-74.9,0,-116.1,-35.1,-116.1,-91.6c0,-64.2,51.9,-90.2,142,-134.5C539.3,386.5,626.4,345.3,626.4,235.3C626.4,81,511.8,-16.7,314.7,-16.7Z" 
	id="f0_u"
	transform="scale(0.001,-0.001)" />

	<path d="M310.1,-7.5c-50.4,0,-91.6,9,-126.8,33.5c-53.4,35.1,-55,84,-55,161.9l0,444.6l-99.3,0l0,58.1l113.1,64.1l79.4,158.9l96.3,0l0,-189.4l226.1,0l0,-91.7l-226.1,0l0,-380.4c0,-108.5,26,-148.2,126.8,-148.2c36.7,0,68.7,3,99.3,10.7l0,-73.3C452.2,7.6,372.8,-7.5,310.1,-7.5Z" 
	id="f0_v"
	transform="scale(0.001,-0.001)" />

	<path d="M444.6,68.8c113,0,180.3,105.4,180.3,304c0,200.1,-70.3,308.6,-178.8,308.6c-108.5,0,-177.2,-107,-177.2,-304C268.9,177.2,337.6,68.8,444.6,68.8ZM440,-12.1C210.8,-12.1,56.5,140.6,56.5,371.3c0,235.2,155.9,391.1,395.7,391.1C686,762.4,835.7,611.1,835.7,368.2C835.7,142.1,681.4,-12.1,440,-12.1Z" 
	id="f0_r"
	transform="scale(0.001,-0.001)" />

	<path d="M47.4,0l0,70.3l76.4,7.6l21.3,24.5l0,530.1l-99.3,0l0,58.1l99.3,45.8c0,146.7,50.5,256.7,155.9,334.6c56.5,42.8,122.2,64.1,184.8,64.1c88.6,0,143.6,-45.8,143.6,-111.5c0,-41.2,-30.5,-74.8,-88.6,-94.7L392.6,1060.3C352.9,1019,333.1,941.1,333.1,828.1c0,-3.1,0,-7.7,0,-12.3l0,-91.6l204.7,0l0,-91.7l-204.7,0l0,-531.7L357.5,77.9L459.9,70.3L459.9,0Z" 
	id="f0_k"
	transform="scale(0.001,-0.001)" />

	<path d="M236.8,0l0,74.9l99.3,7.6l26,24.4l0,831.2l-183.3,0L154.3,918.2L129.9,754.7l-105.5,0l0,270.4l881.6,0l0,-270.4l-105.4,0l-26,163.5l-22.9,19.9l-183.4,0l0,-831.2l26,-24.4l99.3,-7.6L693.6,0Z" 
	id="f0_e"
	transform="scale(0.001,-0.001)" />

	<path d="M375.8,103.9c39.8,0,88.6,15.3,148.2,45.8l0,249.1C343.8,359,262.8,319.3,262.8,218.5c0,-70.3,42.8,-114.6,113,-114.6ZM261.3,-13.7C143.6,-13.7,61.1,68.8,61.1,184.9c0,175.7,145.2,220,464.5,291.8l0,45.8c0,110,-44.3,158.9,-145.2,158.9c-22.9,0,-45.8,-3.1,-73.3,-9.2l0,-143.6l-140.6,0c-45.8,0,-70.2,15.3,-70.2,56.5c0,87.1,131.3,177.3,333,177.3C643.2,762.4,715,687.5,715,491.9L715,96.3L734.9,74.9l80.9,-7.7L815.8,0L543.9,0L524,87.1C426.3,21.4,343.8,-13.7,261.3,-13.7Z" 
	id="f0_f"
	transform="scale(0.001,-0.001)" />

	<path d="M362.1,81C546.9,81,631,174.2,631,374.3c0,174.2,-81,267.4,-221.6,267.4c-27.5,0,-59.5,-4.6,-96.2,-12.3l0,-546.9C330,81,346.8,81,362.1,81ZM293.3,-1.4L123.8,1.5l0,996.1l-110,0l0,59.6L239.9,1129l73.3,0l0,-436.9c82.5,45.8,154.3,68.7,221.5,68.7c174.2,0,301,-140.5,301,-346.8c0,-177.2,-84,-308.6,-241.4,-378.9C537.8,10.7,452.2,-1.4,334.6,-1.4Z" 
	id="f0_g"
	transform="scale(0.001,-0.001)" />

	<path d="M35.1,0l0,67.2l88.7,9.2l21.3,21.4l0,898.3l-110,0l0,59.6L265.8,1129l67.3,0l0,-1028.2L356,76.4l88.6,-9.2L444.6,0Z" 
	id="f0_o"
	transform="scale(0.001,-0.001)" />

	<path d="M551.5,470.6c0,6.1,0,10.7,0,16.8c0,126.8,-48.9,192.5,-132.9,192.5c-91.7,0,-154.3,-76.4,-158.9,-209.3ZM433.9,-13.7C206.3,-13.7,56.5,139,56.5,369.7c0,233.8,157.4,394.2,377.4,394.2C634,763.9,751.7,638.6,751.7,418.6c0,-9.2,0,-19.8,0,-29l-499.6,0c0,-1.5,0,-3.1,0,-4.6c0,-175.7,94.7,-279.6,246,-279.6c80.9,0,163.4,27.5,252,84l0,-113C647.8,16.8,540.8,-13.7,433.9,-13.7Z" 
	id="f0_j"
	transform="scale(0.001,-0.001)" />

	<path d="M74.9,0l0,36.7L383.5,381.9c87.1,97.8,161.9,210.9,161.9,340.7c0,140.6,-79.4,249.1,-209.3,249.1c-99.3,0,-181.8,-70.3,-210.8,-174.2c4.6,1.5,7.6,1.5,21.4,1.5c42.7,0,71.8,-29,71.8,-71.8c0,-48.9,-39.7,-71.8,-71.8,-71.8c-4.6,0,-71.8,0,-71.8,77.9C74.9,864.7,178.8,1016,356,1016c177.2,0,316.2,-117.7,316.2,-293.4C672.2,571.4,586.7,491.9,354.4,278.1C314.7,241.4,221.5,143.6,180.3,108.5l282.6,0c45.9,0,132.9,0,143.6,13.7c15.3,24.5,27.5,108.5,32.1,134.5l33.6,0L632.5,0Z" 
	id="f1_k"
	transform="scale(0.001,-0.001)" />

	<path d="M206.3,0C171.1,0,132.9,29,132.9,74.9c0,38.2,30.6,73.3,74.9,73.3c38.2,0,73.3,-32.1,73.3,-73.3C281.1,32.1,247.5,0,206.3,0Z" 
	id="f1_g"
	transform="scale(0.001,-0.001)" />

	<path d="M148.2,0l0,44.3l47.4,0c134.4,0,139,18.3,139,73.3l0,796C250.6,873.9,174.2,873.9,139,873.9l0,44.3c157.4,0,233.8,56.5,270.4,97.8c30.6,0,30.6,-1.6,30.6,-36.7l0,-861.7c0,-55,4.6,-73.3,139,-73.3l47.4,0L585.1,3.1l-247.5,0C189.4,3.1,388.1,0,148.2,0Z" 
	id="f1_j"
	transform="scale(0.001,-0.001)" />

	<path d="M62.6,0l0,44.3l30.6,0c110,0,114.6,15.3,114.6,71.8l0,808.2c0,56.5,-4.6,71.8,-114.6,71.8l-30.6,0l0,44.3l831.2,0L933.5,699.7l-33.6,0c-23,220,-70.3,296.4,-294.9,296.4l-203.2,0c-67.2,0,-70.3,-10.7,-70.3,-61.1l0,-372.8l139.1,0C617.2,562.2,634,609.6,634,741l33.6,0l0,-401.8l-33.6,0c0,131.4,-16.8,178.7,-163.4,178.7l-139.1,0l0,-412.5c0,-50.4,3.1,-61.1,70.3,-61.1l207.8,0c258.2,0,294.8,108.5,331.5,346.8l33.6,0L913.6,0Z" 
	id="f1_11"
	transform="scale(0.001,-0.001)" />

	<path d="M15.3,0l0,44.3C81,45.8,148.2,62.6,215.4,145.1C230.7,165,349.9,314.7,349.9,319.3c0,4.6,-6.1,13.8,-9.2,16.8L161.9,569.9c-32,41.2,-61.1,44.3,-139,44.3l93.2,41.2l94.7,0c78,0,-41.2,3.1,116.1,3.1l0,-44.3C281.1,612.6,273.5,585.1,273.5,576c0,-10.7,9.1,-24.5,13.7,-30.6L406.4,388.1l97.8,123.7c9.1,12.2,22.9,29,22.9,55c0,35.1,-24.5,44.3,-44.3,47.4l76.4,41.2l120.7,0c3,0,-59.6,3.1,68.7,3.1l0,-44.3c-48.9,0,-120.7,-10.7,-183.3,-81C536.3,501.1,472.1,418.6,427.8,360.6L627.9,96.3c36.7,-48.9,64.2,-52,145.2,-52L681.4,3.1l-96.3,0C510.3,3.1,627.9,0,470.6,0l0,44.3c41.2,1.5,53.4,26,53.4,38.2c0,9.2,0,12.2,-25.9,45.8L372.8,291.8c-36.7,-47.4,-87.1,-110,-110,-142.1c-15.3,-19.8,-26,-32.1,-26,-56.5c0,-21.4,6.1,-44.3,42.8,-48.9L203.2,3.1L76.4,3.1C73.3,3.1,142.1,0,15.3,0Z" 
	id="f1_2f"
	transform="scale(0.001,-0.001)" />

	<path d="M313.2,15.3c65.7,0,177.2,50.4,177.2,200.1l0,151.3C435.4,363.6,175.7,345.3,175.7,143.6C175.7,70.3,238.3,15.3,313.2,15.3ZM301,-15.2C207.8,-15.2,67.2,22.9,67.2,143.6c0,117.7,116.1,246,423.2,250.6l0,61.1c0,137.5,-90.1,195.5,-160.4,195.5c-61.1,0,-134.4,-27.5,-169.6,-91.6c22.9,0,77.9,0,77.9,-62.7c0,-36.6,-25.9,-62.6,-62.6,-62.6c-35.1,0,-64.2,21.4,-64.2,65.7c0,99.3,96.3,181.8,221.6,181.8c67.2,0,135.9,-21.4,189.4,-70.3c67.2,-59.6,67.2,-120.7,67.2,-203.2l0,-267.3c0,-23,0,-103.9,58.1,-103.9c21.4,0,58,12.2,58,99.3l0,85.5l33.6,0l0,-85.5C739.4,13.8,650.8,-7.5,618.8,-7.5c-65.7,0,-113.1,54.9,-119.2,126.7C470.6,45.8,401.8,-15.2,301,-15.2Z" 
	id="f1_1s"
	transform="scale(0.001,-0.001)" />

	<path d="M48.9,0l0,44.3c99.3,0,116.1,0,116.1,68.8l0,414c0,74.8,-12.2,85.5,-116.1,85.5l0,44.3l207.8,16.9l0,-157.4l1.5,0c12.2,30.5,70.3,157.4,218.5,157.4c96.2,0,178.7,-33.7,200.1,-151.3c24.5,59.6,88.6,151.3,215.4,151.3c52,0,123.8,-9.2,168.1,-68.8c35.1,-48.9,35.1,-91.7,35.1,-233.7l0,-281.2c1.5,-45.8,39.7,-45.8,116.1,-45.8L1171.8,3.1l-169.6,0C919.7,3.1,1045,0,880,0l0,44.3c99.3,0,116.1,0,116.1,68.8l0,359c0,93.2,-21.4,171.1,-116.1,171.1c-94.7,0,-200.1,-85.6,-200.1,-246l0,-284.1C679.9,44.3,698.2,44.3,796,44.3L756.3,3.1l-169.6,0C504.2,3.1,629.4,0,464.4,0l0,44.3c99.4,0,116.2,0,116.2,68.8l0,359c0,93.2,-21.4,171.1,-116.2,171.1c-94.7,0,-200.1,-85.6,-200.1,-246l0,-284.1c0,-68.8,18.3,-68.8,116.1,-68.8L340.7,3.1l-169.6,0C88.6,3.1,213.9,0,48.9,0Z" 
	id="f1_24"
	transform="scale(0.001,-0.001)" />

	<path d="M438.5,15.3C556.1,15.3,660,148.2,660,330c0,171.1,-91.7,310.1,-206.2,310.1c-58.1,0,-133,-29,-178.8,-97.7c-16.8,-24.5,-16.8,-26,-16.8,-55l0,-314.8c0,-42.7,22.9,-73.3,58.1,-108.4C346.8,35.1,391.1,15.3,438.5,15.3ZM42.8,-296.3l0,44.3c99.3,0,116.1,0,116.1,68.8l0,717.9c0,67.2,-9.2,77.9,-116.1,77.9l0,44.3l212.3,16.9l0,-102.4c4.6,6.1,76.4,102.4,210.9,102.4C632.5,673.8,776.1,524,776.1,330c0,-197.1,-154.3,-345.2,-330,-345.2c-97.8,0,-160.4,59.5,-187.9,97.7l0,-265.7c0,-68.8,18.3,-68.8,116.1,-68.8l-39.7,-41.2l-169.6,0c-82.5,0,42.8,-3.1,-122.2,-3.1Z" 
	id="f1_27"
	transform="scale(0.001,-0.001)" />

	<path d="M50.4,0l0,44.3c99.3,0,116.1,0,116.1,68.8l0,800.5c0,74.9,-12.2,85.6,-116.1,85.6l0,44.3l212.4,16.8l0,-947.2c0,-68.8,18.3,-68.8,116.1,-68.8L336.1,3.1l-168,0C93.2,3.1,213.9,0,50.4,0Z" 
	id="f1_23"
	transform="scale(0.001,-0.001)" />

	<path d="M527.1,383.5c-1.5,51.9,-10.7,267.3,-174.2,267.3c-42.8,0,-177.2,-27.5,-189.4,-267.3ZM371.3,-15.2C201.7,-15.2,45.8,132.9,45.8,334.6c0,189.4,134.5,346.8,308.6,346.8c184.9,0,267.4,-143.6,267.4,-297.9c0,-29.1,-3,-29.1,-36.7,-29.1l-423.2,0l0,-29C161.9,61.1,316.3,18.3,380.4,18.3c64.2,0,166.5,35.2,206.3,163.5c3,7.6,6.1,15.3,18.3,15.3c9.2,0,16.8,-6.1,16.8,-15.3c0,-32.1,-68.7,-197,-250.5,-197Z" 
	id="f1_1w"
	transform="scale(0.001,-0.001)" />

	<path d="M42.8,0l0,44.3c99.3,0,116.1,0,116.1,68.8l0,414c0,74.8,-12.2,85.5,-116.1,85.5l0,44.3l204.7,16.9l0,-169.6l1.5,0c9.2,29,53.5,169.6,183.4,169.6c65.7,0,106.9,-42.8,106.9,-88.7C539.3,543.9,508.8,524,478.2,524c-24.4,0,-59.6,16.8,-59.6,61.1c0,41.3,24.5,50.5,36.7,56.6c-6.1,1.5,-9.2,1.5,-21.4,1.5C316.3,643.2,255.1,504.2,255.1,356l0,-239.9c0,-55,3.1,-71.8,114.6,-71.8l30.6,0L365.1,3.1l-195.5,0C85.6,3.1,215.4,0,42.8,0Z" 
	id="f1_29"
	transform="scale(0.001,-0.001)" />

	<path d="M65.7,-15.2c-15.3,0,-15.3,7.7,-15.3,35.1l0,207.7c0,27.5,0,35.2,16.8,35.2c4.6,0,10.7,0,13.8,-6.1c1.5,-1.6,1.5,-3.1,7.6,-30.6C122.2,73.3,195.6,15.3,296.4,15.3c134.4,0,172.6,73.3,172.6,139c0,42.8,-19.8,76.4,-47.3,99.3c-38.2,30.6,-58.1,35.2,-142.1,52C209.3,319.3,157.4,330,108.5,372.8C50.4,426.3,50.4,479.7,50.4,496.5c0,84.1,55,184.9,239.9,184.9c48.9,0,96.2,-9.2,143.6,-47.4c10.7,13.8,39.7,47.4,51.9,47.4c15.3,0,15.3,-7.6,15.3,-35.1l0,-158.9c0,-27.5,0,-35.2,-16.8,-35.2c-4.6,0,-15.3,0,-16.8,12.2c-3.1,47.4,-12.2,189.5,-178.7,189.5C151.3,653.9,119.2,583.6,119.2,536.3C119.2,444.6,230.7,423.2,276.5,414C377.4,395.7,418.6,386.5,473.6,339.2C487.4,325.4,537.8,276.5,537.8,194C537.8,73.3,458.3,-15.2,297.9,-15.2c-26,0,-108.5,0,-166.5,71.7C108.5,32.1,108.5,29,100.8,18.3C74.9,-13.7,73.3,-15.2,65.7,-15.2Z" 
	id="f1_2a"
	transform="scale(0.001,-0.001)" />

	<path d="M50.4,0l0,44.3c99.3,0,116.1,0,116.1,68.8l0,415.5c0,74.9,-13.7,84,-111.5,84l0,44.3l207.8,16.9l0,-562.3c0,-59.6,6.1,-67.2,105.4,-67.2L316.3,3.1l-149.8,0C93.2,3.1,210.8,0,50.4,0ZM191,867.8c-36.7,0,-73.4,29,-73.4,74.8c0,41.3,33.7,73.4,73.4,73.4c42.8,0,74.8,-35.2,74.8,-74.9c0,-33.6,-27.5,-73.3,-74.8,-73.3Z" 
	id="f1_20"
	transform="scale(0.001,-0.001)" />

	<path d="M374.3,18.3c58.1,0,128.3,29.1,171.1,102.4c39.7,71.8,39.7,166.5,39.7,220c0,56.5,0,152.8,-47.3,223.1c-41.3,59.5,-105.4,87,-165,87c-53.5,0,-120.7,-24.4,-163.5,-90.1C161.9,491.9,161.9,398.8,161.9,340.7c0,-64.2,1.6,-154.3,42.8,-223.1C249,42.8,317.8,18.3,374.3,18.3Zm-1.5,-33.5c-174.2,0,-327,146.6,-327,342.1c0,192.5,145.2,354.5,328.5,354.5c177.2,0,327,-157.4,327,-354.5C701.3,134.4,553.1,-15.2,372.8,-15.2Z" 
	id="f1_26"
	transform="scale(0.001,-0.001)" />

	<path d="M48.9,0l0,44.3c99.3,0,116.1,0,116.1,68.8l0,414c0,74.8,-12.2,85.5,-116.1,85.5l0,44.3l207.8,16.9l0,-157.4l1.5,0c12.2,30.5,70.3,157.4,218.5,157.4c51.9,0,123.7,-9.2,168,-68.8c35.2,-48.9,35.2,-91.7,35.2,-233.7l0,-281.2C681.4,44.3,719.6,44.3,796,44.3L756.3,3.1l-169.6,0C504.2,3.1,629.4,0,464.4,0l0,44.3c99.4,0,116.2,0,116.2,68.8l0,359c0,93.2,-21.4,171.1,-116.2,171.1c-94.7,0,-200.1,-85.6,-200.1,-246l0,-284.1c0,-68.8,18.3,-68.8,116.1,-68.8L340.7,3.1l-169.6,0C88.6,3.1,213.9,0,48.9,0Z" 
	id="f1_25"
	transform="scale(0.001,-0.001)" />

	<path d="M206.3,0C171.1,0,132.9,29,132.9,74.9c0,38.2,30.6,73.3,74.9,73.3c38.2,0,73.3,-32.1,73.3,-73.3C281.1,32.1,247.5,0,206.3,0Zm0,510.3c-35.2,0,-73.4,29,-73.4,74.8c0,38.2,30.6,73.4,74.9,73.4c38.2,0,73.3,-32.1,73.3,-73.4c0,-42.7,-33.6,-74.8,-74.8,-74.8Z" 
	id="f1_s"
	transform="scale(0.001,-0.001)" />

	<path d="M67.2,0l0,44.3c145.2,0,145.2,71.8,145.2,113.1l0,770c0,56.5,-4.6,71.8,-114.6,71.8l-30.6,0l0,44.3l236.8,0c35.2,0,36.7,0,47.4,-29.1l333,-870.8l333.1,869.3c12.2,29,13.8,30.6,47.4,30.6l236.8,0l0,-44.3l-30.6,0c-110,0,-114.6,-15.3,-114.6,-71.8l0,-811.3c0,-56.5,4.6,-71.8,114.6,-71.8l30.6,0L1266.5,3.1l-210.8,0C933.5,3.1,1100,0,898.3,0l0,44.3l30.6,0c110,0,114.6,15.3,114.6,71.8l0,883.1l-1.6,0L670.7,30.6C661.5,7.6,658.5,0,644.7,0C629.4,0,624.9,12.2,618.8,29L250.6,991.5l-1.6,0l0,-834.1C249,116.1,249,44.3,394.2,44.3L354.4,3.1l-166.5,0C106.9,3.1,230.7,0,67.2,0Z" 
	id="f1_19"
	transform="scale(0.001,-0.001)" />

	<path d="M166.5,-311.6C85.6,-311.6,29,-255,29,-197c0,44.3,32.1,59.6,58.1,59.6c27.5,0,56.5,-19.9,56.5,-56.5c0,-53.5,-53.5,-59.6,-53.5,-59.6c0,0,29.1,-27.5,76.4,-27.5c68.8,0,110,58,136,103.9c6.1,12.2,6.1,15.3,73.3,177.1L148.2,559.2c-19.9,47.3,-32.1,55,-120.7,55l87.1,41.2l103.9,0c74.8,0,-42.8,3.1,114.6,3.1l0,-44.3c-30.6,0,-84.1,0,-84.1,-39.8c0,-1.5,0,-10.6,9.2,-32L427.8,126.8l155.8,385c6.1,15.3,9.2,22.9,9.2,36.7c0,27.5,-13.8,62.6,-70.3,65.7l85.6,41.2l87,0c21.4,0,-48.8,3.1,65.7,3.1l0,-44.3c-29,0,-100.8,-1.6,-142,-103.9L354.4,-140.5C314.7,-236.7,252.1,-311.6,166.5,-311.6Z" 
	id="f1_2g"
	transform="scale(0.001,-0.001)" />

	<path d="M372.8,-15.2C200.1,-15.2,53.5,134.4,53.5,330c0,192.5,142.1,351.4,320.8,351.4C498.1,681.4,605,608.1,605,505.7C605,461.4,576,440,540.8,440c-36.6,0,-62.6,26,-62.6,62.6c0,62.7,56.5,62.7,74.9,62.7c-35.2,59.6,-119.2,82.5,-177.3,82.5c-76.4,0,-206.2,-62.7,-206.2,-316.3C169.6,99.3,293.3,18.3,386.5,18.3c82.5,0,165,45.9,198.6,154.3c4.6,18.4,6.2,23,19.9,23c4.6,0,15.3,0,15.3,-13.8c0,-13.7,-45.9,-197,-247.5,-197Z" 
	id="f1_1u"
	transform="scale(0.001,-0.001)" />

	<path d="M351.4,-15.2c-81,0,-194,35.1,-194,204.6l0,424.8l-129.9,0l0,30.5c139,4.6,194,151.3,195.6,294.9l33.6,0l0,-281.1l215.4,0l0,-44.3l-215.4,0l0,-427.8c0,-26,0,-168.1,103.9,-168.1c59.5,0,103.8,64.2,103.8,174.2l0,84l33.7,0l0,-87.1c0,-110,-50.5,-204.6,-146.7,-204.6Z" 
	id="f1_2b"
	transform="scale(0.001,-0.001)" />

	<path d="M50.4,0l0,44.3c99.3,0,116.1,0,116.1,68.8l0,501.1l-119.1,0l0,44.3l119.1,0l0,178.7c0,155.9,120.7,238.4,227.7,238.4c73.3,0,128.3,-44.3,128.3,-100.9c0,-36.6,-24.4,-61.1,-61.1,-61.1c-35.1,0,-59.6,24.5,-59.6,59.6c0,44.3,38.2,58.1,44.3,59.6c-18.3,9.1,-41.2,12.2,-53.5,12.2C330,1045,259.7,974.7,259.7,837.2l0,-178.7l175.7,0l0,-44.3l-172.6,0l0,-498.1c0,-55,3,-71.8,114.6,-71.8l30.5,0L372.8,3.1l-195.6,0C93.2,3.1,223.1,0,50.4,0Z" 
	id="f1_1x"
	transform="scale(0.001,-0.001)" />

	<path d="M388.1,-15.2c-78,0,-140.6,18.3,-177.3,58C165,93.2,165,148.2,165,242.9l0,229.2c0,136,0,140.5,-116.1,140.5l0,44.3l215.4,16.9l0,-505.7c0,-81,7.6,-152.8,132.9,-152.8c114.6,0,183.4,108.5,183.4,238.3l0,273.5c0,74.8,-12.3,85.5,-116.2,85.5l0,44.3l215.5,16.9l0,-543.9C679.9,55,692.1,44.3,796,44.3L796,0L583.6,-15.2l0,137.4c0,0,-24.4,-58,-68.7,-93.2C462.9,-15.2,414,-15.2,388.1,-15.2Z" 
	id="f1_2c"
	transform="scale(0.001,-0.001)" />

	<path d="M394.2,-15.2c-18.4,0,-21.4,7.7,-29.1,29L146.7,560.7c-18.4,47.4,-33.6,53.5,-119.2,53.5l93.2,41.2l94.7,0c79.5,0,-41.2,3.1,117.7,3.1l0,-44.3c-27.5,0,-85.6,0,-85.6,-39.8c0,-7.6,1.5,-7.6,9.2,-29L427.8,114.6L583.6,508.8c7.7,18.3,10.7,25.9,10.7,39.7c0,16.8,-7.6,62.6,-71.8,65.7l70.3,41.2l102.3,0c21.4,0,-47.3,3.1,65.7,3.1l0,-44.3C663.1,612.6,637.1,546.9,623.3,513.3L424.7,13.8c-10.7,-25.9,-19.8,-29,-30.5,-29Z" 
	id="f1_2d"
	transform="scale(0.001,-0.001)" />

	<path d="M374.3,15.3c76.4,0,139,44.3,175.7,97.8c21.4,33.6,21.4,38.2,21.4,65.7l0,314.7c0,27.5,0,30.5,-18.3,56.5c-15.3,24.4,-68.8,93.2,-163.5,93.2c-76.4,0,-137.5,-47.4,-168.1,-94.7C187.9,498.1,169.6,436.9,169.6,326.9C169.6,30.6,334.6,15.3,374.3,15.3Zm-7.6,-30.5C198.6,-15.2,53.5,134.4,53.5,328.5c0,195.5,152.8,345.3,330,345.3c93.2,0,158.9,-53.5,190.9,-97.8l0,337.6c0,74.9,-12.2,85.6,-116.1,85.6l0,44.3l212.4,16.8l0,-930.4C670.7,55,682.9,44.3,786.8,44.3L786.8,0L571.4,-15.2l0,105.3C550,61.1,482.8,-15.2,366.7,-15.2Z" 
	id="f1_1v"
	transform="scale(0.001,-0.001)" />

	<path d="M374.3,-281c140.6,0,256.7,71.8,256.7,161.9C631,13.8,458.3,13.8,331.5,13.8c-106.9,0,-120.7,0,-154.3,-21.3c-58,-39.8,-61.1,-99.3,-61.1,-111.6c0,-87.1,111.5,-161.9,258.2,-161.9ZM333.1,261.3c32,0,77.9,15.2,106.9,59.5c26,41.3,26,103.9,26,131.4c0,35.2,0,189.5,-134.5,189.5c-32.1,0,-77.9,-15.3,-106.9,-59.6c-26,-41.3,-26,-103.9,-26,-131.4c0,-35.1,0,-189.4,134.5,-189.4Zm39.7,-574.4c-187.9,0,-331.5,87.1,-331.5,192.5c0,79.4,70.2,134.4,140.5,154.2c-12.2,7.7,-65.7,45.8,-65.7,134.5c0,59.5,27.5,103.8,45.8,126.8C146.7,308.6,93.2,365.1,93.2,452.2c0,117.7,102.4,221.6,239.9,221.6c58,0,111.5,-19.9,157.3,-55c21.4,22.9,81,71.8,160.4,71.8c53.5,0,74.9,-42.8,74.9,-70.3C725.7,586.7,698.2,579,686,579c-24.5,0,-39.7,18.4,-39.7,39.8c0,16.8,7.6,32,22.9,38.1c-6.1,3.1,-13.8,3.1,-19.9,3.1c-7.6,0,-79.4,0,-139,-61.1c48.9,-48.9,61.1,-107,61.1,-148.2C571.4,333.1,469,229.2,331.5,229.2c-16.8,0,-77.9,0,-149.7,47.3C166.5,255.1,157.4,229.2,157.4,203.2c0,-32.1,13.7,-61.1,29,-76.4c27.5,-29,38.2,-29,131.4,-29c131.4,0,207.8,0,285.7,-39.7C695.1,10.7,705.8,-79.3,705.8,-117.5c0,-114.6,-151.2,-195.6,-333,-195.6Z" 
	id="f1_1y"
	transform="scale(0.001,-0.001)" />

	<path d="M440,15.3c76.4,0,137.5,47.3,168.1,94.7C644.7,165,660,229.2,660,331.5C660,624.9,499.6,643.2,453.8,643.2C378.9,643.2,311.7,598.9,275,543.9c-16.8,-24.5,-16.8,-27.5,-16.8,-55l0,-314.7c0,-26,0,-32.1,19.9,-64.2C304,68.8,357.5,15.3,440,15.3Zm6.1,-30.5c-97.8,0,-163.5,58,-198.6,114.5C241.4,88.6,198.6,12.2,192.5,0L158.9,0l0,913.6c0,74.9,-12.2,85.6,-116.1,85.6l0,44.3l212.3,16.8l0,-488.9c52,64.2,123.8,102.4,207.8,102.4C632.5,673.8,776.1,524,776.1,330c0,-197.1,-154.3,-345.2,-330,-345.2Z" 
	id="f1_1t"
	transform="scale(0.001,-0.001)" />

	<path d="M16.8,288.8l0,82.5l397.2,0l0,-82.5Z" 
	id="f1_f"
	transform="scale(0.001,-0.001)" />

	<path d="M42.8,0l0,44.3c99.3,0,116.1,0,116.1,68.8l0,800.5c0,74.9,-12.2,85.6,-116.1,85.6l0,44.3l212.3,16.8l0,-736.4L473.6,516.4c1.5,0,32.1,27.5,32.1,58c0,24.5,-18.3,38.2,-44.3,39.8l35.1,41.2l163.5,0c39.7,0,-45.8,3.1,70.3,3.1l0,-44.3C698.2,612.6,631,611.1,525.6,519.4C513.3,507.2,417.1,424.7,417.1,420.1c0,-1.5,10.7,-13.7,10.7,-15.2l204.7,-298C675.3,44.3,722.6,44.3,763.9,44.3L698.2,3.1l-110,0C513.3,3.1,629.4,0,475.1,0l0,44.3c32.1,0,53.5,7.6,53.5,35.1c0,21.4,-10.7,38.2,-33.6,70.3L348.3,360.6L250.6,275l0,-161.9c0,-68.8,18.3,-68.8,116.1,-68.8L323.9,3.1l-165,0C85.6,3.1,204.7,0,42.8,0Z" 
	id="f1_22"
	transform="scale(0.001,-0.001)" />

	<path d="M374.3,9.2c122.2,0,239.9,79.4,239.9,195.5c0,93.2,-70.3,140.6,-110,166.6L319.3,491.9C220,446.1,132.9,349.9,132.9,230.7C132.9,103.9,244.4,9.2,374.3,9.2Zm50.4,563.7c88.6,48.9,155.9,123.8,155.9,217c0,110,-97.8,189.4,-207.8,189.4C270.4,979.3,166.5,916.7,166.5,817.4c0,-74.9,61.1,-114.6,81,-128.4L424.7,572.9ZM372.8,-32C216.9,-32,62.6,68.8,62.6,230.7c0,111.5,76.4,213.9,224.6,282.6C180.3,588.2,178.8,589.7,161.9,609.6c-42.7,51.9,-58,103.9,-58,155.8c0,139,119.2,250.6,270.4,250.6c140.6,0,268.9,-91.7,268.9,-224.6C643.2,663.1,531.7,592.8,455.3,551.5C574.4,478.2,684.4,409.4,684.4,253.6C684.4,93.2,542.4,-32,372.8,-32Z" 
	id="f1_q"
	transform="scale(0.001,-0.001)" />

	<path d="M450.7,299.4l0,576L79.4,299.4ZM297.9,0l0,44.3l30.6,0c111.5,0,114.6,15.3,114.6,71.8l0,139l-401.8,0l0,44.3l459.8,713.5c12.2,18.4,16.8,18.4,29,18.4c21.4,0,21.4,-7.7,21.4,-36.7l0,-695.2l154.3,0l0,-44.3l-154.3,0l0,-139c0,-56.5,4.6,-71.8,114.6,-71.8l30.6,0L661.5,3.1l-207.7,0C333.1,3.1,496.5,0,297.9,0Z" 
	id="f1_m"
	transform="scale(0.001,-0.001)" />

	<path d="M62.6,0l0,44.3l30.6,0c110,0,114.6,15.3,114.6,71.8l0,811.3c0,56.5,-4.6,71.8,-114.6,71.8l-30.6,0l36.7,41.2l235.3,0c134.4,0,-53.5,3.1,178.7,3.1l0,-44.3l-45.8,0c-132.9,0,-136,-18.4,-136,-73.4l0,-820.4c0,-50.4,3.1,-61.1,70.3,-61.1l132.9,0c267.4,0,287.2,194,302.5,346.8l33.6,0L831.1,0Z" 
	id="f1_18"
	transform="scale(0.001,-0.001)" />

	<path d="M560.7,44.3c128.3,0,220,62.6,270.4,126.8c87.1,113.1,88.6,256.7,88.6,342.2c0,61.1,0,215.5,-68.7,323.9c-62.7,100.9,-163.5,162,-290.3,162l-160.4,0C333.1,999.2,330,988.5,330,938.1l0,-832.7C330,55,333.1,44.3,400.3,44.3ZM64.2,0l0,44.3l30.5,0c110,0,114.6,15.3,114.6,71.8l0,811.3c0,56.5,-4.6,71.8,-114.6,71.8l-30.5,0l0,44.3l534.7,0c253.6,0,459.9,-236.8,459.9,-531.7C1058.8,229.2,854,0,598.9,0Z" 
	id="f1_10"
	transform="scale(0.001,-0.001)" />

	<path d="M331.5,-32c-62.6,0,-62.6,61,-62.6,77.8c0,287.3,154.3,537.8,195.5,597.4l162,232.2l-323.9,0c-21.4,0,-136,0,-148.2,-9.1C134.4,849.4,120.7,754.7,116.1,727.2l-33.6,0l47.4,305.6l33.6,0c6.1,-29,9.1,-48.9,194,-48.9l368.2,0l0,-35.1L504.2,631C432.4,528.6,395.7,351.4,395.7,123.8l0,-76.4c0,-19.9,0,-79.4,-64.2,-79.4Z" 
	id="f1_p"
	transform="scale(0.001,-0.001)" />

	<path d="M368.2,-32C198.6,-32,62.6,79.4,62.6,215.4c0,58.1,39.8,79.5,76.4,79.5c42.8,0,74.9,-30.6,74.9,-74.9c0,-48.9,-35.1,-76.1,-77.3,-76.1c-5.2,0,-10.5,0.4,-15.9,1.2C165,44.3,290.3,9.2,363.6,9.2c74.9,0,178.8,53.4,178.8,253.6c0,146.6,-58.1,253.6,-188,253.6l-70.2,0c-27.5,0,-35.2,0,-35.2,15.3c0,13.7,6.1,15.2,32.1,16.8l45.8,4.6c41.3,1.5,93.2,6.1,139.1,73.3c44.3,65.7,48.9,151.2,48.9,180.3c0,149.7,-99.3,172.6,-149.8,172.6c-7.6,0,-151.2,0,-209.3,-103.9c4.6,1.5,7.7,1.5,16.8,1.5c33.7,0,70.3,-21.3,70.3,-70.2c0,-45.9,-36.6,-68.8,-68.7,-68.8c-22.9,0,-70.3,12.2,-70.3,73.4c0,111.5,113,204.7,265.8,204.7c148.2,0,273.5,-88.6,273.5,-209.3C643.2,687.5,557.6,576,424.7,537.8c146.7,-26,259.7,-136,259.7,-276.5C684.4,106.9,550,-32,368.2,-32Z" 
	id="f1_l"
	transform="scale(0.001,-0.001)" />

	<path d="M62.6,0l0,44.3c145.2,0,145.2,71.8,145.2,116.1l0,828.1c-41.3,10.7,-79.5,10.7,-145.2,10.7l0,44.3l233.8,0c33.6,0,35.1,-1.6,48.9,-21.4L875.4,215.4l0,667.7c0,44.3,0,116.1,-145.1,116.1l39.7,41.2l166.5,0c81,0,-42.7,3.1,120.7,3.1l0,-44.3C912.1,999.2,912.1,927.4,912.1,883.1l0,-873.9C910.6,6.1,907.5,0,893.8,0C883.1,0,881.5,1.5,866.3,22.9L270.4,930.4c-13.7,18.4,-13.7,21.4,-26,33.6l0,-803.6c0,-44.3,0,-116.1,145.2,-116.1L349.9,3.1l-166.6,0C102.4,3.1,226.1,0,62.6,0Z" 
	id="f1_1a"
	transform="scale(0.001,-0.001)" />

	<path d="M97.8,-32C82.5,-32,82.5,-24.3,82.5,3.1l0,308.6c0,27.5,0,35.1,16.8,35.1c3.1,0,15.3,0,16.8,-12.2c1.5,-50.4,7.7,-160.4,96.3,-239.9C287.2,29,381.9,12.2,450.7,12.2c126.8,0,207.8,108.5,207.8,223.1c0,85.5,-47.4,168,-119.2,203.2C517.9,447.6,433.9,469,380.4,481.3C271.9,508.8,218.5,522.5,165,582.1C108.5,643.2,82.5,710.4,82.5,783.8c0,155.8,123.8,291.8,293.3,291.8c67.3,0,168.1,-18.4,241.4,-113.1l50.4,93.2c10.7,19.9,16.8,19.9,21.4,19.9c15.3,0,15.3,-7.7,15.3,-35.2l0,-308.6c0,-27.5,0,-35.1,-16.8,-35.1c-15.3,0,-15.3,6.1,-18.3,24.4c-9.2,65.7,-42.8,313.2,-293.4,313.2c-119.1,0,-204.7,-96.2,-204.7,-203.2c0,-97.8,68.8,-174.2,146.7,-194l168,-42.8C545.4,579,614.2,562.2,670.7,493.5c41.2,-50.4,76.4,-119.2,76.4,-212.4C747.1,113.1,623.3,-32,452.2,-32C320.8,-32,224.6,19.9,169.6,81C157.4,58.1,125.3,1.5,119.2,-10.6C108.5,-28.9,106.9,-32,97.8,-32Z" 
	id="f1_1f"
	transform="scale(0.001,-0.001)" />

	<path d="M55,0l0,44.3l33.6,0c114.6,0,119.2,15.3,119.2,71.8l0,811.3c0,56.5,-4.6,71.8,-119.2,71.8l-33.6,0l36.7,41.2l224.6,0c131.3,0,-45.9,3.1,168,3.1l0,-44.3l-33.6,0c-114.6,0,-119.2,-15.3,-119.2,-71.8l0,-811.3c0,-56.5,4.6,-71.8,119.2,-71.8l33.6,0L447.6,3.1l-224.5,0C91.7,3.1,268.9,0,55,0Z" 
	id="f1_15"
	transform="scale(0.001,-0.001)" />

	<path d="M168.1,617.2c-7.7,0,-15.3,7.7,-15.3,15.3c0,4.6,0,7.6,13.7,21.4C271.9,759.3,271.9,883.1,271.9,904.4c0,19.9,-1.5,27.5,-3,38.2c0,-1.5,-19.9,-30.5,-61.1,-30.5c-45.9,0,-74.9,33.6,-74.9,74.8c0,39.8,29,73.4,73.4,73.4c61.1,0,96.2,-61.1,96.2,-155.9C302.5,730.3,181.8,617.2,168.1,617.2Z" 
	id="f1_a"
	transform="scale(0.001,-0.001)" />

	<path d="M695.1,400.3L517.9,909L340.7,400.3ZM47.4,0l0,44.3c97.7,1.5,140.5,41.3,161.9,103.9l319.3,913.6c7.7,24.5,10.7,29,32.1,29c21.4,0,24.4,-9.1,30.6,-27.5l333,-956.4C945.7,44.3,973.2,44.3,1072.5,44.3L1037.4,3.1l-195.6,0C721.1,3.1,884.6,0,686,0l0,44.3c38.2,0,116.1,0,116.1,45.8c0,4.6,0,7.7,-7.7,26L710.4,356l-385,0L255.1,152.8c-7.6,-19.9,-7.6,-22.9,-7.6,-32.1c0,-42.8,38.2,-74.9,102.4,-76.4L310.1,3.1l-166.5,0C140.6,3.1,194,0,47.4,0Z" 
	id="f1_x"
	transform="scale(0.001,-0.001)" />

	<path d="M559.2,-32c-21.4,0,-24.5,7.7,-32.1,29L169.6,938.1c-22.9,61.1,-47.4,61.1,-142.1,61.1l36.7,41.2l190.9,0c116.2,0,-44.3,3.1,152.8,3.1l0,-44.3c-38.2,0,-114.6,0,-114.6,-44.3c0,-3.1,0,-6.1,7.7,-23L601.9,137.5L887.6,890.7c9.2,21.4,9.2,24.4,9.2,33.6c0,30.6,-22.9,73.3,-100.8,74.9l38.2,41.2l177.2,0c3,0,-59.6,3.1,81,3.1l0,-44.3C973.2,997.6,947.2,930.4,933.5,892.2L592.8,-1.4C582.1,-27.4,580.6,-32,559.2,-32Z" 
	id="f1_1i"
	transform="scale(0.001,-0.001)" />

	<path d="M33.6,0l0,44.3C171.1,45.8,220,106.9,246,145.1L502.6,519.4L216.9,942.6c-32,48.9,-47.3,56.6,-161.9,56.6l36.7,41.2l194,0c120.7,0,-44.3,3.1,157.4,3.1l0,-44.3c-55,0,-87.1,-24.5,-87.1,-45.9c0,-7.6,6.1,-18.3,10.7,-24.4L572.9,623.3L756.3,892.2c9.1,13.8,15.2,22.9,15.2,39.7c0,26,-19.8,62.7,-82.5,67.3l35.2,41.2l216.9,0c16.8,0,-77.9,3.1,82.5,3.1l0,-44.3C878.5,997.6,834.2,930.4,808.2,893.8L597.4,586.7L924.3,97.8c35.1,-53.5,71.8,-53.5,162,-53.5L1049.6,3.1L854,3.1C734.9,3.1,898.3,0,698.2,0l0,44.3c59.6,1.5,87.1,27.5,87.1,45.8c0,6.2,-1.5,7.7,-10.7,21.4L527.1,481.3L302.5,152.8C293.3,139,285.7,128.3,285.7,111.5c0,-25.9,19.9,-64.1,84,-67.2L334.6,3.1l-218.5,0C99.3,3.1,194,0,33.6,0Z" 
	id="f1_1k"
	transform="scale(0.001,-0.001)" />

	<path d="M42.8,0l0,44.3c99.3,0,116.1,0,116.1,68.8l0,501.1l-119.2,0l0,44.3l119.2,0l0,175.7c0,165,180.3,241.4,319.3,241.4c117.6,0,189.4,-68.8,189.4,-146.7c0,-47.4,-36.6,-65.7,-64.1,-65.7c-26,0,-62.7,19.9,-62.7,64.2c0,16.8,4.6,64.1,68.8,64.1c-45.8,52,-119.2,53.5,-134.5,53.5c-90.1,0,-223,-58.1,-223,-213.9l0,-172.6l178.7,0c21.4,0,24.5,0,27.5,1.5c3.1,1.5,18.4,3.1,27.5,3.1l184.9,12.2l0,-562.2C670.7,44.3,689,44.3,786.8,44.3L744,3.1l-168,0C501.1,3.1,621.8,0,458.3,0l0,44.3c99.3,0,116.1,0,116.1,68.8l0,418.6c0,62.6,-9.1,82.5,-79.4,82.5l-239.9,0l0,-501.1c0,-68.8,18.4,-68.8,116.2,-68.8L328.5,3.1l-168.1,0C85.6,3.1,206.3,0,42.8,0Z" 
	id="f1_2"
	transform="scale(0.001,-0.001)" />

	<path d="M348.3,-32C178.8,-32,74.9,116.1,74.9,246c0,59.6,39.7,73.3,67.2,73.3c38.2,0,67.2,-24.4,67.2,-67.2c0,-52,-41.2,-67.2,-67.2,-67.2c-7.7,0,-16.8,1.5,-24.5,4.5C145.1,77.9,244.4,9.2,345.3,9.2c67.2,0,126.8,38.2,160.4,93.2c42.8,68.7,42.8,155.8,42.8,213.9c0,58,-1.6,132.9,-27.5,192.5C508.8,534.7,469,609.6,388.1,609.6c-76.4,0,-148.2,-36.7,-191,-99.3C181.8,491.9,180.3,490.4,172.6,490.4c-18.3,0,-18.3,9.2,-18.3,36.7l0,453.7c0,24.5,0,33.6,12.2,33.6c1.6,0,4.6,0,15.3,-4.5c29,-12.3,100.8,-42.8,201.7,-42.8c39.7,0,113,4.6,198.6,41.2c13.7,6.1,16.8,6.1,19.8,6.1c9.2,0,12.3,-7.6,12.3,-13.7c0,-21.4,-110,-148.2,-282.7,-148.2c-16.8,0,-70.2,1.5,-135.9,22.9l0,-316.2c39.7,42.7,106.9,80.9,194,80.9c160.4,0,282.6,-151.2,282.6,-333C672.2,113.1,521,-32,348.3,-32Z" 
	id="f1_n"
	transform="scale(0.001,-0.001)" />

	<path d="M592.8,44.3c149.7,0,242.9,113.1,242.9,236.8c0,117.7,-76.4,246,-223.1,246l-285.7,0l0,-421.7C326.9,55,330,44.3,397.2,44.3ZM548.5,557.6c169.6,0,249,126.8,249,227.7c0,82.5,-55,213.9,-207.8,213.9l-192.5,0c-67.2,0,-70.3,-10.7,-70.3,-61.1l0,-380.5ZM65.7,0l0,44.3l30.6,0c110,0,114.5,15.3,114.5,71.8l0,811.3c0,56.5,-4.5,71.8,-114.5,71.8l-30.6,0l0,44.3l533.2,0c200.1,0,333,-126.8,333,-258.2C931.9,670.7,826.5,572.9,681.4,545.4C863.2,525.6,974.7,403.3,974.7,279.6C974.7,132.9,837.2,0,640.1,0Z" 
	id="f1_y"
	transform="scale(0.001,-0.001)" />

	<path d="M48.9,0l0,44.3c99.3,0,116.1,0,116.1,68.8l0,800.5c0,74.9,-12.2,85.6,-116.1,85.6l0,44.3l212.4,16.8l0,-533.2l1.5,0c21.4,47.3,82.5,146.7,213.9,146.7c51.9,0,123.7,-9.2,168,-68.8c35.2,-48.9,35.2,-91.7,35.2,-233.7l0,-281.2C681.4,44.3,719.6,44.3,796,44.3L756.3,3.1l-169.6,0C504.2,3.1,629.4,0,464.4,0l0,44.3c99.4,0,116.2,0,116.2,68.8l0,359c0,93.2,-21.4,171.1,-116.2,171.1c-94.7,0,-200.1,-85.6,-200.1,-246l0,-284.1c0,-68.8,18.3,-68.8,116.1,-68.8L340.7,3.1l-169.6,0C88.6,3.1,213.9,0,48.9,0Z" 
	id="f1_1z"
	transform="scale(0.001,-0.001)" />

	<path d="M357.5,-15.2c-16.8,0,-21.4,10.7,-27.5,27.4l-192.5,547c-16.8,48.9,-32.1,55,-110,55l96.3,41.2l87,0c76.4,0,-41.2,3.1,114.6,3.1l0,-44.3c-29,0,-88.6,0,-88.6,-41.3c0,-6.1,0,-9.1,7.6,-29L391.1,128.3L521,501.1c-10.7,30.6,-29.1,81,-36.7,90.2c-16.8,19.8,-36.7,22.9,-94.7,22.9l85.5,41.2l96.3,0c62.6,0,-44.3,3.1,105.4,3.1l0,-44.3c-32.1,0,-88.6,0,-88.6,-42.8c0,-4.6,0,-7.6,7.6,-26L748.6,113.1L889.2,513.3c6.1,15.3,6.1,26,6.1,27.5c0,29.1,-18.4,70.3,-87.1,73.4l82.5,41.2l94.7,0c27.5,0,-47.3,3.1,65.7,3.1l0,-44.3c-26,-1.6,-93.2,-4.6,-126.8,-100.9L748.6,12.2C742.5,-4.5,737.9,-15.2,721.1,-15.2c-13.7,0,-21.4,4.6,-29,29L539.3,449.2L386.5,13.8c-7.6,-24.4,-15.2,-29,-29,-29Z" 
	id="f1_2e"
	transform="scale(0.001,-0.001)" />

	<path d="M603.5,-32c-278.1,0,-521,238.3,-521,554.5c0,313.2,242.9,553.1,519.4,553.1c145.2,0,238.4,-84.1,282.7,-139.1l74.8,120.7c9.2,15.3,10.7,18.4,19.9,18.4c15.3,0,15.3,-7.7,15.3,-35.2l0,-362.1c0,-30.5,0,-35.1,-21.4,-35.1c-18.3,0,-18.3,4.6,-21.4,21.4C912.1,935,753.2,1031.3,620.3,1031.3c-107,0,-395.7,-67.3,-395.7,-508.8C224.6,85.6,510.3,12.2,631,12.2c39.7,0,239.8,12.2,239.8,186.4l0,97.8c0,55,-4.5,73.3,-139,73.3l-47.4,0L725.7,411l227.6,0c105.5,0,-45.8,3,145.2,3l0,-44.3c-97.8,0,-103.9,-7.6,-103.9,-67.2l0,-267.4c0,-24.4,0,-33.6,-12.2,-33.6c-12.3,0,-62.7,50.4,-90.2,99.3C835.7,3.1,711.9,-32,603.5,-32Z" 
	id="f1_13"
	transform="scale(0.001,-0.001)" />

	<path d="M579,-32C385,-32,207.8,128.3,207.8,349.9l0,577.5c0,56.5,-4.6,71.8,-114.6,71.8l-30.6,0l36.7,41.2l215.4,0c125.3,0,-44.3,3.1,162,3.1l0,-44.3l-30.6,0c-110,0,-114.6,-15.3,-114.6,-71.8l0,-586.7C331.5,73.3,490.4,12.2,582.1,12.2c143.6,0,288.7,125.3,288.7,339.2l0,534.7c0,41.3,0,113.1,-145.1,113.1l39.7,41.2l169.6,0c82.5,0,-42.8,3.1,122.2,3.1l0,-44.3c-27.5,0,-145.1,0,-145.1,-93.2l0,-577.5C912.1,175.7,791.4,-32,579,-32Z" 
	id="f1_1h"
	transform="scale(0.001,-0.001)" />

	<path d="M582.1,3.1c148.2,0,356,140.5,356,537.7c0,369.8,-206.3,501.1,-357.5,501.1c-143.7,0,-356,-126.8,-356,-501.1C224.6,149.7,426.3,3.1,582.1,3.1ZM580.6,-32C313.2,-32,82.5,207.8,82.5,517.9c0,313.2,227.6,557.7,499.6,557.7c265.8,0,498,-241.4,498,-557.7C1080.1,210.8,854,-32,580.6,-32Z" 
	id="f1_1b"
	transform="scale(0.001,-0.001)" />

	<path d="M372.8,-1.4c53.5,0,149.7,28.9,178.7,197c16.8,93.2,16.8,209.3,16.8,311.6c0,103.9,0,224.6,-19.8,311.7C519.4,950.3,430.8,985.4,372.8,985.4c-65.7,0,-143.6,-47.3,-169.6,-149.7C178.8,745.6,178.8,632.5,178.8,507.2c0,-106.9,0,-223,16.8,-314.7C224.6,26,323.9,-1.4,372.8,-1.4Zm0,-30.6C293.3,-32,187.9,4.6,128.3,120.7c-55,108.5,-65.7,220,-65.7,368.2c0,165,15.3,259.7,58.1,356c56.5,126.8,165,171.1,253.6,171.1c74.9,0,184.9,-33.6,247.5,-160.4c55,-116.2,62.6,-239.9,62.6,-366.7c0,-88.6,-3,-238.3,-58,-352.9C582.1,47.4,505.7,-32,372.8,-32Z" 
	id="f1_i"
	transform="scale(0.001,-0.001)" />

	<path d="M501.1,537.8c198.6,0,270.4,97.8,270.4,230.7C771.5,999.2,576,999.2,452.2,999.2c-30.5,0,-76.4,0,-90.1,-1.6C330,991.5,330,973.2,330,938.1l0,-400.3ZM956.4,-32C870.8,-32,806.7,3.1,783.8,26C716.5,91.7,716.5,131.4,716.5,252.1c0,105.4,0,137.5,-51.9,195.5c-41.3,42.8,-97.8,59.6,-157.4,59.6l-177.2,0l0,-391.1c0,-56.5,4.6,-71.8,114.6,-71.8l30.5,0L440,3.1l-215.4,0C99.3,3.1,268.9,0,64.2,0l0,44.3l30.5,0c110,0,114.6,15.3,114.6,71.8l0,811.3c0,56.5,-4.6,71.8,-114.6,71.8l-30.5,0l0,44.3l456.8,0c220,0,392.6,-126.8,392.6,-275C913.6,650.8,796,554.6,644.7,519.4c84.1,-22.9,123.8,-64.1,140.6,-80.9c45.8,-47.4,51.9,-96.3,62.6,-172.7c4.6,-38.2,13.8,-103.9,15.3,-114.5C875.4,70.3,890.7,-1.4,961,-1.4c48.9,0,93.2,41.1,100.8,132.8c1.5,15.3,1.5,24.4,16.8,24.4c16.8,0,16.8,-13.7,16.8,-22.9c0,-32.1,-19.8,-164.9,-139,-164.9Z" 
	id="f1_1e"
	transform="scale(0.001,-0.001)" />

	<path d="M482.8,-383.4c-16.8,0,-142.1,99.3,-232.2,282.7C171.1,62.6,149.7,244.4,149.7,380.4c0,187.9,35.2,351.4,113.1,505.7c74.8,149.7,200.1,259.7,220,259.7c6.1,0,13.7,-3,13.7,-12.2c0,-4.6,0,-7.6,-15.2,-21.4C304,931.9,232.2,676.8,232.2,380.4c0,-311.6,85.6,-563.6,238.4,-717.9c25.9,-26,25.9,-29.1,25.9,-33.7c0,-9.1,-7.6,-12.2,-13.7,-12.2Z" 
	id="f1_b"
	transform="scale(0.001,-0.001)" />

	<path d="M177.2,-381.8l0,1527.6l204.7,0l0,-56.5l-148.1,0l0,-1414.6l148.1,0l0,-56.5Z" 
	id="f1_1n"
	transform="scale(0.001,-0.001)" />

	<path d="M32.1,-381.8l0,56.5l148.2,0l0,1414.6l-148.2,0l0,56.5l204.7,0l0,-1527.6Z" 
	id="f1_1p"
	transform="scale(0.001,-0.001)" />

	<path d="M97.8,-383.4c-6.1,0,-13.8,3.1,-13.8,12.2c0,4.6,0,7.7,15.3,21.4c177.2,180.3,249,435.4,249,731.7C348.3,693.6,262.8,945.7,110,1100c-26,26,-26,29,-26,33.6c0,9.2,7.7,12.2,13.8,12.2c16.8,0,142.1,-99.3,232.2,-282.6C415.6,686,430.8,496.5,430.8,380.4c0,-183.3,-35.1,-348.3,-113,-504.1C242.9,-273.4,117.6,-383.4,97.8,-383.4Z" 
	id="f1_c"
	transform="scale(0.001,-0.001)" />

	<path d="M62.6,0l0,44.3l30.6,0c110,0,114.6,15.3,114.6,71.8l0,811.3c0,56.5,-4.6,71.8,-114.6,71.8l-30.6,0l36.7,41.2l215.4,0c125.3,0,-44.3,3.1,162,3.1l0,-44.3l-30.6,0c-110,0,-114.6,-15.3,-114.6,-71.8l0,-362.1l456.8,0l0,362.1c0,56.5,-4.5,71.8,-114.5,71.8l-30.6,0l36.7,41.2l215.4,0c125.3,0,-44.3,3.1,161.9,3.1l0,-44.3l-30.5,0c-110,0,-114.6,-15.3,-114.6,-71.8l0,-811.3c0,-56.5,4.6,-71.8,114.6,-71.8l30.5,0L1020.6,3.1l-215.5,0C679.9,3.1,849.4,0,643.2,0l0,44.3l30.6,0c110,0,114.5,15.3,114.5,71.8l0,404.9l-456.8,0l0,-404.9c0,-56.5,4.6,-71.8,114.6,-71.8l30.6,0L440,3.1l-215.4,0C99.3,3.1,268.9,0,62.6,0Z" 
	id="f1_14"
	transform="scale(0.001,-0.001)" />

	<path d="M603.5,-32c-276.6,0,-521,238.3,-521,554.5c0,311.7,241.4,553.1,521,553.1c110,0,213.9,-53.5,282.6,-139.1L961,1057.2c9.1,15.3,10.7,18.4,19.8,18.4c15.3,0,15.3,-7.7,15.3,-35.2l0,-362.1c0,-30.5,0,-35.1,-21.4,-35.1c-18.3,0,-18.3,4.6,-21.4,22.9C922.8,895.3,782.2,1031.3,621.8,1031.3c-110,0,-397.2,-67.3,-397.2,-508.8C224.6,76.4,516.4,12.2,623.3,12.2c148.2,0,325.5,107,339.2,349.9c0,10.7,1.5,18.3,16.8,18.3c16.8,0,16.8,-9.1,16.8,-26C996.1,186.4,854,-32,603.5,-32Z" 
	id="f1_z"
	transform="scale(0.001,-0.001)" />

	<path d="M542.4,522.5c249,0,249,174.2,249,238.3c0,65.7,0,238.4,-247.5,238.4l-143.6,0C333.1,999.2,330,988.5,330,938.1l0,-415.6ZM64.2,0l0,44.3l30.5,0c110,0,114.6,15.3,114.6,71.8l0,811.3c0,56.5,-4.6,71.8,-114.6,71.8l-30.5,0l0,44.3l514.8,0c206.3,0,354.5,-134.5,354.5,-282.7c0,-154.3,-163.5,-275,-342.2,-275l-258.2,0l0,-369.7c0,-56.5,4.5,-71.8,114.5,-71.8l30.6,0L441.5,3.1l-215.4,0C100.8,3.1,270.4,0,64.2,0Z" 
	id="f1_1c"
	transform="scale(0.001,-0.001)" />

	<path d="M168.1,-294.8c-7.7,0,-15.3,7.7,-15.3,15.3c0,6.1,1.5,9.2,7.6,13.8c67.2,70.2,107,161.9,107,259.7c0,7.5,0,28.9,-3.1,28.9c-1.5,0,-3,0,-7.6,-4.6C247.5,10.7,230.7,0,207.8,0C161.9,0,132.9,33.6,132.9,74.9c0,39.7,29,73.3,73.4,73.3c59.5,0,91.6,-59.6,91.6,-154.2c0,-175.7,-116.1,-288.8,-129.8,-288.8Z" 
	id="f1_e"
	transform="scale(0.001,-0.001)" />

	<path d="M375.8,9.2c61.1,0,116.1,25.9,154.3,99.3c29.1,58,29.1,126.8,29.1,204.7c0,65.7,0,142.1,-24.5,198.6c-22.9,52,-67.2,108.5,-151.2,108.5C246,620.3,191,469,191,348.3c0,-106.9,15.3,-181.8,29,-221.5C233.8,94.7,279.6,9.2,375.8,9.2Zm0,-41.2C246,-32,62.6,62.6,62.6,482.8c0,336.1,201.7,533.2,394.2,533.2c132.9,0,191,-77.9,191,-157.4c0,-44.3,-26,-67.2,-64.2,-67.2c-39.7,0,-62.6,29,-62.6,62.6c0,62.7,58,62.7,76.4,62.7c-29.1,45.8,-84.1,62.6,-139.1,62.6c-82.5,0,-270.4,-61.1,-270.4,-447.6l0,-41.3c15.3,42.8,65.7,160.4,201.7,160.4c152.8,0,294.8,-135.9,294.8,-339.1C684.4,113.1,542.4,-32,375.8,-32Z" 
	id="f1_o"
	transform="scale(0.001,-0.001)" />

	<path d="M67.2,0l0,65.7l105.4,0l0,484.3c0,59.6,-10.7,59.6,-100.8,59.6l0,65.7l259.7,12.2l0,-621.8l94.8,0L389.6,3.1l-181.8,0C102.4,3.1,249,0,67.2,0ZM230.7,841.8c-62.6,0,-110,52,-110,110c0,58.1,47.4,110,110,110c59.6,0,110,-47.4,110,-110c0,-62.6,-50.4,-110,-110,-110Z" 
	id="f2_1h"
	transform="scale(0.001,-0.001)" />

	<path d="M27.5,0l0,65.7c126.8,0,137.5,10.7,155.8,32.1L381.9,322.4L143.6,612.6l-108.5,0l42.8,62.7l169.6,0c103.9,0,-41.2,3,139,3l0,-65.7l-64.1,0L473.6,427.8L606.5,577.5c3.1,3.1,10.7,13.8,10.7,16.8c0,10.7,-32.1,18.3,-61.1,18.3l42.8,62.7l161.9,0c3.1,0,-51.9,3,88.6,3l0,-65.7c-126.8,0,-140.5,-12.2,-157.3,-32L514.9,377.4L773.1,65.7l106.9,0L837.2,3.1l-169.6,0C565.3,3.1,710.4,0,528.6,0l0,65.7l64.2,0L423.2,271.9L270.4,99.3C259.7,87.1,259.7,85.6,259.7,84c0,-10.7,32.1,-18.3,61.1,-18.3L278.1,3.1l-155.9,0C119.2,3.1,169.6,0,27.5,0Z" 
	id="f2_1w"
	transform="scale(0.001,-0.001)" />


</defs>
</svg>