<?xml version="1.0" encoding="UTF-8" standalone="no"?>
<!DOCTYPE svg PUBLIC "-//W3C//DTD SVG 1.1//EN"
"http://www.w3.org/Graphics/SVG/1.1/DTD/svg11.dtd">
<svg viewBox="0 0 909 1286" version="1.1" xmlns="http://www.w3.org/2000/svg" xmlns:xlink="http://www.w3.org/1999/xlink">
<defs>
<style type="text/css"><![CDATA[
.g1_1{
fill: #2C4D82;
}
]]></style>
</defs>
<path d="M129.9,138.4l692.9,0l0,-13l-692.9,0l0,13Z" class="g1_1" />
<g fill="#000000" >
<use xlink:href="#f0_c" transform="matrix(12,0,0,12,346.1,165.7)" />
<use xlink:href="#f0_z" transform="matrix(12,0,0,12,359.6,165.7)" />
<use xlink:href="#f0_1a" transform="matrix(12,0,0,12,367.8,165.7)" />
<use xlink:href="#f0_v" transform="matrix(12,0,0,12,376,165.7)" />
<use xlink:href="#f0_1b" transform="matrix(12,0,0,12,385.1,165.7)" />
<use xlink:href="#f0_1d" transform="matrix(12,0,0,12,392.7,165.7)" />
<use xlink:href="#f0_17" transform="matrix(12,0,0,12,398.6,165.7)" />
<use xlink:href="#f0_z" transform="matrix(12,0,0,12,413.2,165.7)" />
<use xlink:href="#f0_18" transform="matrix(12,0,0,12,421.4,165.7)" />
<use xlink:href="#f0_1d" transform="matrix(12,0,0,12,431.5,165.7)" />
<use xlink:href="#f0_19" transform="matrix(12,0,0,12,443.8,165.7)" />
<use xlink:href="#f0_10" transform="matrix(12,0,0,12,452.9,165.7)" />
<use xlink:href="#f0_b" transform="matrix(12,0,0,12,464.8,165.7)" />
<use xlink:href="#f0_19" transform="matrix(12,0,0,12,477.6,165.7)" />
<use xlink:href="#f0_17" transform="matrix(12,0,0,12,486.7,165.7)" />
<use xlink:href="#f0_1a" transform="matrix(12,0,0,12,501.3,165.7)" />
<use xlink:href="#f0_1e" transform="matrix(12,0,0,12,510.5,165.7)" />
<use xlink:href="#f0_1d" transform="matrix(12,0,0,12,520.1,165.7)" />
<use xlink:href="#f0_z" transform="matrix(12,0,0,12,526,165.7)" />
<use xlink:href="#f0_1b" transform="matrix(12,0,0,12,534.2,165.7)" />
<use xlink:href="#f0_q" transform="matrix(12,0,0,12,548.1,165.7)" />
<use xlink:href="#f0_x" transform="matrix(12,0,0,12,558.2,165.7)" />
<use xlink:href="#f0_13" transform="matrix(12,0,0,12,566.4,165.7)" />
<use xlink:href="#f0_z" transform="matrix(12,0,0,12,571.9,165.7)" />
<use xlink:href="#f0_18" transform="matrix(12,0,0,12,580.1,165.7)" />
<use xlink:href="#f0_x" transform="matrix(12,0,0,12,590.2,165.7)" />
<use xlink:href="#f0_z" transform="matrix(12,0,0,12,597.5,165.7)" />
<use xlink:href="#f0_r" transform="matrix(12,0,0,12,366.8,187)" />
<use xlink:href="#f0_12" transform="matrix(12,0,0,12,379.6,187)" />
<use xlink:href="#f0_z" transform="matrix(12,0,0,12,388.7,187)" />
<use xlink:href="#f0_s" transform="matrix(12,0,0,12,403.3,187)" />
<use xlink:href="#f0_18" transform="matrix(12,0,0,12,416.6,187)" />
<use xlink:href="#f0_13" transform="matrix(12,0,0,12,426.7,187)" />
<use xlink:href="#f0_1f" transform="matrix(12,0,0,12,432.1,187)" />
<use xlink:href="#f0_z" transform="matrix(12,0,0,12,440.4,187)" />
<use xlink:href="#f0_1b" transform="matrix(12,0,0,12,448.6,187)" />
<use xlink:href="#f0_1c" transform="matrix(12,0,0,12,456.1,187)" />
<use xlink:href="#f0_13" transform="matrix(12,0,0,12,463.4,187)" />
<use xlink:href="#f0_1d" transform="matrix(12,0,0,12,468.9,187)" />
<use xlink:href="#f0_1i" transform="matrix(12,0,0,12,474.8,187)" />
<use xlink:href="#f0_19" transform="matrix(12,0,0,12,489.9,187)" />
<use xlink:href="#f0_10" transform="matrix(12,0,0,12,499,187)" />
<use xlink:href="#f0_9" transform="matrix(12,0,0,12,510.9,187)" />
<use xlink:href="#f0_1e" transform="matrix(12,0,0,12,523.7,187)" />
<use xlink:href="#f0_x" transform="matrix(12,0,0,12,533.3,187)" />
<use xlink:href="#f0_15" transform="matrix(12,0,0,12,541.5,187)" />
<use xlink:href="#f0_16" transform="matrix(12,0,0,12,549.8,187)" />
<use xlink:href="#f0_v" transform="matrix(12,0,0,12,554.3,187)" />
<use xlink:href="#f0_18" transform="matrix(12,0,0,12,563.5,187)" />
<use xlink:href="#f0_y" transform="matrix(12,0,0,12,573.5,187)" />
<use xlink:href="#f0_m" transform="matrix(12,0,0,12,425.6,208.3)" />
<use xlink:href="#f0_z" transform="matrix(12,0,0,12,438.9,208.3)" />
<use xlink:href="#f0_1g" transform="matrix(12,0,0,12,447.1,208.3)" />
<use xlink:href="#f0_u" transform="matrix(12,0,0,12,465.4,208.3)" />
<use xlink:href="#f0_z" transform="matrix(12,0,0,12,476.3,208.3)" />
<use xlink:href="#f0_v" transform="matrix(12,0,0,12,483.6,208.3)" />
<use xlink:href="#f0_16" transform="matrix(12,0,0,12,492.8,208.3)" />
<use xlink:href="#f0_v" transform="matrix(12,0,0,12,497.3,208.3)" />
<use xlink:href="#f0_18" transform="matrix(12,0,0,12,506.5,208.3)" />
<use xlink:href="#f0_y" transform="matrix(12,0,0,12,516.5,208.3)" />
</g>
<image preserveAspectRatio="none" x="311" y="228" width="331" height="390" xlink:href="img/1.png" />
<path d="M129.9,645.3l692.9,0l0,-13l-692.9,0l0,13Z" class="g1_1" />
<g fill="#000000" >
<use xlink:href="#f1_0" transform="matrix(29.9,0,0,29.9,151.4,684)" />
<use xlink:href="#f1_1" transform="matrix(29.9,0,0,29.9,187,684)" />
<use xlink:href="#f1_2" transform="matrix(29.9,0,0,29.9,217.4,684)" />
<use xlink:href="#f1_3" transform="matrix(29.9,0,0,29.9,250.4,684)" />
<use xlink:href="#f1_q" transform="matrix(29.9,0,0,29.9,288.4,684)" />
<use xlink:href="#f1_5" transform="matrix(29.9,0,0,29.9,303.6,684)" />
<use xlink:href="#f1_4" transform="matrix(29.9,0,0,29.9,331.5,684)" />
<use xlink:href="#f1_p" transform="matrix(29.9,0,0,29.9,359.4,684)" />
<use xlink:href="#f1_0" transform="matrix(29.9,0,0,29.9,382.3,684)" />
<use xlink:href="#f1_k" transform="matrix(29.9,0,0,29.9,417.8,684)" />
<use xlink:href="#f1_j" transform="matrix(29.9,0,0,29.9,445.7,684)" />
<use xlink:href="#f1_f" transform="matrix(29.9,0,0,29.9,460.9,684)" />
<use xlink:href="#f1_d" transform="matrix(29.9,0,0,29.9,486.3,684)" />
<use xlink:href="#f1_6" transform="matrix(29.9,0,0,29.9,526.9,684)" />
<use xlink:href="#f1_j" transform="matrix(29.9,0,0,29.9,549.7,684)" />
<use xlink:href="#f1_b" transform="matrix(29.9,0,0,29.9,564.9,684)" />
<use xlink:href="#f1_8" transform="matrix(29.9,0,0,29.9,580.1,684)" />
<use xlink:href="#f1_1" transform="matrix(29.9,0,0,29.9,611.8,684)" />
<use xlink:href="#f1_6" transform="matrix(29.9,0,0,29.9,642.3,684)" />
<use xlink:href="#f1_o" transform="matrix(29.9,0,0,29.9,665.1,684)" />
<use xlink:href="#f1_9" transform="matrix(29.9,0,0,29.9,690.5,684)" />
<use xlink:href="#f1_i" transform="matrix(29.9,0,0,29.9,713.3,684)" />
<use xlink:href="#f1_b" transform="matrix(29.9,0,0,29.9,733.6,684)" />
<use xlink:href="#f1_6" transform="matrix(29.9,0,0,29.9,748.8,684)" />
<use xlink:href="#f1_e" transform="matrix(29.9,0,0,29.9,771.6,684)" />
<use xlink:href="#f1_2" transform="matrix(29.9,0,0,29.9,194.8,750.1)" />
<use xlink:href="#f1_f" transform="matrix(29.9,0,0,29.9,227.8,750.1)" />
<use xlink:href="#f1_l" transform="matrix(29.9,0,0,29.9,253.2,750.1)" />
<use xlink:href="#f1_6" transform="matrix(29.9,0,0,29.9,278.6,750.1)" />
<use xlink:href="#f1_h" transform="matrix(29.9,0,0,29.9,301.4,750.1)" />
<use xlink:href="#f1_b" transform="matrix(29.9,0,0,29.9,319.2,750.1)" />
<use xlink:href="#f1_6" transform="matrix(29.9,0,0,29.9,334.4,750.1)" />
<use xlink:href="#f1_e" transform="matrix(29.9,0,0,29.9,357.2,750.1)" />
<use xlink:href="#f1_8" transform="matrix(29.9,0,0,29.9,385.1,750.1)" />
<use xlink:href="#f1_9" transform="matrix(29.9,0,0,29.9,405.4,750.1)" />
<use xlink:href="#f1_3" transform="matrix(29.9,0,0,29.9,439.6,750.1)" />
<use xlink:href="#f1_b" transform="matrix(29.9,0,0,29.9,477.7,750.1)" />
<use xlink:href="#f1_i" transform="matrix(29.9,0,0,29.9,492.9,750.1)" />
<use xlink:href="#f1_8" transform="matrix(29.9,0,0,29.9,513.1,750.1)" />
<use xlink:href="#f1_f" transform="matrix(29.9,0,0,29.9,533.4,750.1)" />
<use xlink:href="#f1_l" transform="matrix(29.9,0,0,29.9,558.8,750.1)" />
<use xlink:href="#f1_9" transform="matrix(29.9,0,0,29.9,584.2,750.1)" />
<use xlink:href="#f1_h" transform="matrix(29.9,0,0,29.9,607,750.1)" />
<use xlink:href="#f1_o" transform="matrix(29.9,0,0,29.9,624.8,750.1)" />
<use xlink:href="#f1_m" transform="matrix(29.9,0,0,29.9,661.6,750.1)" />
<use xlink:href="#f1_b" transform="matrix(29.9,0,0,29.9,699.6,750.1)" />
<use xlink:href="#f1_j" transform="matrix(29.9,0,0,29.9,714.8,750.1)" />
<use xlink:href="#f1_a" transform="matrix(29.9,0,0,29.9,730,750.1)" />
<use xlink:href="#f1_5" transform="matrix(29.9,0,0,29.9,264,816.2)" />
<use xlink:href="#f1_j" transform="matrix(29.9,0,0,29.9,291.9,816.2)" />
<use xlink:href="#f1_6" transform="matrix(29.9,0,0,29.9,307.1,816.2)" />
<use xlink:href="#f1_7" transform="matrix(29.9,0,0,29.9,329.9,816.2)" />
<use xlink:href="#f1_c" transform="matrix(29.9,0,0,29.9,357.8,816.2)" />
<use xlink:href="#f1_9" transform="matrix(29.9,0,0,29.9,373,816.2)" />
<use xlink:href="#f1_4" transform="matrix(29.9,0,0,29.9,407.2,816.2)" />
<use xlink:href="#f1_n" transform="matrix(29.9,0,0,29.9,435.1,816.2)" />
<use xlink:href="#f1_j" transform="matrix(29.9,0,0,29.9,458,816.2)" />
<use xlink:href="#f1_h" transform="matrix(29.9,0,0,29.9,473.2,816.2)" />
<use xlink:href="#f1_6" transform="matrix(29.9,0,0,29.9,490.9,816.2)" />
<use xlink:href="#f1_g" transform="matrix(29.9,0,0,29.9,513.8,816.2)" />
<use xlink:href="#f1_f" transform="matrix(29.9,0,0,29.9,541.7,816.2)" />
<use xlink:href="#f1_c" transform="matrix(29.9,0,0,29.9,567.1,816.2)" />
<use xlink:href="#f1_6" transform="matrix(29.9,0,0,29.9,582.3,816.2)" />
<use xlink:href="#f1_j" transform="matrix(29.9,0,0,29.9,605.1,816.2)" />
<use xlink:href="#f1_b" transform="matrix(29.9,0,0,29.9,620.3,816.2)" />
<use xlink:href="#f1_f" transform="matrix(29.9,0,0,29.9,635.5,816.2)" />
<use xlink:href="#f1_e" transform="matrix(29.9,0,0,29.9,660.9,816.2)" />
</g>
<path d="M129.9,843.6l692.9,0l0,-13l-692.9,0l0,13Z" class="g1_1" />
<g fill="#000000" >
<use xlink:href="#f0_l" transform="matrix(17.2,0,0,17.2,540.1,885.3)" />
<use xlink:href="#f0_v" transform="matrix(17.2,0,0,17.2,563.2,885.3)" />
<use xlink:href="#f0_18" transform="matrix(17.2,0,0,17.2,576.4,885.3)" />
<use xlink:href="#f0_13" transform="matrix(17.2,0,0,17.2,590.8,885.3)" />
<use xlink:href="#f0_1c" transform="matrix(17.2,0,0,17.2,598.7,885.3)" />
<use xlink:href="#f0_12" transform="matrix(17.2,0,0,17.2,609.2,885.3)" />
<use xlink:href="#f0_9" transform="matrix(17.2,0,0,17.2,631.6,885.3)" />
<use xlink:href="#f0_1c" transform="matrix(17.2,0,0,17.2,650.7,885.3)" />
<use xlink:href="#f0_12" transform="matrix(17.2,0,0,17.2,661.2,885.3)" />
<use xlink:href="#f0_19" transform="matrix(17.2,0,0,17.2,674.4,885.3)" />
<use xlink:href="#f0_15" transform="matrix(17.2,0,0,17.2,687.5,885.3)" />
<use xlink:href="#f0_16" transform="matrix(17.2,0,0,17.2,699.4,885.3)" />
<use xlink:href="#f0_v" transform="matrix(17.2,0,0,17.2,705.9,885.3)" />
<use xlink:href="#f0_16" transform="matrix(17.2,0,0,17.2,719.1,885.3)" />
<use xlink:href="#f0_j" transform="matrix(17.2,0,0,17.2,734.9,885.3)" />
<use xlink:href="#f0_1e" transform="matrix(17.2,0,0,17.2,754.6,885.3)" />
<use xlink:href="#f0_15" transform="matrix(17.2,0,0,17.2,768.5,885.3)" />
<use xlink:href="#f0_1b" transform="matrix(17.2,0,0,17.2,780.3,885.3)" />
<use xlink:href="#f0_z" transform="matrix(17.2,0,0,17.2,789.8,885.3)" />
<use xlink:href="#f0_14" transform="matrix(17.2,0,0,17.2,801.7,885.3)" />
<use xlink:href="#f0_v" transform="matrix(17.2,0,0,17.2,809.6,885.3)" />
<use xlink:href="#f0_n" transform="matrix(14.3,0,0,14.3,698.9,919.3)" />
<use xlink:href="#f0_x" transform="matrix(14.3,0,0,14.3,715.4,919.3)" />
<use xlink:href="#f0_1d" transform="matrix(14.3,0,0,14.3,725.2,919.3)" />
<use xlink:href="#f0_19" transform="matrix(14.3,0,0,14.3,732.4,919.3)" />
<use xlink:href="#f0_w" transform="matrix(14.3,0,0,14.3,743.3,919.3)" />
<use xlink:href="#f0_z" transform="matrix(14.3,0,0,14.3,752.1,919.3)" />
<use xlink:href="#f0_1b" transform="matrix(14.3,0,0,14.3,762,919.3)" />
<use xlink:href="#f0_6" transform="matrix(14.3,0,0,14.3,778.7,919.3)" />
<use xlink:href="#f0_4" transform="matrix(14.3,0,0,14.3,789.6,919.3)" />
<use xlink:href="#f0_5" transform="matrix(14.3,0,0,14.3,800.6,919.3)" />
<use xlink:href="#f0_7" transform="matrix(14.3,0,0,14.3,811.5,919.3)" />
<use xlink:href="#f0_q" transform="matrix(14.3,0,0,14.3,456,962.9)" />
<use xlink:href="#f0_1e" transform="matrix(14.3,0,0,14.3,468,962.9)" />
<use xlink:href="#f0_1a" transform="matrix(14.3,0,0,14.3,479.6,962.9)" />
<use xlink:href="#f0_z" transform="matrix(14.3,0,0,14.3,489.4,962.9)" />
<use xlink:href="#f0_1b" transform="matrix(14.3,0,0,14.3,499.3,962.9)" />
<use xlink:href="#f0_1f" transform="matrix(14.3,0,0,14.3,508.3,962.9)" />
<use xlink:href="#f0_13" transform="matrix(14.3,0,0,14.3,518.2,962.9)" />
<use xlink:href="#f0_1c" transform="matrix(14.3,0,0,14.3,524.8,962.9)" />
<use xlink:href="#f0_19" transform="matrix(14.3,0,0,14.3,533.5,962.9)" />
<use xlink:href="#f0_1b" transform="matrix(14.3,0,0,14.3,544.5,962.9)" />
<use xlink:href="#f0_1c" transform="matrix(14.3,0,0,14.3,553.5,962.9)" />
<use xlink:href="#f0_8" transform="matrix(14.3,0,0,14.3,562.3,962.9)" />
<use xlink:href="#f0_c" transform="matrix(14.3,0,0,14.3,587.1,996.9)" />
<use xlink:href="#f0_1b" transform="matrix(14.3,0,0,14.3,603.3,996.9)" />
<use xlink:href="#f0_3" transform="matrix(14.3,0,0,14.3,612.4,996.9)" />
<use xlink:href="#f0_t" transform="matrix(14.3,0,0,14.3,628.8,996.9)" />
<use xlink:href="#f0_1e" transform="matrix(14.3,0,0,14.3,643.1,996.9)" />
<use xlink:href="#f0_18" transform="matrix(14.3,0,0,14.3,654.6,996.9)" />
<use xlink:href="#f0_q" transform="matrix(14.3,0,0,14.3,674.3,996.9)" />
<use xlink:href="#f0_13" transform="matrix(14.3,0,0,14.3,686.4,996.9)" />
<use xlink:href="#f0_18" transform="matrix(14.3,0,0,14.3,693,996.9)" />
<use xlink:href="#f0_11" transform="matrix(14.3,0,0,14.3,705,996.9)" />
<use xlink:href="#f0_j" transform="matrix(14.3,0,0,14.3,722.5,996.9)" />
<use xlink:href="#f0_19" transform="matrix(14.3,0,0,14.3,739,996.9)" />
<use xlink:href="#f0_12" transform="matrix(14.3,0,0,14.3,750,996.9)" />
<use xlink:href="#f0_c" transform="matrix(14.3,0,0,14.3,587.1,1030.9)" />
<use xlink:href="#f0_1b" transform="matrix(14.3,0,0,14.3,603.3,1030.9)" />
<use xlink:href="#f0_3" transform="matrix(14.3,0,0,14.3,612.4,1030.9)" />
<use xlink:href="#f0_o" transform="matrix(14.3,0,0,14.3,628.8,1030.9)" />
<use xlink:href="#f0_v" transform="matrix(14.3,0,0,14.3,643.3,1030.9)" />
<use xlink:href="#f0_1d" transform="matrix(14.3,0,0,14.3,654.3,1030.9)" />
<use xlink:href="#f0_1b" transform="matrix(14.3,0,0,14.3,661.4,1030.9)" />
<use xlink:href="#f0_13" transform="matrix(14.3,0,0,14.3,670.5,1030.9)" />
<use xlink:href="#f0_x" transform="matrix(14.3,0,0,14.3,677,1030.9)" />
<use xlink:href="#f0_13" transform="matrix(14.3,0,0,14.3,686.9,1030.9)" />
<use xlink:href="#f0_v" transform="matrix(14.3,0,0,14.3,693.5,1030.9)" />
<use xlink:href="#f0_i" transform="matrix(14.3,0,0,14.3,712.1,1030.9)" />
<use xlink:href="#f0_z" transform="matrix(14.3,0,0,14.3,723.4,1030.9)" />
<use xlink:href="#f0_v" transform="matrix(14.3,0,0,14.3,732.1,1030.9)" />
<use xlink:href="#f0_18" transform="matrix(14.3,0,0,14.3,743.1,1030.9)" />
<use xlink:href="#f0_p" transform="matrix(14.3,0,0,14.3,762.8,1030.9)" />
<use xlink:href="#f0_13" transform="matrix(14.3,0,0,14.3,777.9,1030.9)" />
<use xlink:href="#f0_y" transform="matrix(14.3,0,0,14.3,784.5,1030.9)" />
<use xlink:href="#f0_y" transform="matrix(14.3,0,0,14.3,795.4,1030.9)" />
<use xlink:href="#f0_16" transform="matrix(14.3,0,0,14.3,807.5,1030.9)" />
<use xlink:href="#f0_z" transform="matrix(14.3,0,0,14.3,813,1030.9)" />
<use xlink:href="#f2_1" transform="matrix(10.9,0,0,10.9,129.2,1127)" />
<use xlink:href="#f2_n" transform="matrix(10.9,0,0,10.9,149.1,1127)" />
<use xlink:href="#f2_s" transform="matrix(10.9,0,0,10.9,159.5,1127)" />
<use xlink:href="#f2_11" transform="matrix(10.9,0,0,10.9,164.5,1127)" />
<use xlink:href="#f2_11" transform="matrix(10.9,0,0,10.9,172.2,1127)" />
<use xlink:href="#f2_o" transform="matrix(10.9,0,0,10.9,179.8,1127)" />
<use xlink:href="#f2_10" transform="matrix(10.9,0,0,10.9,189.1,1127)" />
<use xlink:href="#f2_12" transform="matrix(10.9,0,0,10.9,198,1127)" />
<use xlink:href="#f2_k" transform="matrix(10.9,0,0,10.9,206.8,1127)" />
<use xlink:href="#f2_12" transform="matrix(10.9,0,0,10.9,215.9,1127)" />
<use xlink:href="#f2_s" transform="matrix(10.9,0,0,10.9,225.7,1127)" />
<use xlink:href="#f2_x" transform="matrix(10.9,0,0,10.9,230.8,1127)" />
<use xlink:href="#f2_w" transform="matrix(10.9,0,0,10.9,241.4,1127)" />
<use xlink:href="#f2_11" transform="matrix(10.9,0,0,10.9,257.9,1127)" />
<use xlink:href="#f2_13" transform="matrix(10.9,0,0,10.9,265.5,1127)" />
<use xlink:href="#f2_l" transform="matrix(10.9,0,0,10.9,275.7,1127)" />
<use xlink:href="#f2_v" transform="matrix(10.9,0,0,10.9,285.4,1127)" />
<use xlink:href="#f2_s" transform="matrix(10.9,0,0,10.9,297.8,1127)" />
<use xlink:href="#f2_12" transform="matrix(10.9,0,0,10.9,302.9,1127)" />
<use xlink:href="#f2_12" transform="matrix(10.9,0,0,10.9,312.7,1127)" />
<use xlink:href="#f2_o" transform="matrix(10.9,0,0,10.9,322.6,1127)" />
<use xlink:href="#f2_n" transform="matrix(10.9,0,0,10.9,331.9,1127)" />
<use xlink:href="#f2_s" transform="matrix(10.9,0,0,10.9,348.6,1127)" />
<use xlink:href="#f2_w" transform="matrix(10.9,0,0,10.9,353.6,1127)" />
<use xlink:href="#f2_y" transform="matrix(10.9,0,0,10.9,370.1,1127)" />
<use xlink:href="#f2_k" transform="matrix(10.9,0,0,10.9,378.3,1127)" />
<use xlink:href="#f2_10" transform="matrix(10.9,0,0,10.9,388.6,1127)" />
<use xlink:href="#f2_12" transform="matrix(10.9,0,0,10.9,397.5,1127)" />
<use xlink:href="#f2_s" transform="matrix(10.9,0,0,10.9,407.3,1127)" />
<use xlink:href="#f2_k" transform="matrix(10.9,0,0,10.9,412.4,1127)" />
<use xlink:href="#f2_u" transform="matrix(10.9,0,0,10.9,422.6,1127)" />
<use xlink:href="#f2_p" transform="matrix(10.9,0,0,10.9,437.4,1127)" />
<use xlink:href="#f2_13" transform="matrix(10.9,0,0,10.9,446.4,1127)" />
<use xlink:href="#f2_u" transform="matrix(10.9,0,0,10.9,456.6,1127)" />
<use xlink:href="#f2_p" transform="matrix(10.9,0,0,10.9,465.1,1127)" />
<use xlink:href="#f2_s" transform="matrix(10.9,0,0,10.9,474.1,1127)" />
<use xlink:href="#f2_u" transform="matrix(10.9,0,0,10.9,479.1,1127)" />
<use xlink:href="#f2_u" transform="matrix(10.9,0,0,10.9,487.7,1127)" />
<use xlink:href="#f2_v" transform="matrix(10.9,0,0,10.9,496.2,1127)" />
<use xlink:href="#f2_o" transform="matrix(10.9,0,0,10.9,508.7,1127)" />
<use xlink:href="#f2_w" transform="matrix(10.9,0,0,10.9,518,1127)" />
<use xlink:href="#f2_12" transform="matrix(10.9,0,0,10.9,528.2,1127)" />
<use xlink:href="#f2_x" transform="matrix(10.9,0,0,10.9,544.3,1127)" />
<use xlink:href="#f2_p" transform="matrix(10.9,0,0,10.9,554.9,1127)" />
<use xlink:href="#f2_12" transform="matrix(10.9,0,0,10.9,570.1,1127)" />
<use xlink:href="#f2_r" transform="matrix(10.9,0,0,10.9,580,1127)" />
<use xlink:href="#f2_o" transform="matrix(10.9,0,0,10.9,590.2,1127)" />
<use xlink:href="#f2_10" transform="matrix(10.9,0,0,10.9,605.8,1127)" />
<use xlink:href="#f2_o" transform="matrix(10.9,0,0,10.9,615.8,1127)" />
<use xlink:href="#f2_z" transform="matrix(10.9,0,0,10.9,625.1,1127)" />
<use xlink:href="#f2_13" transform="matrix(10.9,0,0,10.9,635.7,1127)" />
<use xlink:href="#f2_s" transform="matrix(10.9,0,0,10.9,645.9,1127)" />
<use xlink:href="#f2_10" transform="matrix(10.9,0,0,10.9,651,1127)" />
<use xlink:href="#f2_o" transform="matrix(10.9,0,0,10.9,661,1127)" />
<use xlink:href="#f2_v" transform="matrix(10.9,0,0,10.9,670.3,1127)" />
<use xlink:href="#f2_o" transform="matrix(10.9,0,0,10.9,682.8,1127)" />
<use xlink:href="#f2_w" transform="matrix(10.9,0,0,10.9,692.1,1127)" />
<use xlink:href="#f2_12" transform="matrix(10.9,0,0,10.9,702.3,1127)" />
<use xlink:href="#f2_11" transform="matrix(10.9,0,0,10.9,712.1,1127)" />
<use xlink:href="#f2_x" transform="matrix(10.9,0,0,10.9,726.1,1127)" />
<use xlink:href="#f2_p" transform="matrix(10.9,0,0,10.9,736.7,1127)" />
<use xlink:href="#f2_b" transform="matrix(10.9,0,0,10.9,129.9,1154.4)" />
<use xlink:href="#f2_k" transform="matrix(10.9,0,0,10.9,146.4,1154.4)" />
<use xlink:href="#f2_11" transform="matrix(10.9,0,0,10.9,156.6,1154.4)" />
<use xlink:href="#f2_12" transform="matrix(10.9,0,0,10.9,164.3,1154.4)" />
<use xlink:href="#f2_o" transform="matrix(10.9,0,0,10.9,174.1,1154.4)" />
<use xlink:href="#f2_10" transform="matrix(10.9,0,0,10.9,183.4,1154.4)" />
<use xlink:href="#f2_x" transform="matrix(10.9,0,0,10.9,199.7,1154.4)" />
<use xlink:href="#f2_p" transform="matrix(10.9,0,0,10.9,210.3,1154.4)" />
<use xlink:href="#f2_e" transform="matrix(10.9,0,0,10.9,225.5,1154.4)" />
<use xlink:href="#f2_10" transform="matrix(10.9,0,0,10.9,237.9,1154.4)" />
<use xlink:href="#f2_x" transform="matrix(10.9,0,0,10.9,247.6,1154.4)" />
<use xlink:href="#f2_p" transform="matrix(10.9,0,0,10.9,258.2,1154.4)" />
<use xlink:href="#f2_o" transform="matrix(10.9,0,0,10.9,267.1,1154.4)" />
<use xlink:href="#f2_11" transform="matrix(10.9,0,0,10.9,276.4,1154.4)" />
<use xlink:href="#f2_11" transform="matrix(10.9,0,0,10.9,284,1154.4)" />
<use xlink:href="#f2_s" transform="matrix(10.9,0,0,10.9,291.7,1154.4)" />
<use xlink:href="#f2_x" transform="matrix(10.9,0,0,10.9,296.7,1154.4)" />
<use xlink:href="#f2_w" transform="matrix(10.9,0,0,10.9,307.3,1154.4)" />
<use xlink:href="#f2_k" transform="matrix(10.9,0,0,10.9,317.5,1154.4)" />
<use xlink:href="#f2_u" transform="matrix(10.9,0,0,10.9,327.7,1154.4)" />
<use xlink:href="#f2_g" transform="matrix(10.9,0,0,10.9,342.6,1154.4)" />
<use xlink:href="#f2_12" transform="matrix(10.9,0,0,10.9,352.8,1154.4)" />
<use xlink:href="#f2_13" transform="matrix(10.9,0,0,10.9,362.6,1154.4)" />
<use xlink:href="#f2_n" transform="matrix(10.9,0,0,10.9,372.8,1154.4)" />
<use xlink:href="#f2_s" transform="matrix(10.9,0,0,10.9,383.2,1154.4)" />
<use xlink:href="#f2_o" transform="matrix(10.9,0,0,10.9,388.3,1154.4)" />
<use xlink:href="#f2_11" transform="matrix(10.9,0,0,10.9,397.6,1154.4)" />
<use xlink:href="#f2_s" transform="matrix(10.9,0,0,10.9,411.5,1154.4)" />
<use xlink:href="#f2_w" transform="matrix(10.9,0,0,10.9,416.5,1154.4)" />
<use xlink:href="#f2_3" transform="matrix(10.9,0,0,10.9,433.1,1154.4)" />
<use xlink:href="#f2_k" transform="matrix(10.9,0,0,10.9,446.4,1154.4)" />
<use xlink:href="#f2_12" transform="matrix(10.9,0,0,10.9,455.5,1154.4)" />
<use xlink:href="#f2_k" transform="matrix(10.9,0,0,10.9,464.2,1154.4)" />
<use xlink:href="#f2_g" transform="matrix(10.9,0,0,10.9,480.8,1154.4)" />
<use xlink:href="#f2_m" transform="matrix(10.9,0,0,10.9,490.9,1154.4)" />
<use xlink:href="#f2_s" transform="matrix(10.9,0,0,10.9,500.8,1154.4)" />
<use xlink:href="#f2_o" transform="matrix(10.9,0,0,10.9,505.8,1154.4)" />
<use xlink:href="#f2_w" transform="matrix(10.9,0,0,10.9,515.1,1154.4)" />
<use xlink:href="#f2_m" transform="matrix(10.9,0,0,10.9,525.4,1154.4)" />
<use xlink:href="#f2_o" transform="matrix(10.9,0,0,10.9,535.2,1154.4)" />
</g>
<defs>
	<path d="M563.8,44.3c142,0,264.3,85.6,342.2,203.2c96.2,146.7,139,392.6,139,481.3c0,148.1,-76.4,270.4,-242.9,270.4l-149.7,0c-52,0,-61.1,0,-74.9,-58.1L366.7,97.8C363.6,87.1,360.6,74.9,360.6,62.6c0,-16.8,1.5,-18.3,45.8,-18.3ZM139,0C114.6,0,102.4,0,102.4,15.3c0,29,13.7,29,41.2,29c93.2,0,102.4,12.2,116.1,65.7L469,951.8c3.1,9.2,3.1,13.8,3.1,22.9c0,24.5,-42.8,24.5,-81,24.5c-29,0,-39.7,0,-39.7,15.2c0,29.1,13.7,29.1,41.2,29.1l455.3,0c186.4,0,311.7,-145.2,311.7,-371.3C1159.6,323.9,870.8,0,588.2,0Z" 
	id="f0_c"
	transform="scale(0.001,-0.001)" />

	<path d="M337.6,385c48.9,0,302.5,0,302.5,163.5c0,51.9,-35.1,94.7,-96.2,94.7C516.4,643.2,366.7,627.9,305.6,385ZM383.5,-15.2C253.6,-15.2,174.2,94.7,174.2,249c0,268.9,212.3,424.8,371.2,424.8c90.2,0,146.7,-58.1,146.7,-126.9C692.1,354.4,404.9,354.4,351.4,354.4l-55,0c-15.3,-59.5,-26,-102.3,-26,-169.5C270.4,136,284.2,15.3,385,15.3c77.9,0,192.5,42.8,273.5,152.8c12.2,13.7,13.7,15.2,18.3,15.2c9.2,0,21.4,-12.2,21.4,-22.9C698.2,139,572.9,-15.2,383.5,-15.2Z" 
	id="f0_z"
	transform="scale(0.001,-0.001)" />

	<path d="M420.1,15.3c47.4,0,110,42.8,163.5,149.7c30.6,64.2,82.5,255.1,82.5,340.7c0,81,-29,137.5,-84,137.5c-84,0,-177.2,-125.3,-189.5,-172.6L320.8,181.8c-3,-12.2,-4.5,-16.8,-4.5,-21.4c0,-1.5,9.1,-145.1,103.8,-145.1ZM39.7,-296.3c-7.6,0,-18.3,3.1,-18.3,15.3c0,29,15.3,29,32.1,29c58,0,68.7,9.2,80.9,56.5l172.7,692c6.1,22.9,12.2,55,12.2,84.1c0,18.3,0,62.6,-39.7,62.6c-52,0,-81,-90.1,-103.9,-180.3C166.5,427.8,165,426.3,148.2,426.3c-13.8,0,-21.4,3,-21.4,15.2c0,3.1,19.9,94.8,48.9,151.3c32.1,65.7,71.8,81,106.9,81c52,0,107,-33.7,120.7,-108.5C411,576,490.4,673.8,586.7,673.8c105.4,0,175.7,-99.4,175.7,-232.3C762.4,220,586.7,-15.2,420.1,-15.2c-71.8,0,-110,53.4,-125.2,91.6c-71.8,-281,-73.4,-291.7,-73.4,-305.5c0,-22.9,39.8,-22.9,73.4,-22.9c27.5,0,36.6,0,36.6,-16.8c0,-27.5,-18.3,-27.5,-71.8,-27.5c-48.9,3.1,-94.7,3.1,-135.9,3.1c-44.4,-3.1,41.2,-3.1,-84.1,-3.1Z" 
	id="f0_1a"
	transform="scale(0.001,-0.001)" />

	<path d="M343.8,15.3c88.6,0,180.2,129.8,189.4,169.6L605,475.1c0,3.1,4.6,19.9,4.6,21.4c0,10.7,-10.7,146.7,-102.4,146.7c-65.7,0,-134.4,-77.9,-174.1,-172.6C308.6,409.4,259.7,229.2,259.7,152.8c0,-18.4,3.1,-137.5,84.1,-137.5Zm-3.1,-30.5C236.8,-15.2,165,81,165,216.9C165,440,340.7,673.8,507.2,673.8c41.3,0,93.2,-18.4,122.2,-90.2l1.6,1.5c0,0,10.7,59.6,59.6,59.6c27.5,0,39.7,-19.8,39.7,-36.6c0,-3.1,0,-7.7,-4.6,-24.5L618.8,157.4c-6.2,-23,-12.3,-58.1,-12.3,-81c0,-29,7.7,-61.1,41.3,-61.1c42.8,0,71.8,53.5,102.3,180.3c9.2,35.1,10.7,36.6,29.1,36.6c6.1,0,19.8,0,19.8,-13.7c0,-4.6,-18.3,-91.7,-44.3,-145.2C734.9,29,704.3,-15.2,644.7,-15.2C609.6,-15.2,540.8,0,524,93.2C466,24.4,403.3,-15.2,340.7,-15.2Z" 
	id="f0_v"
	transform="scale(0.001,-0.001)" />

	<path d="M229.2,-15.2c-27.5,0,-39.8,18.3,-39.8,36.6c0,6.1,0,7.6,6.2,29L307.1,496.5c6.1,21.4,12.2,55,12.2,84.1c0,18.3,0,62.6,-39.7,62.6c-52,0,-81,-90.1,-103.9,-180.3C166.5,427.8,165,426.3,148.2,426.3c-13.8,0,-21.4,3,-21.4,15.2c0,3.1,19.9,94.8,48.9,151.3c32.1,65.7,71.8,81,106.9,81c41.3,0,107,-23,120.7,-113.1c56.6,79.4,114.6,113.1,184.9,113.1c42.8,0,146.7,-10.7,146.7,-88.7c0,-55,-41.3,-74.8,-68.8,-74.8c-22.9,0,-47.3,12.2,-47.3,44.3c0,38.2,29,61.1,51.9,67.2c-33.6,21.4,-76.4,21.4,-84,21.4C458.3,643.2,389.6,455.3,385,436.9L285.7,38.2C279.6,13.8,264.3,-15.2,229.2,-15.2Z" 
	id="f0_1b"
	transform="scale(0.001,-0.001)" />

	<path d="M305.6,-15.2c-84.1,0,-125.3,64.1,-125.3,134.4c0,6.1,0,24.4,7.6,55l110,440l-123.7,0c-24.5,0,-36.7,0,-36.7,15.2c0,29.1,13.8,29.1,41.3,29.1l129.8,0l59.6,239.8c6.1,23,19.9,56.6,58.1,56.6c29,0,39.7,-23,39.7,-36.7c0,-3.1,-1.6,-16.8,-3.1,-19.9L401.8,658.5l120.7,0c26,0,36.7,0,36.7,-16.8c0,-27.5,-15.3,-27.5,-41.3,-27.5l-126.8,0L276.5,157.4c-6.1,-23,-12.2,-58.1,-12.2,-81c0,-50.4,21.4,-61.1,44.3,-61.1c99.3,0,158.9,149.7,177.2,197.1c7.7,16.8,9.2,19.8,26,19.8c6.1,0,19.9,0,19.9,-13.7c0,-7.7,-76.4,-233.7,-226.1,-233.7Z" 
	id="f0_1d"
	transform="scale(0.001,-0.001)" />

	<path d="M229.2,-15.2c-27.5,0,-39.8,18.3,-39.8,36.6c0,6.1,0,7.6,6.2,29L307.1,496.5c6.1,21.4,12.2,55,12.2,84.1c0,18.3,0,62.6,-39.7,62.6c-52,0,-81,-90.1,-103.9,-180.3C166.5,427.8,165,426.3,148.2,426.3c-13.8,0,-21.4,3,-21.4,15.2c0,3.1,19.9,94.8,48.9,151.3c32.1,65.7,71.8,81,106.9,81c70.3,0,117.7,-55,122.3,-123.8c55,76.4,129.8,123.8,218.4,123.8c73.4,0,145.2,-35.2,154.3,-139.1c55,84.1,131.4,139.1,226.2,139.1c117.6,0,152.7,-74.9,152.7,-155.9c0,-88.6,-51.9,-230.7,-91.6,-342.2C1052.6,145.1,1035.8,97.8,1035.8,61.1c0,-35.1,12.3,-45.8,35.2,-45.8c85.5,0,126.8,137.5,140.5,189.4c6.1,22.9,7.7,27.5,26,27.5c6.1,0,19.9,0,19.9,-13.7c0,-6.1,-48.9,-233.7,-191,-233.7c-62.6,0,-110,45.8,-110,119.1c0,32.1,6.1,45.8,19.9,84c25.9,74.9,93.1,258.2,93.1,352.9c0,26,0,102.4,-70.2,102.4C852.5,643.2,770,449.2,760.8,414L667.6,38.2c-6.1,-26,-21.3,-53.4,-56.5,-53.4c-27.5,0,-39.7,19.8,-39.7,36.6c0,3,0,7.6,4.6,24.4L676.8,449.2c6.1,27.5,12.2,61.1,12.2,91.6c0,24.5,0,102.4,-70.2,102.4C476.7,643.2,392.6,464.4,377.4,407.9c-7.7,-33.6,-16.8,-65.7,-24.5,-99.3C343.8,270.4,285.7,41.3,282.6,26C271.9,-4.5,247.5,-15.2,229.2,-15.2Z" 
	id="f0_17"
	transform="scale(0.001,-0.001)" />

	<path d="M229.2,-15.2c-27.5,0,-39.8,18.3,-39.8,36.6c0,6.1,0,7.6,6.2,29L307.1,496.5c6.1,21.4,12.2,55,12.2,84.1c0,18.3,0,62.6,-39.7,62.6c-52,0,-81,-90.1,-103.9,-180.3C166.5,427.8,165,426.3,148.2,426.3c-13.8,0,-21.4,3,-21.4,15.2c0,3.1,19.9,94.8,48.9,151.3c32.1,65.7,71.8,81,106.9,81c70.3,0,117.7,-55,122.3,-123.8c50.4,68.8,122.2,123.8,216.9,123.8c117.6,0,152.8,-74.9,152.8,-155.9c0,-88.6,-52,-230.7,-91.7,-342.2c-12.2,-30.6,-29,-77.9,-29,-114.6C653.9,26,666.1,15.3,689,15.3c85.6,0,126.8,137.5,140.6,189.4c6.1,22.9,7.6,27.5,26,27.5c6.1,0,19.8,0,19.8,-13.7c0,-6.1,-48.9,-233.7,-191,-233.7c-62.6,0,-110,45.8,-110,119.1c0,32.1,6.2,45.8,19.9,84c26,74.9,93.2,258.2,93.2,352.9c0,26,0,102.4,-70.3,102.4C470.6,643.2,388.1,447.6,378.9,414L285.7,38.2c-6.1,-26,-21.4,-53.4,-56.5,-53.4Z" 
	id="f0_18"
	transform="scale(0.001,-0.001)" />

	<path d="M381.9,15.3c53.5,0,131.4,38.2,194.1,146.6c48.9,84.1,85.5,256.7,85.5,322.4c0,87.1,-39.7,158.9,-117.6,158.9c-56.5,0,-134.5,-45.8,-191,-143.6C302.5,412.5,265.8,244.4,265.8,174.2c0,-103.9,52,-158.9,116.1,-158.9Zm-1.5,-30.5c-110,0,-212.3,82.4,-212.3,247.4c0,226.1,192.5,441.6,378.8,441.6c114.6,0,212.4,-88.7,212.4,-247.5C759.3,203.2,566.8,-15.2,380.4,-15.2Z" 
	id="f0_19"
	transform="scale(0.001,-0.001)" />

	<path d="M77.9,-311.6c-62.6,0,-119.1,35.2,-119.1,94.8c0,50.4,35.2,77.9,70.2,77.9c26,0,47.4,-15.3,47.4,-44.3c0,-12.3,-6.1,-58.1,-62.6,-68.8c19.8,-27.5,58,-29,64.1,-29c55,0,73.4,71.8,90.2,136c24.4,93.2,27.5,106.9,45.8,198.5L322.4,614.2l-90.2,0c-24.4,0,-36.6,0,-36.6,15.2c0,29.1,13.7,29.1,39.7,29.1l96.2,0L363.6,825c10.7,51.9,48.9,250.6,195.6,250.6c62.6,0,122.2,-35.2,122.2,-94.8c0,-50.4,-35.1,-77.9,-70.3,-77.9c-26,0,-47.3,15.3,-47.3,44.3c0,16.8,9.1,58.1,61.1,68.8c-23,29,-61.1,29,-65.7,29c-56.6,0,-73.4,-76.4,-87.1,-143.6C446.1,779.2,436.9,724.2,423.2,658.5l116.1,0c26,0,36.7,0,36.7,-16.8c0,-27.5,-15.3,-27.5,-41.3,-27.5l-119.1,0L320.8,126.8C273.5,-119.1,201.7,-311.6,77.9,-311.6Z" 
	id="f0_10"
	transform="scale(0.001,-0.001)" />

	<path d="M588.2,-32c-194,0,-362.1,143.5,-362.1,403.3c0,362,323.9,704.3,632.5,704.3c99.3,0,177.2,-45.9,226.1,-136l99.3,122.2c10.7,13.8,16.8,13.8,19.9,13.8c3,0,13.7,0,13.7,-13.8c0,-3,-1.5,-15.3,-3,-19.9L1121.4,669.2c-6.1,-24.5,-9.2,-26,-24.5,-26c-7.6,0,-19.8,0,-19.8,13.7l0,13.8c4.6,22.9,7.6,58.1,7.6,81c0,67.2,-18.3,279.6,-215.4,279.6c-140.5,0,-279.6,-99.4,-357.5,-204.8C363.6,621.8,346.8,360.6,346.8,317.8C346.8,110,472.1,12.2,611.1,12.2c142.1,0,320.8,119.2,389.6,352.9c4.6,13.8,10.7,15.3,22.9,15.3c9.2,0,21.4,0,21.4,-13.7c0,-3.1,-24.4,-137.5,-157.4,-268.9C875.4,87.1,754.7,-32,588.2,-32Z" 
	id="f0_b"
	transform="scale(0.001,-0.001)" />

	<path d="M398.8,-15.2c-74.9,0,-165,36.6,-165,174.1c0,59.6,19.8,137.5,68.7,273.5c32.1,88.6,47.4,128.3,47.4,166.5c0,36.7,-16.8,44.3,-35.2,44.3c-88.6,0,-128.3,-145.1,-140.5,-191c-6.1,-21.4,-7.7,-25.9,-26,-25.9c-7.6,0,-21.4,0,-21.4,13.7c0,9.2,52,233.8,191,233.8c74.8,0,111.5,-58.1,111.5,-119.2c0,-30.6,-7.6,-50.4,-19.9,-85.6C374.3,371.3,320.8,226.1,320.8,134.4C320.8,84,334.6,15.3,403.3,15.3c70.3,0,126.8,53.5,157.4,117.6c3.1,7.7,3.1,22.9,3.1,24.5l110,441.5c4.5,21.4,16.8,59.6,59.5,59.6c19.9,0,38.2,-13.8,38.2,-36.7c0,-6.1,0,-9.2,-6.1,-30.5L656.9,157.4c-6.1,-23,-12.2,-58.1,-12.2,-81c0,-29,7.7,-61.1,41.3,-61.1c42.8,0,71.8,53.5,102.3,180.3c9.2,35.1,10.7,36.6,29.1,36.6c6.1,0,19.8,0,19.8,-13.7c0,-4.6,-18.3,-91.7,-44.3,-145.2C773.1,29,742.5,-15.2,682.9,-15.2c-53.5,0,-100.8,32,-117.6,91.6C516.4,15.3,462.9,-15.2,398.8,-15.2Z" 
	id="f0_1e"
	transform="scale(0.001,-0.001)" />

	<path d="M125.3,-32c-3.1,0,-15.3,0,-15.3,13.8c0,4.5,3.1,16.8,4.6,21.3L194,320.8c6.1,24.5,9.2,26,26,26c7.6,0,19.9,0,19.9,-13.7l-1.6,-12.3c-9.1,-36.6,-12.2,-77.9,-12.2,-93.2C226.1,71.8,334.6,12.2,452.2,12.2c139.1,0,258.2,157.4,258.2,296.4c0,68.8,-27.5,128.3,-91.6,149.7c-12.3,3.1,-74.9,21.4,-93.2,27.5c-105.5,30.6,-133,38.2,-165,73.4c-55,59.6,-58.1,122.2,-58.1,155.8c0,183.3,168.1,360.6,346.8,360.6c27.5,0,140.6,0,197.1,-108.5l68.7,91.7c12.3,16.8,16.8,16.8,21.4,16.8c3.1,0,15.3,0,15.3,-13.8c0,-4.6,-3,-16.8,-4.6,-21.4L867.8,722.6c-6.1,-24.4,-9.2,-25.9,-26,-25.9c-10.7,0,-21.4,0,-21.4,15.2c0,1.6,0,4.6,3.1,13.8c6.1,44.3,6.1,70.3,6.1,90.1c0,47.4,0,218.5,-183.3,218.5C517.9,1034.3,397.2,901.4,397.2,770C397.2,655.4,469,634,517.9,620.3c29,-9.2,136,-41.3,148.2,-44.3C742.5,551.5,803.6,482.8,803.6,362.1C803.6,163.5,632.5,-32,447.6,-32C326.9,-32,258.2,16.8,216.9,79.4L148.2,-12.1C132.9,-30.5,131.4,-32,125.3,-32Z" 
	id="f0_q"
	transform="scale(0.001,-0.001)" />

	<path d="M383.5,-15.2c-122.2,0,-215.4,91.6,-215.4,247.4c0,226.1,192.5,441.6,378.8,441.6c93.2,0,157.4,-56.6,157.4,-128.4c0,-79.4,-56.5,-88.6,-71.8,-88.6c-13.7,0,-47.4,7.6,-47.4,45.8c0,36.7,33.7,65.7,71.8,67.3c-21.3,73.3,-102.3,73.3,-111.5,73.3c-65.7,0,-140.5,-51.9,-192.5,-143.6C302.5,412.5,265.8,244.4,265.8,174.2C265.8,84,307.1,15.3,385,15.3c77.9,0,192.5,42.8,273.5,152.8c12.2,13.7,13.7,15.2,18.3,15.2c9.2,0,21.4,-12.2,21.4,-22.9C698.2,139,572.9,-15.2,383.5,-15.2Z" 
	id="f0_x"
	transform="scale(0.001,-0.001)" />

	<path d="M304,-15.2c-50.4,0,-110,32,-110,120.6c0,13.8,0,33.6,12.3,67.2L328.5,504.2c10.7,27.5,19.8,53.4,19.8,93.2c0,16.8,0,45.8,-33.6,45.8c-88.6,0,-128.3,-142.1,-140.5,-191c-6.1,-21.4,-7.7,-25.9,-26,-25.9c-7.6,0,-21.4,0,-21.4,13.7c0,7.6,50.4,233.8,191,233.8c59.6,0,110,-41.3,110,-119.2c0,-27.5,-3.1,-39.7,-16.8,-77.9L320.8,229.2C293.3,154.3,271.9,99.3,271.9,59.6c0,-36.7,18.4,-44.3,35.2,-44.3c87.1,0,126.8,137.5,140.5,189.4c6.2,22.9,7.7,27.5,26,27.5c6.1,0,19.9,0,19.9,-13.7C493.5,212.4,444.6,-15.2,304,-15.2ZM420.1,884.6c-22.9,0,-47.3,12.2,-47.3,45.8c0,42.8,39.7,67.2,67.2,67.2c26,0,47.4,-16.8,47.4,-45.8c0,-39.7,-36.7,-67.2,-67.3,-67.2Z" 
	id="f0_13"
	transform="scale(0.001,-0.001)" />

	<path d="M317.8,0c-12.2,0,-26,0,-26,15.3c0,29,13.8,29,41.3,29l18.3,0c129.9,0,142.1,15.3,155.8,71.8L713.5,942.6c1.5,3.1,6.1,23,6.1,32.1c0,10.7,0,16.8,-35.2,16.8l-51.9,0C424.7,991.5,391.1,954.9,314.7,727.2C302.5,696.7,301,695.1,285.7,695.1c-4.6,0,-19.9,0,-19.9,15.3c0,4.6,3.1,15.3,4.6,19.9l93.2,281.1c7.7,24.4,10.7,24.4,42.8,24.4l766.9,0c26,0,36.7,0,36.7,-16.8c0,-1.5,0,-3,-3.1,-18.3L1161.1,724.2c-4.6,-24.5,-6.1,-29.1,-24.4,-29.1c-6.1,0,-21.4,0,-21.4,16.8c0,3.1,3,13.8,3,16.9c4.6,24.4,16.8,102.3,16.8,148.1c0,105.5,-62.6,114.6,-195.5,114.6c-27.5,0,-71.8,0,-82.5,-3C844.9,985.4,835.7,977.8,825,935L617.2,103.9c-3,-15.3,-3,-18.3,-3,-26c0,-24.4,15.2,-26,44.3,-29c24.4,-3.1,48.9,-4.6,74.8,-4.6l18.4,0c25.9,0,36.6,0,36.6,-16.8C788.3,0,771.5,0,684.4,0C608.1,3.1,534.7,3.1,462.9,3.1C388.1,0,534.7,0,317.8,0Z" 
	id="f0_r"
	transform="scale(0.001,-0.001)" />

	<path d="M152.8,-15.2c-26,0,-39.7,18.3,-39.7,38.1c0,4.6,1.5,7.7,6.1,27.5l223,892.2c1.6,6.2,4.6,21.4,4.6,27.5c0,15.3,0,29.1,-76.4,29.1c-21.4,0,-33.6,0,-33.6,15.2c0,27.5,13.8,29.1,35.1,30.6l152.8,13.8c4.8,0.2,9,0.4,12.7,0.4c15.5,0,22.5,-3.1,22.5,-14.2c0,-4.6,-1.6,-10.7,-4.6,-19.9L340.7,565.3c42.8,51.9,106.9,108.5,204.7,108.5c117.7,0,152.8,-74.9,152.8,-155.9c0,-88.6,-51.9,-230.7,-91.7,-342.2c-12.2,-30.6,-29,-77.9,-29,-114.6c0,-35.1,12.2,-45.8,35.1,-45.8c85.6,0,126.8,137.5,140.6,189.4c6.1,22.9,7.6,27.5,26,27.5c6.1,0,19.8,0,19.8,-13.7C799,212.4,750.1,-15.2,608.1,-15.2c-62.7,0,-110,45.8,-110,119.1c0,32.1,6.1,45.8,19.8,84c26,74.9,93.2,258.2,93.2,352.9c0,26,0,102.4,-70.3,102.4C394.2,643.2,311.7,449.2,302.5,414L207.8,35.1c-3.1,-10.7,-12.2,-50.3,-55,-50.3Z" 
	id="f0_12"
	transform="scale(0.001,-0.001)" />

	<path d="M566.8,-32C429.3,-32,305.6,68.8,305.6,249c0,22.9,0,52,12.2,100.9L467.5,951.8c3.1,9.2,3.1,13.8,3.1,22.9c0,24.5,-42.8,24.5,-81,24.5c-29,0,-39.7,0,-39.7,15.2c0,29.1,16.8,29.1,84,29.1c58,-3.1,114.6,-3.1,169.6,-3.1c56.5,3.1,-55,3.1,110,3.1c7.6,0,21.4,0,21.4,-16.8c0,-27.5,-13.8,-27.5,-39.8,-27.5C600.4,999.2,591.3,986.9,577.5,935L424.7,322.4C415.6,288.8,409.4,239.9,409.4,204.7C409.4,73.3,485.8,12.2,572.9,12.2c154.3,0,307.1,158.9,351.4,334.6l136,547c3,9.1,6.1,27.5,6.1,41.2c0,45.8,-30.6,62.6,-87.1,64.2c-10.7,0,-22.9,1.5,-22.9,15.2c0,29.1,16.8,29.1,29,29.1c42.8,-3.1,132.9,-3.1,175.7,-3.1c47.4,3.1,-42.8,3.1,88.6,3.1c6.1,0,19.9,0,19.9,-16.8c0,-26,-16.8,-27.5,-22.9,-27.5C1190.1,996.1,1126,986.9,1101.5,890.7L964,337.6C919.7,158.9,751.7,-32,566.8,-32Z" 
	id="f0_s"
	transform="scale(0.001,-0.001)" />

	<path d="M415.6,-15.2C351.4,-15.2,235.3,9.2,235.3,165c0,42.8,6.1,97.8,67.2,267.4c32.1,88.6,47.4,128.3,47.4,166.5c0,36.7,-16.8,44.3,-35.2,44.3c-88.6,0,-128.3,-145.1,-140.5,-191c-6.1,-21.4,-7.7,-25.9,-26,-25.9c-7.6,0,-21.4,0,-21.4,13.7c0,9.2,52,233.8,191,233.8c74.8,0,111.5,-58.1,111.5,-119.2c0,-30.6,-7.6,-50.4,-19.9,-87.1c-35.1,-93.2,-87,-235.3,-87,-323.9c0,-61.1,21.4,-128.3,99.3,-128.3c178.7,0,249,395.7,249,435.4c0,24.4,-4.6,81,-39.7,122.2c-13.8,15.3,-16.8,22.9,-16.8,36.7c0,35.1,38.2,64.2,67.2,64.2c27.5,0,58,-19.9,58,-97.8c0,-39.7,-70.2,-591.2,-323.8,-591.2Z" 
	id="f0_1f"
	transform="scale(0.001,-0.001)" />

	<path d="M305.6,-15.2c-105.5,0,-192.5,53.4,-192.5,146.6c0,84,59.5,90.1,71.8,90.1c19.8,0,47.3,-12.2,47.3,-44.3c0,-3,0,-65.7,-73.3,-68.7C175.7,36.7,252.1,15.3,307.1,15.3c168,0,204.7,134.4,204.7,175.7c0,84,-77.9,102.3,-116.1,110C330,316.3,301,323.9,275,348.3c-13.7,15.3,-42.8,47.4,-42.8,103.9c0,65.7,53.5,221.6,236.8,221.6c97.8,0,158.9,-58.1,158.9,-128.4c0,-51.9,-26,-79.4,-61.1,-79.4c-30.5,0,-41.2,21.4,-41.2,38.2c0,6.1,3,51.9,58,58c-10.7,48.9,-55,81,-117.6,81C342.2,643.2,308.6,539.3,308.6,499.6c0,-68.8,55,-81,96.3,-90.2C478.2,392.6,586.7,368.2,586.7,236.8c0,-82.5,-67.3,-252,-281.1,-252Z" 
	id="f0_1c"
	transform="scale(0.001,-0.001)" />

	<path d="M288.8,-311.6c-78,0,-137.5,50.4,-137.5,128.4c0,88.6,61.1,91.6,71.8,91.6c30.5,0,47.3,-21.4,47.3,-44.3c0,-3,-1.5,-65.7,-74.8,-68.7C206.3,-261.2,249,-281,290.3,-281c53.5,0,108.5,32.1,157.3,100.8c53.5,77.9,71.8,155.9,87.1,223c-24.4,-24.5,-70.3,-58,-135.9,-58c-74.9,0,-165,36.6,-165,174.1c0,59.6,19.8,137.5,68.7,273.5c32.1,88.6,47.4,128.3,47.4,166.5c0,36.7,-16.8,44.3,-35.2,44.3c-88.6,0,-128.3,-145.1,-140.5,-191c-6.1,-21.4,-7.7,-25.9,-26,-25.9c-7.6,0,-21.4,0,-21.4,13.7c0,9.2,52,233.8,191,233.8c74.8,0,111.5,-58.1,111.5,-119.2c0,-30.6,-7.6,-50.4,-19.9,-85.6C374.3,371.3,320.8,226.1,320.8,134.4C320.8,84,334.6,15.3,403.3,15.3c85.6,0,146.7,85.5,158.9,132.9L673.8,598.9c6.1,21.4,16.8,59.6,59.5,59.6c19.9,0,38.2,-13.8,38.2,-36.7c0,-6.1,0,-9.2,-6.1,-30.5L617.2,-4.5C580.6,-149.6,447.6,-311.6,288.8,-311.6Z" 
	id="f0_1i"
	transform="scale(0.001,-0.001)" />

	<path d="M782.2,401.8L747.1,910.6L456.8,401.8ZM103.9,0C100.8,0,85.6,0,85.6,15.3c0,26,12.2,27.5,29,29C191,51.9,233.8,87.1,281.1,171.1l508.8,892.2c10.7,18.4,15.2,27.5,36.6,27.5c21.4,0,22.9,-4.5,24.5,-36.6L918.2,94.7C921.3,55,928.9,44.3,1003.8,44.3c19.8,0,30.5,0,30.5,-16.8C1034.3,0,1016,0,957.9,0C906,3.1,855.6,3.1,803.6,3.1C748.6,0,855.6,0,698.2,0c-6.1,0,-21.4,0,-21.4,15.3c0,29,13.8,29,35.1,29c94.8,1.5,91.7,42.8,90.2,67.2l-16.8,246l-354.5,0L319.3,160.4c-13.7,-24.4,-26,-44.3,-26,-65.7c0,-29,21.4,-47.3,58.1,-50.4c9.2,0,21.4,-1.5,21.4,-15.3C372.8,0,356,0,305.6,0C261.3,3.1,220,3.1,181.8,3.1C140.6,0,220,0,103.9,0Z" 
	id="f0_9"
	transform="scale(0.001,-0.001)" />

	<path d="M152.8,-15.2c-26,0,-39.7,18.3,-39.7,38.1c0,4.6,1.5,7.7,6.1,27.5l223,892.2c1.6,6.2,4.6,21.4,4.6,27.5c0,15.3,0,29.1,-76.4,29.1c-21.4,0,-33.6,0,-33.6,15.2c0,27.5,13.8,29.1,35.1,30.6l152.8,13.8c4.8,0.2,9,0.4,12.7,0.4c15.5,0,22.5,-3.1,22.5,-14.2c0,-4.6,-1.6,-10.7,-4.6,-19.9L297.9,395.7c27.5,12.2,58.1,24.4,143.6,126.8c59.6,70.3,126.8,151.3,217,151.3c67.2,0,96.2,-45.9,96.2,-85.6c0,-48.9,-35.1,-77.9,-70.3,-77.9c-22.9,0,-47.3,12.2,-47.3,44.3c0,22.9,12.2,61.1,64.2,68.7c-1.6,3.1,-15.3,19.9,-45.9,19.9C585.1,643.2,524,579,469,511.8C407.9,440,377.4,404.9,333.1,380.4C403.3,368.2,533.2,336.1,533.2,221.5c0,-16.8,0,-22.9,-7.6,-51.9C511.8,116.1,511.8,113.1,511.8,79.4c0,-47.3,18.3,-64.1,45.8,-64.1c65.7,0,94.8,93.2,116.2,180.3c9.1,35.1,10.6,36.6,29,36.6c6.1,0,19.8,0,19.8,-13.7c0,-7.7,-19.8,-93.2,-48.8,-145.2C647.8,24.4,611.1,-15.2,554.6,-15.2c-56.5,0,-123.8,36.6,-123.8,145.1c0,21.4,0,29,7.7,59.5c3,15.3,3,23,3,30.6c0,102.4,-117.6,126.8,-154.3,131.4L207.8,35.1c-3.1,-10.7,-12.2,-50.3,-55,-50.3Z" 
	id="f0_15"
	transform="scale(0.001,-0.001)" />

	<path d="M264.3,-15.2C194,-15.2,142.1,38.2,142.1,119.2c0,22.9,4.6,39.7,7.6,53.4l192.5,770c1.6,6.2,4.6,21.4,4.6,27.5c0,15.3,0,29.1,-76.4,29.1c-21.4,0,-33.6,0,-33.6,15.2c0,27.5,13.8,29.1,35.1,30.6l152.8,13.8c4.8,0.2,9,0.4,12.7,0.4c15.5,0,22.5,-3.1,22.5,-14.2c0,-4.6,-3.1,-10.7,-4.6,-19.9L238.3,158.9C233.8,139,226.1,96.3,226.1,76.4c0,-29,7.7,-61.1,41.3,-61.1c51.9,0,77.9,91.6,97.7,166.5c4.6,13.8,10.7,36.7,12.3,41.3c3,9.1,13.7,9.1,19.8,9.1c7.7,0,19.9,0,19.9,-15.3c0,-4.5,-21.4,-103.8,-48.9,-154.3C346.8,19.9,316.3,-15.2,264.3,-15.2Z" 
	id="f0_16"
	transform="scale(0.001,-0.001)" />

	<path d="M343.8,15.3c88.6,0,180.2,131.4,190.9,172.6L605,475.1l4.6,21.4c0,4.6,-9.2,146.7,-102.4,146.7c-65.7,0,-134.4,-77.9,-174.1,-172.6C308.6,409.4,259.7,229.2,259.7,152.8c0,-18.4,3.1,-137.5,84.1,-137.5Zm-3.1,-30.5C236.8,-15.2,165,81,165,216.9C165,440,340.7,673.8,507.2,673.8c65.7,0,103.9,-44.4,125.3,-93.2l90.1,363.6c1.6,6.1,4.6,18.3,4.6,25.9c0,15.3,0,29.1,-76.4,29.1c-21.4,0,-33.6,0,-33.6,15.2c0,27.5,13.8,29.1,35.2,30.6l152.7,13.8c4.8,0.2,9,0.4,12.7,0.4c15.5,0,22.5,-3.1,22.5,-14.2c0,-4.6,-3.1,-10.7,-4.6,-19.9L618.8,158.9C614.2,139,606.5,96.3,606.5,76.4c0,-29,7.7,-61.1,41.3,-61.1c42.8,0,71.8,53.5,102.3,180.3c9.2,35.1,10.7,36.6,29.1,36.6c6.1,0,19.8,0,19.8,-13.7c0,-4.6,-18.3,-91.7,-44.3,-145.2C734.9,29,704.3,-15.2,644.7,-15.2C609.6,-15.2,540.8,0,524,93.2C466,24.4,403.3,-15.2,340.7,-15.2Z" 
	id="f0_y"
	transform="scale(0.001,-0.001)" />

	<path d="M119.2,0c-6.1,0,-18.4,1.5,-18.4,15.3c0,27.5,15.3,29,23,29c45.8,3.1,119.1,6.1,145.1,108.5L478.2,990c-33.6,9.2,-74.9,9.2,-88.6,9.2c-29,0,-39.7,0,-39.7,15.2c0,29.1,13.7,29.1,41.2,29.1l174.2,0c32.1,0,33.6,-1.6,41.2,-24.5L884.6,209.3l171.1,684.5c1.5,9.1,6.1,27.5,6.1,41.2c0,45.8,-30.5,62.6,-87.1,64.2c-10.7,0,-22.9,1.5,-22.9,15.2c0,29.1,16.8,29.1,71.8,29.1c47.4,-3.1,93.2,-3.1,137.5,-3.1c45.8,3.1,-44.3,3.1,88.6,3.1c6.1,0,19.9,0,19.9,-16.8c0,-26,-16.8,-27.5,-22.9,-27.5C1190.1,996.1,1126,985.4,1101.5,890.7L886.1,27.5C880,1.5,875.4,0,858.6,0c-18.3,0,-19.8,4.6,-26,22.9L514.9,950.3L313.2,145.1c0,-1.5,-6.1,-22.9,-6.1,-36.6c0,-52,42.8,-62.7,88.6,-64.2c9.2,0,21.4,-1.5,21.4,-15.3C417.1,0,400.3,0,346.8,0C299.4,3.1,253.6,3.1,209.3,3.1C161.9,0,253.6,0,119.2,0Z" 
	id="f0_m"
	transform="scale(0.001,-0.001)" />

	<path d="M426.3,-15.2c-78,0,-191,33.5,-191,183.3c0,55,16.8,126.8,67.2,264.3c32.1,88.6,47.4,128.3,47.4,166.5c0,36.7,-16.8,44.3,-35.2,44.3c-88.6,0,-128.3,-145.1,-140.5,-191c-6.1,-21.4,-7.7,-25.9,-26,-25.9c-7.6,0,-21.4,0,-21.4,13.7c0,9.2,52,233.8,191,233.8c74.8,0,111.5,-58.1,111.5,-119.2c0,-30.6,-6.1,-45.8,-29,-108.5C349.9,305.6,323.9,215.4,323.9,148.2C323.9,96.3,340.7,15.3,429.3,15.3c82.5,0,129.9,128.3,129.9,149.7c0,12.2,1.5,48.9,12.2,94.7l84,339.2c6.1,21.4,16.8,59.6,59.6,59.6c19.9,0,38.2,-13.8,38.2,-36.7c0,-7.6,-16.8,-74.9,-26,-113C715,464.4,687.5,352.9,676.8,307.1C656.9,227.6,646.3,186.4,646.3,143.6c0,-61.1,21.3,-128.3,99.3,-128.3c77.9,0,126.8,73.3,158.8,155.8c23,56.5,71.9,220,71.9,279.6c0,24.4,-4.6,81,-39.8,122.2c-13.7,15.3,-16.8,22.9,-16.8,36.7c0,35.1,38.2,64.2,67.2,64.2c27.5,0,58.1,-19.9,58.1,-97.8c0,-91.7,-64.2,-316.3,-87.1,-378.9C916.7,87.1,857.1,-15.2,741,-15.2C699.7,-15.2,606.5,-6,572.9,85.6C517.9,-6,466,-15.2,426.3,-15.2Z" 
	id="f0_1g"
	transform="scale(0.001,-0.001)" />

	<path d="M152.8,0C128.3,0,119.2,0,119.2,12.2c0,1.6,0,18.4,16.8,39.7L922.8,999.2l-215.4,0C482.8,999.2,411,887.6,362.1,733.3c-9.2,-27.5,-9.2,-30.5,-27.5,-30.5c-4.6,0,-19.9,0,-19.9,15.3c0,3,1.6,9.1,4.6,19.8l84,279.6c7.7,24.4,9.2,26,41.3,26l579,0c24.5,0,33.6,0,33.6,-12.2c0,-15.3,-6.1,-23,-15.3,-33.7L255.1,47.4l227.7,0c249,0,311.6,126.8,366.6,304c6.2,15.3,13.8,44.3,18.4,47.4c4.6,4.5,9.1,4.5,16.8,4.5c4.6,0,19.8,0,19.8,-15.2c0,-1.6,0,-4.6,-4.5,-19.9L794.4,27.5C785.3,1.5,783.8,0,753.2,0Z" 
	id="f0_u"
	transform="scale(0.001,-0.001)" />

	<path d="M681.4,400.3l-158.9,388L369.7,400.3ZM36.7,-4.5l0,56.4l45.8,4.6c33.6,3.1,59.6,32.1,85.6,91.7L444.6,817.4c7.6,16.8,22.9,56.5,44.3,116.1c6.1,16.8,21.4,58,42.8,114.6l108.4,0L1035.8,123.8c19.9,-44.4,41.3,-61.2,84.1,-67.3l36.6,-4.6l0,-56.4C931.9,0,931.9,0,915.1,0C896.8,0,896.8,0,682.9,-4.5l0,56.4l81,4.6c16.8,1.6,30.5,18.4,30.5,41.3c0,12.2,-3,27.5,-9.1,42.8L716.5,314.7l-383.4,0L268.9,143.6c-4.6,-12.2,-7.6,-27.5,-7.6,-38.2c0,-26,18.3,-47.3,44.3,-48.9l76.3,-4.6l0,-56.4c-41.2,1.5,-73.3,1.5,-87,3.1C252.1,0,223.1,0,209.3,0C195.6,0,166.5,0,123.8,-1.4C111.5,-3,76.4,-3,36.7,-4.5Z" 
	id="f1_0"
	transform="scale(0.001,-0.001)" />

	<path d="M470.6,79.4c161.9,0,233.7,70.3,233.7,229.2c0,155.8,-76.4,223.1,-253.6,223.1l-45.8,0l0,-446.1c25.9,-4.6,42.7,-6.2,65.7,-6.2ZM450.7,611.1c154.3,0,221.5,56.5,221.5,189.5c0,113,-55,163.4,-178.7,163.4c-29.1,0,-52,-1.5,-88.6,-6.1l0,-346.8ZM110,-4.5l0,35.1l48.9,27.5c22.9,12.2,30.5,35.1,30.5,87l0,684.5c0,134.4,-4.5,143.6,-73.3,149.7l-56.5,4.6l0,56.5l120.7,-3c70.3,-1.6,114.6,-1.6,136,-1.6c24.4,0,129.8,1.6,166.5,3.1l126.8,1.5c194,0,288.7,-67.2,288.7,-206.2c0,-58.1,-21.4,-113.1,-58,-146.7C792.9,643.2,748.6,621.8,620.3,576c122.2,-7.7,174.1,-21.4,229.1,-59.6C902.9,478.2,933.5,411,933.5,330C933.5,132.9,763.9,-4.5,519.4,-4.5c-4.5,0,-45.8,1.5,-125.2,3.1C357.5,0,325.4,0,302.5,0C259.7,0,220,-1.4,110,-4.5Z" 
	id="f1_1"
	transform="scale(0.001,-0.001)" />

	<path d="M679.9,-25.9c-377.4,0,-612.7,213.8,-612.7,556c0,327,241.4,531.7,627.9,531.7c133,0,218.5,-16.8,357.5,-71.8l9.2,-16.8c-13.7,-58.1,-18.3,-87.1,-35.1,-233.8l-59.6,0l-7.7,131.4C876.9,947.2,802.1,976.3,687.5,976.3c-241.4,0,-391.1,-162,-391.1,-424.8C296.4,262.8,473.6,73.3,741,73.3c99.3,0,198.6,26,297.9,78l18.3,-18.4L1023.6,58.1c-113,-62.6,-203.2,-84,-343.7,-84Z" 
	id="f1_2"
	transform="scale(0.001,-0.001)" />

	<path d="M502.6,79.4c172.7,0,281.2,33.7,357.5,108.5c73.4,73.4,111.6,189.5,111.6,343.8c0,151.2,-32.1,255.1,-100.9,322.3C796,927.4,673.8,964,495,964c-35.1,0,-59.6,-1.5,-96.2,-6.1l0,-870.8C436.9,81,464.4,79.4,502.6,79.4ZM103.9,-4.5l0,35.1l48.9,27.5c22.9,12.2,30.5,36.6,30.5,87l0,684.5c0,134.4,-4.5,143.6,-73.3,149.7l-56.5,4.6l0,56.5c227.6,-4.6,227.6,-4.6,247.5,-4.6c4.6,0,126.8,1.6,365.1,4.6c206.3,-1.5,328.5,-38.2,417.1,-126.8c76.4,-74.8,117.6,-194,117.6,-339.2C1200.8,411,1147.4,275,1041.9,172.6C927.4,59.6,760.8,-4.5,579,-4.5L488.9,-3C450.7,-1.4,368.2,0,340.7,0c-29,0,-29,0,-236.8,-4.5Z" 
	id="f1_3"
	transform="scale(0.001,-0.001)" />

	<path d="M36.7,297.9L24.4,310.1c7.7,23,12.3,36.7,23,65.7c18.3,53.5,21.4,62.7,29,90.2l394.2,0l13.7,-15.3c-24.4,-55,-41.2,-110,-48.9,-152.8Z" 
	id="f1_q"
	transform="scale(0.001,-0.001)" />

	<path d="M404.9,-25.9C290.3,-25.9,198.6,-6,87.1,44.3C103.9,131.4,110,194,110,308.6l61.1,0L181.8,174.2C229.2,102.4,328.5,56.5,432.4,56.5c131.4,0,229.1,84.1,229.1,197.1c0,73.3,-41.2,120.7,-126.8,146.7L320.8,464.4C177.2,507.2,97.8,603.5,97.8,734.9c0,204.7,151.2,326.9,404.8,326.9c100.9,0,180.3,-15.3,282.7,-51.9l7.6,-18.4C779.2,947.2,771.5,873.9,771.5,774.6l-62.6,0l-9.2,125.3c-58,56.5,-126.8,84,-207.8,84C371.3,983.9,287.2,910.6,287.2,805.1c0,-77.9,48.9,-125.2,162,-154.3L623.3,605C774.6,565.3,854,472.1,854,336.1c0,-220,-175.7,-362,-449.1,-362Z" 
	id="f1_5"
	transform="scale(0.001,-0.001)" />

	<path d="M641.7,-6C563.8,-6,502.6,-4.5,348.3,0L296.4,0C261.3,0,261.3,0,110,-4.5l0,35.1l48.9,27.5c22.9,12.2,30.5,35.1,30.5,87l0,684.5c0,134.4,-4.5,143.6,-73.3,149.7l-56.5,4.6l0,56.5c168,-3,233.7,-4.6,287.2,-4.6c44.3,0,87.1,0,198.6,3.1c84,1.5,129.9,3,165,3c59.6,0,88.6,-1.5,145.2,-6.1l9.1,-10.7L843.3,808.2l-55,0L776.1,922.8c-1.5,16.8,-67.2,30.5,-149.7,30.5c-84,0,-136,-1.5,-221.5,-6.1l0,-366.6c30.5,-3.1,51.9,-3.1,102.3,-3.1l100.9,0c64.1,0,84,7.6,87,32.1l9.2,87.1l61.1,0C760.8,551.5,760.8,550,760.8,533.2l4.6,-165l-61.1,0l-9.2,76.4c-4.5,39.7,-29,56.5,-87,56.5l-100.9,0c-33.6,0,-59.6,-1.5,-102.3,-4.6l0,-407.9C482.8,85.6,542.4,84,605,84c85.6,0,129.9,6.1,177.2,21.4c3.1,1.5,4.6,3.1,4.6,4.6l35.1,143.6l59.6,0L864.7,12.2L857.1,0C768.5,-4.5,721.1,-6,641.7,-6Z" 
	id="f1_4"
	transform="scale(0.001,-0.001)" />

	<path d="M189.4,-18.2C126.8,-18.2,71.8,35.1,71.8,99.3c0,64.2,56.5,120.7,120.7,120.7c61.1,0,117.6,-58.1,117.6,-120.7C310.1,36.7,253.6,-18.2,189.4,-18.2Zm0,473.5c-62.6,0,-117.6,53.5,-117.6,117.6c0,64.2,56.5,120.7,120.7,120.7c61.1,0,117.6,-58,117.6,-120.7c0,-62.6,-56.5,-117.6,-120.7,-117.6Z" 
	id="f1_p"
	transform="scale(0.001,-0.001)" />

	<path d="M375.8,-25.9c-146.6,0,-229.1,85.5,-229.1,239.8l0,273.5c0,90.1,-4.6,103.9,-39.8,106.9l-68.7,4.6l0,55c96.2,12.2,122.2,16.8,172.6,32.1l107,33.6l15.3,-9.2l0,-398.7c0,-146.7,32,-200.2,119.1,-200.2c81,0,146.7,62.7,146.7,137.5l0,238.4c0,90.1,-4.6,103.9,-39.7,106.9l-68.8,4.6l0,55c94.7,12.2,122.2,16.8,172.7,32.1L770,719.6l15.3,-9.2l0,-557.6c0,-82.5,7.6,-94.7,55,-97.8l50.4,-3.1l0,-56.4C858.6,-3,829.6,-3,818.9,-3c-42.8,3,-68.8,3,-84,3C718.1,0,718.1,0,591.3,-4.5l7.6,126.7L482.8,9.2c-22.9,-22.9,-62.7,-35.1,-107,-35.1Z" 
	id="f1_k"
	transform="scale(0.001,-0.001)" />

	<path d="M320.8,-25.9c-132.9,0,-189.4,58,-189.4,194l0,395.7L33.6,557.6l0,33.7l100.8,65.6l0,91.7c0,32.1,-1.5,61.1,-6.1,140.6c78,29,125.3,47.3,186.4,76.4l21.4,-15.3C322.4,873.9,317.8,823.5,317.8,742.5l0,-88.6l174.1,9.2L479.7,563.8l-161.9,0l0,-363.7c0,-74.8,22.9,-99.3,94.7,-99.3c24.4,0,39.7,4.6,70.3,19.9L495,91.7L420.1,1.5C406.4,-15.2,368.2,-25.9,320.8,-25.9Z" 
	id="f1_j"
	transform="scale(0.001,-0.001)" />

	<path d="M435.4,47.4c103.9,0,146.7,79.4,146.7,265.8c0,224.6,-52,333.1,-162,333.1C314.7,646.3,268.9,563.8,268.9,378.9c0,-220,56.5,-331.5,166.5,-331.5ZM407.9,-25.9C186.4,-25.9,61.1,106.9,61.1,342.2c0,242.9,134.5,377.4,377.4,377.4c226.1,0,351.4,-126.8,351.4,-359c0,-247.5,-137.5,-386.5,-382,-386.5Z" 
	id="f1_f"
	transform="scale(0.001,-0.001)" />

	<path d="M36.7,-4.5l0,56.4L90.1,55c47.4,3.1,55,15.3,55,97.8l0,334.6c0,90.1,-4.5,103.9,-39.7,106.9l-68.7,4.6l0,55c84,4.6,126.8,13.7,285.7,65.7l9.1,-9.2l0,-114.6l122.3,94.8c25.9,19.8,59.5,29,108.4,29c105.4,0,166.6,-36.7,201.7,-123.8l122.2,94.8c26,19.8,59.6,29,110,29c163.5,0,218.5,-71.8,218.5,-282.7l0,-284.1c0,-82.5,7.6,-94.7,55,-97.8L1320,51.9l0,-56.4c-62.6,3.1,-73.3,3.1,-149.7,4.5L1028.2,-4.5l0,415.5c0,119.1,-42.8,177.2,-131.4,177.2c-61.1,0,-123.7,-53.5,-123.7,-103.9l0,-331.5c0,-82.5,7.6,-94.7,55,-97.8l53.4,-3.1l0,-56.4C718.1,0,718.1,0,681.4,0C643.2,0,643.2,0,484.3,-4.5l0,56.4L531.7,55c48.9,3.1,55,15.3,55,97.8l0,258.2c0,119.1,-42.8,177.2,-131.4,177.2c-61.1,0,-123.8,-53.5,-123.8,-103.9l0,-331.5c0,-82.5,6.1,-94.7,55,-97.8l41.3,-3.1l0,-56.4C334.6,-1.4,268.9,0,233.8,0L36.7,-4.5Z" 
	id="f1_d"
	transform="scale(0.001,-0.001)" />

	<path d="M325.4,106.9c45.9,0,102.4,29.1,131.4,68.8l0,180.3L388.1,337.6C279.6,308.6,247.5,278.1,247.5,203.2c0,-59.6,29,-96.3,77.9,-96.3ZM239.9,-25.9C123.8,-25.9,61.1,39.7,61.1,163.5c0,129.8,68.8,189.4,261.3,229.1l134.4,27.5C452.2,545.4,403.3,600.4,301,600.4c-41.3,0,-84.1,-10.7,-88.6,-21.4L178.8,502.6l-45.9,10.7l0,105.5l81,48.8c56.5,35.2,119.2,52,183.3,52c154.3,0,246,-81,246,-217c0,-10.7,0,-24.4,-1.5,-44.3c-1.6,-58,-3.1,-106.9,-3.1,-148.2c0,-36.6,1.5,-79.4,3.1,-128.3l0,-32.1c1.5,-71.8,9.1,-87.1,42.7,-93.2l45.9,-4.6l0,-56.4C638.6,-1.4,614.2,0,595.8,0c-18.3,0,-44.3,-1.4,-139,-4.5L449.2,7.6l7.6,94.8L314.7,-7.5C299.4,-19.8,273.5,-25.9,239.9,-25.9Z" 
	id="f1_6"
	transform="scale(0.001,-0.001)" />

	<path d="M51.9,-4.5l0,56.4L105.4,55c47.4,3.1,55,15.3,55,97.8l0,334.6c0,90.1,-4.6,103.9,-39.7,106.9l-68.8,4.6l0,55c10.7,1.5,18.4,3,23,3c64.1,7.7,100.8,13.8,149.7,29.1l106.9,33.6l15.3,-9.2l0,-557.6c0,-82.5,7.6,-94.7,55,-97.8l53.5,-3.1l0,-56.4C352.9,-1.4,279.6,0,249,0L51.9,-4.5ZM247.5,849.4c-64.2,0,-114.6,52,-114.6,116.2c0,64.1,50.4,113,116.1,113c62.7,0,113.1,-51.9,113.1,-114.6c0,-62.6,-52,-114.6,-114.6,-114.6Z" 
	id="f1_b"
	transform="scale(0.001,-0.001)" />

	<path d="M395.7,-25.9C177.2,-25.9,56.5,106.9,56.5,349.9c0,132.9,48.9,209.3,184.9,290.2l79.4,47.4c36.7,21.4,79.5,32.1,137.5,32.1c55,0,87.1,-6.1,157.4,-30.6l10.7,-19.8C612.6,601.9,605,551.5,595.8,453.8l-55,0l-10.7,91.6c-4.5,35.2,-65.7,65.7,-134.4,65.7C297.9,611.1,246,536.3,246,397.2C246,203.2,339.2,82.5,488.9,82.5c44.3,0,77.9,7.6,129.9,29L632.5,96.3L600.4,26C528.6,-12.1,472.1,-25.9,395.7,-25.9Z" 
	id="f1_8"
	transform="scale(0.001,-0.001)" />

	<path d="M158.9,-406.3c-35.1,0,-70.3,7.6,-111.5,26l27.5,145.1l16.8,6.1c35.1,-39.7,67.2,-56.5,106.9,-56.5c52,0,105.4,51.9,140.6,139L374.3,-61L132.9,556.1c-22.9,58.1,-41.2,82.5,-64.1,84l-53.5,3.1l0,58.1c158.9,-4.6,183.3,-4.6,203.2,-4.6l201.6,4.6l0,-58.1l-53.4,-3.1C343.8,638.6,326.9,624.9,326.9,605c0,-15.3,4.6,-29,16.9,-58.1c4.5,-10.6,9.1,-21.3,9.1,-22.9L481.3,191L635.6,576c3,7.6,6.1,24.4,6.1,33.6c0,16.8,-16.8,29,-41.3,30.5L550,643.2l0,58.1c90.1,-3.1,137.5,-4.6,142.1,-4.6l142.1,4.6l0,-58.1l-39.8,-7.6C773.1,631,750.1,605,731.8,563.8l-304,-707.3C349.9,-323.8,265.8,-406.3,158.9,-406.3Z" 
	id="f1_o"
	transform="scale(0.001,-0.001)" />

	<path d="M381.9,417.1l128.4,4.6C507.2,572.9,470.6,634,383.5,634C294.9,634,258.2,572.9,253.6,421.7l48.9,-1.6c22.9,-1.5,64.2,-3,73.3,-3ZM414,-25.9C186.4,-25.9,64.2,102.4,64.2,345.3c0,145.1,44.3,236.8,145.1,296.4l71.8,42.7c41.3,24.5,81,35.2,134.5,35.2c174.1,0,288.7,-105.4,288.7,-268.9l0,-79.4C618.8,349.9,550,340.7,462.9,340.7l-200.1,0C265.8,268.9,275,233.8,299.4,191C337.6,125.3,412.5,82.5,491.9,82.5c61.2,0,107,13.8,178.8,53.5L689,113.1L655.4,39.7C557.6,-10.6,501.1,-25.9,414,-25.9Z" 
	id="f1_9"
	transform="scale(0.001,-0.001)" />

	<path d="M296.4,-25.9c-81,0,-149.7,12.2,-236.8,42.7L70.3,232.2l59.6,0l7.6,-105.4C186.4,70.3,236.8,47.4,308.6,47.4c85.6,0,140.6,45.8,140.6,117.6c0,53.5,-26,79.4,-96.3,96.3l-131.4,32c-106.9,26,-161.9,90.2,-161.9,191c0,152.8,111.5,235.3,317.8,235.3c80.9,0,128.3,-9.2,187.9,-35.2L553.1,498.1l-55,0l-15.3,88.6c-4.6,30.5,-71.8,59.6,-132.9,59.6c-82.5,0,-134.5,-38.2,-134.5,-99.4c0,-47.3,24.5,-71.8,84,-85.5L424.7,433.9C562.2,403.3,618.8,346.8,618.8,236.8C618.8,79.4,488.9,-25.9,296.4,-25.9Z" 
	id="f1_i"
	transform="scale(0.001,-0.001)" />

	<path d="M36.7,-4.5l0,56.4L90.1,55c47.4,3.1,55,15.3,55,97.8l0,334.6c0,90.1,-4.5,103.9,-39.7,106.9l-68.7,4.6l0,55c84,4.6,126.8,13.7,285.7,65.7l9.1,-9.2l0,-114.6l122.3,94.8c24.4,19.8,61.1,29,106.9,29c74.9,0,137.5,-22.9,177.2,-64.2c39.7,-42.8,53.5,-100.8,53.5,-218.5l0,-284.1c0,-82.5,7.6,-94.7,55,-97.8l50.4,-3.1l0,-56.4C763.9,0,763.9,0,742.5,0C718.1,0,692.1,-1.4,605,-4.5l0,417c0,122.2,-42.8,175.7,-143.6,175.7c-67.2,0,-129.9,-50.4,-129.9,-103.9l0,-331.5c0,-82.5,7.7,-94.7,55,-97.8L440,51.9l0,-56.4C337.6,-1.4,264.3,0,233.8,0L36.7,-4.5Z" 
	id="f1_e"
	transform="scale(0.001,-0.001)" />

	<path d="M346.8,-4.5L128.3,545.4C100.8,611.1,81,637.1,55,640.1l-38.2,3.1l0,58.1c154.3,-4.6,178.8,-4.6,198.6,-4.6l197.1,4.6l0,-58.1l-62.6,-3.1c-23,-1.5,-35.2,-10.7,-35.2,-25.9c0,-16.8,6.1,-39.8,21.4,-77.9L470.6,198.6c25.9,56.5,39.7,88.6,53.4,122.2l93.2,230.7c9.2,22.9,13.8,44.3,13.8,62.7c0,13.7,-13.8,24.4,-35.2,25.9l-58,3.1l0,58.1c56.5,-3.1,70.3,-3.1,148.2,-4.6l146.6,4.6l0,-58.1l-45.8,-7.6c-26,-4.6,-41.2,-18.4,-55,-52L536.3,143.6C517.9,102.4,502.6,64.2,478.2,-4.5Z" 
	id="f1_l"
	transform="scale(0.001,-0.001)" />

	<path d="M45.8,-4.5l0,56.4L99.3,55c47.4,3.1,55,15.3,55,97.8l0,334.6c0,90.1,-4.6,103.9,-39.7,106.9l-68.8,4.6l0,55c96.3,12.2,123.8,16.8,172.7,32.1l106.9,33.6l15.3,-9.2l0,-145.1l67.2,73.3c58.1,62.7,87.1,81,129.9,81c21.4,0,41.2,-3.1,56.5,-9.2L586.7,513.3L550,498.1c-21.4,36.6,-48.9,55,-87.1,55c-59.6,0,-122.2,-50.5,-122.2,-97.8l0,-302.5C340.7,67.2,348.3,58.1,414,55l59.6,-3.1l0,-56.4C267.4,0,262.8,0,242.9,0L45.8,-4.5Z" 
	id="f1_h"
	transform="scale(0.001,-0.001)" />

	<path d="M296.4,-4.5L132.9,582.1c-12.2,41.2,-27.5,55,-62.6,58l-50.4,3.1l0,58.1c161.9,-4.6,186.4,-4.6,207.7,-4.6l206.3,4.6l0,-58.1l-71.8,-3.1c-16.8,0,-29,-13.7,-29,-33.6c0,-7.6,1.5,-22.9,3,-29L426.3,230.7c7.6,18.3,16.8,38.2,25.9,56.5c6.1,13.8,10.7,26,16.8,38.2c15.3,33.6,30.6,65.7,44.3,96.3l133,297.9l76.3,0L933.5,235.3c25.9,70.3,41.2,111.5,59.6,171.1l55,172.6c1.5,6.1,4.5,22.9,4.5,29.1c0,18.3,-18.3,30.5,-44.3,32l-64.1,3.1l0,58.1c128.3,-4.6,128.3,-4.6,154.3,-4.6c25.9,0,25.9,0,154.3,4.6l0,-58.1l-52,-3.1c-21.4,-1.5,-36.6,-21.3,-55,-71.8L1005.3,171.1C999.2,152.8,988.5,117.6,973.2,67.2C971.7,61.1,965.6,39.7,951.8,-4.5l-123.7,0L626.4,464.4C510.3,235.3,493.5,198.6,417.1,-4.5Z" 
	id="f1_m"
	transform="scale(0.001,-0.001)" />

	<path d="M36.7,-4.5l0,56.4L90.1,55c47.4,3.1,55,15.3,55,97.8l0,715c0,90.1,-4.5,103.9,-39.7,106.9l-68.7,4.6l0,55c82.5,10.7,132.9,19.9,172.6,32.1l110,33.6l12.2,-9.2l0,-495l122.3,94.8c24.4,19.8,61.1,29,106.9,29c74.9,0,137.5,-22.9,177.2,-64.2c39.7,-42.8,53.5,-100.8,53.5,-218.5l0,-284.1c0,-82.5,7.6,-94.7,55,-97.8l50.4,-3.1l0,-56.4C763.9,0,763.9,0,742.5,0C718.1,0,692.1,-1.4,605,-4.5L605,411c0,123.7,-42.8,177.2,-143.6,177.2c-67.2,0,-129.9,-50.4,-129.9,-103.9l0,-331.5c0,-82.5,7.7,-94.7,55,-97.8L440,51.9l0,-56.4C337.6,-1.4,264.3,0,233.8,0L36.7,-4.5Z" 
	id="f1_a"
	transform="scale(0.001,-0.001)" />

	<path d="M476.7,77.9c111.5,0,180.2,100.9,180.2,259.7c0,152.8,-70.2,244.5,-187.9,244.5c-62.6,0,-113,-26,-146.6,-76.4l0,-343.8c41.2,-58,90.1,-84,154.3,-84ZM415.6,-25.9c-65.7,0,-129.9,18.4,-200.2,56.5L155.8,-18.2L122.2,-6C131.4,74.9,136,166.5,136,247.5l0,620.3c0,90.1,-6.1,105.4,-39.7,106.9l-81,4.6l0,55c88.6,9.2,140.5,18.3,184.8,32.1l110,33.6l12.3,-9.2l0,-505.7L415.6,660c53.4,42.8,97.7,59.6,157.3,59.6c162,0,276.5,-120.7,276.5,-290.3C849.4,311.7,799,194,722.6,131.4C679.9,96.3,609.6,48.9,548.5,12.2C504.2,-13.7,462.9,-25.9,415.6,-25.9Z" 
	id="f1_7"
	transform="scale(0.001,-0.001)" />

	<path d="M48.9,-4.5l0,56.4L102.4,55c47.3,3.1,55,15.3,55,97.8l0,715c0,90.1,-6.1,105.4,-39.8,106.9l-80.9,4.6l0,55c88.6,9.2,140.5,18.3,184.8,32.1l110,33.6l12.3,-9.2l0,-938c0,-82.5,7.6,-94.7,55,-97.8l53.4,-3.1l0,-56.4C349.9,-1.4,276.5,0,246,0L48.9,-4.5Z" 
	id="f1_c"
	transform="scale(0.001,-0.001)" />

	<path d="M501.1,-4.5L348.3,253.6L250.6,119.2C232.2,93.2,215.4,68.8,171.1,0L32.1,0l0,51.9c47.3,3.1,74.8,18.4,105.4,55L305.6,320.8L183.3,528.6c-39.7,67.2,-67.2,88.6,-117.6,88.6c-4.6,0,-15.3,0,-22.9,-1.5l-12.2,55c56.5,10.7,169.5,35.1,223,48.9C284.2,695.1,311.7,660,348.3,601.9L427.8,472.1l165,229.2l145.1,0l0,-56.6C681.4,643.2,666.1,634,618.8,579L470.6,404.9L606.5,172.6C660,85.6,690.6,56.5,737.9,51.9l0,-56.4C693.6,-1.4,681.4,-1.4,620.3,0L501.1,-4.5Z" 
	id="f1_n"
	transform="scale(0.001,-0.001)" />

	<path d="M493.5,77.9c111.5,0,180.3,100.9,180.3,259.7c0,152.8,-70.3,244.5,-188,244.5c-62.6,0,-113,-26,-146.6,-76.4l0,-343.8c41.2,-58,90.1,-84,154.3,-84ZM44.3,-394.1l0,56.6l53.5,3c47.3,3.1,55,15.3,55,97.8l0,724.1c0,90.1,-4.6,103.9,-39.7,106.9l-68.8,4.6l0,55l16.8,1.5C139,666.1,165,670.7,216.9,686l107,33.6l15.3,-9.2l0,-125.3L432.4,660c53.4,42.8,97.7,59.6,157.3,59.6c158.9,0,276.6,-120.7,276.6,-282.7c0,-137.5,-55,-256.6,-155.9,-333C702.8,97.8,693.6,90.1,684.4,84C580.6,1.5,527.1,-25.9,475.1,-25.9C438.5,-25.9,414,-21.3,339.2,0l0,-236.7c0,-82.5,7.6,-96.3,55,-97.8l68.7,-3l0,-56.6c-198.6,4.6,-201.6,4.6,-221.5,4.6L44.3,-394.1Z" 
	id="f1_g"
	transform="scale(0.001,-0.001)" />

	<path d="M125.3,0c-6.1,0,-18.4,1.5,-18.4,15.3c0,27.5,15.3,29,23,29C175.7,47.4,249,50.4,275,152.8l198.6,799c3.1,9.2,3.1,13.8,3.1,22.9c0,24.5,-42.8,24.5,-81,24.5c-29,0,-39.7,0,-39.7,15.2c0,29.1,13.7,29.1,41.2,29.1l184.9,0c36.7,0,38.2,-1.6,41.2,-35.2L705.8,143.6L1225.3,1019c15.3,24.5,19.8,24.5,51.9,24.5l178.8,0c25.9,0,36.6,0,36.6,-16.8c0,-27.5,-13.7,-27.5,-39.7,-27.5c-94.7,0,-103.9,-12.3,-117.6,-64.2L1124.4,93.2c-1.5,-3.1,-3,-10.7,-3,-22.9c0,-13.8,0,-26,85.5,-26c23,0,35.2,0,35.2,-15.3c0,-29,-16.8,-29,-81,-29c-56.5,3.1,-111.5,3.1,-165,3.1C941.1,0,1049.6,0,889.2,0c-4.6,0,-19.9,0,-19.9,15.3c0,29,13.8,29,41.3,29c93.2,0,102.3,12.2,116.1,65.7l216.9,870.8l-1.5,0L675.3,27.5C663.1,7.6,658.5,0,640.1,0C621.8,0,618.8,4.6,615.7,33.6L527.1,971.7l-1.5,0L319.3,145.1c0,-1.5,-6.1,-22.9,-6.1,-36.6c0,-52,42.8,-62.7,88.6,-64.2c9.2,0,21.4,-1.5,21.4,-15.3C423.2,0,406.4,0,352.9,0C305.6,3.1,259.7,3.1,215.4,3.1C168.1,0,259.7,0,125.3,0Z" 
	id="f0_l"
	transform="scale(0.001,-0.001)" />

	<path d="M122.2,0c-6.1,0,-21.4,0,-21.4,15.3c0,29,13.8,29,41.3,29c93.2,0,102.3,12.2,116.1,65.7L467.5,951.8c3.1,9.2,3.1,13.8,3.1,22.9c0,24.5,-42.8,24.5,-81,24.5c-29,0,-39.7,0,-39.7,15.2c0,29.1,16.8,29.1,84,29.1c58,-3.1,114.6,-3.1,169.6,-3.1c56.5,3.1,-55,3.1,110,3.1c7.6,0,21.4,0,21.4,-16.8c0,-27.5,-13.8,-27.5,-39.8,-27.5C600.4,999.2,591.3,986.9,577.5,935L453.8,440L997.6,895.3c6.2,6.1,7.7,7.6,13.8,12.2c3,4.6,4.6,6.1,9.2,9.2c10.7,9.1,29,25.9,29,53.4c0,19.9,-15.3,27.5,-35.2,29.1c-6.1,0,-18.3,1.5,-18.3,15.2c0,29.1,16.8,29.1,73.3,29.1c48.9,-3.1,94.8,-3.1,129.9,-3.1c39.7,3.1,-35.1,3.1,73.3,3.1c9.2,0,16.8,-6.1,16.8,-15.3c0,-26,-13.7,-27.5,-25.9,-29c-44.3,-4.6,-100.9,-15.3,-230.7,-123.8L748.6,637.1L944.2,106.9c18.3,-48.8,38.2,-61.1,85.5,-62.6c18.4,0,29.1,-1.5,29.1,-15.3c0,-29,-16.9,-29,-30.6,-29C1006.8,3.1,898.3,3.1,847.9,3.1C796,0,898.3,0,747.1,0C741,0,725.7,0,725.7,15.3c0,27.5,15.3,29,26,29c18.3,0,73.3,3.1,73.3,48.9c0,10.7,0,13.7,-7.6,32.1L656.9,560.7L438.5,375.8C375.8,128.3,363.6,82.5,363.6,70.3c0,-13.8,0,-26,85.6,-26c22.9,0,35.1,0,35.1,-15.3C484.3,0,467.5,0,401.8,0C342.2,3.1,287.2,3.1,232.2,3.1C175.7,0,287.2,0,122.2,0Z" 
	id="f0_j"
	transform="scale(0.001,-0.001)" />

	<path d="M65.7,-311.6c-65.7,0,-120.6,29.1,-120.6,84.1c0,44.3,35.1,73.3,68.7,73.3c35.1,0,48.8,-24.5,48.8,-44.3c0,-13.8,-7.6,-52,-53.4,-67.2C30.6,-279.5,55,-281,65.7,-281c94.7,0,152.8,125.3,169.6,191L383.5,504.2c9.1,35.1,10.7,58,10.7,76.4c0,33.6,-4.6,62.6,-42.8,62.6C275,643.2,213.9,553.1,177.2,455.3c-10.7,-27.5,-12.2,-29,-29,-29c-9.2,0,-21.4,1.5,-21.4,13.7c0,9.2,77.9,233.8,227.6,233.8c82.5,0,125.3,-64.2,125.3,-134.5c0,-22.9,-7.6,-51.9,-7.6,-53.5L330,-85.5C301,-203.1,187.9,-311.6,65.7,-311.6ZM467.5,884.6c-30.6,0,-47.4,22.9,-47.4,45.8c0,35.2,33.7,67.2,68.8,67.2c32.1,0,47.4,-24.4,47.4,-45.8c0,-33.6,-33.7,-67.2,-68.8,-67.2Z" 
	id="f0_14"
	transform="scale(0.001,-0.001)" />

	<path d="M572.9,3.1c276.5,0,488.9,440,488.9,737.9c0,200.1,-103.9,300.9,-230.7,300.9c-97.8,0,-221.5,-64.1,-323.9,-207.7C383.5,658.5,348.3,407.9,348.3,314.7C348.3,128.3,436.9,3.1,572.9,3.1ZM565.3,-32C354.4,-32,223.1,139,223.1,359c0,352.9,310.1,716.6,617.2,716.6c210.8,0,340.7,-172.7,340.7,-394.2C1181,322.4,867.8,-32,565.3,-32Z" 
	id="f0_n"
	transform="scale(0.001,-0.001)" />

	<path d="M343.8,15.3c47.3,0,110,42.8,163.4,149.7c30.6,64.2,82.5,255.1,82.5,340.7c0,81,-29,137.5,-84,137.5C424.7,643.2,331.5,525.6,316.3,466C311.7,450.7,308.6,435.4,304,420.1C270.4,282.6,253.6,221.5,253.6,161.9C253.6,97.8,275,15.3,343.8,15.3Zm-1.6,-30.5c-94.7,0,-168,84,-168,229.1c0,16.8,0,56.5,13.7,111.5L342.2,944.2c1.6,7.6,4.6,18.3,4.6,25.9c0,15.3,0,29.1,-76.4,29.1c-21.4,0,-33.6,0,-33.6,15.2c0,27.5,13.8,29.1,35.1,30.6l152.8,13.8c4.8,0.2,9,0.4,12.7,0.4c15.5,0,22.5,-3.1,22.5,-14.2c0,-4.6,-1.6,-9.2,-4.6,-19.9L346.8,588.2c24.5,24.4,87.1,85.6,163.5,85.6C615.7,673.8,686,574.4,686,441.5C686,223.1,513.3,-15.2,342.2,-15.2Z" 
	id="f0_w"
	transform="scale(0.001,-0.001)" />

	<path d="M148.2,-32c-9.2,0,-21.4,0,-21.4,13.8c0,13.7,55,241.3,284.2,374.2c39.7,22.9,163.4,94.7,235.3,194c77.9,111.5,80.9,238.3,80.9,264.3C727.2,935,660,985.4,591.3,985.4c-188,0,-299.5,-288.7,-299.5,-391.1c0,-26,4.6,-50.4,33.6,-50.4c96.3,0,149.7,168,149.7,210.8c0,4.6,-1.5,27.5,-12.2,50.4c-4.6,7.7,-4.6,10.7,-4.6,13.8c0,9.2,10.7,15.3,16.8,15.3c15.3,0,30.6,-47.4,30.6,-79.5c0,-53.4,-61.1,-241.4,-181.8,-241.4c-53.5,0,-73.3,42.8,-73.3,93.2c0,99.3,120.7,409.5,345.2,409.5c136,0,232.3,-107,232.3,-253.6C828.1,621.8,756.3,536.3,650.8,455.3c-36.6,-26,-73.3,-52,-111.5,-73.4L423.2,316.3C421.7,314.7,301,247.5,223.1,108.5c12.2,4.6,32,4.6,39.7,4.6c39.7,0,81,-9.2,143.6,-24.5c36.7,-9.2,90.1,-22.9,136,-22.9c93.2,0,157.3,94.7,181.8,172.6c6.1,21.4,6.1,24.5,24.4,24.5c6.1,0,19.9,0,19.9,-13.8c0,-12.2,-67.2,-281,-241.4,-281c-53.5,0,-96.3,26,-137.5,54.9c-44.3,30.6,-84,59.6,-132.9,59.6c-45.9,0,-70.3,-45.8,-84.1,-94.6C166.5,-28.9,165,-32,148.2,-32Z" 
	id="f0_6"
	transform="scale(0.001,-0.001)" />

	<path d="M380.4,-1.4c146.7,0,213.9,206.1,236.8,271.8c9.2,29,125.3,424.7,125.3,566.8c0,126.8,-74.9,148.2,-116.1,148.2c-52,0,-125.3,-35.1,-180.3,-129.8C380.4,739.4,267.4,268.9,267.4,148.2c0,-94.7,47.3,-149.6,113,-149.6ZM374.3,-32C201.7,-32,177.2,131.4,177.2,221.5c0,110,96.3,794.5,458.4,794.5c194,0,194,-213.9,194,-256.7C829.6,614.2,756.3,351.4,707.4,244.4C617.2,55,498.1,-32,374.3,-32Z" 
	id="f0_4"
	transform="scale(0.001,-0.001)" />

	<path d="M201.7,0C191,0,177.2,0,177.2,15.3c0,29,13.8,29,41.3,29l12.2,0c116.1,0,129.9,13.8,142.1,65.7L554.6,838.8C491.9,794.4,427.8,774.6,385,774.6c-13.7,0,-21.4,4.6,-21.4,16.8c0,26,12.2,26,30.6,29c111.5,10.7,195.5,87.1,259.7,175.7c13.7,18.3,15.3,19.9,22.9,19.9c10.7,0,15.3,-9.2,15.3,-15.3c0,-6.1,-1.5,-15.3,-3.1,-21.4L470.6,110C464.4,87.1,464.4,77.9,464.4,76.4c0,-18.3,0,-32.1,108.5,-32.1l12.2,0c26,0,36.7,0,36.7,-16.8C621.8,0,605,0,527.1,0C459.9,3.1,394.2,3.1,330,3.1C264.3,0,394.2,0,201.7,0Z" 
	id="f0_5"
	transform="scale(0.001,-0.001)" />

	<path d="M383.5,9.2c117.6,0,181.8,125.2,190.9,142.1c38.2,80.9,82.5,273.4,82.5,331.5c0,19.8,0,137.5,-110,137.5C348.3,620.3,273.5,287.2,273.5,152.8C273.5,81,304,9.2,383.5,9.2ZM378.9,-32C207.8,-32,180.3,139,180.3,238.3c0,79.5,29,342.3,160.4,530.2C479.7,968.6,620.3,1016,708.9,1016c62.6,0,143.6,-21.4,143.6,-116.1c0,-94.8,-64.2,-94.8,-71.8,-94.8c-26,0,-47.4,15.3,-47.4,44.3c0,3.1,0,65.7,74.9,68.8C796,965.6,751.7,979.3,705.8,979.3c-50.4,0,-258.2,-30.5,-363.6,-469C385,576,452.2,650.8,554.6,650.8c171.1,0,204.7,-175.7,204.7,-235.2C759.3,195.6,574.4,-32,378.9,-32Z" 
	id="f0_7"
	transform="scale(0.001,-0.001)" />

	<path d="M232.2,0C195.6,0,171.1,26,171.1,59.6c0,47.3,47.4,88.6,90.2,88.6c25.9,0,61.1,-13.8,61.1,-59.6C322.4,38.2,273.5,0,232.2,0ZM359,510.3c-41.2,0,-61.1,30.5,-61.1,59.6c0,42.7,42.8,88.6,91.7,88.6c38.2,0,61.1,-27.5,61.1,-59.6c0,-41.3,-41.3,-88.6,-91.7,-88.6Z" 
	id="f0_8"
	transform="scale(0.001,-0.001)" />

	<path d="M232.2,0C195.6,0,171.1,26,171.1,59.6c0,47.3,47.4,88.6,90.2,88.6c25.9,0,61.1,-13.8,61.1,-59.6C322.4,38.2,273.5,0,232.2,0Z" 
	id="f0_3"
	transform="scale(0.001,-0.001)" />

	<path d="M391.1,0C385,0,369.7,0,369.7,15.3c0,29,13.8,29,33.6,29c94.8,1.5,107,7.6,120.7,53.5c1.6,6.1,79.5,311.6,79.5,319.3c0,6.1,-4.6,16.8,-6.1,22.9L433.9,951.8c-12.2,38.2,-29,47.4,-97.8,47.4c-15.3,0,-29,0,-29,15.2c0,29.1,16.8,29.1,74.8,29.1c53.5,-3.1,102.4,-3.1,154.4,-3.1c55,3.1,-52,3.1,106.9,3.1c9.2,0,22.9,0,22.9,-16.8c0,-27.5,-16.8,-27.5,-30.5,-27.5c-15.3,0,-78,-1.6,-78,-36.7c0,-1.5,3.1,-15.3,4.6,-18.3L711.9,473.6l343.8,420.2c16.8,19.8,38.2,45.8,38.2,71.8c0,27.5,-27.5,32,-44.3,33.6c-4.6,0,-16.8,1.5,-16.8,15.2c0,29.1,16.8,29.1,65.7,29.1c44.3,-3.1,85.5,-3.1,122.2,-3.1c39.7,3.1,-36.7,3.1,74.9,3.1c3,0,18.3,0,18.3,-15.3c0,-26,-12.2,-27.5,-27.5,-29c-68.8,-6.1,-119.2,-30.6,-197.1,-125.3L725.7,430.8C713.5,417.1,713.5,414,705.8,388.1l-47.3,-191C647.8,154.3,629.4,82.5,629.4,70.3c0,-15.3,0,-26,84.1,-26c24.4,0,36.6,0,36.6,-15.3C750.1,0,733.3,0,667.6,0c-58,3.1,-113,3.1,-166.5,3.1C443.1,0,554.6,0,391.1,0Z" 
	id="f0_t"
	transform="scale(0.001,-0.001)" />

	<path d="M348.3,30.6c82.5,0,175.7,117.6,188,168l70.2,279.6c3.1,13.7,4.6,21.4,4.6,24.4c0,9.2,-12.2,140.6,-103.9,140.6C440,643.2,371.3,565.3,333.1,470.6C308.6,412.5,262.8,239.9,262.8,166.5c0,-18.3,3,-135.9,85.5,-135.9ZM256.7,-311.6c-117.7,0,-177.3,24.5,-177.3,82.5c0,48.9,38.2,74.9,68.8,74.9c35.1,0,48.9,-24.5,48.9,-44.3c0,-21.4,-13.8,-52,-47.4,-65.7C189.4,-281,241.4,-281,258.2,-281c123.7,0,181.8,116.1,198.6,163.5L505.7,81C495,70.3,426.3,0,345.3,0C244.4,0,168.1,88.6,168.1,229.2c0,223,177.2,444.6,339.1,444.6c70.3,0,108.5,-52,123.8,-87.1l1.5,0c3.1,25.9,22.9,58,58.1,58c27.5,0,39.7,-19.8,39.7,-36.6c0,-3.1,0,-7.7,-4.6,-24.5L557.6,-91.6c-30.5,-120.7,-145.1,-220,-300.9,-220Z" 
	id="f0_11"
	transform="scale(0.001,-0.001)" />

	<path d="M666.1,522.5c139,0,206.3,73.3,212.4,77.9c77.9,85.6,91.6,229.2,91.6,256.7c0,91.7,-59.5,142.1,-184.8,142.1l-132.9,0c-50.5,0,-61.1,0,-74.9,-58.1L473.6,522.5ZM123.8,0c-6.2,0,-21.4,0,-21.4,15.3c0,29,13.7,29,41.2,29c93.2,0,102.4,12.2,116.1,65.7L469,951.8c3.1,9.2,3.1,13.8,3.1,22.9c0,24.5,-42.8,24.5,-81,24.5c-29,0,-39.7,0,-39.7,15.2c0,29.1,13.7,29.1,41.2,29.1l437,0c163.5,0,264.3,-96.3,264.3,-223.1C1093.9,640.1,892.2,485.8,701.3,485.8l-233.8,0L368.2,93.2L365.1,70.3c0,-13.8,0,-26,85.6,-26c22.9,0,35.1,0,35.1,-15.3C485.8,0,469,0,403.3,0C343.8,3.1,288.8,3.1,233.8,3.1C177.2,0,288.8,0,123.8,0Z" 
	id="f0_o"
	transform="scale(0.001,-0.001)" />

	<path d="M322.4,-32C230.7,-32,152.8,26,152.8,129.9c0,111.5,79.4,111.5,85.5,111.5c32.1,0,56.6,-21.4,56.6,-53.5c0,-35.1,-32.1,-81,-82.5,-81c-10.7,0,-13.8,0,-18.4,1.6C203.2,35.1,261.3,-1.4,319.3,-1.4c85.6,0,171.1,116,197.1,221.4L696.7,942.6c1.5,6.2,4.6,18.4,4.6,24.5c0,32.1,-50.5,32.1,-111.6,32.1l-12.2,0c-26,0,-36.7,0,-36.7,16.8c0,27.5,16.8,27.5,90.2,27.5c62.6,-3.1,123.7,-3.1,174.1,-3.1c55,3.1,-50.4,3.1,103.9,3.1c6.1,0,19.9,0,19.9,-16.8c0,-27.5,-15.3,-27.5,-33.6,-27.5c-64.2,0,-76.4,-9.2,-88.6,-56.6L626.4,215.4C594.3,87.1,461.4,-32,322.4,-32Z" 
	id="f0_i"
	transform="scale(0.001,-0.001)" />

	<path d="M632.5,537.8c310.1,0,317.8,287.2,317.8,314.7c0,146.7,-155.9,146.7,-250.6,146.7c-29,0,-74.8,0,-85.5,-3.1c-13.8,-1.5,-24.5,-6.1,-36.7,-55L476.7,537.8ZM912.1,-32C829.6,-32,733.3,6.1,733.3,125.3c0,30.5,13.8,87.1,24.5,129.8c10.7,38.2,22.9,90.2,22.9,114.6c0,56.6,-26,137.5,-146.7,137.5l-165,0L365.1,93.2l-3,-22.9c0,-13.8,0,-26,85.5,-26c23,0,35.2,0,35.2,-15.3C482.8,0,466,0,400.3,0C342.2,3.1,287.2,3.1,233.8,3.1C175.7,0,287.2,0,123.8,0c-6.2,0,-21.4,0,-21.4,15.3c0,29,13.7,29,41.2,29c93.2,0,102.4,12.2,116.1,65.7L469,951.8c3.1,9.2,3.1,13.8,3.1,22.9c0,24.5,-42.8,24.5,-81,24.5c-29,0,-39.7,0,-39.7,15.2c0,29.1,13.7,29.1,41.2,29.1l383.5,0c186.4,0,299.5,-102.4,299.5,-224.6C1075.6,690.6,947.2,563.8,757.8,519.4C826.5,491.9,889.2,438.5,889.2,340.7c0,-21.4,-7.7,-77.9,-7.7,-81C875.4,212.4,864.7,131.4,864.7,85.6c0,-42.8,3.1,-87,52,-87c50.4,0,93.2,53.3,117.6,132.8c6.1,21.4,7.6,24.4,24.5,24.4c6.1,0,21.3,0,21.3,-15.2c0,-13.8,-45.8,-172.6,-168,-172.6Z" 
	id="f0_p"
	transform="scale(0.001,-0.001)" />

	<path d="M762.4,400.3L576,904.4L389.6,400.3ZM73.3,0l0,47.4c136,1.5,160.5,70.2,174.2,105.4l337.6,912.1c7.7,19.8,10.7,29,35.2,29c26,0,27.5,-6.1,38.2,-33.6L1012.9,103.9c15.3,-42.8,30.6,-56.5,128.4,-56.5l27.5,0L1104.6,3.1c-70.3,1.5,-136,1.5,-194,1.5c-107,0,58,-4.6,-162,-4.6l0,47.4c39.7,0,125.3,0,125.3,44.3c0,4.6,0,7.6,-7.6,27.5L779.2,352.9l-406.4,0L299.4,154.3c-7.6,-18.3,-7.6,-21.4,-7.6,-30.5c0,-36.7,35.1,-76.4,113.1,-76.4L378.9,1.5C291.8,4.6,227.6,4.6,166.5,4.6C105.4,1.5,227.6,0,73.3,0Z" 
	id="f2_1"
	transform="scale(0.001,-0.001)" />

	<path d="M462.9,38.2c140.6,0,206.3,76.4,230.7,110c32.1,48.9,55,113.1,55,238.3C748.6,540.8,715,605,681.4,647.8C660,675.3,594.3,747.1,462.9,747.1l-117.6,0c-53.5,0,-61.1,-4.6,-61.1,-65.7l0,-577.5c0,-61.1,7.6,-65.7,61.1,-65.7ZM68.8,0l0,38.2c102.3,0,110,9.2,110,71.8l0,565.3c0,62.6,-7.7,71.8,-110,71.8l0,38.2l429.3,0c220,0,377.3,-187.9,377.3,-398.8C875.4,177.2,713.5,0,498.1,0Z" 
	id="f2_n"
	transform="scale(0.001,-0.001)" />

	<path d="M59.6,0l0,38.2c108.5,0,116.1,7.6,116.1,73.3l0,562.3c0,65.6,-7.6,73.3,-116.1,73.3l51.9,36.7c79.5,-3.1,119.2,-3.1,158.9,-3.1c79.5,3.1,-39.7,4.6,131.4,4.6l0,-38.2c-108.5,0,-116.1,-7.7,-116.1,-73.3l0,-562.3c0,-65.7,7.6,-73.3,116.1,-73.3L349.9,1.5C270.4,4.6,230.7,4.6,191,4.6C111.5,1.5,230.7,0,59.6,0Z" 
	id="f2_s"
	transform="scale(0.001,-0.001)" />

	<path d="M93.2,-21.3c-15.3,0,-15.3,12.2,-15.3,36.6l0,206.2c0,27.5,0,38.2,19.9,38.2c4.6,0,16.8,-1.5,18.3,-13.7C117.6,204.7,122.2,129.9,191,76.4C256.7,22.9,339.2,16.8,378.9,16.8c105.4,0,165,82.5,165,158.9c0,67.2,-41.3,108.5,-48.9,114.6c-35.1,32.1,-50.4,35.1,-132.9,55c-140.6,32.1,-171.1,38.2,-217,84C126.8,447.6,77.9,498.1,77.9,583.6c0,119.2,100.9,223.1,239.9,223.1c62.6,0,132.9,-18.4,191,-74.9c6.1,9.2,21.3,32.1,29,39.7c22.9,33.6,24.4,35.2,33.6,35.2c15.3,0,15.3,-12.3,15.3,-36.7l0,-207.8c0,-29,0,-36.6,-19.9,-36.6c-16.8,0,-16.8,9.1,-19.9,19.8c-6.1,48.9,-33.6,227.7,-227.6,227.7C216.9,773.1,155.8,698.2,155.8,627.9c0,-45.8,24.5,-105.4,100.9,-136c9.1,-3,62.6,-15.2,94.7,-22.9C481.3,438.5,505.7,433.9,562.2,375.8c0,-1.5,59.6,-62.6,59.6,-158.9C621.8,96.3,527.1,-21.3,378.9,-21.3c-99.3,0,-178.8,35.1,-223.1,74.8c-6.1,-9.2,-21.4,-32.1,-29,-39.7C103.9,-19.8,102.4,-21.3,93.2,-21.3Z" 
	id="f2_11"
	transform="scale(0.001,-0.001)" />

	<path d="M65.7,0l0,38.2c102.4,0,110,9.2,110,71.8l0,560.7c0,62.6,-7.6,71.8,-110,71.8l0,38.2l679.9,0l29,-258.2l-38.2,0c-16.8,166.5,-56.5,220,-233.8,220l-155.8,0c-53.5,0,-61.1,-4.6,-61.1,-65.7l0,-252.1l106.9,0c113.1,0,131.4,30.6,131.4,132.9l38.2,0l0,-304l-38.2,0C524,356,505.7,386.5,392.6,386.5l-106.9,0l0,-282.6c0,-61.1,7.6,-65.7,61.1,-65.7l165,0C707.4,38.2,744,111.5,770,296.4l38.2,0L763.9,0Z" 
	id="f2_o"
	transform="scale(0.001,-0.001)" />

	<path d="M418.6,409.4c198.6,0,206.3,110,206.3,169.6c0,163.5,-129.9,168.1,-243,168.1c-27.5,0,-68.7,0,-79.4,-4.6c-15.3,-7.6,-18.3,-22.9,-18.3,-61.1l0,-272ZM785.3,-21.3C716.5,-21.3,655.4,1.5,627.9,29C579,76.4,579,103.9,579,189.4c0,67.3,0,103.9,-32.1,137.5c-47.3,47.4,-87,48.9,-125.2,48.9l-137.5,0l0,-265.8c0,-62.6,7.6,-71.8,110,-71.8L354.4,1.5C275,4.6,230.7,4.6,187.9,4.6C114.6,1.5,230.7,0,68.8,0l0,38.2c102.3,0,110,9.2,110,71.8l0,565.3c0,62.6,-7.7,71.8,-110,71.8l0,38.2l366.6,0C620.3,785.3,756.3,686,756.3,579c0,-93.2,-94.8,-161.9,-201.7,-189.4C669.2,345.3,684.4,267.4,696.7,213.9c19.8,-97.8,29,-140.6,41.2,-165c9.2,-16.8,22.9,-36.7,53.5,-36.7c10.7,0,65.7,1.6,76.4,94.7c0,6.2,1.5,19.9,18.3,19.9c19.9,0,19.9,-15.3,19.9,-22.9C906,73.3,883.1,-21.3,785.3,-21.3Z" 
	id="f2_10"
	transform="scale(0.001,-0.001)" />

	<path d="M241.4,0l0,38.2l32.1,0c117.6,0,123.7,16.8,123.7,77.9l0,556.1c0,65.7,-4.6,65.7,-90.1,65.7c-169.6,0,-200.2,-27.5,-213.9,-220l-38.2,0L76.4,776.1l750.1,0L847.9,517.9l-38.2,0c-13.7,194,-47.3,220,-212.3,220c-85.6,0,-90.2,0,-90.2,-65.7l0,-556.1C507.2,55,513.3,38.2,631,38.2l32.1,0L603.5,4.6l-212.4,0C301,4.6,452.2,0,241.4,0Z" 
	id="f2_12"
	transform="scale(0.001,-0.001)" />

	<path d="M574.4,296.4l-142,368.2L288.8,296.4ZM51.9,0l0,38.2C148.2,41.3,174.2,110,191,151.3L436.9,782.2c7.7,19.9,10.7,29.1,32.1,29.1c16.8,0,24.5,-9.2,33.6,-33.7L765.4,99.3C785.3,45.8,799,38.2,884.6,38.2L847.9,1.5C788.3,4.6,736.4,4.6,705.8,4.6C615.7,1.5,736.4,0,574.4,0l0,38.2c26,0,81,0,81,42.8c0,9.1,-19.8,61.1,-32.1,91.6l-33.6,85.6l-316.2,0c-52,-136,-52,-139,-52,-151.3c0,-13.7,4.6,-65.6,68.8,-68.7L259.7,1.5C189.4,4.6,163.5,4.6,129.9,4.6C85.6,3.1,163.5,0,51.9,0Z" 
	id="f2_k"
	transform="scale(0.001,-0.001)" />

	<path d="M485.8,18.3c108.5,0,276.6,87.1,276.6,388.1c0,285.7,-172.7,362.1,-276.6,362.1C383.5,768.5,209.3,693.6,209.3,406.4c0,-301,168.1,-388.1,276.5,-388.1Zm0,-39.6c-223,0,-407.9,180.2,-407.9,410.9c0,227.6,180.3,417.1,407.9,417.1c226.1,0,408,-189.5,408,-417.1c0,-230.7,-184.9,-410.9,-408,-410.9Z" 
	id="f2_x"
	transform="scale(0.001,-0.001)" />

	<path d="M65.7,0l0,38.2c110,0,110,81,110,116.1l0,582.1c-30.6,10.7,-73.3,10.7,-110,10.7l0,38.2l183.3,0c29.1,0,32.1,0,45.9,-19.9L718.1,177.2l0,453.8c0,35.1,0,116.1,-110,116.1l38.2,35.1c70.2,-1.5,93.1,-1.5,123.7,-1.5c68.8,3.1,-30.6,4.6,100.8,4.6l0,-38.2c-110,0,-110,-81,-110,-116.1l0,-591.3c0,-29,0,-39.7,-21.4,-39.7c-9.1,0,-13.7,0,-25.9,16.8L233.8,682.9l-15.3,18.4l0,-547c0,-35.1,0,-116.1,110,-116.1L290.3,3.1C220,4.6,197.1,4.6,166.5,4.6C97.8,1.5,197.1,0,65.7,0Z" 
	id="f2_w"
	transform="scale(0.001,-0.001)" />

	<path d="M484.3,-21.3c-169.6,0,-291.8,123.7,-305.5,247.4c-3.1,19.9,-3.1,76.4,-3.1,114.6l0,331.5c0,65.7,-6.1,74.9,-110,74.9l45.8,36.7c85.6,-3.1,119.2,-3.1,152.8,-3.1c87.1,3.1,-33.6,4.6,131.4,4.6l0,-38.2c-102.4,0,-110,-9.2,-110,-71.8l0,-411C285.7,35.1,441.5,16.8,487.4,16.8c103.9,0,235.2,77.9,235.2,255.1l0,359.1c0,35.1,0,116.1,-110,116.1l42.8,35.1c44.3,-1.5,87.1,-1.5,96.3,-1.5c80.9,1.5,-9.2,4.6,119.1,4.6l0,-38.2c-68.7,0,-108.4,-33.6,-110,-94.7l0,-406.4C759.3,134.4,661.5,-21.3,484.3,-21.3Z" 
	id="f2_13"
	transform="scale(0.001,-0.001)" />

	<path d="M491.9,38.2c139.1,0,189.5,103.9,189.5,172.6c0,64.2,-41.3,180.3,-171.1,180.3l-229.2,0l0,-287.2c0,-61.1,7.7,-65.7,61.1,-65.7ZM452.2,424.7c158.9,0,198.6,111.6,198.6,166.6c0,36.6,-22.9,155.8,-161.9,155.8l-146.7,0c-53.4,0,-61.1,-4.6,-61.1,-65.7l0,-256.7ZM70.3,0l0,38.2c102.3,0,110,9.2,110,71.8l0,565.3c0,62.6,-7.7,71.8,-110,71.8l0,38.2l429.3,0c166.5,0,273.5,-97.8,273.5,-194c0,-88.7,-87.1,-157.4,-191,-178.8l0,-1.5C710.4,394.2,808.2,310.1,808.2,210.8C808.2,103.9,701.3,0,531.7,0Z" 
	id="f2_l"
	transform="scale(0.001,-0.001)" />

	<path d="M71.8,0l0,38.2c110,0,110,81,110,116.1l0,521c0,62.6,-7.6,71.8,-110,71.8l0,38.2l184.9,0c32.1,0,41.2,0,51.9,-27.5L571.4,114.6L832.6,756.3c12.3,29,16.8,29,52,29l184.8,0l0,-38.2c-102.3,0,-110,-9.2,-110,-71.8l0,-565.3c0,-62.6,7.7,-71.8,110,-71.8L1019,1.5C964,4.6,910.6,4.6,857.1,4.6C782.2,1.5,910.6,0,751.7,0l0,38.2c102.3,0,110,9.2,110,71.8l0,629.4l-1.6,1.6L569.9,27.5C563.8,13.8,556.1,0,540.8,0c-15.2,0,-22.9,13.8,-29,27.5L226.1,730.3l-1.5,-1.5l0,-574.5c0,-35.1,0,-116.1,110,-116.1L296.4,3.1C226.1,4.6,203.2,4.6,172.6,4.6C103.9,1.5,203.2,0,71.8,0Z" 
	id="f2_v"
	transform="scale(0.001,-0.001)" />

	<path d="M450.7,392.6c192.5,0,192.5,117.7,192.5,177.3c0,61.1,0,177.2,-192.5,177.2l-105.4,0c-53.5,0,-61.1,-4.6,-61.1,-65.7l0,-288.8ZM68.8,0l0,38.2c102.3,0,110,9.2,110,71.8l0,565.3c0,62.6,-7.7,71.8,-110,71.8l0,38.2l414,0c175.7,0,291.8,-105.4,291.8,-215.4C774.6,453.8,646.3,357.5,493.5,357.5l-204.7,0l0,-247.5c0,-62.6,7.6,-71.8,110,-71.8L352.9,1.5C267.4,4.6,233.8,4.6,200.1,4.6C113.1,1.5,233.8,0,68.8,0Z" 
	id="f2_y"
	transform="scale(0.001,-0.001)" />

	<path d="M65.7,0l0,38.2c102.4,0,110,9.2,110,71.8l0,565.3c0,62.6,-7.6,71.8,-110,71.8l55,36.7c76.4,-3.1,114.6,-3.1,160.4,-3.1c97.8,3.1,-45.8,4.6,142.1,4.6l0,-38.2c-114.6,0,-137.5,0,-137.5,-76.4l0,-566.8c0,-61.1,7.6,-65.7,61.1,-65.7l96.3,0c213.8,0,229.1,136,241.3,258.2l38.2,0L693.6,0Z" 
	id="f2_u"
	transform="scale(0.001,-0.001)" />

	<path d="M65.7,0l0,38.2c102.4,0,110,9.2,110,71.8l0,560.7c0,62.6,-7.6,71.8,-110,71.8l0,38.2l663.1,0l29,-258.2l-38.2,0c-15.3,171.1,-59.6,220,-227.7,220l-145.1,0c-53.5,0,-61.1,-4.6,-61.1,-65.7l0,-267.4l102.4,0c113,0,129.8,32.1,129.8,133l38.2,0l0,-304.1l-38.2,0c0,100.9,-16.8,133,-129.8,133l-102.4,0l0,-256.7c0,-76.4,22.9,-76.4,137.5,-76.4L378.9,1.5C284.2,4.6,235.3,4.6,197.1,4.6C116.1,1.5,235.3,0,65.7,0Z" 
	id="f2_p"
	transform="scale(0.001,-0.001)" />

	<path d="M65.7,0l0,38.2c102.4,0,110,9.2,110,71.8l0,565.3c0,62.6,-7.6,71.8,-110,71.8l45.8,36.7c85.6,-3.1,119.2,-3.1,152.8,-3.1c87.1,3.1,-33.6,4.6,131.4,4.6l0,-38.2c-102.4,0,-110,-9.2,-110,-71.8l0,-247.5l365.1,0l0,247.5c0,62.6,-7.6,71.8,-110,71.8l45.9,36.7c85.5,-3.1,119.1,-3.1,152.7,-3.1c87.1,3.1,-33.6,4.6,131.4,4.6l0,-38.2c-102.3,0,-110,-9.2,-110,-71.8l0,-565.3c0,-62.6,7.7,-71.8,110,-71.8L825,1.5C739.4,4.6,705.8,4.6,672.2,4.6C585.1,1.5,705.8,0,540.8,0l0,38.2c102.4,0,110,9.2,110,71.8l0,279.6l-365.1,0l0,-279.6c0,-62.6,7.6,-71.8,110,-71.8L349.9,1.5C264.3,4.6,230.7,4.6,197.1,4.6C110,1.5,230.7,0,65.7,0Z" 
	id="f2_r"
	transform="scale(0.001,-0.001)" />

	<path d="M485.8,16.8c53.5,0,97.8,19.9,100.9,21.4c-16.8,68.7,-50.4,102.4,-99.3,102.4c-41.3,0,-70.3,-29.1,-70.3,-62.7c0,-7.6,3,-61.1,68.7,-61.1ZM394.2,35.1c-1.6,1.6,-10.7,16.8,-10.7,42.8c0,50.4,42.8,96.3,103.9,96.3c77.9,0,114.5,-71.8,137.5,-114.6c105.4,70.3,142,201.7,142,330c0,284.2,-163.4,378.9,-281.1,378.9C368.2,768.5,204.7,673.8,204.7,389.6C204.7,154.3,317.8,64.2,394.2,35.1Zm355.9,-255c-106.9,0,-128.3,97.8,-152.7,213.9C588.2,-9.1,540.8,-21.3,485.8,-21.3c-223,0,-407.9,180.2,-407.9,410.9c0,227.6,180.3,417.1,407.9,417.1c226.1,0,408,-189.5,408,-417.1C893.8,194,762.4,59.6,647.8,12.2c45.8,-100.7,90.1,-100.7,113,-100.7c38.2,0,96.3,19.8,105.5,79.4c1.5,15.2,3,25.9,16.8,25.9c16.8,0,16.8,-16.8,16.8,-28.9c0,-71.8,-36.7,-207.8,-149.8,-207.8Z" 
	id="f2_z"
	transform="scale(0.001,-0.001)" />

	<path d="M90.1,0l0,47.4c157.4,0,157.4,71.8,157.4,113l0,763.9c0,55,-3.1,71.8,-120.7,71.8l-36.7,0l0,47.4l258.2,0c32.1,0,41.3,0,52,-27.5L754.7,145.1l354.5,869.3c12.2,29.1,16.8,29.1,51.9,29.1l258.2,0l0,-47.4l-36.7,0c-117.6,0,-120.7,-16.8,-120.7,-71.8l0,-805.1c0,-55,3.1,-71.8,120.7,-71.8l36.7,0L1362.8,4.6l-221.5,0C1037.4,4.6,1200.8,0,980.8,0l0,47.4l36.7,0c117.6,0,120.7,16.8,120.7,71.8l0,878.4l-1.5,1.6L741,27.5C734.9,13.8,727.2,0,711.9,0C696.7,0,689,13.8,682.9,27.5l-391.1,961l-1.5,-1.6l0,-826.5c0,-41.2,0,-113,157.3,-113L394.2,1.5C319.3,4.6,268.9,4.6,218.5,4.6C143.6,1.5,268.9,0,90.1,0Z" 
	id="f2_b"
	transform="scale(0.001,-0.001)" />

	<path d="M605,522.5c259.7,0,259.7,171.1,259.7,236.8c0,68.8,0,236.8,-259.7,236.8l-154.3,0c-71.8,0,-74.9,-10.7,-74.9,-61.1l0,-412.5ZM87.1,0l0,47.4l36.7,0c117.6,0,120.6,16.8,120.6,71.8l0,805.1c0,55,-3,71.8,-120.6,71.8l-36.7,0l0,47.4l557.6,0c215.4,0,377.4,-132.9,377.4,-284.2C1022.1,601.9,843.3,482.8,656.9,482.8l-276.5,0l0,-363.6c0,-55,3.1,-71.8,120.7,-71.8l36.7,0L484.3,4.6l-230.7,0C140.6,4.6,311.7,0,87.1,0Z" 
	id="f2_e"
	transform="scale(0.001,-0.001)" />

	<path d="M126.8,-33.5C110,-33.5,110,-22.8,110,3.1l0,305.5c0,27.5,0,38.2,19.9,38.2c7.6,0,16.8,-3,18.3,-13.7c1.5,-52,6.1,-163.5,105.4,-241.4C337.6,26,440,13.8,504.2,13.8c139,0,220,110,220,218.4c0,82.5,-45.9,134.5,-55,145.2c-47.4,51.9,-77.9,59.5,-168.1,80.9c-24.4,6.1,-50.4,10.7,-74.8,16.8C299.4,505.7,253.6,516.4,181.8,591.3C161.9,614.2,110,682.9,110,780.7c0,161.9,136,296.4,313.2,296.4c146.7,0,216.9,-68.8,258.2,-110l56.5,90.1c12.2,18.4,12.2,19.9,22.9,19.9c16.8,0,16.8,-10.7,16.8,-36.7l0,-307.1c0,-29,0,-36.6,-19.8,-36.6c-16.8,0,-16.8,7.6,-19.9,27.5C716.5,880,635.6,1034.3,424.7,1034.3c-129.8,0,-216.9,-96.2,-216.9,-200.1c0,-55,32.1,-160.4,165,-192.5L580.6,591.3C748.6,550,821.9,404.9,821.9,282.6C821.9,120.7,696.7,-33.5,505.7,-33.5C348.3,-33.5,249,32.1,206.3,76.4L149.7,-15.2c-9.1,-13.7,-12.2,-18.3,-22.9,-18.3Z" 
	id="f2_g"
	transform="scale(0.001,-0.001)" />

	<path d="M623.3,47.4c119.2,0,217,48.9,279.6,119.1c71.8,82.5,99.3,192.5,99.3,346.8c0,116.1,-16.8,249.1,-85.5,339.2C828.1,970.1,708.9,996.1,623.3,996.1l-172.6,0c-71.8,0,-74.9,-10.7,-74.9,-61.1l0,-826.5c0,-50.4,3.1,-61.1,74.9,-61.1ZM87.1,0l0,47.4l36.7,0c117.6,0,120.6,16.8,120.6,71.8l0,805.1c0,55,-3,71.8,-120.6,71.8l-36.7,0l0,47.4l577.5,0c271.9,0,490.4,-238.4,490.4,-530.2C1155,226.1,933.5,0,664.6,0Z" 
	id="f2_3"
	transform="scale(0.001,-0.001)" />

	<path d="M505.7,-21.3C275,-21.3,77.9,160.4,77.9,392.6c0,232.3,197.1,414.1,427.8,414.1c114.6,0,189.4,-62.7,221.5,-96.3l59.6,77.9c12.2,15.3,13.8,18.4,22.9,18.4C825,806.7,825,794.4,825,770l0,-258.2c0,-29,0,-36.7,-19.9,-36.7c-15.2,0,-16.8,9.2,-19.8,19.9C756.3,689,626.4,768.5,514.9,768.5c-68.8,0,-305.6,-36.7,-305.6,-375.9C209.3,58.1,440,16.8,516.4,16.8c128.3,0,259.7,91.7,270.4,253.6c1.5,15.3,1.5,24.5,18.3,24.5c19.9,0,19.9,-10.7,19.9,-24.5C825,137.5,704.3,-21.3,505.7,-21.3Z" 
	id="f2_m"
	transform="scale(0.001,-0.001)" />


</defs>
</svg>