<?xml version="1.0" encoding="UTF-8" standalone="no"?>
<!DOCTYPE svg PUBLIC "-//W3C//DTD SVG 1.1//EN"
"http://www.w3.org/Graphics/SVG/1.1/DTD/svg11.dtd">
<svg viewBox="0 0 909 1286" version="1.1" xmlns="http://www.w3.org/2000/svg" xmlns:xlink="http://www.w3.org/1999/xlink">
<defs>
<style type="text/css"><![CDATA[
.g1_9{
fill: none;
stroke: #000000;
stroke-width: 0.6080556;
stroke-linecap: butt;
stroke-linejoin: miter;
}
]]></style>
</defs>
<g fill="#000000" >
<use xlink:href="#f0_o" transform="matrix(12,0,0,12,129.9,96.9)" />
<use xlink:href="#f0_1n" transform="matrix(12,0,0,12,144.8,96.9)" />
<use xlink:href="#f0_1m" transform="matrix(12,0,0,12,155,96.9)" />
<use xlink:href="#f0_1s" transform="matrix(12,0,0,12,165.9,96.9)" />
<use xlink:href="#f0_1d" transform="matrix(12,0,0,12,173.9,96.9)" />
<use xlink:href="#f0_1m" transform="matrix(12,0,0,12,183.3,96.9)" />
<use xlink:href="#f0_1s" transform="matrix(12,0,0,12,194.1,96.9)" />
<use xlink:href="#f0_1r" transform="matrix(12,0,0,12,202.1,96.9)" />
<use xlink:href="#f0_1u" transform="matrix(12,0,0,12,843.9,96.9)" />
<use xlink:href="#f0_1h" transform="matrix(12,0,0,12,854.7,96.9)" />
<use xlink:href="#f0_1h" transform="matrix(12,0,0,12,860.4,96.9)" />
</g>
<path d="M129.9,103.8l736.2,0" class="g1_9" />
<g fill="#0000FF" >
<use xlink:href="#f1_n" transform="matrix(12,0,0,12,156.7,152)" />
<use xlink:href="#f1_g" transform="matrix(12,0,0,12,165.7,152)" />
<use xlink:href="#f1_o" transform="matrix(12,0,0,12,170.7,152)" />
<use xlink:href="#f1_10" transform="matrix(12,0,0,12,197.9,152)" />
<use xlink:href="#f1_20" transform="matrix(12,0,0,12,211.5,152)" />
<use xlink:href="#f1_2a" transform="matrix(12,0,0,12,216.5,152)" />
<use xlink:href="#f1_1u" transform="matrix(12,0,0,12,223.6,152)" />
<use xlink:href="#f1_2c" transform="matrix(12,0,0,12,231.5,152)" />
<use xlink:href="#f1_2a" transform="matrix(12,0,0,12,241.4,152)" />
<use xlink:href="#f1_2a" transform="matrix(12,0,0,12,248.5,152)" />
<use xlink:href="#f1_20" transform="matrix(12,0,0,12,255.6,152)" />
<use xlink:href="#f1_26" transform="matrix(12,0,0,12,260.5,152)" />
<use xlink:href="#f1_25" transform="matrix(12,0,0,12,269.5,152)" />
</g>
<g fill="#000000" >
<use xlink:href="#f1_g" transform="matrix(12,0,0,12,289.6,152)" />
<use xlink:href="#f1_g" transform="matrix(12,0,0,12,303.7,152)" />
<use xlink:href="#f1_g" transform="matrix(12,0,0,12,317.8,152)" />
<use xlink:href="#f1_g" transform="matrix(12,0,0,12,331.9,152)" />
<use xlink:href="#f1_g" transform="matrix(12,0,0,12,346,152)" />
<use xlink:href="#f1_g" transform="matrix(12,0,0,12,360.1,152)" />
<use xlink:href="#f1_g" transform="matrix(12,0,0,12,374.2,152)" />
<use xlink:href="#f1_g" transform="matrix(12,0,0,12,388.3,152)" />
<use xlink:href="#f1_g" transform="matrix(12,0,0,12,402.4,152)" />
<use xlink:href="#f1_g" transform="matrix(12,0,0,12,416.5,152)" />
<use xlink:href="#f1_g" transform="matrix(12,0,0,12,430.6,152)" />
<use xlink:href="#f1_g" transform="matrix(12,0,0,12,444.7,152)" />
<use xlink:href="#f1_g" transform="matrix(12,0,0,12,458.8,152)" />
<use xlink:href="#f1_g" transform="matrix(12,0,0,12,472.9,152)" />
<use xlink:href="#f1_g" transform="matrix(12,0,0,12,487,152)" />
<use xlink:href="#f1_g" transform="matrix(12,0,0,12,501.1,152)" />
<use xlink:href="#f1_g" transform="matrix(12,0,0,12,515.2,152)" />
<use xlink:href="#f1_g" transform="matrix(12,0,0,12,529.3,152)" />
<use xlink:href="#f1_g" transform="matrix(12,0,0,12,543.4,152)" />
<use xlink:href="#f1_g" transform="matrix(12,0,0,12,557.5,152)" />
<use xlink:href="#f1_g" transform="matrix(12,0,0,12,571.6,152)" />
<use xlink:href="#f1_g" transform="matrix(12,0,0,12,585.7,152)" />
<use xlink:href="#f1_g" transform="matrix(12,0,0,12,599.8,152)" />
<use xlink:href="#f1_g" transform="matrix(12,0,0,12,613.9,152)" />
<use xlink:href="#f1_g" transform="matrix(12,0,0,12,628,152)" />
<use xlink:href="#f1_g" transform="matrix(12,0,0,12,642.1,152)" />
<use xlink:href="#f1_g" transform="matrix(12,0,0,12,656.2,152)" />
<use xlink:href="#f1_g" transform="matrix(12,0,0,12,670.3,152)" />
<use xlink:href="#f1_g" transform="matrix(12,0,0,12,684.4,152)" />
<use xlink:href="#f1_g" transform="matrix(12,0,0,12,698.5,152)" />
<use xlink:href="#f1_g" transform="matrix(12,0,0,12,712.6,152)" />
<use xlink:href="#f1_g" transform="matrix(12,0,0,12,726.7,152)" />
<use xlink:href="#f1_g" transform="matrix(12,0,0,12,740.8,152)" />
<use xlink:href="#f1_g" transform="matrix(12,0,0,12,754.9,152)" />
<use xlink:href="#f1_g" transform="matrix(12,0,0,12,769,152)" />
<use xlink:href="#f1_g" transform="matrix(12,0,0,12,783.1,152)" />
<use xlink:href="#f1_o" transform="matrix(12,0,0,12,805.4,152)" />
<use xlink:href="#f1_l" transform="matrix(12,0,0,12,814.3,152)" />
</g>
<g fill="#0000FF" >
<use xlink:href="#f0_g" transform="matrix(12,0,0,12,129.9,197.3)" />
<use xlink:href="#f0_o" transform="matrix(12,0,0,12,156.7,197.3)" />
<use xlink:href="#f0_1n" transform="matrix(12,0,0,12,171.6,197.3)" />
<use xlink:href="#f0_1m" transform="matrix(12,0,0,12,181.9,197.3)" />
<use xlink:href="#f0_1b" transform="matrix(12,0,0,12,193.3,197.3)" />
<use xlink:href="#f0_1k" transform="matrix(12,0,0,12,202.4,197.3)" />
<use xlink:href="#f0_1t" transform="matrix(12,0,0,12,208.1,197.3)" />
<use xlink:href="#f0_1r" transform="matrix(12,0,0,12,219.5,197.3)" />
<use xlink:href="#f0_1h" transform="matrix(12,0,0,12,227.6,197.3)" />
<use xlink:href="#f0_1n" transform="matrix(12,0,0,12,233.3,197.3)" />
<use xlink:href="#f0_1m" transform="matrix(12,0,0,12,243.6,197.3)" />
</g>
<g fill="#000000" >
<use xlink:href="#f0_g" transform="matrix(12,0,0,12,803.3,197.3)" />
<use xlink:href="#f0_h" transform="matrix(12,0,0,12,813.6,197.3)" />
</g>
<g fill="#0000FF" >
<use xlink:href="#f1_o" transform="matrix(12,0,0,12,156.7,224.7)" />
<use xlink:href="#f1_g" transform="matrix(12,0,0,12,165.7,224.7)" />
<use xlink:href="#f1_j" transform="matrix(12,0,0,12,170.7,224.7)" />
<use xlink:href="#f1_x" transform="matrix(12,0,0,12,197.9,224.7)" />
<use xlink:href="#f1_1u" transform="matrix(12,0,0,12,211.3,224.7)" />
<use xlink:href="#f1_1z" transform="matrix(12,0,0,12,218.7,224.7)" />
<use xlink:href="#f1_20" transform="matrix(12,0,0,12,228.7,224.7)" />
<use xlink:href="#f1_1w" transform="matrix(12,0,0,12,233.6,224.7)" />
<use xlink:href="#f1_2d" transform="matrix(12,0,0,12,241.6,224.7)" />
<use xlink:href="#f1_1w" transform="matrix(12,0,0,12,250.5,224.7)" />
<use xlink:href="#f1_24" transform="matrix(12,0,0,12,258.5,224.7)" />
<use xlink:href="#f1_1w" transform="matrix(12,0,0,12,273.4,224.7)" />
<use xlink:href="#f1_25" transform="matrix(12,0,0,12,281.3,224.7)" />
<use xlink:href="#f1_2b" transform="matrix(12,0,0,12,290.8,224.7)" />
<use xlink:href="#f1_2a" transform="matrix(12,0,0,12,297.7,224.7)" />
</g>
<g fill="#000000" >
<use xlink:href="#f1_g" transform="matrix(12,0,0,12,317.8,224.7)" />
<use xlink:href="#f1_g" transform="matrix(12,0,0,12,331.9,224.7)" />
<use xlink:href="#f1_g" transform="matrix(12,0,0,12,346,224.7)" />
<use xlink:href="#f1_g" transform="matrix(12,0,0,12,360.1,224.7)" />
<use xlink:href="#f1_g" transform="matrix(12,0,0,12,374.2,224.7)" />
<use xlink:href="#f1_g" transform="matrix(12,0,0,12,388.3,224.7)" />
<use xlink:href="#f1_g" transform="matrix(12,0,0,12,402.4,224.7)" />
<use xlink:href="#f1_g" transform="matrix(12,0,0,12,416.5,224.7)" />
<use xlink:href="#f1_g" transform="matrix(12,0,0,12,430.6,224.7)" />
<use xlink:href="#f1_g" transform="matrix(12,0,0,12,444.7,224.7)" />
<use xlink:href="#f1_g" transform="matrix(12,0,0,12,458.8,224.7)" />
<use xlink:href="#f1_g" transform="matrix(12,0,0,12,472.9,224.7)" />
<use xlink:href="#f1_g" transform="matrix(12,0,0,12,487,224.7)" />
<use xlink:href="#f1_g" transform="matrix(12,0,0,12,501.1,224.7)" />
<use xlink:href="#f1_g" transform="matrix(12,0,0,12,515.2,224.7)" />
<use xlink:href="#f1_g" transform="matrix(12,0,0,12,529.3,224.7)" />
<use xlink:href="#f1_g" transform="matrix(12,0,0,12,543.4,224.7)" />
<use xlink:href="#f1_g" transform="matrix(12,0,0,12,557.5,224.7)" />
<use xlink:href="#f1_g" transform="matrix(12,0,0,12,571.6,224.7)" />
<use xlink:href="#f1_g" transform="matrix(12,0,0,12,585.7,224.7)" />
<use xlink:href="#f1_g" transform="matrix(12,0,0,12,599.8,224.7)" />
<use xlink:href="#f1_g" transform="matrix(12,0,0,12,613.9,224.7)" />
<use xlink:href="#f1_g" transform="matrix(12,0,0,12,628,224.7)" />
<use xlink:href="#f1_g" transform="matrix(12,0,0,12,642.1,224.7)" />
<use xlink:href="#f1_g" transform="matrix(12,0,0,12,656.2,224.7)" />
<use xlink:href="#f1_g" transform="matrix(12,0,0,12,670.3,224.7)" />
<use xlink:href="#f1_g" transform="matrix(12,0,0,12,684.4,224.7)" />
<use xlink:href="#f1_g" transform="matrix(12,0,0,12,698.5,224.7)" />
<use xlink:href="#f1_g" transform="matrix(12,0,0,12,712.6,224.7)" />
<use xlink:href="#f1_g" transform="matrix(12,0,0,12,726.7,224.7)" />
<use xlink:href="#f1_g" transform="matrix(12,0,0,12,740.8,224.7)" />
<use xlink:href="#f1_g" transform="matrix(12,0,0,12,754.9,224.7)" />
<use xlink:href="#f1_g" transform="matrix(12,0,0,12,769,224.7)" />
<use xlink:href="#f1_g" transform="matrix(12,0,0,12,783.1,224.7)" />
<use xlink:href="#f1_o" transform="matrix(12,0,0,12,805.8,224.7)" />
<use xlink:href="#f1_p" transform="matrix(12,0,0,12,814.8,224.7)" />
</g>
<g fill="#0000FF" >
<use xlink:href="#f1_o" transform="matrix(12,0,0,12,156.7,252)" />
<use xlink:href="#f1_g" transform="matrix(12,0,0,12,165.7,252)" />
<use xlink:href="#f1_k" transform="matrix(12,0,0,12,170.7,252)" />
<use xlink:href="#f1_18" transform="matrix(12,0,0,12,197.9,252)" />
<use xlink:href="#f1_20" transform="matrix(12,0,0,12,209.1,252)" />
<use xlink:href="#f1_24" transform="matrix(12,0,0,12,214,252)" />
<use xlink:href="#f1_20" transform="matrix(12,0,0,12,228.9,252)" />
<use xlink:href="#f1_2b" transform="matrix(12,0,0,12,233.9,252)" />
<use xlink:href="#f1_1s" transform="matrix(12,0,0,12,240.9,252)" />
<use xlink:href="#f1_2b" transform="matrix(12,0,0,12,249.8,252)" />
<use xlink:href="#f1_20" transform="matrix(12,0,0,12,256.8,252)" />
<use xlink:href="#f1_26" transform="matrix(12,0,0,12,261.7,252)" />
<use xlink:href="#f1_25" transform="matrix(12,0,0,12,270.7,252)" />
<use xlink:href="#f1_2a" transform="matrix(12,0,0,12,280.6,252)" />
</g>
<g fill="#000000" >
<use xlink:href="#f1_g" transform="matrix(12,0,0,12,303.7,252)" />
<use xlink:href="#f1_g" transform="matrix(12,0,0,12,317.8,252)" />
<use xlink:href="#f1_g" transform="matrix(12,0,0,12,331.9,252)" />
<use xlink:href="#f1_g" transform="matrix(12,0,0,12,346,252)" />
<use xlink:href="#f1_g" transform="matrix(12,0,0,12,360.1,252)" />
<use xlink:href="#f1_g" transform="matrix(12,0,0,12,374.2,252)" />
<use xlink:href="#f1_g" transform="matrix(12,0,0,12,388.3,252)" />
<use xlink:href="#f1_g" transform="matrix(12,0,0,12,402.4,252)" />
<use xlink:href="#f1_g" transform="matrix(12,0,0,12,416.5,252)" />
<use xlink:href="#f1_g" transform="matrix(12,0,0,12,430.6,252)" />
<use xlink:href="#f1_g" transform="matrix(12,0,0,12,444.7,252)" />
<use xlink:href="#f1_g" transform="matrix(12,0,0,12,458.8,252)" />
<use xlink:href="#f1_g" transform="matrix(12,0,0,12,472.9,252)" />
<use xlink:href="#f1_g" transform="matrix(12,0,0,12,487,252)" />
<use xlink:href="#f1_g" transform="matrix(12,0,0,12,501.1,252)" />
<use xlink:href="#f1_g" transform="matrix(12,0,0,12,515.2,252)" />
<use xlink:href="#f1_g" transform="matrix(12,0,0,12,529.3,252)" />
<use xlink:href="#f1_g" transform="matrix(12,0,0,12,543.4,252)" />
<use xlink:href="#f1_g" transform="matrix(12,0,0,12,557.5,252)" />
<use xlink:href="#f1_g" transform="matrix(12,0,0,12,571.6,252)" />
<use xlink:href="#f1_g" transform="matrix(12,0,0,12,585.7,252)" />
<use xlink:href="#f1_g" transform="matrix(12,0,0,12,599.8,252)" />
<use xlink:href="#f1_g" transform="matrix(12,0,0,12,613.9,252)" />
<use xlink:href="#f1_g" transform="matrix(12,0,0,12,628,252)" />
<use xlink:href="#f1_g" transform="matrix(12,0,0,12,642.1,252)" />
<use xlink:href="#f1_g" transform="matrix(12,0,0,12,656.2,252)" />
<use xlink:href="#f1_g" transform="matrix(12,0,0,12,670.3,252)" />
<use xlink:href="#f1_g" transform="matrix(12,0,0,12,684.4,252)" />
<use xlink:href="#f1_g" transform="matrix(12,0,0,12,698.5,252)" />
<use xlink:href="#f1_g" transform="matrix(12,0,0,12,712.6,252)" />
<use xlink:href="#f1_g" transform="matrix(12,0,0,12,726.7,252)" />
<use xlink:href="#f1_g" transform="matrix(12,0,0,12,740.8,252)" />
<use xlink:href="#f1_g" transform="matrix(12,0,0,12,754.9,252)" />
<use xlink:href="#f1_g" transform="matrix(12,0,0,12,769,252)" />
<use xlink:href="#f1_g" transform="matrix(12,0,0,12,783.1,252)" />
<use xlink:href="#f1_o" transform="matrix(12,0,0,12,805.4,252)" />
<use xlink:href="#f1_q" transform="matrix(12,0,0,12,814.3,252)" />
</g>
<g fill="#0000FF" >
<use xlink:href="#f1_o" transform="matrix(12,0,0,12,156.7,279.4)" />
<use xlink:href="#f1_g" transform="matrix(12,0,0,12,165.7,279.4)" />
<use xlink:href="#f1_l" transform="matrix(12,0,0,12,170.7,279.4)" />
<use xlink:href="#f1_12" transform="matrix(12,0,0,12,197.9,279.4)" />
<use xlink:href="#f1_2c" transform="matrix(12,0,0,12,208.1,279.4)" />
<use xlink:href="#f1_2b" transform="matrix(12,0,0,12,218,279.4)" />
<use xlink:href="#f1_2c" transform="matrix(12,0,0,12,224.9,279.4)" />
<use xlink:href="#f1_29" transform="matrix(12,0,0,12,234.9,279.4)" />
<use xlink:href="#f1_1w" transform="matrix(12,0,0,12,241.8,279.4)" />
<use xlink:href="#f1_10" transform="matrix(12,0,0,12,255.8,279.4)" />
<use xlink:href="#f1_20" transform="matrix(12,0,0,12,269.4,279.4)" />
<use xlink:href="#f1_29" transform="matrix(12,0,0,12,274.4,279.4)" />
<use xlink:href="#f1_1w" transform="matrix(12,0,0,12,281.3,279.4)" />
<use xlink:href="#f1_1u" transform="matrix(12,0,0,12,289.3,279.4)" />
<use xlink:href="#f1_2b" transform="matrix(12,0,0,12,297.2,279.4)" />
<use xlink:href="#f1_20" transform="matrix(12,0,0,12,304.2,279.4)" />
<use xlink:href="#f1_26" transform="matrix(12,0,0,12,309.1,279.4)" />
<use xlink:href="#f1_25" transform="matrix(12,0,0,12,318.1,279.4)" />
<use xlink:href="#f1_2a" transform="matrix(12,0,0,12,328,279.4)" />
</g>
<g fill="#000000" >
<use xlink:href="#f1_g" transform="matrix(12,0,0,12,346,279.4)" />
<use xlink:href="#f1_g" transform="matrix(12,0,0,12,360.1,279.4)" />
<use xlink:href="#f1_g" transform="matrix(12,0,0,12,374.2,279.4)" />
<use xlink:href="#f1_g" transform="matrix(12,0,0,12,388.3,279.4)" />
<use xlink:href="#f1_g" transform="matrix(12,0,0,12,402.4,279.4)" />
<use xlink:href="#f1_g" transform="matrix(12,0,0,12,416.5,279.4)" />
<use xlink:href="#f1_g" transform="matrix(12,0,0,12,430.6,279.4)" />
<use xlink:href="#f1_g" transform="matrix(12,0,0,12,444.7,279.4)" />
<use xlink:href="#f1_g" transform="matrix(12,0,0,12,458.8,279.4)" />
<use xlink:href="#f1_g" transform="matrix(12,0,0,12,472.9,279.4)" />
<use xlink:href="#f1_g" transform="matrix(12,0,0,12,487,279.4)" />
<use xlink:href="#f1_g" transform="matrix(12,0,0,12,501.1,279.4)" />
<use xlink:href="#f1_g" transform="matrix(12,0,0,12,515.2,279.4)" />
<use xlink:href="#f1_g" transform="matrix(12,0,0,12,529.3,279.4)" />
<use xlink:href="#f1_g" transform="matrix(12,0,0,12,543.4,279.4)" />
<use xlink:href="#f1_g" transform="matrix(12,0,0,12,557.5,279.4)" />
<use xlink:href="#f1_g" transform="matrix(12,0,0,12,571.6,279.4)" />
<use xlink:href="#f1_g" transform="matrix(12,0,0,12,585.7,279.4)" />
<use xlink:href="#f1_g" transform="matrix(12,0,0,12,599.8,279.4)" />
<use xlink:href="#f1_g" transform="matrix(12,0,0,12,613.9,279.4)" />
<use xlink:href="#f1_g" transform="matrix(12,0,0,12,628,279.4)" />
<use xlink:href="#f1_g" transform="matrix(12,0,0,12,642.1,279.4)" />
<use xlink:href="#f1_g" transform="matrix(12,0,0,12,656.2,279.4)" />
<use xlink:href="#f1_g" transform="matrix(12,0,0,12,670.3,279.4)" />
<use xlink:href="#f1_g" transform="matrix(12,0,0,12,684.4,279.4)" />
<use xlink:href="#f1_g" transform="matrix(12,0,0,12,698.5,279.4)" />
<use xlink:href="#f1_g" transform="matrix(12,0,0,12,712.6,279.4)" />
<use xlink:href="#f1_g" transform="matrix(12,0,0,12,726.7,279.4)" />
<use xlink:href="#f1_g" transform="matrix(12,0,0,12,740.8,279.4)" />
<use xlink:href="#f1_g" transform="matrix(12,0,0,12,754.9,279.4)" />
<use xlink:href="#f1_g" transform="matrix(12,0,0,12,769,279.4)" />
<use xlink:href="#f1_g" transform="matrix(12,0,0,12,783.1,279.4)" />
<use xlink:href="#f1_o" transform="matrix(12,0,0,12,805.4,279.4)" />
<use xlink:href="#f1_q" transform="matrix(12,0,0,12,814.3,279.4)" />
</g>
<g fill="#0000FF" >
<use xlink:href="#f1_o" transform="matrix(12,0,0,12,156.7,306.8)" />
<use xlink:href="#f1_g" transform="matrix(12,0,0,12,165.7,306.8)" />
<use xlink:href="#f1_m" transform="matrix(12,0,0,12,170.7,306.8)" />
<use xlink:href="#f1_1e" transform="matrix(12,0,0,12,197.9,306.8)" />
<use xlink:href="#f1_1w" transform="matrix(12,0,0,12,211,306.8)" />
<use xlink:href="#f1_3" transform="matrix(12,0,0,12,219,306.8)" />
<use xlink:href="#f1_1w" transform="matrix(12,0,0,12,228.9,306.8)" />
<use xlink:href="#f1_1u" transform="matrix(12,0,0,12,236.9,306.8)" />
<use xlink:href="#f1_2b" transform="matrix(12,0,0,12,244.8,306.8)" />
<use xlink:href="#f1_20" transform="matrix(12,0,0,12,251.8,306.8)" />
<use xlink:href="#f1_26" transform="matrix(12,0,0,12,256.8,306.8)" />
<use xlink:href="#f1_25" transform="matrix(12,0,0,12,265.7,306.8)" />
<use xlink:href="#f1_2a" transform="matrix(12,0,0,12,275.6,306.8)" />
</g>
<g fill="#000000" >
<use xlink:href="#f1_g" transform="matrix(12,0,0,12,289.6,306.8)" />
<use xlink:href="#f1_g" transform="matrix(12,0,0,12,303.7,306.8)" />
<use xlink:href="#f1_g" transform="matrix(12,0,0,12,317.8,306.8)" />
<use xlink:href="#f1_g" transform="matrix(12,0,0,12,331.9,306.8)" />
<use xlink:href="#f1_g" transform="matrix(12,0,0,12,346,306.8)" />
<use xlink:href="#f1_g" transform="matrix(12,0,0,12,360.1,306.8)" />
<use xlink:href="#f1_g" transform="matrix(12,0,0,12,374.2,306.8)" />
<use xlink:href="#f1_g" transform="matrix(12,0,0,12,388.3,306.8)" />
<use xlink:href="#f1_g" transform="matrix(12,0,0,12,402.4,306.8)" />
<use xlink:href="#f1_g" transform="matrix(12,0,0,12,416.5,306.8)" />
<use xlink:href="#f1_g" transform="matrix(12,0,0,12,430.6,306.8)" />
<use xlink:href="#f1_g" transform="matrix(12,0,0,12,444.7,306.8)" />
<use xlink:href="#f1_g" transform="matrix(12,0,0,12,458.8,306.8)" />
<use xlink:href="#f1_g" transform="matrix(12,0,0,12,472.9,306.8)" />
<use xlink:href="#f1_g" transform="matrix(12,0,0,12,487,306.8)" />
<use xlink:href="#f1_g" transform="matrix(12,0,0,12,501.1,306.8)" />
<use xlink:href="#f1_g" transform="matrix(12,0,0,12,515.2,306.8)" />
<use xlink:href="#f1_g" transform="matrix(12,0,0,12,529.3,306.8)" />
<use xlink:href="#f1_g" transform="matrix(12,0,0,12,543.4,306.8)" />
<use xlink:href="#f1_g" transform="matrix(12,0,0,12,557.5,306.8)" />
<use xlink:href="#f1_g" transform="matrix(12,0,0,12,571.6,306.8)" />
<use xlink:href="#f1_g" transform="matrix(12,0,0,12,585.7,306.8)" />
<use xlink:href="#f1_g" transform="matrix(12,0,0,12,599.8,306.8)" />
<use xlink:href="#f1_g" transform="matrix(12,0,0,12,613.9,306.8)" />
<use xlink:href="#f1_g" transform="matrix(12,0,0,12,628,306.8)" />
<use xlink:href="#f1_g" transform="matrix(12,0,0,12,642.1,306.8)" />
<use xlink:href="#f1_g" transform="matrix(12,0,0,12,656.2,306.8)" />
<use xlink:href="#f1_g" transform="matrix(12,0,0,12,670.3,306.8)" />
<use xlink:href="#f1_g" transform="matrix(12,0,0,12,684.4,306.8)" />
<use xlink:href="#f1_g" transform="matrix(12,0,0,12,698.5,306.8)" />
<use xlink:href="#f1_g" transform="matrix(12,0,0,12,712.6,306.8)" />
<use xlink:href="#f1_g" transform="matrix(12,0,0,12,726.7,306.8)" />
<use xlink:href="#f1_g" transform="matrix(12,0,0,12,740.8,306.8)" />
<use xlink:href="#f1_g" transform="matrix(12,0,0,12,754.9,306.8)" />
<use xlink:href="#f1_g" transform="matrix(12,0,0,12,769,306.8)" />
<use xlink:href="#f1_g" transform="matrix(12,0,0,12,783.1,306.8)" />
<use xlink:href="#f1_o" transform="matrix(12,0,0,12,805.4,306.8)" />
<use xlink:href="#f1_r" transform="matrix(12,0,0,12,814.3,306.8)" />
</g>
<g fill="#0000FF" >
<use xlink:href="#f0_m" transform="matrix(12,0,0,12,129.9,352.1)" />
<use xlink:href="#f0_1o" transform="matrix(12,0,0,12,145.4,352.1)" />
<use xlink:href="#f0_1o" transform="matrix(12,0,0,12,156.9,352.1)" />
<use xlink:href="#f0_1d" transform="matrix(12,0,0,12,168.8,352.1)" />
<use xlink:href="#f0_1m" transform="matrix(12,0,0,12,178.2,352.1)" />
<use xlink:href="#f0_1c" transform="matrix(12,0,0,12,189.6,352.1)" />
<use xlink:href="#f0_1h" transform="matrix(12,0,0,12,201,352.1)" />
<use xlink:href="#f0_1b" transform="matrix(12,0,0,12,206.7,352.1)" />
<use xlink:href="#f0_1d" transform="matrix(12,0,0,12,215.9,352.1)" />
<use xlink:href="#f0_1r" transform="matrix(12,0,0,12,225.3,352.1)" />
</g>
<g fill="#000000" >
<use xlink:href="#f0_h" transform="matrix(12,0,0,12,804.3,352.1)" />
<use xlink:href="#f0_b" transform="matrix(12,0,0,12,814.6,352.1)" />
</g>
<g fill="#0000FF" >
<use xlink:href="#f0_m" transform="matrix(12,0,0,12,129.9,397.4)" />
<use xlink:href="#f0_m" transform="matrix(12,0,0,12,156.7,397.4)" />
<use xlink:href="#f0_1t" transform="matrix(12,0,0,12,172.3,397.4)" />
<use xlink:href="#f0_1s" transform="matrix(12,0,0,12,183.7,397.4)" />
<use xlink:href="#f0_1n" transform="matrix(12,0,0,12,191.7,397.4)" />
<use xlink:href="#f0_8" transform="matrix(12,0,0,12,201.9,397.4)" />
<use xlink:href="#f0_1f" transform="matrix(12,0,0,12,208.8,397.4)" />
<use xlink:href="#f0_1d" transform="matrix(12,0,0,12,219.1,397.4)" />
<use xlink:href="#f0_1m" transform="matrix(12,0,0,12,228.4,397.4)" />
<use xlink:href="#f0_1d" transform="matrix(12,0,0,12,239.9,397.4)" />
<use xlink:href="#f0_1q" transform="matrix(12,0,0,12,249.2,397.4)" />
<use xlink:href="#f0_19" transform="matrix(12,0,0,12,257.6,397.4)" />
<use xlink:href="#f0_1s" transform="matrix(12,0,0,12,267.6,397.4)" />
<use xlink:href="#f0_1d" transform="matrix(12,0,0,12,275.6,397.4)" />
<use xlink:href="#f0_1c" transform="matrix(12,0,0,12,285,397.4)" />
<use xlink:href="#f0_1q" transform="matrix(12,0,0,12,303.2,397.4)" />
<use xlink:href="#f0_1d" transform="matrix(12,0,0,12,311.6,397.4)" />
<use xlink:href="#f0_1o" transform="matrix(12,0,0,12,321,397.4)" />
<use xlink:href="#f0_1n" transform="matrix(12,0,0,12,333,397.4)" />
<use xlink:href="#f0_1q" transform="matrix(12,0,0,12,343.3,397.4)" />
<use xlink:href="#f0_1s" transform="matrix(12,0,0,12,351.7,397.4)" />
<use xlink:href="#f0_1e" transform="matrix(12,0,0,12,366.5,397.4)" />
<use xlink:href="#f0_1n" transform="matrix(12,0,0,12,372.8,397.4)" />
<use xlink:href="#f0_1q" transform="matrix(12,0,0,12,383.1,397.4)" />
<use xlink:href="#f0_a" transform="matrix(12,0,0,12,398.3,397.4)" />
<use xlink:href="#f0_b" transform="matrix(12,0,0,12,408.6,397.4)" />
<use xlink:href="#f0_8" transform="matrix(12,0,0,12,418.9,397.4)" />
<use xlink:href="#f0_19" transform="matrix(12,0,0,12,425.7,397.4)" />
<use xlink:href="#f0_1h" transform="matrix(12,0,0,12,435.7,397.4)" />
<use xlink:href="#f0_1q" transform="matrix(12,0,0,12,441.4,397.4)" />
<use xlink:href="#f0_1k" transform="matrix(12,0,0,12,449.8,397.4)" />
<use xlink:href="#f0_1h" transform="matrix(12,0,0,12,455.5,397.4)" />
<use xlink:href="#f0_1m" transform="matrix(12,0,0,12,461.2,397.4)" />
<use xlink:href="#f0_1d" transform="matrix(12,0,0,12,472.6,397.4)" />
<use xlink:href="#f0_1c" transform="matrix(12,0,0,12,488.9,397.4)" />
<use xlink:href="#f0_19" transform="matrix(12,0,0,12,500.3,397.4)" />
<use xlink:href="#f0_1s" transform="matrix(12,0,0,12,510.2,397.4)" />
<use xlink:href="#f0_19" transform="matrix(12,0,0,12,518.2,397.4)" />
<use xlink:href="#f0_1r" transform="matrix(12,0,0,12,528.2,397.4)" />
<use xlink:href="#f0_1d" transform="matrix(12,0,0,12,536.3,397.4)" />
<use xlink:href="#f0_1s" transform="matrix(12,0,0,12,545.7,397.4)" />
<use xlink:href="#f0_6" transform="matrix(12,0,0,12,560.6,397.4)" />
<use xlink:href="#f0_1" transform="matrix(12,0,0,12,568.5,397.4)" />
<use xlink:href="#f0_1u" transform="matrix(12,0,0,12,580,397.4)" />
<use xlink:href="#f0_1d" transform="matrix(12,0,0,12,590.2,397.4)" />
<use xlink:href="#f0_1a" transform="matrix(12,0,0,12,606.4,397.4)" />
<use xlink:href="#f0_19" transform="matrix(12,0,0,12,617.9,397.4)" />
<use xlink:href="#f0_1r" transform="matrix(12,0,0,12,627.9,397.4)" />
<use xlink:href="#f0_1d" transform="matrix(12,0,0,12,636,397.4)" />
<use xlink:href="#f0_1j" transform="matrix(12,0,0,12,652.2,397.4)" />
<use xlink:href="#f0_1d" transform="matrix(12,0,0,12,662.5,397.4)" />
<use xlink:href="#f0_1q" transform="matrix(12,0,0,12,671.8,397.4)" />
<use xlink:href="#f0_1m" transform="matrix(12,0,0,12,680.2,397.4)" />
<use xlink:href="#f0_1d" transform="matrix(12,0,0,12,691.6,397.4)" />
<use xlink:href="#f0_1k" transform="matrix(12,0,0,12,701,397.4)" />
<use xlink:href="#f0_1r" transform="matrix(12,0,0,12,706.7,397.4)" />
<use xlink:href="#f0_7" transform="matrix(12,0,0,12,714.8,397.4)" />
</g>
<g fill="#000000" >
<use xlink:href="#f0_h" transform="matrix(12,0,0,12,802.8,397.4)" />
<use xlink:href="#f0_d" transform="matrix(12,0,0,12,813.1,397.4)" />
</g>
<g fill="#0000FF" >
<use xlink:href="#f0_n" transform="matrix(12,0,0,12,129.9,442.6)" />
<use xlink:href="#f0_m" transform="matrix(12,0,0,12,156.7,442.6)" />
<use xlink:href="#f0_1t" transform="matrix(12,0,0,12,172.3,442.6)" />
<use xlink:href="#f0_1s" transform="matrix(12,0,0,12,183.7,442.6)" />
<use xlink:href="#f0_1n" transform="matrix(12,0,0,12,191.7,442.6)" />
<use xlink:href="#f0_8" transform="matrix(12,0,0,12,201.9,442.6)" />
<use xlink:href="#f0_1f" transform="matrix(12,0,0,12,208.8,442.6)" />
<use xlink:href="#f0_1d" transform="matrix(12,0,0,12,219.1,442.6)" />
<use xlink:href="#f0_1m" transform="matrix(12,0,0,12,228.4,442.6)" />
<use xlink:href="#f0_1d" transform="matrix(12,0,0,12,239.9,442.6)" />
<use xlink:href="#f0_1q" transform="matrix(12,0,0,12,249.2,442.6)" />
<use xlink:href="#f0_19" transform="matrix(12,0,0,12,257.6,442.6)" />
<use xlink:href="#f0_1s" transform="matrix(12,0,0,12,267.6,442.6)" />
<use xlink:href="#f0_1d" transform="matrix(12,0,0,12,275.6,442.6)" />
<use xlink:href="#f0_1c" transform="matrix(12,0,0,12,285,442.6)" />
<use xlink:href="#f0_1q" transform="matrix(12,0,0,12,303.2,442.6)" />
<use xlink:href="#f0_1d" transform="matrix(12,0,0,12,311.6,442.6)" />
<use xlink:href="#f0_1o" transform="matrix(12,0,0,12,321,442.6)" />
<use xlink:href="#f0_1n" transform="matrix(12,0,0,12,333,442.6)" />
<use xlink:href="#f0_1q" transform="matrix(12,0,0,12,343.3,442.6)" />
<use xlink:href="#f0_1s" transform="matrix(12,0,0,12,351.7,442.6)" />
<use xlink:href="#f0_1e" transform="matrix(12,0,0,12,366.5,442.6)" />
<use xlink:href="#f0_1n" transform="matrix(12,0,0,12,372.8,442.6)" />
<use xlink:href="#f0_1q" transform="matrix(12,0,0,12,383.1,442.6)" />
<use xlink:href="#f0_a" transform="matrix(12,0,0,12,398.3,442.6)" />
<use xlink:href="#f0_b" transform="matrix(12,0,0,12,408.6,442.6)" />
<use xlink:href="#f0_8" transform="matrix(12,0,0,12,418.8,442.6)" />
<use xlink:href="#f0_19" transform="matrix(12,0,0,12,425.7,442.6)" />
<use xlink:href="#f0_1h" transform="matrix(12,0,0,12,435.7,442.6)" />
<use xlink:href="#f0_1q" transform="matrix(12,0,0,12,441.4,442.6)" />
<use xlink:href="#f0_1k" transform="matrix(12,0,0,12,449.8,442.6)" />
<use xlink:href="#f0_1h" transform="matrix(12,0,0,12,455.5,442.6)" />
<use xlink:href="#f0_1m" transform="matrix(12,0,0,12,461.2,442.6)" />
<use xlink:href="#f0_1d" transform="matrix(12,0,0,12,472.6,442.6)" />
<use xlink:href="#f0_1c" transform="matrix(12,0,0,12,488.8,442.6)" />
<use xlink:href="#f0_19" transform="matrix(12,0,0,12,500.3,442.6)" />
<use xlink:href="#f0_1s" transform="matrix(12,0,0,12,510.2,442.6)" />
<use xlink:href="#f0_19" transform="matrix(12,0,0,12,518.2,442.6)" />
<use xlink:href="#f0_1r" transform="matrix(12,0,0,12,528.2,442.6)" />
<use xlink:href="#f0_1d" transform="matrix(12,0,0,12,536.3,442.6)" />
<use xlink:href="#f0_1s" transform="matrix(12,0,0,12,545.7,442.6)" />
<use xlink:href="#f0_6" transform="matrix(12,0,0,12,560.5,442.6)" />
<use xlink:href="#f0_1e" transform="matrix(12,0,0,12,568.5,442.6)" />
<use xlink:href="#f0_1n" transform="matrix(12,0,0,12,574.8,442.6)" />
<use xlink:href="#f0_1t" transform="matrix(12,0,0,12,585.1,442.6)" />
<use xlink:href="#f0_1q" transform="matrix(12,0,0,12,596.5,442.6)" />
<use xlink:href="#f0_1a" transform="matrix(12,0,0,12,611.7,442.6)" />
<use xlink:href="#f0_19" transform="matrix(12,0,0,12,623.2,442.6)" />
<use xlink:href="#f0_1r" transform="matrix(12,0,0,12,633.1,442.6)" />
<use xlink:href="#f0_1d" transform="matrix(12,0,0,12,641.3,442.6)" />
<use xlink:href="#f0_1j" transform="matrix(12,0,0,12,657.5,442.6)" />
<use xlink:href="#f0_1d" transform="matrix(12,0,0,12,667.8,442.6)" />
<use xlink:href="#f0_1q" transform="matrix(12,0,0,12,677.1,442.6)" />
<use xlink:href="#f0_1m" transform="matrix(12,0,0,12,685.5,442.6)" />
<use xlink:href="#f0_1d" transform="matrix(12,0,0,12,696.9,442.6)" />
<use xlink:href="#f0_1k" transform="matrix(12,0,0,12,706.3,442.6)" />
<use xlink:href="#f0_1r" transform="matrix(12,0,0,12,712,442.6)" />
<use xlink:href="#f0_7" transform="matrix(12,0,0,12,720.1,442.6)" />
</g>
<g fill="#000000" >
<use xlink:href="#f0_i" transform="matrix(12,0,0,12,803.3,442.6)" />
<use xlink:href="#f0_h" transform="matrix(12,0,0,12,813.6,442.6)" />
</g>
<defs>
	<path d="M696.7,-18.2c-374.3,0,-602,227.5,-602,542.2c0,320.9,235.3,542.4,600.4,542.4c113.1,0,215.5,-36.7,301,-110l114.6,110c33.6,0,33.6,-4.6,33.6,-39.7l0,-333.1c0,-36.7,0,-39.7,-35.1,-39.7c-18.4,0,-32.1,0,-35.2,13.7c-45.8,268.9,-230.7,333.1,-345.2,333.1c-73.4,0,-226.2,-15.3,-323.9,-129.9C333.1,785.3,310.1,673.8,310.1,524C310.1,313.2,359,229.2,412.5,171.1C498.1,74.9,632.5,47.4,731.8,47.4c137.5,0,334.6,79.4,348.3,311.6c1.6,16.8,16.8,16.8,32.1,16.8c22.9,0,32.1,-1.5,32.1,-27.5C1144.3,168.1,968.6,-18.2,696.7,-18.2Z" 
	id="f0_o"
	transform="scale(0.001,-0.001)" />

	<path d="M429.3,45.8c197.1,0,197.1,177.3,197.1,304.1c0,73.3,0,152.7,-30.6,207.7c-25.9,42.8,-80.9,84.1,-168,84.1c-65.7,0,-134.5,-27.5,-168.1,-88.6c-29,-55,-29,-131.4,-29,-203.2c0,-125.3,0,-304.1,198.6,-304.1ZM427.8,-9.1C187.9,-9.1,47.4,134.4,47.4,334.6c0,198.6,132.9,357.5,381.9,357.5c239.9,0,380.4,-151.3,380.4,-357.5C809.7,142.1,676.8,-9.1,427.8,-9.1Z" 
	id="f0_1n"
	transform="scale(0.001,-0.001)" />

	<path d="M64.2,0l0,65.7l105.4,0l0,484.3c0,59.6,-10.7,59.6,-105.4,59.6l0,65.7l258.2,12.2l0,-168.1l1.5,0C375.8,634,470.6,687.5,580.6,687.5c168,0,230.7,-74.9,230.7,-220l0,-401.8l105.4,0L881.5,3.1l-197.1,0C574.4,3.1,727.2,0,539.3,0l0,65.7l105.4,0l0,418.6c0,116.1,-32.1,152.8,-88.6,152.8c-97.8,0,-220,-81,-220,-246l0,-325.4l105.4,0L406.4,3.1l-197.1,0C99.3,3.1,252.1,0,64.2,0Z" 
	id="f0_1m"
	transform="scale(0.001,-0.001)" />

	<path d="M391.1,-9.1c-110,0,-235.3,35.1,-235.3,197l0,424.7l-123.7,0l0,50.5c151.2,4.5,224.6,155.8,226.1,307l64.2,0l0,-291.8l220,0l0,-65.7l-220,0l0,-429.3c0,-35.1,0,-137.5,91.6,-137.5c47.4,0,93.2,44.3,93.2,145.2l0,79.4l64.2,0l0,-81C571.4,76.4,504.2,-9.1,391.1,-9.1Z" 
	id="f0_1s"
	transform="scale(0.001,-0.001)" />

	<path d="M594.3,381.9C592.8,458.3,579,641.7,415.6,641.7c-65.7,0,-119.2,-33.6,-148.2,-82.5C235.3,504.2,233.8,444.6,230.7,381.9ZM435.4,-9.1c-230.7,0,-388,139,-388,352.9c0,192.5,129.8,348.3,368.2,348.3c88.6,0,174.1,-19.9,238.3,-84c70.3,-71.8,81,-186.4,81,-232.3c0,-38.2,-9.2,-38.2,-44.3,-38.2l-459.9,0c0,-85.5,1.5,-291.8,223.1,-291.8c73.3,0,174.1,32.1,213.8,131.4c9.2,19.9,10.7,24.5,35.2,24.5c9.1,0,32.1,0,32.1,-22.9c0,-26,-68.8,-187.9,-299.5,-187.9Z" 
	id="f0_1d"
	transform="scale(0.001,-0.001)" />

	<path d="M81,-9.1C58.1,-9.1,58.1,1.5,58.1,30.6l0,175.7c0,35.1,0,39.7,32,39.7c26,0,27.5,-1.6,36.7,-32.1C169.6,65.7,265.8,41.3,343.8,41.3c32,0,171.1,0,171.1,117.6c0,64.2,-61.1,102.4,-122.3,116.1c-6.1,0,-56.5,9.2,-97.7,16.8C247.5,299.4,58.1,333.1,58.1,493.5c0,198.6,229.1,198.6,275,198.6c55,0,111.5,-9.2,154.3,-33.6c7.6,4.6,24.4,15.3,30.5,19.8c22.9,13.8,26,13.8,35.2,13.8c22.9,0,22.9,-10.7,22.9,-39.7L576,521c0,-35.2,0,-39.7,-32.1,-39.7c-18.3,0,-30.6,0,-32.1,19.8c-3,38.2,-12.2,145.2,-181.8,145.2c-32.1,0,-168.1,0,-168.1,-99.4c0,-73.3,91.7,-90.1,189.5,-106.9c82.5,-15.3,134.4,-24.4,197.1,-76.4C579,336.1,618.8,285.7,618.8,212.4C618.8,9.2,427.8,-9.1,343.8,-9.1c-27.5,0,-110,0,-178.8,53.4l-39.7,-29C94.7,-9.1,91.7,-9.1,81,-9.1Z" 
	id="f0_1r"
	transform="scale(0.001,-0.001)" />

	<path d="M453.8,-7.5c-35.2,0,-38.2,7.5,-52,36.5L132.9,612.6l-96.2,0l39.7,62.7l174.2,0c106.9,0,-41.3,3,142,3l0,-65.7l-84,0L505.7,183.3L684.4,576c7.7,15.3,7.7,16.8,7.7,18.3c0,10.7,-33.6,18.3,-74.9,18.3l87.1,62.7l107,0c3,0,-62.7,3,58,3l0,-65.7c-96.2,0,-102.4,-12.2,-113,-35.1L504.2,26C490.4,-4.5,478.2,-7.5,453.8,-7.5Z" 
	id="f0_1u"
	transform="scale(0.001,-0.001)" />

	<path d="M67.2,0l0,65.7l105.4,0l0,484.3c0,59.6,-10.7,59.6,-100.8,59.6l0,65.7l259.7,12.2l0,-621.8l94.8,0L389.6,3.1l-181.8,0C102.4,3.1,249,0,67.2,0ZM230.7,841.8c-62.6,0,-110,52,-110,110c0,58.1,47.4,110,110,110c59.6,0,110,-47.4,110,-110c0,-62.6,-50.4,-110,-110,-110Z" 
	id="f0_1h"
	transform="scale(0.001,-0.001)" />

	<path d="M348.3,-32C178.8,-32,74.9,116.1,74.9,246c0,59.6,39.7,73.3,67.2,73.3c38.2,0,67.2,-24.4,67.2,-67.2c0,-52,-41.2,-67.2,-67.2,-67.2c-7.7,0,-16.8,1.5,-24.5,4.5C145.1,77.9,244.4,9.2,345.3,9.2c67.2,0,126.8,38.2,160.4,93.2c42.8,68.7,42.8,155.8,42.8,213.9c0,58,-1.6,132.9,-27.5,192.5C508.8,534.7,469,609.6,388.1,609.6c-76.4,0,-148.2,-36.7,-191,-99.3C181.8,491.9,180.3,490.4,172.6,490.4c-18.3,0,-18.3,9.2,-18.3,36.7l0,453.7c0,24.5,0,33.6,12.2,33.6c1.6,0,4.6,0,15.3,-4.5c29,-12.3,100.8,-42.8,201.7,-42.8c39.7,0,113,4.6,198.6,41.2c13.7,6.1,16.8,6.1,19.8,6.1c9.2,0,12.3,-7.6,12.3,-13.7c0,-21.4,-110,-148.2,-282.7,-148.2c-16.8,0,-70.2,1.5,-135.9,22.9l0,-316.2c39.7,42.7,106.9,80.9,194,80.9c160.4,0,282.6,-151.2,282.6,-333C672.2,113.1,521,-32,348.3,-32Z" 
	id="f1_n"
	transform="scale(0.001,-0.001)" />

	<path d="M206.3,0C171.1,0,132.9,29,132.9,74.9c0,38.2,30.6,73.3,74.9,73.3c38.2,0,73.3,-32.1,73.3,-73.3C281.1,32.1,247.5,0,206.3,0Z" 
	id="f1_g"
	transform="scale(0.001,-0.001)" />

	<path d="M375.8,9.2c61.1,0,116.1,25.9,154.3,99.3c29.1,58,29.1,126.8,29.1,204.7c0,65.7,0,142.1,-24.5,198.6c-22.9,52,-67.2,108.5,-151.2,108.5C246,620.3,191,469,191,348.3c0,-106.9,15.3,-181.8,29,-221.5C233.8,94.7,279.6,9.2,375.8,9.2Zm0,-41.2C246,-32,62.6,62.6,62.6,482.8c0,336.1,201.7,533.2,394.2,533.2c132.9,0,191,-77.9,191,-157.4c0,-44.3,-26,-67.2,-64.2,-67.2c-39.7,0,-62.6,29,-62.6,62.6c0,62.7,58,62.7,76.4,62.7c-29.1,45.8,-84.1,62.6,-139.1,62.6c-82.5,0,-270.4,-61.1,-270.4,-447.6l0,-41.3c15.3,42.8,65.7,160.4,201.7,160.4c152.8,0,294.8,-135.9,294.8,-339.1C684.4,113.1,542.4,-32,375.8,-32Z" 
	id="f1_o"
	transform="scale(0.001,-0.001)" />

	<path d="M560.7,44.3c128.3,0,220,62.6,270.4,126.8c87.1,113.1,88.6,256.7,88.6,342.2c0,61.1,0,215.5,-68.7,323.9c-62.7,100.9,-163.5,162,-290.3,162l-160.4,0C333.1,999.2,330,988.5,330,938.1l0,-832.7C330,55,333.1,44.3,400.3,44.3ZM64.2,0l0,44.3l30.5,0c110,0,114.6,15.3,114.6,71.8l0,811.3c0,56.5,-4.6,71.8,-114.6,71.8l-30.5,0l0,44.3l534.7,0c253.6,0,459.9,-236.8,459.9,-531.7C1058.8,229.2,854,0,598.9,0Z" 
	id="f1_10"
	transform="scale(0.001,-0.001)" />

	<path d="M50.4,0l0,44.3c99.3,0,116.1,0,116.1,68.8l0,415.5c0,74.9,-13.7,84,-111.5,84l0,44.3l207.8,16.9l0,-562.3c0,-59.6,6.1,-67.2,105.4,-67.2L316.3,3.1l-149.8,0C93.2,3.1,210.8,0,50.4,0ZM191,867.8c-36.7,0,-73.4,29,-73.4,74.8c0,41.3,33.7,73.4,73.4,73.4c42.8,0,74.8,-35.2,74.8,-74.9c0,-33.6,-27.5,-73.3,-74.8,-73.3Z" 
	id="f1_20"
	transform="scale(0.001,-0.001)" />

	<path d="M65.7,-15.2c-15.3,0,-15.3,7.7,-15.3,35.1l0,207.7c0,27.5,0,35.2,16.8,35.2c4.6,0,10.7,0,13.8,-6.1c1.5,-1.6,1.5,-3.1,7.6,-30.6C122.2,73.3,195.6,15.3,296.4,15.3c134.4,0,172.6,73.3,172.6,139c0,42.8,-19.8,76.4,-47.3,99.3c-38.2,30.6,-58.1,35.2,-142.1,52C209.3,319.3,157.4,330,108.5,372.8C50.4,426.3,50.4,479.7,50.4,496.5c0,84.1,55,184.9,239.9,184.9c48.9,0,96.2,-9.2,143.6,-47.4c10.7,13.8,39.7,47.4,51.9,47.4c15.3,0,15.3,-7.6,15.3,-35.1l0,-158.9c0,-27.5,0,-35.2,-16.8,-35.2c-4.6,0,-15.3,0,-16.8,12.2c-3.1,47.4,-12.2,189.5,-178.7,189.5C151.3,653.9,119.2,583.6,119.2,536.3C119.2,444.6,230.7,423.2,276.5,414C377.4,395.7,418.6,386.5,473.6,339.2C487.4,325.4,537.8,276.5,537.8,194C537.8,73.3,458.3,-15.2,297.9,-15.2c-26,0,-108.5,0,-166.5,71.7C108.5,32.1,108.5,29,100.8,18.3C74.9,-13.7,73.3,-15.2,65.7,-15.2Z" 
	id="f1_2a"
	transform="scale(0.001,-0.001)" />

	<path d="M372.8,-15.2C200.1,-15.2,53.5,134.4,53.5,330c0,192.5,142.1,351.4,320.8,351.4C498.1,681.4,605,608.1,605,505.7C605,461.4,576,440,540.8,440c-36.6,0,-62.6,26,-62.6,62.6c0,62.7,56.5,62.7,74.9,62.7c-35.2,59.6,-119.2,82.5,-177.3,82.5c-76.4,0,-206.2,-62.7,-206.2,-316.3C169.6,99.3,293.3,18.3,386.5,18.3c82.5,0,165,45.9,198.6,154.3c4.6,18.4,6.2,23,19.9,23c4.6,0,15.3,0,15.3,-13.8c0,-13.7,-45.9,-197,-247.5,-197Z" 
	id="f1_1u"
	transform="scale(0.001,-0.001)" />

	<path d="M388.1,-15.2c-78,0,-140.6,18.3,-177.3,58C165,93.2,165,148.2,165,242.9l0,229.2c0,136,0,140.5,-116.1,140.5l0,44.3l215.4,16.9l0,-505.7c0,-81,7.6,-152.8,132.9,-152.8c114.6,0,183.4,108.5,183.4,238.3l0,273.5c0,74.8,-12.3,85.5,-116.2,85.5l0,44.3l215.5,16.9l0,-543.9C679.9,55,692.1,44.3,796,44.3L796,0L583.6,-15.2l0,137.4c0,0,-24.4,-58,-68.7,-93.2C462.9,-15.2,414,-15.2,388.1,-15.2Z" 
	id="f1_2c"
	transform="scale(0.001,-0.001)" />

	<path d="M374.3,18.3c58.1,0,128.3,29.1,171.1,102.4c39.7,71.8,39.7,166.5,39.7,220c0,56.5,0,152.8,-47.3,223.1c-41.3,59.5,-105.4,87,-165,87c-53.5,0,-120.7,-24.4,-163.5,-90.1C161.9,491.9,161.9,398.8,161.9,340.7c0,-64.2,1.6,-154.3,42.8,-223.1C249,42.8,317.8,18.3,374.3,18.3Zm-1.5,-33.5c-174.2,0,-327,146.6,-327,342.1c0,192.5,145.2,354.5,328.5,354.5c177.2,0,327,-157.4,327,-354.5C701.3,134.4,553.1,-15.2,372.8,-15.2Z" 
	id="f1_26"
	transform="scale(0.001,-0.001)" />

	<path d="M48.9,0l0,44.3c99.3,0,116.1,0,116.1,68.8l0,414c0,74.8,-12.2,85.5,-116.1,85.5l0,44.3l207.8,16.9l0,-157.4l1.5,0c12.2,30.5,70.3,157.4,218.5,157.4c51.9,0,123.7,-9.2,168,-68.8c35.2,-48.9,35.2,-91.7,35.2,-233.7l0,-281.2C681.4,44.3,719.6,44.3,796,44.3L756.3,3.1l-169.6,0C504.2,3.1,629.4,0,464.4,0l0,44.3c99.4,0,116.2,0,116.2,68.8l0,359c0,93.2,-21.4,171.1,-116.2,171.1c-94.7,0,-200.1,-85.6,-200.1,-246l0,-284.1c0,-68.8,18.3,-68.8,116.1,-68.8L340.7,3.1l-169.6,0C88.6,3.1,213.9,0,48.9,0Z" 
	id="f1_25"
	transform="scale(0.001,-0.001)" />

	<path d="M368.2,-32C198.6,-32,62.6,79.4,62.6,215.4c0,58.1,39.8,79.5,76.4,79.5c42.8,0,74.9,-30.6,74.9,-74.9c0,-48.9,-35.1,-76.1,-77.3,-76.1c-5.2,0,-10.5,0.4,-15.9,1.2C165,44.3,290.3,9.2,363.6,9.2c74.9,0,178.8,53.4,178.8,253.6c0,146.6,-58.1,253.6,-188,253.6l-70.2,0c-27.5,0,-35.2,0,-35.2,15.3c0,13.7,6.1,15.2,32.1,16.8l45.8,4.6c41.3,1.5,93.2,6.1,139.1,73.3c44.3,65.7,48.9,151.2,48.9,180.3c0,149.7,-99.3,172.6,-149.8,172.6c-7.6,0,-151.2,0,-209.3,-103.9c4.6,1.5,7.7,1.5,16.8,1.5c33.7,0,70.3,-21.3,70.3,-70.2c0,-45.9,-36.6,-68.8,-68.7,-68.8c-22.9,0,-70.3,12.2,-70.3,73.4c0,111.5,113,204.7,265.8,204.7c148.2,0,273.5,-88.6,273.5,-209.3C643.2,687.5,557.6,576,424.7,537.8c146.7,-26,259.7,-136,259.7,-276.5C684.4,106.9,550,-32,368.2,-32Z" 
	id="f1_l"
	transform="scale(0.001,-0.001)" />

	<path d="M432.4,42.8c158.9,0,158.9,122.2,158.9,273.5c0,152.7,0,275,-151.3,275c-90.1,0,-171.1,-79.5,-171.1,-267.4c0,-13.8,0,-136,21.4,-186.4c6.1,-12.2,44.3,-94.7,142.1,-94.7Zm1.5,-61C71.8,-18.2,71.8,381.9,71.8,484.3c0,398.8,258.2,517.9,449.2,517.9c160.4,0,221.5,-93.2,221.5,-184.8c0,-67.3,-50.4,-93.2,-90.1,-93.2c-48.9,0,-90.2,35.1,-90.2,90.1c0,41.3,24.5,84,82.5,90.1C608.1,942.6,553.1,947.2,524,947.2c-99.3,0,-177.2,-59.6,-210.8,-123.7C270.4,741,265.8,646.3,265.8,553.1l0,-41.3c61.1,129.9,158.9,129.9,189.5,129.9c181.8,0,330,-113.1,330,-327C785.3,100.8,635.6,-18.2,433.9,-18.2Z" 
	id="f0_g"
	transform="scale(0.001,-0.001)" />

	<path d="M427.8,-9.1C203.2,-9.1,58.1,131.4,58.1,339.2c0,175.7,106.9,352.9,378.8,352.9c82.5,0,258.2,-9.2,258.2,-134.5C695.1,485.8,637.1,466,605,466c-38.2,0,-90.1,25.9,-90.1,90.1c0,38.2,19.8,61.1,24.4,65.7c3.1,1.5,4.6,3.1,4.6,4.6c0,7.6,-90.1,10.7,-100.8,10.7C242.9,637.1,241.4,436.9,241.4,346.8c0,-68.7,0,-301,215.4,-301c140.6,0,181.8,102.4,192.5,131.4c7.6,18.4,9.2,19.9,33.6,19.9c15.3,0,32.1,0,32.1,-18.3C715,168.1,667.6,-9.1,427.8,-9.1Z" 
	id="f0_1b"
	transform="scale(0.001,-0.001)" />

	<path d="M67.2,0l0,65.7l105.4,0l0,857.1c0,59.6,-10.7,59.6,-105.4,59.6l0,65.7l264.3,12.2l0,-994.6l105.4,0L401.8,3.1l-191,0C102.4,3.1,252.1,0,67.2,0Z" 
	id="f0_1k"
	transform="scale(0.001,-0.001)" />

	<path d="M435.4,-9.1c-163.5,0,-265.8,44.2,-265.8,197l0,362.1c0,59.6,-10.7,59.6,-105.4,59.6l0,65.7l271.9,12.2l0,-524c0,-84.1,6.1,-122.2,120.7,-122.2c119.2,0,187.9,93.1,187.9,209.3l0,299.4c0,59.6,-10.7,59.6,-105.4,59.6l0,65.7l272,12.2l0,-562.2c0,-59.6,10.6,-59.6,105.4,-59.6L916.7,0L652.4,-9.1l0,123.7l-1.6,0C585.1,-9.1,472.1,-9.1,435.4,-9.1Z" 
	id="f0_1t"
	transform="scale(0.001,-0.001)" />

	<path d="M381.9,-18.2c-12.2,0,-90.1,0,-90.1,102.2c0,74.9,13.8,212.4,103.9,389.6c47.4,90.2,67.2,114.6,244.4,330l-276.5,0c-24.4,0,-151.2,0,-165,-9.2c-26,-16.8,-38.2,-123.7,-39.7,-139l-64.2,0l50.4,377.4l64.2,0c3.1,-15.3,6.1,-32.1,44.3,-38.2c18.3,-3.1,246,-10.7,256.7,-10.7l322.3,0c0,-50.4,0,-53.5,-13.7,-68.8L589.7,641.7C493.5,527.1,472.1,356,472.1,122.2c0,-67.2,0,-85.5,-19.9,-110C441.5,1.5,420.1,-18.2,381.9,-18.2Z" 
	id="f0_h"
	transform="scale(0.001,-0.001)" />

	<path d="M148.2,0l0,44.3l47.4,0c134.4,0,139,18.3,139,73.3l0,796C250.6,873.9,174.2,873.9,139,873.9l0,44.3c157.4,0,233.8,56.5,270.4,97.8c30.6,0,30.6,-1.6,30.6,-36.7l0,-861.7c0,-55,4.6,-73.3,139,-73.3l47.4,0L585.1,3.1l-247.5,0C189.4,3.1,388.1,0,148.2,0Z" 
	id="f1_j"
	transform="scale(0.001,-0.001)" />

	<path d="M695.1,400.3L517.9,909L340.7,400.3ZM47.4,0l0,44.3c97.7,1.5,140.5,41.3,161.9,103.9l319.3,913.6c7.7,24.5,10.7,29,32.1,29c21.4,0,24.4,-9.1,30.6,-27.5l333,-956.4C945.7,44.3,973.2,44.3,1072.5,44.3L1037.4,3.1l-195.6,0C721.1,3.1,884.6,0,686,0l0,44.3c38.2,0,116.1,0,116.1,45.8c0,4.6,0,7.7,-7.7,26L710.4,356l-385,0L255.1,152.8c-7.6,-19.9,-7.6,-22.9,-7.6,-32.1c0,-42.8,38.2,-74.9,102.4,-76.4L310.1,3.1l-166.5,0C140.6,3.1,194,0,47.4,0Z" 
	id="f1_x"
	transform="scale(0.001,-0.001)" />

	<path d="M48.9,0l0,44.3c99.3,0,116.1,0,116.1,68.8l0,800.5c0,74.9,-12.2,85.6,-116.1,85.6l0,44.3l212.4,16.8l0,-533.2l1.5,0c21.4,47.3,82.5,146.7,213.9,146.7c51.9,0,123.7,-9.2,168,-68.8c35.2,-48.9,35.2,-91.7,35.2,-233.7l0,-281.2C681.4,44.3,719.6,44.3,796,44.3L756.3,3.1l-169.6,0C504.2,3.1,629.4,0,464.4,0l0,44.3c99.4,0,116.2,0,116.2,68.8l0,359c0,93.2,-21.4,171.1,-116.2,171.1c-94.7,0,-200.1,-85.6,-200.1,-246l0,-284.1c0,-68.8,18.3,-68.8,116.1,-68.8L340.7,3.1l-169.6,0C88.6,3.1,213.9,0,48.9,0Z" 
	id="f1_1z"
	transform="scale(0.001,-0.001)" />

	<path d="M527.1,383.5c-1.5,51.9,-10.7,267.3,-174.2,267.3c-42.8,0,-177.2,-27.5,-189.4,-267.3ZM371.3,-15.2C201.7,-15.2,45.8,132.9,45.8,334.6c0,189.4,134.5,346.8,308.6,346.8c184.9,0,267.4,-143.6,267.4,-297.9c0,-29.1,-3,-29.1,-36.7,-29.1l-423.2,0l0,-29C161.9,61.1,316.3,18.3,380.4,18.3c64.2,0,166.5,35.2,206.3,163.5c3,7.6,6.1,15.3,18.3,15.3c9.2,0,16.8,-6.1,16.8,-15.3c0,-32.1,-68.7,-197,-250.5,-197Z" 
	id="f1_1w"
	transform="scale(0.001,-0.001)" />

	<path d="M394.2,-15.2c-18.4,0,-21.4,7.7,-29.1,29L146.7,560.7c-18.4,47.4,-33.6,53.5,-119.2,53.5l93.2,41.2l94.7,0c79.5,0,-41.2,3.1,117.7,3.1l0,-44.3c-27.5,0,-85.6,0,-85.6,-39.8c0,-7.6,1.5,-7.6,9.2,-29L427.8,114.6L583.6,508.8c7.7,18.3,10.7,25.9,10.7,39.7c0,16.8,-7.6,62.6,-71.8,65.7l70.3,41.2l102.3,0c21.4,0,-47.3,3.1,65.7,3.1l0,-44.3C663.1,612.6,637.1,546.9,623.3,513.3L424.7,13.8c-10.7,-25.9,-19.8,-29,-30.5,-29Z" 
	id="f1_2d"
	transform="scale(0.001,-0.001)" />

	<path d="M48.9,0l0,44.3c99.3,0,116.1,0,116.1,68.8l0,414c0,74.8,-12.2,85.5,-116.1,85.5l0,44.3l207.8,16.9l0,-157.4l1.5,0c12.2,30.5,70.3,157.4,218.5,157.4c96.2,0,178.7,-33.7,200.1,-151.3c24.5,59.6,88.6,151.3,215.4,151.3c52,0,123.8,-9.2,168.1,-68.8c35.1,-48.9,35.1,-91.7,35.1,-233.7l0,-281.2c1.5,-45.8,39.7,-45.8,116.1,-45.8L1171.8,3.1l-169.6,0C919.7,3.1,1045,0,880,0l0,44.3c99.3,0,116.1,0,116.1,68.8l0,359c0,93.2,-21.4,171.1,-116.1,171.1c-94.7,0,-200.1,-85.6,-200.1,-246l0,-284.1C679.9,44.3,698.2,44.3,796,44.3L756.3,3.1l-169.6,0C504.2,3.1,629.4,0,464.4,0l0,44.3c99.4,0,116.2,0,116.2,68.8l0,359c0,93.2,-21.4,171.1,-116.2,171.1c-94.7,0,-200.1,-85.6,-200.1,-246l0,-284.1c0,-68.8,18.3,-68.8,116.1,-68.8L340.7,3.1l-169.6,0C88.6,3.1,213.9,0,48.9,0Z" 
	id="f1_24"
	transform="scale(0.001,-0.001)" />

	<path d="M351.4,-15.2c-81,0,-194,35.1,-194,204.6l0,424.8l-129.9,0l0,30.5c139,4.6,194,151.3,195.6,294.9l33.6,0l0,-281.1l215.4,0l0,-44.3l-215.4,0l0,-427.8c0,-26,0,-168.1,103.9,-168.1c59.5,0,103.8,64.2,103.8,174.2l0,84l33.7,0l0,-87.1c0,-110,-50.5,-204.6,-146.7,-204.6Z" 
	id="f1_2b"
	transform="scale(0.001,-0.001)" />

	<path d="M331.5,-32c-62.6,0,-62.6,61,-62.6,77.8c0,287.3,154.3,537.8,195.5,597.4l162,232.2l-323.9,0c-21.4,0,-136,0,-148.2,-9.1C134.4,849.4,120.7,754.7,116.1,727.2l-33.6,0l47.4,305.6l33.6,0c6.1,-29,9.1,-48.9,194,-48.9l368.2,0l0,-35.1L504.2,631C432.4,528.6,395.7,351.4,395.7,123.8l0,-76.4c0,-19.9,0,-79.4,-64.2,-79.4Z" 
	id="f1_p"
	transform="scale(0.001,-0.001)" />

	<path d="M74.9,0l0,36.7L383.5,381.9c87.1,97.8,161.9,210.9,161.9,340.7c0,140.6,-79.4,249.1,-209.3,249.1c-99.3,0,-181.8,-70.3,-210.8,-174.2c4.6,1.5,7.6,1.5,21.4,1.5c42.7,0,71.8,-29,71.8,-71.8c0,-48.9,-39.7,-71.8,-71.8,-71.8c-4.6,0,-71.8,0,-71.8,77.9C74.9,864.7,178.8,1016,356,1016c177.2,0,316.2,-117.7,316.2,-293.4C672.2,571.4,586.7,491.9,354.4,278.1C314.7,241.4,221.5,143.6,180.3,108.5l282.6,0c45.9,0,132.9,0,143.6,13.7c15.3,24.5,27.5,108.5,32.1,134.5l33.6,0L632.5,0Z" 
	id="f1_k"
	transform="scale(0.001,-0.001)" />

	<path d="M62.6,0l0,44.3l30.6,0c110,0,114.6,15.3,114.6,71.8l0,811.3c0,56.5,-4.6,71.8,-114.6,71.8l-30.6,0l36.7,41.2l235.3,0c134.4,0,-53.5,3.1,178.7,3.1l0,-44.3l-45.8,0c-132.9,0,-136,-18.4,-136,-73.4l0,-820.4c0,-50.4,3.1,-61.1,70.3,-61.1l132.9,0c267.4,0,287.2,194,302.5,346.8l33.6,0L831.1,0Z" 
	id="f1_18"
	transform="scale(0.001,-0.001)" />

	<path d="M313.2,15.3c65.7,0,177.2,50.4,177.2,200.1l0,151.3C435.4,363.6,175.7,345.3,175.7,143.6C175.7,70.3,238.3,15.3,313.2,15.3ZM301,-15.2C207.8,-15.2,67.2,22.9,67.2,143.6c0,117.7,116.1,246,423.2,250.6l0,61.1c0,137.5,-90.1,195.5,-160.4,195.5c-61.1,0,-134.4,-27.5,-169.6,-91.6c22.9,0,77.9,0,77.9,-62.7c0,-36.6,-25.9,-62.6,-62.6,-62.6c-35.1,0,-64.2,21.4,-64.2,65.7c0,99.3,96.3,181.8,221.6,181.8c67.2,0,135.9,-21.4,189.4,-70.3c67.2,-59.6,67.2,-120.7,67.2,-203.2l0,-267.3c0,-23,0,-103.9,58.1,-103.9c21.4,0,58,12.2,58,99.3l0,85.5l33.6,0l0,-85.5C739.4,13.8,650.8,-7.5,618.8,-7.5c-65.7,0,-113.1,54.9,-119.2,126.7C470.6,45.8,401.8,-15.2,301,-15.2Z" 
	id="f1_1s"
	transform="scale(0.001,-0.001)" />

	<path d="M374.3,9.2c122.2,0,239.9,79.4,239.9,195.5c0,93.2,-70.3,140.6,-110,166.6L319.3,491.9C220,446.1,132.9,349.9,132.9,230.7C132.9,103.9,244.4,9.2,374.3,9.2Zm50.4,563.7c88.6,48.9,155.9,123.8,155.9,217c0,110,-97.8,189.4,-207.8,189.4C270.4,979.3,166.5,916.7,166.5,817.4c0,-74.9,61.1,-114.6,81,-128.4L424.7,572.9ZM372.8,-32C216.9,-32,62.6,68.8,62.6,230.7c0,111.5,76.4,213.9,224.6,282.6C180.3,588.2,178.8,589.7,161.9,609.6c-42.7,51.9,-58,103.9,-58,155.8c0,139,119.2,250.6,270.4,250.6c140.6,0,268.9,-91.7,268.9,-224.6C643.2,663.1,531.7,592.8,455.3,551.5C574.4,478.2,684.4,409.4,684.4,253.6C684.4,93.2,542.4,-32,372.8,-32Z" 
	id="f1_q"
	transform="scale(0.001,-0.001)" />

	<path d="M62.6,0l0,44.3l30.6,0c110,0,114.6,15.3,114.6,71.8l0,808.2c0,56.5,-4.6,71.8,-114.6,71.8l-30.6,0l0,44.3l809.8,0L912.1,699.7l-33.6,0C857.1,915.1,812.8,996.1,592.8,996.1l-191,0c-67.2,0,-70.3,-10.7,-70.3,-61.1l0,-392.6l134.5,0c143.6,0,158.9,50.4,158.9,178.7l33.6,0l0,-401.8l-33.6,0c0,128.3,-15.3,178.8,-158.9,178.8l-134.5,0l0,-380.5c0,-55,3.1,-73.3,136,-73.3l45.8,0L469,3.1l-233.7,0C99.3,3.1,281.1,0,62.6,0Z" 
	id="f1_12"
	transform="scale(0.001,-0.001)" />

	<path d="M42.8,0l0,44.3c99.3,0,116.1,0,116.1,68.8l0,414c0,74.8,-12.2,85.5,-116.1,85.5l0,44.3l204.7,16.9l0,-169.6l1.5,0c9.2,29,53.5,169.6,183.4,169.6c65.7,0,106.9,-42.8,106.9,-88.7C539.3,543.9,508.8,524,478.2,524c-24.4,0,-59.6,16.8,-59.6,61.1c0,41.3,24.5,50.5,36.7,56.6c-6.1,1.5,-9.2,1.5,-21.4,1.5C316.3,643.2,255.1,504.2,255.1,356l0,-239.9c0,-55,3.1,-71.8,114.6,-71.8l30.6,0L365.1,3.1l-195.5,0C85.6,3.1,215.4,0,42.8,0Z" 
	id="f1_29"
	transform="scale(0.001,-0.001)" />

	<path d="M450.7,299.4l0,576L79.4,299.4ZM297.9,0l0,44.3l30.6,0c111.5,0,114.6,15.3,114.6,71.8l0,139l-401.8,0l0,44.3l459.8,713.5c12.2,18.4,16.8,18.4,29,18.4c21.4,0,21.4,-7.7,21.4,-36.7l0,-695.2l154.3,0l0,-44.3l-154.3,0l0,-139c0,-56.5,4.6,-71.8,114.6,-71.8l30.6,0L661.5,3.1l-207.7,0C333.1,3.1,496.5,0,297.9,0Z" 
	id="f1_m"
	transform="scale(0.001,-0.001)" />

	<path d="M501.1,537.8c198.6,0,270.4,97.8,270.4,230.7C771.5,999.2,576,999.2,452.2,999.2c-30.5,0,-76.4,0,-90.1,-1.6C330,991.5,330,973.2,330,938.1l0,-400.3ZM956.4,-32C870.8,-32,806.7,3.1,783.8,26C716.5,91.7,716.5,131.4,716.5,252.1c0,105.4,0,137.5,-51.9,195.5c-41.3,42.8,-97.8,59.6,-157.4,59.6l-177.2,0l0,-391.1c0,-56.5,4.6,-71.8,114.6,-71.8l30.5,0L440,3.1l-215.4,0C99.3,3.1,268.9,0,64.2,0l0,44.3l30.5,0c110,0,114.6,15.3,114.6,71.8l0,811.3c0,56.5,-4.6,71.8,-114.6,71.8l-30.5,0l0,44.3l456.8,0c220,0,392.6,-126.8,392.6,-275C913.6,650.8,796,554.6,644.7,519.4c84.1,-22.9,123.8,-64.1,140.6,-80.9c45.8,-47.4,51.9,-96.3,62.6,-172.7c4.6,-38.2,13.8,-103.9,15.3,-114.5C875.4,70.3,890.7,-1.4,961,-1.4c48.9,0,93.2,41.1,100.8,132.8c1.5,15.3,1.5,24.4,16.8,24.4c16.8,0,16.8,-13.7,16.8,-22.9c0,-32.1,-19.8,-164.9,-139,-164.9Z" 
	id="f1_1e"
	transform="scale(0.001,-0.001)" />

	<path d="M574.4,658.5l0,262.8C548.5,935,543.9,961,543.9,973.2c0,24.4,12.2,39.7,29,53.5c1.5,1.5,0,7.6,0,7.6C536.3,1045,533.2,1045,479.7,1045C368.2,1045,252.1,976.3,252.1,831.1l0,-172.6ZM42.8,0l0,44.3c99.3,0,116.1,0,116.1,68.8l0,501.1l-119.2,0l0,44.3l119.2,0l0,175.7c0,157.3,163.5,241.4,322.4,241.4c24.4,0,71.8,0,123.7,-19.9c7.6,-4.6,10.7,-4.6,13.8,-4.6c9.1,0,41.2,7.7,51.9,9.2l0,-947.2C670.7,44.3,689,44.3,786.8,44.3L744,3.1l-168,0C501.1,3.1,621.8,0,458.3,0l0,44.3c99.3,0,116.1,0,116.1,68.8l0,501.1l-319.3,0l0,-501.1c0,-68.8,18.4,-68.8,116.2,-68.8L328.5,3.1l-168.1,0C85.6,3.1,206.3,0,42.8,0Z" 
	id="f1_3"
	transform="scale(0.001,-0.001)" />

	<path d="M363.6,365.1c134.5,0,192.5,146.7,192.5,275c0,23,0,152.8,-30.5,227.7C510.3,902.9,466,979.3,378.9,979.3C296.4,979.3,255.1,935,227.6,893.8C187.9,831.1,187.9,757.8,187.9,672.2c0,-68.7,0,-142.1,24.5,-200.1c13.7,-29,55,-107,151.2,-107ZM308.6,-32C175.7,-32,99.3,32.1,99.3,126.8c0,39.7,24.5,65.7,64.2,65.7c39.7,0,62.6,-29,62.6,-62.6c0,-50.5,-43.7,-63.2,-60.8,-63.2c-2.1,0,-3.7,0.2,-4.9,0.5l-9.1,0C189.4,13.8,270.4,9.2,307.1,9.2c91.7,0,252.1,74.8,252.1,435.4l0,50.4C528.6,417.1,470.6,334.6,357.5,334.6C204.7,334.6,62.6,472.1,62.6,673.8c0,201.6,148.2,342.2,316.3,342.2c134.4,0,305.5,-102.4,305.5,-513.4C684.4,171.1,499.6,-32,308.6,-32Z" 
	id="f1_r"
	transform="scale(0.001,-0.001)" />

	<path d="M759.3,369.7l-177.2,440L403.3,369.7ZM59.6,0l0,65.7l27.5,0c33.6,0,39.7,0,77.9,4.6c42.8,4.6,42.8,7.6,53.5,32.1l378.9,931.9c10.7,27.5,13.7,35.1,51.9,35.1c36.7,0,39.7,-7.6,50.4,-35.1L1092.4,65.7l145.1,0L1199.3,3.1l-262.8,0C788.3,3.1,994.6,0,739.4,0l0,65.7l143.7,0L786.8,304l-409.4,0l-81,-198.6c-3.1,-6.1,-3.1,-9.1,-7.6,-22.9C331.5,65.7,389.6,65.7,423.2,65.7L388.1,3.1L191,3.1C99.3,3.1,235.3,0,59.6,0Z" 
	id="f0_m"
	transform="scale(0.001,-0.001)" />

	<path d="M504.2,41.3c97.7,0,207.7,77.9,207.7,299.4c0,201.7,-90.1,291.8,-189.4,291.8c-59.6,0,-140.6,-24.4,-197.1,-97.8l0,-388C372.8,74.9,438.5,41.3,504.2,41.3ZM53.5,-296.3l0,65.7l105.4,0l0,780.6c0,59.6,-10.7,59.6,-105.4,59.6l0,65.7l264.3,12.2l0,-79.4c61.1,48.8,139,79.4,229.1,79.4c206.3,0,348.4,-136,348.4,-346.8C895.3,117.6,731.8,-9.1,522.5,-9.1C430.8,-9.1,363.6,29,325.4,62.6l0,-293.2l105.4,0l-35.1,-62.6l-197.1,0c-110,0,42.8,-3.1,-145.1,-3.1Z" 
	id="f0_1o"
	transform="scale(0.001,-0.001)" />

	<path d="M430.8,41.3c55,0,133,19.8,197.1,113l0,388.1c-50.4,67.2,-117.6,94.7,-180.3,94.7c-35.1,0,-125.2,-9.2,-172.6,-94.7C241.4,484.3,241.4,407.9,241.4,336.1c0,-100.8,0,-294.8,189.4,-294.8ZM412.5,-9.1C209.3,-9.1,58.1,120.7,58.1,339.2c0,213.9,154.3,348.3,371.2,348.3c105.4,0,172.6,-44.3,206.3,-73.3l0,308.6c0,59.6,-10.7,59.6,-105.5,59.6l0,65.7l264.3,12.2l0,-935c0,-59.6,10.7,-59.6,105.5,-59.6L899.9,0l-272,-9.1l0,79.4C568.3,19.9,496.5,-9.1,412.5,-9.1Z" 
	id="f0_1c"
	transform="scale(0.001,-0.001)" />

	<path d="M143.6,0l0,65.7l212.4,0l0,802.1c-61.1,-19.9,-142.1,-29,-195.6,-29l-29,0l0,65.6l29,0c33.6,0,203.2,0,316.3,97.8c48.9,0,51.9,0,51.9,-44.3l0,-892.2l209.3,0L673.8,3.1l-305.6,0C207.8,3.1,440,0,143.6,0Z" 
	id="f0_b"
	transform="scale(0.001,-0.001)" />

	<path d="M18.3,268.9l0,140.5l458.4,0l0,-140.5Z" 
	id="f0_8"
	transform="scale(0.001,-0.001)" />

	<path d="M429.3,-258.1c201.7,0,255.1,88.6,255.1,142.1c0,79.4,-106.9,99.3,-218.4,99.3l-174.2,0c-22.9,0,-119.2,0,-119.2,-97.8c0,-58,55,-143.6,256.7,-143.6ZM380.4,287.2c132.9,0,132.9,105.4,132.9,175.7c0,70.3,0,175.7,-132.9,175.7C247.5,638.6,247.5,533.2,247.5,462.9c0,-70.3,0,-175.7,132.9,-175.7ZM427.8,-307C146.7,-307,47.4,-204.6,47.4,-114.5c0,87.1,94.7,122.1,131.4,131.3c-32.1,24.5,-67.3,81,-67.3,146.7c0,55,27.5,108.4,53.5,137.5C100.8,352.9,85.6,415.6,85.6,462.9c0,107,84,224.6,294.8,224.6c77.9,0,137.5,-13.7,200.2,-50.4c32,27.5,94.7,59.6,160.4,59.6c64.1,0,91.6,-48.9,91.6,-85.6C832.6,579,811.3,550,771.5,550c-39.7,0,-61.1,29,-61.1,61.1c0,19.9,4.6,26,9.2,33.6c-26,-3,-62.7,-9.1,-107,-33.6C631,595.8,675.3,540.8,675.3,462.9C675.3,356,591.3,238.3,380.4,238.3c-22.9,0,-108.5,0,-181.8,39.8c-16.8,-19.9,-18.3,-42.8,-18.3,-55c0,-29.1,18.3,-87.1,84,-97.8c7.6,-1.5,74.9,-1.5,113.1,-1.5c134.4,0,232.2,0,305.5,-36.7c38.2,-18.3,126.8,-62.7,126.8,-197C809.7,-224.5,681.4,-307,427.8,-307Z" 
	id="f0_1f"
	transform="scale(0.001,-0.001)" />

	<path d="M53.5,0l0,65.7l105.4,0l0,484.3c0,59.6,-10.7,59.6,-105.4,59.6l0,65.7L304,687.5l0,-169.6l1.6,0c21.3,64.2,73.3,169.6,194,169.6c73.3,0,152.8,-42.8,152.8,-120.7c0,-62.6,-50.5,-88.6,-88.6,-88.6c-38.2,0,-88.7,26,-88.7,88.6c0,27.5,10.7,53.5,32.1,70.3C328.5,637.1,317.8,394.2,317.8,343.8l0,-278.1l132.9,0L414,3.1l-210.8,0C88.6,3.1,246,0,53.5,0Z" 
	id="f0_1q"
	transform="scale(0.001,-0.001)" />

	<path d="M359,41.3c48.9,0,177.3,27.5,177.3,171.1l0,143.6C386.5,348.3,221.5,301,221.5,161.9C221.5,91.7,284.2,41.3,359,41.3ZM334.6,-9.1C229.2,-9.1,51.9,21.4,51.9,160.4c0,169.6,243,236.8,484.4,236.8l0,61.1c0,125.3,-62.7,183.4,-166.6,183.4c-29,0,-65.7,0,-116.1,-13.8c26,-16.8,36.7,-44.3,36.7,-73.3c0,-58.1,-44.3,-90.2,-90.2,-90.2c-41.2,0,-90.1,27.5,-90.1,91.7c0,128.3,180.3,136,265.8,136c215.5,0,327,-94.7,327,-235.3l0,-330c0,-35.1,0,-59.6,96.2,-61.1c21.4,0,35.2,0,35.2,-32.1C834.2,0,821.9,0,789.9,0l-78,0C557.6,0,557.6,65.7,557.6,122.2C527.1,55,452.2,-9.1,334.6,-9.1Z" 
	id="f0_19"
	transform="scale(0.001,-0.001)" />

	<path d="M67.2,0l0,65.7l105.4,0l0,546.9l-113,0l0,65.7l113,0l0,155.9c0,177.2,169.6,235.2,308.7,235.2c108.4,0,163.4,-64.1,163.4,-126.8c0,-67.2,-55,-90.1,-88.6,-90.1c-39.7,0,-88.6,27.5,-88.6,88.6c0,32.1,13.8,58.1,36.7,73.3c-9.2,3.1,-12.3,4.6,-29.1,4.6C424.7,1019,323.9,994.6,323.9,835.7l0,-157.4l181.8,0l0,-65.7l-174.2,0l0,-546.9l132.9,0L427.8,3.1l-210.9,0C102.4,3.1,259.7,0,67.2,0Z" 
	id="f0_1e"
	transform="scale(0.001,-0.001)" />

	<path d="M429.3,32.1c36.7,0,77.9,15.3,108.5,45.8c45.8,45.9,68.7,67.2,68.7,427.8c0,93.2,0,216.9,-13.7,294.9C571.4,928.9,476.7,951.8,427.8,951.8c-33.6,0,-143.6,-10.7,-165,-161.9C250.6,710.4,250.6,612.6,250.6,505.7C250.6,146.7,275,122.2,313.2,84C343.8,51.9,380.4,32.1,429.3,32.1Zm-1.5,-50.3C67.2,-18.2,67.2,340.7,67.2,487.4c0,148.2,0,514.8,362.1,514.8c360.6,0,360.6,-368.2,360.6,-514.8c0,-151.3,-1.6,-505.6,-362.1,-505.6Z" 
	id="f0_a"
	transform="scale(0.001,-0.001)" />

	<path d="M545.4,-383.4c-15.3,0,-18.3,0,-58,33.6C270.4,-172.5,165,100.8,165,381.9c0,275,103.9,556.2,323.9,731.9c39.7,32,42.8,32,56.5,32c7.7,0,26,0,26,-18.3c0,-6.1,-1.5,-7.6,-19.9,-26C380.4,928.9,305.6,681.4,305.6,380.4c0,-268.9,65.7,-537.7,236.8,-708.8c29,-27.5,29,-30.5,29,-36.6c0,-18.4,-18.3,-18.4,-26,-18.4Z" 
	id="f0_6"
	transform="scale(0.001,-0.001)" />

	<path d="M53.5,0l0,65.7l105.4,0l0,546.9l-113.1,0l0,65.7l113.1,0l0,154.3c0,184.9,232.2,236.8,406.4,236.8c154.3,0,223,-88.6,223,-172.6c0,-58,-42.7,-93.2,-93.2,-93.2c-51.9,0,-93.2,36.7,-93.2,93.2c0,39.7,19.9,76.4,67.3,91.7C623.3,1019,568.3,1019,551.5,1019c-61.1,0,-241.4,-15.2,-241.4,-187.9l0,-152.8l220,0l0,6.1l264.3,7.7l0,-626.4l105.5,0L864.7,3.1l-190.9,0C565.3,3.1,715,0,530.1,0l0,65.7l105.5,0l0,491.9c0,53.5,-9.2,55,-47.4,55l-270.4,0l0,-546.9l105.4,0L388.1,3.1l-191,0C88.6,3.1,238.3,0,53.5,0Z" 
	id="f0_1"
	transform="scale(0.001,-0.001)" />

	<path d="M507.2,41.3c48.9,0,120.7,15.2,168.1,88.6c36.6,56.5,36.6,143.6,36.6,212.3c0,100.9,0,294.9,-189.4,294.9c-64.2,0,-143.6,-27.5,-197.1,-100.8l0,-388.1C346.8,114.6,403.3,41.3,507.2,41.3ZM522.5,-9.1C461.4,-9.1,377.4,7.6,299.4,88.6C275,58.1,249,29,223.1,0L158.9,0l0,922.8c0,59.6,-10.7,59.6,-105.4,59.6l0,65.7l264.3,12.2l0,-450.7c62.6,48.9,134.4,77.9,224.6,77.9C751.7,687.5,895.3,550,895.3,340.7C895.3,119.2,733.3,-9.1,522.5,-9.1Z" 
	id="f0_1a"
	transform="scale(0.001,-0.001)" />

	<path d="M53.5,0l0,65.7l105.4,0l0,857.1c0,59.6,-10.7,59.6,-105.4,59.6l0,65.7l264.3,12.2l0,-702.8l278,223.1c3.1,3,12.3,9.1,12.3,15.2c0,12.3,-36.7,16.8,-55,16.8l35.1,62.7l181.8,0c30.6,0,-56.5,3,70.3,3l0,-65.7c-105.4,0,-122.2,-13.7,-140.6,-29L507.2,427.8L762.4,97.8c16.8,-21.4,22.9,-26,44.3,-30.6c16.8,-1.5,47.3,-1.5,71.8,-1.5L814.3,3.1l-140.5,0C572.9,3.1,715,0,536.3,0l0,65.7c21.3,0,51.9,0,51.9,15.3c0,1.5,0,4.6,-10.7,16.8L392.6,336.1C359,308.6,336.1,288.8,311.7,270.4l0,-204.7l105.4,0L381.9,3.1L194,3.1C88.6,3.1,235.3,0,53.5,0Z" 
	id="f0_1j"
	transform="scale(0.001,-0.001)" />

	<path d="M120.7,-383.4c-7.6,0,-26,0,-26,18.4c0,6.1,1.6,7.6,19.9,25.9c171.1,172.7,246,420.1,246,721c0,268.9,-65.7,537.8,-236.8,708.9c-29.1,27.5,-29.1,30.6,-29.1,36.7c0,18.3,18.4,18.3,26,18.3c15.3,0,18.3,0,58.1,-33.6C395.7,935,501.1,661.5,501.1,380.4c0,-275,-103.9,-556,-323.9,-731.7c-39.7,-32.1,-42.8,-32.1,-56.5,-32.1Z" 
	id="f0_7"
	transform="scale(0.001,-0.001)" />

	<path d="M412.5,-18.2C224.6,-18.2,71.8,64.2,71.8,204.7c0,64.2,44.3,108.5,108.5,108.5c62.6,0,106.9,-44.3,106.9,-106.9c0,-45.9,-22.9,-93.2,-88.6,-107C271.9,47.4,372.8,42.8,404.9,42.8c165,0,165,161.9,165,230.7c0,73.3,0,232.2,-171.1,232.2l-73.4,0c-30.5,0,-39.7,0,-39.7,26c0,6.1,0,16.8,9.2,21.4c6.1,3,36.6,4.5,55,6.1c58,3,97.7,6.1,137.5,58c48.9,62.7,55,132.9,55,178.8c0,45.8,0,151.2,-136,151.2c-9.2,0,-113.1,0,-177.2,-62.6c71.8,-10.7,87.1,-62.7,87.1,-97.8c0,-70.3,-53.5,-99.3,-97.8,-99.3c-39.7,0,-99.3,24.4,-99.3,100.8c0,123.8,125.2,213.9,296.4,213.9c212.3,0,322.3,-96.2,322.3,-210.8C737.9,670.7,644.7,576,510.3,534.7c236.8,-41.2,275,-186.4,275,-261.2C785.3,120.7,664.6,-18.2,412.5,-18.2Z" 
	id="f0_d"
	transform="scale(0.001,-0.001)" />

	<path d="M690.6,65.7c175.7,0,227.6,123.7,227.6,220c0,68.7,-26,233.7,-204.7,233.7l-304.1,0l0,-453.7ZM637.1,569.9c178.7,0,238.3,110,238.3,216.9c0,76.4,-32.1,195.6,-189.4,195.6l-276.6,0l0,-412.5ZM59.6,0l0,65.7l161.9,0l0,916.7l-161.9,0l0,65.7l644.7,0c244.5,0,372.8,-122.3,372.8,-262.8c0,-71.8,-42.8,-197.1,-262.8,-238.4C999.2,533.2,1126,427.8,1126,282.6C1126,136,1002.2,0,750.1,0Z" 
	id="f0_n"
	transform="scale(0.001,-0.001)" />

	<path d="M430.8,42.8c110,0,232.3,38.2,232.3,160.4c0,77.9,-65.7,114.6,-116.2,143.6L336.1,467.5C262.8,426.3,194,356,194,244.4C194,123.8,279.6,42.8,430.8,42.8Zm84.1,556.1c87,50.4,114.5,116.1,114.5,178.7c0,100.9,-73.3,169.6,-203.1,169.6c-35.2,0,-198.7,-3,-198.7,-125.3c0,-50.4,42.8,-85.5,73.4,-102.3L514.9,598.9ZM426.3,-18.2C224.6,-18.2,71.8,67.2,71.8,242.9c0,79.5,29,184.9,201.7,261.3C160.4,563.8,119.2,655.4,119.2,737.9c0,148.2,108.4,264.3,311.6,264.3c166.6,0,307.1,-67.2,307.1,-224.6C737.9,658.5,652.4,601.9,576,562.2C653.9,519.4,785.3,447.6,785.3,281.1c0,-177.2,-132.9,-299.3,-359,-299.3Z" 
	id="f0_i"
	transform="scale(0.001,-0.001)" />


</defs>
</svg>