<?xml version="1.0" encoding="UTF-8" standalone="no"?>
<!DOCTYPE svg PUBLIC "-//W3C//DTD SVG 1.1//EN"
"http://www.w3.org/Graphics/SVG/1.1/DTD/svg11.dtd">
<svg viewBox="0 0 909 1286" version="1.1" xmlns="http://www.w3.org/2000/svg" xmlns:xlink="http://www.w3.org/1999/xlink">
<defs>
<style type="text/css"><![CDATA[
.g1_47{
fill: none;
stroke: #000000;
stroke-width: 0.6080556;
stroke-linecap: butt;
stroke-linejoin: miter;
}
.g2_47{
fill: none;
stroke: #000000;
stroke-width: 1.2176542;
stroke-linecap: butt;
stroke-linejoin: miter;
}
.g3_47{
fill: #8CFF8C;
stroke: #000000;
stroke-width: 1.2176542;
stroke-linecap: butt;
stroke-linejoin: miter;
}
.g4_47{
fill: #D9FFD9;
stroke: #000000;
stroke-width: 1.2176542;
stroke-linecap: butt;
stroke-linejoin: miter;
}
]]></style>
</defs>
<g fill="#000000" >
<use xlink:href="#f0_d" transform="matrix(12,0,0,12,129.4,96.9)" />
<use xlink:href="#f0_9" transform="matrix(12,0,0,12,139.7,96.9)" />
<use xlink:href="#f0_c" transform="matrix(12,0,0,12,145.4,96.9)" />
<use xlink:href="#f0_m" transform="matrix(12,0,0,12,162.5,96.9)" />
<use xlink:href="#f0_n" transform="matrix(12,0,0,12,178,96.9)" />
<use xlink:href="#f0_o" transform="matrix(12,0,0,12,192.6,96.9)" />
<use xlink:href="#f0_p" transform="matrix(12,0,0,12,207.5,96.9)" />
<use xlink:href="#f0_k" transform="matrix(12,0,0,12,223.2,96.9)" />
<use xlink:href="#f0_m" transform="matrix(12,0,0,12,235.8,96.9)" />
<use xlink:href="#f0_1r" transform="matrix(12,0,0,12,258.1,96.9)" />
<use xlink:href="#f0_1x" transform="matrix(12,0,0,12,266.3,96.9)" />
<use xlink:href="#f0_1r" transform="matrix(12,0,0,12,277.1,96.9)" />
<use xlink:href="#f0_1s" transform="matrix(12,0,0,12,285.2,96.9)" />
<use xlink:href="#f0_1d" transform="matrix(12,0,0,12,293.2,96.9)" />
<use xlink:href="#f0_1l" transform="matrix(12,0,0,12,302.6,96.9)" />
<use xlink:href="#f0_1e" transform="matrix(12,0,0,12,326.5,96.9)" />
<use xlink:href="#f0_1n" transform="matrix(12,0,0,12,332.8,96.9)" />
<use xlink:href="#f0_1q" transform="matrix(12,0,0,12,343.1,96.9)" />
<use xlink:href="#f0_19" transform="matrix(12,0,0,12,358.3,96.9)" />
<use xlink:href="#f0_1t" transform="matrix(12,0,0,12,368.3,96.9)" />
<use xlink:href="#f0_1s" transform="matrix(12,0,0,12,379.7,96.9)" />
<use xlink:href="#f0_1n" transform="matrix(12,0,0,12,387.7,96.9)" />
<use xlink:href="#f0_1l" transform="matrix(12,0,0,12,398,96.9)" />
<use xlink:href="#f0_19" transform="matrix(12,0,0,12,415.1,96.9)" />
<use xlink:href="#f0_1s" transform="matrix(12,0,0,12,425.1,96.9)" />
<use xlink:href="#f0_1h" transform="matrix(12,0,0,12,433.1,96.9)" />
<use xlink:href="#f0_1b" transform="matrix(12,0,0,12,438.8,96.9)" />
<use xlink:href="#f0_1c" transform="matrix(12,0,0,12,454.8,96.9)" />
<use xlink:href="#f0_19" transform="matrix(12,0,0,12,466.2,96.9)" />
<use xlink:href="#f0_1s" transform="matrix(12,0,0,12,476.2,96.9)" />
<use xlink:href="#f0_19" transform="matrix(12,0,0,12,484.2,96.9)" />
<use xlink:href="#f0_19" transform="matrix(12,0,0,12,501,96.9)" />
<use xlink:href="#f0_1m" transform="matrix(12,0,0,12,511,96.9)" />
<use xlink:href="#f0_19" transform="matrix(12,0,0,12,522.4,96.9)" />
<use xlink:href="#f0_1k" transform="matrix(12,0,0,12,532.4,96.9)" />
<use xlink:href="#f0_1x" transform="matrix(12,0,0,12,538.1,96.9)" />
<use xlink:href="#f0_1r" transform="matrix(12,0,0,12,549,96.9)" />
<use xlink:href="#f0_1h" transform="matrix(12,0,0,12,557.1,96.9)" />
<use xlink:href="#f0_1r" transform="matrix(12,0,0,12,562.8,96.9)" />
<use xlink:href="#f0_d" transform="matrix(12,0,0,12,845.6,96.9)" />
<use xlink:href="#f0_d" transform="matrix(12,0,0,12,855.9,96.9)" />
</g>
<path d="M129.9,103.8l736.2,0" class="g1_47" />
<path d="M448,158.7l51.6,0l0,-24.4l-51.6,0l0,24.4Z" class="g2_47" />
<g fill="#000000" >
<use xlink:href="#f1_1f" transform="matrix(12,0,0,12,453.9,152.8)" />
<use xlink:href="#f1_2b" transform="matrix(12,0,0,12,463.9,152.8)" />
<use xlink:href="#f1_1s" transform="matrix(12,0,0,12,470.8,152.8)" />
<use xlink:href="#f1_29" transform="matrix(12,0,0,12,479.8,152.8)" />
<use xlink:href="#f1_2b" transform="matrix(12,0,0,12,486.7,152.8)" />
<use xlink:href="#f2_g" transform="matrix(12,0,0,12,212,242.9)" />
<use xlink:href="#f2_4" transform="matrix(12,0,0,12,223.2,242.9)" />
</g>
<path d="M447.3,156.1l-204,73.7" class="g2_47" />
<path d="M325.7,248.8l46.7,0l0,-24.4l-46.7,0l0,24.4Z" class="g3_47" />
<g fill="#000000" >
<use xlink:href="#f2_e" transform="matrix(12,0,0,12,331.7,242.9)" />
<use xlink:href="#f2_o" transform="matrix(12,0,0,12,345.3,242.9)" />
<use xlink:href="#f2_10" transform="matrix(12,0,0,12,355.4,242.9)" />
</g>
<path d="M456.1,159.3l-89.3,64.5" class="g2_47" />
<g fill="#000000" >
<use xlink:href="#f2_a" transform="matrix(12,0,0,12,459.2,242.9)" />
<use xlink:href="#f2_s" transform="matrix(12,0,0,12,471.7,242.9)" />
<use xlink:href="#f2_w" transform="matrix(12,0,0,12,477.2,242.9)" />
</g>
<path d="M473.8,159.3l0,64.5" class="g2_47" />
<g fill="#000000" >
<use xlink:href="#f2_2" transform="matrix(12,0,0,12,591.3,242.9)" />
</g>
<path d="M491.5,159.3l93.3,67.4" class="g2_47" />
<g fill="#000000" >
<use xlink:href="#f2_j" transform="matrix(12,0,0,12,705.7,242.9)" />
<use xlink:href="#f2_c" transform="matrix(12,0,0,12,725.9,242.9)" />
</g>
<path d="M500.2,156.1l198.9,71.8" class="g2_47" />
<g fill="#000000" >
<use xlink:href="#f3_c" transform="matrix(10.9,0,0,10.9,148.8,278.5)" />
<use xlink:href="#f3_l" transform="matrix(10.9,0,0,10.9,160.9,278.5)" />
<use xlink:href="#f3_k" transform="matrix(10.9,0,0,10.9,166.2,278.5)" />
<use xlink:href="#f3_t" transform="matrix(10.9,0,0,10.9,175.8,278.5)" />
<use xlink:href="#f3_q" transform="matrix(10.9,0,0,10.9,186.5,278.5)" />
<use xlink:href="#f3_i" transform="matrix(10.9,0,0,10.9,194.3,278.5)" />
<use xlink:href="#f3_4" transform="matrix(10.9,0,0,10.9,209.5,278.5)" />
<use xlink:href="#f3_1" transform="matrix(10.9,0,0,10.9,219.1,278.5)" />
<use xlink:href="#f3_8" transform="matrix(10.9,0,0,10.9,224.4,278.5)" />
<use xlink:href="#f3_b" transform="matrix(10.9,0,0,10.9,234,278.5)" />
<use xlink:href="#f4_r" transform="matrix(10.9,0,0,10.9,247.9,278.5)" />
<use xlink:href="#f4_1u" transform="matrix(10.9,0,0,10.9,259.9,278.5)" />
<use xlink:href="#f4_21" transform="matrix(10.9,0,0,10.9,267.8,278.5)" />
<use xlink:href="#f4_1h" transform="matrix(10.9,0,0,10.9,275.6,278.5)" />
<use xlink:href="#f4_1x" transform="matrix(10.9,0,0,10.9,284,278.5)" />
<use xlink:href="#f4_1p" transform="matrix(10.9,0,0,10.9,290.5,278.5)" />
<use xlink:href="#f4_1h" transform="matrix(10.9,0,0,10.9,295.1,278.5)" />
<use xlink:href="#f4_1t" transform="matrix(10.9,0,0,10.9,303.5,278.5)" />
<use xlink:href="#f4_1j" transform="matrix(10.9,0,0,10.9,312.7,278.5)" />
<use xlink:href="#f4_1l" transform="matrix(10.9,0,0,10.9,320.1,278.5)" />
<use xlink:href="#f4_1m" transform="matrix(10.9,0,0,10.9,333.1,278.5)" />
<use xlink:href="#f4_20" transform="matrix(10.9,0,0,10.9,338.2,278.5)" />
<use xlink:href="#f4_1t" transform="matrix(10.9,0,0,10.9,347.4,278.5)" />
<use xlink:href="#f4_1j" transform="matrix(10.9,0,0,10.9,356.7,278.5)" />
<use xlink:href="#f4_1z" transform="matrix(10.9,0,0,10.9,364.1,278.5)" />
<use xlink:href="#f4_1p" transform="matrix(10.9,0,0,10.9,370.6,278.5)" />
<use xlink:href="#f4_1u" transform="matrix(10.9,0,0,10.9,375.2,278.5)" />
<use xlink:href="#f4_1t" transform="matrix(10.9,0,0,10.9,383.5,278.5)" />
<use xlink:href="#f4_1k" transform="matrix(10.9,0,0,10.9,398.4,278.5)" />
<use xlink:href="#f4_1p" transform="matrix(10.9,0,0,10.9,407.6,278.5)" />
<use xlink:href="#f4_1y" transform="matrix(10.9,0,0,10.9,412.2,278.5)" />
<use xlink:href="#f4_1j" transform="matrix(10.9,0,0,10.9,418.8,278.5)" />
<use xlink:href="#f4_1u" transform="matrix(10.9,0,0,10.9,426.2,278.5)" />
<use xlink:href="#f4_21" transform="matrix(10.9,0,0,10.9,434.1,278.5)" />
<use xlink:href="#f4_1l" transform="matrix(10.9,0,0,10.9,442.4,278.5)" />
<use xlink:href="#f4_1x" transform="matrix(10.9,0,0,10.9,449.8,278.5)" />
<use xlink:href="#f4_24" transform="matrix(10.9,0,0,10.9,456.4,278.5)" />
<use xlink:href="#f4_20" transform="matrix(10.9,0,0,10.9,470.7,278.5)" />
<use xlink:href="#f4_1y" transform="matrix(10.9,0,0,10.9,480,278.5)" />
<use xlink:href="#f4_1p" transform="matrix(10.9,0,0,10.9,486.6,278.5)" />
<use xlink:href="#f4_1t" transform="matrix(10.9,0,0,10.9,491.2,278.5)" />
<use xlink:href="#f4_1n" transform="matrix(10.9,0,0,10.9,500.4,278.5)" />
<use xlink:href="#f4_1n" transform="matrix(10.9,0,0,10.9,514.3,278.5)" />
<use xlink:href="#f4_1x" transform="matrix(10.9,0,0,10.9,522.7,278.5)" />
<use xlink:href="#f4_1l" transform="matrix(10.9,0,0,10.9,529.2,278.5)" />
<use xlink:href="#f4_1l" transform="matrix(10.9,0,0,10.9,536.6,278.5)" />
<use xlink:href="#f4_1k" transform="matrix(10.9,0,0,10.9,544,278.5)" />
<use xlink:href="#f4_24" transform="matrix(10.9,0,0,10.9,553.3,278.5)" />
<use xlink:href="#f4_1y" transform="matrix(10.9,0,0,10.9,567.6,278.5)" />
<use xlink:href="#f4_1l" transform="matrix(10.9,0,0,10.9,574.2,278.5)" />
<use xlink:href="#f4_1h" transform="matrix(10.9,0,0,10.9,581.6,278.5)" />
<use xlink:href="#f4_1x" transform="matrix(10.9,0,0,10.9,589.9,278.5)" />
<use xlink:href="#f4_1j" transform="matrix(10.9,0,0,10.9,596.5,278.5)" />
<use xlink:href="#f4_1o" transform="matrix(10.9,0,0,10.9,603.4,278.5)" />
<use xlink:href="#f4_1h" transform="matrix(10.9,0,0,10.9,618.2,278.5)" />
<use xlink:href="#f4_1v" transform="matrix(10.9,0,0,10.9,626.6,278.5)" />
<use xlink:href="#f4_1v" transform="matrix(10.9,0,0,10.9,635.8,278.5)" />
<use xlink:href="#f4_1x" transform="matrix(10.9,0,0,10.9,645.1,278.5)" />
<use xlink:href="#f4_1u" transform="matrix(10.9,0,0,10.9,651.6,278.5)" />
<use xlink:href="#f4_1h" transform="matrix(10.9,0,0,10.9,659.9,278.5)" />
<use xlink:href="#f4_1j" transform="matrix(10.9,0,0,10.9,668.3,278.5)" />
<use xlink:href="#f4_1o" transform="matrix(10.9,0,0,10.9,675.2,278.5)" />
<use xlink:href="#f4_1h" transform="matrix(10.9,0,0,10.9,690,278.5)" />
<use xlink:href="#f4_1z" transform="matrix(10.9,0,0,10.9,698.4,278.5)" />
<use xlink:href="#f4_1k" transform="matrix(10.9,0,0,10.9,710.4,278.5)" />
<use xlink:href="#f4_1l" transform="matrix(10.9,0,0,10.9,719.7,278.5)" />
<use xlink:href="#f4_1v" transform="matrix(10.9,0,0,10.9,727.1,278.5)" />
<use xlink:href="#f4_1z" transform="matrix(10.9,0,0,10.9,736.3,278.5)" />
<use xlink:href="#f4_1o" transform="matrix(10.9,0,0,10.9,742.8,278.5)" />
<use xlink:href="#f4_1r" transform="matrix(10.9,0,0,10.9,757.6,278.5)" />
<use xlink:href="#f4_1l" transform="matrix(10.9,0,0,10.9,762.3,278.5)" />
<use xlink:href="#f4_21" transform="matrix(10.9,0,0,10.9,769.7,278.5)" />
<use xlink:href="#f4_1l" transform="matrix(10.9,0,0,10.9,778,278.5)" />
<use xlink:href="#f4_1r" transform="matrix(10.9,0,0,10.9,785.4,278.5)" />
<use xlink:href="#f4_e" transform="matrix(10.9,0,0,10.9,795.6,278.5)" />
</g>
<path d="M510.7,389.5l51.6,0l0,-24.4l-51.6,0l0,24.4Z" class="g2_47" />
<g fill="#000000" >
<use xlink:href="#f1_1f" transform="matrix(12,0,0,12,516.6,383.5)" />
<use xlink:href="#f1_2b" transform="matrix(12,0,0,12,526.6,383.5)" />
<use xlink:href="#f1_1s" transform="matrix(12,0,0,12,533.5,383.5)" />
<use xlink:href="#f1_29" transform="matrix(12,0,0,12,542.5,383.5)" />
<use xlink:href="#f1_2b" transform="matrix(12,0,0,12,549.4,383.5)" />
<use xlink:href="#f2_g" transform="matrix(12,0,0,12,274.7,473.6)" />
<use xlink:href="#f2_4" transform="matrix(12,0,0,12,285.9,473.6)" />
</g>
<path d="M510,386.8L306,460.5" class="g2_47" />
<path d="M388.4,479.5l46.7,0l0,-24.4l-46.7,0l0,24.4Z" class="g4_47" />
<g fill="#000000" >
<use xlink:href="#f2_e" transform="matrix(12,0,0,12,394.4,473.6)" />
<use xlink:href="#f2_o" transform="matrix(12,0,0,12,408,473.6)" />
<use xlink:href="#f2_10" transform="matrix(12,0,0,12,418.1,473.6)" />
</g>
<path d="M518.8,390.1l-89.3,64.4" class="g2_47" />
<g fill="#000000" >
<use xlink:href="#f2_e" transform="matrix(12,0,0,12,149.3,563)" />
<use xlink:href="#f2_o" transform="matrix(12,0,0,12,162.8,563)" />
<use xlink:href="#f2_10" transform="matrix(12,0,0,12,173,563)" />
<use xlink:href="#f1_d" transform="matrix(12,0,0,12,188.1,563)" />
<use xlink:href="#f2_g" transform="matrix(12,0,0,12,206.1,563)" />
<use xlink:href="#f2_4" transform="matrix(12,0,0,12,217.2,563)" />
</g>
<path d="M387.8,477.1L223.3,543.9" class="g2_47" />
<g fill="#000000" >
<use xlink:href="#f1_g" transform="matrix(12,0,0,12,289,558.3)" />
<use xlink:href="#f1_g" transform="matrix(12,0,0,12,296.9,558.3)" />
<use xlink:href="#f1_g" transform="matrix(12,0,0,12,304.9,558.3)" />
</g>
<path d="M396,480.2L310.1,550" class="g2_47" />
<path d="M364.9,570.4l93.7,0l0,-25.9l-93.7,0l0,25.9Z" class="g3_47" />
<g fill="#000000" >
<use xlink:href="#f2_e" transform="matrix(12,0,0,12,370.9,562.9)" />
<use xlink:href="#f2_o" transform="matrix(12,0,0,12,384.4,562.9)" />
<use xlink:href="#f2_10" transform="matrix(12,0,0,12,394.6,562.9)" />
<use xlink:href="#f5_3" transform="matrix(12,0,0,12,409.7,562.9)" />
<use xlink:href="#f2_g" transform="matrix(12,0,0,12,427.9,562.9)" />
<use xlink:href="#f2_4" transform="matrix(12,0,0,12,439.1,562.9)" />
</g>
<path d="M411.8,480.2l0,63.7" class="g2_47" />
<g fill="#000000" >
<use xlink:href="#f1_g" transform="matrix(12,0,0,12,510.7,558.3)" />
<use xlink:href="#f1_g" transform="matrix(12,0,0,12,518.7,558.3)" />
<use xlink:href="#f1_g" transform="matrix(12,0,0,12,526.6,558.3)" />
</g>
<path d="M427.5,480.2l86,69.8" class="g2_47" />
<g fill="#000000" >
<use xlink:href="#f2_e" transform="matrix(12,0,0,12,587.5,562.9)" />
<use xlink:href="#f2_o" transform="matrix(12,0,0,12,601,562.9)" />
<use xlink:href="#f2_10" transform="matrix(12,0,0,12,611.2,562.9)" />
<use xlink:href="#f5_3" transform="matrix(12,0,0,12,626.2,562.9)" />
<use xlink:href="#f2_j" transform="matrix(12,0,0,12,644.5,562.9)" />
<use xlink:href="#f2_c" transform="matrix(12,0,0,12,664.7,562.9)" />
</g>
<path d="M435.7,477.1l164.4,66.8" class="g2_47" />
<g fill="#000000" >
<use xlink:href="#f2_a" transform="matrix(12,0,0,12,521.9,473.6)" />
<use xlink:href="#f2_s" transform="matrix(12,0,0,12,534.4,473.6)" />
<use xlink:href="#f2_w" transform="matrix(12,0,0,12,539.9,473.6)" />
</g>
<path d="M536.5,390.1l0,64.4" class="g2_47" />
<g fill="#000000" >
<use xlink:href="#f2_2" transform="matrix(12,0,0,12,654,473.6)" />
</g>
<path d="M554.2,390.1l93.3,67.3" class="g2_47" />
<g fill="#000000" >
<use xlink:href="#f2_j" transform="matrix(12,0,0,12,768.4,473.6)" />
<use xlink:href="#f2_c" transform="matrix(12,0,0,12,788.6,473.6)" />
</g>
<path d="M562.9,386.8l198.9,71.9" class="g2_47" />
<g fill="#000000" >
<use xlink:href="#f3_c" transform="matrix(10.9,0,0,10.9,148.8,600.1)" />
<use xlink:href="#f3_l" transform="matrix(10.9,0,0,10.9,160.9,600.1)" />
<use xlink:href="#f3_k" transform="matrix(10.9,0,0,10.9,166.2,600.1)" />
<use xlink:href="#f3_t" transform="matrix(10.9,0,0,10.9,175.8,600.1)" />
<use xlink:href="#f3_q" transform="matrix(10.9,0,0,10.9,186.5,600.1)" />
<use xlink:href="#f3_i" transform="matrix(10.9,0,0,10.9,194.3,600.1)" />
<use xlink:href="#f3_4" transform="matrix(10.9,0,0,10.9,209.5,600.1)" />
<use xlink:href="#f3_1" transform="matrix(10.9,0,0,10.9,219.1,600.1)" />
<use xlink:href="#f3_9" transform="matrix(10.9,0,0,10.9,224.4,600.1)" />
<use xlink:href="#f3_b" transform="matrix(10.9,0,0,10.9,234,600.1)" />
<use xlink:href="#f4_r" transform="matrix(10.9,0,0,10.9,247.9,600.1)" />
<use xlink:href="#f4_1u" transform="matrix(10.9,0,0,10.9,259.9,600.1)" />
<use xlink:href="#f4_21" transform="matrix(10.9,0,0,10.9,267.8,600.1)" />
<use xlink:href="#f4_1h" transform="matrix(10.9,0,0,10.9,275.6,600.1)" />
<use xlink:href="#f4_1x" transform="matrix(10.9,0,0,10.9,284,600.1)" />
<use xlink:href="#f4_1p" transform="matrix(10.9,0,0,10.9,290.5,600.1)" />
<use xlink:href="#f4_1h" transform="matrix(10.9,0,0,10.9,295.1,600.1)" />
<use xlink:href="#f4_1t" transform="matrix(10.9,0,0,10.9,303.5,600.1)" />
<use xlink:href="#f4_1j" transform="matrix(10.9,0,0,10.9,312.7,600.1)" />
<use xlink:href="#f4_1l" transform="matrix(10.9,0,0,10.9,320.1,600.1)" />
<use xlink:href="#f4_1m" transform="matrix(10.9,0,0,10.9,333.1,600.1)" />
<use xlink:href="#f4_20" transform="matrix(10.9,0,0,10.9,338.2,600.1)" />
<use xlink:href="#f4_1t" transform="matrix(10.9,0,0,10.9,347.4,600.1)" />
<use xlink:href="#f4_1j" transform="matrix(10.9,0,0,10.9,356.7,600.1)" />
<use xlink:href="#f4_1z" transform="matrix(10.9,0,0,10.9,364.1,600.1)" />
<use xlink:href="#f4_1p" transform="matrix(10.9,0,0,10.9,370.6,600.1)" />
<use xlink:href="#f4_1u" transform="matrix(10.9,0,0,10.9,375.2,600.1)" />
<use xlink:href="#f4_1t" transform="matrix(10.9,0,0,10.9,383.5,600.1)" />
<use xlink:href="#f4_1k" transform="matrix(10.9,0,0,10.9,398.4,600.1)" />
<use xlink:href="#f4_1p" transform="matrix(10.9,0,0,10.9,407.6,600.1)" />
<use xlink:href="#f4_1y" transform="matrix(10.9,0,0,10.9,412.2,600.1)" />
<use xlink:href="#f4_1j" transform="matrix(10.9,0,0,10.9,418.8,600.1)" />
<use xlink:href="#f4_1u" transform="matrix(10.9,0,0,10.9,426.2,600.1)" />
<use xlink:href="#f4_21" transform="matrix(10.9,0,0,10.9,434.1,600.1)" />
<use xlink:href="#f4_1l" transform="matrix(10.9,0,0,10.9,442.4,600.1)" />
<use xlink:href="#f4_1x" transform="matrix(10.9,0,0,10.9,449.8,600.1)" />
<use xlink:href="#f4_24" transform="matrix(10.9,0,0,10.9,456.4,600.1)" />
<use xlink:href="#f4_20" transform="matrix(10.9,0,0,10.9,470.7,600.1)" />
<use xlink:href="#f4_1y" transform="matrix(10.9,0,0,10.9,480,600.1)" />
<use xlink:href="#f4_1p" transform="matrix(10.9,0,0,10.9,486.6,600.1)" />
<use xlink:href="#f4_1t" transform="matrix(10.9,0,0,10.9,491.2,600.1)" />
<use xlink:href="#f4_1n" transform="matrix(10.9,0,0,10.9,500.4,600.1)" />
<use xlink:href="#f4_1n" transform="matrix(10.9,0,0,10.9,514.3,600.1)" />
<use xlink:href="#f4_1x" transform="matrix(10.9,0,0,10.9,522.7,600.1)" />
<use xlink:href="#f4_1l" transform="matrix(10.9,0,0,10.9,529.2,600.1)" />
<use xlink:href="#f4_1l" transform="matrix(10.9,0,0,10.9,536.6,600.1)" />
<use xlink:href="#f4_1k" transform="matrix(10.9,0,0,10.9,544,600.1)" />
<use xlink:href="#f4_24" transform="matrix(10.9,0,0,10.9,553.3,600.1)" />
<use xlink:href="#f4_1y" transform="matrix(10.9,0,0,10.9,567.6,600.1)" />
<use xlink:href="#f4_1l" transform="matrix(10.9,0,0,10.9,574.2,600.1)" />
<use xlink:href="#f4_1h" transform="matrix(10.9,0,0,10.9,581.6,600.1)" />
<use xlink:href="#f4_1x" transform="matrix(10.9,0,0,10.9,589.9,600.1)" />
<use xlink:href="#f4_1j" transform="matrix(10.9,0,0,10.9,596.5,600.1)" />
<use xlink:href="#f4_1o" transform="matrix(10.9,0,0,10.9,603.4,600.1)" />
<use xlink:href="#f4_1h" transform="matrix(10.9,0,0,10.9,618.2,600.1)" />
<use xlink:href="#f4_1v" transform="matrix(10.9,0,0,10.9,626.6,600.1)" />
<use xlink:href="#f4_1v" transform="matrix(10.9,0,0,10.9,635.8,600.1)" />
<use xlink:href="#f4_1x" transform="matrix(10.9,0,0,10.9,645.1,600.1)" />
<use xlink:href="#f4_1u" transform="matrix(10.9,0,0,10.9,651.6,600.1)" />
<use xlink:href="#f4_1h" transform="matrix(10.9,0,0,10.9,659.9,600.1)" />
<use xlink:href="#f4_1j" transform="matrix(10.9,0,0,10.9,668.3,600.1)" />
<use xlink:href="#f4_1o" transform="matrix(10.9,0,0,10.9,675.2,600.1)" />
<use xlink:href="#f4_1h" transform="matrix(10.9,0,0,10.9,690,600.1)" />
<use xlink:href="#f4_1z" transform="matrix(10.9,0,0,10.9,698.4,600.1)" />
<use xlink:href="#f4_1k" transform="matrix(10.9,0,0,10.9,710.4,600.1)" />
<use xlink:href="#f4_1l" transform="matrix(10.9,0,0,10.9,719.7,600.1)" />
<use xlink:href="#f4_1v" transform="matrix(10.9,0,0,10.9,727.1,600.1)" />
<use xlink:href="#f4_1z" transform="matrix(10.9,0,0,10.9,736.3,600.1)" />
<use xlink:href="#f4_1o" transform="matrix(10.9,0,0,10.9,742.8,600.1)" />
<use xlink:href="#f4_1r" transform="matrix(10.9,0,0,10.9,757.6,600.1)" />
<use xlink:href="#f4_1l" transform="matrix(10.9,0,0,10.9,762.3,600.1)" />
<use xlink:href="#f4_21" transform="matrix(10.9,0,0,10.9,769.7,600.1)" />
<use xlink:href="#f4_1l" transform="matrix(10.9,0,0,10.9,778,600.1)" />
<use xlink:href="#f4_1r" transform="matrix(10.9,0,0,10.9,785.4,600.1)" />
<use xlink:href="#f4_f" transform="matrix(10.9,0,0,10.9,795.6,600.1)" />
</g>
<path d="M545,714.3l51.7,0l0,-24.4l-51.7,0l0,24.4Z" class="g2_47" />
<g fill="#000000" >
<use xlink:href="#f1_1f" transform="matrix(12,0,0,12,551,708.4)" />
<use xlink:href="#f1_2b" transform="matrix(12,0,0,12,560.9,708.4)" />
<use xlink:href="#f1_1s" transform="matrix(12,0,0,12,567.9,708.4)" />
<use xlink:href="#f1_29" transform="matrix(12,0,0,12,576.8,708.4)" />
<use xlink:href="#f1_2b" transform="matrix(12,0,0,12,583.8,708.4)" />
<use xlink:href="#f2_g" transform="matrix(12,0,0,12,309.1,798.5)" />
<use xlink:href="#f2_4" transform="matrix(12,0,0,12,320.2,798.5)" />
</g>
<path d="M544.4,711.7L340.3,785.4" class="g2_47" />
<path d="M422.8,804.4l46.7,0l0,-24.4l-46.7,0l0,24.4Z" class="g4_47" />
<g fill="#000000" >
<use xlink:href="#f2_e" transform="matrix(12,0,0,12,428.8,798.5)" />
<use xlink:href="#f2_o" transform="matrix(12,0,0,12,442.3,798.5)" />
<use xlink:href="#f2_10" transform="matrix(12,0,0,12,452.5,798.5)" />
</g>
<path d="M553.1,715l-89.2,64.4" class="g2_47" />
<g fill="#000000" >
<use xlink:href="#f2_e" transform="matrix(12,0,0,12,183.7,887.8)" />
<use xlink:href="#f2_o" transform="matrix(12,0,0,12,197.2,887.8)" />
<use xlink:href="#f2_10" transform="matrix(12,0,0,12,207.4,887.8)" />
<use xlink:href="#f1_d" transform="matrix(12,0,0,12,222.5,887.8)" />
<use xlink:href="#f2_g" transform="matrix(12,0,0,12,240.4,887.8)" />
<use xlink:href="#f2_4" transform="matrix(12,0,0,12,251.6,887.8)" />
</g>
<path d="M422.2,801.9L257.6,868.8" class="g2_47" />
<g fill="#000000" >
<use xlink:href="#f1_g" transform="matrix(12,0,0,12,323.3,883.2)" />
<use xlink:href="#f1_g" transform="matrix(12,0,0,12,331.3,883.2)" />
<use xlink:href="#f1_g" transform="matrix(12,0,0,12,339.2,883.2)" />
</g>
<path d="M430.4,805l-86,69.9" class="g2_47" />
<path d="M399.3,895.3l93.7,0l0,-26l-93.7,0l0,26Z" class="g4_47" />
<g fill="#000000" >
<use xlink:href="#f2_e" transform="matrix(12,0,0,12,405.3,887.8)" />
<use xlink:href="#f2_o" transform="matrix(12,0,0,12,418.8,887.8)" />
<use xlink:href="#f2_10" transform="matrix(12,0,0,12,429,887.8)" />
<use xlink:href="#f5_3" transform="matrix(12,0,0,12,444,887.8)" />
<use xlink:href="#f2_g" transform="matrix(12,0,0,12,462.3,887.8)" />
<use xlink:href="#f2_4" transform="matrix(12,0,0,12,473.5,887.8)" />
</g>
<path d="M446.1,805l0,63.7" class="g2_47" />
<g fill="#000000" >
<use xlink:href="#f1_b" transform="matrix(12,0,0,12,135.9,977)" />
<use xlink:href="#f2_e" transform="matrix(12,0,0,12,142.8,977)" />
<use xlink:href="#f2_o" transform="matrix(12,0,0,12,156.4,977)" />
<use xlink:href="#f2_10" transform="matrix(12,0,0,12,166.6,977)" />
<use xlink:href="#f5_3" transform="matrix(12,0,0,12,181.6,977)" />
<use xlink:href="#f2_g" transform="matrix(12,0,0,12,199.9,977)" />
<use xlink:href="#f2_4" transform="matrix(12,0,0,12,211.1,977)" />
<use xlink:href="#f1_c" transform="matrix(12,0,0,12,224.6,977)" />
<use xlink:href="#f1_d" transform="matrix(12,0,0,12,235.6,977)" />
<use xlink:href="#f2_g" transform="matrix(12,0,0,12,253.6,977)" />
<use xlink:href="#f2_4" transform="matrix(12,0,0,12,264.7,977)" />
</g>
<path d="M410.1,895.9L248.7,956.7" class="g2_47" />
<g fill="#000000" >
<use xlink:href="#f1_g" transform="matrix(12,0,0,12,354.5,973.3)" />
<use xlink:href="#f1_g" transform="matrix(12,0,0,12,362.5,973.3)" />
<use xlink:href="#f1_g" transform="matrix(12,0,0,12,370.4,973.3)" />
</g>
<path d="M434.1,895.9l-61.1,69" class="g2_47" />
<path d="M446.4,987.5l158.8,0l0,-30.2l-158.8,0l0,30.2Z" class="g3_47" />
<g fill="#000000" >
<use xlink:href="#f1_b" transform="matrix(12,0,0,12,452.4,977)" />
<use xlink:href="#f2_e" transform="matrix(12,0,0,12,459.3,977)" />
<use xlink:href="#f2_o" transform="matrix(12,0,0,12,472.9,977)" />
<use xlink:href="#f2_10" transform="matrix(12,0,0,12,483.1,977)" />
<use xlink:href="#f5_3" transform="matrix(12,0,0,12,498.1,977)" />
<use xlink:href="#f2_g" transform="matrix(12,0,0,12,516.4,977)" />
<use xlink:href="#f2_4" transform="matrix(12,0,0,12,527.5,977)" />
<use xlink:href="#f1_c" transform="matrix(12,0,0,12,541.1,977)" />
<use xlink:href="#f1_d" transform="matrix(12,0,0,12,552.1,977)" />
<use xlink:href="#f2_a" transform="matrix(12,0,0,12,570.1,977)" />
<use xlink:href="#f2_s" transform="matrix(12,0,0,12,582.6,977)" />
<use xlink:href="#f2_w" transform="matrix(12,0,0,12,588.1,977)" />
</g>
<path d="M458.1,895.9l53.8,60.8" class="g2_47" />
<g fill="#000000" >
<use xlink:href="#f1_g" transform="matrix(12,0,0,12,416.9,1063.4)" />
<use xlink:href="#f1_g" transform="matrix(12,0,0,12,424.8,1063.4)" />
<use xlink:href="#f1_g" transform="matrix(12,0,0,12,432.8,1063.4)" />
</g>
<path d="M508.9,988.1L436.8,1055" class="g2_47" />
<g fill="#000000" >
<use xlink:href="#f1_g" transform="matrix(12,0,0,12,513.9,1063.4)" />
<use xlink:href="#f1_g" transform="matrix(12,0,0,12,521.8,1063.4)" />
<use xlink:href="#f1_g" transform="matrix(12,0,0,12,529.8,1063.4)" />
</g>
<path d="M525.8,988.1l0,66.9" class="g2_47" />
<g fill="#000000" >
<use xlink:href="#f1_g" transform="matrix(12,0,0,12,610.9,1063.4)" />
<use xlink:href="#f1_g" transform="matrix(12,0,0,12,618.9,1063.4)" />
<use xlink:href="#f1_g" transform="matrix(12,0,0,12,626.8,1063.4)" />
</g>
<path d="M542.7,988.1l72.1,66.9" class="g2_47" />
<g fill="#000000" >
<use xlink:href="#f1_g" transform="matrix(12,0,0,12,673.3,973.3)" />
<use xlink:href="#f1_g" transform="matrix(12,0,0,12,681.2,973.3)" />
<use xlink:href="#f1_g" transform="matrix(12,0,0,12,689.2,973.3)" />
</g>
<path d="M482.1,895.9l184.6,69.5" class="g2_47" />
<g fill="#000000" >
<use xlink:href="#f1_g" transform="matrix(12,0,0,12,545.1,883.2)" />
<use xlink:href="#f1_g" transform="matrix(12,0,0,12,553,883.2)" />
<use xlink:href="#f1_g" transform="matrix(12,0,0,12,561,883.2)" />
</g>
<path d="M461.9,805l85.9,69.9" class="g2_47" />
<g fill="#000000" >
<use xlink:href="#f2_e" transform="matrix(12,0,0,12,621.8,887.8)" />
<use xlink:href="#f2_o" transform="matrix(12,0,0,12,635.4,887.8)" />
<use xlink:href="#f2_10" transform="matrix(12,0,0,12,645.6,887.8)" />
<use xlink:href="#f5_3" transform="matrix(12,0,0,12,660.6,887.8)" />
<use xlink:href="#f2_j" transform="matrix(12,0,0,12,678.9,887.8)" />
<use xlink:href="#f2_c" transform="matrix(12,0,0,12,699.1,887.8)" />
</g>
<path d="M470.1,801.9l164.4,66.8" class="g2_47" />
<g fill="#000000" >
<use xlink:href="#f2_a" transform="matrix(12,0,0,12,556.3,798.5)" />
<use xlink:href="#f2_s" transform="matrix(12,0,0,12,568.7,798.5)" />
<use xlink:href="#f2_w" transform="matrix(12,0,0,12,574.3,798.5)" />
</g>
<path d="M570.9,715l0,64.4" class="g2_47" />
<g fill="#000000" >
<use xlink:href="#f2_2" transform="matrix(12,0,0,12,688.4,798.5)" />
</g>
<path d="M588.6,715l93.2,67.3" class="g2_47" />
<g fill="#000000" >
<use xlink:href="#f2_j" transform="matrix(12,0,0,12,802.8,798.5)" />
<use xlink:href="#f2_c" transform="matrix(12,0,0,12,823,798.5)" />
</g>
<path d="M597.3,711.7l198.9,71.8" class="g2_47" />
<g fill="#000000" >
<use xlink:href="#f3_c" transform="matrix(10.9,0,0,10.9,148.8,1120.5)" />
<use xlink:href="#f3_l" transform="matrix(10.9,0,0,10.9,160.9,1120.5)" />
<use xlink:href="#f3_k" transform="matrix(10.9,0,0,10.9,166.2,1120.5)" />
<use xlink:href="#f3_t" transform="matrix(10.9,0,0,10.9,175.8,1120.5)" />
<use xlink:href="#f3_q" transform="matrix(10.9,0,0,10.9,186.5,1120.5)" />
<use xlink:href="#f3_i" transform="matrix(10.9,0,0,10.9,194.3,1120.5)" />
<use xlink:href="#f3_4" transform="matrix(10.9,0,0,10.9,209.5,1120.5)" />
<use xlink:href="#f3_1" transform="matrix(10.9,0,0,10.9,219.1,1120.5)" />
<use xlink:href="#f3_a" transform="matrix(10.9,0,0,10.9,224.4,1120.5)" />
<use xlink:href="#f3_b" transform="matrix(10.9,0,0,10.9,234,1120.5)" />
<use xlink:href="#f4_r" transform="matrix(10.9,0,0,10.9,247.9,1120.5)" />
<use xlink:href="#f4_1u" transform="matrix(10.9,0,0,10.9,259.9,1120.5)" />
<use xlink:href="#f4_21" transform="matrix(10.9,0,0,10.9,267.8,1120.5)" />
<use xlink:href="#f4_1h" transform="matrix(10.9,0,0,10.9,275.6,1120.5)" />
<use xlink:href="#f4_1x" transform="matrix(10.9,0,0,10.9,284,1120.5)" />
<use xlink:href="#f4_1p" transform="matrix(10.9,0,0,10.9,290.5,1120.5)" />
<use xlink:href="#f4_1h" transform="matrix(10.9,0,0,10.9,295.1,1120.5)" />
<use xlink:href="#f4_1t" transform="matrix(10.9,0,0,10.9,303.5,1120.5)" />
<use xlink:href="#f4_1j" transform="matrix(10.9,0,0,10.9,312.7,1120.5)" />
<use xlink:href="#f4_1l" transform="matrix(10.9,0,0,10.9,320.1,1120.5)" />
<use xlink:href="#f4_1m" transform="matrix(10.9,0,0,10.9,333.1,1120.5)" />
<use xlink:href="#f4_20" transform="matrix(10.9,0,0,10.9,338.2,1120.5)" />
<use xlink:href="#f4_1t" transform="matrix(10.9,0,0,10.9,347.4,1120.5)" />
<use xlink:href="#f4_1j" transform="matrix(10.9,0,0,10.9,356.7,1120.5)" />
<use xlink:href="#f4_1z" transform="matrix(10.9,0,0,10.9,364.1,1120.5)" />
<use xlink:href="#f4_1p" transform="matrix(10.9,0,0,10.9,370.6,1120.5)" />
<use xlink:href="#f4_1u" transform="matrix(10.9,0,0,10.9,375.2,1120.5)" />
<use xlink:href="#f4_1t" transform="matrix(10.9,0,0,10.9,383.5,1120.5)" />
<use xlink:href="#f4_1k" transform="matrix(10.9,0,0,10.9,398.4,1120.5)" />
<use xlink:href="#f4_1p" transform="matrix(10.9,0,0,10.9,407.6,1120.5)" />
<use xlink:href="#f4_1y" transform="matrix(10.9,0,0,10.9,412.2,1120.5)" />
<use xlink:href="#f4_1j" transform="matrix(10.9,0,0,10.9,418.8,1120.5)" />
<use xlink:href="#f4_1u" transform="matrix(10.9,0,0,10.9,426.2,1120.5)" />
<use xlink:href="#f4_21" transform="matrix(10.9,0,0,10.9,434.1,1120.5)" />
<use xlink:href="#f4_1l" transform="matrix(10.9,0,0,10.9,442.4,1120.5)" />
<use xlink:href="#f4_1x" transform="matrix(10.9,0,0,10.9,449.8,1120.5)" />
<use xlink:href="#f4_24" transform="matrix(10.9,0,0,10.9,456.4,1120.5)" />
<use xlink:href="#f4_20" transform="matrix(10.9,0,0,10.9,470.7,1120.5)" />
<use xlink:href="#f4_1y" transform="matrix(10.9,0,0,10.9,480,1120.5)" />
<use xlink:href="#f4_1p" transform="matrix(10.9,0,0,10.9,486.6,1120.5)" />
<use xlink:href="#f4_1t" transform="matrix(10.9,0,0,10.9,491.2,1120.5)" />
<use xlink:href="#f4_1n" transform="matrix(10.9,0,0,10.9,500.4,1120.5)" />
<use xlink:href="#f4_1n" transform="matrix(10.9,0,0,10.9,514.3,1120.5)" />
<use xlink:href="#f4_1x" transform="matrix(10.9,0,0,10.9,522.7,1120.5)" />
<use xlink:href="#f4_1l" transform="matrix(10.9,0,0,10.9,529.2,1120.5)" />
<use xlink:href="#f4_1l" transform="matrix(10.9,0,0,10.9,536.6,1120.5)" />
<use xlink:href="#f4_1k" transform="matrix(10.9,0,0,10.9,544,1120.5)" />
<use xlink:href="#f4_24" transform="matrix(10.9,0,0,10.9,553.3,1120.5)" />
<use xlink:href="#f4_1y" transform="matrix(10.9,0,0,10.9,567.6,1120.5)" />
<use xlink:href="#f4_1l" transform="matrix(10.9,0,0,10.9,574.2,1120.5)" />
<use xlink:href="#f4_1h" transform="matrix(10.9,0,0,10.9,581.6,1120.5)" />
<use xlink:href="#f4_1x" transform="matrix(10.9,0,0,10.9,589.9,1120.5)" />
<use xlink:href="#f4_1j" transform="matrix(10.9,0,0,10.9,596.5,1120.5)" />
<use xlink:href="#f4_1o" transform="matrix(10.9,0,0,10.9,603.4,1120.5)" />
<use xlink:href="#f4_1h" transform="matrix(10.9,0,0,10.9,618.2,1120.5)" />
<use xlink:href="#f4_1v" transform="matrix(10.9,0,0,10.9,626.6,1120.5)" />
<use xlink:href="#f4_1v" transform="matrix(10.9,0,0,10.9,635.8,1120.5)" />
<use xlink:href="#f4_1x" transform="matrix(10.9,0,0,10.9,645.1,1120.5)" />
<use xlink:href="#f4_1u" transform="matrix(10.9,0,0,10.9,651.6,1120.5)" />
<use xlink:href="#f4_1h" transform="matrix(10.9,0,0,10.9,659.9,1120.5)" />
<use xlink:href="#f4_1j" transform="matrix(10.9,0,0,10.9,668.3,1120.5)" />
<use xlink:href="#f4_1o" transform="matrix(10.9,0,0,10.9,675.2,1120.5)" />
<use xlink:href="#f4_1h" transform="matrix(10.9,0,0,10.9,690,1120.5)" />
<use xlink:href="#f4_1z" transform="matrix(10.9,0,0,10.9,698.4,1120.5)" />
<use xlink:href="#f4_1k" transform="matrix(10.9,0,0,10.9,710.4,1120.5)" />
<use xlink:href="#f4_1l" transform="matrix(10.9,0,0,10.9,719.7,1120.5)" />
<use xlink:href="#f4_1v" transform="matrix(10.9,0,0,10.9,727.1,1120.5)" />
<use xlink:href="#f4_1z" transform="matrix(10.9,0,0,10.9,736.3,1120.5)" />
<use xlink:href="#f4_1o" transform="matrix(10.9,0,0,10.9,742.8,1120.5)" />
<use xlink:href="#f4_1r" transform="matrix(10.9,0,0,10.9,757.6,1120.5)" />
<use xlink:href="#f4_1l" transform="matrix(10.9,0,0,10.9,762.3,1120.5)" />
<use xlink:href="#f4_21" transform="matrix(10.9,0,0,10.9,769.7,1120.5)" />
<use xlink:href="#f4_1l" transform="matrix(10.9,0,0,10.9,778,1120.5)" />
<use xlink:href="#f4_1r" transform="matrix(10.9,0,0,10.9,785.4,1120.5)" />
<use xlink:href="#f4_g" transform="matrix(10.9,0,0,10.9,795.6,1120.5)" />
</g>
<defs>
	<path d="M412.5,-18.2C224.6,-18.2,71.8,64.2,71.8,204.7c0,64.2,44.3,108.5,108.5,108.5c62.6,0,106.9,-44.3,106.9,-106.9c0,-45.9,-22.9,-93.2,-88.6,-107C271.9,47.4,372.8,42.8,404.9,42.8c165,0,165,161.9,165,230.7c0,73.3,0,232.2,-171.1,232.2l-73.4,0c-30.5,0,-39.7,0,-39.7,26c0,6.1,0,16.8,9.2,21.4c6.1,3,36.6,4.5,55,6.1c58,3,97.7,6.1,137.5,58c48.9,62.7,55,132.9,55,178.8c0,45.8,0,151.2,-136,151.2c-9.2,0,-113.1,0,-177.2,-62.6c71.8,-10.7,87.1,-62.7,87.1,-97.8c0,-70.3,-53.5,-99.3,-97.8,-99.3c-39.7,0,-99.3,24.4,-99.3,100.8c0,123.8,125.2,213.9,296.4,213.9c212.3,0,322.3,-96.2,322.3,-210.8C737.9,670.7,644.7,576,510.3,534.7c236.8,-41.2,275,-186.4,275,-261.2C785.3,120.7,664.6,-18.2,412.5,-18.2Z" 
	id="f0_d"
	transform="scale(0.001,-0.001)" />

	<path d="M238.3,0c-59.5,0,-110,47.4,-110,110c0,62.6,50.5,110,110,110c59.6,0,110,-47.4,110,-110C348.3,47.4,297.9,0,238.3,0Z" 
	id="f0_9"
	transform="scale(0.001,-0.001)" />

	<path d="M85.6,0l0,26c0,27.5,0,30.5,15.2,44.3L432.4,417.1C495,482.8,576,592.8,576,711.9c0,110,-67.2,224.6,-207.8,224.6c-32.1,0,-113.1,-6.1,-174.2,-76.4c47.4,-6.1,94.8,-38.2,94.8,-102.3c0,-70.3,-55,-102.4,-102.4,-102.4c-35.1,0,-100.8,22.9,-100.8,103.9c0,145.1,148.2,242.9,320.8,242.9c201.7,0,365.1,-108.4,365.1,-288.7C771.5,566.8,667.6,488.9,498.1,362.1c-23,-16.8,-162,-132.9,-220,-181.8l236.8,0c22.9,0,142,0,154.3,10.7c22.9,15.3,33.6,105.4,38.2,137.5l64.1,0L727.2,0Z" 
	id="f0_c"
	transform="scale(0.001,-0.001)" />

	<path d="M759.3,369.7l-177.2,440L403.3,369.7ZM59.6,0l0,65.7l27.5,0c33.6,0,39.7,0,77.9,4.6c42.8,4.6,42.8,7.6,53.5,32.1l378.9,931.9c10.7,27.5,13.7,35.1,51.9,35.1c36.7,0,39.7,-7.6,50.4,-35.1L1092.4,65.7l145.1,0L1199.3,3.1l-262.8,0C788.3,3.1,994.6,0,739.4,0l0,65.7l143.7,0L786.8,304l-409.4,0l-81,-198.6c-3.1,-6.1,-3.1,-9.1,-7.6,-22.9C331.5,65.7,389.6,65.7,423.2,65.7L388.1,3.1L191,3.1C99.3,3.1,235.3,0,59.6,0Z" 
	id="f0_m"
	transform="scale(0.001,-0.001)" />

	<path d="M690.6,65.7c175.7,0,227.6,123.7,227.6,220c0,68.7,-26,233.7,-204.7,233.7l-304.1,0l0,-453.7ZM637.1,569.9c178.7,0,238.3,110,238.3,216.9c0,76.4,-32.1,195.6,-189.4,195.6l-276.6,0l0,-412.5ZM59.6,0l0,65.7l161.9,0l0,916.7l-161.9,0l0,65.7l644.7,0c244.5,0,372.8,-122.3,372.8,-262.8c0,-71.8,-42.8,-197.1,-262.8,-238.4C999.2,533.2,1126,427.8,1126,282.6C1126,136,1002.2,0,750.1,0Z" 
	id="f0_n"
	transform="scale(0.001,-0.001)" />

	<path d="M696.7,-18.2c-374.3,0,-602,227.5,-602,542.2c0,320.9,235.3,542.4,600.4,542.4c113.1,0,215.5,-36.7,301,-110l114.6,110c33.6,0,33.6,-4.6,33.6,-39.7l0,-333.1c0,-36.7,0,-39.7,-35.1,-39.7c-18.4,0,-32.1,0,-35.2,13.7c-45.8,268.9,-230.7,333.1,-345.2,333.1c-73.4,0,-226.2,-15.3,-323.9,-129.9C333.1,785.3,310.1,673.8,310.1,524C310.1,313.2,359,229.2,412.5,171.1C498.1,74.9,632.5,47.4,731.8,47.4c137.5,0,334.6,79.4,348.3,311.6c1.6,16.8,16.8,16.8,32.1,16.8c22.9,0,32.1,-1.5,32.1,-27.5C1144.3,168.1,968.6,-18.2,696.7,-18.2Z" 
	id="f0_o"
	transform="scale(0.001,-0.001)" />

	<path d="M643.2,65.7c137.5,0,239.9,50.4,293.3,120.7c53.5,71.8,76.4,151.2,76.4,330c0,197.1,-29,271.9,-73.3,334.6C883.1,930.4,776.1,982.4,643.2,982.4l-229.2,0L414,65.7ZM58.1,0l0,65.7l161.9,0l0,916.7l-161.9,0l0,65.7l643.2,0c287.2,0,519.4,-188,519.4,-533.2C1220.7,187.9,994.6,0,701.3,0Z" 
	id="f0_p"
	transform="scale(0.001,-0.001)" />

	<path d="M238.3,0c-59.5,0,-110,47.4,-110,110c0,62.6,50.5,110,110,110c59.6,0,110,-47.4,110,-110C348.3,47.4,297.9,0,238.3,0Zm0,458.3c-59.5,0,-110,47.4,-110,110c0,62.7,50.5,110,110,110c59.6,0,110,-47.3,110,-110c0,-62.6,-50.4,-110,-110,-110Z" 
	id="f0_k"
	transform="scale(0.001,-0.001)" />

	<path d="M81,-9.1C58.1,-9.1,58.1,1.5,58.1,30.6l0,175.7c0,35.1,0,39.7,32,39.7c26,0,27.5,-1.6,36.7,-32.1C169.6,65.7,265.8,41.3,343.8,41.3c32,0,171.1,0,171.1,117.6c0,64.2,-61.1,102.4,-122.3,116.1c-6.1,0,-56.5,9.2,-97.7,16.8C247.5,299.4,58.1,333.1,58.1,493.5c0,198.6,229.1,198.6,275,198.6c55,0,111.5,-9.2,154.3,-33.6c7.6,4.6,24.4,15.3,30.5,19.8c22.9,13.8,26,13.8,35.2,13.8c22.9,0,22.9,-10.7,22.9,-39.7L576,521c0,-35.2,0,-39.7,-32.1,-39.7c-18.3,0,-30.6,0,-32.1,19.8c-3,38.2,-12.2,145.2,-181.8,145.2c-32.1,0,-168.1,0,-168.1,-99.4c0,-73.3,91.7,-90.1,189.5,-106.9c82.5,-15.3,134.4,-24.4,197.1,-76.4C579,336.1,618.8,285.7,618.8,212.4C618.8,9.2,427.8,-9.1,343.8,-9.1c-27.5,0,-110,0,-178.8,53.4l-39.7,-29C94.7,-9.1,91.7,-9.1,81,-9.1Z" 
	id="f0_1r"
	transform="scale(0.001,-0.001)" />

	<path d="M192.5,-305.5c-91.7,0,-158.9,64.2,-158.9,136c0,52,36.7,84,84,84c45.9,0,82.5,-32,82.5,-82.5c0,-58,-45.8,-76.3,-48.8,-77.9c16.8,-9.1,35.1,-9.1,41.2,-9.1c106.9,0,155.8,105.4,187.9,174.1c7.7,18.4,29,62.7,36.7,80.9L134.4,612.6l-97.7,0l39.7,62.7l177.2,0c103.9,0,-42.8,3,140.6,3l0,-65.7l-84.1,0L505.7,189.4l178.7,385c1.6,4.6,6.2,13.8,6.2,18.4c0,19.8,-71.8,19.8,-73.4,19.8l87.1,62.7l107,0c6.1,0,-62.7,3,58,3l0,-65.7c-97.8,0,-103.9,-12.2,-113,-33.6L430.8,-125.2c-30.5,-67.2,-113,-180.3,-238.3,-180.3Z" 
	id="f0_1x"
	transform="scale(0.001,-0.001)" />

	<path d="M391.1,-9.1c-110,0,-235.3,35.1,-235.3,197l0,424.7l-123.7,0l0,50.5c151.2,4.5,224.6,155.8,226.1,307l64.2,0l0,-291.8l220,0l0,-65.7l-220,0l0,-429.3c0,-35.1,0,-137.5,91.6,-137.5c47.4,0,93.2,44.3,93.2,145.2l0,79.4l64.2,0l0,-81C571.4,76.4,504.2,-9.1,391.1,-9.1Z" 
	id="f0_1s"
	transform="scale(0.001,-0.001)" />

	<path d="M594.3,381.9C592.8,458.3,579,641.7,415.6,641.7c-65.7,0,-119.2,-33.6,-148.2,-82.5C235.3,504.2,233.8,444.6,230.7,381.9ZM435.4,-9.1c-230.7,0,-388,139,-388,352.9c0,192.5,129.8,348.3,368.2,348.3c88.6,0,174.1,-19.9,238.3,-84c70.3,-71.8,81,-186.4,81,-232.3c0,-38.2,-9.2,-38.2,-44.3,-38.2l-459.9,0c0,-85.5,1.5,-291.8,223.1,-291.8c73.3,0,174.1,32.1,213.8,131.4c9.2,19.9,10.7,24.5,35.2,24.5c9.1,0,32.1,0,32.1,-22.9c0,-26,-68.8,-187.9,-299.5,-187.9Z" 
	id="f0_1d"
	transform="scale(0.001,-0.001)" />

	<path d="M64.2,0l0,65.7l105.4,0l0,484.3c0,59.6,-10.7,59.6,-105.4,59.6l0,65.7l258.2,12.2l0,-168.1l1.5,0C356,592.8,435.4,687.5,582.1,687.5c97.8,0,201.7,-22.9,226.1,-152.8c24.4,48.9,96.2,152.8,250.6,152.8c171.1,0,230.6,-79.4,230.6,-220l0,-401.8l105.5,0L1359.7,3.1l-197.1,0C1052.6,3.1,1205.4,0,1017.5,0l0,65.7l105.4,0l0,418.6c0,119.2,-33.6,152.8,-90.1,152.8c-96.3,0,-220,-79.5,-220,-246l0,-325.4l105.4,0L883.1,3.1L686,3.1C576,3.1,728.8,0,540.8,0l0,65.7l105.5,0l0,418.6c0,119.2,-33.7,152.8,-90.2,152.8c-96.2,0,-220,-79.5,-220,-246l0,-325.4l105.4,0L406.4,3.1l-197.1,0C99.3,3.1,252.1,0,64.2,0Z" 
	id="f0_1l"
	transform="scale(0.001,-0.001)" />

	<path d="M67.2,0l0,65.7l105.4,0l0,546.9l-113,0l0,65.7l113,0l0,155.9c0,177.2,169.6,235.2,308.7,235.2c108.4,0,163.4,-64.1,163.4,-126.8c0,-67.2,-55,-90.1,-88.6,-90.1c-39.7,0,-88.6,27.5,-88.6,88.6c0,32.1,13.8,58.1,36.7,73.3c-9.2,3.1,-12.3,4.6,-29.1,4.6C424.7,1019,323.9,994.6,323.9,835.7l0,-157.4l181.8,0l0,-65.7l-174.2,0l0,-546.9l132.9,0L427.8,3.1l-210.9,0C102.4,3.1,259.7,0,67.2,0Z" 
	id="f0_1e"
	transform="scale(0.001,-0.001)" />

	<path d="M429.3,45.8c197.1,0,197.1,177.3,197.1,304.1c0,73.3,0,152.7,-30.6,207.7c-25.9,42.8,-80.9,84.1,-168,84.1c-65.7,0,-134.5,-27.5,-168.1,-88.6c-29,-55,-29,-131.4,-29,-203.2c0,-125.3,0,-304.1,198.6,-304.1ZM427.8,-9.1C187.9,-9.1,47.4,134.4,47.4,334.6c0,198.6,132.9,357.5,381.9,357.5c239.9,0,380.4,-151.3,380.4,-357.5C809.7,142.1,676.8,-9.1,427.8,-9.1Z" 
	id="f0_1n"
	transform="scale(0.001,-0.001)" />

	<path d="M53.5,0l0,65.7l105.4,0l0,484.3c0,59.6,-10.7,59.6,-105.4,59.6l0,65.7L304,687.5l0,-169.6l1.6,0c21.3,64.2,73.3,169.6,194,169.6c73.3,0,152.8,-42.8,152.8,-120.7c0,-62.6,-50.5,-88.6,-88.6,-88.6c-38.2,0,-88.7,26,-88.7,88.6c0,27.5,10.7,53.5,32.1,70.3C328.5,637.1,317.8,394.2,317.8,343.8l0,-278.1l132.9,0L414,3.1l-210.8,0C88.6,3.1,246,0,53.5,0Z" 
	id="f0_1q"
	transform="scale(0.001,-0.001)" />

	<path d="M359,41.3c48.9,0,177.3,27.5,177.3,171.1l0,143.6C386.5,348.3,221.5,301,221.5,161.9C221.5,91.7,284.2,41.3,359,41.3ZM334.6,-9.1C229.2,-9.1,51.9,21.4,51.9,160.4c0,169.6,243,236.8,484.4,236.8l0,61.1c0,125.3,-62.7,183.4,-166.6,183.4c-29,0,-65.7,0,-116.1,-13.8c26,-16.8,36.7,-44.3,36.7,-73.3c0,-58.1,-44.3,-90.2,-90.2,-90.2c-41.2,0,-90.1,27.5,-90.1,91.7c0,128.3,180.3,136,265.8,136c215.5,0,327,-94.7,327,-235.3l0,-330c0,-35.1,0,-59.6,96.2,-61.1c21.4,0,35.2,0,35.2,-32.1C834.2,0,821.9,0,789.9,0l-78,0C557.6,0,557.6,65.7,557.6,122.2C527.1,55,452.2,-9.1,334.6,-9.1Z" 
	id="f0_19"
	transform="scale(0.001,-0.001)" />

	<path d="M435.4,-9.1c-163.5,0,-265.8,44.2,-265.8,197l0,362.1c0,59.6,-10.7,59.6,-105.4,59.6l0,65.7l271.9,12.2l0,-524c0,-84.1,6.1,-122.2,120.7,-122.2c119.2,0,187.9,93.1,187.9,209.3l0,299.4c0,59.6,-10.7,59.6,-105.4,59.6l0,65.7l272,12.2l0,-562.2c0,-59.6,10.6,-59.6,105.4,-59.6L916.7,0L652.4,-9.1l0,123.7l-1.6,0C585.1,-9.1,472.1,-9.1,435.4,-9.1Z" 
	id="f0_1t"
	transform="scale(0.001,-0.001)" />

	<path d="M67.2,0l0,65.7l105.4,0l0,484.3c0,59.6,-10.7,59.6,-100.8,59.6l0,65.7l259.7,12.2l0,-621.8l94.8,0L389.6,3.1l-181.8,0C102.4,3.1,249,0,67.2,0ZM230.7,841.8c-62.6,0,-110,52,-110,110c0,58.1,47.4,110,110,110c59.6,0,110,-47.4,110,-110c0,-62.6,-50.4,-110,-110,-110Z" 
	id="f0_1h"
	transform="scale(0.001,-0.001)" />

	<path d="M427.8,-9.1C203.2,-9.1,58.1,131.4,58.1,339.2c0,175.7,106.9,352.9,378.8,352.9c82.5,0,258.2,-9.2,258.2,-134.5C695.1,485.8,637.1,466,605,466c-38.2,0,-90.1,25.9,-90.1,90.1c0,38.2,19.8,61.1,24.4,65.7c3.1,1.5,4.6,3.1,4.6,4.6c0,7.6,-90.1,10.7,-100.8,10.7C242.9,637.1,241.4,436.9,241.4,346.8c0,-68.7,0,-301,215.4,-301c140.6,0,181.8,102.4,192.5,131.4c7.6,18.4,9.2,19.9,33.6,19.9c15.3,0,32.1,0,32.1,-18.3C715,168.1,667.6,-9.1,427.8,-9.1Z" 
	id="f0_1b"
	transform="scale(0.001,-0.001)" />

	<path d="M430.8,41.3c55,0,133,19.8,197.1,113l0,388.1c-50.4,67.2,-117.6,94.7,-180.3,94.7c-35.1,0,-125.2,-9.2,-172.6,-94.7C241.4,484.3,241.4,407.9,241.4,336.1c0,-100.8,0,-294.8,189.4,-294.8ZM412.5,-9.1C209.3,-9.1,58.1,120.7,58.1,339.2c0,213.9,154.3,348.3,371.2,348.3c105.4,0,172.6,-44.3,206.3,-73.3l0,308.6c0,59.6,-10.7,59.6,-105.5,59.6l0,65.7l264.3,12.2l0,-935c0,-59.6,10.7,-59.6,105.5,-59.6L899.9,0l-272,-9.1l0,79.4C568.3,19.9,496.5,-9.1,412.5,-9.1Z" 
	id="f0_1c"
	transform="scale(0.001,-0.001)" />

	<path d="M64.2,0l0,65.7l105.4,0l0,484.3c0,59.6,-10.7,59.6,-105.4,59.6l0,65.7l258.2,12.2l0,-168.1l1.5,0C375.8,634,470.6,687.5,580.6,687.5c168,0,230.7,-74.9,230.7,-220l0,-401.8l105.4,0L881.5,3.1l-197.1,0C574.4,3.1,727.2,0,539.3,0l0,65.7l105.4,0l0,418.6c0,116.1,-32.1,152.8,-88.6,152.8c-97.8,0,-220,-81,-220,-246l0,-325.4l105.4,0L406.4,3.1l-197.1,0C99.3,3.1,252.1,0,64.2,0Z" 
	id="f0_1m"
	transform="scale(0.001,-0.001)" />

	<path d="M67.2,0l0,65.7l105.4,0l0,857.1c0,59.6,-10.7,59.6,-105.4,59.6l0,65.7l264.3,12.2l0,-994.6l105.4,0L401.8,3.1l-191,0C102.4,3.1,252.1,0,67.2,0Z" 
	id="f0_1k"
	transform="scale(0.001,-0.001)" />

	<path d="M97.8,-32C82.5,-32,82.5,-24.3,82.5,3.1l0,308.6c0,27.5,0,35.1,16.8,35.1c3.1,0,15.3,0,16.8,-12.2c1.5,-50.4,7.7,-160.4,96.3,-239.9C287.2,29,381.9,12.2,450.7,12.2c126.8,0,207.8,108.5,207.8,223.1c0,85.5,-47.4,168,-119.2,203.2C517.9,447.6,433.9,469,380.4,481.3C271.9,508.8,218.5,522.5,165,582.1C108.5,643.2,82.5,710.4,82.5,783.8c0,155.8,123.8,291.8,293.3,291.8c67.3,0,168.1,-18.4,241.4,-113.1l50.4,93.2c10.7,19.9,16.8,19.9,21.4,19.9c15.3,0,15.3,-7.7,15.3,-35.2l0,-308.6c0,-27.5,0,-35.1,-16.8,-35.1c-15.3,0,-15.3,6.1,-18.3,24.4c-9.2,65.7,-42.8,313.2,-293.4,313.2c-119.1,0,-204.7,-96.2,-204.7,-203.2c0,-97.8,68.8,-174.2,146.7,-194l168,-42.8C545.4,579,614.2,562.2,670.7,493.5c41.2,-50.4,76.4,-119.2,76.4,-212.4C747.1,113.1,623.3,-32,452.2,-32C320.8,-32,224.6,19.9,169.6,81C157.4,58.1,125.3,1.5,119.2,-10.6C108.5,-28.9,106.9,-32,97.8,-32Z" 
	id="f1_1f"
	transform="scale(0.001,-0.001)" />

	<path d="M351.4,-15.2c-81,0,-194,35.1,-194,204.6l0,424.8l-129.9,0l0,30.5c139,4.6,194,151.3,195.6,294.9l33.6,0l0,-281.1l215.4,0l0,-44.3l-215.4,0l0,-427.8c0,-26,0,-168.1,103.9,-168.1c59.5,0,103.8,64.2,103.8,174.2l0,84l33.7,0l0,-87.1c0,-110,-50.5,-204.6,-146.7,-204.6Z" 
	id="f1_2b"
	transform="scale(0.001,-0.001)" />

	<path d="M313.2,15.3c65.7,0,177.2,50.4,177.2,200.1l0,151.3C435.4,363.6,175.7,345.3,175.7,143.6C175.7,70.3,238.3,15.3,313.2,15.3ZM301,-15.2C207.8,-15.2,67.2,22.9,67.2,143.6c0,117.7,116.1,246,423.2,250.6l0,61.1c0,137.5,-90.1,195.5,-160.4,195.5c-61.1,0,-134.4,-27.5,-169.6,-91.6c22.9,0,77.9,0,77.9,-62.7c0,-36.6,-25.9,-62.6,-62.6,-62.6c-35.1,0,-64.2,21.4,-64.2,65.7c0,99.3,96.3,181.8,221.6,181.8c67.2,0,135.9,-21.4,189.4,-70.3c67.2,-59.6,67.2,-120.7,67.2,-203.2l0,-267.3c0,-23,0,-103.9,58.1,-103.9c21.4,0,58,12.2,58,99.3l0,85.5l33.6,0l0,-85.5C739.4,13.8,650.8,-7.5,618.8,-7.5c-65.7,0,-113.1,54.9,-119.2,126.7C470.6,45.8,401.8,-15.2,301,-15.2Z" 
	id="f1_1s"
	transform="scale(0.001,-0.001)" />

	<path d="M42.8,0l0,44.3c99.3,0,116.1,0,116.1,68.8l0,414c0,74.8,-12.2,85.5,-116.1,85.5l0,44.3l204.7,16.9l0,-169.6l1.5,0c9.2,29,53.5,169.6,183.4,169.6c65.7,0,106.9,-42.8,106.9,-88.7C539.3,543.9,508.8,524,478.2,524c-24.4,0,-59.6,16.8,-59.6,61.1c0,41.3,24.5,50.5,36.7,56.6c-6.1,1.5,-9.2,1.5,-21.4,1.5C316.3,643.2,255.1,504.2,255.1,356l0,-239.9c0,-55,3.1,-71.8,114.6,-71.8l30.6,0L365.1,3.1l-195.5,0C85.6,3.1,215.4,0,42.8,0Z" 
	id="f1_29"
	transform="scale(0.001,-0.001)" />

	<path d="M126.8,-33.5C110,-33.5,110,-22.8,110,3.1l0,305.5c0,27.5,0,38.2,19.9,38.2c7.6,0,16.8,-3,18.3,-13.7c1.5,-52,6.1,-163.5,105.4,-241.4C337.6,26,440,13.8,504.2,13.8c139,0,220,110,220,218.4c0,82.5,-45.9,134.5,-55,145.2c-47.4,51.9,-77.9,59.5,-168.1,80.9c-24.4,6.1,-50.4,10.7,-74.8,16.8C299.4,505.7,253.6,516.4,181.8,591.3C161.9,614.2,110,682.9,110,780.7c0,161.9,136,296.4,313.2,296.4c146.7,0,216.9,-68.8,258.2,-110l56.5,90.1c12.2,18.4,12.2,19.9,22.9,19.9c16.8,0,16.8,-10.7,16.8,-36.7l0,-307.1c0,-29,0,-36.6,-19.8,-36.6c-16.8,0,-16.8,7.6,-19.9,27.5C716.5,880,635.6,1034.3,424.7,1034.3c-129.8,0,-216.9,-96.2,-216.9,-200.1c0,-55,32.1,-160.4,165,-192.5L580.6,591.3C748.6,550,821.9,404.9,821.9,282.6C821.9,120.7,696.7,-33.5,505.7,-33.5C348.3,-33.5,249,32.1,206.3,76.4L149.7,-15.2c-9.1,-13.7,-12.2,-18.3,-22.9,-18.3Z" 
	id="f2_g"
	transform="scale(0.001,-0.001)" />

	<path d="M84,0l0,47.4l36.7,0c117.6,0,120.7,16.8,120.7,71.8l0,800.5c0,55,-3.1,71.8,-120.7,71.8l-36.7,0l0,47.4l895.3,0l42.8,-343.8l-38.2,0C959.4,913.6,910.6,991.5,670.7,991.5l-218.5,0c-71.8,0,-74.8,-10.7,-74.8,-61.1l0,-366.6l149.7,0c151.2,0,172.6,45.8,172.6,178.7l38.2,0l0,-404.9l-38.2,0c0,133,-21.4,178.8,-172.6,178.8l-149.7,0l0,-407.9c0,-50.4,3,-61.1,74.8,-61.1l230.7,0c270.4,0,307.1,113,345.3,346.8l38.2,0L1002.2,0Z" 
	id="f2_4"
	transform="scale(0.001,-0.001)" />

	<path d="M605,522.5c259.7,0,259.7,171.1,259.7,236.8c0,68.8,0,236.8,-259.7,236.8l-154.3,0c-71.8,0,-74.9,-10.7,-74.9,-61.1l0,-412.5ZM87.1,0l0,47.4l36.7,0c117.6,0,120.6,16.8,120.6,71.8l0,805.1c0,55,-3,71.8,-120.6,71.8l-36.7,0l0,47.4l557.6,0c215.4,0,377.4,-132.9,377.4,-284.2C1022.1,601.9,843.3,482.8,656.9,482.8l-276.5,0l0,-363.6c0,-55,3.1,-71.8,120.7,-71.8l36.7,0L484.3,4.6l-230.7,0C140.6,4.6,311.7,0,87.1,0Z" 
	id="f2_e"
	transform="scale(0.001,-0.001)" />

	<path d="M65.7,0l0,38.2c102.4,0,110,9.2,110,71.8l0,560.7c0,62.6,-7.6,71.8,-110,71.8l0,38.2l679.9,0l29,-258.2l-38.2,0c-16.8,166.5,-56.5,220,-233.8,220l-155.8,0c-53.5,0,-61.1,-4.6,-61.1,-65.7l0,-252.1l106.9,0c113.1,0,131.4,30.6,131.4,132.9l38.2,0l0,-304l-38.2,0C524,356,505.7,386.5,392.6,386.5l-106.9,0l0,-282.6c0,-61.1,7.6,-65.7,61.1,-65.7l165,0C707.4,38.2,744,111.5,770,296.4l38.2,0L763.9,0Z" 
	id="f2_o"
	transform="scale(0.001,-0.001)" />

	<path d="M418.6,409.4c198.6,0,206.3,110,206.3,169.6c0,163.5,-129.9,168.1,-243,168.1c-27.5,0,-68.7,0,-79.4,-4.6c-15.3,-7.6,-18.3,-22.9,-18.3,-61.1l0,-272ZM785.3,-21.3C716.5,-21.3,655.4,1.5,627.9,29C579,76.4,579,103.9,579,189.4c0,67.3,0,103.9,-32.1,137.5c-47.3,47.4,-87,48.9,-125.2,48.9l-137.5,0l0,-265.8c0,-62.6,7.6,-71.8,110,-71.8L354.4,1.5C275,4.6,230.7,4.6,187.9,4.6C114.6,1.5,230.7,0,68.8,0l0,38.2c102.3,0,110,9.2,110,71.8l0,565.3c0,62.6,-7.7,71.8,-110,71.8l0,38.2l366.6,0C620.3,785.3,756.3,686,756.3,579c0,-93.2,-94.8,-161.9,-201.7,-189.4C669.2,345.3,684.4,267.4,696.7,213.9c19.8,-97.8,29,-140.6,41.2,-165c9.2,-16.8,22.9,-36.7,53.5,-36.7c10.7,0,65.7,1.6,76.4,94.7c0,6.2,1.5,19.9,18.3,19.9c19.9,0,19.9,-15.3,19.9,-22.9C906,73.3,883.1,-21.3,785.3,-21.3Z" 
	id="f2_10"
	transform="scale(0.001,-0.001)" />

	<path d="M84,0l0,47.4l36.7,0c117.6,0,120.7,16.8,120.7,71.8l0,805.1c0,55,-3.1,71.8,-120.7,71.8l-36.7,0l53.5,42.8l241.4,0c139,0,-62.6,4.6,194,4.6l0,-47.4l-50.4,0c-145.1,0,-145.1,-21.4,-145.1,-73.3l0,-814.3c0,-50.4,3,-61.1,74.8,-61.1l143.6,0c281.1,0,302.5,194,319.3,346.8l38.2,0L910.6,0Z" 
	id="f2_a"
	transform="scale(0.001,-0.001)" />

	<path d="M59.6,0l0,38.2c108.5,0,116.1,7.6,116.1,73.3l0,562.3c0,65.6,-7.6,73.3,-116.1,73.3l51.9,36.7c79.5,-3.1,119.2,-3.1,158.9,-3.1c79.5,3.1,-39.7,4.6,131.4,4.6l0,-38.2c-108.5,0,-116.1,-7.7,-116.1,-73.3l0,-562.3c0,-65.7,7.6,-73.3,116.1,-73.3L349.9,1.5C270.4,4.6,230.7,4.6,191,4.6C111.5,1.5,230.7,0,59.6,0Z" 
	id="f2_s"
	transform="scale(0.001,-0.001)" />

	<path d="M65.7,0l0,38.2c110,0,110,81,110,116.1l0,582.1c-30.6,10.7,-73.3,10.7,-110,10.7l0,38.2l183.3,0c29.1,0,32.1,0,45.9,-19.9L718.1,177.2l0,453.8c0,35.1,0,116.1,-110,116.1l38.2,35.1c70.2,-1.5,93.1,-1.5,123.7,-1.5c68.8,3.1,-30.6,4.6,100.8,4.6l0,-38.2c-110,0,-110,-81,-110,-116.1l0,-591.3c0,-29,0,-39.7,-21.4,-39.7c-9.1,0,-13.7,0,-25.9,16.8L233.8,682.9l-15.3,18.4l0,-547c0,-35.1,0,-116.1,110,-116.1L290.3,3.1C220,4.6,197.1,4.6,166.5,4.6C97.8,1.5,197.1,0,65.7,0Z" 
	id="f2_w"
	transform="scale(0.001,-0.001)" />

	<path d="M669.2,-33.5C366.7,-33.5,110,210.8,110,522.5c0,310.1,256.7,554.6,557.6,554.6c157.4,0,250.6,-84,301,-136l79.5,117.7c12.2,18.3,18.3,18.3,24.4,18.3c16.8,0,16.8,-10.7,16.8,-36.7l0,-362.1c0,-32,0,-36.6,-24.4,-36.6c-19.9,0,-21.4,4.6,-24.5,25.9c-35.1,235.3,-191,362.1,-354.4,362.1c-105.4,0,-418.6,-58,-418.6,-508.7C267.4,93.2,554.6,13.8,689,13.8c171.1,0,349.9,122.2,362.1,343.7c1.5,15.3,1.5,24.4,18.3,24.4c19.9,0,19.9,-10.6,19.9,-25.9C1089.3,174.2,927.4,-33.5,669.2,-33.5Z" 
	id="f2_2"
	transform="scale(0.001,-0.001)" />

	<path d="M543.9,-33.5c-21.4,0,-24.5,12.2,-30.6,29L191,936.5c-19.9,59.6,-48.9,59.6,-140.6,59.6l62.7,45.8c65.7,-3,123.7,-3,181.8,-3c106.9,0,-58.1,4.6,160.4,4.6l0,-47.4c-42.8,0,-128.4,0,-128.4,-45.8c0,-4.6,0,-7.7,7.7,-27.5L592.8,169.6L817.4,823.5c4.5,13.7,4.5,15.3,4.5,18.3c0,6.1,-33.6,107,-42.7,122.2c-16.8,27.5,-36.7,32.1,-126.8,32.1l67.2,44.3c65.7,-1.5,117.6,-1.5,175.7,-1.5c105.4,0,-58.1,4.6,160.4,4.6l0,-47.4c-41.3,0,-128.3,0,-128.3,-45.8c0,-6.1,4.5,-16.8,6.1,-22.9L1194.7,169.6l244.5,715c7.6,19.8,7.6,22.9,7.6,30.5c0,44.3,-47.4,79.5,-129.9,81l39.8,45.8c97.7,-3,142.1,-3,187.9,-3c47.3,1.5,-45.8,4.6,93.2,4.6l0,-47.4C1521.7,994.6,1495.7,928.9,1481.9,889.2L1174.9,-3c-7.7,-21.3,-10.7,-30.5,-30.6,-30.5c-19.9,0,-24.4,13.7,-30.5,30.5L843.3,783.8L574.4,-3c-6.1,-16.8,-10.6,-30.5,-30.5,-30.5Z" 
	id="f2_j"
	transform="scale(0.001,-0.001)" />

	<path d="M84,0l0,47.4c157.4,0,157.4,70.2,157.4,116.1l0,791.4c0,22.9,0,24.4,-1.5,27.5C235.3,996.1,126.8,996.1,84,996.1l0,47.4l258.2,0c32.1,0,33.6,-1.6,48.9,-21.4L957.9,224.6l0,655.4c0,45.8,0,116.1,-157.3,116.1l53.4,45.8c74.9,-3,125.3,-3,175.7,-3c74.9,3,-50.4,4.6,128.4,4.6l0,-47.4c-157.4,0,-157.4,-70.3,-157.4,-116.1l0,-837.2c0,-32.1,0,-42.8,-21.4,-42.8C971.7,0,964,0,951.8,18.3L284.2,961l0,-797.5c0,-45.9,0,-116.1,157.3,-116.1L388.1,1.5C313.2,4.6,262.8,4.6,212.4,4.6C137.5,1.5,262.8,0,84,0Z" 
	id="f2_c"
	transform="scale(0.001,-0.001)" />

	<path d="M59.6,0l0,71.8l165,0l0,895.3l-165,0l0,71.8l924.3,0l47.4,-368.2l-71.9,0c-22.9,178.7,-58,296.4,-304,296.4l-213.9,0l0,-411l76.4,0c148.2,0,160.4,65.7,160.4,178.8l71.8,0l0,-429.3l-71.8,0c0,113,-13.7,178.7,-160.4,178.7l-76.4,0l0,-412.5l206.3,0L580.6,4.6l-308.7,0C117.6,4.6,339.2,0,59.6,0Z" 
	id="f3_c"
	transform="scale(0.001,-0.001)" />

	<path d="M71.8,0l0,71.8l105.4,0l0,472.1c0,59.6,-10.7,59.6,-100.8,59.6l0,71.8l265.8,12.2l0,-615.7l94.7,0L381.9,1.5C304,4.6,258.2,4.6,194,4.6C119.2,1.5,258.2,0,71.8,0ZM238.3,823.5c-65.7,0,-119.1,53.4,-119.1,119.1c0,65.7,53.4,119.2,119.1,119.2c64.2,0,119.2,-51.9,119.2,-119.2c0,-67.2,-55,-119.1,-119.2,-119.1Z" 
	id="f3_l"
	transform="scale(0.001,-0.001)" />

	<path d="M438.5,-252c198.6,0,258.2,82.5,258.2,137.5c0,94.7,-172.7,94.7,-220,94.7l-178.8,0c-21.4,0,-117.6,0,-117.6,-91.6c0,-70.3,74.8,-140.6,258.2,-140.6ZM389.6,290.3C524,290.3,524,392.6,524,461.4c0,68.7,0,171.1,-134.4,171.1C255.1,632.5,255.1,530.1,255.1,461.4c0,-68.8,0,-171.1,134.5,-171.1ZM438.5,-307C132.9,-307,48.9,-192.4,48.9,-114.5c0,96.3,111.5,128.3,131.4,132.8C119.2,67.2,113.1,142.1,113.1,165c0,32.1,9.1,82.5,51.9,136C116.1,336.1,85.6,398.8,85.6,461.4c0,106.9,84,226.1,304,226.1c113,0,177.2,-32.1,204.7,-50.4c67.2,53.5,139,58,162,58c70.2,0,96.2,-53.4,96.2,-88.6c0,-36.6,-26,-65.7,-65.7,-65.7c-39.7,0,-65.7,27.5,-65.7,65.7c0,9.2,3.1,22.9,6.1,30.6c-16.8,-1.5,-48.9,-4.6,-94.7,-29c22.9,-24.5,61.1,-74.9,61.1,-146.7c0,-107,-84,-226.1,-304,-226.1c-38.2,0,-116.1,3,-186.4,39.7C194,262.8,187.9,239.9,187.9,224.6c0,-27.5,16.8,-85.6,84,-96.3c7.7,-1.5,78,-1.5,117.7,-1.5c146.7,0,238.3,0,323.9,-42.8C815.8,32.1,828.1,-64.1,828.1,-109.9C828.1,-216.8,708.9,-307,438.5,-307Z" 
	id="f3_k"
	transform="scale(0.001,-0.001)" />

	<path d="M449.2,-9.1c-151.3,0,-275,33.5,-275,197l0,356c0,59.6,-10.7,59.6,-105.4,59.6l0,71.8l279.5,12.2l0,-521C348.3,84,352.9,45.8,470.6,45.8c111.5,0,189.4,81,189.4,206.3l0,291.8c0,59.6,-10.7,59.6,-105.4,59.6l0,71.8l279.6,12.2l0,-556.1c0,-59.6,10.7,-59.6,105.4,-59.6L939.6,0L669.2,-9.1l0,119.1C598.9,-9.1,488.9,-9.1,449.2,-9.1Z" 
	id="f3_t"
	transform="scale(0.001,-0.001)" />

	<path d="M56.5,0l0,71.8l105.4,0l0,472.1c0,59.6,-10.6,59.6,-105.4,59.6l0,71.8l253.6,12.2l0,-172.6c35.2,96.2,96.3,172.6,203.2,172.6c79.5,0,162,-44.3,162,-125.3C675.3,501.1,626.4,469,582.1,469c-44.3,0,-93.2,30.6,-93.2,93.2c0,44.3,27.5,68.8,29,70.3c-152.8,0,-191,-186.4,-191,-293.3l0,-267.4l133,0L404.9,4.6l-226.1,0C110,1.5,249,0,56.5,0Z" 
	id="f3_q"
	transform="scale(0.001,-0.001)" />

	<path d="M609.6,383.5C608.1,436.9,605,637.1,426.3,637.1c-44.4,0,-105.5,-18.3,-145.2,-79.5C249,507.2,247.5,443.1,244.4,383.5ZM447.6,-9.1C201.7,-9.1,48.9,139,48.9,343.8c0,190.9,132.9,348.3,377.4,348.3c105.4,0,186.3,-27.5,242.9,-82.5c76.4,-76.4,85.5,-187.9,85.5,-235.3c0,-41.2,-15.3,-41.2,-48.9,-41.2l-461.4,0c0,-78,1.6,-281.2,217,-281.2c99.3,0,186.4,48.9,218.5,122.3c9.1,24.4,12.2,32.1,38.2,32.1c7.6,0,36.6,0,36.6,-27.5C754.7,152.8,689,-9.1,447.6,-9.1Z" 
	id="f3_i"
	transform="scale(0.001,-0.001)" />

	<path d="M418.6,-16.7C221.5,-16.7,73.3,74.9,73.3,212.4c0,77.9,53.5,119.1,117.7,119.1c67.2,0,116.1,-47.3,116.1,-116.1c0,-62.6,-38.2,-100.8,-88.6,-114.6C291.8,55,371.3,48.9,411,48.9c158.9,0,158.9,155.8,158.9,227.6c0,77.9,0,227.7,-166.6,227.7l-67.2,0c-27.5,0,-42.8,0,-42.8,27.5c0,9.1,3.1,24.4,18.4,25.9c7.6,1.6,10.7,3.1,73.3,6.2c158.9,9.1,160.4,209.3,160.4,229.1c0,50.4,-4.6,148.2,-131.4,148.2c-47.3,0,-114.6,-12.2,-168,-55c6.1,-1.5,88.6,-18.3,88.6,-106.9c0,-56.6,-38.2,-105.4,-107,-105.4c-58,0,-105.4,41.2,-105.4,106.9c0,122.2,119.2,220,301,220c215.4,0,331.5,-94.7,331.5,-212.4C754.7,656.9,643.2,569.9,537.8,537.8C759.3,490.4,803.6,359,803.6,275c0,-139,-111.5,-291.7,-385,-291.7Z" 
	id="f3_4"
	transform="scale(0.001,-0.001)" />

	<path d="M242.9,0C177.2,0,123.8,53.5,123.8,119.2c0,65.7,53.4,119.1,119.1,119.1c65.7,0,119.2,-53.4,119.2,-119.1C362.1,53.5,308.6,0,242.9,0Z" 
	id="f3_1"
	transform="scale(0.001,-0.001)" />

	<path d="M389.6,-16.7c-9.2,0,-94.7,0,-94.7,106.8c0,226.2,110,432.4,256.6,603.5l84.1,99.3l-258.2,0c-26,0,-149.8,0,-166.6,-9.1c-6.1,-3.1,-25.9,-23,-41.2,-139.1l-71.8,0l53.5,388.1l71.8,0c3,-15.3,4.5,-29,36.6,-35.2c21.4,-6.1,246,-13.7,281.1,-13.7l311.7,0c0,-53.5,0,-56.5,-15.3,-73.3L600.4,635.6C546.9,572.9,514.9,482.8,501.1,380.4C490.4,308.6,485.8,235.3,485.8,161.9l0,-70.2C485.8,-9.1,414,-16.7,389.6,-16.7Z" 
	id="f3_8"
	transform="scale(0.001,-0.001)" />

	<path d="M242.9,0C177.2,0,123.8,53.5,123.8,119.2c0,65.7,53.4,119.1,119.1,119.1c65.7,0,119.2,-53.4,119.2,-119.1C362.1,53.5,308.6,0,242.9,0Zm0,440c-65.7,0,-119.1,53.5,-119.1,119.2c0,65.7,53.4,119.1,119.1,119.1c65.7,0,119.2,-53.4,119.2,-119.1C362.1,493.5,308.6,440,242.9,440Z" 
	id="f3_b"
	transform="scale(0.001,-0.001)" />

	<path d="M617.2,-33.5c-284.1,0,-531.6,239.8,-531.6,556c0,311.7,245.9,554.6,531.6,554.6c146.7,0,224.6,-76.4,281.1,-131.4l76.4,113.1c12.2,18.3,18.4,18.3,24.5,18.3c16.8,0,16.8,-10.7,16.8,-36.7l0,-362.1c0,-32,0,-36.6,-24.5,-36.6c-21.4,0,-21.4,4.6,-24.4,25.9C936.5,890.7,800.6,1029.7,634,1029.7C540.8,1029.7,242.9,977.8,242.9,521C242.9,65.7,542.4,13.8,635.6,13.8c166.5,0,330,125.2,342.2,343.7c1.5,15.3,1.5,24.4,18.3,24.4c19.9,0,19.9,-10.6,19.9,-25.9C1016,178.8,866.3,-33.5,617.2,-33.5Z" 
	id="f4_r"
	transform="scale(0.001,-0.001)" />

	<path d="M381.9,21.4c76.4,0,143.7,44.3,177.3,113c33.6,67.3,33.6,149.8,33.6,204.8c0,58,0,146.6,-39.7,212.3c-39.8,65.7,-105.5,99.3,-172.7,99.3c-61.1,0,-132.9,-32,-174.1,-102.3C169.6,481.3,169.6,398.8,169.6,339.2c0,-55,0,-148.2,38.2,-215.4C249,53.5,316.3,21.4,381.9,21.4Zm-1.5,-38.1C201.7,-16.7,42.8,129.9,42.8,326.9c0,191,148.2,357.5,339.1,357.5c184.9,0,337.7,-161.9,337.7,-357.5c0,-194,-154.3,-343.6,-339.2,-343.6Z" 
	id="f4_1u"
	transform="scale(0.001,-0.001)" />

	<path d="M403.3,-16.7c-19.8,0,-22.9,7.6,-32,28.9l-220,542.4c-19.9,47.3,-26,56.5,-122.3,56.5l45.9,44.3c61.1,-1.5,102.3,-1.5,137.5,-1.5c85.5,3,-35.2,4.6,131.4,4.6l0,-47.4c-27.5,0,-87.1,0,-87.1,-39.7c0,-3.1,0,-6.1,9.1,-26L436.9,119.2L592.8,508.8c6.1,16.8,9.1,22.9,9.1,36.6c0,29,-16.8,64.2,-73.3,65.7l26,45.8c70.3,-3,106.9,-3,142.1,-3c44.3,1.5,-35.2,4.6,79.4,4.6l0,-47.4C675.3,609.6,649.3,543.9,635.6,508.8L435.4,12.2C429.3,-3,423.2,-16.7,403.3,-16.7Z" 
	id="f4_21"
	transform="scale(0.001,-0.001)" />

	<path d="M319.3,16.8c68.8,0,178.8,52,178.8,197.1l0,152.8C246,357.5,181.8,230.7,181.8,146.7C181.8,70.3,244.4,16.8,319.3,16.8ZM308.6,-16.7C212.4,-16.7,64.2,21.4,64.2,145.1c0,67.3,38.2,146.7,152.7,198.7c96.3,45.8,203.2,50.4,281.2,55l0,56.5c0,136,-87.1,195.5,-162,195.5c-48.9,0,-123.7,-16.8,-165,-70.2C241.4,579,249,528.6,249,510.3C249,470.6,221.5,440,178.8,440c-39.8,0,-70.3,26,-70.3,71.8c0,100.8,105.4,172.6,230.7,172.6c73.3,0,149.7,-24.4,209.3,-84c55,-56.5,55,-116.1,55,-180.3l0,-305.5c0,-7.7,6.1,-76.4,56.5,-76.4c16.8,0,55,9.2,55,97.8l0,85.5l38.2,0l0,-85.5C753.2,12.2,660,-9.1,627.9,-9.1c-71.8,0,-113,64.1,-119.1,125.2C479.7,44.3,409.4,-16.7,308.6,-16.7Z" 
	id="f4_1h"
	transform="scale(0.001,-0.001)" />

	<path d="M42.8,0l0,47.4c102.3,0,119.1,0,119.1,68.7l0,409.5c0,74.8,-12.2,85.5,-119.1,85.5l0,47.4l212.3,16.8l0,-168.1c21.4,65.7,76.4,168.1,188,168.1c65.7,0,113,-44.3,113,-93.2c0,-48.9,-38.2,-67.2,-65.7,-67.2c-33.6,0,-65.7,22.9,-65.7,65.7c0,39.7,30.6,58,35.2,59.5c-3.1,1.6,-6.1,1.6,-16.8,1.6c-116.2,0,-180.3,-136,-180.3,-287.3l0,-235.2c0,-55,3,-71.8,116.1,-71.8l32.1,0L349.9,4.6l-175.7,0C102.4,1.5,216.9,0,42.8,0Z" 
	id="f4_1x"
	transform="scale(0.001,-0.001)" />

	<path d="M50.4,0l0,47.4c102.4,0,119.2,0,119.2,68.7l0,411c0,74.8,-13.8,84,-113.1,84l0,47.4l213.9,16.8l0,-560.7c0,-59.6,6.1,-67.2,107,-67.2L325.4,1.5C271.9,4.6,218.5,4.6,181.8,4.6C99.3,1.5,218.5,0,50.4,0ZM195.6,860.1c-47.4,0,-81,39.8,-81,81c0,39.7,33.6,81,81,81c42.7,0,80.9,-32.1,80.9,-81c0,-48.9,-38.2,-81,-80.9,-81Z" 
	id="f4_1p"
	transform="scale(0.001,-0.001)" />

	<path d="M48.9,0l0,47.4c102.4,0,119.2,0,119.2,68.7l0,409.5c0,74.8,-12.3,85.5,-119.2,85.5l0,47.4l215.4,16.8l0,-160.4c42.8,94.7,114.6,160.4,226.1,160.4c88.6,0,139,-30.6,160.4,-56.5c47.4,-55,47.4,-102.4,47.4,-233.8l0,-291.8C699.7,47.4,737.9,47.4,817.4,47.4L765.4,1.5C686,4.6,646.3,4.6,605,4.6C527.1,1.5,646.3,0,473.6,0l0,47.4c102.4,0,119.2,0,119.2,68.7l0,356c0,87.1,-16.8,169.6,-113.1,169.6c-97.8,0,-206.2,-85.6,-206.2,-244.5l0,-281.1c0,-68.7,16.8,-68.7,119.1,-68.7L340.7,1.5C261.3,4.6,221.5,4.6,180.3,4.6C102.4,1.5,221.5,0,48.9,0Z" 
	id="f4_1t"
	transform="scale(0.001,-0.001)" />

	<path d="M380.4,-16.7C203.2,-16.7,51.9,134.4,51.9,330c0,189.4,140.6,354.4,331.6,354.4c117.6,0,233.7,-59.5,233.7,-163.4c0,-45.9,-30.5,-71.8,-70.3,-71.8c-42.7,0,-70.2,30.5,-70.2,70.2c0,19.9,9.1,65.7,71.8,70.3C495,644.7,398.8,646.3,385,646.3c-81,0,-206.2,-64.2,-206.2,-313.2C178.8,87.1,313.2,21.4,394.2,21.4c56.5,0,155.8,18.3,200.1,160.4c3.1,9.2,6.1,15.3,19.9,15.3c4.6,0,19.8,0,19.8,-15.3C634,166.5,585.1,-16.7,380.4,-16.7Z" 
	id="f4_1j"
	transform="scale(0.001,-0.001)" />

	<path d="M533.2,385c0,59.6,-15.3,265.8,-172.6,265.8c-52,0,-180.3,-38.2,-189.5,-265.8ZM378.9,-16.7C203.2,-16.7,42.8,131.4,42.8,336.1c0,191,140.5,348.3,317.8,348.3C551.5,684.4,634,536.3,634,385c0,-32.1,-4.6,-32.1,-38.2,-32.1l-426.2,0c0,-55,0,-155.8,45.8,-229.1C250.6,67.2,311.7,21.4,388.1,21.4c15.2,0,152.7,0,206.2,157.4c3.1,12.2,6.1,21.3,19.9,21.3c7.6,0,19.8,-3,19.8,-18.3c0,-29,-68.7,-198.5,-255.1,-198.5Z" 
	id="f4_1l"
	transform="scale(0.001,-0.001)" />

	<path d="M51.9,0l0,47.4c102.4,0,119.2,0,119.2,68.7l0,495l-120.7,0l0,47.4l120.7,0l0,175.7c0,161.9,129.9,242.9,236.8,242.9c81,0,137.5,-50.4,137.5,-107c0,-36.6,-22.9,-67.2,-67.2,-67.2c-41.3,0,-65.7,30.6,-65.7,65.7c0,38.2,27.5,58.1,45.8,64.2c-22.9,10.7,-45.8,10.7,-50.4,10.7c-67.2,0,-140.5,-73.4,-140.5,-207.8l0,-177.2l178.7,0l0,-47.4l-174.2,0l0,-491.9c0,-55,3.1,-71.8,116.2,-71.8l32,0L359,4.6l-175.7,0C111.5,1.5,226.1,0,51.9,0Z" 
	id="f4_1m"
	transform="scale(0.001,-0.001)" />

	<path d="M400.3,-16.7c-232.2,0,-232.2,138.9,-232.2,258.1l0,229.2c0,135.9,0,140.5,-119.2,140.5l0,47.4l224.6,16.8l0,-507.2c0,-79.5,6.1,-151.3,134.4,-151.3c111.5,0,184.9,103.9,184.9,236.8l0,272c0,74.8,-12.2,85.5,-119.2,85.5l0,47.4l224.6,16.8l0,-542.4c0,-74.8,12.2,-85.5,119.2,-85.5L817.4,0l-220,-16.7l0,137.4C553.1,26,485.8,-16.7,400.3,-16.7Z" 
	id="f4_20"
	transform="scale(0.001,-0.001)" />

	<path d="M356,-16.7c-55,0,-197.1,18.2,-197.1,206.1l0,421.7L29,611.1l0,33.6c149.8,6.1,195.6,169.6,197.1,294.9l38.2,0l0,-281.1l218.5,0l0,-47.4l-218.5,0l0,-424.7c0,-26,0,-165,102.4,-165c56.5,0,102.3,58,102.3,171.1l0,84l38.2,0l0,-87.1C507.2,91.7,464.4,-16.7,356,-16.7Z" 
	id="f4_1z"
	transform="scale(0.001,-0.001)" />

	<path d="M383.5,16.8c65.7,0,134.4,33.6,180.3,107c16.8,25.9,16.8,29,16.8,56.5l0,313.2c0,27.5,0,30.5,-16.8,56.5c-47.4,68.8,-111.6,91.7,-165,91.7c-82.5,0,-140.6,-50.4,-172.7,-97.8C181.8,475.1,178.8,383.5,178.8,326.9c0,-62.6,4.5,-149.7,44.3,-212.3C259.7,56.5,314.7,16.8,383.5,16.8Zm-7.7,-33.5C201.7,-16.7,51.9,134.4,51.9,328.5c0,197.1,160.5,346.8,340.7,346.8c82.5,0,148.2,-39.7,192.5,-94.7l0,330c0,74.8,-12.2,85.5,-119.1,85.5l0,47.4l220,16.8l0,-927.4C686,58.1,698.2,47.4,805.1,47.4L805.1,0L580.6,-16.7l0,100.7C542.4,35.1,473.6,-16.7,375.8,-16.7Z" 
	id="f4_1k"
	transform="scale(0.001,-0.001)" />

	<path d="M67.2,-16.7C50.4,-16.7,50.4,-6,50.4,19.9l0,201.6c0,27.5,0,38.2,19.9,38.2c15.3,0,16.8,-6.1,21.4,-25.9c29,-129.9,84,-217,212.3,-217c119.2,0,172.7,61.1,172.7,139c0,110,-125.3,134.5,-158.9,140.6C207.8,317.8,165,326.9,116.1,366.7C74.9,400.3,50.4,443.1,50.4,496.5c0,85.6,58.1,187.9,244.5,187.9c22.9,0,85.5,0,143.6,-42.7c6.1,4.6,21.4,18.3,25.9,24.4c19.9,18.3,23,18.3,30.6,18.3c16.8,0,16.8,-10.6,16.8,-36.6l0,-154.3c0,-29.1,0,-36.7,-19.9,-36.7c-3,0,-16.8,0,-18.3,13.8c-3,47.3,-10.7,184.8,-178.7,184.8C163.5,655.4,123.8,592.8,123.8,539.3C123.8,450.7,226.1,430.8,311.7,414c64.1,-12.2,123.7,-24.4,174.1,-73.3C504.2,322.4,550,276.5,550,195.6C550,85.6,479.7,-16.7,304,-16.7c-32.1,0,-100.8,1.5,-168,65.6C108.5,19.9,108.5,16.8,105.4,13.8c-29,-29,-30.5,-30.5,-38.2,-30.5Z" 
	id="f4_1y"
	transform="scale(0.001,-0.001)" />

	<path d="M169.6,-313.1c-76.4,0,-140.6,55,-140.6,123.8c0,45.8,33.6,65.6,64.2,65.6c35.1,0,64.2,-24.4,64.2,-64.1c0,-24.5,-12.3,-58.1,-59.6,-64.2c29,-27.5,64.1,-27.5,71.8,-27.5c97.8,0,140.5,105.4,174.2,189.5c9.1,19.8,30.5,70.2,38.1,90L152.8,557.6C131.4,611.1,102.4,611.1,29,611.1l45.9,44.3c61.1,-1.5,102.3,-1.5,128.3,-1.5c100.8,3,-26,4.6,140.6,4.6l0,-47.4c-29.1,0,-85.6,0,-85.6,-39.7c0,-6.1,3.1,-12.2,9.2,-27.5l169.5,-411L591.3,508.8c7.6,18.3,9.1,21.3,9.1,36.6c0,38.2,-24.4,64.2,-71.8,65.7l33.6,45.8c71.8,-3,99.3,-3,134.5,-3c44.3,1.5,-35.2,4.6,79.4,4.6l0,-47.4c-24.4,0,-102.3,-1.5,-142.1,-97.8L365.1,-138.9C328.5,-226,265.8,-313.1,169.6,-313.1Z" 
	id="f4_24"
	transform="scale(0.001,-0.001)" />

	<path d="M381.9,-279.5c149.8,0,258.2,76.4,258.2,158.9C640.1,10.7,469,10.7,337.6,10.7l-90.1,0C180.3,6.1,122.2,-50.3,122.2,-120.6c0,-81,105.4,-158.9,259.7,-158.9ZM339.2,262.8c61.1,0,96.2,42.8,108.4,61.1c23,38.2,24.5,87.1,24.5,128.3c0,35.2,0,187.9,-132.9,187.9c-61.1,0,-96.3,-42.7,-108.5,-61.1C207.8,540.8,206.3,491.9,206.3,450.7c0,-35.1,0,-187.9,132.9,-187.9Zm41.2,-577.4c-186.4,0,-337.6,84,-337.6,194c0,61.1,48.9,126.7,140.5,152.7c-47.3,30.5,-67.2,88.6,-67.2,136c0,53.4,27.5,103.8,47.4,126.8C125.3,326.9,91.7,385,91.7,452.2c0,117.7,105.4,223.1,247.5,223.1c33.6,0,97.7,-4.6,161.9,-55c64.2,62.6,131.4,71.8,162,71.8c59.5,0,77.9,-48.9,77.9,-74.9c0,-35.1,-29.1,-45.8,-44.3,-45.8c-24.5,0,-44.3,18.3,-44.3,44.3c0,18.3,7.6,35.1,24.4,41.2c-4.6,1.6,-12.2,1.6,-15.3,1.6C634,658.5,579,650.8,524,598.9c38.2,-35.1,62.7,-91.7,62.7,-148.2C586.7,333.1,481.3,227.6,339.2,227.6c-29.1,0,-91.7,4.6,-151.3,47.4c-26,-30.6,-26,-65.7,-26,-71.8c0,-48.9,32.1,-96.3,81,-102.4c10.7,-1.5,76.4,-1.5,114.6,-1.5c93.2,0,181.8,0,262.8,-42.8c77.9,-42.7,99.3,-120.6,99.3,-174c0,-119.2,-158.9,-197.1,-339.2,-197.1Z" 
	id="f4_1n"
	transform="scale(0.001,-0.001)" />

	<path d="M48.9,0l0,47.4c102.4,0,119.2,0,119.2,68.7l0,794.5c0,74.8,-12.3,85.5,-119.2,85.5l0,47.4l220,16.8l0,-534.7c26,58,93.2,149.7,221.5,149.7c88.6,0,139,-30.6,160.4,-56.5c47.4,-55,47.4,-102.4,47.4,-233.8l0,-291.8C699.7,47.4,737.9,47.4,817.4,47.4L765.4,1.5C686,4.6,646.3,4.6,605,4.6C527.1,1.5,646.3,0,473.6,0l0,47.4c102.4,0,119.2,0,119.2,68.7l0,356c0,87.1,-16.8,169.6,-113.1,169.6c-97.8,0,-206.2,-85.6,-206.2,-244.5l0,-281.1c0,-68.7,16.8,-68.7,119.1,-68.7L340.7,1.5C261.3,4.6,221.5,4.6,180.3,4.6C102.4,1.5,221.5,0,48.9,0Z" 
	id="f4_1o"
	transform="scale(0.001,-0.001)" />

	<path d="M449.2,16.8c113,0,220,128.3,220,313.2c0,172.6,-93.2,307.1,-204.8,307.1c-77.9,0,-152.7,-44.3,-197,-122.2l0,-340.7c0,-30.6,0,-32.1,21.4,-64.2C330,47.4,388.1,16.8,449.2,16.8ZM42.8,-296.3l0,47.4c102.3,0,119.1,0,119.1,68.7l0,714.9c0,67.2,-10.6,76.4,-119.1,76.4l0,47.4l220,16.8l0,-100.9c30.5,33.7,94.7,100.9,213.9,100.9C647.8,675.3,796,524,796,330C796,132.9,637.1,-16.7,455.3,-16.7C339.2,-16.7,275,65.7,267.4,90.1l0,-13.7l0,-256.6c0,-68.7,16.8,-68.7,119.1,-68.7l-53.4,-45.9c-78,3.1,-119.2,3.1,-158.9,3.1c-79.5,-3.1,39.7,-4.6,-131.4,-4.6Z" 
	id="f4_1v"
	transform="scale(0.001,-0.001)" />

	<path d="M50.4,0l0,47.4c102.4,0,119.2,0,119.2,68.7l0,794.5c0,74.8,-12.2,85.5,-119.2,85.5l0,47.4l220,16.8l0,-944.2c0,-68.7,16.8,-68.7,119.2,-68.7L333.1,1.5C258.2,4.6,220,4.6,181.8,4.6C100.8,1.5,220,0,50.4,0Z" 
	id="f4_1r"
	transform="scale(0.001,-0.001)" />

	<path d="M145.1,0l0,47.4l48.9,0c137.5,0,142.1,18.3,142.1,73.3l0,791.4C256.7,872.4,166.5,872.4,136,872.4l0,47.3c48.9,0,183.3,0,278,97.8c35.2,0,35.2,-3.1,35.2,-39.7l0,-857.1c0,-56.5,4.6,-73.3,142.1,-73.3l48.8,0L586.7,4.6l-255.2,0C198.6,4.6,392.6,0,145.1,0Z" 
	id="f4_e"
	transform="scale(0.001,-0.001)" />

	<path d="M580.6,-117.5c-27.5,0,-27.5,27.5,-27.5,48.8l0,421.6l-421.7,0c-22.9,0,-48.9,0,-48.9,29c0,27.5,27.5,27.5,48.9,27.5l421.7,0l0,421.7c0,22.9,0,48.9,29,48.9c27.5,0,27.5,-27.5,27.5,-48.9l0,-421.7l421.7,0c22.9,0,48.8,0,48.8,-29c0,-27.5,-27.5,-27.5,-48.8,-27.5l-421.7,0l0,-421.6c0,-22.9,0,-48.8,-29,-48.8Z" 
	id="f1_d"
	transform="scale(0.001,-0.001)" />

	<path d="M206.3,0C171.1,0,132.9,29,132.9,74.9c0,38.2,30.6,73.3,74.9,73.3c38.2,0,73.3,-32.1,73.3,-73.3C281.1,32.1,247.5,0,206.3,0Z" 
	id="f1_g"
	transform="scale(0.001,-0.001)" />

	<path d="M255.1,13.8c-15.2,0,-30.5,13.7,-30.5,30.5c0,10.7,3,13.8,19.8,30.6L550,381.9L244.4,689c-16.8,16.8,-19.8,19.9,-19.8,30.6c0,16.8,15.3,30.5,30.5,30.5c12.3,0,15.3,-3,33.7,-21.3L594.3,424.7L896.8,727.2c16.8,16.8,22.9,22.9,35.1,22.9c18.4,0,30.6,-13.7,30.6,-30.5c0,-10.7,-6.1,-16.8,-7.6,-19.9c-7.7,-9.1,-30.6,-29,-38.2,-38.2L637.1,381.9C713.5,304,956.4,64.2,957.9,61.1c4.6,-7.6,4.6,-13.7,4.6,-16.8c0,-16.8,-12.2,-30.5,-30.6,-30.5c-9.1,0,-19.8,7.6,-22.9,9.1L592.8,339.2L288.8,35.1C270.4,16.8,267.4,13.8,255.1,13.8Z" 
	id="f5_3"
	transform="scale(0.001,-0.001)" />

	<path d="M441.5,48.9c87.1,0,230.7,24.4,230.7,152.8c0,73.3,-56.5,105.4,-123.7,143.6C464.4,392.6,392.6,433.9,339.2,461.4C285.7,430.8,204.7,365.1,204.7,246C204.7,126.8,291.8,48.9,441.5,48.9Zm91.7,554.6c67.2,44.3,106.9,96.2,106.9,171.1c0,103.9,-76.3,166.5,-204.7,166.5c-61.1,0,-198.6,-10.7,-198.6,-117.6c0,-52,42.8,-77.9,67.2,-91.7L533.2,603.5ZM435.4,-16.7C238.3,-16.7,73.3,61.1,73.3,246c0,113,67.3,200.1,195.6,256.6C149.7,569.9,122.2,666.1,122.2,733.3c0,146.7,107,267.4,319.3,267.4c174.2,0,313.2,-68.8,313.2,-224.6c0,-88.6,-47.3,-155.8,-154.3,-210.8C675.3,522.5,803.6,450.7,803.6,285.7C803.6,117.6,679.9,-16.7,435.4,-16.7Z" 
	id="f3_9"
	transform="scale(0.001,-0.001)" />

	<path d="M76.4,0c0,36.7,0,39.7,16.8,56.5l293.3,327c84.1,94.7,160.4,215.4,160.4,337.6c0,125.3,-65.6,249,-204.7,249C253.6,970.1,171.1,913.6,136,814.3c4.6,1.5,7.6,1.5,19.8,1.5c53.5,0,81,-39.7,81,-79.4c0,-62.6,-53.5,-81,-79.4,-81c-4.6,0,-81,0,-81,85.6c0,135.9,113,276.5,285.7,276.5C548.5,1017.5,686,895.3,686,721.1C686,568.3,594.3,485.8,356,275L194,117.6l275,0c33.6,0,134.5,0,145.2,12.3c15.2,22.9,25.9,90.1,33.6,135.9l38.2,0L643.2,0Z" 
	id="f4_f"
	transform="scale(0.001,-0.001)" />

	<path d="M482.8,-383.4c-16.8,0,-142.1,99.3,-232.2,282.7C171.1,62.6,149.7,244.4,149.7,380.4c0,187.9,35.2,351.4,113.1,505.7c74.8,149.7,200.1,259.7,220,259.7c6.1,0,13.7,-3,13.7,-12.2c0,-4.6,0,-7.6,-15.2,-21.4C304,931.9,232.2,676.8,232.2,380.4c0,-311.6,85.6,-563.6,238.4,-717.9c25.9,-26,25.9,-29.1,25.9,-33.7c0,-9.1,-7.6,-12.2,-13.7,-12.2Z" 
	id="f1_b"
	transform="scale(0.001,-0.001)" />

	<path d="M97.8,-383.4c-6.1,0,-13.8,3.1,-13.8,12.2c0,4.6,0,7.7,15.3,21.4c177.2,180.3,249,435.4,249,731.7C348.3,693.6,262.8,945.7,110,1100c-26,26,-26,29,-26,33.6c0,9.2,7.7,12.2,13.8,12.2c16.8,0,142.1,-99.3,232.2,-282.6C415.6,686,430.8,496.5,430.8,380.4c0,-183.3,-35.1,-348.3,-113,-504.1C242.9,-273.4,117.6,-383.4,97.8,-383.4Z" 
	id="f1_c"
	transform="scale(0.001,-0.001)" />

	<path d="M426.3,401.8c128.3,0,168,155.8,168,252.1c0,51.9,0,140.5,-18.3,191c-6.1,15.2,-41.3,96.2,-131.4,96.2C281.1,941.1,281.1,818.9,281.1,669.2c0,-152.8,0,-267.4,145.2,-267.4ZM365.1,-16.7c-169.5,0,-247.5,87,-247.5,190.9c0,58,36.7,97.7,96.3,97.7c59.6,0,94.7,-42.7,94.7,-94.7c0,-68.7,-56.5,-90.1,-74.8,-94.7C279.6,51.9,334.6,48.9,362.1,48.9c105.4,0,171.1,68.7,197.1,128.3c22.9,52,36.6,142.1,36.6,253.6l0,33.6C537.8,357.5,466,346.8,412.5,346.8C224.6,346.8,73.3,461.4,73.3,672.2c0,204.7,151.3,328.5,368.2,328.5c362.1,0,362.1,-395.7,362.1,-498.1C803.6,111.5,563.8,-16.7,365.1,-16.7Z" 
	id="f3_a"
	transform="scale(0.001,-0.001)" />

	<path d="M372.8,-33.5C206.3,-33.5,64.2,67.2,64.2,206.3c0,67.2,48.9,88.6,85.5,88.6c44.3,0,85.6,-30.6,85.6,-85.6c0,-52.6,-38.9,-85.1,-85.9,-85.1c-4.9,0,-9.9,0.4,-15,1.1C187.9,35.1,302.5,9.2,368.2,9.2c67.2,0,172.6,44.3,172.6,252.1C540.8,411,484.3,514.9,359,514.9l-67.2,0c-26,0,-36.7,0,-36.7,16.8c0,15.2,10.7,16.8,23,18.3c10.7,0,47.3,3.1,59.5,4.6c38.2,1.5,90.2,6.1,136,79.4c39.7,67.3,42.8,155.9,42.8,174.2c0,137.5,-84,171.1,-146.7,171.1c-55,0,-155.8,-19.9,-203.2,-94.7c22.9,0,94.8,0,94.8,-76.4c0,-44.3,-30.6,-77.9,-78,-77.9c-44.3,0,-77.9,29,-77.9,79.4c0,116.1,116.1,207.8,270.4,207.8c146.7,0,281.1,-85.6,281.1,-210.8C656.9,686,568.3,579,443.1,537.8C601.9,505.7,698.2,386.5,698.2,261.3c0,-155.9,-139,-294.8,-325.4,-294.8Z" 
	id="f4_g"
	transform="scale(0.001,-0.001)" />


</defs>
</svg>