<?xml version="1.0" encoding="UTF-8" standalone="no"?>
<!DOCTYPE svg PUBLIC "-//W3C//DTD SVG 1.1//EN"
"http://www.w3.org/Graphics/SVG/1.1/DTD/svg11.dtd">
<svg viewBox="0 0 909 1286" version="1.1" xmlns="http://www.w3.org/2000/svg" xmlns:xlink="http://www.w3.org/1999/xlink">
<defs>
<style type="text/css"><![CDATA[
.g1_20{
fill: none;
stroke: #000000;
stroke-width: 0.6080556;
stroke-linecap: butt;
stroke-linejoin: miter;
}
]]></style>
</defs>
<g fill="#000000" >
<use xlink:href="#f0_g" transform="matrix(12,0,0,12,43.3,96.9)" />
<use xlink:href="#f0_u" transform="matrix(12,0,0,12,666.5,96.9)" />
<use xlink:href="#f0_1m" transform="matrix(12,0,0,12,674.1,96.9)" />
<use xlink:href="#f0_1s" transform="matrix(12,0,0,12,685,96.9)" />
<use xlink:href="#f0_1q" transform="matrix(12,0,0,12,692.9,96.9)" />
<use xlink:href="#f0_1n" transform="matrix(12,0,0,12,701.3,96.9)" />
<use xlink:href="#f0_1c" transform="matrix(12,0,0,12,712.2,96.9)" />
<use xlink:href="#f0_1t" transform="matrix(12,0,0,12,723.6,96.9)" />
<use xlink:href="#f0_1b" transform="matrix(12,0,0,12,735,96.9)" />
<use xlink:href="#f0_1s" transform="matrix(12,0,0,12,744.1,96.9)" />
<use xlink:href="#f0_1h" transform="matrix(12,0,0,12,752.1,96.9)" />
<use xlink:href="#f0_1n" transform="matrix(12,0,0,12,757.8,96.9)" />
<use xlink:href="#f0_1m" transform="matrix(12,0,0,12,768.1,96.9)" />
</g>
<path d="M43.3,103.8l736.2,0" class="g1_20" />
<defs>
	<path d="M432.4,42.8c158.9,0,158.9,122.2,158.9,273.5c0,152.7,0,275,-151.3,275c-90.1,0,-171.1,-79.5,-171.1,-267.4c0,-13.8,0,-136,21.4,-186.4c6.1,-12.2,44.3,-94.7,142.1,-94.7Zm1.5,-61C71.8,-18.2,71.8,381.9,71.8,484.3c0,398.8,258.2,517.9,449.2,517.9c160.4,0,221.5,-93.2,221.5,-184.8c0,-67.3,-50.4,-93.2,-90.1,-93.2c-48.9,0,-90.2,35.1,-90.2,90.1c0,41.3,24.5,84,82.5,90.1C608.1,942.6,553.1,947.2,524,947.2c-99.3,0,-177.2,-59.6,-210.8,-123.7C270.4,741,265.8,646.3,265.8,553.1l0,-41.3c61.1,129.9,158.9,129.9,189.5,129.9c181.8,0,330,-113.1,330,-327C785.3,100.8,635.6,-18.2,433.9,-18.2Z" 
	id="f0_g"
	transform="scale(0.001,-0.001)" />

	<path d="M47.4,0l0,65.7l171.1,0l0,916.7l-171.1,0l55,62.6l281.1,0c152.8,0,-64.2,3.1,207.8,3.1l0,-65.7l-171.2,0l0,-916.7l171.2,0L536.3,3.1l-281.2,0C102.4,3.1,319.3,0,47.4,0Z" 
	id="f0_u"
	transform="scale(0.001,-0.001)" />

	<path d="M64.2,0l0,65.7l105.4,0l0,484.3c0,59.6,-10.7,59.6,-105.4,59.6l0,65.7l258.2,12.2l0,-168.1l1.5,0C375.8,634,470.6,687.5,580.6,687.5c168,0,230.7,-74.9,230.7,-220l0,-401.8l105.4,0L881.5,3.1l-197.1,0C574.4,3.1,727.2,0,539.3,0l0,65.7l105.4,0l0,418.6c0,116.1,-32.1,152.8,-88.6,152.8c-97.8,0,-220,-81,-220,-246l0,-325.4l105.4,0L406.4,3.1l-197.1,0C99.3,3.1,252.1,0,64.2,0Z" 
	id="f0_1m"
	transform="scale(0.001,-0.001)" />

	<path d="M391.1,-9.1c-110,0,-235.3,35.1,-235.3,197l0,424.7l-123.7,0l0,50.5c151.2,4.5,224.6,155.8,226.1,307l64.2,0l0,-291.8l220,0l0,-65.7l-220,0l0,-429.3c0,-35.1,0,-137.5,91.6,-137.5c47.4,0,93.2,44.3,93.2,145.2l0,79.4l64.2,0l0,-81C571.4,76.4,504.2,-9.1,391.1,-9.1Z" 
	id="f0_1s"
	transform="scale(0.001,-0.001)" />

	<path d="M53.5,0l0,65.7l105.4,0l0,484.3c0,59.6,-10.7,59.6,-105.4,59.6l0,65.7L304,687.5l0,-169.6l1.6,0c21.3,64.2,73.3,169.6,194,169.6c73.3,0,152.8,-42.8,152.8,-120.7c0,-62.6,-50.5,-88.6,-88.6,-88.6c-38.2,0,-88.7,26,-88.7,88.6c0,27.5,10.7,53.5,32.1,70.3C328.5,637.1,317.8,394.2,317.8,343.8l0,-278.1l132.9,0L414,3.1l-210.8,0C88.6,3.1,246,0,53.5,0Z" 
	id="f0_1q"
	transform="scale(0.001,-0.001)" />

	<path d="M429.3,45.8c197.1,0,197.1,177.3,197.1,304.1c0,73.3,0,152.7,-30.6,207.7c-25.9,42.8,-80.9,84.1,-168,84.1c-65.7,0,-134.5,-27.5,-168.1,-88.6c-29,-55,-29,-131.4,-29,-203.2c0,-125.3,0,-304.1,198.6,-304.1ZM427.8,-9.1C187.9,-9.1,47.4,134.4,47.4,334.6c0,198.6,132.9,357.5,381.9,357.5c239.9,0,380.4,-151.3,380.4,-357.5C809.7,142.1,676.8,-9.1,427.8,-9.1Z" 
	id="f0_1n"
	transform="scale(0.001,-0.001)" />

	<path d="M430.8,41.3c55,0,133,19.8,197.1,113l0,388.1c-50.4,67.2,-117.6,94.7,-180.3,94.7c-35.1,0,-125.2,-9.2,-172.6,-94.7C241.4,484.3,241.4,407.9,241.4,336.1c0,-100.8,0,-294.8,189.4,-294.8ZM412.5,-9.1C209.3,-9.1,58.1,120.7,58.1,339.2c0,213.9,154.3,348.3,371.2,348.3c105.4,0,172.6,-44.3,206.3,-73.3l0,308.6c0,59.6,-10.7,59.6,-105.5,59.6l0,65.7l264.3,12.2l0,-935c0,-59.6,10.7,-59.6,105.5,-59.6L899.9,0l-272,-9.1l0,79.4C568.3,19.9,496.5,-9.1,412.5,-9.1Z" 
	id="f0_1c"
	transform="scale(0.001,-0.001)" />

	<path d="M435.4,-9.1c-163.5,0,-265.8,44.2,-265.8,197l0,362.1c0,59.6,-10.7,59.6,-105.4,59.6l0,65.7l271.9,12.2l0,-524c0,-84.1,6.1,-122.2,120.7,-122.2c119.2,0,187.9,93.1,187.9,209.3l0,299.4c0,59.6,-10.7,59.6,-105.4,59.6l0,65.7l272,12.2l0,-562.2c0,-59.6,10.6,-59.6,105.4,-59.6L916.7,0L652.4,-9.1l0,123.7l-1.6,0C585.1,-9.1,472.1,-9.1,435.4,-9.1Z" 
	id="f0_1t"
	transform="scale(0.001,-0.001)" />

	<path d="M427.8,-9.1C203.2,-9.1,58.1,131.4,58.1,339.2c0,175.7,106.9,352.9,378.8,352.9c82.5,0,258.2,-9.2,258.2,-134.5C695.1,485.8,637.1,466,605,466c-38.2,0,-90.1,25.9,-90.1,90.1c0,38.2,19.8,61.1,24.4,65.7c3.1,1.5,4.6,3.1,4.6,4.6c0,7.6,-90.1,10.7,-100.8,10.7C242.9,637.1,241.4,436.9,241.4,346.8c0,-68.7,0,-301,215.4,-301c140.6,0,181.8,102.4,192.5,131.4c7.6,18.4,9.2,19.9,33.6,19.9c15.3,0,32.1,0,32.1,-18.3C715,168.1,667.6,-9.1,427.8,-9.1Z" 
	id="f0_1b"
	transform="scale(0.001,-0.001)" />

	<path d="M67.2,0l0,65.7l105.4,0l0,484.3c0,59.6,-10.7,59.6,-100.8,59.6l0,65.7l259.7,12.2l0,-621.8l94.8,0L389.6,3.1l-181.8,0C102.4,3.1,249,0,67.2,0ZM230.7,841.8c-62.6,0,-110,52,-110,110c0,58.1,47.4,110,110,110c59.6,0,110,-47.4,110,-110c0,-62.6,-50.4,-110,-110,-110Z" 
	id="f0_1h"
	transform="scale(0.001,-0.001)" />


</defs>
</svg>