<?xml version="1.0" encoding="UTF-8" standalone="no"?>
<!DOCTYPE svg PUBLIC "-//W3C//DTD SVG 1.1//EN"
"http://www.w3.org/Graphics/SVG/1.1/DTD/svg11.dtd">
<svg viewBox="0 0 909 1286" version="1.1" xmlns="http://www.w3.org/2000/svg" xmlns:xlink="http://www.w3.org/1999/xlink">
<defs>
<style type="text/css"><![CDATA[
.g1_6{
fill: none;
stroke: #000000;
stroke-width: 0.6080556;
stroke-linecap: butt;
stroke-linejoin: miter;
}
]]></style>
</defs>
<g fill="#000000" >
<use xlink:href="#f0_1h" transform="matrix(12,0,0,12,43.3,96.9)" />
<use xlink:href="#f0_1u" transform="matrix(12,0,0,12,49,96.9)" />
</g>
<path d="M43.3,103.8l736.2,0" class="g1_6" />
<defs>
	<path d="M67.2,0l0,65.7l105.4,0l0,484.3c0,59.6,-10.7,59.6,-100.8,59.6l0,65.7l259.7,12.2l0,-621.8l94.8,0L389.6,3.1l-181.8,0C102.4,3.1,249,0,67.2,0ZM230.7,841.8c-62.6,0,-110,52,-110,110c0,58.1,47.4,110,110,110c59.6,0,110,-47.4,110,-110c0,-62.6,-50.4,-110,-110,-110Z" 
	id="f0_1h"
	transform="scale(0.001,-0.001)" />

	<path d="M453.8,-7.5c-35.2,0,-38.2,7.5,-52,36.5L132.9,612.6l-96.2,0l39.7,62.7l174.2,0c106.9,0,-41.3,3,142,3l0,-65.7l-84,0L505.7,183.3L684.4,576c7.7,15.3,7.7,16.8,7.7,18.3c0,10.7,-33.6,18.3,-74.9,18.3l87.1,62.7l107,0c3,0,-62.7,3,58,3l0,-65.7c-96.2,0,-102.4,-12.2,-113,-35.1L504.2,26C490.4,-4.5,478.2,-7.5,453.8,-7.5Z" 
	id="f0_1u"
	transform="scale(0.001,-0.001)" />


</defs>
</svg>