<?xml version="1.0" encoding="UTF-8" standalone="no"?>
<!DOCTYPE svg PUBLIC "-//W3C//DTD SVG 1.1//EN"
"http://www.w3.org/Graphics/SVG/1.1/DTD/svg11.dtd">
<svg viewBox="0 0 909 1286" version="1.1" xmlns="http://www.w3.org/2000/svg" xmlns:xlink="http://www.w3.org/1999/xlink">
<defs>
<style type="text/css"><![CDATA[
.g1_12{
fill: none;
stroke: #000000;
stroke-width: 0.6080556;
stroke-linecap: butt;
stroke-linejoin: miter;
}
]]></style>
</defs>
<g fill="#000000" >
<use xlink:href="#f0_1w" transform="matrix(12,0,0,12,42.8,96.9)" />
<use xlink:href="#f0_w" transform="matrix(12,0,0,12,611.8,96.9)" />
<use xlink:href="#f0_u" transform="matrix(12,0,0,12,624.2,96.9)" />
<use xlink:href="#f0_13" transform="matrix(12,0,0,12,631.8,96.9)" />
<use xlink:href="#f0_14" transform="matrix(12,0,0,12,643.2,96.9)" />
<use xlink:href="#f0_z" transform="matrix(12,0,0,12,664.4,96.9)" />
<use xlink:href="#f0_r" transform="matrix(12,0,0,12,679.8,96.9)" />
<use xlink:href="#f0_14" transform="matrix(12,0,0,12,699.6,96.9)" />
<use xlink:href="#f0_m" transform="matrix(12,0,0,12,712.2,96.9)" />
<use xlink:href="#f0_n" transform="matrix(12,0,0,12,727.7,96.9)" />
<use xlink:href="#f0_w" transform="matrix(12,0,0,12,742.3,96.9)" />
<use xlink:href="#f0_q" transform="matrix(12,0,0,12,754.6,96.9)" />
<use xlink:href="#f0_13" transform="matrix(12,0,0,12,768.1,96.9)" />
</g>
<path d="M43.3,103.8l736.2,0" class="g1_12" />
<defs>
	<path d="M27.5,0l0,65.7c126.8,0,137.5,10.7,155.8,32.1L381.9,322.4L143.6,612.6l-108.5,0l42.8,62.7l169.6,0c103.9,0,-41.2,3,139,3l0,-65.7l-64.1,0L473.6,427.8L606.5,577.5c3.1,3.1,10.7,13.8,10.7,16.8c0,10.7,-32.1,18.3,-61.1,18.3l42.8,62.7l161.9,0c3.1,0,-51.9,3,88.6,3l0,-65.7c-126.8,0,-140.5,-12.2,-157.3,-32L514.9,377.4L773.1,65.7l106.9,0L837.2,3.1l-169.6,0C565.3,3.1,710.4,0,528.6,0l0,65.7l64.2,0L423.2,271.9L270.4,99.3C259.7,87.1,259.7,85.6,259.7,84c0,-10.7,32.1,-18.3,61.1,-18.3L278.1,3.1l-155.9,0C119.2,3.1,169.6,0,27.5,0Z" 
	id="f0_1w"
	transform="scale(0.001,-0.001)" />

	<path d="M58.1,0l0,65.7l161.9,0l0,916.7l-161.9,0l44.3,62.6l311.6,0c136,0,-80.9,3.1,210.9,3.1l0,-65.7l-203.2,0l0,-916.7l163.4,0c275,0,299.5,241.4,310.2,346.8l64.1,0L915.1,0Z" 
	id="f0_w"
	transform="scale(0.001,-0.001)" />

	<path d="M47.4,0l0,65.7l171.1,0l0,916.7l-171.1,0l55,62.6l281.1,0c152.8,0,-64.2,3.1,207.8,3.1l0,-65.7l-171.2,0l0,-916.7l171.2,0L536.3,3.1l-281.2,0C102.4,3.1,319.3,0,47.4,0Z" 
	id="f0_u"
	transform="scale(0.001,-0.001)" />

	<path d="M117.6,-18.2c-22.9,0,-22.9,10.7,-22.9,39.6l0,287.2c0,35.2,0,39.7,32.1,39.7c30.6,0,30.6,-4.5,32.1,-32C171.1,93.2,383.5,47.4,517.9,47.4c171.1,0,203.2,120.7,203.2,186.4c0,77.9,-44.3,120.6,-64.2,140.5C623.3,406.4,605,409.4,452.2,443.1C293.3,478.2,250.6,487.4,171.1,566.8C149.7,588.2,94.7,660,94.7,762.4c0,166.5,116.1,304,334.6,304c148.2,0,224.6,-59.6,262.8,-91.7l65.7,74.9c13.7,15.3,18.3,16.8,29,16.8c22.9,0,22.9,-10.7,22.9,-39.7l0,-287.3c0,-35.1,0,-39.7,-32.1,-39.7c-29,0,-29,1.6,-33.6,33.6c-32.1,200.2,-165,272,-313.2,272c-148.2,0,-198.6,-90.2,-198.6,-168.1c0,-21.4,4.6,-131.4,155.9,-165L597.4,624.9C763.9,586.7,858.6,449.2,858.6,305.6c0,-162,-100.8,-323.8,-339.2,-323.8c-91.6,0,-216.9,19.7,-305.5,90C175.7,33.6,161.9,13.8,145.1,-3C129.9,-16.7,128.3,-18.2,117.6,-18.2Z" 
	id="f0_13"
	transform="scale(0.001,-0.001)" />

	<path d="M265.8,0l0,65.7l230.7,0l0,902.9l-123.7,0c-220,0,-232.2,-129.8,-246,-296.4l-64.2,0l30.6,362.1l1006.8,0l30.6,-362.1l-64.2,0c-13.8,168.1,-26,296.4,-246,296.4l-122.2,0l0,-902.9l230.7,0L806.7,3.1l-261.3,0C388.1,3.1,597.4,0,265.8,0Z" 
	id="f0_14"
	transform="scale(0.001,-0.001)" />

	<path d="M644.7,39.7c119.2,0,203.2,65.7,241.4,117.7c76.4,105.4,93.2,232.2,93.2,383.4c0,152.8,-18.3,247.5,-74.9,336.1c-44.3,68.8,-135.9,134.5,-259.7,134.5c-90.1,0,-200.1,-38.2,-267.3,-145.1C314.7,762.4,310.1,634,310.1,540.8c0,-111.5,7.7,-255.1,81,-366.6C449.2,87.1,545.4,39.7,644.7,39.7Zm0,-57.9c-336.1,0,-550,215.3,-550,537.6c0,322.4,209.3,547,550,547c339.2,0,550,-223.1,550,-547c0,-322.3,-213.9,-537.6,-550,-537.6Z" 
	id="f0_z"
	transform="scale(0.001,-0.001)" />

	<path d="M58.1,0l0,65.7l161.9,0l0,909l-161.9,0l0,65.7l904.4,0l44.3,-362.1l-64.2,0C921.3,863.2,883.1,974.7,640.1,974.7l-218.4,0l0,-421.6l84,0c146.7,0,158.9,67.2,158.9,178.7l64.2,0l0,-423.2l-64.2,0c0,111.5,-12.2,178.8,-158.9,178.8l-84,0l0,-421.7l203.2,0L550,3.1l-273.5,0C102.4,3.1,333.1,0,58.1,0Z" 
	id="f0_r"
	transform="scale(0.001,-0.001)" />

	<path d="M759.3,369.7l-177.2,440L403.3,369.7ZM59.6,0l0,65.7l27.5,0c33.6,0,39.7,0,77.9,4.6c42.8,4.6,42.8,7.6,53.5,32.1l378.9,931.9c10.7,27.5,13.7,35.1,51.9,35.1c36.7,0,39.7,-7.6,50.4,-35.1L1092.4,65.7l145.1,0L1199.3,3.1l-262.8,0C788.3,3.1,994.6,0,739.4,0l0,65.7l143.7,0L786.8,304l-409.4,0l-81,-198.6c-3.1,-6.1,-3.1,-9.1,-7.6,-22.9C331.5,65.7,389.6,65.7,423.2,65.7L388.1,3.1L191,3.1C99.3,3.1,235.3,0,59.6,0Z" 
	id="f0_m"
	transform="scale(0.001,-0.001)" />

	<path d="M690.6,65.7c175.7,0,227.6,123.7,227.6,220c0,68.7,-26,233.7,-204.7,233.7l-304.1,0l0,-453.7ZM637.1,569.9c178.7,0,238.3,110,238.3,216.9c0,76.4,-32.1,195.6,-189.4,195.6l-276.6,0l0,-412.5ZM59.6,0l0,65.7l161.9,0l0,916.7l-161.9,0l0,65.7l644.7,0c244.5,0,372.8,-122.3,372.8,-262.8c0,-71.8,-42.8,-197.1,-262.8,-238.4C999.2,533.2,1126,427.8,1126,282.6C1126,136,1002.2,0,750.1,0Z" 
	id="f0_n"
	transform="scale(0.001,-0.001)" />

	<path d="M58.1,0l0,65.7l161.9,0l0,909l-161.9,0l0,65.7l928.8,0l44.4,-362.1l-64.2,0C944.2,875.4,893.8,974.7,660,974.7l-238.3,0l0,-401.8l90.1,0c146.7,0,162,64.2,162,178.8l64.1,0l0,-423.2l-64.1,0c0,116.1,-15.3,178.7,-162,178.7l-90.1,0l0,-441.5l238.3,0c265.8,0,322.4,119.2,354.4,346.8l64.2,0L1012.9,0Z" 
	id="f0_q"
	transform="scale(0.001,-0.001)" />


</defs>
</svg>