<?xml version="1.0" encoding="UTF-8" standalone="no"?>
<!DOCTYPE svg PUBLIC "-//W3C//DTD SVG 1.1//EN"
"http://www.w3.org/Graphics/SVG/1.1/DTD/svg11.dtd">
<svg viewBox="0 0 1512 2138" version="1.1" xmlns="http://www.w3.org/2000/svg" xmlns:xlink="http://www.w3.org/1999/xlink">
<defs>
<style type="text/css"><![CDATA[
.g1_2{
fill: #D9D9D9;
}
.g2_2{
fill: none;
stroke: #D4D5D5;
stroke-width: 3.2083333;
stroke-linecap: butt;
stroke-linejoin: round;
}
.g3_2{
fill: #242831;
}
]]></style>
</defs>
<path fill-rule="evenodd" d="M42.2,2062l1383.4,0l0,-0.8l-1383.4,0l0,0.8Z" class="g1_2" />
<path d="M204.7,446.6l0,-400.8" class="g2_2" />
<path fill-rule="evenodd" d="M204.7,63l1.8,0.3l1.6,0.5l1.4,0.9l1.1,1.2l0.9,1.4l0.6,1.6l0.3,1.8l0,0.1l-0.3,1.8l-0.5,1.6l-0.9,1.4l-1.2,1.2l-1.3,0.9l-1.6,0.7l-1.7,0.2l-0.2,0L203,78.4l-1.6,-0.6L200,76.9l-1.2,-1.2l-0.9,-1.4l-0.6,-1.6L197.1,71l0,-0.2L197.3,69l0.5,-1.6l1,-1.4l1.1,-1.2l1.4,-0.9l1.6,-0.6L204.6,63l0.1,0Z" class="g3_2" />
<path d="M204.7,678.9l0,-232.3" class="g2_2" />
<path fill-rule="evenodd" d="M204.7,562l1.8,0.2l1.6,0.6l1.4,0.9l1.1,1.2l0.9,1.4l0.6,1.6l0.3,1.7l0,0.2l-0.3,1.8l-0.5,1.6l-0.9,1.4l-1.2,1.2l-1.3,0.9l-1.6,0.6l-1.7,0.3l-0.2,0L203,577.3l-1.6,-0.5L200,575.9l-1.2,-1.2l-0.9,-1.4l-0.6,-1.7l-0.2,-1.7l0,-0.1l0.2,-1.8l0.5,-1.6l1,-1.4l1.1,-1.2l1.4,-1l1.6,-0.6l1.7,-0.2l0.1,0Z" class="g3_2" />
<path fill-rule="evenodd" d="M204.7,613.4l1.8,0.2l1.6,0.6l1.4,0.9l1.1,1.2l0.9,1.4l0.6,1.6l0.3,1.7l0,0.2l-0.3,1.8l-0.5,1.6l-0.9,1.4l-1.2,1.2l-1.3,0.9l-1.6,0.7l-1.7,0.2l-0.2,0L203,628.8l-1.6,-0.6L200,627.3l-1.2,-1.2l-0.9,-1.4l-0.6,-1.6l-0.2,-1.8l0,-0.1l0.2,-1.8l0.5,-1.6l1,-1.4l1.1,-1.2l1.4,-0.9l1.6,-0.7l1.7,-0.2l0.1,0Z" class="g3_2" />
<path d="M204.7,1040.6l0,-361.7" class="g2_2" />
<path fill-rule="evenodd" d="M204.7,794.3l1.8,0.2l1.6,0.6l1.4,0.9l1.1,1.2l0.9,1.4l0.6,1.6l0.3,1.7l0,0.2l-0.3,1.8l-0.5,1.6l-0.9,1.4l-1.2,1.2l-1.3,0.9l-1.6,0.6l-1.7,0.3l-0.2,0L203,809.6l-1.6,-0.5L200,808.2L198.8,807l-0.9,-1.4l-0.6,-1.7l-0.2,-1.7l0,-0.1l0.2,-1.8l0.5,-1.6l1,-1.4l1.1,-1.2l1.4,-1l1.6,-0.6l1.7,-0.2l0.1,0Z" class="g3_2" />
<path fill-rule="evenodd" d="M204.7,884.7l1.8,0.3l1.6,0.5l1.4,0.9l1.1,1.2l0.9,1.4l0.6,1.7l0.3,1.7l0,0.1l-0.3,1.8l-0.5,1.7l-0.9,1.4l-1.2,1.1l-1.3,1l-1.6,0.6l-1.7,0.2l-0.2,0L203,900.1l-1.6,-0.6L200,898.6l-1.2,-1.2L197.9,896l-0.6,-1.6l-0.2,-1.7l0,-0.2l0.2,-1.8l0.5,-1.6l1,-1.4l1.1,-1.2l1.4,-0.9l1.6,-0.6l1.7,-0.3l0.1,0Z" class="g3_2" />
<path fill-rule="evenodd" d="M204.7,975.2l1.8,0.2l1.6,0.6l1.4,0.9l1.1,1.2l0.9,1.4l0.6,1.6l0.3,1.7l0,0.2l-0.3,1.8l-0.5,1.6l-0.9,1.4l-1.2,1.2l-1.3,0.9l-1.6,0.6l-1.7,0.3l-0.2,0L203,990.5L201.4,990L200,989.1l-1.2,-1.2l-0.9,-1.4l-0.6,-1.7l-0.2,-1.7l0,-0.1l0.2,-1.8l0.5,-1.6l1,-1.5l1.1,-1.1l1.4,-1l1.6,-0.6l1.7,-0.2l0.1,0Z" class="g3_2" />
<path d="M204.7,1234l0,-193.4" class="g2_2" />
<path fill-rule="evenodd" d="M204.7,1156.1l1.8,0.2l1.6,0.5l1.4,1l1.1,1.2l0.9,1.3l0.6,1.7l0.3,1.7l0,0.2l-0.3,1.7l-0.5,1.7l-0.9,1.4l-1.2,1.2l-1.3,0.9l-1.6,0.6l-1.7,0.3l-0.2,0l-1.7,-0.3l-1.6,-0.5l-1.4,-1l-1.2,-1.1l-0.9,-1.4l-0.6,-1.7l-0.2,-1.7l0,-0.1l0.2,-1.8l0.5,-1.7l1,-1.4l1.1,-1.1l1.4,-1l1.6,-0.6l1.7,-0.2l0.1,0Z" class="g3_2" />
<path fill-rule="evenodd" d="M204.7,1207.5l1.8,0.2l1.6,0.6l1.4,0.9l1.1,1.2l0.9,1.4l0.6,1.6l0.3,1.7l0,0.2l-0.3,1.8l-0.5,1.6l-0.9,1.4l-1.2,1.2l-1.3,0.9l-1.6,0.6l-1.7,0.3l-0.2,0l-1.7,-0.3l-1.6,-0.5l-1.4,-0.9l-1.2,-1.2l-0.9,-1.4l-0.6,-1.7l-0.2,-1.7l0,-0.1l0.2,-1.8l0.5,-1.7l1,-1.4l1.1,-1.1l1.4,-1l1.6,-0.6l1.7,-0.2l0.1,0Z" class="g3_2" />
<path d="M204.7,1375.9l0,-141.9" class="g2_2" />
<path fill-rule="evenodd" d="M204.7,1349.4l1.8,0.2l1.6,0.6l1.4,0.9l1.1,1.2l0.9,1.4l0.6,1.6l0.3,1.7l0,0.2l-0.3,1.8l-0.5,1.6l-0.9,1.4l-1.2,1.2l-1.3,0.9l-1.6,0.7l-1.7,0.2l-0.2,0l-1.7,-0.2l-1.6,-0.6l-1.4,-0.9l-1.2,-1.2l-0.9,-1.4l-0.6,-1.6l-0.2,-1.7l0,-0.2l0.2,-1.8l0.5,-1.6l1,-1.4l1.1,-1.2l1.4,-0.9l1.6,-0.7l1.7,-0.2l0.1,0Z" class="g3_2" />
<image preserveAspectRatio="none" x="177" y="476" width="57" height="58" xlink:href="img/1.png" />
<image preserveAspectRatio="none" x="177" y="709" width="57" height="57" xlink:href="img/2.png" />
<image preserveAspectRatio="none" x="177" y="1070" width="57" height="58" xlink:href="img/3.png" />
<image preserveAspectRatio="none" x="177" y="1264" width="57" height="57" xlink:href="img/4.png" />
</svg>