<?xml version="1.0" encoding="UTF-8" standalone="no"?>
<!DOCTYPE svg PUBLIC "-//W3C//DTD SVG 1.1//EN"
"http://www.w3.org/Graphics/SVG/1.1/DTD/svg11.dtd">
<svg viewBox="0 0 909 1286" version="1.1" xmlns="http://www.w3.org/2000/svg" xmlns:xlink="http://www.w3.org/1999/xlink">
<defs>
<style type="text/css"><![CDATA[
.g0_2{
fill: #0077AB;
}
.g1_2{
fill: none;
stroke: #D1D1D1;
stroke-width: 0.9136112;
stroke-linecap: butt;
stroke-linejoin: miter;
}
]]></style>
</defs>
<path d="M571.7,90.2H866.1v-3H571.7v3Z" class="g0_2" />
<path d="M571.7,191.7h3.8m3.9,0h3.8m3.9,0h3.8m3.9,0h3.8m3.9,0h3.8m3.9,0H614m3.9,0h3.8m3.9,0h3.8m3.9,0h3.8m3.9,0h3.8m3.9,0h3.8m3.9,0h3.8m3.9,0h3.8m3.9,0h3.8m3.9,0h3.8m3.9,0H691m3.9,0h3.8m3.9,0h3.8m3.9,0h3.8m3.9,0h3.8m3.9,0h3.8m3.9,0h3.8m3.9,0h3.8m3.9,0h3.8m3.9,0h3.8m3.9,0H768m3.9,0h3.8m3.9,0h3.8m3.9,0h3.9m3.8,0h3.9m3.8,0h3.9m3.8,0h3.9m3.8,0H822m3.8,0h3.9m3.8,0h3.9m3.8,0h3.9m3.8,0h3.9m3.8,0h3.9m-288.8,102h3.8m3.9,0h3.8m3.9,0h3.8m3.9,0h3.8m3.9,0h3.8m3.9,0H614m3.9,0h3.8m3.9,0h3.8m3.9,0h3.8m3.9,0h3.8m3.9,0h3.8m3.9,0h3.8m3.9,0h3.8m3.9,0h3.8m3.9,0h3.8m3.9,0H691m3.9,0h3.8m3.9,0h3.8m3.9,0h3.8m3.9,0h3.8m3.9,0h3.8m3.9,0h3.8m3.9,0h3.8m3.9,0h3.8m3.9,0h3.8m3.9,0H768m3.9,0h3.8m3.9,0h3.8m3.9,0h3.9m3.8,0h3.9m3.8,0h3.9m3.8,0h3.9m3.8,0H822m3.8,0h3.9m3.8,0h3.9m3.8,0h3.9m3.8,0h3.9m3.8,0h3.9" class="g1_2" />
<path d="M571.7,429.4H866.1v-3H571.7v3Z" class="g0_2" />
<path d="M571.7,576.6h3.8m3.9,0h3.8m3.9,0h3.8m3.9,0h3.8m3.9,0h3.8m3.9,0H614m3.9,0h3.8m3.9,0h3.8m3.9,0h3.8m3.9,0h3.8m3.9,0h3.8m3.9,0h3.8m3.9,0h3.8m3.9,0h3.8m3.9,0h3.8m3.9,0H691m3.9,0h3.8m3.9,0h3.8m3.9,0h3.8m3.9,0h3.8m3.9,0h3.8m3.9,0h3.8m3.9,0h3.8m3.9,0h3.8m3.9,0h3.8m3.9,0H768m3.9,0h3.8m3.9,0h3.8m3.9,0h3.9m3.8,0h3.9m3.8,0h3.9m3.8,0h3.9m3.8,0H822m3.8,0h3.9m3.8,0h3.9m3.8,0h3.9m3.8,0h3.9m3.8,0h3.9" class="g1_2" />
<path d="M571.7,738H866.1v-3.1H571.7V738Z" class="g0_2" />
<path d="M43.3,184.3H519.7v-3H43.3v3Z" class="g0_2" />
<path d="M43.3,422.8h3.9m3.8,0h3.9m3.8,0h3.9m3.8,0h3.9m3.8,0H78m3.8,0h3.9m3.8,0h3.9m3.8,0h3.9m3.8,0h3.9m3.8,0h3.9m3.8,0h3.9m3.8,0h3.9m3.8,0h3.9m3.8,0h3.9m3.8,0H155m3.8,0h3.9m3.8,0h3.9m3.8,0h3.9m3.8,0h3.9m3.8,0h3.9m3.8,0h3.9m3.8,0h3.9m3.8,0h3.9m3.8,0h3.9m3.8,0H232m3.8,0h3.9m3.8,0h3.9m3.9,0h3.8m3.9,0h3.8m3.9,0h3.8m3.9,0h3.8m3.9,0h3.8m3.9,0h3.8m3.9,0h3.8m3.9,0H309m3.9,0h3.8m3.9,0h3.8m3.9,0h3.8m3.9,0h3.8m3.9,0h3.8m3.9,0h3.8m3.9,0h3.8m3.9,0h3.8m3.9,0h3.8m3.9,0H386m3.9,0h3.8m3.9,0h3.8m3.9,0h3.8m3.9,0h3.8m3.9,0h3.8m3.9,0h3.8m3.9,0h3.8m3.9,0h3.8m3.9,0h3.8m3.9,0H463m3.9,0h3.8m3.9,0h3.8m3.9,0h3.9m3.8,0h3.9m3.8,0h3.9m3.8,0h3.9" class="g1_2" />
<path d="M43.3,719.1H519.7V716H43.3v3.1Z" class="g0_2" />
<path d="M43.3,925.6h3.9m3.8,0h3.9m3.8,0h3.9m3.8,0h3.9m3.8,0H78m3.8,0h3.9m3.8,0h3.9m3.8,0h3.9m3.8,0h3.9m3.8,0h3.9m3.8,0h3.9m3.8,0h3.9m3.8,0h3.9m3.8,0h3.9m3.8,0H155m3.8,0h3.9m3.8,0h3.9m3.8,0h3.9m3.8,0h3.9m3.8,0h3.9m3.8,0h3.9m3.8,0h3.9m3.8,0h3.9m3.8,0h3.9m3.8,0H232m3.8,0h3.9m3.8,0h3.9m3.9,0h3.8m3.9,0h3.8m3.9,0h3.8m3.9,0h3.8m3.9,0h3.8m3.9,0h3.8m3.9,0h3.8m3.9,0H309m3.9,0h3.8m3.9,0h3.8m3.9,0h3.8m3.9,0h3.8m3.9,0h3.8m3.9,0h3.8m3.9,0h3.8m3.9,0h3.8m3.9,0h3.8m3.9,0H386m3.9,0h3.8m3.9,0h3.8m3.9,0h3.8m3.9,0h3.8m3.9,0h3.8m3.9,0h3.8m3.9,0h3.8m3.9,0h3.8m3.9,0h3.8m3.9,0H463m3.9,0h3.8m3.9,0h3.8m3.9,0h3.9m3.8,0h3.9m3.8,0h3.9m3.8,0h3.9m-466,124.8h3.9m3.8,0h3.9m3.8,0h3.9m3.8,0h3.9m3.8,0H78m3.8,0h3.9m3.8,0h3.9m3.8,0h3.9m3.8,0h3.9m3.8,0h3.9m3.8,0h3.9m3.8,0h3.9m3.8,0h3.9m3.8,0h3.9m3.8,0H155m3.8,0h3.9m3.8,0h3.9m3.8,0h3.9m3.8,0h3.9m3.8,0h3.9m3.8,0h3.9m3.8,0h3.9m3.8,0h3.9m3.8,0h3.9m3.8,0H232m3.8,0h3.9m3.8,0h3.9m3.9,0h3.8m3.9,0h3.8m3.9,0h3.8m3.9,0h3.8m3.9,0h3.8m3.9,0h3.8m3.9,0h3.8m3.9,0H309m3.9,0h3.8m3.9,0h3.8m3.9,0h3.8m3.9,0h3.8m3.9,0h3.8m3.9,0h3.8m3.9,0h3.8m3.9,0h3.8m3.9,0h3.8m3.9,0H386m3.9,0h3.8m3.9,0h3.8m3.9,0h3.8m3.9,0h3.8m3.9,0h3.8m3.9,0h3.8m3.9,0h3.8m3.9,0h3.8m3.9,0h3.8m3.9,0H463m3.9,0h3.8m3.9,0h3.8m3.9,0h3.9m3.8,0h3.9m3.8,0h3.9m3.8,0h3.9" class="g1_2" />
</svg>