<?xml version="1.0" encoding="UTF-8" standalone="no"?>
<!DOCTYPE svg PUBLIC "-//W3C//DTD SVG 1.1//EN"
"http://www.w3.org/Graphics/SVG/1.1/DTD/svg11.dtd">
<svg viewBox="0 0 909 1286" version="1.1" xmlns="http://www.w3.org/2000/svg" xmlns:xlink="http://www.w3.org/1999/xlink">
<defs>
<style type="text/css"><![CDATA[
.g1_14{
fill: none;
stroke: #000000;
stroke-width: 0.6080556;
stroke-linecap: butt;
stroke-linejoin: miter;
}
]]></style>
</defs>
<g fill="#000000" >
<use xlink:href="#f0_1w" transform="matrix(12,0,0,12,42.8,96.9)" />
<use xlink:href="#f0_1h" transform="matrix(12,0,0,12,53.6,96.9)" />
<use xlink:href="#f0_1h" transform="matrix(12,0,0,12,59.3,96.9)" />
<use xlink:href="#f0_w" transform="matrix(12,0,0,12,599,96.9)" />
<use xlink:href="#f0_u" transform="matrix(12,0,0,12,611.4,96.9)" />
<use xlink:href="#f0_13" transform="matrix(12,0,0,12,619,96.9)" />
<use xlink:href="#f0_14" transform="matrix(12,0,0,12,630.5,96.9)" />
<use xlink:href="#f0_z" transform="matrix(12,0,0,12,651.6,96.9)" />
<use xlink:href="#f0_r" transform="matrix(12,0,0,12,667,96.9)" />
<use xlink:href="#f0_r" transform="matrix(12,0,0,12,686.8,96.9)" />
<use xlink:href="#f0_u" transform="matrix(12,0,0,12,699.7,96.9)" />
<use xlink:href="#f0_s" transform="matrix(12,0,0,12,707.4,96.9)" />
<use xlink:href="#f0_15" transform="matrix(12,0,0,12,723.5,96.9)" />
<use xlink:href="#f0_12" transform="matrix(12,0,0,12,739.3,96.9)" />
<use xlink:href="#f0_q" transform="matrix(12,0,0,12,754.6,96.9)" />
<use xlink:href="#f0_13" transform="matrix(12,0,0,12,768.1,96.9)" />
</g>
<path d="M43.3,103.8l736.2,0" class="g1_14" />
<g fill="#0000FF" >
<use xlink:href="#f1_l" transform="matrix(12,0,0,12,113.4,152)" />
<use xlink:href="#f1_g" transform="matrix(12,0,0,12,122.4,152)" />
<use xlink:href="#f1_r" transform="matrix(12,0,0,12,127.4,152)" />
<use xlink:href="#f1_z" transform="matrix(12,0,0,12,154.6,152)" />
<use xlink:href="#f1_26" transform="matrix(12,0,0,12,167.5,152)" />
<use xlink:href="#f1_2d" transform="matrix(12,0,0,12,175.9,152)" />
<use xlink:href="#f1_1s" transform="matrix(12,0,0,12,184.4,152)" />
<use xlink:href="#f1_29" transform="matrix(12,0,0,12,193.3,152)" />
<use xlink:href="#f1_20" transform="matrix(12,0,0,12,200.3,152)" />
<use xlink:href="#f1_1s" transform="matrix(12,0,0,12,205.2,152)" />
<use xlink:href="#f1_25" transform="matrix(12,0,0,12,214.2,152)" />
<use xlink:href="#f1_1u" transform="matrix(12,0,0,12,224.1,152)" />
<use xlink:href="#f1_1w" transform="matrix(12,0,0,12,232.1,152)" />
<use xlink:href="#f1_1x" transform="matrix(12,0,0,12,246,152)" />
<use xlink:href="#f1_2c" transform="matrix(12,0,0,12,251.4,152)" />
<use xlink:href="#f1_25" transform="matrix(12,0,0,12,261.4,152)" />
<use xlink:href="#f1_1u" transform="matrix(12,0,0,12,271.3,152)" />
<use xlink:href="#f1_2b" transform="matrix(12,0,0,12,279.3,152)" />
<use xlink:href="#f1_20" transform="matrix(12,0,0,12,286.2,152)" />
<use xlink:href="#f1_26" transform="matrix(12,0,0,12,291.2,152)" />
<use xlink:href="#f1_25" transform="matrix(12,0,0,12,300.1,152)" />
<use xlink:href="#f1_1v" transform="matrix(12,0,0,12,316,152)" />
<use xlink:href="#f1_20" transform="matrix(12,0,0,12,326,152)" />
<use xlink:href="#f1_2a" transform="matrix(12,0,0,12,330.9,152)" />
<use xlink:href="#f1_1u" transform="matrix(12,0,0,12,338,152)" />
<use xlink:href="#f1_26" transform="matrix(12,0,0,12,345.9,152)" />
<use xlink:href="#f1_2d" transform="matrix(12,0,0,12,354.4,152)" />
<use xlink:href="#f1_1w" transform="matrix(12,0,0,12,363.3,152)" />
<use xlink:href="#f1_29" transform="matrix(12,0,0,12,371.3,152)" />
<use xlink:href="#f1_2g" transform="matrix(12,0,0,12,378.2,152)" />
<use xlink:href="#f1_2c" transform="matrix(12,0,0,12,393.6,152)" />
<use xlink:href="#f1_2a" transform="matrix(12,0,0,12,403.6,152)" />
<use xlink:href="#f1_20" transform="matrix(12,0,0,12,410.6,152)" />
<use xlink:href="#f1_25" transform="matrix(12,0,0,12,415.6,152)" />
<use xlink:href="#f1_1y" transform="matrix(12,0,0,12,425.5,152)" />
<use xlink:href="#f1_1y" transform="matrix(12,0,0,12,440.4,152)" />
<use xlink:href="#f1_29" transform="matrix(12,0,0,12,449.4,152)" />
<use xlink:href="#f1_1w" transform="matrix(12,0,0,12,456.3,152)" />
<use xlink:href="#f1_1w" transform="matrix(12,0,0,12,464.3,152)" />
<use xlink:href="#f1_1v" transform="matrix(12,0,0,12,472.2,152)" />
<use xlink:href="#f1_2g" transform="matrix(12,0,0,12,482.2,152)" />
<use xlink:href="#f1_2a" transform="matrix(12,0,0,12,497.6,152)" />
<use xlink:href="#f1_1w" transform="matrix(12,0,0,12,504.6,152)" />
<use xlink:href="#f1_1s" transform="matrix(12,0,0,12,512.6,152)" />
<use xlink:href="#f1_29" transform="matrix(12,0,0,12,521.5,152)" />
<use xlink:href="#f1_1u" transform="matrix(12,0,0,12,528.5,152)" />
<use xlink:href="#f1_1z" transform="matrix(12,0,0,12,535.9,152)" />
<use xlink:href="#f1_1s" transform="matrix(12,0,0,12,551.8,152)" />
<use xlink:href="#f1_27" transform="matrix(12,0,0,12,560.7,152)" />
<use xlink:href="#f1_27" transform="matrix(12,0,0,12,570.7,152)" />
<use xlink:href="#f1_29" transform="matrix(12,0,0,12,580.6,152)" />
<use xlink:href="#f1_26" transform="matrix(12,0,0,12,587.6,152)" />
<use xlink:href="#f1_1s" transform="matrix(12,0,0,12,596.5,152)" />
<use xlink:href="#f1_1u" transform="matrix(12,0,0,12,605.5,152)" />
<use xlink:href="#f1_1z" transform="matrix(12,0,0,12,612.9,152)" />
<use xlink:href="#f1_1s" transform="matrix(12,0,0,12,628.8,152)" />
<use xlink:href="#f1_2b" transform="matrix(12,0,0,12,637.7,152)" />
<use xlink:href="#f1_1v" transform="matrix(12,0,0,12,650.7,152)" />
<use xlink:href="#f1_1w" transform="matrix(12,0,0,12,660.6,152)" />
<use xlink:href="#f1_27" transform="matrix(12,0,0,12,668.5,152)" />
<use xlink:href="#f1_2b" transform="matrix(12,0,0,12,678.5,152)" />
<use xlink:href="#f1_1z" transform="matrix(12,0,0,12,685.4,152)" />
<use xlink:href="#f1_23" transform="matrix(12,0,0,12,701.3,152)" />
<use xlink:href="#f1_1w" transform="matrix(12,0,0,12,706.3,152)" />
<use xlink:href="#f1_2d" transform="matrix(12,0,0,12,714.3,152)" />
<use xlink:href="#f1_1w" transform="matrix(12,0,0,12,723.2,152)" />
<use xlink:href="#f1_23" transform="matrix(12,0,0,12,731.1,152)" />
<use xlink:href="#f1_l" transform="matrix(12,0,0,12,742.1,152)" />
</g>
<g fill="#000000" >
<use xlink:href="#f1_l" transform="matrix(12,0,0,12,762.1,152)" />
<use xlink:href="#f1_l" transform="matrix(12,0,0,12,771,152)" />
</g>
<g fill="#0000FF" >
<use xlink:href="#f1_m" transform="matrix(12,0,0,12,113.4,194.6)" />
<use xlink:href="#f1_g" transform="matrix(12,0,0,12,122.4,194.6)" />
<use xlink:href="#f1_j" transform="matrix(12,0,0,12,127.4,194.6)" />
<use xlink:href="#f1_z" transform="matrix(11.7,0,0,12,154.6,194.6)" />
<use xlink:href="#f1_26" transform="matrix(11.7,0,0,12,167.2,194.6)" />
<use xlink:href="#f1_2d" transform="matrix(11.7,0,0,12,175.5,194.6)" />
<use xlink:href="#f1_1s" transform="matrix(11.7,0,0,12,183.8,194.6)" />
<use xlink:href="#f1_29" transform="matrix(11.7,0,0,12,192.5,194.6)" />
<use xlink:href="#f1_20" transform="matrix(11.7,0,0,12,199.3,194.6)" />
<use xlink:href="#f1_1s" transform="matrix(11.7,0,0,12,204.2,194.6)" />
<use xlink:href="#f1_25" transform="matrix(11.7,0,0,12,213,194.6)" />
<use xlink:href="#f1_1u" transform="matrix(11.7,0,0,12,222.7,194.6)" />
<use xlink:href="#f1_1w" transform="matrix(11.7,0,0,12,230.5,194.6)" />
<use xlink:href="#f1_1x" transform="matrix(11.7,0,0,12,243.6,194.6)" />
<use xlink:href="#f1_2c" transform="matrix(11.7,0,0,12,248.9,194.6)" />
<use xlink:href="#f1_25" transform="matrix(11.7,0,0,12,258.7,194.6)" />
<use xlink:href="#f1_1u" transform="matrix(11.7,0,0,12,268.4,194.6)" />
<use xlink:href="#f1_2b" transform="matrix(11.7,0,0,12,276.2,194.6)" />
<use xlink:href="#f1_20" transform="matrix(11.7,0,0,12,283,194.6)" />
<use xlink:href="#f1_26" transform="matrix(11.7,0,0,12,287.9,194.6)" />
<use xlink:href="#f1_25" transform="matrix(11.7,0,0,12,296.7,194.6)" />
<use xlink:href="#f1_1v" transform="matrix(11.7,0,0,12,311.7,194.6)" />
<use xlink:href="#f1_20" transform="matrix(11.7,0,0,12,321.4,194.6)" />
<use xlink:href="#f1_2a" transform="matrix(11.7,0,0,12,326.3,194.6)" />
<use xlink:href="#f1_1u" transform="matrix(11.7,0,0,12,333.2,194.6)" />
<use xlink:href="#f1_26" transform="matrix(11.7,0,0,12,341,194.6)" />
<use xlink:href="#f1_2d" transform="matrix(11.7,0,0,12,349.3,194.6)" />
<use xlink:href="#f1_1w" transform="matrix(11.7,0,0,12,358,194.6)" />
<use xlink:href="#f1_29" transform="matrix(11.7,0,0,12,365.8,194.6)" />
<use xlink:href="#f1_2g" transform="matrix(11.7,0,0,12,372.6,194.6)" />
<use xlink:href="#f1_2c" transform="matrix(11.7,0,0,12,387.2,194.6)" />
<use xlink:href="#f1_2a" transform="matrix(11.7,0,0,12,396.9,194.6)" />
<use xlink:href="#f1_20" transform="matrix(11.7,0,0,12,403.8,194.6)" />
<use xlink:href="#f1_25" transform="matrix(11.7,0,0,12,408.7,194.6)" />
<use xlink:href="#f1_1y" transform="matrix(11.7,0,0,12,418.4,194.6)" />
<use xlink:href="#f1_2b" transform="matrix(11.7,0,0,12,432.5,194.6)" />
<use xlink:href="#f1_26" transform="matrix(11.7,0,0,12,439.3,194.6)" />
<use xlink:href="#f1_27" transform="matrix(11.7,0,0,12,448.1,194.6)" />
<use xlink:href="#f1_f" transform="matrix(11.7,0,0,12,457.8,194.6)" />
<use xlink:href="#f1_2b" transform="matrix(11.7,0,0,12,463.7,194.6)" />
<use xlink:href="#f1_1z" transform="matrix(11.7,0,0,12,470.5,194.6)" />
<use xlink:href="#f1_29" transform="matrix(11.7,0,0,12,480.2,194.6)" />
<use xlink:href="#f1_1w" transform="matrix(11.7,0,0,12,487,194.6)" />
<use xlink:href="#f1_1w" transform="matrix(11.7,0,0,12,494.8,194.6)" />
<use xlink:href="#f1_2a" transform="matrix(11.7,0,0,12,507.9,194.6)" />
<use xlink:href="#f1_1w" transform="matrix(11.7,0,0,12,514.8,194.6)" />
<use xlink:href="#f1_1s" transform="matrix(11.7,0,0,12,522.6,194.6)" />
<use xlink:href="#f1_29" transform="matrix(11.7,0,0,12,531.4,194.6)" />
<use xlink:href="#f1_1u" transform="matrix(11.7,0,0,12,538.2,194.6)" />
<use xlink:href="#f1_1z" transform="matrix(11.7,0,0,12,545.5,194.6)" />
<use xlink:href="#f1_1s" transform="matrix(11.7,0,0,12,560.5,194.6)" />
<use xlink:href="#f1_27" transform="matrix(11.7,0,0,12,569.3,194.6)" />
<use xlink:href="#f1_27" transform="matrix(11.7,0,0,12,579,194.6)" />
<use xlink:href="#f1_29" transform="matrix(11.7,0,0,12,588.8,194.6)" />
<use xlink:href="#f1_26" transform="matrix(11.7,0,0,12,595.6,194.6)" />
<use xlink:href="#f1_1s" transform="matrix(11.7,0,0,12,604.4,194.6)" />
<use xlink:href="#f1_1u" transform="matrix(11.7,0,0,12,613.1,194.6)" />
<use xlink:href="#f1_1z" transform="matrix(11.7,0,0,12,620.4,194.6)" />
<use xlink:href="#f1_1s" transform="matrix(11.7,0,0,12,635.4,194.6)" />
<use xlink:href="#f1_2b" transform="matrix(11.7,0,0,12,644.2,194.6)" />
<use xlink:href="#f1_1v" transform="matrix(11.7,0,0,12,656.3,194.6)" />
<use xlink:href="#f1_1w" transform="matrix(11.7,0,0,12,666.1,194.6)" />
<use xlink:href="#f1_27" transform="matrix(11.7,0,0,12,673.9,194.6)" />
<use xlink:href="#f1_2b" transform="matrix(11.7,0,0,12,683.6,194.6)" />
<use xlink:href="#f1_1z" transform="matrix(11.7,0,0,12,690.4,194.6)" />
<use xlink:href="#f1_23" transform="matrix(11.7,0,0,12,705.5,194.6)" />
<use xlink:href="#f1_1w" transform="matrix(11.7,0,0,12,710.3,194.6)" />
<use xlink:href="#f1_2d" transform="matrix(11.7,0,0,12,718.1,194.6)" />
<use xlink:href="#f1_1w" transform="matrix(11.7,0,0,12,726.9,194.6)" />
<use xlink:href="#f1_23" transform="matrix(11.7,0,0,12,734.7,194.6)" />
<use xlink:href="#f1_j" transform="matrix(11.7,0,0,12,744.8,194.6)" />
</g>
<g fill="#000000" >
<use xlink:href="#f1_m" transform="matrix(12,0,0,12,763.4,194.6)" />
<use xlink:href="#f1_j" transform="matrix(12,0,0,12,772.4,194.6)" />
</g>
<g fill="#0000FF" >
<use xlink:href="#f1_m" transform="matrix(12,0,0,12,113.4,222)" />
<use xlink:href="#f1_g" transform="matrix(12,0,0,12,122.4,222)" />
<use xlink:href="#f1_k" transform="matrix(12,0,0,12,127.4,222)" />
<use xlink:href="#f1_z" transform="matrix(11.7,0,0,12,154.6,222)" />
<use xlink:href="#f1_26" transform="matrix(11.7,0,0,12,167.2,222)" />
<use xlink:href="#f1_2d" transform="matrix(11.7,0,0,12,175.5,222)" />
<use xlink:href="#f1_1s" transform="matrix(11.7,0,0,12,183.8,222)" />
<use xlink:href="#f1_29" transform="matrix(11.7,0,0,12,192.5,222)" />
<use xlink:href="#f1_20" transform="matrix(11.7,0,0,12,199.3,222)" />
<use xlink:href="#f1_1s" transform="matrix(11.7,0,0,12,204.2,222)" />
<use xlink:href="#f1_25" transform="matrix(11.7,0,0,12,213,222)" />
<use xlink:href="#f1_1u" transform="matrix(11.7,0,0,12,222.7,222)" />
<use xlink:href="#f1_1w" transform="matrix(11.7,0,0,12,230.5,222)" />
<use xlink:href="#f1_1x" transform="matrix(11.7,0,0,12,243.6,222)" />
<use xlink:href="#f1_2c" transform="matrix(11.7,0,0,12,248.9,222)" />
<use xlink:href="#f1_25" transform="matrix(11.7,0,0,12,258.7,222)" />
<use xlink:href="#f1_1u" transform="matrix(11.7,0,0,12,268.4,222)" />
<use xlink:href="#f1_2b" transform="matrix(11.7,0,0,12,276.2,222)" />
<use xlink:href="#f1_20" transform="matrix(11.7,0,0,12,283,222)" />
<use xlink:href="#f1_26" transform="matrix(11.7,0,0,12,287.9,222)" />
<use xlink:href="#f1_25" transform="matrix(11.7,0,0,12,296.7,222)" />
<use xlink:href="#f1_1v" transform="matrix(11.7,0,0,12,311.7,222)" />
<use xlink:href="#f1_20" transform="matrix(11.7,0,0,12,321.4,222)" />
<use xlink:href="#f1_2a" transform="matrix(11.7,0,0,12,326.3,222)" />
<use xlink:href="#f1_1u" transform="matrix(11.7,0,0,12,333.2,222)" />
<use xlink:href="#f1_26" transform="matrix(11.7,0,0,12,341,222)" />
<use xlink:href="#f1_2d" transform="matrix(11.7,0,0,12,349.3,222)" />
<use xlink:href="#f1_1w" transform="matrix(11.7,0,0,12,358,222)" />
<use xlink:href="#f1_29" transform="matrix(11.7,0,0,12,365.8,222)" />
<use xlink:href="#f1_2g" transform="matrix(11.7,0,0,12,372.6,222)" />
<use xlink:href="#f1_2c" transform="matrix(11.7,0,0,12,387.2,222)" />
<use xlink:href="#f1_2a" transform="matrix(11.7,0,0,12,396.9,222)" />
<use xlink:href="#f1_20" transform="matrix(11.7,0,0,12,403.8,222)" />
<use xlink:href="#f1_25" transform="matrix(11.7,0,0,12,408.7,222)" />
<use xlink:href="#f1_1y" transform="matrix(11.7,0,0,12,418.4,222)" />
<use xlink:href="#f1_2b" transform="matrix(11.7,0,0,12,432.5,222)" />
<use xlink:href="#f1_26" transform="matrix(11.7,0,0,12,439.3,222)" />
<use xlink:href="#f1_27" transform="matrix(11.7,0,0,12,448.1,222)" />
<use xlink:href="#f1_f" transform="matrix(11.7,0,0,12,457.8,222)" />
<use xlink:href="#f1_2b" transform="matrix(11.7,0,0,12,463.7,222)" />
<use xlink:href="#f1_1z" transform="matrix(11.7,0,0,12,470.5,222)" />
<use xlink:href="#f1_29" transform="matrix(11.7,0,0,12,480.2,222)" />
<use xlink:href="#f1_1w" transform="matrix(11.7,0,0,12,487,222)" />
<use xlink:href="#f1_1w" transform="matrix(11.7,0,0,12,494.8,222)" />
<use xlink:href="#f1_2a" transform="matrix(11.7,0,0,12,507.9,222)" />
<use xlink:href="#f1_1w" transform="matrix(11.7,0,0,12,514.8,222)" />
<use xlink:href="#f1_1s" transform="matrix(11.7,0,0,12,522.6,222)" />
<use xlink:href="#f1_29" transform="matrix(11.7,0,0,12,531.4,222)" />
<use xlink:href="#f1_1u" transform="matrix(11.7,0,0,12,538.2,222)" />
<use xlink:href="#f1_1z" transform="matrix(11.7,0,0,12,545.5,222)" />
<use xlink:href="#f1_1s" transform="matrix(11.7,0,0,12,560.5,222)" />
<use xlink:href="#f1_27" transform="matrix(11.7,0,0,12,569.3,222)" />
<use xlink:href="#f1_27" transform="matrix(11.7,0,0,12,579,222)" />
<use xlink:href="#f1_29" transform="matrix(11.7,0,0,12,588.8,222)" />
<use xlink:href="#f1_26" transform="matrix(11.7,0,0,12,595.6,222)" />
<use xlink:href="#f1_1s" transform="matrix(11.7,0,0,12,604.4,222)" />
<use xlink:href="#f1_1u" transform="matrix(11.7,0,0,12,613.1,222)" />
<use xlink:href="#f1_1z" transform="matrix(11.7,0,0,12,620.4,222)" />
<use xlink:href="#f1_1s" transform="matrix(11.7,0,0,12,635.4,222)" />
<use xlink:href="#f1_2b" transform="matrix(11.7,0,0,12,644.2,222)" />
<use xlink:href="#f1_1v" transform="matrix(11.7,0,0,12,656.3,222)" />
<use xlink:href="#f1_1w" transform="matrix(11.7,0,0,12,666.1,222)" />
<use xlink:href="#f1_27" transform="matrix(11.7,0,0,12,673.9,222)" />
<use xlink:href="#f1_2b" transform="matrix(11.7,0,0,12,683.6,222)" />
<use xlink:href="#f1_1z" transform="matrix(11.7,0,0,12,690.4,222)" />
<use xlink:href="#f1_23" transform="matrix(11.7,0,0,12,705.5,222)" />
<use xlink:href="#f1_1w" transform="matrix(11.7,0,0,12,710.3,222)" />
<use xlink:href="#f1_2d" transform="matrix(11.7,0,0,12,718.1,222)" />
<use xlink:href="#f1_1w" transform="matrix(11.7,0,0,12,726.9,222)" />
<use xlink:href="#f1_23" transform="matrix(11.7,0,0,12,734.7,222)" />
<use xlink:href="#f1_k" transform="matrix(11.7,0,0,12,744.8,222)" />
</g>
<g fill="#000000" >
<use xlink:href="#f1_m" transform="matrix(12,0,0,12,763.4,222)" />
<use xlink:href="#f1_j" transform="matrix(12,0,0,12,772.4,222)" />
</g>
<g fill="#0000FF" >
<use xlink:href="#f1_m" transform="matrix(12,0,0,12,113.4,249.4)" />
<use xlink:href="#f1_g" transform="matrix(12,0,0,12,122.4,249.4)" />
<use xlink:href="#f1_l" transform="matrix(12,0,0,12,127.4,249.4)" />
<use xlink:href="#f1_z" transform="matrix(11.7,0,0,12,154.6,249.4)" />
<use xlink:href="#f1_26" transform="matrix(11.7,0,0,12,167.2,249.4)" />
<use xlink:href="#f1_2d" transform="matrix(11.7,0,0,12,175.5,249.4)" />
<use xlink:href="#f1_1s" transform="matrix(11.7,0,0,12,183.8,249.4)" />
<use xlink:href="#f1_29" transform="matrix(11.7,0,0,12,192.5,249.4)" />
<use xlink:href="#f1_20" transform="matrix(11.7,0,0,12,199.3,249.4)" />
<use xlink:href="#f1_1s" transform="matrix(11.7,0,0,12,204.2,249.4)" />
<use xlink:href="#f1_25" transform="matrix(11.7,0,0,12,213,249.4)" />
<use xlink:href="#f1_1u" transform="matrix(11.7,0,0,12,222.7,249.4)" />
<use xlink:href="#f1_1w" transform="matrix(11.7,0,0,12,230.5,249.4)" />
<use xlink:href="#f1_1x" transform="matrix(11.7,0,0,12,243.6,249.4)" />
<use xlink:href="#f1_2c" transform="matrix(11.7,0,0,12,248.9,249.4)" />
<use xlink:href="#f1_25" transform="matrix(11.7,0,0,12,258.7,249.4)" />
<use xlink:href="#f1_1u" transform="matrix(11.7,0,0,12,268.4,249.4)" />
<use xlink:href="#f1_2b" transform="matrix(11.7,0,0,12,276.2,249.4)" />
<use xlink:href="#f1_20" transform="matrix(11.7,0,0,12,283,249.4)" />
<use xlink:href="#f1_26" transform="matrix(11.7,0,0,12,287.9,249.4)" />
<use xlink:href="#f1_25" transform="matrix(11.7,0,0,12,296.7,249.4)" />
<use xlink:href="#f1_1v" transform="matrix(11.7,0,0,12,311.7,249.4)" />
<use xlink:href="#f1_20" transform="matrix(11.7,0,0,12,321.4,249.4)" />
<use xlink:href="#f1_2a" transform="matrix(11.7,0,0,12,326.3,249.4)" />
<use xlink:href="#f1_1u" transform="matrix(11.7,0,0,12,333.2,249.4)" />
<use xlink:href="#f1_26" transform="matrix(11.7,0,0,12,341,249.4)" />
<use xlink:href="#f1_2d" transform="matrix(11.7,0,0,12,349.3,249.4)" />
<use xlink:href="#f1_1w" transform="matrix(11.7,0,0,12,358,249.4)" />
<use xlink:href="#f1_29" transform="matrix(11.7,0,0,12,365.8,249.4)" />
<use xlink:href="#f1_2g" transform="matrix(11.7,0,0,12,372.6,249.4)" />
<use xlink:href="#f1_2c" transform="matrix(11.7,0,0,12,387.2,249.4)" />
<use xlink:href="#f1_2a" transform="matrix(11.7,0,0,12,396.9,249.4)" />
<use xlink:href="#f1_20" transform="matrix(11.7,0,0,12,403.8,249.4)" />
<use xlink:href="#f1_25" transform="matrix(11.7,0,0,12,408.7,249.4)" />
<use xlink:href="#f1_1y" transform="matrix(11.7,0,0,12,418.4,249.4)" />
<use xlink:href="#f1_2b" transform="matrix(11.7,0,0,12,432.5,249.4)" />
<use xlink:href="#f1_26" transform="matrix(11.7,0,0,12,439.3,249.4)" />
<use xlink:href="#f1_27" transform="matrix(11.7,0,0,12,448.1,249.4)" />
<use xlink:href="#f1_f" transform="matrix(11.7,0,0,12,457.8,249.4)" />
<use xlink:href="#f1_2b" transform="matrix(11.7,0,0,12,463.7,249.4)" />
<use xlink:href="#f1_1z" transform="matrix(11.7,0,0,12,470.5,249.4)" />
<use xlink:href="#f1_29" transform="matrix(11.7,0,0,12,480.2,249.4)" />
<use xlink:href="#f1_1w" transform="matrix(11.7,0,0,12,487,249.4)" />
<use xlink:href="#f1_1w" transform="matrix(11.7,0,0,12,494.8,249.4)" />
<use xlink:href="#f1_2a" transform="matrix(11.7,0,0,12,507.9,249.4)" />
<use xlink:href="#f1_1w" transform="matrix(11.7,0,0,12,514.8,249.4)" />
<use xlink:href="#f1_1s" transform="matrix(11.7,0,0,12,522.6,249.4)" />
<use xlink:href="#f1_29" transform="matrix(11.7,0,0,12,531.4,249.4)" />
<use xlink:href="#f1_1u" transform="matrix(11.7,0,0,12,538.2,249.4)" />
<use xlink:href="#f1_1z" transform="matrix(11.7,0,0,12,545.5,249.4)" />
<use xlink:href="#f1_1s" transform="matrix(11.7,0,0,12,560.5,249.4)" />
<use xlink:href="#f1_27" transform="matrix(11.7,0,0,12,569.3,249.4)" />
<use xlink:href="#f1_27" transform="matrix(11.7,0,0,12,579,249.4)" />
<use xlink:href="#f1_29" transform="matrix(11.7,0,0,12,588.8,249.4)" />
<use xlink:href="#f1_26" transform="matrix(11.7,0,0,12,595.6,249.4)" />
<use xlink:href="#f1_1s" transform="matrix(11.7,0,0,12,604.4,249.4)" />
<use xlink:href="#f1_1u" transform="matrix(11.7,0,0,12,613.1,249.4)" />
<use xlink:href="#f1_1z" transform="matrix(11.7,0,0,12,620.4,249.4)" />
<use xlink:href="#f1_1s" transform="matrix(11.7,0,0,12,635.4,249.4)" />
<use xlink:href="#f1_2b" transform="matrix(11.7,0,0,12,644.2,249.4)" />
<use xlink:href="#f1_1v" transform="matrix(11.7,0,0,12,656.3,249.4)" />
<use xlink:href="#f1_1w" transform="matrix(11.7,0,0,12,666.1,249.4)" />
<use xlink:href="#f1_27" transform="matrix(11.7,0,0,12,673.9,249.4)" />
<use xlink:href="#f1_2b" transform="matrix(11.7,0,0,12,683.6,249.4)" />
<use xlink:href="#f1_1z" transform="matrix(11.7,0,0,12,690.4,249.4)" />
<use xlink:href="#f1_23" transform="matrix(11.7,0,0,12,705.5,249.4)" />
<use xlink:href="#f1_1w" transform="matrix(11.7,0,0,12,710.3,249.4)" />
<use xlink:href="#f1_2d" transform="matrix(11.7,0,0,12,718.1,249.4)" />
<use xlink:href="#f1_1w" transform="matrix(11.7,0,0,12,726.9,249.4)" />
<use xlink:href="#f1_23" transform="matrix(11.7,0,0,12,734.7,249.4)" />
<use xlink:href="#f1_l" transform="matrix(11.7,0,0,12,744.8,249.4)" />
</g>
<g fill="#000000" >
<use xlink:href="#f1_m" transform="matrix(12,0,0,12,763.4,249.4)" />
<use xlink:href="#f1_j" transform="matrix(12,0,0,12,772.4,249.4)" />
</g>
<g fill="#0000FF" >
<use xlink:href="#f1_n" transform="matrix(12,0,0,12,113.4,292)" />
<use xlink:href="#f1_g" transform="matrix(12,0,0,12,122.4,292)" />
<use xlink:href="#f1_j" transform="matrix(12,0,0,12,127.4,292)" />
<use xlink:href="#f1_1f" transform="matrix(12,0,0,12,154.6,292)" />
<use xlink:href="#f1_1u" transform="matrix(12,0,0,12,164.5,292)" />
<use xlink:href="#f1_1s" transform="matrix(12,0,0,12,172.5,292)" />
<use xlink:href="#f1_2b" transform="matrix(12,0,0,12,181.4,292)" />
<use xlink:href="#f1_2b" transform="matrix(12,0,0,12,188.4,292)" />
<use xlink:href="#f1_1w" transform="matrix(12,0,0,12,195.3,292)" />
<use xlink:href="#f1_29" transform="matrix(12,0,0,12,203.3,292)" />
<use xlink:href="#f1_27" transform="matrix(12,0,0,12,216.2,292)" />
<use xlink:href="#f1_23" transform="matrix(12,0,0,12,226.1,292)" />
<use xlink:href="#f1_26" transform="matrix(12,0,0,12,231.1,292)" />
<use xlink:href="#f1_2b" transform="matrix(12,0,0,12,240,292)" />
<use xlink:href="#f1_2a" transform="matrix(12,0,0,12,247,292)" />
<use xlink:href="#f1_26" transform="matrix(12,0,0,12,260,292)" />
<use xlink:href="#f1_1x" transform="matrix(12,0,0,12,268.9,292)" />
<use xlink:href="#f1_1t" transform="matrix(12,0,0,12,280.4,292)" />
<use xlink:href="#f1_1s" transform="matrix(12,0,0,12,290.3,292)" />
<use xlink:href="#f1_2a" transform="matrix(12,0,0,12,299.2,292)" />
<use xlink:href="#f1_1w" transform="matrix(12,0,0,12,306.3,292)" />
<use xlink:href="#f1_23" transform="matrix(12,0,0,12,314.2,292)" />
<use xlink:href="#f1_20" transform="matrix(12,0,0,12,319.2,292)" />
<use xlink:href="#f1_25" transform="matrix(12,0,0,12,324.2,292)" />
<use xlink:href="#f1_1w" transform="matrix(12,0,0,12,334.1,292)" />
<use xlink:href="#f1_1w" transform="matrix(12,0,0,12,348,292)" />
<use xlink:href="#f1_2f" transform="matrix(12,0,0,12,356,292)" />
<use xlink:href="#f1_27" transform="matrix(12,0,0,12,365.4,292)" />
<use xlink:href="#f1_1w" transform="matrix(12,0,0,12,375.8,292)" />
<use xlink:href="#f1_29" transform="matrix(12,0,0,12,383.8,292)" />
<use xlink:href="#f1_20" transform="matrix(12,0,0,12,390.7,292)" />
<use xlink:href="#f1_24" transform="matrix(12,0,0,12,395.7,292)" />
<use xlink:href="#f1_1w" transform="matrix(12,0,0,12,410.6,292)" />
<use xlink:href="#f1_25" transform="matrix(12,0,0,12,418.6,292)" />
<use xlink:href="#f1_2b" transform="matrix(12,0,0,12,428,292)" />
<use xlink:href="#f1_2a" transform="matrix(12,0,0,12,435,292)" />
</g>
<g fill="#000000" >
<use xlink:href="#f1_g" transform="matrix(12,0,0,12,457.8,292)" />
<use xlink:href="#f1_g" transform="matrix(12,0,0,12,471.9,292)" />
<use xlink:href="#f1_g" transform="matrix(12,0,0,12,486,292)" />
<use xlink:href="#f1_g" transform="matrix(12,0,0,12,500.1,292)" />
<use xlink:href="#f1_g" transform="matrix(12,0,0,12,514.2,292)" />
<use xlink:href="#f1_g" transform="matrix(12,0,0,12,528.3,292)" />
<use xlink:href="#f1_g" transform="matrix(12,0,0,12,542.4,292)" />
<use xlink:href="#f1_g" transform="matrix(12,0,0,12,556.5,292)" />
<use xlink:href="#f1_g" transform="matrix(12,0,0,12,570.6,292)" />
<use xlink:href="#f1_g" transform="matrix(12,0,0,12,584.7,292)" />
<use xlink:href="#f1_g" transform="matrix(12,0,0,12,598.8,292)" />
<use xlink:href="#f1_g" transform="matrix(12,0,0,12,612.9,292)" />
<use xlink:href="#f1_g" transform="matrix(12,0,0,12,627,292)" />
<use xlink:href="#f1_g" transform="matrix(12,0,0,12,641.1,292)" />
<use xlink:href="#f1_g" transform="matrix(12,0,0,12,655.2,292)" />
<use xlink:href="#f1_g" transform="matrix(12,0,0,12,669.3,292)" />
<use xlink:href="#f1_g" transform="matrix(12,0,0,12,683.4,292)" />
<use xlink:href="#f1_g" transform="matrix(12,0,0,12,697.5,292)" />
<use xlink:href="#f1_g" transform="matrix(12,0,0,12,711.6,292)" />
<use xlink:href="#f1_g" transform="matrix(12,0,0,12,725.7,292)" />
<use xlink:href="#f1_g" transform="matrix(12,0,0,12,739.8,292)" />
<use xlink:href="#f1_n" transform="matrix(12,0,0,12,762.1,292)" />
<use xlink:href="#f1_l" transform="matrix(12,0,0,12,771,292)" />
</g>
<g fill="#0000FF" >
<use xlink:href="#f1_n" transform="matrix(12,0,0,12,113.4,319.4)" />
<use xlink:href="#f1_g" transform="matrix(12,0,0,12,122.4,319.4)" />
<use xlink:href="#f1_k" transform="matrix(12,0,0,12,127.4,319.4)" />
<use xlink:href="#f1_y" transform="matrix(12,0,0,12,154.6,319.4)" />
<use xlink:href="#f1_26" transform="matrix(12,0,0,12,167.2,319.4)" />
<use xlink:href="#f1_2f" transform="matrix(12,0,0,12,175.7,319.4)" />
<use xlink:href="#f1_27" transform="matrix(12,0,0,12,191.1,319.4)" />
<use xlink:href="#f1_23" transform="matrix(12,0,0,12,201,319.4)" />
<use xlink:href="#f1_26" transform="matrix(12,0,0,12,206,319.4)" />
<use xlink:href="#f1_2b" transform="matrix(12,0,0,12,214.9,319.4)" />
<use xlink:href="#f1_2a" transform="matrix(12,0,0,12,221.9,319.4)" />
<use xlink:href="#f1_1x" transform="matrix(12,0,0,12,234.9,319.4)" />
<use xlink:href="#f1_26" transform="matrix(12,0,0,12,240.4,319.4)" />
<use xlink:href="#f1_29" transform="matrix(12,0,0,12,249.3,319.4)" />
<use xlink:href="#f1_1w" transform="matrix(12,0,0,12,262.2,319.4)" />
<use xlink:href="#f1_1s" transform="matrix(12,0,0,12,270.2,319.4)" />
<use xlink:href="#f1_1u" transform="matrix(12,0,0,12,279.1,319.4)" />
<use xlink:href="#f1_1z" transform="matrix(12,0,0,12,286.6,319.4)" />
<use xlink:href="#f1_23" transform="matrix(12,0,0,12,302.5,319.4)" />
<use xlink:href="#f1_1w" transform="matrix(12,0,0,12,307.4,319.4)" />
<use xlink:href="#f1_2d" transform="matrix(12,0,0,12,315.4,319.4)" />
<use xlink:href="#f1_1w" transform="matrix(12,0,0,12,324.3,319.4)" />
<use xlink:href="#f1_23" transform="matrix(12,0,0,12,332.3,319.4)" />
<use xlink:href="#f1_26" transform="matrix(12,0,0,12,343.2,319.4)" />
<use xlink:href="#f1_1x" transform="matrix(12,0,0,12,352.1,319.4)" />
<use xlink:href="#f1_20" transform="matrix(12,0,0,12,363.6,319.4)" />
<use xlink:href="#f1_25" transform="matrix(12,0,0,12,368.5,319.4)" />
<use xlink:href="#f1_1v" transform="matrix(12,0,0,12,378.5,319.4)" />
<use xlink:href="#f1_1w" transform="matrix(12,0,0,12,388.4,319.4)" />
<use xlink:href="#f1_27" transform="matrix(12,0,0,12,396.4,319.4)" />
<use xlink:href="#f1_1w" transform="matrix(12,0,0,12,406.8,319.4)" />
<use xlink:href="#f1_25" transform="matrix(12,0,0,12,414.7,319.4)" />
<use xlink:href="#f1_1v" transform="matrix(12,0,0,12,424.7,319.4)" />
<use xlink:href="#f1_1w" transform="matrix(12,0,0,12,434.6,319.4)" />
<use xlink:href="#f1_25" transform="matrix(12,0,0,12,442.6,319.4)" />
<use xlink:href="#f1_2b" transform="matrix(12,0,0,12,452,319.4)" />
<use xlink:href="#f1_2d" transform="matrix(12,0,0,12,464.9,319.4)" />
<use xlink:href="#f1_1s" transform="matrix(12,0,0,12,473.4,319.4)" />
<use xlink:href="#f1_29" transform="matrix(12,0,0,12,482.3,319.4)" />
<use xlink:href="#f1_20" transform="matrix(12,0,0,12,489.3,319.4)" />
<use xlink:href="#f1_1s" transform="matrix(12,0,0,12,494.2,319.4)" />
<use xlink:href="#f1_1t" transform="matrix(12,0,0,12,503.2,319.4)" />
<use xlink:href="#f1_23" transform="matrix(12,0,0,12,513.1,319.4)" />
<use xlink:href="#f1_1w" transform="matrix(12,0,0,12,518.1,319.4)" />
</g>
<g fill="#000000" >
<use xlink:href="#f1_g" transform="matrix(12,0,0,12,542.4,319.4)" />
<use xlink:href="#f1_g" transform="matrix(12,0,0,12,556.5,319.4)" />
<use xlink:href="#f1_g" transform="matrix(12,0,0,12,570.6,319.4)" />
<use xlink:href="#f1_g" transform="matrix(12,0,0,12,584.7,319.4)" />
<use xlink:href="#f1_g" transform="matrix(12,0,0,12,598.8,319.4)" />
<use xlink:href="#f1_g" transform="matrix(12,0,0,12,612.9,319.4)" />
<use xlink:href="#f1_g" transform="matrix(12,0,0,12,627,319.4)" />
<use xlink:href="#f1_g" transform="matrix(12,0,0,12,641.1,319.4)" />
<use xlink:href="#f1_g" transform="matrix(12,0,0,12,655.2,319.4)" />
<use xlink:href="#f1_g" transform="matrix(12,0,0,12,669.3,319.4)" />
<use xlink:href="#f1_g" transform="matrix(12,0,0,12,683.4,319.4)" />
<use xlink:href="#f1_g" transform="matrix(12,0,0,12,697.5,319.4)" />
<use xlink:href="#f1_g" transform="matrix(12,0,0,12,711.6,319.4)" />
<use xlink:href="#f1_g" transform="matrix(12,0,0,12,725.7,319.4)" />
<use xlink:href="#f1_g" transform="matrix(12,0,0,12,739.8,319.4)" />
<use xlink:href="#f1_n" transform="matrix(12,0,0,12,762.1,319.4)" />
<use xlink:href="#f1_o" transform="matrix(12,0,0,12,771,319.4)" />
</g>
<g fill="#0000FF" >
<use xlink:href="#f1_n" transform="matrix(12,0,0,12,113.4,346.8)" />
<use xlink:href="#f1_g" transform="matrix(12,0,0,12,122.4,346.8)" />
<use xlink:href="#f1_l" transform="matrix(12,0,0,12,127.4,346.8)" />
<use xlink:href="#f1_1c" transform="matrix(12,0,0,12,154.6,346.8)" />
<use xlink:href="#f1_29" transform="matrix(12,0,0,12,166.7,346.8)" />
<use xlink:href="#f1_1w" transform="matrix(12,0,0,12,173.7,346.8)" />
<use xlink:href="#f1_1v" transform="matrix(12,0,0,12,181.6,346.8)" />
<use xlink:href="#f1_20" transform="matrix(12,0,0,12,191.6,346.8)" />
<use xlink:href="#f1_1u" transform="matrix(12,0,0,12,196.6,346.8)" />
<use xlink:href="#f1_2b" transform="matrix(12,0,0,12,204.5,346.8)" />
<use xlink:href="#f1_20" transform="matrix(12,0,0,12,211.5,346.8)" />
<use xlink:href="#f1_26" transform="matrix(12,0,0,12,216.4,346.8)" />
<use xlink:href="#f1_25" transform="matrix(12,0,0,12,225.4,346.8)" />
<use xlink:href="#f1_1w" transform="matrix(12,0,0,12,241.3,346.8)" />
<use xlink:href="#f1_29" transform="matrix(12,0,0,12,249.2,346.8)" />
<use xlink:href="#f1_29" transform="matrix(12,0,0,12,256.2,346.8)" />
<use xlink:href="#f1_26" transform="matrix(12,0,0,12,263.1,346.8)" />
<use xlink:href="#f1_29" transform="matrix(12,0,0,12,272.1,346.8)" />
<use xlink:href="#f1_b" transform="matrix(12,0,0,12,285,346.8)" />
<use xlink:href="#f1_1f" transform="matrix(12,0,0,12,291.9,346.8)" />
<use xlink:href="#f1_19" transform="matrix(12,0,0,12,301.9,346.8)" />
<use xlink:href="#f1_1f" transform="matrix(12,0,0,12,318.2,346.8)" />
<use xlink:href="#f1_11" transform="matrix(12,0,0,12,328.2,346.8)" />
<use xlink:href="#f1_c" transform="matrix(12,0,0,12,340.4,346.8)" />
<use xlink:href="#f1_2c" transform="matrix(12,0,0,12,353.3,346.8)" />
<use xlink:href="#f1_2a" transform="matrix(12,0,0,12,363.2,346.8)" />
<use xlink:href="#f1_20" transform="matrix(12,0,0,12,370.3,346.8)" />
<use xlink:href="#f1_25" transform="matrix(12,0,0,12,375.2,346.8)" />
<use xlink:href="#f1_1y" transform="matrix(12,0,0,12,385.2,346.8)" />
<use xlink:href="#f1_14" transform="matrix(12,0,0,12,400.1,346.8)" />
<use xlink:href="#f1_2g" transform="matrix(12,0,0,12,413.5,346.8)" />
<use xlink:href="#f1_1t" transform="matrix(12,0,0,12,422.9,346.8)" />
<use xlink:href="#f1_29" transform="matrix(12,0,0,12,432.9,346.8)" />
<use xlink:href="#f1_20" transform="matrix(12,0,0,12,439.8,346.8)" />
<use xlink:href="#f1_1v" transform="matrix(12,0,0,12,444.8,346.8)" />
<use xlink:href="#f1_1f" transform="matrix(12,0,0,12,460.7,346.8)" />
<use xlink:href="#f1_26" transform="matrix(12,0,0,12,470.6,346.8)" />
<use xlink:href="#f1_10" transform="matrix(12,0,0,12,479.5,346.8)" />
<use xlink:href="#f1_24" transform="matrix(12,0,0,12,499.2,346.8)" />
<use xlink:href="#f1_26" transform="matrix(12,0,0,12,514.1,346.8)" />
<use xlink:href="#f1_1v" transform="matrix(12,0,0,12,523.5,346.8)" />
<use xlink:href="#f1_1w" transform="matrix(12,0,0,12,533.5,346.8)" />
<use xlink:href="#f1_23" transform="matrix(12,0,0,12,541.4,346.8)" />
<use xlink:href="#f1_1w" transform="matrix(12,0,0,12,552.3,346.8)" />
<use xlink:href="#f1_2d" transform="matrix(12,0,0,12,560.3,346.8)" />
<use xlink:href="#f1_1s" transform="matrix(12,0,0,12,568.7,346.8)" />
<use xlink:href="#f1_23" transform="matrix(12,0,0,12,577.7,346.8)" />
<use xlink:href="#f1_2c" transform="matrix(12,0,0,12,582.6,346.8)" />
<use xlink:href="#f1_1s" transform="matrix(12,0,0,12,592.6,346.8)" />
<use xlink:href="#f1_2b" transform="matrix(12,0,0,12,601.5,346.8)" />
<use xlink:href="#f1_20" transform="matrix(12,0,0,12,608.5,346.8)" />
<use xlink:href="#f1_26" transform="matrix(12,0,0,12,613.4,346.8)" />
<use xlink:href="#f1_25" transform="matrix(12,0,0,12,622.4,346.8)" />
<use xlink:href="#f1_24" transform="matrix(12,0,0,12,638.3,346.8)" />
<use xlink:href="#f1_1w" transform="matrix(12,0,0,12,653.2,346.8)" />
<use xlink:href="#f1_2b" transform="matrix(12,0,0,12,661.1,346.8)" />
<use xlink:href="#f1_1z" transform="matrix(12,0,0,12,668.1,346.8)" />
<use xlink:href="#f1_26" transform="matrix(12,0,0,12,678,346.8)" />
<use xlink:href="#f1_1v" transform="matrix(12,0,0,12,687.5,346.8)" />
</g>
<g fill="#000000" >
<use xlink:href="#f1_g" transform="matrix(12,0,0,12,711.6,346.8)" />
<use xlink:href="#f1_g" transform="matrix(12,0,0,12,725.7,346.8)" />
<use xlink:href="#f1_g" transform="matrix(12,0,0,12,739.8,346.8)" />
<use xlink:href="#f1_n" transform="matrix(12,0,0,12,762.5,346.8)" />
<use xlink:href="#f1_p" transform="matrix(12,0,0,12,771.5,346.8)" />
</g>
<g fill="#0000FF" >
<use xlink:href="#f1_n" transform="matrix(12,0,0,12,113.4,374.2)" />
<use xlink:href="#f1_g" transform="matrix(12,0,0,12,122.4,374.2)" />
<use xlink:href="#f1_m" transform="matrix(12,0,0,12,127.4,374.2)" />
<use xlink:href="#f1_1c" transform="matrix(12,0,0,12,154.6,374.2)" />
<use xlink:href="#f1_29" transform="matrix(12,0,0,12,166.7,374.2)" />
<use xlink:href="#f1_1w" transform="matrix(12,0,0,12,173.7,374.2)" />
<use xlink:href="#f1_1v" transform="matrix(12,0,0,12,181.6,374.2)" />
<use xlink:href="#f1_20" transform="matrix(12,0,0,12,191.6,374.2)" />
<use xlink:href="#f1_1u" transform="matrix(12,0,0,12,196.6,374.2)" />
<use xlink:href="#f1_2b" transform="matrix(12,0,0,12,204.5,374.2)" />
<use xlink:href="#f1_20" transform="matrix(12,0,0,12,211.5,374.2)" />
<use xlink:href="#f1_26" transform="matrix(12,0,0,12,216.4,374.2)" />
<use xlink:href="#f1_25" transform="matrix(12,0,0,12,225.4,374.2)" />
<use xlink:href="#f1_1w" transform="matrix(12,0,0,12,241.3,374.2)" />
<use xlink:href="#f1_29" transform="matrix(12,0,0,12,249.2,374.2)" />
<use xlink:href="#f1_29" transform="matrix(12,0,0,12,256.2,374.2)" />
<use xlink:href="#f1_26" transform="matrix(12,0,0,12,263.1,374.2)" />
<use xlink:href="#f1_29" transform="matrix(12,0,0,12,272.1,374.2)" />
<use xlink:href="#f1_b" transform="matrix(12,0,0,12,285,374.2)" />
<use xlink:href="#f1_1f" transform="matrix(12,0,0,12,291.9,374.2)" />
<use xlink:href="#f1_19" transform="matrix(12,0,0,12,301.9,374.2)" />
<use xlink:href="#f1_1f" transform="matrix(12,0,0,12,318.2,374.2)" />
<use xlink:href="#f1_11" transform="matrix(12,0,0,12,328.2,374.2)" />
<use xlink:href="#f1_c" transform="matrix(12,0,0,12,340.4,374.2)" />
<use xlink:href="#f1_2c" transform="matrix(12,0,0,12,353.3,374.2)" />
<use xlink:href="#f1_2a" transform="matrix(12,0,0,12,363.2,374.2)" />
<use xlink:href="#f1_20" transform="matrix(12,0,0,12,370.3,374.2)" />
<use xlink:href="#f1_25" transform="matrix(12,0,0,12,375.2,374.2)" />
<use xlink:href="#f1_1y" transform="matrix(12,0,0,12,385.2,374.2)" />
<use xlink:href="#f1_z" transform="matrix(12,0,0,12,400.1,374.2)" />
<use xlink:href="#f1_1i" transform="matrix(12,0,0,12,413,374.2)" />
<use xlink:href="#f1_1f" transform="matrix(12,0,0,12,432.3,374.2)" />
<use xlink:href="#f1_26" transform="matrix(12,0,0,12,442.3,374.2)" />
<use xlink:href="#f1_10" transform="matrix(12,0,0,12,451.2,374.2)" />
<use xlink:href="#f1_24" transform="matrix(12,0,0,12,470.9,374.2)" />
<use xlink:href="#f1_26" transform="matrix(12,0,0,12,485.8,374.2)" />
<use xlink:href="#f1_1v" transform="matrix(12,0,0,12,495.2,374.2)" />
<use xlink:href="#f1_1w" transform="matrix(12,0,0,12,505.1,374.2)" />
<use xlink:href="#f1_23" transform="matrix(12,0,0,12,513.1,374.2)" />
<use xlink:href="#f1_1w" transform="matrix(12,0,0,12,524,374.2)" />
<use xlink:href="#f1_2d" transform="matrix(12,0,0,12,532,374.2)" />
<use xlink:href="#f1_1s" transform="matrix(12,0,0,12,540.4,374.2)" />
<use xlink:href="#f1_23" transform="matrix(12,0,0,12,549.4,374.2)" />
<use xlink:href="#f1_2c" transform="matrix(12,0,0,12,554.3,374.2)" />
<use xlink:href="#f1_1s" transform="matrix(12,0,0,12,564.3,374.2)" />
<use xlink:href="#f1_2b" transform="matrix(12,0,0,12,573.2,374.2)" />
<use xlink:href="#f1_20" transform="matrix(12,0,0,12,580.2,374.2)" />
<use xlink:href="#f1_26" transform="matrix(12,0,0,12,585.1,374.2)" />
<use xlink:href="#f1_25" transform="matrix(12,0,0,12,594.1,374.2)" />
<use xlink:href="#f1_24" transform="matrix(12,0,0,12,610,374.2)" />
<use xlink:href="#f1_1w" transform="matrix(12,0,0,12,624.9,374.2)" />
<use xlink:href="#f1_2b" transform="matrix(12,0,0,12,632.8,374.2)" />
<use xlink:href="#f1_1z" transform="matrix(12,0,0,12,639.8,374.2)" />
<use xlink:href="#f1_26" transform="matrix(12,0,0,12,649.7,374.2)" />
<use xlink:href="#f1_1v" transform="matrix(12,0,0,12,659.1,374.2)" />
</g>
<g fill="#000000" >
<use xlink:href="#f1_g" transform="matrix(12,0,0,12,683.4,374.2)" />
<use xlink:href="#f1_g" transform="matrix(12,0,0,12,697.5,374.2)" />
<use xlink:href="#f1_g" transform="matrix(12,0,0,12,711.6,374.2)" />
<use xlink:href="#f1_g" transform="matrix(12,0,0,12,725.7,374.2)" />
<use xlink:href="#f1_g" transform="matrix(12,0,0,12,739.8,374.2)" />
<use xlink:href="#f1_n" transform="matrix(12,0,0,12,762.1,374.2)" />
<use xlink:href="#f1_q" transform="matrix(12,0,0,12,771,374.2)" />
</g>
<g fill="#0000FF" >
<use xlink:href="#f1_n" transform="matrix(12,0,0,12,113.4,401.5)" />
<use xlink:href="#f1_g" transform="matrix(12,0,0,12,122.4,401.5)" />
<use xlink:href="#f1_n" transform="matrix(12,0,0,12,127.4,401.5)" />
<use xlink:href="#f1_15" transform="matrix(12,0,0,12,154.6,401.5)" />
<use xlink:href="#f1_25" transform="matrix(12,0,0,12,161,401.5)" />
<use xlink:href="#f1_2b" transform="matrix(12,0,0,12,170.5,401.5)" />
<use xlink:href="#f1_1w" transform="matrix(12,0,0,12,177.4,401.5)" />
<use xlink:href="#f1_29" transform="matrix(12,0,0,12,185.4,401.5)" />
<use xlink:href="#f1_1s" transform="matrix(12,0,0,12,192.3,401.5)" />
<use xlink:href="#f1_1u" transform="matrix(12,0,0,12,201.3,401.5)" />
<use xlink:href="#f1_2b" transform="matrix(12,0,0,12,209.2,401.5)" />
<use xlink:href="#f1_20" transform="matrix(12,0,0,12,216.2,401.5)" />
<use xlink:href="#f1_26" transform="matrix(12,0,0,12,221.1,401.5)" />
<use xlink:href="#f1_25" transform="matrix(12,0,0,12,230.1,401.5)" />
<use xlink:href="#f1_27" transform="matrix(12,0,0,12,246,401.5)" />
<use xlink:href="#f1_23" transform="matrix(12,0,0,12,255.9,401.5)" />
<use xlink:href="#f1_26" transform="matrix(12,0,0,12,260.9,401.5)" />
<use xlink:href="#f1_2b" transform="matrix(12,0,0,12,269.8,401.5)" />
<use xlink:href="#f1_2a" transform="matrix(12,0,0,12,276.8,401.5)" />
<use xlink:href="#f1_26" transform="matrix(12,0,0,12,289.8,401.5)" />
<use xlink:href="#f1_1x" transform="matrix(12,0,0,12,298.7,401.5)" />
<use xlink:href="#f1_2a" transform="matrix(12,0,0,12,310.2,401.5)" />
<use xlink:href="#f1_1w" transform="matrix(12,0,0,12,317.2,401.5)" />
<use xlink:href="#f1_1s" transform="matrix(12,0,0,12,325.2,401.5)" />
<use xlink:href="#f1_29" transform="matrix(12,0,0,12,334.1,401.5)" />
<use xlink:href="#f1_1u" transform="matrix(12,0,0,12,341.1,401.5)" />
<use xlink:href="#f1_1z" transform="matrix(12,0,0,12,348.5,401.5)" />
<use xlink:href="#f1_2d" transform="matrix(12,0,0,12,364.4,401.5)" />
<use xlink:href="#f1_1w" transform="matrix(12,0,0,12,373.3,401.5)" />
<use xlink:href="#f1_29" transform="matrix(12,0,0,12,381.3,401.5)" />
<use xlink:href="#f1_2a" transform="matrix(12,0,0,12,388.2,401.5)" />
<use xlink:href="#f1_2c" transform="matrix(12,0,0,12,395.3,401.5)" />
<use xlink:href="#f1_2a" transform="matrix(12,0,0,12,405.2,401.5)" />
<use xlink:href="#f1_1u" transform="matrix(12,0,0,12,418.3,401.5)" />
<use xlink:href="#f1_29" transform="matrix(12,0,0,12,426.2,401.5)" />
<use xlink:href="#f1_20" transform="matrix(12,0,0,12,433.2,401.5)" />
<use xlink:href="#f1_2b" transform="matrix(12,0,0,12,438.1,401.5)" />
<use xlink:href="#f1_1w" transform="matrix(12,0,0,12,445.1,401.5)" />
<use xlink:href="#f1_29" transform="matrix(12,0,0,12,453,401.5)" />
<use xlink:href="#f1_20" transform="matrix(12,0,0,12,460,401.5)" />
<use xlink:href="#f1_26" transform="matrix(12,0,0,12,465,401.5)" />
<use xlink:href="#f1_25" transform="matrix(12,0,0,12,473.9,401.5)" />
<use xlink:href="#f1_2d" transform="matrix(12,0,0,12,489.8,401.5)" />
<use xlink:href="#f1_1w" transform="matrix(12,0,0,12,498.7,401.5)" />
<use xlink:href="#f1_29" transform="matrix(12,0,0,12,506.7,401.5)" />
<use xlink:href="#f1_2a" transform="matrix(12,0,0,12,513.6,401.5)" />
<use xlink:href="#f1_2c" transform="matrix(12,0,0,12,520.7,401.5)" />
<use xlink:href="#f1_2a" transform="matrix(12,0,0,12,530.6,401.5)" />
<use xlink:href="#f1_1w" transform="matrix(12,0,0,12,543.6,401.5)" />
<use xlink:href="#f1_2d" transform="matrix(12,0,0,12,551.6,401.5)" />
<use xlink:href="#f1_1s" transform="matrix(12,0,0,12,560,401.5)" />
<use xlink:href="#f1_23" transform="matrix(12,0,0,12,569,401.5)" />
<use xlink:href="#f1_2c" transform="matrix(12,0,0,12,574,401.5)" />
<use xlink:href="#f1_1s" transform="matrix(12,0,0,12,583.9,401.5)" />
<use xlink:href="#f1_2b" transform="matrix(12,0,0,12,592.8,401.5)" />
<use xlink:href="#f1_20" transform="matrix(12,0,0,12,599.8,401.5)" />
<use xlink:href="#f1_26" transform="matrix(12,0,0,12,604.8,401.5)" />
<use xlink:href="#f1_25" transform="matrix(12,0,0,12,613.7,401.5)" />
<use xlink:href="#f1_1x" transform="matrix(12,0,0,12,629.6,401.5)" />
<use xlink:href="#f1_1s" transform="matrix(12,0,0,12,635.1,401.5)" />
<use xlink:href="#f1_1u" transform="matrix(12,0,0,12,644,401.5)" />
<use xlink:href="#f1_2b" transform="matrix(12,0,0,12,651.9,401.5)" />
<use xlink:href="#f1_26" transform="matrix(12,0,0,12,658.9,401.5)" />
<use xlink:href="#f1_29" transform="matrix(12,0,0,12,667.8,401.5)" />
<use xlink:href="#f1_2a" transform="matrix(12,0,0,12,674.8,401.5)" />
</g>
<g fill="#000000" >
<use xlink:href="#f1_g" transform="matrix(12,0,0,12,697.5,401.5)" />
<use xlink:href="#f1_g" transform="matrix(12,0,0,12,711.6,401.5)" />
<use xlink:href="#f1_g" transform="matrix(12,0,0,12,725.7,401.5)" />
<use xlink:href="#f1_g" transform="matrix(12,0,0,12,739.8,401.5)" />
<use xlink:href="#f1_n" transform="matrix(12,0,0,12,762.1,401.5)" />
<use xlink:href="#f1_r" transform="matrix(12,0,0,12,771,401.5)" />
</g>
<g fill="#0000FF" >
<use xlink:href="#f1_n" transform="matrix(12,0,0,12,113.4,428.9)" />
<use xlink:href="#f1_g" transform="matrix(12,0,0,12,122.4,428.9)" />
<use xlink:href="#f1_o" transform="matrix(12,0,0,12,127.4,428.9)" />
<use xlink:href="#f1_1c" transform="matrix(12.1,0,0,12,154.6,428.9)" />
<use xlink:href="#f1_29" transform="matrix(12.1,0,0,12,166.9,428.9)" />
<use xlink:href="#f1_1w" transform="matrix(12.1,0,0,12,173.9,428.9)" />
<use xlink:href="#f1_1v" transform="matrix(12.1,0,0,12,181.9,428.9)" />
<use xlink:href="#f1_20" transform="matrix(12.1,0,0,12,192,428.9)" />
<use xlink:href="#f1_1u" transform="matrix(12.1,0,0,12,197,428.9)" />
<use xlink:href="#f1_2b" transform="matrix(12.1,0,0,12,205,428.9)" />
<use xlink:href="#f1_20" transform="matrix(12.1,0,0,12,212.1,428.9)" />
<use xlink:href="#f1_26" transform="matrix(12.1,0,0,12,217.1,428.9)" />
<use xlink:href="#f1_25" transform="matrix(12.1,0,0,12,226.1,428.9)" />
<use xlink:href="#f1_1w" transform="matrix(12.1,0,0,12,242.2,428.9)" />
<use xlink:href="#f1_29" transform="matrix(12.1,0,0,12,250.2,428.9)" />
<use xlink:href="#f1_29" transform="matrix(12.1,0,0,12,257.2,428.9)" />
<use xlink:href="#f1_26" transform="matrix(12.1,0,0,12,264.2,428.9)" />
<use xlink:href="#f1_29" transform="matrix(12.1,0,0,12,273.3,428.9)" />
<use xlink:href="#f1_b" transform="matrix(12.1,0,0,12,286.3,428.9)" />
<use xlink:href="#f1_1f" transform="matrix(12.1,0,0,12,293.3,428.9)" />
<use xlink:href="#f1_19" transform="matrix(12.1,0,0,12,303.3,428.9)" />
<use xlink:href="#f1_1f" transform="matrix(12.1,0,0,12,319.9,428.9)" />
<use xlink:href="#f1_11" transform="matrix(12.1,0,0,12,330,428.9)" />
<use xlink:href="#f1_c" transform="matrix(12.1,0,0,12,342.3,428.9)" />
<use xlink:href="#f1_26" transform="matrix(12.1,0,0,12,355.3,428.9)" />
<use xlink:href="#f1_1x" transform="matrix(12.1,0,0,12,364.3,428.9)" />
<use xlink:href="#f1_24" transform="matrix(12.1,0,0,12,375.8,428.9)" />
<use xlink:href="#f1_26" transform="matrix(12.1,0,0,12,390.9,428.9)" />
<use xlink:href="#f1_1v" transform="matrix(12.1,0,0,12,400.4,428.9)" />
<use xlink:href="#f1_1w" transform="matrix(12.1,0,0,12,410.4,428.9)" />
<use xlink:href="#f1_23" transform="matrix(12.1,0,0,12,418.5,428.9)" />
<use xlink:href="#f1_2a" transform="matrix(12.1,0,0,12,423.5,428.9)" />
<use xlink:href="#f1_1u" transform="matrix(12.1,0,0,12,436.6,428.9)" />
<use xlink:href="#f1_26" transform="matrix(12.1,0,0,12,444.6,428.9)" />
<use xlink:href="#f1_25" transform="matrix(12.1,0,0,12,453.7,428.9)" />
<use xlink:href="#f1_2a" transform="matrix(12.1,0,0,12,463.7,428.9)" />
<use xlink:href="#f1_2b" transform="matrix(12.1,0,0,12,470.8,428.9)" />
<use xlink:href="#f1_29" transform="matrix(12.1,0,0,12,477.9,428.9)" />
<use xlink:href="#f1_2c" transform="matrix(12.1,0,0,12,484.9,428.9)" />
<use xlink:href="#f1_1u" transform="matrix(12.1,0,0,12,494.9,428.9)" />
<use xlink:href="#f1_2b" transform="matrix(12.1,0,0,12,503,428.9)" />
<use xlink:href="#f1_1w" transform="matrix(12.1,0,0,12,510,428.9)" />
<use xlink:href="#f1_1v" transform="matrix(12.1,0,0,12,518,428.9)" />
<use xlink:href="#f1_2c" transform="matrix(12.1,0,0,12,534.1,428.9)" />
<use xlink:href="#f1_2a" transform="matrix(12.1,0,0,12,544.1,428.9)" />
<use xlink:href="#f1_20" transform="matrix(12.1,0,0,12,551.2,428.9)" />
<use xlink:href="#f1_25" transform="matrix(12.1,0,0,12,556.3,428.9)" />
<use xlink:href="#f1_1y" transform="matrix(12.1,0,0,12,566.3,428.9)" />
<use xlink:href="#f1_1x" transform="matrix(12.1,0,0,12,581.3,428.9)" />
<use xlink:href="#f1_26" transform="matrix(12.1,0,0,12,586.8,428.9)" />
<use xlink:href="#f1_2c" transform="matrix(12.1,0,0,12,595.9,428.9)" />
<use xlink:href="#f1_29" transform="matrix(12.1,0,0,12,605.9,428.9)" />
<use xlink:href="#f1_1t" transform="matrix(12.1,0,0,12,618.9,428.9)" />
<use xlink:href="#f1_1s" transform="matrix(12.1,0,0,12,628.9,428.9)" />
<use xlink:href="#f1_2a" transform="matrix(12.1,0,0,12,638,428.9)" />
<use xlink:href="#f1_1w" transform="matrix(12.1,0,0,12,645.1,428.9)" />
<use xlink:href="#f1_22" transform="matrix(12.1,0,0,12,659.1,428.9)" />
<use xlink:href="#f1_1w" transform="matrix(12.1,0,0,12,668.2,428.9)" />
<use xlink:href="#f1_29" transform="matrix(12.1,0,0,12,676.2,428.9)" />
<use xlink:href="#f1_25" transform="matrix(12.1,0,0,12,683.2,428.9)" />
<use xlink:href="#f1_1w" transform="matrix(12.1,0,0,12,693.3,428.9)" />
<use xlink:href="#f1_23" transform="matrix(12.1,0,0,12,701.3,428.9)" />
<use xlink:href="#f1_2a" transform="matrix(12.1,0,0,12,706.3,428.9)" />
<use xlink:href="#f1_2j" transform="matrix(12.1,0,0,12,719.4,428.9)" />
<use xlink:href="#f2_g" transform="matrix(12,0,0,12,154.6,456.3)" />
<use xlink:href="#f2_4" transform="matrix(12,0,0,12,165.7,456.3)" />
<use xlink:href="#f1_e" transform="matrix(12.2,0,0,12,179.3,456.3)" />
<use xlink:href="#f2_e" transform="matrix(12,0,0,12,191.1,456.3)" />
<use xlink:href="#f2_o" transform="matrix(12,0,0,12,204.7,456.3)" />
<use xlink:href="#f2_10" transform="matrix(12,0,0,12,214.8,456.3)" />
<use xlink:href="#f1_e" transform="matrix(12.2,0,0,12,225.8,456.3)" />
<use xlink:href="#f2_a" transform="matrix(12,0,0,12,237.7,456.3)" />
<use xlink:href="#f2_s" transform="matrix(12,0,0,12,250.1,456.3)" />
<use xlink:href="#f2_w" transform="matrix(12,0,0,12,255.7,456.3)" />
<use xlink:href="#f1_1s" transform="matrix(12.2,0,0,12,273.5,456.3)" />
<use xlink:href="#f1_25" transform="matrix(12.2,0,0,12,282.6,456.3)" />
<use xlink:href="#f1_1v" transform="matrix(12.2,0,0,12,292.7,456.3)" />
<use xlink:href="#f2_2" transform="matrix(12,0,0,12,309.5,456.3)" />
<use xlink:href="#f1_e" transform="matrix(12.2,0,0,12,323.8,456.3)" />
<use xlink:href="#f1_20" transform="matrix(12.2,0,0,12,335.6,456.3)" />
<use xlink:href="#f1_25" transform="matrix(12.2,0,0,12,340.7,456.3)" />
<use xlink:href="#f1_1s" transform="matrix(12.2,0,0,12,357.4,456.3)" />
<use xlink:href="#f1_1y" transform="matrix(12.2,0,0,12,373.2,456.3)" />
<use xlink:href="#f1_29" transform="matrix(12.2,0,0,12,382.3,456.3)" />
<use xlink:href="#f1_1w" transform="matrix(12.2,0,0,12,389.4,456.3)" />
<use xlink:href="#f1_1w" transform="matrix(12.2,0,0,12,397.5,456.3)" />
<use xlink:href="#f1_1v" transform="matrix(12.2,0,0,12,405.6,456.3)" />
<use xlink:href="#f1_2g" transform="matrix(12.2,0,0,12,415.7,456.3)" />
<use xlink:href="#f1_2a" transform="matrix(12.2,0,0,12,431.9,456.3)" />
<use xlink:href="#f1_1w" transform="matrix(12.2,0,0,12,439.1,456.3)" />
<use xlink:href="#f1_1s" transform="matrix(12.2,0,0,12,447.3,456.3)" />
<use xlink:href="#f1_29" transform="matrix(12.2,0,0,12,456.4,456.3)" />
<use xlink:href="#f1_1u" transform="matrix(12.2,0,0,12,463.5,456.3)" />
<use xlink:href="#f1_1z" transform="matrix(12.2,0,0,12,471.1,456.3)" />
<use xlink:href="#f1_2a" transform="matrix(12.2,0,0,12,487.8,456.3)" />
<use xlink:href="#f1_2b" transform="matrix(12.2,0,0,12,495,456.3)" />
<use xlink:href="#f1_29" transform="matrix(12.2,0,0,12,502.1,456.3)" />
<use xlink:href="#f1_1s" transform="matrix(12.2,0,0,12,509.2,456.3)" />
<use xlink:href="#f1_2b" transform="matrix(12.2,0,0,12,518.3,456.3)" />
<use xlink:href="#f1_1w" transform="matrix(12.2,0,0,12,525.4,456.3)" />
<use xlink:href="#f1_1y" transform="matrix(12.2,0,0,12,533.5,456.3)" />
<use xlink:href="#f1_2g" transform="matrix(12.2,0,0,12,542.6,456.3)" />
<use xlink:href="#f1_1s" transform="matrix(12.2,0,0,12,558.9,456.3)" />
<use xlink:href="#f1_25" transform="matrix(12.2,0,0,12,568,456.3)" />
<use xlink:href="#f1_1v" transform="matrix(12.2,0,0,12,578.1,456.3)" />
<use xlink:href="#f1_2a" transform="matrix(12.2,0,0,12,594.9,456.3)" />
<use xlink:href="#f1_1w" transform="matrix(12.2,0,0,12,602.1,456.3)" />
<use xlink:href="#f1_23" transform="matrix(12.2,0,0,12,610.2,456.3)" />
<use xlink:href="#f1_1w" transform="matrix(12.2,0,0,12,615.2,456.3)" />
<use xlink:href="#f1_1u" transform="matrix(12.2,0,0,12,623.3,456.3)" />
<use xlink:href="#f1_2b" transform="matrix(12.2,0,0,12,631.4,456.3)" />
<use xlink:href="#f1_1w" transform="matrix(12.2,0,0,12,638.5,456.3)" />
<use xlink:href="#f1_1v" transform="matrix(12.2,0,0,12,646.6,456.3)" />
<use xlink:href="#f1_1t" transform="matrix(12.2,0,0,12,663.4,456.3)" />
<use xlink:href="#f1_1s" transform="matrix(12.2,0,0,12,673.5,456.3)" />
<use xlink:href="#f1_2a" transform="matrix(12.2,0,0,12,682.6,456.3)" />
<use xlink:href="#f1_1w" transform="matrix(12.2,0,0,12,689.8,456.3)" />
<use xlink:href="#f1_1v" transform="matrix(12.2,0,0,12,697.9,456.3)" />
<use xlink:href="#f1_26" transform="matrix(12.2,0,0,12,714.7,456.3)" />
<use xlink:href="#f1_25" transform="matrix(12.2,0,0,12,723.8,456.3)" />
<use xlink:href="#f1_1z" transform="matrix(12,0,0,12,154.6,483.7)" />
<use xlink:href="#f1_20" transform="matrix(12,0,0,12,164.5,483.7)" />
<use xlink:href="#f1_1y" transform="matrix(12,0,0,12,169.5,483.7)" />
<use xlink:href="#f1_1z" transform="matrix(12,0,0,12,178.4,483.7)" />
<use xlink:href="#f1_1w" transform="matrix(12,0,0,12,188.4,483.7)" />
<use xlink:href="#f1_2a" transform="matrix(12,0,0,12,196.3,483.7)" />
<use xlink:href="#f1_2b" transform="matrix(12,0,0,12,203.4,483.7)" />
<use xlink:href="#f1_y" transform="matrix(12,0,0,12,216.3,483.7)" />
<use xlink:href="#f1_15" transform="matrix(12,0,0,12,228.9,483.7)" />
<use xlink:href="#f1_z" transform="matrix(12,0,0,12,235.4,483.7)" />
<use xlink:href="#f1_24" transform="matrix(12,0,0,12,254.3,483.7)" />
<use xlink:href="#f1_26" transform="matrix(12,0,0,12,269.2,483.7)" />
<use xlink:href="#f1_1v" transform="matrix(12,0,0,12,278.6,483.7)" />
<use xlink:href="#f1_1w" transform="matrix(12,0,0,12,288.6,483.7)" />
<use xlink:href="#f1_23" transform="matrix(12,0,0,12,296.5,483.7)" />
<use xlink:href="#f1_2a" transform="matrix(12,0,0,12,307.4,483.7)" />
<use xlink:href="#f1_1u" transform="matrix(12,0,0,12,314.5,483.7)" />
<use xlink:href="#f1_26" transform="matrix(12,0,0,12,322.4,483.7)" />
<use xlink:href="#f1_29" transform="matrix(12,0,0,12,331.4,483.7)" />
<use xlink:href="#f1_1w" transform="matrix(12,0,0,12,338.3,483.7)" />
</g>
<g fill="#000000" >
<use xlink:href="#f1_g" transform="matrix(12,0,0,12,359.1,483.7)" />
<use xlink:href="#f1_g" transform="matrix(12,0,0,12,373.2,483.7)" />
<use xlink:href="#f1_g" transform="matrix(12,0,0,12,387.3,483.7)" />
<use xlink:href="#f1_g" transform="matrix(12,0,0,12,401.4,483.7)" />
<use xlink:href="#f1_g" transform="matrix(12,0,0,12,415.5,483.7)" />
<use xlink:href="#f1_g" transform="matrix(12,0,0,12,429.6,483.7)" />
<use xlink:href="#f1_g" transform="matrix(12,0,0,12,443.7,483.7)" />
<use xlink:href="#f1_g" transform="matrix(12,0,0,12,457.8,483.7)" />
<use xlink:href="#f1_g" transform="matrix(12,0,0,12,471.9,483.7)" />
<use xlink:href="#f1_g" transform="matrix(12,0,0,12,486,483.7)" />
<use xlink:href="#f1_g" transform="matrix(12,0,0,12,500.1,483.7)" />
<use xlink:href="#f1_g" transform="matrix(12,0,0,12,514.2,483.7)" />
<use xlink:href="#f1_g" transform="matrix(12,0,0,12,528.3,483.7)" />
<use xlink:href="#f1_g" transform="matrix(12,0,0,12,542.4,483.7)" />
<use xlink:href="#f1_g" transform="matrix(12,0,0,12,556.5,483.7)" />
<use xlink:href="#f1_g" transform="matrix(12,0,0,12,570.6,483.7)" />
<use xlink:href="#f1_g" transform="matrix(12,0,0,12,584.7,483.7)" />
<use xlink:href="#f1_g" transform="matrix(12,0,0,12,598.8,483.7)" />
<use xlink:href="#f1_g" transform="matrix(12,0,0,12,612.9,483.7)" />
<use xlink:href="#f1_g" transform="matrix(12,0,0,12,627,483.7)" />
<use xlink:href="#f1_g" transform="matrix(12,0,0,12,641.1,483.7)" />
<use xlink:href="#f1_g" transform="matrix(12,0,0,12,655.2,483.7)" />
<use xlink:href="#f1_g" transform="matrix(12,0,0,12,669.3,483.7)" />
<use xlink:href="#f1_g" transform="matrix(12,0,0,12,683.4,483.7)" />
<use xlink:href="#f1_g" transform="matrix(12,0,0,12,697.5,483.7)" />
<use xlink:href="#f1_g" transform="matrix(12,0,0,12,711.6,483.7)" />
<use xlink:href="#f1_g" transform="matrix(12,0,0,12,725.7,483.7)" />
<use xlink:href="#f1_g" transform="matrix(12,0,0,12,739.8,483.7)" />
<use xlink:href="#f1_o" transform="matrix(12,0,0,12,762.1,483.7)" />
<use xlink:href="#f1_k" transform="matrix(12,0,0,12,771,483.7)" />
</g>
<g fill="#0000FF" >
<use xlink:href="#f1_n" transform="matrix(12,0,0,12,113.4,511.1)" />
<use xlink:href="#f1_g" transform="matrix(12,0,0,12,122.4,511.1)" />
<use xlink:href="#f1_p" transform="matrix(12,0,0,12,127.4,511.1)" />
<use xlink:href="#f1_y" transform="matrix(12,0,0,12,154.6,511.1)" />
<use xlink:href="#f1_26" transform="matrix(12,0,0,12,167.2,511.1)" />
<use xlink:href="#f1_2f" transform="matrix(12,0,0,12,175.7,511.1)" />
<use xlink:href="#f1_27" transform="matrix(12,0,0,12,191.1,511.1)" />
<use xlink:href="#f1_23" transform="matrix(12,0,0,12,201,511.1)" />
<use xlink:href="#f1_26" transform="matrix(12,0,0,12,206,511.1)" />
<use xlink:href="#f1_2b" transform="matrix(12,0,0,12,214.9,511.1)" />
<use xlink:href="#f1_26" transform="matrix(12,0,0,12,227.8,511.1)" />
<use xlink:href="#f1_1x" transform="matrix(12,0,0,12,236.8,511.1)" />
<use xlink:href="#f1_1w" transform="matrix(12,0,0,12,248.2,511.1)" />
<use xlink:href="#f1_1s" transform="matrix(12,0,0,12,256.2,511.1)" />
<use xlink:href="#f1_1u" transform="matrix(12,0,0,12,265.1,511.1)" />
<use xlink:href="#f1_1z" transform="matrix(12,0,0,12,272.5,511.1)" />
<use xlink:href="#f1_24" transform="matrix(12,0,0,12,288.5,511.1)" />
<use xlink:href="#f1_26" transform="matrix(12,0,0,12,303.4,511.1)" />
<use xlink:href="#f1_1v" transform="matrix(12,0,0,12,312.8,511.1)" />
<use xlink:href="#f1_1w" transform="matrix(12,0,0,12,322.7,511.1)" />
<use xlink:href="#f1_23" transform="matrix(12,0,0,12,330.7,511.1)" />
<use xlink:href="#f1_1w" transform="matrix(12,0,0,12,341.6,511.1)" />
<use xlink:href="#f1_2d" transform="matrix(12,0,0,12,349.6,511.1)" />
<use xlink:href="#f1_1s" transform="matrix(12,0,0,12,358,511.1)" />
<use xlink:href="#f1_23" transform="matrix(12,0,0,12,367,511.1)" />
<use xlink:href="#f1_2c" transform="matrix(12,0,0,12,371.9,511.1)" />
<use xlink:href="#f1_1s" transform="matrix(12,0,0,12,381.9,511.1)" />
<use xlink:href="#f1_2b" transform="matrix(12,0,0,12,390.8,511.1)" />
<use xlink:href="#f1_20" transform="matrix(12,0,0,12,397.8,511.1)" />
<use xlink:href="#f1_26" transform="matrix(12,0,0,12,402.7,511.1)" />
<use xlink:href="#f1_25" transform="matrix(12,0,0,12,411.7,511.1)" />
<use xlink:href="#f1_24" transform="matrix(12,0,0,12,427.6,511.1)" />
<use xlink:href="#f1_1w" transform="matrix(12,0,0,12,442.5,511.1)" />
<use xlink:href="#f1_2b" transform="matrix(12,0,0,12,450.4,511.1)" />
<use xlink:href="#f1_1z" transform="matrix(12,0,0,12,457.4,511.1)" />
<use xlink:href="#f1_26" transform="matrix(12,0,0,12,467.3,511.1)" />
<use xlink:href="#f1_1v" transform="matrix(12,0,0,12,476.7,511.1)" />
</g>
<g fill="#000000" >
<use xlink:href="#f1_g" transform="matrix(12,0,0,12,500.1,511.1)" />
<use xlink:href="#f1_g" transform="matrix(12,0,0,12,514.2,511.1)" />
<use xlink:href="#f1_g" transform="matrix(12,0,0,12,528.3,511.1)" />
<use xlink:href="#f1_g" transform="matrix(12,0,0,12,542.4,511.1)" />
<use xlink:href="#f1_g" transform="matrix(12,0,0,12,556.5,511.1)" />
<use xlink:href="#f1_g" transform="matrix(12,0,0,12,570.6,511.1)" />
<use xlink:href="#f1_g" transform="matrix(12,0,0,12,584.7,511.1)" />
<use xlink:href="#f1_g" transform="matrix(12,0,0,12,598.8,511.1)" />
<use xlink:href="#f1_g" transform="matrix(12,0,0,12,612.9,511.1)" />
<use xlink:href="#f1_g" transform="matrix(12,0,0,12,627,511.1)" />
<use xlink:href="#f1_g" transform="matrix(12,0,0,12,641.1,511.1)" />
<use xlink:href="#f1_g" transform="matrix(12,0,0,12,655.2,511.1)" />
<use xlink:href="#f1_g" transform="matrix(12,0,0,12,669.3,511.1)" />
<use xlink:href="#f1_g" transform="matrix(12,0,0,12,683.4,511.1)" />
<use xlink:href="#f1_g" transform="matrix(12,0,0,12,697.5,511.1)" />
<use xlink:href="#f1_g" transform="matrix(12,0,0,12,711.6,511.1)" />
<use xlink:href="#f1_g" transform="matrix(12,0,0,12,725.7,511.1)" />
<use xlink:href="#f1_g" transform="matrix(12,0,0,12,739.8,511.1)" />
<use xlink:href="#f1_o" transform="matrix(12,0,0,12,762.1,511.1)" />
<use xlink:href="#f1_k" transform="matrix(12,0,0,12,771,511.1)" />
</g>
<defs>
	<path d="M27.5,0l0,65.7c126.8,0,137.5,10.7,155.8,32.1L381.9,322.4L143.6,612.6l-108.5,0l42.8,62.7l169.6,0c103.9,0,-41.2,3,139,3l0,-65.7l-64.1,0L473.6,427.8L606.5,577.5c3.1,3.1,10.7,13.8,10.7,16.8c0,10.7,-32.1,18.3,-61.1,18.3l42.8,62.7l161.9,0c3.1,0,-51.9,3,88.6,3l0,-65.7c-126.8,0,-140.5,-12.2,-157.3,-32L514.9,377.4L773.1,65.7l106.9,0L837.2,3.1l-169.6,0C565.3,3.1,710.4,0,528.6,0l0,65.7l64.2,0L423.2,271.9L270.4,99.3C259.7,87.1,259.7,85.6,259.7,84c0,-10.7,32.1,-18.3,61.1,-18.3L278.1,3.1l-155.9,0C119.2,3.1,169.6,0,27.5,0Z" 
	id="f0_1w"
	transform="scale(0.001,-0.001)" />

	<path d="M67.2,0l0,65.7l105.4,0l0,484.3c0,59.6,-10.7,59.6,-100.8,59.6l0,65.7l259.7,12.2l0,-621.8l94.8,0L389.6,3.1l-181.8,0C102.4,3.1,249,0,67.2,0ZM230.7,841.8c-62.6,0,-110,52,-110,110c0,58.1,47.4,110,110,110c59.6,0,110,-47.4,110,-110c0,-62.6,-50.4,-110,-110,-110Z" 
	id="f0_1h"
	transform="scale(0.001,-0.001)" />

	<path d="M58.1,0l0,65.7l161.9,0l0,916.7l-161.9,0l44.3,62.6l311.6,0c136,0,-80.9,3.1,210.9,3.1l0,-65.7l-203.2,0l0,-916.7l163.4,0c275,0,299.5,241.4,310.2,346.8l64.1,0L915.1,0Z" 
	id="f0_w"
	transform="scale(0.001,-0.001)" />

	<path d="M47.4,0l0,65.7l171.1,0l0,916.7l-171.1,0l55,62.6l281.1,0c152.8,0,-64.2,3.1,207.8,3.1l0,-65.7l-171.2,0l0,-916.7l171.2,0L536.3,3.1l-281.2,0C102.4,3.1,319.3,0,47.4,0Z" 
	id="f0_u"
	transform="scale(0.001,-0.001)" />

	<path d="M117.6,-18.2c-22.9,0,-22.9,10.7,-22.9,39.6l0,287.2c0,35.2,0,39.7,32.1,39.7c30.6,0,30.6,-4.5,32.1,-32C171.1,93.2,383.5,47.4,517.9,47.4c171.1,0,203.2,120.7,203.2,186.4c0,77.9,-44.3,120.6,-64.2,140.5C623.3,406.4,605,409.4,452.2,443.1C293.3,478.2,250.6,487.4,171.1,566.8C149.7,588.2,94.7,660,94.7,762.4c0,166.5,116.1,304,334.6,304c148.2,0,224.6,-59.6,262.8,-91.7l65.7,74.9c13.7,15.3,18.3,16.8,29,16.8c22.9,0,22.9,-10.7,22.9,-39.7l0,-287.3c0,-35.1,0,-39.7,-32.1,-39.7c-29,0,-29,1.6,-33.6,33.6c-32.1,200.2,-165,272,-313.2,272c-148.2,0,-198.6,-90.2,-198.6,-168.1c0,-21.4,4.6,-131.4,155.9,-165L597.4,624.9C763.9,586.7,858.6,449.2,858.6,305.6c0,-162,-100.8,-323.8,-339.2,-323.8c-91.6,0,-216.9,19.7,-305.5,90C175.7,33.6,161.9,13.8,145.1,-3C129.9,-16.7,128.3,-18.2,117.6,-18.2Z" 
	id="f0_13"
	transform="scale(0.001,-0.001)" />

	<path d="M265.8,0l0,65.7l230.7,0l0,902.9l-123.7,0c-220,0,-232.2,-129.8,-246,-296.4l-64.2,0l30.6,362.1l1006.8,0l30.6,-362.1l-64.2,0c-13.8,168.1,-26,296.4,-246,296.4l-122.2,0l0,-902.9l230.7,0L806.7,3.1l-261.3,0C388.1,3.1,597.4,0,265.8,0Z" 
	id="f0_14"
	transform="scale(0.001,-0.001)" />

	<path d="M644.7,39.7c119.2,0,203.2,65.7,241.4,117.7c76.4,105.4,93.2,232.2,93.2,383.4c0,152.8,-18.3,247.5,-74.9,336.1c-44.3,68.8,-135.9,134.5,-259.7,134.5c-90.1,0,-200.1,-38.2,-267.3,-145.1C314.7,762.4,310.1,634,310.1,540.8c0,-111.5,7.7,-255.1,81,-366.6C449.2,87.1,545.4,39.7,644.7,39.7Zm0,-57.9c-336.1,0,-550,215.3,-550,537.6c0,322.4,209.3,547,550,547c339.2,0,550,-223.1,550,-547c0,-322.3,-213.9,-537.6,-550,-537.6Z" 
	id="f0_z"
	transform="scale(0.001,-0.001)" />

	<path d="M58.1,0l0,65.7l161.9,0l0,909l-161.9,0l0,65.7l904.4,0l44.3,-362.1l-64.2,0C921.3,863.2,883.1,974.7,640.1,974.7l-218.4,0l0,-421.6l84,0c146.7,0,158.9,67.2,158.9,178.7l64.2,0l0,-423.2l-64.2,0c0,111.5,-12.2,178.8,-158.9,178.8l-84,0l0,-421.7l203.2,0L550,3.1l-273.5,0C102.4,3.1,333.1,0,58.1,0Z" 
	id="f0_r"
	transform="scale(0.001,-0.001)" />

	<path d="M696.7,-18.2c-374.3,0,-602,227.5,-602,542.2c0,320.9,235.3,542.4,600.4,542.4c113.1,0,215.5,-36.7,301,-110l114.6,110c33.6,0,33.6,-4.6,33.6,-39.7l0,-333.1c0,-36.7,0,-39.7,-35.1,-39.7c-18.4,0,-32.1,0,-35.2,13.7c-45.8,268.9,-230.7,333.1,-345.2,333.1c-73.4,0,-226.2,-15.3,-323.9,-129.9C336.1,789.9,310.1,682.9,310.1,525.6c0,-183.4,36.7,-276.6,96.3,-345.3C501.1,68.8,652.4,47.4,739.4,47.4c64.2,0,111.6,15.2,142.1,35.1c61.1,38.2,61.1,81,61.1,113.1l0,155.8l-215.4,0L820.4,414l242.9,0c163.5,0,-48.9,3.1,200.2,3.1l0,-65.7l-119.2,0l0,-311.7C1144.3,15.3,1144.3,0,1126,0c-4.6,0,-91.7,36.7,-143.6,85.6C919.7,4.6,799,-18.2,696.7,-18.2Z" 
	id="f0_s"
	transform="scale(0.001,-0.001)" />

	<path d="M689,-18.2c-307.1,0,-469,167.9,-469,369.6l0,631l-161.9,0l44.3,62.6l273.4,0c163.5,0,-55,3.1,207.8,3.1l0,-65.7l-161.9,0l0,-641.7c0,-88.6,6.1,-293.3,273.4,-293.3c180.3,0,334.6,88.6,334.6,307l0,582.1c0,33.6,-1.5,35.2,-45.8,41.3c-36.7,4.6,-39.7,4.6,-81,4.6l-35.1,0l35.1,62.6l204.7,0c119.2,0,-42.7,3.1,154.3,3.1l0,-65.7l-35.1,0c-27.5,0,-58,-1.6,-85.5,-4.6c-39.8,-6.1,-41.3,-7.7,-41.3,-41.3l0,-586.6C1100,157.4,971.7,-18.2,689,-18.2Z" 
	id="f0_15"
	transform="scale(0.001,-0.001)" />

	<path d="M592.8,550c255.1,0,256.6,132.9,256.6,216.9c0,90.2,-4.5,215.5,-253.6,215.5l-181.8,0L414,550ZM1101.5,-18.2c-33.6,0,-158.9,1.5,-238.3,54.9C785.3,88.6,785.3,151.3,785.3,253.6c0,102.4,0,136,-45.9,187.9c-33.6,39.8,-82.5,58.1,-143.6,58.1l-181.8,0L414,65.7l162,0L531.7,3.1l-270.4,0C102.4,3.1,316.3,0,58.1,0l0,65.7l161.9,0l0,916.7l-161.9,0l0,65.7l563.7,0c282.6,0,443.1,-128.4,443.1,-281.2c0,-82.5,-50.5,-192.5,-256.7,-247.5C973.2,469,983.9,356,993.1,275C1005.3,134.4,1016,32.1,1113.8,32.1c42.7,0,90.1,32.1,97.7,108.5c1.6,19.8,3.1,30.5,32.1,30.5c19.9,0,32.1,-4.6,32.1,-30.5c0,-21.4,-18.3,-158.8,-174.2,-158.8Z" 
	id="f0_12"
	transform="scale(0.001,-0.001)" />

	<path d="M58.1,0l0,65.7l161.9,0l0,909l-161.9,0l0,65.7l928.8,0l44.4,-362.1l-64.2,0C944.2,875.4,893.8,974.7,660,974.7l-238.3,0l0,-401.8l90.1,0c146.7,0,162,64.2,162,178.8l64.1,0l0,-423.2l-64.1,0c0,116.1,-15.3,178.7,-162,178.7l-90.1,0l0,-441.5l238.3,0c265.8,0,322.4,119.2,354.4,346.8l64.2,0L1012.9,0Z" 
	id="f0_q"
	transform="scale(0.001,-0.001)" />

	<path d="M368.2,-32C198.6,-32,62.6,79.4,62.6,215.4c0,58.1,39.8,79.5,76.4,79.5c42.8,0,74.9,-30.6,74.9,-74.9c0,-48.9,-35.1,-76.1,-77.3,-76.1c-5.2,0,-10.5,0.4,-15.9,1.2C165,44.3,290.3,9.2,363.6,9.2c74.9,0,178.8,53.4,178.8,253.6c0,146.6,-58.1,253.6,-188,253.6l-70.2,0c-27.5,0,-35.2,0,-35.2,15.3c0,13.7,6.1,15.2,32.1,16.8l45.8,4.6c41.3,1.5,93.2,6.1,139.1,73.3c44.3,65.7,48.9,151.2,48.9,180.3c0,149.7,-99.3,172.6,-149.8,172.6c-7.6,0,-151.2,0,-209.3,-103.9c4.6,1.5,7.7,1.5,16.8,1.5c33.7,0,70.3,-21.3,70.3,-70.2c0,-45.9,-36.6,-68.8,-68.7,-68.8c-22.9,0,-70.3,12.2,-70.3,73.4c0,111.5,113,204.7,265.8,204.7c148.2,0,273.5,-88.6,273.5,-209.3C643.2,687.5,557.6,576,424.7,537.8c146.7,-26,259.7,-136,259.7,-276.5C684.4,106.9,550,-32,368.2,-32Z" 
	id="f1_l"
	transform="scale(0.001,-0.001)" />

	<path d="M206.3,0C171.1,0,132.9,29,132.9,74.9c0,38.2,30.6,73.3,74.9,73.3c38.2,0,73.3,-32.1,73.3,-73.3C281.1,32.1,247.5,0,206.3,0Z" 
	id="f1_g"
	transform="scale(0.001,-0.001)" />

	<path d="M363.6,365.1c134.5,0,192.5,146.7,192.5,275c0,23,0,152.8,-30.5,227.7C510.3,902.9,466,979.3,378.9,979.3C296.4,979.3,255.1,935,227.6,893.8C187.9,831.1,187.9,757.8,187.9,672.2c0,-68.7,0,-142.1,24.5,-200.1c13.7,-29,55,-107,151.2,-107ZM308.6,-32C175.7,-32,99.3,32.1,99.3,126.8c0,39.7,24.5,65.7,64.2,65.7c39.7,0,62.6,-29,62.6,-62.6c0,-50.5,-43.7,-63.2,-60.8,-63.2c-2.1,0,-3.7,0.2,-4.9,0.5l-9.1,0C189.4,13.8,270.4,9.2,307.1,9.2c91.7,0,252.1,74.8,252.1,435.4l0,50.4C528.6,417.1,470.6,334.6,357.5,334.6C204.7,334.6,62.6,472.1,62.6,673.8c0,201.6,148.2,342.2,316.3,342.2c134.4,0,305.5,-102.4,305.5,-513.4C684.4,171.1,499.6,-32,308.6,-32Z" 
	id="f1_r"
	transform="scale(0.001,-0.001)" />

	<path d="M603.5,-32c-276.6,0,-521,238.3,-521,554.5c0,311.7,241.4,553.1,521,553.1c110,0,213.9,-53.5,282.6,-139.1L961,1057.2c9.1,15.3,10.7,18.4,19.8,18.4c15.3,0,15.3,-7.7,15.3,-35.2l0,-362.1c0,-30.5,0,-35.1,-21.4,-35.1c-18.3,0,-18.3,4.6,-21.4,22.9C922.8,895.3,782.2,1031.3,621.8,1031.3c-110,0,-397.2,-67.3,-397.2,-508.8C224.6,76.4,516.4,12.2,623.3,12.2c148.2,0,325.5,107,339.2,349.9c0,10.7,1.5,18.3,16.8,18.3c16.8,0,16.8,-9.1,16.8,-26C996.1,186.4,854,-32,603.5,-32Z" 
	id="f1_z"
	transform="scale(0.001,-0.001)" />

	<path d="M374.3,18.3c58.1,0,128.3,29.1,171.1,102.4c39.7,71.8,39.7,166.5,39.7,220c0,56.5,0,152.8,-47.3,223.1c-41.3,59.5,-105.4,87,-165,87c-53.5,0,-120.7,-24.4,-163.5,-90.1C161.9,491.9,161.9,398.8,161.9,340.7c0,-64.2,1.6,-154.3,42.8,-223.1C249,42.8,317.8,18.3,374.3,18.3Zm-1.5,-33.5c-174.2,0,-327,146.6,-327,342.1c0,192.5,145.2,354.5,328.5,354.5c177.2,0,327,-157.4,327,-354.5C701.3,134.4,553.1,-15.2,372.8,-15.2Z" 
	id="f1_26"
	transform="scale(0.001,-0.001)" />

	<path d="M394.2,-15.2c-18.4,0,-21.4,7.7,-29.1,29L146.7,560.7c-18.4,47.4,-33.6,53.5,-119.2,53.5l93.2,41.2l94.7,0c79.5,0,-41.2,3.1,117.7,3.1l0,-44.3c-27.5,0,-85.6,0,-85.6,-39.8c0,-7.6,1.5,-7.6,9.2,-29L427.8,114.6L583.6,508.8c7.7,18.3,10.7,25.9,10.7,39.7c0,16.8,-7.6,62.6,-71.8,65.7l70.3,41.2l102.3,0c21.4,0,-47.3,3.1,65.7,3.1l0,-44.3C663.1,612.6,637.1,546.9,623.3,513.3L424.7,13.8c-10.7,-25.9,-19.8,-29,-30.5,-29Z" 
	id="f1_2d"
	transform="scale(0.001,-0.001)" />

	<path d="M313.2,15.3c65.7,0,177.2,50.4,177.2,200.1l0,151.3C435.4,363.6,175.7,345.3,175.7,143.6C175.7,70.3,238.3,15.3,313.2,15.3ZM301,-15.2C207.8,-15.2,67.2,22.9,67.2,143.6c0,117.7,116.1,246,423.2,250.6l0,61.1c0,137.5,-90.1,195.5,-160.4,195.5c-61.1,0,-134.4,-27.5,-169.6,-91.6c22.9,0,77.9,0,77.9,-62.7c0,-36.6,-25.9,-62.6,-62.6,-62.6c-35.1,0,-64.2,21.4,-64.2,65.7c0,99.3,96.3,181.8,221.6,181.8c67.2,0,135.9,-21.4,189.4,-70.3c67.2,-59.6,67.2,-120.7,67.2,-203.2l0,-267.3c0,-23,0,-103.9,58.1,-103.9c21.4,0,58,12.2,58,99.3l0,85.5l33.6,0l0,-85.5C739.4,13.8,650.8,-7.5,618.8,-7.5c-65.7,0,-113.1,54.9,-119.2,126.7C470.6,45.8,401.8,-15.2,301,-15.2Z" 
	id="f1_1s"
	transform="scale(0.001,-0.001)" />

	<path d="M42.8,0l0,44.3c99.3,0,116.1,0,116.1,68.8l0,414c0,74.8,-12.2,85.5,-116.1,85.5l0,44.3l204.7,16.9l0,-169.6l1.5,0c9.2,29,53.5,169.6,183.4,169.6c65.7,0,106.9,-42.8,106.9,-88.7C539.3,543.9,508.8,524,478.2,524c-24.4,0,-59.6,16.8,-59.6,61.1c0,41.3,24.5,50.5,36.7,56.6c-6.1,1.5,-9.2,1.5,-21.4,1.5C316.3,643.2,255.1,504.2,255.1,356l0,-239.9c0,-55,3.1,-71.8,114.6,-71.8l30.6,0L365.1,3.1l-195.5,0C85.6,3.1,215.4,0,42.8,0Z" 
	id="f1_29"
	transform="scale(0.001,-0.001)" />

	<path d="M50.4,0l0,44.3c99.3,0,116.1,0,116.1,68.8l0,415.5c0,74.9,-13.7,84,-111.5,84l0,44.3l207.8,16.9l0,-562.3c0,-59.6,6.1,-67.2,105.4,-67.2L316.3,3.1l-149.8,0C93.2,3.1,210.8,0,50.4,0ZM191,867.8c-36.7,0,-73.4,29,-73.4,74.8c0,41.3,33.7,73.4,73.4,73.4c42.8,0,74.8,-35.2,74.8,-74.9c0,-33.6,-27.5,-73.3,-74.8,-73.3Z" 
	id="f1_20"
	transform="scale(0.001,-0.001)" />

	<path d="M48.9,0l0,44.3c99.3,0,116.1,0,116.1,68.8l0,414c0,74.8,-12.2,85.5,-116.1,85.5l0,44.3l207.8,16.9l0,-157.4l1.5,0c12.2,30.5,70.3,157.4,218.5,157.4c51.9,0,123.7,-9.2,168,-68.8c35.2,-48.9,35.2,-91.7,35.2,-233.7l0,-281.2C681.4,44.3,719.6,44.3,796,44.3L756.3,3.1l-169.6,0C504.2,3.1,629.4,0,464.4,0l0,44.3c99.4,0,116.2,0,116.2,68.8l0,359c0,93.2,-21.4,171.1,-116.2,171.1c-94.7,0,-200.1,-85.6,-200.1,-246l0,-284.1c0,-68.8,18.3,-68.8,116.1,-68.8L340.7,3.1l-169.6,0C88.6,3.1,213.9,0,48.9,0Z" 
	id="f1_25"
	transform="scale(0.001,-0.001)" />

	<path d="M372.8,-15.2C200.1,-15.2,53.5,134.4,53.5,330c0,192.5,142.1,351.4,320.8,351.4C498.1,681.4,605,608.1,605,505.7C605,461.4,576,440,540.8,440c-36.6,0,-62.6,26,-62.6,62.6c0,62.7,56.5,62.7,74.9,62.7c-35.2,59.6,-119.2,82.5,-177.3,82.5c-76.4,0,-206.2,-62.7,-206.2,-316.3C169.6,99.3,293.3,18.3,386.5,18.3c82.5,0,165,45.9,198.6,154.3c4.6,18.4,6.2,23,19.9,23c4.6,0,15.3,0,15.3,-13.8c0,-13.7,-45.9,-197,-247.5,-197Z" 
	id="f1_1u"
	transform="scale(0.001,-0.001)" />

	<path d="M527.1,383.5c-1.5,51.9,-10.7,267.3,-174.2,267.3c-42.8,0,-177.2,-27.5,-189.4,-267.3ZM371.3,-15.2C201.7,-15.2,45.8,132.9,45.8,334.6c0,189.4,134.5,346.8,308.6,346.8c184.9,0,267.4,-143.6,267.4,-297.9c0,-29.1,-3,-29.1,-36.7,-29.1l-423.2,0l0,-29C161.9,61.1,316.3,18.3,380.4,18.3c64.2,0,166.5,35.2,206.3,163.5c3,7.6,6.1,15.3,18.3,15.3c9.2,0,16.8,-6.1,16.8,-15.3c0,-32.1,-68.7,-197,-250.5,-197Z" 
	id="f1_1w"
	transform="scale(0.001,-0.001)" />

	<path d="M50.4,0l0,44.3c99.3,0,116.1,0,116.1,68.8l0,501.1l-119.1,0l0,44.3l119.1,0l0,178.7c0,155.9,120.7,238.4,227.7,238.4c73.3,0,128.3,-44.3,128.3,-100.9c0,-36.6,-24.4,-61.1,-61.1,-61.1c-35.1,0,-59.6,24.5,-59.6,59.6c0,44.3,38.2,58.1,44.3,59.6c-18.3,9.1,-41.2,12.2,-53.5,12.2C330,1045,259.7,974.7,259.7,837.2l0,-178.7l175.7,0l0,-44.3l-172.6,0l0,-498.1c0,-55,3,-71.8,114.6,-71.8l30.5,0L372.8,3.1l-195.6,0C93.2,3.1,223.1,0,50.4,0Z" 
	id="f1_1x"
	transform="scale(0.001,-0.001)" />

	<path d="M388.1,-15.2c-78,0,-140.6,18.3,-177.3,58C165,93.2,165,148.2,165,242.9l0,229.2c0,136,0,140.5,-116.1,140.5l0,44.3l215.4,16.9l0,-505.7c0,-81,7.6,-152.8,132.9,-152.8c114.6,0,183.4,108.5,183.4,238.3l0,273.5c0,74.8,-12.3,85.5,-116.2,85.5l0,44.3l215.5,16.9l0,-543.9C679.9,55,692.1,44.3,796,44.3L796,0L583.6,-15.2l0,137.4c0,0,-24.4,-58,-68.7,-93.2C462.9,-15.2,414,-15.2,388.1,-15.2Z" 
	id="f1_2c"
	transform="scale(0.001,-0.001)" />

	<path d="M351.4,-15.2c-81,0,-194,35.1,-194,204.6l0,424.8l-129.9,0l0,30.5c139,4.6,194,151.3,195.6,294.9l33.6,0l0,-281.1l215.4,0l0,-44.3l-215.4,0l0,-427.8c0,-26,0,-168.1,103.9,-168.1c59.5,0,103.8,64.2,103.8,174.2l0,84l33.7,0l0,-87.1c0,-110,-50.5,-204.6,-146.7,-204.6Z" 
	id="f1_2b"
	transform="scale(0.001,-0.001)" />

	<path d="M374.3,15.3c76.4,0,139,44.3,175.7,97.8c21.4,33.6,21.4,38.2,21.4,65.7l0,314.7c0,27.5,0,30.5,-18.3,56.5c-15.3,24.4,-68.8,93.2,-163.5,93.2c-76.4,0,-137.5,-47.4,-168.1,-94.7C187.9,498.1,169.6,436.9,169.6,326.9C169.6,30.6,334.6,15.3,374.3,15.3Zm-7.6,-30.5C198.6,-15.2,53.5,134.4,53.5,328.5c0,195.5,152.8,345.3,330,345.3c93.2,0,158.9,-53.5,190.9,-97.8l0,337.6c0,74.9,-12.2,85.6,-116.1,85.6l0,44.3l212.4,16.8l0,-930.4C670.7,55,682.9,44.3,786.8,44.3L786.8,0L571.4,-15.2l0,105.3C550,61.1,482.8,-15.2,366.7,-15.2Z" 
	id="f1_1v"
	transform="scale(0.001,-0.001)" />

	<path d="M65.7,-15.2c-15.3,0,-15.3,7.7,-15.3,35.1l0,207.7c0,27.5,0,35.2,16.8,35.2c4.6,0,10.7,0,13.8,-6.1c1.5,-1.6,1.5,-3.1,7.6,-30.6C122.2,73.3,195.6,15.3,296.4,15.3c134.4,0,172.6,73.3,172.6,139c0,42.8,-19.8,76.4,-47.3,99.3c-38.2,30.6,-58.1,35.2,-142.1,52C209.3,319.3,157.4,330,108.5,372.8C50.4,426.3,50.4,479.7,50.4,496.5c0,84.1,55,184.9,239.9,184.9c48.9,0,96.2,-9.2,143.6,-47.4c10.7,13.8,39.7,47.4,51.9,47.4c15.3,0,15.3,-7.6,15.3,-35.1l0,-158.9c0,-27.5,0,-35.2,-16.8,-35.2c-4.6,0,-15.3,0,-16.8,12.2c-3.1,47.4,-12.2,189.5,-178.7,189.5C151.3,653.9,119.2,583.6,119.2,536.3C119.2,444.6,230.7,423.2,276.5,414C377.4,395.7,418.6,386.5,473.6,339.2C487.4,325.4,537.8,276.5,537.8,194C537.8,73.3,458.3,-15.2,297.9,-15.2c-26,0,-108.5,0,-166.5,71.7C108.5,32.1,108.5,29,100.8,18.3C74.9,-13.7,73.3,-15.2,65.7,-15.2Z" 
	id="f1_2a"
	transform="scale(0.001,-0.001)" />

	<path d="M166.5,-311.6C85.6,-311.6,29,-255,29,-197c0,44.3,32.1,59.6,58.1,59.6c27.5,0,56.5,-19.9,56.5,-56.5c0,-53.5,-53.5,-59.6,-53.5,-59.6c0,0,29.1,-27.5,76.4,-27.5c68.8,0,110,58,136,103.9c6.1,12.2,6.1,15.3,73.3,177.1L148.2,559.2c-19.9,47.3,-32.1,55,-120.7,55l87.1,41.2l103.9,0c74.8,0,-42.8,3.1,114.6,3.1l0,-44.3c-30.6,0,-84.1,0,-84.1,-39.8c0,-1.5,0,-10.6,9.2,-32L427.8,126.8l155.8,385c6.1,15.3,9.2,22.9,9.2,36.7c0,27.5,-13.8,62.6,-70.3,65.7l85.6,41.2l87,0c21.4,0,-48.8,3.1,65.7,3.1l0,-44.3c-29,0,-100.8,-1.6,-142,-103.9L354.4,-140.5C314.7,-236.7,252.1,-311.6,166.5,-311.6Z" 
	id="f1_2g"
	transform="scale(0.001,-0.001)" />

	<path d="M374.3,-281c140.6,0,256.7,71.8,256.7,161.9C631,13.8,458.3,13.8,331.5,13.8c-106.9,0,-120.7,0,-154.3,-21.3c-58,-39.8,-61.1,-99.3,-61.1,-111.6c0,-87.1,111.5,-161.9,258.2,-161.9ZM333.1,261.3c32,0,77.9,15.2,106.9,59.5c26,41.3,26,103.9,26,131.4c0,35.2,0,189.5,-134.5,189.5c-32.1,0,-77.9,-15.3,-106.9,-59.6c-26,-41.3,-26,-103.9,-26,-131.4c0,-35.1,0,-189.4,134.5,-189.4Zm39.7,-574.4c-187.9,0,-331.5,87.1,-331.5,192.5c0,79.4,70.2,134.4,140.5,154.2c-12.2,7.7,-65.7,45.8,-65.7,134.5c0,59.5,27.5,103.8,45.8,126.8C146.7,308.6,93.2,365.1,93.2,452.2c0,117.7,102.4,221.6,239.9,221.6c58,0,111.5,-19.9,157.3,-55c21.4,22.9,81,71.8,160.4,71.8c53.5,0,74.9,-42.8,74.9,-70.3C725.7,586.7,698.2,579,686,579c-24.5,0,-39.7,18.4,-39.7,39.8c0,16.8,7.6,32,22.9,38.1c-6.1,3.1,-13.8,3.1,-19.9,3.1c-7.6,0,-79.4,0,-139,-61.1c48.9,-48.9,61.1,-107,61.1,-148.2C571.4,333.1,469,229.2,331.5,229.2c-16.8,0,-77.9,0,-149.7,47.3C166.5,255.1,157.4,229.2,157.4,203.2c0,-32.1,13.7,-61.1,29,-76.4c27.5,-29,38.2,-29,131.4,-29c131.4,0,207.8,0,285.7,-39.7C695.1,10.7,705.8,-79.3,705.8,-117.5c0,-114.6,-151.2,-195.6,-333,-195.6Z" 
	id="f1_1y"
	transform="scale(0.001,-0.001)" />

	<path d="M48.9,0l0,44.3c99.3,0,116.1,0,116.1,68.8l0,800.5c0,74.9,-12.2,85.6,-116.1,85.6l0,44.3l212.4,16.8l0,-533.2l1.5,0c21.4,47.3,82.5,146.7,213.9,146.7c51.9,0,123.7,-9.2,168,-68.8c35.2,-48.9,35.2,-91.7,35.2,-233.7l0,-281.2C681.4,44.3,719.6,44.3,796,44.3L756.3,3.1l-169.6,0C504.2,3.1,629.4,0,464.4,0l0,44.3c99.4,0,116.2,0,116.2,68.8l0,359c0,93.2,-21.4,171.1,-116.2,171.1c-94.7,0,-200.1,-85.6,-200.1,-246l0,-284.1c0,-68.8,18.3,-68.8,116.1,-68.8L340.7,3.1l-169.6,0C88.6,3.1,213.9,0,48.9,0Z" 
	id="f1_1z"
	transform="scale(0.001,-0.001)" />

	<path d="M438.5,15.3C556.1,15.3,660,148.2,660,330c0,171.1,-91.7,310.1,-206.2,310.1c-58.1,0,-133,-29,-178.8,-97.7c-16.8,-24.5,-16.8,-26,-16.8,-55l0,-314.8c0,-42.7,22.9,-73.3,58.1,-108.4C346.8,35.1,391.1,15.3,438.5,15.3ZM42.8,-296.3l0,44.3c99.3,0,116.1,0,116.1,68.8l0,717.9c0,67.2,-9.2,77.9,-116.1,77.9l0,44.3l212.3,16.9l0,-102.4c4.6,6.1,76.4,102.4,210.9,102.4C632.5,673.8,776.1,524,776.1,330c0,-197.1,-154.3,-345.2,-330,-345.2c-97.8,0,-160.4,59.5,-187.9,97.7l0,-265.7c0,-68.8,18.3,-68.8,116.1,-68.8l-39.7,-41.2l-169.6,0c-82.5,0,42.8,-3.1,-122.2,-3.1Z" 
	id="f1_27"
	transform="scale(0.001,-0.001)" />

	<path d="M50.4,0l0,44.3c99.3,0,116.1,0,116.1,68.8l0,800.5c0,74.9,-12.2,85.6,-116.1,85.6l0,44.3l212.4,16.8l0,-947.2c0,-68.8,18.3,-68.8,116.1,-68.8L336.1,3.1l-168,0C93.2,3.1,213.9,0,50.4,0Z" 
	id="f1_23"
	transform="scale(0.001,-0.001)" />

	<path d="M450.7,299.4l0,576L79.4,299.4ZM297.9,0l0,44.3l30.6,0c111.5,0,114.6,15.3,114.6,71.8l0,139l-401.8,0l0,44.3l459.8,713.5c12.2,18.4,16.8,18.4,29,18.4c21.4,0,21.4,-7.7,21.4,-36.7l0,-695.2l154.3,0l0,-44.3l-154.3,0l0,-139c0,-56.5,4.6,-71.8,114.6,-71.8l30.6,0L661.5,3.1l-207.7,0C333.1,3.1,496.5,0,297.9,0Z" 
	id="f1_m"
	transform="scale(0.001,-0.001)" />

	<path d="M148.2,0l0,44.3l47.4,0c134.4,0,139,18.3,139,73.3l0,796C250.6,873.9,174.2,873.9,139,873.9l0,44.3c157.4,0,233.8,56.5,270.4,97.8c30.6,0,30.6,-1.6,30.6,-36.7l0,-861.7c0,-55,4.6,-73.3,139,-73.3l47.4,0L585.1,3.1l-247.5,0C189.4,3.1,388.1,0,148.2,0Z" 
	id="f1_j"
	transform="scale(0.001,-0.001)" />

	<path d="M16.8,288.8l0,82.5l397.2,0l0,-82.5Z" 
	id="f1_f"
	transform="scale(0.001,-0.001)" />

	<path d="M74.9,0l0,36.7L383.5,381.9c87.1,97.8,161.9,210.9,161.9,340.7c0,140.6,-79.4,249.1,-209.3,249.1c-99.3,0,-181.8,-70.3,-210.8,-174.2c4.6,1.5,7.6,1.5,21.4,1.5c42.7,0,71.8,-29,71.8,-71.8c0,-48.9,-39.7,-71.8,-71.8,-71.8c-4.6,0,-71.8,0,-71.8,77.9C74.9,864.7,178.8,1016,356,1016c177.2,0,316.2,-117.7,316.2,-293.4C672.2,571.4,586.7,491.9,354.4,278.1C314.7,241.4,221.5,143.6,180.3,108.5l282.6,0c45.9,0,132.9,0,143.6,13.7c15.3,24.5,27.5,108.5,32.1,134.5l33.6,0L632.5,0Z" 
	id="f1_k"
	transform="scale(0.001,-0.001)" />

	<path d="M348.3,-32C178.8,-32,74.9,116.1,74.9,246c0,59.6,39.7,73.3,67.2,73.3c38.2,0,67.2,-24.4,67.2,-67.2c0,-52,-41.2,-67.2,-67.2,-67.2c-7.7,0,-16.8,1.5,-24.5,4.5C145.1,77.9,244.4,9.2,345.3,9.2c67.2,0,126.8,38.2,160.4,93.2c42.8,68.7,42.8,155.8,42.8,213.9c0,58,-1.6,132.9,-27.5,192.5C508.8,534.7,469,609.6,388.1,609.6c-76.4,0,-148.2,-36.7,-191,-99.3C181.8,491.9,180.3,490.4,172.6,490.4c-18.3,0,-18.3,9.2,-18.3,36.7l0,453.7c0,24.5,0,33.6,12.2,33.6c1.6,0,4.6,0,15.3,-4.5c29,-12.3,100.8,-42.8,201.7,-42.8c39.7,0,113,4.6,198.6,41.2c13.7,6.1,16.8,6.1,19.8,6.1c9.2,0,12.3,-7.6,12.3,-13.7c0,-21.4,-110,-148.2,-282.7,-148.2c-16.8,0,-70.2,1.5,-135.9,22.9l0,-316.2c39.7,42.7,106.9,80.9,194,80.9c160.4,0,282.6,-151.2,282.6,-333C672.2,113.1,521,-32,348.3,-32Z" 
	id="f1_n"
	transform="scale(0.001,-0.001)" />

	<path d="M97.8,-32C82.5,-32,82.5,-24.3,82.5,3.1l0,308.6c0,27.5,0,35.1,16.8,35.1c3.1,0,15.3,0,16.8,-12.2c1.5,-50.4,7.7,-160.4,96.3,-239.9C287.2,29,381.9,12.2,450.7,12.2c126.8,0,207.8,108.5,207.8,223.1c0,85.5,-47.4,168,-119.2,203.2C517.9,447.6,433.9,469,380.4,481.3C271.9,508.8,218.5,522.5,165,582.1C108.5,643.2,82.5,710.4,82.5,783.8c0,155.8,123.8,291.8,293.3,291.8c67.3,0,168.1,-18.4,241.4,-113.1l50.4,93.2c10.7,19.9,16.8,19.9,21.4,19.9c15.3,0,15.3,-7.7,15.3,-35.2l0,-308.6c0,-27.5,0,-35.1,-16.8,-35.1c-15.3,0,-15.3,6.1,-18.3,24.4c-9.2,65.7,-42.8,313.2,-293.4,313.2c-119.1,0,-204.7,-96.2,-204.7,-203.2c0,-97.8,68.8,-174.2,146.7,-194l168,-42.8C545.4,579,614.2,562.2,670.7,493.5c41.2,-50.4,76.4,-119.2,76.4,-212.4C747.1,113.1,623.3,-32,452.2,-32C320.8,-32,224.6,19.9,169.6,81C157.4,58.1,125.3,1.5,119.2,-10.6C108.5,-28.9,106.9,-32,97.8,-32Z" 
	id="f1_1f"
	transform="scale(0.001,-0.001)" />

	<path d="M440,15.3c76.4,0,137.5,47.3,168.1,94.7C644.7,165,660,229.2,660,331.5C660,624.9,499.6,643.2,453.8,643.2C378.9,643.2,311.7,598.9,275,543.9c-16.8,-24.5,-16.8,-27.5,-16.8,-55l0,-314.7c0,-26,0,-32.1,19.9,-64.2C304,68.8,357.5,15.3,440,15.3Zm6.1,-30.5c-97.8,0,-163.5,58,-198.6,114.5C241.4,88.6,198.6,12.2,192.5,0L158.9,0l0,913.6c0,74.9,-12.2,85.6,-116.1,85.6l0,44.3l212.3,16.8l0,-488.9c52,64.2,123.8,102.4,207.8,102.4C632.5,673.8,776.1,524,776.1,330c0,-197.1,-154.3,-345.2,-330,-345.2Z" 
	id="f1_1t"
	transform="scale(0.001,-0.001)" />

	<path d="M15.3,0l0,44.3C81,45.8,148.2,62.6,215.4,145.1C230.7,165,349.9,314.7,349.9,319.3c0,4.6,-6.1,13.8,-9.2,16.8L161.9,569.9c-32,41.2,-61.1,44.3,-139,44.3l93.2,41.2l94.7,0c78,0,-41.2,3.1,116.1,3.1l0,-44.3C281.1,612.6,273.5,585.1,273.5,576c0,-10.7,9.1,-24.5,13.7,-30.6L406.4,388.1l97.8,123.7c9.1,12.2,22.9,29,22.9,55c0,35.1,-24.5,44.3,-44.3,47.4l76.4,41.2l120.7,0c3,0,-59.6,3.1,68.7,3.1l0,-44.3c-48.9,0,-120.7,-10.7,-183.3,-81C536.3,501.1,472.1,418.6,427.8,360.6L627.9,96.3c36.7,-48.9,64.2,-52,145.2,-52L681.4,3.1l-96.3,0C510.3,3.1,627.9,0,470.6,0l0,44.3c41.2,1.5,53.4,26,53.4,38.2c0,9.2,0,12.2,-25.9,45.8L372.8,291.8c-36.7,-47.4,-87.1,-110,-110,-142.1c-15.3,-19.8,-26,-32.1,-26,-56.5c0,-21.4,6.1,-44.3,42.8,-48.9L203.2,3.1L76.4,3.1C73.3,3.1,142.1,0,15.3,0Z" 
	id="f1_2f"
	transform="scale(0.001,-0.001)" />

	<path d="M48.9,0l0,44.3c99.3,0,116.1,0,116.1,68.8l0,414c0,74.8,-12.2,85.5,-116.1,85.5l0,44.3l207.8,16.9l0,-157.4l1.5,0c12.2,30.5,70.3,157.4,218.5,157.4c96.2,0,178.7,-33.7,200.1,-151.3c24.5,59.6,88.6,151.3,215.4,151.3c52,0,123.8,-9.2,168.1,-68.8c35.1,-48.9,35.1,-91.7,35.1,-233.7l0,-281.2c1.5,-45.8,39.7,-45.8,116.1,-45.8L1171.8,3.1l-169.6,0C919.7,3.1,1045,0,880,0l0,44.3c99.3,0,116.1,0,116.1,68.8l0,359c0,93.2,-21.4,171.1,-116.1,171.1c-94.7,0,-200.1,-85.6,-200.1,-246l0,-284.1C679.9,44.3,698.2,44.3,796,44.3L756.3,3.1l-169.6,0C504.2,3.1,629.4,0,464.4,0l0,44.3c99.4,0,116.2,0,116.2,68.8l0,359c0,93.2,-21.4,171.1,-116.2,171.1c-94.7,0,-200.1,-85.6,-200.1,-246l0,-284.1c0,-68.8,18.3,-68.8,116.1,-68.8L340.7,3.1l-169.6,0C88.6,3.1,213.9,0,48.9,0Z" 
	id="f1_24"
	transform="scale(0.001,-0.001)" />

	<path d="M592.8,44.3c149.7,0,242.9,113.1,242.9,236.8c0,117.7,-76.4,246,-223.1,246l-285.7,0l0,-421.7C326.9,55,330,44.3,397.2,44.3ZM548.5,557.6c169.6,0,249,126.8,249,227.7c0,82.5,-55,213.9,-207.8,213.9l-192.5,0c-67.2,0,-70.3,-10.7,-70.3,-61.1l0,-380.5ZM65.7,0l0,44.3l30.6,0c110,0,114.5,15.3,114.5,71.8l0,811.3c0,56.5,-4.5,71.8,-114.5,71.8l-30.6,0l0,44.3l533.2,0c200.1,0,333,-126.8,333,-258.2C931.9,670.7,826.5,572.9,681.4,545.4C863.2,525.6,974.7,403.3,974.7,279.6C974.7,132.9,837.2,0,640.1,0Z" 
	id="f1_y"
	transform="scale(0.001,-0.001)" />

	<path d="M375.8,9.2c61.1,0,116.1,25.9,154.3,99.3c29.1,58,29.1,126.8,29.1,204.7c0,65.7,0,142.1,-24.5,198.6c-22.9,52,-67.2,108.5,-151.2,108.5C246,620.3,191,469,191,348.3c0,-106.9,15.3,-181.8,29,-221.5C233.8,94.7,279.6,9.2,375.8,9.2Zm0,-41.2C246,-32,62.6,62.6,62.6,482.8c0,336.1,201.7,533.2,394.2,533.2c132.9,0,191,-77.9,191,-157.4c0,-44.3,-26,-67.2,-64.2,-67.2c-39.7,0,-62.6,29,-62.6,62.6c0,62.7,58,62.7,76.4,62.7c-29.1,45.8,-84.1,62.6,-139.1,62.6c-82.5,0,-270.4,-61.1,-270.4,-447.6l0,-41.3c15.3,42.8,65.7,160.4,201.7,160.4c152.8,0,294.8,-135.9,294.8,-339.1C684.4,113.1,542.4,-32,375.8,-32Z" 
	id="f1_o"
	transform="scale(0.001,-0.001)" />

	<path d="M542.4,522.5c249,0,249,174.2,249,238.3c0,65.7,0,238.4,-247.5,238.4l-143.6,0C333.1,999.2,330,988.5,330,938.1l0,-415.6ZM64.2,0l0,44.3l30.5,0c110,0,114.6,15.3,114.6,71.8l0,811.3c0,56.5,-4.6,71.8,-114.6,71.8l-30.5,0l0,44.3l514.8,0c206.3,0,354.5,-134.5,354.5,-282.7c0,-154.3,-163.5,-275,-342.2,-275l-258.2,0l0,-369.7c0,-56.5,4.5,-71.8,114.5,-71.8l30.6,0L441.5,3.1l-215.4,0C100.8,3.1,270.4,0,64.2,0Z" 
	id="f1_1c"
	transform="scale(0.001,-0.001)" />

	<path d="M482.8,-383.4c-16.8,0,-142.1,99.3,-232.2,282.7C171.1,62.6,149.7,244.4,149.7,380.4c0,187.9,35.2,351.4,113.1,505.7c74.8,149.7,200.1,259.7,220,259.7c6.1,0,13.7,-3,13.7,-12.2c0,-4.6,0,-7.6,-15.2,-21.4C304,931.9,232.2,676.8,232.2,380.4c0,-311.6,85.6,-563.6,238.4,-717.9c25.9,-26,25.9,-29.1,25.9,-33.7c0,-9.1,-7.6,-12.2,-13.7,-12.2Z" 
	id="f1_b"
	transform="scale(0.001,-0.001)" />

	<path d="M67.2,0l0,44.3c145.2,0,145.2,71.8,145.2,113.1l0,770c0,56.5,-4.6,71.8,-114.6,71.8l-30.6,0l0,44.3l236.8,0c35.2,0,36.7,0,47.4,-29.1l333,-870.8l333.1,869.3c12.2,29,13.8,30.6,47.4,30.6l236.8,0l0,-44.3l-30.6,0c-110,0,-114.6,-15.3,-114.6,-71.8l0,-811.3c0,-56.5,4.6,-71.8,114.6,-71.8l30.6,0L1266.5,3.1l-210.8,0C933.5,3.1,1100,0,898.3,0l0,44.3l30.6,0c110,0,114.6,15.3,114.6,71.8l0,883.1l-1.6,0L670.7,30.6C661.5,7.6,658.5,0,644.7,0C629.4,0,624.9,12.2,618.8,29L250.6,991.5l-1.6,0l0,-834.1C249,116.1,249,44.3,394.2,44.3L354.4,3.1l-166.5,0C106.9,3.1,230.7,0,67.2,0Z" 
	id="f1_19"
	transform="scale(0.001,-0.001)" />

	<path d="M62.6,0l0,44.3l30.6,0c110,0,114.6,15.3,114.6,71.8l0,808.2c0,56.5,-4.6,71.8,-114.6,71.8l-30.6,0l0,44.3l831.2,0L933.5,699.7l-33.6,0c-23,220,-70.3,296.4,-294.9,296.4l-203.2,0c-67.2,0,-70.3,-10.7,-70.3,-61.1l0,-372.8l139.1,0C617.2,562.2,634,609.6,634,741l33.6,0l0,-401.8l-33.6,0c0,131.4,-16.8,178.7,-163.4,178.7l-139.1,0l0,-412.5c0,-50.4,3.1,-61.1,70.3,-61.1l207.8,0c258.2,0,294.8,108.5,331.5,346.8l33.6,0L913.6,0Z" 
	id="f1_11"
	transform="scale(0.001,-0.001)" />

	<path d="M97.8,-383.4c-6.1,0,-13.8,3.1,-13.8,12.2c0,4.6,0,7.7,15.3,21.4c177.2,180.3,249,435.4,249,731.7C348.3,693.6,262.8,945.7,110,1100c-26,26,-26,29,-26,33.6c0,9.2,7.7,12.2,13.8,12.2c16.8,0,142.1,-99.3,232.2,-282.6C415.6,686,430.8,496.5,430.8,380.4c0,-183.3,-35.1,-348.3,-113,-504.1C242.9,-273.4,117.6,-383.4,97.8,-383.4Z" 
	id="f1_c"
	transform="scale(0.001,-0.001)" />

	<path d="M62.6,0l0,44.3l30.6,0c110,0,114.6,15.3,114.6,71.8l0,811.3c0,56.5,-4.6,71.8,-114.6,71.8l-30.6,0l36.7,41.2l215.4,0c125.3,0,-44.3,3.1,162,3.1l0,-44.3l-30.6,0c-110,0,-114.6,-15.3,-114.6,-71.8l0,-362.1l456.8,0l0,362.1c0,56.5,-4.5,71.8,-114.5,71.8l-30.6,0l36.7,41.2l215.4,0c125.3,0,-44.3,3.1,161.9,3.1l0,-44.3l-30.5,0c-110,0,-114.6,-15.3,-114.6,-71.8l0,-811.3c0,-56.5,4.6,-71.8,114.6,-71.8l30.5,0L1020.6,3.1l-215.5,0C679.9,3.1,849.4,0,643.2,0l0,44.3l30.6,0c110,0,114.5,15.3,114.5,71.8l0,404.9l-456.8,0l0,-404.9c0,-56.5,4.6,-71.8,114.6,-71.8l30.6,0L440,3.1l-215.4,0C99.3,3.1,268.9,0,62.6,0Z" 
	id="f1_14"
	transform="scale(0.001,-0.001)" />

	<path d="M560.7,44.3c128.3,0,220,62.6,270.4,126.8c87.1,113.1,88.6,256.7,88.6,342.2c0,61.1,0,215.5,-68.7,323.9c-62.7,100.9,-163.5,162,-290.3,162l-160.4,0C333.1,999.2,330,988.5,330,938.1l0,-832.7C330,55,333.1,44.3,400.3,44.3ZM64.2,0l0,44.3l30.5,0c110,0,114.6,15.3,114.6,71.8l0,811.3c0,56.5,-4.6,71.8,-114.6,71.8l-30.5,0l0,44.3l534.7,0c253.6,0,459.9,-236.8,459.9,-531.7C1058.8,229.2,854,0,598.9,0Z" 
	id="f1_10"
	transform="scale(0.001,-0.001)" />

	<path d="M331.5,-32c-62.6,0,-62.6,61,-62.6,77.8c0,287.3,154.3,537.8,195.5,597.4l162,232.2l-323.9,0c-21.4,0,-136,0,-148.2,-9.1C134.4,849.4,120.7,754.7,116.1,727.2l-33.6,0l47.4,305.6l33.6,0c6.1,-29,9.1,-48.9,194,-48.9l368.2,0l0,-35.1L504.2,631C432.4,528.6,395.7,351.4,395.7,123.8l0,-76.4c0,-19.9,0,-79.4,-64.2,-79.4Z" 
	id="f1_p"
	transform="scale(0.001,-0.001)" />

	<path d="M559.2,-32c-21.4,0,-24.5,7.7,-32.1,29L169.6,938.1c-22.9,61.1,-47.4,61.1,-142.1,61.1l36.7,41.2l190.9,0c116.2,0,-44.3,3.1,152.8,3.1l0,-44.3c-38.2,0,-114.6,0,-114.6,-44.3c0,-3.1,0,-6.1,7.7,-23L601.9,137.5L887.6,890.7c9.2,21.4,9.2,24.4,9.2,33.6c0,30.6,-22.9,73.3,-100.8,74.9l38.2,41.2l177.2,0c3,0,-59.6,3.1,81,3.1l0,-44.3C973.2,997.6,947.2,930.4,933.5,892.2L592.8,-1.4C582.1,-27.4,580.6,-32,559.2,-32Z" 
	id="f1_1i"
	transform="scale(0.001,-0.001)" />

	<path d="M374.3,9.2c122.2,0,239.9,79.4,239.9,195.5c0,93.2,-70.3,140.6,-110,166.6L319.3,491.9C220,446.1,132.9,349.9,132.9,230.7C132.9,103.9,244.4,9.2,374.3,9.2Zm50.4,563.7c88.6,48.9,155.9,123.8,155.9,217c0,110,-97.8,189.4,-207.8,189.4C270.4,979.3,166.5,916.7,166.5,817.4c0,-74.9,61.1,-114.6,81,-128.4L424.7,572.9ZM372.8,-32C216.9,-32,62.6,68.8,62.6,230.7c0,111.5,76.4,213.9,224.6,282.6C180.3,588.2,178.8,589.7,161.9,609.6c-42.7,51.9,-58,103.9,-58,155.8c0,139,119.2,250.6,270.4,250.6c140.6,0,268.9,-91.7,268.9,-224.6C643.2,663.1,531.7,592.8,455.3,551.5C574.4,478.2,684.4,409.4,684.4,253.6C684.4,93.2,542.4,-32,372.8,-32Z" 
	id="f1_q"
	transform="scale(0.001,-0.001)" />

	<path d="M55,0l0,44.3l33.6,0c114.6,0,119.2,15.3,119.2,71.8l0,811.3c0,56.5,-4.6,71.8,-119.2,71.8l-33.6,0l36.7,41.2l224.6,0c131.3,0,-45.9,3.1,168,3.1l0,-44.3l-33.6,0c-114.6,0,-119.2,-15.3,-119.2,-71.8l0,-811.3c0,-56.5,4.6,-71.8,119.2,-71.8l33.6,0L447.6,3.1l-224.5,0C91.7,3.1,268.9,0,55,0Z" 
	id="f1_15"
	transform="scale(0.001,-0.001)" />

	<path d="M42.8,0l0,44.3c99.3,0,116.1,0,116.1,68.8l0,800.5c0,74.9,-12.2,85.6,-116.1,85.6l0,44.3l212.3,16.8l0,-736.4L473.6,516.4c1.5,0,32.1,27.5,32.1,58c0,24.5,-18.3,38.2,-44.3,39.8l35.1,41.2l163.5,0c39.7,0,-45.8,3.1,70.3,3.1l0,-44.3C698.2,612.6,631,611.1,525.6,519.4C513.3,507.2,417.1,424.7,417.1,420.1c0,-1.5,10.7,-13.7,10.7,-15.2l204.7,-298C675.3,44.3,722.6,44.3,763.9,44.3L698.2,3.1l-110,0C513.3,3.1,629.4,0,475.1,0l0,44.3c32.1,0,53.5,7.6,53.5,35.1c0,21.4,-10.7,38.2,-33.6,70.3L348.3,360.6L250.6,275l0,-161.9c0,-68.8,18.3,-68.8,116.1,-68.8L323.9,3.1l-165,0C85.6,3.1,204.7,0,42.8,0Z" 
	id="f1_22"
	transform="scale(0.001,-0.001)" />

	<path d="M0,391.1l0,30.6l1494.2,0l0,-30.6Z" 
	id="f1_2j"
	transform="scale(0.001,-0.001)" />

	<path d="M126.8,-33.5C110,-33.5,110,-22.8,110,3.1l0,305.5c0,27.5,0,38.2,19.9,38.2c7.6,0,16.8,-3,18.3,-13.7c1.5,-52,6.1,-163.5,105.4,-241.4C337.6,26,440,13.8,504.2,13.8c139,0,220,110,220,218.4c0,82.5,-45.9,134.5,-55,145.2c-47.4,51.9,-77.9,59.5,-168.1,80.9c-24.4,6.1,-50.4,10.7,-74.8,16.8C299.4,505.7,253.6,516.4,181.8,591.3C161.9,614.2,110,682.9,110,780.7c0,161.9,136,296.4,313.2,296.4c146.7,0,216.9,-68.8,258.2,-110l56.5,90.1c12.2,18.4,12.2,19.9,22.9,19.9c16.8,0,16.8,-10.7,16.8,-36.7l0,-307.1c0,-29,0,-36.6,-19.8,-36.6c-16.8,0,-16.8,7.6,-19.9,27.5C716.5,880,635.6,1034.3,424.7,1034.3c-129.8,0,-216.9,-96.2,-216.9,-200.1c0,-55,32.1,-160.4,165,-192.5L580.6,591.3C748.6,550,821.9,404.9,821.9,282.6C821.9,120.7,696.7,-33.5,505.7,-33.5C348.3,-33.5,249,32.1,206.3,76.4L149.7,-15.2c-9.1,-13.7,-12.2,-18.3,-22.9,-18.3Z" 
	id="f2_g"
	transform="scale(0.001,-0.001)" />

	<path d="M84,0l0,47.4l36.7,0c117.6,0,120.7,16.8,120.7,71.8l0,800.5c0,55,-3.1,71.8,-120.7,71.8l-36.7,0l0,47.4l895.3,0l42.8,-343.8l-38.2,0C959.4,913.6,910.6,991.5,670.7,991.5l-218.5,0c-71.8,0,-74.8,-10.7,-74.8,-61.1l0,-366.6l149.7,0c151.2,0,172.6,45.8,172.6,178.7l38.2,0l0,-404.9l-38.2,0c0,133,-21.4,178.8,-172.6,178.8l-149.7,0l0,-407.9c0,-50.4,3,-61.1,74.8,-61.1l230.7,0c270.4,0,307.1,113,345.3,346.8l38.2,0L1002.2,0Z" 
	id="f2_4"
	transform="scale(0.001,-0.001)" />

	<path d="M168.1,-294.8c-7.7,0,-15.3,7.7,-15.3,15.3c0,6.1,1.5,9.2,7.6,13.8c67.2,70.2,107,161.9,107,259.7c0,7.5,0,28.9,-3.1,28.9c-1.5,0,-3,0,-7.6,-4.6C247.5,10.7,230.7,0,207.8,0C161.9,0,132.9,33.6,132.9,74.9c0,39.7,29,73.3,73.4,73.3c59.5,0,91.6,-59.6,91.6,-154.2c0,-175.7,-116.1,-288.8,-129.8,-288.8Z" 
	id="f1_e"
	transform="scale(0.001,-0.001)" />

	<path d="M605,522.5c259.7,0,259.7,171.1,259.7,236.8c0,68.8,0,236.8,-259.7,236.8l-154.3,0c-71.8,0,-74.9,-10.7,-74.9,-61.1l0,-412.5ZM87.1,0l0,47.4l36.7,0c117.6,0,120.6,16.8,120.6,71.8l0,805.1c0,55,-3,71.8,-120.6,71.8l-36.7,0l0,47.4l557.6,0c215.4,0,377.4,-132.9,377.4,-284.2C1022.1,601.9,843.3,482.8,656.9,482.8l-276.5,0l0,-363.6c0,-55,3.1,-71.8,120.7,-71.8l36.7,0L484.3,4.6l-230.7,0C140.6,4.6,311.7,0,87.1,0Z" 
	id="f2_e"
	transform="scale(0.001,-0.001)" />

	<path d="M65.7,0l0,38.2c102.4,0,110,9.2,110,71.8l0,560.7c0,62.6,-7.6,71.8,-110,71.8l0,38.2l679.9,0l29,-258.2l-38.2,0c-16.8,166.5,-56.5,220,-233.8,220l-155.8,0c-53.5,0,-61.1,-4.6,-61.1,-65.7l0,-252.1l106.9,0c113.1,0,131.4,30.6,131.4,132.9l38.2,0l0,-304l-38.2,0C524,356,505.7,386.5,392.6,386.5l-106.9,0l0,-282.6c0,-61.1,7.6,-65.7,61.1,-65.7l165,0C707.4,38.2,744,111.5,770,296.4l38.2,0L763.9,0Z" 
	id="f2_o"
	transform="scale(0.001,-0.001)" />

	<path d="M418.6,409.4c198.6,0,206.3,110,206.3,169.6c0,163.5,-129.9,168.1,-243,168.1c-27.5,0,-68.7,0,-79.4,-4.6c-15.3,-7.6,-18.3,-22.9,-18.3,-61.1l0,-272ZM785.3,-21.3C716.5,-21.3,655.4,1.5,627.9,29C579,76.4,579,103.9,579,189.4c0,67.3,0,103.9,-32.1,137.5c-47.3,47.4,-87,48.9,-125.2,48.9l-137.5,0l0,-265.8c0,-62.6,7.6,-71.8,110,-71.8L354.4,1.5C275,4.6,230.7,4.6,187.9,4.6C114.6,1.5,230.7,0,68.8,0l0,38.2c102.3,0,110,9.2,110,71.8l0,565.3c0,62.6,-7.7,71.8,-110,71.8l0,38.2l366.6,0C620.3,785.3,756.3,686,756.3,579c0,-93.2,-94.8,-161.9,-201.7,-189.4C669.2,345.3,684.4,267.4,696.7,213.9c19.8,-97.8,29,-140.6,41.2,-165c9.2,-16.8,22.9,-36.7,53.5,-36.7c10.7,0,65.7,1.6,76.4,94.7c0,6.2,1.5,19.9,18.3,19.9c19.9,0,19.9,-15.3,19.9,-22.9C906,73.3,883.1,-21.3,785.3,-21.3Z" 
	id="f2_10"
	transform="scale(0.001,-0.001)" />

	<path d="M84,0l0,47.4l36.7,0c117.6,0,120.7,16.8,120.7,71.8l0,805.1c0,55,-3.1,71.8,-120.7,71.8l-36.7,0l53.5,42.8l241.4,0c139,0,-62.6,4.6,194,4.6l0,-47.4l-50.4,0c-145.1,0,-145.1,-21.4,-145.1,-73.3l0,-814.3c0,-50.4,3,-61.1,74.8,-61.1l143.6,0c281.1,0,302.5,194,319.3,346.8l38.2,0L910.6,0Z" 
	id="f2_a"
	transform="scale(0.001,-0.001)" />

	<path d="M59.6,0l0,38.2c108.5,0,116.1,7.6,116.1,73.3l0,562.3c0,65.6,-7.6,73.3,-116.1,73.3l51.9,36.7c79.5,-3.1,119.2,-3.1,158.9,-3.1c79.5,3.1,-39.7,4.6,131.4,4.6l0,-38.2c-108.5,0,-116.1,-7.7,-116.1,-73.3l0,-562.3c0,-65.7,7.6,-73.3,116.1,-73.3L349.9,1.5C270.4,4.6,230.7,4.6,191,4.6C111.5,1.5,230.7,0,59.6,0Z" 
	id="f2_s"
	transform="scale(0.001,-0.001)" />

	<path d="M65.7,0l0,38.2c110,0,110,81,110,116.1l0,582.1c-30.6,10.7,-73.3,10.7,-110,10.7l0,38.2l183.3,0c29.1,0,32.1,0,45.9,-19.9L718.1,177.2l0,453.8c0,35.1,0,116.1,-110,116.1l38.2,35.1c70.2,-1.5,93.1,-1.5,123.7,-1.5c68.8,3.1,-30.6,4.6,100.8,4.6l0,-38.2c-110,0,-110,-81,-110,-116.1l0,-591.3c0,-29,0,-39.7,-21.4,-39.7c-9.1,0,-13.7,0,-25.9,16.8L233.8,682.9l-15.3,18.4l0,-547c0,-35.1,0,-116.1,110,-116.1L290.3,3.1C220,4.6,197.1,4.6,166.5,4.6C97.8,1.5,197.1,0,65.7,0Z" 
	id="f2_w"
	transform="scale(0.001,-0.001)" />

	<path d="M669.2,-33.5C366.7,-33.5,110,210.8,110,522.5c0,310.1,256.7,554.6,557.6,554.6c157.4,0,250.6,-84,301,-136l79.5,117.7c12.2,18.3,18.3,18.3,24.4,18.3c16.8,0,16.8,-10.7,16.8,-36.7l0,-362.1c0,-32,0,-36.6,-24.4,-36.6c-19.9,0,-21.4,4.6,-24.5,25.9c-35.1,235.3,-191,362.1,-354.4,362.1c-105.4,0,-418.6,-58,-418.6,-508.7C267.4,93.2,554.6,13.8,689,13.8c171.1,0,349.9,122.2,362.1,343.7c1.5,15.3,1.5,24.4,18.3,24.4c19.9,0,19.9,-10.6,19.9,-25.9C1089.3,174.2,927.4,-33.5,669.2,-33.5Z" 
	id="f2_2"
	transform="scale(0.001,-0.001)" />


</defs>
</svg>