<?xml version="1.0" encoding="UTF-8" standalone="no"?>
<!DOCTYPE svg PUBLIC "-//W3C//DTD SVG 1.1//EN"
"http://www.w3.org/Graphics/SVG/1.1/DTD/svg11.dtd">
<svg viewBox="0 0 909 1286" version="1.1" xmlns="http://www.w3.org/2000/svg" xmlns:xlink="http://www.w3.org/1999/xlink">
<defs>
</defs>
<g fill="#000000" >
<use xlink:href="#f0_m" transform="matrix(24.8,0,0,24.8,368.3,530.6)" />
<use xlink:href="#f0_1o" transform="matrix(24.8,0,0,24.8,400.5,530.6)" />
<use xlink:href="#f0_1o" transform="matrix(24.8,0,0,24.8,424.2,530.6)" />
<use xlink:href="#f0_1d" transform="matrix(24.8,0,0,24.8,449,530.6)" />
<use xlink:href="#f0_1m" transform="matrix(24.8,0,0,24.8,468.4,530.6)" />
<use xlink:href="#f0_1c" transform="matrix(24.8,0,0,24.8,492.1,530.6)" />
<use xlink:href="#f0_1h" transform="matrix(24.8,0,0,24.8,515.8,530.6)" />
<use xlink:href="#f0_1b" transform="matrix(24.8,0,0,24.8,527.6,530.6)" />
<use xlink:href="#f0_1d" transform="matrix(24.8,0,0,24.8,546.6,530.6)" />
<use xlink:href="#f0_1r" transform="matrix(24.8,0,0,24.8,566,530.6)" />
<use xlink:href="#f0_h" transform="matrix(12,0,0,12,487.5,1227.4)" />
<use xlink:href="#f0_b" transform="matrix(12,0,0,12,497.8,1227.4)" />
</g>
<defs>
	<path d="M759.3,369.7l-177.2,440L403.3,369.7ZM59.6,0l0,65.7l27.5,0c33.6,0,39.7,0,77.9,4.6c42.8,4.6,42.8,7.6,53.5,32.1l378.9,931.9c10.7,27.5,13.7,35.1,51.9,35.1c36.7,0,39.7,-7.6,50.4,-35.1L1092.4,65.7l145.1,0L1199.3,3.1l-262.8,0C788.3,3.1,994.6,0,739.4,0l0,65.7l143.7,0L786.8,304l-409.4,0l-81,-198.6c-3.1,-6.1,-3.1,-9.1,-7.6,-22.9C331.5,65.7,389.6,65.7,423.2,65.7L388.1,3.1L191,3.1C99.3,3.1,235.3,0,59.6,0Z" 
	id="f0_m"
	transform="scale(0.001,-0.001)" />

	<path d="M504.2,41.3c97.7,0,207.7,77.9,207.7,299.4c0,201.7,-90.1,291.8,-189.4,291.8c-59.6,0,-140.6,-24.4,-197.1,-97.8l0,-388C372.8,74.9,438.5,41.3,504.2,41.3ZM53.5,-296.3l0,65.7l105.4,0l0,780.6c0,59.6,-10.7,59.6,-105.4,59.6l0,65.7l264.3,12.2l0,-79.4c61.1,48.8,139,79.4,229.1,79.4c206.3,0,348.4,-136,348.4,-346.8C895.3,117.6,731.8,-9.1,522.5,-9.1C430.8,-9.1,363.6,29,325.4,62.6l0,-293.2l105.4,0l-35.1,-62.6l-197.1,0c-110,0,42.8,-3.1,-145.1,-3.1Z" 
	id="f0_1o"
	transform="scale(0.001,-0.001)" />

	<path d="M594.3,381.9C592.8,458.3,579,641.7,415.6,641.7c-65.7,0,-119.2,-33.6,-148.2,-82.5C235.3,504.2,233.8,444.6,230.7,381.9ZM435.4,-9.1c-230.7,0,-388,139,-388,352.9c0,192.5,129.8,348.3,368.2,348.3c88.6,0,174.1,-19.9,238.3,-84c70.3,-71.8,81,-186.4,81,-232.3c0,-38.2,-9.2,-38.2,-44.3,-38.2l-459.9,0c0,-85.5,1.5,-291.8,223.1,-291.8c73.3,0,174.1,32.1,213.8,131.4c9.2,19.9,10.7,24.5,35.2,24.5c9.1,0,32.1,0,32.1,-22.9c0,-26,-68.8,-187.9,-299.5,-187.9Z" 
	id="f0_1d"
	transform="scale(0.001,-0.001)" />

	<path d="M64.2,0l0,65.7l105.4,0l0,484.3c0,59.6,-10.7,59.6,-105.4,59.6l0,65.7l258.2,12.2l0,-168.1l1.5,0C375.8,634,470.6,687.5,580.6,687.5c168,0,230.7,-74.9,230.7,-220l0,-401.8l105.4,0L881.5,3.1l-197.1,0C574.4,3.1,727.2,0,539.3,0l0,65.7l105.4,0l0,418.6c0,116.1,-32.1,152.8,-88.6,152.8c-97.8,0,-220,-81,-220,-246l0,-325.4l105.4,0L406.4,3.1l-197.1,0C99.3,3.1,252.1,0,64.2,0Z" 
	id="f0_1m"
	transform="scale(0.001,-0.001)" />

	<path d="M430.8,41.3c55,0,133,19.8,197.1,113l0,388.1c-50.4,67.2,-117.6,94.7,-180.3,94.7c-35.1,0,-125.2,-9.2,-172.6,-94.7C241.4,484.3,241.4,407.9,241.4,336.1c0,-100.8,0,-294.8,189.4,-294.8ZM412.5,-9.1C209.3,-9.1,58.1,120.7,58.1,339.2c0,213.9,154.3,348.3,371.2,348.3c105.4,0,172.6,-44.3,206.3,-73.3l0,308.6c0,59.6,-10.7,59.6,-105.5,59.6l0,65.7l264.3,12.2l0,-935c0,-59.6,10.7,-59.6,105.5,-59.6L899.9,0l-272,-9.1l0,79.4C568.3,19.9,496.5,-9.1,412.5,-9.1Z" 
	id="f0_1c"
	transform="scale(0.001,-0.001)" />

	<path d="M67.2,0l0,65.7l105.4,0l0,484.3c0,59.6,-10.7,59.6,-100.8,59.6l0,65.7l259.7,12.2l0,-621.8l94.8,0L389.6,3.1l-181.8,0C102.4,3.1,249,0,67.2,0ZM230.7,841.8c-62.6,0,-110,52,-110,110c0,58.1,47.4,110,110,110c59.6,0,110,-47.4,110,-110c0,-62.6,-50.4,-110,-110,-110Z" 
	id="f0_1h"
	transform="scale(0.001,-0.001)" />

	<path d="M427.8,-9.1C203.2,-9.1,58.1,131.4,58.1,339.2c0,175.7,106.9,352.9,378.8,352.9c82.5,0,258.2,-9.2,258.2,-134.5C695.1,485.8,637.1,466,605,466c-38.2,0,-90.1,25.9,-90.1,90.1c0,38.2,19.8,61.1,24.4,65.7c3.1,1.5,4.6,3.1,4.6,4.6c0,7.6,-90.1,10.7,-100.8,10.7C242.9,637.1,241.4,436.9,241.4,346.8c0,-68.7,0,-301,215.4,-301c140.6,0,181.8,102.4,192.5,131.4c7.6,18.4,9.2,19.9,33.6,19.9c15.3,0,32.1,0,32.1,-18.3C715,168.1,667.6,-9.1,427.8,-9.1Z" 
	id="f0_1b"
	transform="scale(0.001,-0.001)" />

	<path d="M81,-9.1C58.1,-9.1,58.1,1.5,58.1,30.6l0,175.7c0,35.1,0,39.7,32,39.7c26,0,27.5,-1.6,36.7,-32.1C169.6,65.7,265.8,41.3,343.8,41.3c32,0,171.1,0,171.1,117.6c0,64.2,-61.1,102.4,-122.3,116.1c-6.1,0,-56.5,9.2,-97.7,16.8C247.5,299.4,58.1,333.1,58.1,493.5c0,198.6,229.1,198.6,275,198.6c55,0,111.5,-9.2,154.3,-33.6c7.6,4.6,24.4,15.3,30.5,19.8c22.9,13.8,26,13.8,35.2,13.8c22.9,0,22.9,-10.7,22.9,-39.7L576,521c0,-35.2,0,-39.7,-32.1,-39.7c-18.3,0,-30.6,0,-32.1,19.8c-3,38.2,-12.2,145.2,-181.8,145.2c-32.1,0,-168.1,0,-168.1,-99.4c0,-73.3,91.7,-90.1,189.5,-106.9c82.5,-15.3,134.4,-24.4,197.1,-76.4C579,336.1,618.8,285.7,618.8,212.4C618.8,9.2,427.8,-9.1,343.8,-9.1c-27.5,0,-110,0,-178.8,53.4l-39.7,-29C94.7,-9.1,91.7,-9.1,81,-9.1Z" 
	id="f0_1r"
	transform="scale(0.001,-0.001)" />

	<path d="M381.9,-18.2c-12.2,0,-90.1,0,-90.1,102.2c0,74.9,13.8,212.4,103.9,389.6c47.4,90.2,67.2,114.6,244.4,330l-276.5,0c-24.4,0,-151.2,0,-165,-9.2c-26,-16.8,-38.2,-123.7,-39.7,-139l-64.2,0l50.4,377.4l64.2,0c3.1,-15.3,6.1,-32.1,44.3,-38.2c18.3,-3.1,246,-10.7,256.7,-10.7l322.3,0c0,-50.4,0,-53.5,-13.7,-68.8L589.7,641.7C493.5,527.1,472.1,356,472.1,122.2c0,-67.2,0,-85.5,-19.9,-110C441.5,1.5,420.1,-18.2,381.9,-18.2Z" 
	id="f0_h"
	transform="scale(0.001,-0.001)" />

	<path d="M143.6,0l0,65.7l212.4,0l0,802.1c-61.1,-19.9,-142.1,-29,-195.6,-29l-29,0l0,65.6l29,0c33.6,0,203.2,0,316.3,97.8c48.9,0,51.9,0,51.9,-44.3l0,-892.2l209.3,0L673.8,3.1l-305.6,0C207.8,3.1,440,0,143.6,0Z" 
	id="f0_b"
	transform="scale(0.001,-0.001)" />


</defs>
</svg>