<?xml version="1.0" encoding="UTF-8" standalone="no"?>
<!DOCTYPE svg PUBLIC "-//W3C//DTD SVG 1.1//EN"
"http://www.w3.org/Graphics/SVG/1.1/DTD/svg11.dtd">
<svg viewBox="0 0 909 1286" version="1.1" xmlns="http://www.w3.org/2000/svg" xmlns:xlink="http://www.w3.org/1999/xlink">
<defs>
<style type="text/css"><![CDATA[
.g1_10{
fill: none;
stroke: #000000;
stroke-width: 0.6080556;
stroke-linecap: butt;
stroke-linejoin: miter;
}
]]></style>
</defs>
<g fill="#000000" >
<use xlink:href="#f0_1u" transform="matrix(12,0,0,12,42.8,96.9)" />
<use xlink:href="#f0_1h" transform="matrix(12,0,0,12,53.6,96.9)" />
<use xlink:href="#f0_1h" transform="matrix(12,0,0,12,59.3,96.9)" />
<use xlink:href="#f0_1h" transform="matrix(12,0,0,12,65,96.9)" />
<use xlink:href="#f0_o" transform="matrix(12,0,0,12,699.3,96.9)" />
<use xlink:href="#f0_1n" transform="matrix(12,0,0,12,714.1,96.9)" />
<use xlink:href="#f0_1m" transform="matrix(12,0,0,12,724.4,96.9)" />
<use xlink:href="#f0_1s" transform="matrix(12,0,0,12,735.2,96.9)" />
<use xlink:href="#f0_1d" transform="matrix(12,0,0,12,743.2,96.9)" />
<use xlink:href="#f0_1m" transform="matrix(12,0,0,12,752.6,96.9)" />
<use xlink:href="#f0_1s" transform="matrix(12,0,0,12,763.4,96.9)" />
<use xlink:href="#f0_1r" transform="matrix(12,0,0,12,771.4,96.9)" />
</g>
<path d="M43.3,103.8l736.2,0" class="g1_10" />
<defs>
	<path d="M453.8,-7.5c-35.2,0,-38.2,7.5,-52,36.5L132.9,612.6l-96.2,0l39.7,62.7l174.2,0c106.9,0,-41.3,3,142,3l0,-65.7l-84,0L505.7,183.3L684.4,576c7.7,15.3,7.7,16.8,7.7,18.3c0,10.7,-33.6,18.3,-74.9,18.3l87.1,62.7l107,0c3,0,-62.7,3,58,3l0,-65.7c-96.2,0,-102.4,-12.2,-113,-35.1L504.2,26C490.4,-4.5,478.2,-7.5,453.8,-7.5Z" 
	id="f0_1u"
	transform="scale(0.001,-0.001)" />

	<path d="M67.2,0l0,65.7l105.4,0l0,484.3c0,59.6,-10.7,59.6,-100.8,59.6l0,65.7l259.7,12.2l0,-621.8l94.8,0L389.6,3.1l-181.8,0C102.4,3.1,249,0,67.2,0ZM230.7,841.8c-62.6,0,-110,52,-110,110c0,58.1,47.4,110,110,110c59.6,0,110,-47.4,110,-110c0,-62.6,-50.4,-110,-110,-110Z" 
	id="f0_1h"
	transform="scale(0.001,-0.001)" />

	<path d="M696.7,-18.2c-374.3,0,-602,227.5,-602,542.2c0,320.9,235.3,542.4,600.4,542.4c113.1,0,215.5,-36.7,301,-110l114.6,110c33.6,0,33.6,-4.6,33.6,-39.7l0,-333.1c0,-36.7,0,-39.7,-35.1,-39.7c-18.4,0,-32.1,0,-35.2,13.7c-45.8,268.9,-230.7,333.1,-345.2,333.1c-73.4,0,-226.2,-15.3,-323.9,-129.9C333.1,785.3,310.1,673.8,310.1,524C310.1,313.2,359,229.2,412.5,171.1C498.1,74.9,632.5,47.4,731.8,47.4c137.5,0,334.6,79.4,348.3,311.6c1.6,16.8,16.8,16.8,32.1,16.8c22.9,0,32.1,-1.5,32.1,-27.5C1144.3,168.1,968.6,-18.2,696.7,-18.2Z" 
	id="f0_o"
	transform="scale(0.001,-0.001)" />

	<path d="M429.3,45.8c197.1,0,197.1,177.3,197.1,304.1c0,73.3,0,152.7,-30.6,207.7c-25.9,42.8,-80.9,84.1,-168,84.1c-65.7,0,-134.5,-27.5,-168.1,-88.6c-29,-55,-29,-131.4,-29,-203.2c0,-125.3,0,-304.1,198.6,-304.1ZM427.8,-9.1C187.9,-9.1,47.4,134.4,47.4,334.6c0,198.6,132.9,357.5,381.9,357.5c239.9,0,380.4,-151.3,380.4,-357.5C809.7,142.1,676.8,-9.1,427.8,-9.1Z" 
	id="f0_1n"
	transform="scale(0.001,-0.001)" />

	<path d="M64.2,0l0,65.7l105.4,0l0,484.3c0,59.6,-10.7,59.6,-105.4,59.6l0,65.7l258.2,12.2l0,-168.1l1.5,0C375.8,634,470.6,687.5,580.6,687.5c168,0,230.7,-74.9,230.7,-220l0,-401.8l105.4,0L881.5,3.1l-197.1,0C574.4,3.1,727.2,0,539.3,0l0,65.7l105.4,0l0,418.6c0,116.1,-32.1,152.8,-88.6,152.8c-97.8,0,-220,-81,-220,-246l0,-325.4l105.4,0L406.4,3.1l-197.1,0C99.3,3.1,252.1,0,64.2,0Z" 
	id="f0_1m"
	transform="scale(0.001,-0.001)" />

	<path d="M391.1,-9.1c-110,0,-235.3,35.1,-235.3,197l0,424.7l-123.7,0l0,50.5c151.2,4.5,224.6,155.8,226.1,307l64.2,0l0,-291.8l220,0l0,-65.7l-220,0l0,-429.3c0,-35.1,0,-137.5,91.6,-137.5c47.4,0,93.2,44.3,93.2,145.2l0,79.4l64.2,0l0,-81C571.4,76.4,504.2,-9.1,391.1,-9.1Z" 
	id="f0_1s"
	transform="scale(0.001,-0.001)" />

	<path d="M594.3,381.9C592.8,458.3,579,641.7,415.6,641.7c-65.7,0,-119.2,-33.6,-148.2,-82.5C235.3,504.2,233.8,444.6,230.7,381.9ZM435.4,-9.1c-230.7,0,-388,139,-388,352.9c0,192.5,129.8,348.3,368.2,348.3c88.6,0,174.1,-19.9,238.3,-84c70.3,-71.8,81,-186.4,81,-232.3c0,-38.2,-9.2,-38.2,-44.3,-38.2l-459.9,0c0,-85.5,1.5,-291.8,223.1,-291.8c73.3,0,174.1,32.1,213.8,131.4c9.2,19.9,10.7,24.5,35.2,24.5c9.1,0,32.1,0,32.1,-22.9c0,-26,-68.8,-187.9,-299.5,-187.9Z" 
	id="f0_1d"
	transform="scale(0.001,-0.001)" />

	<path d="M81,-9.1C58.1,-9.1,58.1,1.5,58.1,30.6l0,175.7c0,35.1,0,39.7,32,39.7c26,0,27.5,-1.6,36.7,-32.1C169.6,65.7,265.8,41.3,343.8,41.3c32,0,171.1,0,171.1,117.6c0,64.2,-61.1,102.4,-122.3,116.1c-6.1,0,-56.5,9.2,-97.7,16.8C247.5,299.4,58.1,333.1,58.1,493.5c0,198.6,229.1,198.6,275,198.6c55,0,111.5,-9.2,154.3,-33.6c7.6,4.6,24.4,15.3,30.5,19.8c22.9,13.8,26,13.8,35.2,13.8c22.9,0,22.9,-10.7,22.9,-39.7L576,521c0,-35.2,0,-39.7,-32.1,-39.7c-18.3,0,-30.6,0,-32.1,19.8c-3,38.2,-12.2,145.2,-181.8,145.2c-32.1,0,-168.1,0,-168.1,-99.4c0,-73.3,91.7,-90.1,189.5,-106.9c82.5,-15.3,134.4,-24.4,197.1,-76.4C579,336.1,618.8,285.7,618.8,212.4C618.8,9.2,427.8,-9.1,343.8,-9.1c-27.5,0,-110,0,-178.8,53.4l-39.7,-29C94.7,-9.1,91.7,-9.1,81,-9.1Z" 
	id="f0_1r"
	transform="scale(0.001,-0.001)" />


</defs>
</svg>