<?xml version="1.0" encoding="UTF-8" standalone="no"?>
<!DOCTYPE svg PUBLIC "-//W3C//DTD SVG 1.1//EN"
"http://www.w3.org/Graphics/SVG/1.1/DTD/svg11.dtd">
<svg viewBox="0 0 909 1286" version="1.1" xmlns="http://www.w3.org/2000/svg" xmlns:xlink="http://www.w3.org/1999/xlink">
<defs>
</defs>
<g fill="#000000" >
<use xlink:href="#f0_0" transform="matrix(99.6,0,0,99.6,713.1,460.5)" />
<use xlink:href="#f1_6" transform="matrix(24.9,0,0,24.9,185.1,517.2)" />
<use xlink:href="#f1_w" transform="matrix(24.9,0,0,24.9,209.9,517.2)" />
<use xlink:href="#f1_v" transform="matrix(24.9,0,0,24.9,232.7,517.2)" />
<use xlink:href="#f1_r" transform="matrix(24.9,0,0,24.9,246.4,517.2)" />
<use xlink:href="#f1_3" transform="matrix(24.9,0,0,24.9,268.3,517.2)" />
<use xlink:href="#f1_l" transform="matrix(24.9,0,0,24.9,280.7,517.2)" />
<use xlink:href="#f1_j" transform="matrix(24.9,0,0,24.9,301.7,517.2)" />
<use xlink:href="#f1_q" transform="matrix(24.9,0,0,24.9,321.6,517.2)" />
<use xlink:href="#f1_j" transform="matrix(24.9,0,0,24.9,344.6,517.2)" />
<use xlink:href="#f1_t" transform="matrix(24.9,0,0,24.9,364.6,517.2)" />
<use xlink:href="#f1_f" transform="matrix(24.9,0,0,24.9,380.6,517.2)" />
<use xlink:href="#f1_v" transform="matrix(24.9,0,0,24.9,401.3,517.2)" />
<use xlink:href="#f1_j" transform="matrix(24.9,0,0,24.9,414.9,517.2)" />
<use xlink:href="#f1_i" transform="matrix(24.9,0,0,24.9,434.9,517.2)" />
<use xlink:href="#f1_t" transform="matrix(24.9,0,0,24.9,468.6,517.2)" />
<use xlink:href="#f1_j" transform="matrix(24.9,0,0,24.9,484.6,517.2)" />
<use xlink:href="#f1_s" transform="matrix(24.9,0,0,24.9,504.6,517.2)" />
<use xlink:href="#f1_r" transform="matrix(24.9,0,0,24.9,527.1,517.2)" />
<use xlink:href="#f1_t" transform="matrix(24.9,0,0,24.9,549,517.2)" />
<use xlink:href="#f1_v" transform="matrix(24.9,0,0,24.9,565,517.2)" />
<use xlink:href="#f1_k" transform="matrix(24.9,0,0,24.9,589.7,517.2)" />
<use xlink:href="#f1_r" transform="matrix(24.9,0,0,24.9,602.7,517.2)" />
<use xlink:href="#f1_t" transform="matrix(24.9,0,0,24.9,624.7,517.2)" />
<use xlink:href="#f1_4" transform="matrix(24.9,0,0,24.9,651.8,517.2)" />
<use xlink:href="#f1_5" transform="matrix(24.9,0,0,24.9,673.9,517.2)" />
<use xlink:href="#f1_3" transform="matrix(24.9,0,0,24.9,696,517.2)" />
<use xlink:href="#f1_f" transform="matrix(24.9,0,0,24.9,708.4,517.2)" />
<use xlink:href="#f1_m" transform="matrix(24.9,0,0,24.9,729.1,517.2)" />
<use xlink:href="#f1_t" transform="matrix(24.9,0,0,24.9,740.7,517.2)" />
<use xlink:href="#f1_o" transform="matrix(24.9,0,0,24.9,756.7,517.2)" />
<use xlink:href="#f1_m" transform="matrix(24.9,0,0,24.9,768.3,517.2)" />
<use xlink:href="#f1_q" transform="matrix(24.9,0,0,24.9,779.9,517.2)" />
<use xlink:href="#f1_j" transform="matrix(24.9,0,0,24.9,802.9,517.2)" />
<use xlink:href="#f1_i" transform="matrix(24.9,0,0,24.9,360.8,573.9)" />
<use xlink:href="#f1_f" transform="matrix(24.9,0,0,24.9,383.5,573.9)" />
<use xlink:href="#f1_v" transform="matrix(24.9,0,0,24.9,404.2,573.9)" />
<use xlink:href="#f1_f" transform="matrix(24.9,0,0,24.9,417.8,573.9)" />
<use xlink:href="#f1_u" transform="matrix(24.9,0,0,24.9,438.5,573.9)" />
<use xlink:href="#f1_j" transform="matrix(24.9,0,0,24.9,455.5,573.9)" />
<use xlink:href="#f1_v" transform="matrix(24.9,0,0,24.9,475.4,573.9)" />
<use xlink:href="#f1_1" transform="matrix(24.9,0,0,24.9,500.1,573.9)" />
<use xlink:href="#f1_11" transform="matrix(24.9,0,0,24.9,516.4,573.9)" />
<use xlink:href="#f1_x" transform="matrix(24.9,0,0,24.9,540.1,573.9)" />
<use xlink:href="#f1_j" transform="matrix(24.9,0,0,24.9,559.6,573.9)" />
<use xlink:href="#f1_g" transform="matrix(24.9,0,0,24.9,590.6,573.9)" />
<use xlink:href="#f1_f" transform="matrix(24.9,0,0,24.9,612.6,573.9)" />
<use xlink:href="#f1_u" transform="matrix(24.9,0,0,24.9,633.3,573.9)" />
<use xlink:href="#f1_j" transform="matrix(24.9,0,0,24.9,650.3,573.9)" />
<use xlink:href="#f1_n" transform="matrix(24.9,0,0,24.9,681.3,573.9)" />
<use xlink:href="#f1_j" transform="matrix(24.9,0,0,24.9,702.3,573.9)" />
<use xlink:href="#f1_t" transform="matrix(24.9,0,0,24.9,722.3,573.9)" />
<use xlink:href="#f1_q" transform="matrix(24.9,0,0,24.9,738.3,573.9)" />
<use xlink:href="#f1_j" transform="matrix(24.9,0,0,24.9,761.3,573.9)" />
<use xlink:href="#f1_o" transform="matrix(24.9,0,0,24.9,781.2,573.9)" />
<use xlink:href="#f1_u" transform="matrix(24.9,0,0,24.9,792.8,573.9)" />
<use xlink:href="#f1_2" transform="matrix(24.9,0,0,24.9,809.8,573.9)" />
<use xlink:href="#f2_1g" transform="matrix(12.2,0,0,12,129.3,697.6)" />
<use xlink:href="#f2_1z" transform="matrix(12.2,0,0,12,142.4,697.6)" />
<use xlink:href="#f2_1w" transform="matrix(12.2,0,0,12,152.5,697.6)" />
<use xlink:href="#f2_1x" transform="matrix(12.2,0,0,12,166.6,697.6)" />
<use xlink:href="#f2_26" transform="matrix(12.2,0,0,12,172.2,697.6)" />
<use xlink:href="#f2_23" transform="matrix(12.2,0,0,12,181.3,697.6)" />
<use xlink:href="#f2_23" transform="matrix(12.2,0,0,12,186.3,697.6)" />
<use xlink:href="#f2_26" transform="matrix(12.2,0,0,12,191.4,697.6)" />
<use xlink:href="#f2_2e" transform="matrix(12.2,0,0,12,200,697.6)" />
<use xlink:href="#f2_20" transform="matrix(12.2,0,0,12,213.2,697.6)" />
<use xlink:href="#f2_25" transform="matrix(12.2,0,0,12,218.2,697.6)" />
<use xlink:href="#f2_1y" transform="matrix(12.2,0,0,12,228.3,697.6)" />
<use xlink:href="#f2_27" transform="matrix(12.2,0,0,12,243.4,697.6)" />
<use xlink:href="#f2_1s" transform="matrix(12.2,0,0,12,253.5,697.6)" />
<use xlink:href="#f2_1y" transform="matrix(12.2,0,0,12,262.6,697.6)" />
<use xlink:href="#f2_1w" transform="matrix(12.2,0,0,12,271.7,697.6)" />
<use xlink:href="#f2_2a" transform="matrix(12.2,0,0,12,279.8,697.6)" />
<use xlink:href="#f2_20" transform="matrix(12.2,0,0,12,293,697.6)" />
<use xlink:href="#f2_25" transform="matrix(12.2,0,0,12,298.1,697.6)" />
<use xlink:href="#f2_1u" transform="matrix(12.2,0,0,12,308.2,697.6)" />
<use xlink:href="#f2_23" transform="matrix(12.2,0,0,12,316.3,697.6)" />
<use xlink:href="#f2_2c" transform="matrix(12.2,0,0,12,321.3,697.6)" />
<use xlink:href="#f2_1v" transform="matrix(12.2,0,0,12,331.4,697.6)" />
<use xlink:href="#f2_1w" transform="matrix(12.2,0,0,12,341.6,697.6)" />
<use xlink:href="#f2_1s" transform="matrix(12.2,0,0,12,355.6,697.6)" />
<use xlink:href="#f2_25" transform="matrix(12.2,0,0,12,364.7,697.6)" />
<use xlink:href="#f2_1s" transform="matrix(12.2,0,0,12,380.8,697.6)" />
<use xlink:href="#f2_2c" transform="matrix(12.2,0,0,12,389.9,697.6)" />
<use xlink:href="#f2_2b" transform="matrix(12.2,0,0,12,400.1,697.6)" />
<use xlink:href="#f2_26" transform="matrix(12.2,0,0,12,407.1,697.6)" />
<use xlink:href="#f2_24" transform="matrix(12.2,0,0,12,416.2,697.6)" />
<use xlink:href="#f2_1s" transform="matrix(12.2,0,0,12,431.4,697.6)" />
<use xlink:href="#f2_2b" transform="matrix(12.2,0,0,12,440.5,697.6)" />
<use xlink:href="#f2_20" transform="matrix(12.2,0,0,12,447.6,697.6)" />
<use xlink:href="#f2_1u" transform="matrix(12.2,0,0,12,452.7,697.6)" />
<use xlink:href="#f2_1s" transform="matrix(12.2,0,0,12,460.7,697.6)" />
<use xlink:href="#f2_23" transform="matrix(12.2,0,0,12,469.8,697.6)" />
<use xlink:href="#f2_23" transform="matrix(12.2,0,0,12,474.9,697.6)" />
<use xlink:href="#f2_2g" transform="matrix(12.2,0,0,12,480,697.6)" />
<use xlink:href="#f2_1y" transform="matrix(12.2,0,0,12,495.6,697.6)" />
<use xlink:href="#f2_1w" transform="matrix(12.2,0,0,12,504.7,697.6)" />
<use xlink:href="#f2_25" transform="matrix(12.2,0,0,12,512.8,697.6)" />
<use xlink:href="#f2_1w" transform="matrix(12.2,0,0,12,522.9,697.6)" />
<use xlink:href="#f2_29" transform="matrix(12.2,0,0,12,531,697.6)" />
<use xlink:href="#f2_1s" transform="matrix(12.2,0,0,12,538,697.6)" />
<use xlink:href="#f2_2b" transform="matrix(12.2,0,0,12,547.1,697.6)" />
<use xlink:href="#f2_1w" transform="matrix(12.2,0,0,12,554.2,697.6)" />
<use xlink:href="#f2_1v" transform="matrix(12.2,0,0,12,562.3,697.6)" />
<use xlink:href="#f2_29" transform="matrix(12.2,0,0,12,578.4,697.6)" />
<use xlink:href="#f2_1w" transform="matrix(12.2,0,0,12,585.5,697.6)" />
<use xlink:href="#f2_27" transform="matrix(12.2,0,0,12,593.6,697.6)" />
<use xlink:href="#f2_26" transform="matrix(12.2,0,0,12,604.2,697.6)" />
<use xlink:href="#f2_29" transform="matrix(12.2,0,0,12,613.3,697.6)" />
<use xlink:href="#f2_2b" transform="matrix(12.2,0,0,12,620.4,697.6)" />
<use xlink:href="#f2_27" transform="matrix(12.2,0,0,12,633.4,697.6)" />
<use xlink:href="#f2_29" transform="matrix(12.2,0,0,12,643.6,697.6)" />
<use xlink:href="#f2_26" transform="matrix(12.2,0,0,12,650.6,697.6)" />
<use xlink:href="#f2_1v" transform="matrix(12.2,0,0,12,660.2,697.6)" />
<use xlink:href="#f2_2c" transform="matrix(12.2,0,0,12,670.4,697.6)" />
<use xlink:href="#f2_1u" transform="matrix(12.2,0,0,12,680.5,697.6)" />
<use xlink:href="#f2_1w" transform="matrix(12.2,0,0,12,688.6,697.6)" />
<use xlink:href="#f2_1v" transform="matrix(12.2,0,0,12,696.7,697.6)" />
<use xlink:href="#f2_1t" transform="matrix(12.2,0,0,12,712.8,697.6)" />
<use xlink:href="#f2_2g" transform="matrix(12.2,0,0,12,722.4,697.6)" />
<use xlink:href="#f2_2b" transform="matrix(12.2,0,0,12,738,697.6)" />
<use xlink:href="#f2_1z" transform="matrix(12.2,0,0,12,745,697.6)" />
<use xlink:href="#f2_1w" transform="matrix(12.2,0,0,12,755.2,697.6)" />
<use xlink:href="#f2_x" transform="matrix(12.2,0,0,12,769.2,697.6)" />
<use xlink:href="#f2_y" transform="matrix(12.2,0,0,12,782.9,697.6)" />
<use xlink:href="#f2_z" transform="matrix(12.2,0,0,12,795.8,697.6)" />
<use xlink:href="#f2_10" transform="matrix(12.2,0,0,12,808.9,697.6)" />
<use xlink:href="#f2_2a" transform="matrix(12.2,0,0,12,129.9,725)" />
<use xlink:href="#f2_2g" transform="matrix(12.2,0,0,12,137.1,725)" />
<use xlink:href="#f2_2a" transform="matrix(12.2,0,0,12,146.7,725)" />
<use xlink:href="#f2_2b" transform="matrix(12.2,0,0,12,153.9,725)" />
<use xlink:href="#f2_1w" transform="matrix(12.2,0,0,12,161,725)" />
<use xlink:href="#f2_24" transform="matrix(12.2,0,0,12,169.1,725)" />
<use xlink:href="#f2_g" transform="matrix(12.2,0,0,12,184.3,725)" />
<use xlink:href="#f2_1g" transform="matrix(12.2,0,0,12,198.7,725)" />
<use xlink:href="#f2_1z" transform="matrix(12.2,0,0,12,211.9,725)" />
<use xlink:href="#f2_1w" transform="matrix(12.2,0,0,12,222,725)" />
<use xlink:href="#f2_2a" transform="matrix(12.2,0,0,12,236.5,725)" />
<use xlink:href="#f2_1w" transform="matrix(12.2,0,0,12,243.7,725)" />
<use xlink:href="#f2_1s" transform="matrix(12.2,0,0,12,251.8,725)" />
<use xlink:href="#f2_29" transform="matrix(12.2,0,0,12,260.9,725)" />
<use xlink:href="#f2_1u" transform="matrix(12.2,0,0,12,268,725)" />
<use xlink:href="#f2_1z" transform="matrix(12.2,0,0,12,275.6,725)" />
<use xlink:href="#f2_27" transform="matrix(12.2,0,0,12,292.2,725)" />
<use xlink:href="#f2_29" transform="matrix(12.2,0,0,12,302.3,725)" />
<use xlink:href="#f2_26" transform="matrix(12.2,0,0,12,309.4,725)" />
<use xlink:href="#f2_1u" transform="matrix(12.2,0,0,12,319,725)" />
<use xlink:href="#f2_1w" transform="matrix(12.2,0,0,12,327.1,725)" />
<use xlink:href="#f2_1v" transform="matrix(12.2,0,0,12,335.2,725)" />
<use xlink:href="#f2_2c" transform="matrix(12.2,0,0,12,345.4,725)" />
<use xlink:href="#f2_29" transform="matrix(12.2,0,0,12,355.5,725)" />
<use xlink:href="#f2_1w" transform="matrix(12.2,0,0,12,362.6,725)" />
<use xlink:href="#f2_1v" transform="matrix(12.2,0,0,12,377.1,725)" />
<use xlink:href="#f2_1w" transform="matrix(12.2,0,0,12,387.2,725)" />
<use xlink:href="#f2_2a" transform="matrix(12.2,0,0,12,395.4,725)" />
<use xlink:href="#f2_1u" transform="matrix(12.2,0,0,12,402.6,725)" />
<use xlink:href="#f2_29" transform="matrix(12.2,0,0,12,410.7,725)" />
<use xlink:href="#f2_20" transform="matrix(12.2,0,0,12,417.8,725)" />
<use xlink:href="#f2_1t" transform="matrix(12.2,0,0,12,422.8,725)" />
<use xlink:href="#f2_1w" transform="matrix(12.2,0,0,12,433.4,725)" />
<use xlink:href="#f2_1v" transform="matrix(12.2,0,0,12,441.5,725)" />
<use xlink:href="#f2_20" transform="matrix(12.2,0,0,12,458.1,725)" />
<use xlink:href="#f2_25" transform="matrix(12.2,0,0,12,463.2,725)" />
<use xlink:href="#f2_1f" transform="matrix(12.2,0,0,12,479.7,725)" />
<use xlink:href="#f2_1w" transform="matrix(12.2,0,0,12,489.8,725)" />
<use xlink:href="#f2_1u" transform="matrix(12.2,0,0,12,497.9,725)" />
<use xlink:href="#f2_2b" transform="matrix(12.2,0,0,12,506.1,725)" />
<use xlink:href="#f2_20" transform="matrix(12.2,0,0,12,513.1,725)" />
<use xlink:href="#f2_26" transform="matrix(12.2,0,0,12,518.2,725)" />
<use xlink:href="#f2_25" transform="matrix(12.2,0,0,12,527.3,725)" />
</g>
<g fill="#0000FF" >
<use xlink:href="#f2_l" transform="matrix(12.2,0,0,12,543.9,725)" />
<use xlink:href="#f2_g" transform="matrix(12.2,0,0,12,553,725)" />
<use xlink:href="#f2_k" transform="matrix(12.2,0,0,12,558.1,725)" />
<use xlink:href="#f2_g" transform="matrix(12.2,0,0,12,567.2,725)" />
<use xlink:href="#f2_m" transform="matrix(12.2,0,0,12,572.2,725)" />
</g>
<g fill="#000000" >
<use xlink:href="#f2_e" transform="matrix(12.2,0,0,12,581.4,725)" />
<use xlink:href="#f2_2c" transform="matrix(12.2,0,0,12,592.9,725)" />
<use xlink:href="#f2_2a" transform="matrix(12.2,0,0,12,603.1,725)" />
<use xlink:href="#f2_1w" transform="matrix(12.2,0,0,12,610.3,725)" />
<use xlink:href="#f2_1v" transform="matrix(12.2,0,0,12,618.4,725)" />
<use xlink:href="#f2_2" transform="matrix(12.2,0,0,12,634.9,725)" />
<use xlink:href="#f2_2d" transform="matrix(12.2,0,0,12,645.1,725)" />
<use xlink:href="#f2_1w" transform="matrix(12.2,0,0,12,654.2,725)" />
<use xlink:href="#f2_1t" transform="matrix(12.2,0,0,12,668.7,725)" />
<use xlink:href="#f2_1s" transform="matrix(12.2,0,0,12,678.8,725)" />
<use xlink:href="#f2_2a" transform="matrix(12.2,0,0,12,688,725)" />
<use xlink:href="#f2_1w" transform="matrix(12.2,0,0,12,695.2,725)" />
<use xlink:href="#f2_22" transform="matrix(12.2,0,0,12,709.7,725)" />
<use xlink:href="#f2_1w" transform="matrix(12.2,0,0,12,718.8,725)" />
<use xlink:href="#f2_29" transform="matrix(12.2,0,0,12,726.9,725)" />
<use xlink:href="#f2_25" transform="matrix(12.2,0,0,12,734,725)" />
<use xlink:href="#f2_1w" transform="matrix(12.2,0,0,12,744.1,725)" />
<use xlink:href="#f2_23" transform="matrix(12.2,0,0,12,752.2,725)" />
<use xlink:href="#f2_2a" transform="matrix(12.2,0,0,12,757.3,725)" />
<use xlink:href="#f2_2j" transform="matrix(12.2,0,0,12,770.9,725)" />
<use xlink:href="#f3_g" transform="matrix(12,0,0,12,795.5,725)" />
<use xlink:href="#f3_4" transform="matrix(12,0,0,12,806.7,725)" />
<use xlink:href="#f2_e" transform="matrix(12.2,0,0,12,820.3,725)" />
<use xlink:href="#f3_e" transform="matrix(12,0,0,12,129.9,752.4)" />
<use xlink:href="#f3_o" transform="matrix(12,0,0,12,143.5,752.4)" />
<use xlink:href="#f3_10" transform="matrix(12,0,0,12,153.7,752.4)" />
<use xlink:href="#f2_e" transform="matrix(12,0,0,12,164.7,752.4)" />
<use xlink:href="#f3_a" transform="matrix(12,0,0,12,175.6,752.4)" />
<use xlink:href="#f3_s" transform="matrix(12,0,0,12,188.1,752.4)" />
<use xlink:href="#f3_w" transform="matrix(12,0,0,12,193.6,752.4)" />
<use xlink:href="#f2_e" transform="matrix(12,0,0,12,204.8,752.4)" />
<use xlink:href="#f3_2" transform="matrix(12,0,0,12,215.7,752.4)" />
<use xlink:href="#f2_1s" transform="matrix(12,0,0,12,236,752.4)" />
<use xlink:href="#f2_25" transform="matrix(12,0,0,12,245,752.4)" />
<use xlink:href="#f2_1v" transform="matrix(12,0,0,12,254.9,752.4)" />
<use xlink:href="#f3_j" transform="matrix(12,0,0,12,270.8,752.4)" />
<use xlink:href="#f3_c" transform="matrix(12,0,0,12,291,752.4)" />
<use xlink:href="#f2_e" transform="matrix(12,0,0,12,305.9,752.4)" />
<use xlink:href="#f2_2b" transform="matrix(12,0,0,12,316.8,752.4)" />
<use xlink:href="#f2_26" transform="matrix(12,0,0,12,323.7,752.4)" />
<use xlink:href="#f2_27" transform="matrix(12,0,0,12,338.7,752.4)" />
<use xlink:href="#f2_1w" transform="matrix(12,0,0,12,349.1,752.4)" />
<use xlink:href="#f2_29" transform="matrix(12,0,0,12,357,752.4)" />
<use xlink:href="#f2_1x" transform="matrix(12,0,0,12,364,752.4)" />
<use xlink:href="#f2_26" transform="matrix(12,0,0,12,369.5,752.4)" />
<use xlink:href="#f2_29" transform="matrix(12,0,0,12,378.4,752.4)" />
<use xlink:href="#f2_24" transform="matrix(12,0,0,12,385.4,752.4)" />
<use xlink:href="#f2_1u" transform="matrix(12,0,0,12,406.2,752.4)" />
<use xlink:href="#f2_26" transform="matrix(12,0,0,12,414.2,752.4)" />
<use xlink:href="#f2_2d" transform="matrix(12,0,0,12,422.6,752.4)" />
<use xlink:href="#f2_1s" transform="matrix(12,0,0,12,431,752.4)" />
<use xlink:href="#f2_29" transform="matrix(12,0,0,12,440,752.4)" />
<use xlink:href="#f2_20" transform="matrix(12,0,0,12,446.9,752.4)" />
<use xlink:href="#f2_1s" transform="matrix(12,0,0,12,451.9,752.4)" />
<use xlink:href="#f2_25" transform="matrix(12,0,0,12,460.9,752.4)" />
<use xlink:href="#f2_1u" transform="matrix(12,0,0,12,470.8,752.4)" />
<use xlink:href="#f2_1w" transform="matrix(12,0,0,12,478.7,752.4)" />
<use xlink:href="#f2_22" transform="matrix(12,0,0,12,492.7,752.4)" />
<use xlink:href="#f2_1w" transform="matrix(12,0,0,12,501.6,752.4)" />
<use xlink:href="#f2_29" transform="matrix(12,0,0,12,509.5,752.4)" />
<use xlink:href="#f2_25" transform="matrix(12,0,0,12,516.5,752.4)" />
<use xlink:href="#f2_1w" transform="matrix(12,0,0,12,526.4,752.4)" />
<use xlink:href="#f2_23" transform="matrix(12,0,0,12,534.4,752.4)" />
<use xlink:href="#f2_1v" transform="matrix(12,0,0,12,545.3,752.4)" />
<use xlink:href="#f2_20" transform="matrix(12,0,0,12,555.3,752.4)" />
<use xlink:href="#f2_2a" transform="matrix(12,0,0,12,560.2,752.4)" />
<use xlink:href="#f2_1u" transform="matrix(12,0,0,12,567.3,752.4)" />
<use xlink:href="#f2_26" transform="matrix(12,0,0,12,575.2,752.4)" />
<use xlink:href="#f2_2d" transform="matrix(12,0,0,12,583.7,752.4)" />
<use xlink:href="#f2_1w" transform="matrix(12,0,0,12,592.6,752.4)" />
<use xlink:href="#f2_29" transform="matrix(12,0,0,12,600.6,752.4)" />
<use xlink:href="#f2_2g" transform="matrix(12,0,0,12,607.5,752.4)" />
<use xlink:href="#f2_g" transform="matrix(12,0,0,12,615.5,752.4)" />
<use xlink:href="#f4_h" transform="matrix(12,0,0,12,487.5,1227.4)" />
<use xlink:href="#f4_d" transform="matrix(12,0,0,12,497.8,1227.4)" />
</g>
<defs>
	<path d="M652.4,435.4L504.2,800.6L349.9,435.4ZM-27.4,0l0,82.5c90,9.2,146.6,68.8,216.8,233.8L536.3,1126l116.1,0L1045,178.8c32.1,-78,56.5,-93.2,143.6,-96.3l0,-82.5L652.4,0l0,82.5L678.3,84c68.8,0,88.6,9.2,88.6,36.7c0,12.2,-6.1,35.1,-18.3,62.6l-58,149.8l-380.5,0L285.7,275C265.8,230.7,261.3,213.9,261.3,187.9C261.3,117.6,304,88.6,414,82.5L414,0Z" 
	id="f0_0"
	transform="scale(0.001,-0.001)" />

	<path d="M589.7,449.2L453.8,826.5L320.8,449.2ZM-16.7,0l0,74.9L74.9,88.6l345.2,947.2l160.5,0L931.9,90.1l90.2,-15.2l0,-74.9L609.6,0l0,74.9L705.8,84l10.7,19.9L624.9,363.6l-333.1,0L200.1,105.4L215.4,85.6L311.7,74.9L311.7,0Z" 
	id="f1_6"
	transform="scale(0.001,-0.001)" />

	<path d="M343.8,-13.7c-142.1,0,-209.4,85.5,-209.4,261.2l0,381.9l-99.3,0l0,59.6l215.5,73.4l73.3,0l0,-473.6C323.9,169.6,363.6,117.6,469,117.6c38.2,0,81,9.2,131.4,24.5l0,487.3l-99.3,0l0,59.6l217,73.4l70.2,0l0,-664.6L809.7,74.9l79.5,-6.1L889.2,0L600.4,0l0,84C504.2,21.4,424.7,-13.7,343.8,-13.7Z" 
	id="f1_w"
	transform="scale(0.001,-0.001)" />

	<path d="M310.1,-7.5c-50.4,0,-91.6,9,-126.8,33.5c-53.4,35.1,-55,84,-55,161.9l0,444.6l-99.3,0l0,58.1l113.1,64.1l79.4,158.9l96.3,0l0,-189.4l226.1,0l0,-91.7l-226.1,0l0,-380.4c0,-108.5,26,-148.2,126.8,-148.2c36.7,0,68.7,3,99.3,10.7l0,-73.3C452.2,7.6,372.8,-7.5,310.1,-7.5Z" 
	id="f1_v"
	transform="scale(0.001,-0.001)" />

	<path d="M444.6,68.8c113,0,180.3,105.4,180.3,304c0,200.1,-70.3,308.6,-178.8,308.6c-108.5,0,-177.2,-107,-177.2,-304C268.9,177.2,337.6,68.8,444.6,68.8ZM440,-12.1C210.8,-12.1,56.5,140.6,56.5,371.3c0,235.2,155.9,391.1,395.7,391.1C686,762.4,835.7,611.1,835.7,368.2C835.7,142.1,681.4,-12.1,440,-12.1Z" 
	id="f1_r"
	transform="scale(0.001,-0.001)" />

	<path d="M55,293.3l0,149.8l388.1,0l0,-149.8Z" 
	id="f1_3"
	transform="scale(0.001,-0.001)" />

	<path d="M415.6,-250.5c110,0,181.8,65.7,181.8,143.7c0,74.8,-56.6,96.2,-165,114.4L302.5,29C259.7,-6,238.3,-48.8,238.3,-97.7c0,-82.5,74.9,-152.8,177.3,-152.8ZM404.9,325.4c71.8,0,123.7,70.3,123.7,186.4c0,110,-53.5,175.7,-120.7,175.7c-76.4,0,-128.3,-65.7,-128.3,-177.2c0,-116.1,51.9,-184.9,125.3,-184.9ZM368.2,-331.4c-201.7,0,-316.3,84,-316.3,209.3c0,94.7,59.6,158.8,157.4,167.9c-13.7,29.1,-19.9,55,-19.9,76.4c0,50.4,27.5,94.7,84.1,145.2C149.7,302.5,84,386.5,84,496.5c0,155.9,123.8,262.8,327,262.8c65.7,0,135.9,-13.7,210.8,-44.3l226.1,0l0,-87.1l-165,0C705.8,588.2,716.5,550,716.5,510.3C716.5,363.6,594.3,256.7,392.6,256.7c-13.7,0,-29,0,-44.3,1.5C340.7,238.3,336.1,220,336.1,201.7c0,-12.3,1.5,-26,4.6,-41.3L444.6,146.7C666.1,114.6,779.2,68.8,779.2,-61c0,-143.6,-165,-270.4,-411,-270.4Z" 
	id="f1_l"
	transform="scale(0.001,-0.001)" />

	<path d="M551.5,470.6c0,6.1,0,10.7,0,16.8c0,126.8,-48.9,192.5,-132.9,192.5c-91.7,0,-154.3,-76.4,-158.9,-209.3ZM433.9,-13.7C206.3,-13.7,56.5,139,56.5,369.7c0,233.8,157.4,394.2,377.4,394.2C634,763.9,751.7,638.6,751.7,418.6c0,-9.2,0,-19.8,0,-29l-499.6,0c0,-1.5,0,-3.1,0,-4.6c0,-175.7,94.7,-279.6,246,-279.6c80.9,0,163.4,27.5,252,84l0,-113C647.8,16.8,540.8,-13.7,433.9,-13.7Z" 
	id="f1_j"
	transform="scale(0.001,-0.001)" />

	<path d="M47.4,0l0,68.8l77.9,6.1l21.4,22.9l0,527.1l-103.9,0l0,61.1l220,71.8l73.3,0l0,-90.2c108.5,59.6,194,93.2,261.3,93.2c140.5,0,207.7,-84,207.7,-253.6l0,-409.4L825,74.9l81,-6.1L906,0L531.7,0l0,68.8l65.7,6.1l21.4,22.9l0,365.1c0,113.1,-41.3,165,-137.5,165c-38.2,0,-87.1,-9.1,-145.2,-26l0,-504.1L357.5,74.9l67.2,-6.1L424.7,0Z" 
	id="f1_q"
	transform="scale(0.001,-0.001)" />

	<path d="M44.3,0l0,68.8l81,6.1l21.4,22.9l0,527.1l-110,0l0,61.1l224.6,71.8l73.3,0L328.5,601.9c55,59.6,116.1,111.6,178.7,155.9c10.7,1.5,22.9,3,33.6,3c33.6,0,67.3,-9.1,100.9,-25.9L621.8,524l-79.4,0c-23,38.2,-55,55,-99.3,55c-24.5,0,-61.2,-13.7,-108.5,-42.7l0,-438.5L357.5,74.9L466,68.8L466,0Z" 
	id="f1_t"
	transform="scale(0.001,-0.001)" />

	<path d="M375.8,103.9c39.8,0,88.6,15.3,148.2,45.8l0,249.1C343.8,359,262.8,319.3,262.8,218.5c0,-70.3,42.8,-114.6,113,-114.6ZM261.3,-13.7C143.6,-13.7,61.1,68.8,61.1,184.9c0,175.7,145.2,220,464.5,291.8l0,45.8c0,110,-44.3,158.9,-145.2,158.9c-22.9,0,-45.8,-3.1,-73.3,-9.2l0,-143.6l-140.6,0c-45.8,0,-70.2,15.3,-70.2,56.5c0,87.1,131.3,177.3,333,177.3C643.2,762.4,715,687.5,715,491.9L715,96.3L734.9,74.9l80.9,-7.7L815.8,0L543.9,0L524,87.1C426.3,21.4,343.8,-13.7,261.3,-13.7Z" 
	id="f1_f"
	transform="scale(0.001,-0.001)" />

	<path d="M466,116.1c36.6,0,79.4,10.7,128.3,29l0,510.3c-44.3,15.3,-81,22.9,-113,22.9c-129.9,0,-220,-110,-220,-291.8C261.3,215.4,339.2,116.1,466,116.1ZM352.9,-13.7C181.8,-13.7,56.5,134.4,56.5,354.4c0,246,162,409.5,394.2,409.5c41.2,0,88.6,-4.6,143.6,-15.3l0,247.5l-111.5,0l0,61.1L710.4,1129l70.3,0l0,-1031.2L802.1,73.3L880,67.2L880,0L594.3,0l0,85.6C507.2,21.4,430.8,-13.7,352.9,-13.7Z" 
	id="f1_i"
	transform="scale(0.001,-0.001)" />

	<path d="M423.2,81c134.4,0,224.6,111.5,224.6,294.8C647.8,539.3,569.9,631,446.1,631C411,631,371.3,620.3,325.4,601.9l0,-510.2C360.6,84,392.6,81,423.2,81ZM35.1,-334.5l0,70.3l82.5,7.6l21.4,22.9l0,858.6l-105.4,0l0,61.1l223.1,71.8l68.7,0l0,-91.7c90.2,62.7,166.5,96.3,241.4,96.3c162,0,288.8,-146.7,288.8,-360.6C855.6,157.4,698.2,-1.4,450.7,-1.4c-33.6,0,-74.9,2.9,-125.3,9l0,-244.3l22.9,-21.4l96.3,-6.1l-1.5,-70.3Z" 
	id="f1_s"
	transform="scale(0.001,-0.001)" />

	<path d="M47.4,0l0,70.3l76.4,7.6l21.3,24.5l0,530.1l-99.3,0l0,58.1l99.3,45.8c0,146.7,50.5,256.7,155.9,334.6c56.5,42.8,122.2,64.1,184.8,64.1c88.6,0,143.6,-45.8,143.6,-111.5c0,-41.2,-30.5,-74.8,-88.6,-94.7L392.6,1060.3C352.9,1019,333.1,941.1,333.1,828.1c0,-3.1,0,-7.7,0,-12.3l0,-91.6l204.7,0l0,-91.7l-204.7,0l0,-531.7L357.5,77.9L459.9,70.3L459.9,0Z" 
	id="f1_k"
	transform="scale(0.001,-0.001)" />

	<path d="M449.2,68.8c120.7,0,180.2,148.1,180.2,444.5c0,296.4,-59.5,444.6,-180.2,444.6c-117.7,0,-180.3,-146.6,-180.3,-440C268.9,218.5,328.5,68.8,449.2,68.8Zm-1.6,-87c-235.2,0,-386.5,192.4,-386.5,530c0,337.6,151.3,531.7,386.5,531.7c236.8,0,389.6,-195.6,389.6,-531.7c0,-336.1,-152.8,-530,-389.6,-530Z" 
	id="f1_4"
	transform="scale(0.001,-0.001)" />

	<path d="M226.1,0l0,76.4l152.8,9.2l18.3,27.5l0,751.6l-13.7,18.4L166.5,851l0,77.9l330,111.5l99.3,0l0,-933.5L612.6,82.5L756.3,76.4L756.3,0Z" 
	id="f1_5"
	transform="scale(0.001,-0.001)" />

	<path d="M45.8,0l0,68.8l82.5,6.1l21.4,22.9l0,527.1l-100.8,0l0,61.1l215.4,71.8l73.3,0l0,-660l23,-22.9l85.5,-6.1L446.1,0ZM249,878.5c-61.1,0,-111.5,45.8,-111.5,113c0,65.7,47.4,114.6,110,114.6c68.8,0,114.6,-48.9,114.6,-111.5C362.1,925.8,313.2,878.5,249,878.5Z" 
	id="f1_m"
	transform="scale(0.001,-0.001)" />

	<path d="M35.1,0l0,67.2l88.7,9.2l21.3,21.4l0,898.3l-110,0l0,59.6L265.8,1129l67.3,0l0,-1028.2L356,76.4l88.6,-9.2L444.6,0Z" 
	id="f1_o"
	transform="scale(0.001,-0.001)" />

	<path d="M314.7,-16.7c-73.3,0,-157.3,12.2,-252.1,38.1l0,226.1l93.2,0L172.6,116.1L187.9,99.3C227.6,77.9,270.4,67.2,316.3,67.2c82.5,0,129.8,42.8,129.8,110c0,82.5,-82.5,97.8,-201.7,157.4C131.4,391.1,73.3,444.6,73.3,536.3c0,131.3,111.6,227.6,299.5,227.6c76.4,0,152.8,-12.2,230.7,-38.2l0,-203.2l-91.7,0L496.5,637.1l-18.3,16.8c-32.1,15.3,-65.7,24.4,-100.8,24.4c-74.9,0,-116.1,-35.1,-116.1,-91.6c0,-64.2,51.9,-90.2,142,-134.5C539.3,386.5,626.4,345.3,626.4,235.3C626.4,81,511.8,-16.7,314.7,-16.7Z" 
	id="f1_u"
	transform="scale(0.001,-0.001)" />

	<path d="M589.7,-216.8C310.1,-206.2,139,26,139,435.4c0,417.1,166.6,649.3,450.7,661.5l0,-77.9C398.8,993.1,319.3,802.1,319.3,433.9c0,-362.1,85.6,-551.4,270.4,-572.8l0,-77.9Z" 
	id="f1_1"
	transform="scale(0.001,-0.001)" />

	<path d="M741,884.6c-56.6,0,-102.4,44.3,-102.4,106.9c0,62.7,42.8,105.4,105.4,105.4c56.6,0,100.9,-45.8,100.9,-105.4C844.9,930.4,797.5,884.6,741,884.6ZM47.4,0l0,68.8l76.4,6.1l22.9,22.9l0,534.7l-99.3,0l0,58.1l99.3,45.8c0,1.5,0,4.6,0,6.1c0,140.6,48.9,246,148.2,323.9c59.5,47.4,129.8,71.8,187.9,71.8c77.9,0,123.7,-39.7,123.7,-97.8c0,-41.2,-24.4,-77.9,-70.2,-105.4L388.1,1058.8c-39.8,-48.9,-55,-128.4,-55,-243l0,-91.6l334.5,0l84.1,41.2l68.7,0l0,-667.6L841.8,74.9l81,-6.1L922.8,0L533.2,0l0,68.8l77.9,6.1L634,97.8l0,534.7l-300.9,0l0,-534.7L357.5,74.9l79.4,-6.1L436.9,0Z" 
	id="f1_11"
	transform="scale(0.001,-0.001)" />

	<path d="M326.9,0L82.5,664.6l-91.6,9.2l0,70.2l388,0l0,-70.2l-79.5,-7.7L282.6,646.3L441.5,200.1L615.7,644.7l-12.2,21.4l-77.9,7.7l0,70.2l290.2,0l0,-70.2L727.2,663.1L464.4,0Z" 
	id="f1_x"
	transform="scale(0.001,-0.001)" />

	<path d="M362.1,81C546.9,81,631,174.2,631,374.3c0,174.2,-81,267.4,-221.6,267.4c-27.5,0,-59.5,-4.6,-96.2,-12.3l0,-546.9C330,81,346.8,81,362.1,81ZM293.3,-1.4L123.8,1.5l0,996.1l-110,0l0,59.6L239.9,1129l73.3,0l0,-436.9c82.5,45.8,154.3,68.7,221.5,68.7c174.2,0,301,-140.5,301,-346.8c0,-177.2,-84,-308.6,-241.4,-378.9C537.8,10.7,452.2,-1.4,334.6,-1.4Z" 
	id="f1_g"
	transform="scale(0.001,-0.001)" />

	<path d="M38.2,0l0,67.2l79.4,7.7L139,97.8l0,899.8l-111.5,0l0,59.6L262.8,1129l64.1,0l0,-733.3l33.7,0L579,650.8l-10.7,16.8l-67.2,7.7l0,67.2l311.7,0l0,-67.2L713.5,663.1L539.3,469L782.2,74.9l90.2,-7.7L872.4,0L579,0l0,59.6L401.8,345.3l-74.9,0l0,-250.6L346.8,73.3l76.4,-6.1L423.2,0Z" 
	id="f1_n"
	transform="scale(0.001,-0.001)" />

	<path d="M56.5,-216.8l0,77.9C246,-114.5,326.9,74.9,326.9,441.5c0,365.2,-82.5,556.1,-270.4,577.5l0,77.9C334.6,1083.2,502.6,851,502.6,440C502.6,27.5,333.1,-204.6,56.5,-216.8Z" 
	id="f1_2"
	transform="scale(0.001,-0.001)" />

	<path d="M273.5,0l0,44.3l55,0c149.7,0,149.7,21.4,149.7,73.3l0,812.8c0,35.2,-1.5,53.5,-32.1,58.1c-12.2,3,-55,3,-82.5,3c-241.4,0,-255.1,-55,-276.5,-296.4l-33.6,0L81,1035.8l916.6,0l27.5,-340.7l-33.6,0C970.1,936.5,956.4,991.5,715,991.5c-29,0,-73.3,0,-85.6,-3C605,982.4,601.9,968.6,601.9,930.4l0,-812.8c0,-51.9,0,-73.3,149.8,-73.3l55,0L757.8,3.1l-278.1,0C322.4,3.1,539.3,0,273.5,0Z" 
	id="f2_1g"
	transform="scale(0.001,-0.001)" />

	<path d="M48.9,0l0,44.3c99.3,0,116.1,0,116.1,68.8l0,800.5c0,74.9,-12.2,85.6,-116.1,85.6l0,44.3l212.4,16.8l0,-533.2l1.5,0c21.4,47.3,82.5,146.7,213.9,146.7c51.9,0,123.7,-9.2,168,-68.8c35.2,-48.9,35.2,-91.7,35.2,-233.7l0,-281.2C681.4,44.3,719.6,44.3,796,44.3L756.3,3.1l-169.6,0C504.2,3.1,629.4,0,464.4,0l0,44.3c99.4,0,116.2,0,116.2,68.8l0,359c0,93.2,-21.4,171.1,-116.2,171.1c-94.7,0,-200.1,-85.6,-200.1,-246l0,-284.1c0,-68.8,18.3,-68.8,116.1,-68.8L340.7,3.1l-169.6,0C88.6,3.1,213.9,0,48.9,0Z" 
	id="f2_1z"
	transform="scale(0.001,-0.001)" />

	<path d="M527.1,383.5c-1.5,51.9,-10.7,267.3,-174.2,267.3c-42.8,0,-177.2,-27.5,-189.4,-267.3ZM371.3,-15.2C201.7,-15.2,45.8,132.9,45.8,334.6c0,189.4,134.5,346.8,308.6,346.8c184.9,0,267.4,-143.6,267.4,-297.9c0,-29.1,-3,-29.1,-36.7,-29.1l-423.2,0l0,-29C161.9,61.1,316.3,18.3,380.4,18.3c64.2,0,166.5,35.2,206.3,163.5c3,7.6,6.1,15.3,18.3,15.3c9.2,0,16.8,-6.1,16.8,-15.3c0,-32.1,-68.7,-197,-250.5,-197Z" 
	id="f2_1w"
	transform="scale(0.001,-0.001)" />

	<path d="M50.4,0l0,44.3c99.3,0,116.1,0,116.1,68.8l0,501.1l-119.1,0l0,44.3l119.1,0l0,178.7c0,155.9,120.7,238.4,227.7,238.4c73.3,0,128.3,-44.3,128.3,-100.9c0,-36.6,-24.4,-61.1,-61.1,-61.1c-35.1,0,-59.6,24.5,-59.6,59.6c0,44.3,38.2,58.1,44.3,59.6c-18.3,9.1,-41.2,12.2,-53.5,12.2C330,1045,259.7,974.7,259.7,837.2l0,-178.7l175.7,0l0,-44.3l-172.6,0l0,-498.1c0,-55,3,-71.8,114.6,-71.8l30.5,0L372.8,3.1l-195.6,0C93.2,3.1,223.1,0,50.4,0Z" 
	id="f2_1x"
	transform="scale(0.001,-0.001)" />

	<path d="M374.3,18.3c58.1,0,128.3,29.1,171.1,102.4c39.7,71.8,39.7,166.5,39.7,220c0,56.5,0,152.8,-47.3,223.1c-41.3,59.5,-105.4,87,-165,87c-53.5,0,-120.7,-24.4,-163.5,-90.1C161.9,491.9,161.9,398.8,161.9,340.7c0,-64.2,1.6,-154.3,42.8,-223.1C249,42.8,317.8,18.3,374.3,18.3Zm-1.5,-33.5c-174.2,0,-327,146.6,-327,342.1c0,192.5,145.2,354.5,328.5,354.5c177.2,0,327,-157.4,327,-354.5C701.3,134.4,553.1,-15.2,372.8,-15.2Z" 
	id="f2_26"
	transform="scale(0.001,-0.001)" />

	<path d="M50.4,0l0,44.3c99.3,0,116.1,0,116.1,68.8l0,800.5c0,74.9,-12.2,85.6,-116.1,85.6l0,44.3l212.4,16.8l0,-947.2c0,-68.8,18.3,-68.8,116.1,-68.8L336.1,3.1l-168,0C93.2,3.1,213.9,0,50.4,0Z" 
	id="f2_23"
	transform="scale(0.001,-0.001)" />

	<path d="M357.5,-15.2c-16.8,0,-21.4,10.7,-27.5,27.4l-192.5,547c-16.8,48.9,-32.1,55,-110,55l96.3,41.2l87,0c76.4,0,-41.2,3.1,114.6,3.1l0,-44.3c-29,0,-88.6,0,-88.6,-41.3c0,-6.1,0,-9.1,7.6,-29L391.1,128.3L521,501.1c-10.7,30.6,-29.1,81,-36.7,90.2c-16.8,19.8,-36.7,22.9,-94.7,22.9l85.5,41.2l96.3,0c62.6,0,-44.3,3.1,105.4,3.1l0,-44.3c-32.1,0,-88.6,0,-88.6,-42.8c0,-4.6,0,-7.6,7.6,-26L748.6,113.1L889.2,513.3c6.1,15.3,6.1,26,6.1,27.5c0,29.1,-18.4,70.3,-87.1,73.4l82.5,41.2l94.7,0c27.5,0,-47.3,3.1,65.7,3.1l0,-44.3c-26,-1.6,-93.2,-4.6,-126.8,-100.9L748.6,12.2C742.5,-4.5,737.9,-15.2,721.1,-15.2c-13.7,0,-21.4,4.6,-29,29L539.3,449.2L386.5,13.8c-7.6,-24.4,-15.2,-29,-29,-29Z" 
	id="f2_2e"
	transform="scale(0.001,-0.001)" />

	<path d="M50.4,0l0,44.3c99.3,0,116.1,0,116.1,68.8l0,415.5c0,74.9,-13.7,84,-111.5,84l0,44.3l207.8,16.9l0,-562.3c0,-59.6,6.1,-67.2,105.4,-67.2L316.3,3.1l-149.8,0C93.2,3.1,210.8,0,50.4,0ZM191,867.8c-36.7,0,-73.4,29,-73.4,74.8c0,41.3,33.7,73.4,73.4,73.4c42.8,0,74.8,-35.2,74.8,-74.9c0,-33.6,-27.5,-73.3,-74.8,-73.3Z" 
	id="f2_20"
	transform="scale(0.001,-0.001)" />

	<path d="M48.9,0l0,44.3c99.3,0,116.1,0,116.1,68.8l0,414c0,74.8,-12.2,85.5,-116.1,85.5l0,44.3l207.8,16.9l0,-157.4l1.5,0c12.2,30.5,70.3,157.4,218.5,157.4c51.9,0,123.7,-9.2,168,-68.8c35.2,-48.9,35.2,-91.7,35.2,-233.7l0,-281.2C681.4,44.3,719.6,44.3,796,44.3L756.3,3.1l-169.6,0C504.2,3.1,629.4,0,464.4,0l0,44.3c99.4,0,116.2,0,116.2,68.8l0,359c0,93.2,-21.4,171.1,-116.2,171.1c-94.7,0,-200.1,-85.6,-200.1,-246l0,-284.1c0,-68.8,18.3,-68.8,116.1,-68.8L340.7,3.1l-169.6,0C88.6,3.1,213.9,0,48.9,0Z" 
	id="f2_25"
	transform="scale(0.001,-0.001)" />

	<path d="M374.3,-281c140.6,0,256.7,71.8,256.7,161.9C631,13.8,458.3,13.8,331.5,13.8c-106.9,0,-120.7,0,-154.3,-21.3c-58,-39.8,-61.1,-99.3,-61.1,-111.6c0,-87.1,111.5,-161.9,258.2,-161.9ZM333.1,261.3c32,0,77.9,15.2,106.9,59.5c26,41.3,26,103.9,26,131.4c0,35.2,0,189.5,-134.5,189.5c-32.1,0,-77.9,-15.3,-106.9,-59.6c-26,-41.3,-26,-103.9,-26,-131.4c0,-35.1,0,-189.4,134.5,-189.4Zm39.7,-574.4c-187.9,0,-331.5,87.1,-331.5,192.5c0,79.4,70.2,134.4,140.5,154.2c-12.2,7.7,-65.7,45.8,-65.7,134.5c0,59.5,27.5,103.8,45.8,126.8C146.7,308.6,93.2,365.1,93.2,452.2c0,117.7,102.4,221.6,239.9,221.6c58,0,111.5,-19.9,157.3,-55c21.4,22.9,81,71.8,160.4,71.8c53.5,0,74.9,-42.8,74.9,-70.3C725.7,586.7,698.2,579,686,579c-24.5,0,-39.7,18.4,-39.7,39.8c0,16.8,7.6,32,22.9,38.1c-6.1,3.1,-13.8,3.1,-19.9,3.1c-7.6,0,-79.4,0,-139,-61.1c48.9,-48.9,61.1,-107,61.1,-148.2C571.4,333.1,469,229.2,331.5,229.2c-16.8,0,-77.9,0,-149.7,47.3C166.5,255.1,157.4,229.2,157.4,203.2c0,-32.1,13.7,-61.1,29,-76.4c27.5,-29,38.2,-29,131.4,-29c131.4,0,207.8,0,285.7,-39.7C695.1,10.7,705.8,-79.3,705.8,-117.5c0,-114.6,-151.2,-195.6,-333,-195.6Z" 
	id="f2_1y"
	transform="scale(0.001,-0.001)" />

	<path d="M438.5,15.3C556.1,15.3,660,148.2,660,330c0,171.1,-91.7,310.1,-206.2,310.1c-58.1,0,-133,-29,-178.8,-97.7c-16.8,-24.5,-16.8,-26,-16.8,-55l0,-314.8c0,-42.7,22.9,-73.3,58.1,-108.4C346.8,35.1,391.1,15.3,438.5,15.3ZM42.8,-296.3l0,44.3c99.3,0,116.1,0,116.1,68.8l0,717.9c0,67.2,-9.2,77.9,-116.1,77.9l0,44.3l212.3,16.9l0,-102.4c4.6,6.1,76.4,102.4,210.9,102.4C632.5,673.8,776.1,524,776.1,330c0,-197.1,-154.3,-345.2,-330,-345.2c-97.8,0,-160.4,59.5,-187.9,97.7l0,-265.7c0,-68.8,18.3,-68.8,116.1,-68.8l-39.7,-41.2l-169.6,0c-82.5,0,42.8,-3.1,-122.2,-3.1Z" 
	id="f2_27"
	transform="scale(0.001,-0.001)" />

	<path d="M313.2,15.3c65.7,0,177.2,50.4,177.2,200.1l0,151.3C435.4,363.6,175.7,345.3,175.7,143.6C175.7,70.3,238.3,15.3,313.2,15.3ZM301,-15.2C207.8,-15.2,67.2,22.9,67.2,143.6c0,117.7,116.1,246,423.2,250.6l0,61.1c0,137.5,-90.1,195.5,-160.4,195.5c-61.1,0,-134.4,-27.5,-169.6,-91.6c22.9,0,77.9,0,77.9,-62.7c0,-36.6,-25.9,-62.6,-62.6,-62.6c-35.1,0,-64.2,21.4,-64.2,65.7c0,99.3,96.3,181.8,221.6,181.8c67.2,0,135.9,-21.4,189.4,-70.3c67.2,-59.6,67.2,-120.7,67.2,-203.2l0,-267.3c0,-23,0,-103.9,58.1,-103.9c21.4,0,58,12.2,58,99.3l0,85.5l33.6,0l0,-85.5C739.4,13.8,650.8,-7.5,618.8,-7.5c-65.7,0,-113.1,54.9,-119.2,126.7C470.6,45.8,401.8,-15.2,301,-15.2Z" 
	id="f2_1s"
	transform="scale(0.001,-0.001)" />

	<path d="M65.7,-15.2c-15.3,0,-15.3,7.7,-15.3,35.1l0,207.7c0,27.5,0,35.2,16.8,35.2c4.6,0,10.7,0,13.8,-6.1c1.5,-1.6,1.5,-3.1,7.6,-30.6C122.2,73.3,195.6,15.3,296.4,15.3c134.4,0,172.6,73.3,172.6,139c0,42.8,-19.8,76.4,-47.3,99.3c-38.2,30.6,-58.1,35.2,-142.1,52C209.3,319.3,157.4,330,108.5,372.8C50.4,426.3,50.4,479.7,50.4,496.5c0,84.1,55,184.9,239.9,184.9c48.9,0,96.2,-9.2,143.6,-47.4c10.7,13.8,39.7,47.4,51.9,47.4c15.3,0,15.3,-7.6,15.3,-35.1l0,-158.9c0,-27.5,0,-35.2,-16.8,-35.2c-4.6,0,-15.3,0,-16.8,12.2c-3.1,47.4,-12.2,189.5,-178.7,189.5C151.3,653.9,119.2,583.6,119.2,536.3C119.2,444.6,230.7,423.2,276.5,414C377.4,395.7,418.6,386.5,473.6,339.2C487.4,325.4,537.8,276.5,537.8,194C537.8,73.3,458.3,-15.2,297.9,-15.2c-26,0,-108.5,0,-166.5,71.7C108.5,32.1,108.5,29,100.8,18.3C74.9,-13.7,73.3,-15.2,65.7,-15.2Z" 
	id="f2_2a"
	transform="scale(0.001,-0.001)" />

	<path d="M372.8,-15.2C200.1,-15.2,53.5,134.4,53.5,330c0,192.5,142.1,351.4,320.8,351.4C498.1,681.4,605,608.1,605,505.7C605,461.4,576,440,540.8,440c-36.6,0,-62.6,26,-62.6,62.6c0,62.7,56.5,62.7,74.9,62.7c-35.2,59.6,-119.2,82.5,-177.3,82.5c-76.4,0,-206.2,-62.7,-206.2,-316.3C169.6,99.3,293.3,18.3,386.5,18.3c82.5,0,165,45.9,198.6,154.3c4.6,18.4,6.2,23,19.9,23c4.6,0,15.3,0,15.3,-13.8c0,-13.7,-45.9,-197,-247.5,-197Z" 
	id="f2_1u"
	transform="scale(0.001,-0.001)" />

	<path d="M388.1,-15.2c-78,0,-140.6,18.3,-177.3,58C165,93.2,165,148.2,165,242.9l0,229.2c0,136,0,140.5,-116.1,140.5l0,44.3l215.4,16.9l0,-505.7c0,-81,7.6,-152.8,132.9,-152.8c114.6,0,183.4,108.5,183.4,238.3l0,273.5c0,74.8,-12.3,85.5,-116.2,85.5l0,44.3l215.5,16.9l0,-543.9C679.9,55,692.1,44.3,796,44.3L796,0L583.6,-15.2l0,137.4c0,0,-24.4,-58,-68.7,-93.2C462.9,-15.2,414,-15.2,388.1,-15.2Z" 
	id="f2_2c"
	transform="scale(0.001,-0.001)" />

	<path d="M374.3,15.3c76.4,0,139,44.3,175.7,97.8c21.4,33.6,21.4,38.2,21.4,65.7l0,314.7c0,27.5,0,30.5,-18.3,56.5c-15.3,24.4,-68.8,93.2,-163.5,93.2c-76.4,0,-137.5,-47.4,-168.1,-94.7C187.9,498.1,169.6,436.9,169.6,326.9C169.6,30.6,334.6,15.3,374.3,15.3Zm-7.6,-30.5C198.6,-15.2,53.5,134.4,53.5,328.5c0,195.5,152.8,345.3,330,345.3c93.2,0,158.9,-53.5,190.9,-97.8l0,337.6c0,74.9,-12.2,85.6,-116.1,85.6l0,44.3l212.4,16.8l0,-930.4C670.7,55,682.9,44.3,786.8,44.3L786.8,0L571.4,-15.2l0,105.3C550,61.1,482.8,-15.2,366.7,-15.2Z" 
	id="f2_1v"
	transform="scale(0.001,-0.001)" />

	<path d="M351.4,-15.2c-81,0,-194,35.1,-194,204.6l0,424.8l-129.9,0l0,30.5c139,4.6,194,151.3,195.6,294.9l33.6,0l0,-281.1l215.4,0l0,-44.3l-215.4,0l0,-427.8c0,-26,0,-168.1,103.9,-168.1c59.5,0,103.8,64.2,103.8,174.2l0,84l33.7,0l0,-87.1c0,-110,-50.5,-204.6,-146.7,-204.6Z" 
	id="f2_2b"
	transform="scale(0.001,-0.001)" />

	<path d="M48.9,0l0,44.3c99.3,0,116.1,0,116.1,68.8l0,414c0,74.8,-12.2,85.5,-116.1,85.5l0,44.3l207.8,16.9l0,-157.4l1.5,0c12.2,30.5,70.3,157.4,218.5,157.4c96.2,0,178.7,-33.7,200.1,-151.3c24.5,59.6,88.6,151.3,215.4,151.3c52,0,123.8,-9.2,168.1,-68.8c35.1,-48.9,35.1,-91.7,35.1,-233.7l0,-281.2c1.5,-45.8,39.7,-45.8,116.1,-45.8L1171.8,3.1l-169.6,0C919.7,3.1,1045,0,880,0l0,44.3c99.3,0,116.1,0,116.1,68.8l0,359c0,93.2,-21.4,171.1,-116.1,171.1c-94.7,0,-200.1,-85.6,-200.1,-246l0,-284.1C679.9,44.3,698.2,44.3,796,44.3L756.3,3.1l-169.6,0C504.2,3.1,629.4,0,464.4,0l0,44.3c99.4,0,116.2,0,116.2,68.8l0,359c0,93.2,-21.4,171.1,-116.2,171.1c-94.7,0,-200.1,-85.6,-200.1,-246l0,-284.1c0,-68.8,18.3,-68.8,116.1,-68.8L340.7,3.1l-169.6,0C88.6,3.1,213.9,0,48.9,0Z" 
	id="f2_24"
	transform="scale(0.001,-0.001)" />

	<path d="M166.5,-311.6C85.6,-311.6,29,-255,29,-197c0,44.3,32.1,59.6,58.1,59.6c27.5,0,56.5,-19.9,56.5,-56.5c0,-53.5,-53.5,-59.6,-53.5,-59.6c0,0,29.1,-27.5,76.4,-27.5c68.8,0,110,58,136,103.9c6.1,12.2,6.1,15.3,73.3,177.1L148.2,559.2c-19.9,47.3,-32.1,55,-120.7,55l87.1,41.2l103.9,0c74.8,0,-42.8,3.1,114.6,3.1l0,-44.3c-30.6,0,-84.1,0,-84.1,-39.8c0,-1.5,0,-10.6,9.2,-32L427.8,126.8l155.8,385c6.1,15.3,9.2,22.9,9.2,36.7c0,27.5,-13.8,62.6,-70.3,65.7l85.6,41.2l87,0c21.4,0,-48.8,3.1,65.7,3.1l0,-44.3c-29,0,-100.8,-1.6,-142,-103.9L354.4,-140.5C314.7,-236.7,252.1,-311.6,166.5,-311.6Z" 
	id="f2_2g"
	transform="scale(0.001,-0.001)" />

	<path d="M42.8,0l0,44.3c99.3,0,116.1,0,116.1,68.8l0,414c0,74.8,-12.2,85.5,-116.1,85.5l0,44.3l204.7,16.9l0,-169.6l1.5,0c9.2,29,53.5,169.6,183.4,169.6c65.7,0,106.9,-42.8,106.9,-88.7C539.3,543.9,508.8,524,478.2,524c-24.4,0,-59.6,16.8,-59.6,61.1c0,41.3,24.5,50.5,36.7,56.6c-6.1,1.5,-9.2,1.5,-21.4,1.5C316.3,643.2,255.1,504.2,255.1,356l0,-239.9c0,-55,3.1,-71.8,114.6,-71.8l30.6,0L365.1,3.1l-195.5,0C85.6,3.1,215.4,0,42.8,0Z" 
	id="f2_29"
	transform="scale(0.001,-0.001)" />

	<path d="M440,15.3c76.4,0,137.5,47.3,168.1,94.7C644.7,165,660,229.2,660,331.5C660,624.9,499.6,643.2,453.8,643.2C378.9,643.2,311.7,598.9,275,543.9c-16.8,-24.5,-16.8,-27.5,-16.8,-55l0,-314.7c0,-26,0,-32.1,19.9,-64.2C304,68.8,357.5,15.3,440,15.3Zm6.1,-30.5c-97.8,0,-163.5,58,-198.6,114.5C241.4,88.6,198.6,12.2,192.5,0L158.9,0l0,913.6c0,74.9,-12.2,85.6,-116.1,85.6l0,44.3l212.3,16.8l0,-488.9c52,64.2,123.8,102.4,207.8,102.4C632.5,673.8,776.1,524,776.1,330c0,-197.1,-154.3,-345.2,-330,-345.2Z" 
	id="f2_1t"
	transform="scale(0.001,-0.001)" />

	<path d="M695.1,400.3L517.9,909L340.7,400.3ZM47.4,0l0,44.3c97.7,1.5,140.5,41.3,161.9,103.9l319.3,913.6c7.7,24.5,10.7,29,32.1,29c21.4,0,24.4,-9.1,30.6,-27.5l333,-956.4C945.7,44.3,973.2,44.3,1072.5,44.3L1037.4,3.1l-195.6,0C721.1,3.1,884.6,0,686,0l0,44.3c38.2,0,116.1,0,116.1,45.8c0,4.6,0,7.7,-7.7,26L710.4,356l-385,0L255.1,152.8c-7.6,-19.9,-7.6,-22.9,-7.6,-32.1c0,-42.8,38.2,-74.9,102.4,-76.4L310.1,3.1l-166.5,0C140.6,3.1,194,0,47.4,0Z" 
	id="f2_x"
	transform="scale(0.001,-0.001)" />

	<path d="M592.8,44.3c149.7,0,242.9,113.1,242.9,236.8c0,117.7,-76.4,246,-223.1,246l-285.7,0l0,-421.7C326.9,55,330,44.3,397.2,44.3ZM548.5,557.6c169.6,0,249,126.8,249,227.7c0,82.5,-55,213.9,-207.8,213.9l-192.5,0c-67.2,0,-70.3,-10.7,-70.3,-61.1l0,-380.5ZM65.7,0l0,44.3l30.6,0c110,0,114.5,15.3,114.5,71.8l0,811.3c0,56.5,-4.5,71.8,-114.5,71.8l-30.6,0l0,44.3l533.2,0c200.1,0,333,-126.8,333,-258.2C931.9,670.7,826.5,572.9,681.4,545.4C863.2,525.6,974.7,403.3,974.7,279.6C974.7,132.9,837.2,0,640.1,0Z" 
	id="f2_y"
	transform="scale(0.001,-0.001)" />

	<path d="M603.5,-32c-276.6,0,-521,238.3,-521,554.5c0,311.7,241.4,553.1,521,553.1c110,0,213.9,-53.5,282.6,-139.1L961,1057.2c9.1,15.3,10.7,18.4,19.8,18.4c15.3,0,15.3,-7.7,15.3,-35.2l0,-362.1c0,-30.5,0,-35.1,-21.4,-35.1c-18.3,0,-18.3,4.6,-21.4,22.9C922.8,895.3,782.2,1031.3,621.8,1031.3c-110,0,-397.2,-67.3,-397.2,-508.8C224.6,76.4,516.4,12.2,623.3,12.2c148.2,0,325.5,107,339.2,349.9c0,10.7,1.5,18.3,16.8,18.3c16.8,0,16.8,-9.1,16.8,-26C996.1,186.4,854,-32,603.5,-32Z" 
	id="f2_z"
	transform="scale(0.001,-0.001)" />

	<path d="M560.7,44.3c128.3,0,220,62.6,270.4,126.8c87.1,113.1,88.6,256.7,88.6,342.2c0,61.1,0,215.5,-68.7,323.9c-62.7,100.9,-163.5,162,-290.3,162l-160.4,0C333.1,999.2,330,988.5,330,938.1l0,-832.7C330,55,333.1,44.3,400.3,44.3ZM64.2,0l0,44.3l30.5,0c110,0,114.6,15.3,114.6,71.8l0,811.3c0,56.5,-4.6,71.8,-114.6,71.8l-30.5,0l0,44.3l534.7,0c253.6,0,459.9,-236.8,459.9,-531.7C1058.8,229.2,854,0,598.9,0Z" 
	id="f2_10"
	transform="scale(0.001,-0.001)" />

	<path d="M206.3,0C171.1,0,132.9,29,132.9,74.9c0,38.2,30.6,73.3,74.9,73.3c38.2,0,73.3,-32.1,73.3,-73.3C281.1,32.1,247.5,0,206.3,0Z" 
	id="f2_g"
	transform="scale(0.001,-0.001)" />

	<path d="M97.8,-32C82.5,-32,82.5,-24.3,82.5,3.1l0,308.6c0,27.5,0,35.1,16.8,35.1c3.1,0,15.3,0,16.8,-12.2c1.5,-50.4,7.7,-160.4,96.3,-239.9C287.2,29,381.9,12.2,450.7,12.2c126.8,0,207.8,108.5,207.8,223.1c0,85.5,-47.4,168,-119.2,203.2C517.9,447.6,433.9,469,380.4,481.3C271.9,508.8,218.5,522.5,165,582.1C108.5,643.2,82.5,710.4,82.5,783.8c0,155.8,123.8,291.8,293.3,291.8c67.3,0,168.1,-18.4,241.4,-113.1l50.4,93.2c10.7,19.9,16.8,19.9,21.4,19.9c15.3,0,15.3,-7.7,15.3,-35.2l0,-308.6c0,-27.5,0,-35.1,-16.8,-35.1c-15.3,0,-15.3,6.1,-18.3,24.4c-9.2,65.7,-42.8,313.2,-293.4,313.2c-119.1,0,-204.7,-96.2,-204.7,-203.2c0,-97.8,68.8,-174.2,146.7,-194l168,-42.8C545.4,579,614.2,562.2,670.7,493.5c41.2,-50.4,76.4,-119.2,76.4,-212.4C747.1,113.1,623.3,-32,452.2,-32C320.8,-32,224.6,19.9,169.6,81C157.4,58.1,125.3,1.5,119.2,-10.6C108.5,-28.9,106.9,-32,97.8,-32Z" 
	id="f2_1f"
	transform="scale(0.001,-0.001)" />

	<path d="M368.2,-32C198.6,-32,62.6,79.4,62.6,215.4c0,58.1,39.8,79.5,76.4,79.5c42.8,0,74.9,-30.6,74.9,-74.9c0,-48.9,-35.1,-76.1,-77.3,-76.1c-5.2,0,-10.5,0.4,-15.9,1.2C165,44.3,290.3,9.2,363.6,9.2c74.9,0,178.8,53.4,178.8,253.6c0,146.6,-58.1,253.6,-188,253.6l-70.2,0c-27.5,0,-35.2,0,-35.2,15.3c0,13.7,6.1,15.2,32.1,16.8l45.8,4.6c41.3,1.5,93.2,6.1,139.1,73.3c44.3,65.7,48.9,151.2,48.9,180.3c0,149.7,-99.3,172.6,-149.8,172.6c-7.6,0,-151.2,0,-209.3,-103.9c4.6,1.5,7.7,1.5,16.8,1.5c33.7,0,70.3,-21.3,70.3,-70.2c0,-45.9,-36.6,-68.8,-68.7,-68.8c-22.9,0,-70.3,12.2,-70.3,73.4c0,111.5,113,204.7,265.8,204.7c148.2,0,273.5,-88.6,273.5,-209.3C643.2,687.5,557.6,576,424.7,537.8c146.7,-26,259.7,-136,259.7,-276.5C684.4,106.9,550,-32,368.2,-32Z" 
	id="f2_l"
	transform="scale(0.001,-0.001)" />

	<path d="M74.9,0l0,36.7L383.5,381.9c87.1,97.8,161.9,210.9,161.9,340.7c0,140.6,-79.4,249.1,-209.3,249.1c-99.3,0,-181.8,-70.3,-210.8,-174.2c4.6,1.5,7.6,1.5,21.4,1.5c42.7,0,71.8,-29,71.8,-71.8c0,-48.9,-39.7,-71.8,-71.8,-71.8c-4.6,0,-71.8,0,-71.8,77.9C74.9,864.7,178.8,1016,356,1016c177.2,0,316.2,-117.7,316.2,-293.4C672.2,571.4,586.7,491.9,354.4,278.1C314.7,241.4,221.5,143.6,180.3,108.5l282.6,0c45.9,0,132.9,0,143.6,13.7c15.3,24.5,27.5,108.5,32.1,134.5l33.6,0L632.5,0Z" 
	id="f2_k"
	transform="scale(0.001,-0.001)" />

	<path d="M450.7,299.4l0,576L79.4,299.4ZM297.9,0l0,44.3l30.6,0c111.5,0,114.6,15.3,114.6,71.8l0,139l-401.8,0l0,44.3l459.8,713.5c12.2,18.4,16.8,18.4,29,18.4c21.4,0,21.4,-7.7,21.4,-36.7l0,-695.2l154.3,0l0,-44.3l-154.3,0l0,-139c0,-56.5,4.6,-71.8,114.6,-71.8l30.6,0L661.5,3.1l-207.7,0C333.1,3.1,496.5,0,297.9,0Z" 
	id="f2_m"
	transform="scale(0.001,-0.001)" />

	<path d="M168.1,-294.8c-7.7,0,-15.3,7.7,-15.3,15.3c0,6.1,1.5,9.2,7.6,13.8c67.2,70.2,107,161.9,107,259.7c0,7.5,0,28.9,-3.1,28.9c-1.5,0,-3,0,-7.6,-4.6C247.5,10.7,230.7,0,207.8,0C161.9,0,132.9,33.6,132.9,74.9c0,39.7,29,73.3,73.4,73.3c59.5,0,91.6,-59.6,91.6,-154.2c0,-175.7,-116.1,-288.8,-129.8,-288.8Z" 
	id="f2_e"
	transform="scale(0.001,-0.001)" />

	<path d="M42.8,0l0,44.3c99.3,0,116.1,0,116.1,68.8l0,501.1l-119.2,0l0,44.3l119.2,0l0,175.7c0,165,180.3,241.4,319.3,241.4c117.6,0,189.4,-68.8,189.4,-146.7c0,-47.4,-36.6,-65.7,-64.1,-65.7c-26,0,-62.7,19.9,-62.7,64.2c0,16.8,4.6,64.1,68.8,64.1c-45.8,52,-119.2,53.5,-134.5,53.5c-90.1,0,-223,-58.1,-223,-213.9l0,-172.6l178.7,0c21.4,0,24.5,0,27.5,1.5c3.1,1.5,18.4,3.1,27.5,3.1l184.9,12.2l0,-562.2C670.7,44.3,689,44.3,786.8,44.3L744,3.1l-168,0C501.1,3.1,621.8,0,458.3,0l0,44.3c99.3,0,116.1,0,116.1,68.8l0,418.6c0,62.6,-9.1,82.5,-79.4,82.5l-239.9,0l0,-501.1c0,-68.8,18.4,-68.8,116.2,-68.8L328.5,3.1l-168.1,0C85.6,3.1,206.3,0,42.8,0Z" 
	id="f2_2"
	transform="scale(0.001,-0.001)" />

	<path d="M394.2,-15.2c-18.4,0,-21.4,7.7,-29.1,29L146.7,560.7c-18.4,47.4,-33.6,53.5,-119.2,53.5l93.2,41.2l94.7,0c79.5,0,-41.2,3.1,117.7,3.1l0,-44.3c-27.5,0,-85.6,0,-85.6,-39.8c0,-7.6,1.5,-7.6,9.2,-29L427.8,114.6L583.6,508.8c7.7,18.3,10.7,25.9,10.7,39.7c0,16.8,-7.6,62.6,-71.8,65.7l70.3,41.2l102.3,0c21.4,0,-47.3,3.1,65.7,3.1l0,-44.3C663.1,612.6,637.1,546.9,623.3,513.3L424.7,13.8c-10.7,-25.9,-19.8,-29,-30.5,-29Z" 
	id="f2_2d"
	transform="scale(0.001,-0.001)" />

	<path d="M42.8,0l0,44.3c99.3,0,116.1,0,116.1,68.8l0,800.5c0,74.9,-12.2,85.6,-116.1,85.6l0,44.3l212.3,16.8l0,-736.4L473.6,516.4c1.5,0,32.1,27.5,32.1,58c0,24.5,-18.3,38.2,-44.3,39.8l35.1,41.2l163.5,0c39.7,0,-45.8,3.1,70.3,3.1l0,-44.3C698.2,612.6,631,611.1,525.6,519.4C513.3,507.2,417.1,424.7,417.1,420.1c0,-1.5,10.7,-13.7,10.7,-15.2l204.7,-298C675.3,44.3,722.6,44.3,763.9,44.3L698.2,3.1l-110,0C513.3,3.1,629.4,0,475.1,0l0,44.3c32.1,0,53.5,7.6,53.5,35.1c0,21.4,-10.7,38.2,-33.6,70.3L348.3,360.6L250.6,275l0,-161.9c0,-68.8,18.3,-68.8,116.1,-68.8L323.9,3.1l-165,0C85.6,3.1,204.7,0,42.8,0Z" 
	id="f2_22"
	transform="scale(0.001,-0.001)" />

	<path d="M0,391.1l0,30.6l1494.2,0l0,-30.6Z" 
	id="f2_2j"
	transform="scale(0.001,-0.001)" />

	<path d="M126.8,-33.5C110,-33.5,110,-22.8,110,3.1l0,305.5c0,27.5,0,38.2,19.9,38.2c7.6,0,16.8,-3,18.3,-13.7c1.5,-52,6.1,-163.5,105.4,-241.4C337.6,26,440,13.8,504.2,13.8c139,0,220,110,220,218.4c0,82.5,-45.9,134.5,-55,145.2c-47.4,51.9,-77.9,59.5,-168.1,80.9c-24.4,6.1,-50.4,10.7,-74.8,16.8C299.4,505.7,253.6,516.4,181.8,591.3C161.9,614.2,110,682.9,110,780.7c0,161.9,136,296.4,313.2,296.4c146.7,0,216.9,-68.8,258.2,-110l56.5,90.1c12.2,18.4,12.2,19.9,22.9,19.9c16.8,0,16.8,-10.7,16.8,-36.7l0,-307.1c0,-29,0,-36.6,-19.8,-36.6c-16.8,0,-16.8,7.6,-19.9,27.5C716.5,880,635.6,1034.3,424.7,1034.3c-129.8,0,-216.9,-96.2,-216.9,-200.1c0,-55,32.1,-160.4,165,-192.5L580.6,591.3C748.6,550,821.9,404.9,821.9,282.6C821.9,120.7,696.7,-33.5,505.7,-33.5C348.3,-33.5,249,32.1,206.3,76.4L149.7,-15.2c-9.1,-13.7,-12.2,-18.3,-22.9,-18.3Z" 
	id="f3_g"
	transform="scale(0.001,-0.001)" />

	<path d="M84,0l0,47.4l36.7,0c117.6,0,120.7,16.8,120.7,71.8l0,800.5c0,55,-3.1,71.8,-120.7,71.8l-36.7,0l0,47.4l895.3,0l42.8,-343.8l-38.2,0C959.4,913.6,910.6,991.5,670.7,991.5l-218.5,0c-71.8,0,-74.8,-10.7,-74.8,-61.1l0,-366.6l149.7,0c151.2,0,172.6,45.8,172.6,178.7l38.2,0l0,-404.9l-38.2,0c0,133,-21.4,178.8,-172.6,178.8l-149.7,0l0,-407.9c0,-50.4,3,-61.1,74.8,-61.1l230.7,0c270.4,0,307.1,113,345.3,346.8l38.2,0L1002.2,0Z" 
	id="f3_4"
	transform="scale(0.001,-0.001)" />

	<path d="M605,522.5c259.7,0,259.7,171.1,259.7,236.8c0,68.8,0,236.8,-259.7,236.8l-154.3,0c-71.8,0,-74.9,-10.7,-74.9,-61.1l0,-412.5ZM87.1,0l0,47.4l36.7,0c117.6,0,120.6,16.8,120.6,71.8l0,805.1c0,55,-3,71.8,-120.6,71.8l-36.7,0l0,47.4l557.6,0c215.4,0,377.4,-132.9,377.4,-284.2C1022.1,601.9,843.3,482.8,656.9,482.8l-276.5,0l0,-363.6c0,-55,3.1,-71.8,120.7,-71.8l36.7,0L484.3,4.6l-230.7,0C140.6,4.6,311.7,0,87.1,0Z" 
	id="f3_e"
	transform="scale(0.001,-0.001)" />

	<path d="M65.7,0l0,38.2c102.4,0,110,9.2,110,71.8l0,560.7c0,62.6,-7.6,71.8,-110,71.8l0,38.2l679.9,0l29,-258.2l-38.2,0c-16.8,166.5,-56.5,220,-233.8,220l-155.8,0c-53.5,0,-61.1,-4.6,-61.1,-65.7l0,-252.1l106.9,0c113.1,0,131.4,30.6,131.4,132.9l38.2,0l0,-304l-38.2,0C524,356,505.7,386.5,392.6,386.5l-106.9,0l0,-282.6c0,-61.1,7.6,-65.7,61.1,-65.7l165,0C707.4,38.2,744,111.5,770,296.4l38.2,0L763.9,0Z" 
	id="f3_o"
	transform="scale(0.001,-0.001)" />

	<path d="M418.6,409.4c198.6,0,206.3,110,206.3,169.6c0,163.5,-129.9,168.1,-243,168.1c-27.5,0,-68.7,0,-79.4,-4.6c-15.3,-7.6,-18.3,-22.9,-18.3,-61.1l0,-272ZM785.3,-21.3C716.5,-21.3,655.4,1.5,627.9,29C579,76.4,579,103.9,579,189.4c0,67.3,0,103.9,-32.1,137.5c-47.3,47.4,-87,48.9,-125.2,48.9l-137.5,0l0,-265.8c0,-62.6,7.6,-71.8,110,-71.8L354.4,1.5C275,4.6,230.7,4.6,187.9,4.6C114.6,1.5,230.7,0,68.8,0l0,38.2c102.3,0,110,9.2,110,71.8l0,565.3c0,62.6,-7.7,71.8,-110,71.8l0,38.2l366.6,0C620.3,785.3,756.3,686,756.3,579c0,-93.2,-94.8,-161.9,-201.7,-189.4C669.2,345.3,684.4,267.4,696.7,213.9c19.8,-97.8,29,-140.6,41.2,-165c9.2,-16.8,22.9,-36.7,53.5,-36.7c10.7,0,65.7,1.6,76.4,94.7c0,6.2,1.5,19.9,18.3,19.9c19.9,0,19.9,-15.3,19.9,-22.9C906,73.3,883.1,-21.3,785.3,-21.3Z" 
	id="f3_10"
	transform="scale(0.001,-0.001)" />

	<path d="M84,0l0,47.4l36.7,0c117.6,0,120.7,16.8,120.7,71.8l0,805.1c0,55,-3.1,71.8,-120.7,71.8l-36.7,0l53.5,42.8l241.4,0c139,0,-62.6,4.6,194,4.6l0,-47.4l-50.4,0c-145.1,0,-145.1,-21.4,-145.1,-73.3l0,-814.3c0,-50.4,3,-61.1,74.8,-61.1l143.6,0c281.1,0,302.5,194,319.3,346.8l38.2,0L910.6,0Z" 
	id="f3_a"
	transform="scale(0.001,-0.001)" />

	<path d="M59.6,0l0,38.2c108.5,0,116.1,7.6,116.1,73.3l0,562.3c0,65.6,-7.6,73.3,-116.1,73.3l51.9,36.7c79.5,-3.1,119.2,-3.1,158.9,-3.1c79.5,3.1,-39.7,4.6,131.4,4.6l0,-38.2c-108.5,0,-116.1,-7.7,-116.1,-73.3l0,-562.3c0,-65.7,7.6,-73.3,116.1,-73.3L349.9,1.5C270.4,4.6,230.7,4.6,191,4.6C111.5,1.5,230.7,0,59.6,0Z" 
	id="f3_s"
	transform="scale(0.001,-0.001)" />

	<path d="M65.7,0l0,38.2c110,0,110,81,110,116.1l0,582.1c-30.6,10.7,-73.3,10.7,-110,10.7l0,38.2l183.3,0c29.1,0,32.1,0,45.9,-19.9L718.1,177.2l0,453.8c0,35.1,0,116.1,-110,116.1l38.2,35.1c70.2,-1.5,93.1,-1.5,123.7,-1.5c68.8,3.1,-30.6,4.6,100.8,4.6l0,-38.2c-110,0,-110,-81,-110,-116.1l0,-591.3c0,-29,0,-39.7,-21.4,-39.7c-9.1,0,-13.7,0,-25.9,16.8L233.8,682.9l-15.3,18.4l0,-547c0,-35.1,0,-116.1,110,-116.1L290.3,3.1C220,4.6,197.1,4.6,166.5,4.6C97.8,1.5,197.1,0,65.7,0Z" 
	id="f3_w"
	transform="scale(0.001,-0.001)" />

	<path d="M669.2,-33.5C366.7,-33.5,110,210.8,110,522.5c0,310.1,256.7,554.6,557.6,554.6c157.4,0,250.6,-84,301,-136l79.5,117.7c12.2,18.3,18.3,18.3,24.4,18.3c16.8,0,16.8,-10.7,16.8,-36.7l0,-362.1c0,-32,0,-36.6,-24.4,-36.6c-19.9,0,-21.4,4.6,-24.5,25.9c-35.1,235.3,-191,362.1,-354.4,362.1c-105.4,0,-418.6,-58,-418.6,-508.7C267.4,93.2,554.6,13.8,689,13.8c171.1,0,349.9,122.2,362.1,343.7c1.5,15.3,1.5,24.4,18.3,24.4c19.9,0,19.9,-10.6,19.9,-25.9C1089.3,174.2,927.4,-33.5,669.2,-33.5Z" 
	id="f3_2"
	transform="scale(0.001,-0.001)" />

	<path d="M543.9,-33.5c-21.4,0,-24.5,12.2,-30.6,29L191,936.5c-19.9,59.6,-48.9,59.6,-140.6,59.6l62.7,45.8c65.7,-3,123.7,-3,181.8,-3c106.9,0,-58.1,4.6,160.4,4.6l0,-47.4c-42.8,0,-128.4,0,-128.4,-45.8c0,-4.6,0,-7.7,7.7,-27.5L592.8,169.6L817.4,823.5c4.5,13.7,4.5,15.3,4.5,18.3c0,6.1,-33.6,107,-42.7,122.2c-16.8,27.5,-36.7,32.1,-126.8,32.1l67.2,44.3c65.7,-1.5,117.6,-1.5,175.7,-1.5c105.4,0,-58.1,4.6,160.4,4.6l0,-47.4c-41.3,0,-128.3,0,-128.3,-45.8c0,-6.1,4.5,-16.8,6.1,-22.9L1194.7,169.6l244.5,715c7.6,19.8,7.6,22.9,7.6,30.5c0,44.3,-47.4,79.5,-129.9,81l39.8,45.8c97.7,-3,142.1,-3,187.9,-3c47.3,1.5,-45.8,4.6,93.2,4.6l0,-47.4C1521.7,994.6,1495.7,928.9,1481.9,889.2L1174.9,-3c-7.7,-21.3,-10.7,-30.5,-30.6,-30.5c-19.9,0,-24.4,13.7,-30.5,30.5L843.3,783.8L574.4,-3c-6.1,-16.8,-10.6,-30.5,-30.5,-30.5Z" 
	id="f3_j"
	transform="scale(0.001,-0.001)" />

	<path d="M84,0l0,47.4c157.4,0,157.4,70.2,157.4,116.1l0,791.4c0,22.9,0,24.4,-1.5,27.5C235.3,996.1,126.8,996.1,84,996.1l0,47.4l258.2,0c32.1,0,33.6,-1.6,48.9,-21.4L957.9,224.6l0,655.4c0,45.8,0,116.1,-157.3,116.1l53.4,45.8c74.9,-3,125.3,-3,175.7,-3c74.9,3,-50.4,4.6,128.4,4.6l0,-47.4c-157.4,0,-157.4,-70.3,-157.4,-116.1l0,-837.2c0,-32.1,0,-42.8,-21.4,-42.8C971.7,0,964,0,951.8,18.3L284.2,961l0,-797.5c0,-45.9,0,-116.1,157.3,-116.1L388.1,1.5C313.2,4.6,262.8,4.6,212.4,4.6C137.5,1.5,262.8,0,84,0Z" 
	id="f3_c"
	transform="scale(0.001,-0.001)" />

	<path d="M381.9,-18.2c-12.2,0,-90.1,0,-90.1,102.2c0,74.9,13.8,212.4,103.9,389.6c47.4,90.2,67.2,114.6,244.4,330l-276.5,0c-24.4,0,-151.2,0,-165,-9.2c-26,-16.8,-38.2,-123.7,-39.7,-139l-64.2,0l50.4,377.4l64.2,0c3.1,-15.3,6.1,-32.1,44.3,-38.2c18.3,-3.1,246,-10.7,256.7,-10.7l322.3,0c0,-50.4,0,-53.5,-13.7,-68.8L589.7,641.7C493.5,527.1,472.1,356,472.1,122.2c0,-67.2,0,-85.5,-19.9,-110C441.5,1.5,420.1,-18.2,381.9,-18.2Z" 
	id="f4_h"
	transform="scale(0.001,-0.001)" />

	<path d="M412.5,-18.2C224.6,-18.2,71.8,64.2,71.8,204.7c0,64.2,44.3,108.5,108.5,108.5c62.6,0,106.9,-44.3,106.9,-106.9c0,-45.9,-22.9,-93.2,-88.6,-107C271.9,47.4,372.8,42.8,404.9,42.8c165,0,165,161.9,165,230.7c0,73.3,0,232.2,-171.1,232.2l-73.4,0c-30.5,0,-39.7,0,-39.7,26c0,6.1,0,16.8,9.2,21.4c6.1,3,36.6,4.5,55,6.1c58,3,97.7,6.1,137.5,58c48.9,62.7,55,132.9,55,178.8c0,45.8,0,151.2,-136,151.2c-9.2,0,-113.1,0,-177.2,-62.6c71.8,-10.7,87.1,-62.7,87.1,-97.8c0,-70.3,-53.5,-99.3,-97.8,-99.3c-39.7,0,-99.3,24.4,-99.3,100.8c0,123.8,125.2,213.9,296.4,213.9c212.3,0,322.3,-96.2,322.3,-210.8C737.9,670.7,644.7,576,510.3,534.7c236.8,-41.2,275,-186.4,275,-261.2C785.3,120.7,664.6,-18.2,412.5,-18.2Z" 
	id="f4_d"
	transform="scale(0.001,-0.001)" />


</defs>
</svg>