<?xml version="1.0" encoding="UTF-8" standalone="no"?>
<!DOCTYPE svg PUBLIC "-//W3C//DTD SVG 1.1//EN"
"http://www.w3.org/Graphics/SVG/1.1/DTD/svg11.dtd">
<svg viewBox="0 0 909 1286" version="1.1" xmlns="http://www.w3.org/2000/svg" xmlns:xlink="http://www.w3.org/1999/xlink">
<defs>
<style type="text/css"><![CDATA[
.g0_3{
fill: none;
stroke: #D1D1D1;
stroke-width: 0.9136112;
stroke-linecap: butt;
stroke-linejoin: miter;
}
]]></style>
</defs>
<path d="M43.3,168.1h3.9m3.8,0h3.9m3.8,0h3.9m3.8,0h3.9m3.8,0H78m3.8,0h3.9m3.8,0h3.9m3.8,0h3.9m3.8,0h3.9m3.8,0h3.9m3.8,0h3.9m3.8,0h3.9m3.8,0h3.9m3.8,0h3.9m3.8,0H155m3.8,0h3.9m3.8,0h3.9m3.8,0h3.9m3.8,0h3.9m3.8,0h3.9m3.8,0h3.9m3.8,0h3.9m3.8,0h3.9m3.8,0h3.9m3.8,0H232m3.8,0h3.9m3.8,0h3.9m3.9,0h3.8m3.9,0h3.8m3.9,0h3.8m3.9,0h3.8m3.9,0h3.8m3.9,0h3.8m3.9,0h3.8m3.9,0H309m3.9,0h3.8m3.9,0h3.8m3.9,0h3.8m3.9,0h3.8m3.9,0h3.8m3.9,0h3.8m3.9,0h3.8m3.9,0h3.8m3.9,0h3.8m3.9,0H386m3.9,0h3.8m3.9,0h3.8m3.9,0h3.8m3.9,0h3.8m3.9,0h3.8m3.9,0h3.8m3.9,0h3.8m3.9,0h3.8m3.9,0h3.8m3.9,0H463m3.9,0h3.8m3.9,0h3.8m3.9,0h3.9m3.8,0h3.9m3.8,0h3.9m3.8,0h3.9" class="g0_3" />
</svg>