<?xml version="1.0" encoding="UTF-8" standalone="no"?>
<!DOCTYPE svg PUBLIC "-//W3C//DTD SVG 1.1//EN"
"http://www.w3.org/Graphics/SVG/1.1/DTD/svg11.dtd">
<svg viewBox="0 0 909 1286" version="1.1" xmlns="http://www.w3.org/2000/svg" xmlns:xlink="http://www.w3.org/1999/xlink">
<defs>
<style type="text/css"><![CDATA[
.g1_3{
fill: none;
stroke: #D1D1D1;
stroke-width: 0.9136112;
stroke-linecap: butt;
stroke-linejoin: miter;
}
]]></style>
</defs>
<g fill="#666666" >
<use xlink:href="#f0_1" transform="matrix(9,0,0,9,43.3,49.9)" />
<use xlink:href="#f1_p" transform="matrix(10,0,0,10,58,49.9)" />
<use xlink:href="#f1_1q" transform="matrix(10,0,0,10,68.4,49.9)" />
<use xlink:href="#f1_1p" transform="matrix(10,0,0,10,76.8,49.9)" />
<use xlink:href="#f1_1f" transform="matrix(10,0,0,10,85.3,49.9)" />
<use xlink:href="#f1_1w" transform="matrix(10,0,0,10,93.8,49.9)" />
<use xlink:href="#f1_1e" transform="matrix(10,0,0,10,102.3,49.9)" />
<use xlink:href="#f1_1v" transform="matrix(10,0,0,10,109.4,49.9)" />
<use xlink:href="#f1_1v" transform="matrix(10,0,0,10,118,49.9)" />
<use xlink:href="#f1_1w" transform="matrix(10,0,0,10,123.7,49.9)" />
<use xlink:href="#f1_1v" transform="matrix(10,0,0,10,132.1,49.9)" />
<use xlink:href="#f1_1q" transform="matrix(10,0,0,10,137.8,49.9)" />
<use xlink:href="#f1_1t" transform="matrix(10,0,0,10,146.3,49.9)" />
<use xlink:href="#f1_1k" transform="matrix(10,0,0,10,152.4,49.9)" />
<use xlink:href="#f1_1c" transform="matrix(10,0,0,10,156.3,49.9)" />
<use xlink:href="#f1_1n" transform="matrix(10,0,0,10,164,49.9)" />
<use xlink:href="#f1_1u" transform="matrix(10,0,0,10,167.9,49.9)" />
<use xlink:href="#f1_1c" transform="matrix(10,0,0,10,177.5,49.9)" />
<use xlink:href="#f1_1p" transform="matrix(10,0,0,10,185.2,49.9)" />
<use xlink:href="#f1_1f" transform="matrix(10,0,0,10,193.6,49.9)" />
<use xlink:href="#f1_1o" transform="matrix(10,0,0,10,205.1,49.9)" />
<use xlink:href="#f1_1c" transform="matrix(10,0,0,10,217.6,49.9)" />
<use xlink:href="#f1_1t" transform="matrix(10,0,0,10,225.3,49.9)" />
<use xlink:href="#f1_1m" transform="matrix(10,0,0,10,231.4,49.9)" />
<use xlink:href="#f1_1c" transform="matrix(10,0,0,10,242.4,49.9)" />
<use xlink:href="#f1_1u" transform="matrix(10,0,0,10,250.1,49.9)" />
<use xlink:href="#f1_1u" transform="matrix(10,0,0,10,256.7,49.9)" />
<use xlink:href="#f1_1k" transform="matrix(10,0,0,10,263.3,49.9)" />
<use xlink:href="#f1_1i" transform="matrix(10,0,0,10,267.2,49.9)" />
<use xlink:href="#f1_1p" transform="matrix(10,0,0,10,275,49.9)" />
<use xlink:href="#f1_1o" transform="matrix(10,0,0,10,283.4,49.9)" />
<use xlink:href="#f1_1g" transform="matrix(10,0,0,10,295.9,49.9)" />
<use xlink:href="#f1_1p" transform="matrix(10,0,0,10,303.9,49.9)" />
<use xlink:href="#f1_1v" transform="matrix(10,0,0,10,312.4,49.9)" />
<use xlink:href="#f1_1u" transform="matrix(10,0,0,10,318,49.9)" />
<use xlink:href="#f1_1h" transform="matrix(10,0,0,10,327.6,49.9)" />
<use xlink:href="#f1_1q" transform="matrix(10,0,0,10,332.7,49.9)" />
<use xlink:href="#f1_1t" transform="matrix(10,0,0,10,341.2,49.9)" />
<use xlink:href="#f1_1w" transform="matrix(10,0,0,10,350.2,49.9)" />
<use xlink:href="#f1_1p" transform="matrix(10,0,0,10,358.7,49.9)" />
<use xlink:href="#f1_1f" transform="matrix(10,0,0,10,367.2,49.9)" />
<use xlink:href="#f1_1g" transform="matrix(10,0,0,10,375.7,49.9)" />
<use xlink:href="#f1_1t" transform="matrix(10,0,0,10,383.6,49.9)" />
<use xlink:href="#f1_1i" transform="matrix(10,0,0,10,389.8,49.9)" />
<use xlink:href="#f1_1t" transform="matrix(10,0,0,10,397.6,49.9)" />
<use xlink:href="#f1_1c" transform="matrix(10,0,0,10,403.4,49.9)" />
<use xlink:href="#f1_1f" transform="matrix(10,0,0,10,411.1,49.9)" />
<use xlink:href="#f1_1w" transform="matrix(10,0,0,10,419.6,49.9)" />
<use xlink:href="#f1_1c" transform="matrix(10,0,0,10,428.1,49.9)" />
<use xlink:href="#f1_1v" transform="matrix(10,0,0,10,435.8,49.9)" />
<use xlink:href="#f1_1g" transform="matrix(10,0,0,10,441.5,49.9)" />
<use xlink:href="#f1_1u" transform="matrix(10,0,0,10,452.4,49.9)" />
<use xlink:href="#f1_1v" transform="matrix(10,0,0,10,459,49.9)" />
<use xlink:href="#f1_1w" transform="matrix(10,0,0,10,464.7,49.9)" />
<use xlink:href="#f1_1f" transform="matrix(10,0,0,10,473.1,49.9)" />
<use xlink:href="#f1_1g" transform="matrix(10,0,0,10,481.7,49.9)" />
<use xlink:href="#f1_1p" transform="matrix(10,0,0,10,489.6,49.9)" />
<use xlink:href="#f1_1v" transform="matrix(10,0,0,10,498.1,49.9)" />
<use xlink:href="#f1_1u" transform="matrix(10,0,0,10,503.8,49.9)" />
<use xlink:href="#f1_1q" transform="matrix(10,0,0,10,58,68.1)" />
<use xlink:href="#f1_1h" transform="matrix(10,0,0,10,66.4,68.1)" />
<use xlink:href="#f1_15" transform="matrix(10,0,0,10,74.5,68.1)" />
<use xlink:href="#f1_1q" transform="matrix(10,0,0,10,82.6,68.1)" />
<use xlink:href="#f1_1h" transform="matrix(10,0,0,10,91,68.1)" />
<use xlink:href="#f1_1v" transform="matrix(10,0,0,10,96.1,68.1)" />
<use xlink:href="#f1_1y" transform="matrix(10,0,0,10,101.8,68.1)" />
<use xlink:href="#f1_1c" transform="matrix(10,0,0,10,113.5,68.1)" />
<use xlink:href="#f1_1t" transform="matrix(10,0,0,10,121.2,68.1)" />
<use xlink:href="#f1_1g" transform="matrix(10,0,0,10,127.3,68.1)" />
<use xlink:href="#f1_1e" transform="matrix(10,0,0,10,138.2,68.1)" />
<use xlink:href="#f1_1q" transform="matrix(10,0,0,10,145.4,68.1)" />
<use xlink:href="#f1_1p" transform="matrix(10,0,0,10,153.8,68.1)" />
<use xlink:href="#f1_1u" transform="matrix(10,0,0,10,162.3,68.1)" />
<use xlink:href="#f1_1v" transform="matrix(10,0,0,10,168.9,68.1)" />
<use xlink:href="#f1_1t" transform="matrix(10,0,0,10,174.6,68.1)" />
<use xlink:href="#f1_1w" transform="matrix(10,0,0,10,180.7,68.1)" />
<use xlink:href="#f1_1e" transform="matrix(10,0,0,10,189.2,68.1)" />
<use xlink:href="#f1_1v" transform="matrix(10,0,0,10,196.3,68.1)" />
<use xlink:href="#f1_1k" transform="matrix(10,0,0,10,201.9,68.1)" />
<use xlink:href="#f1_1q" transform="matrix(10,0,0,10,205.8,68.1)" />
<use xlink:href="#f1_1p" transform="matrix(10,0,0,10,214.3,68.1)" />
<use xlink:href="#f1_4" transform="matrix(10,0,0,10,225.7,68.1)" />
<use xlink:href="#f1_p" transform="matrix(10,0,0,10,230,68.1)" />
<use xlink:href="#f1_11" transform="matrix(10,0,0,10,240.4,68.1)" />
<use xlink:href="#f1_z" transform="matrix(10,0,0,10,252.5,68.1)" />
<use xlink:href="#f1_12" transform="matrix(10,0,0,10,266.5,68.1)" />
<use xlink:href="#f1_15" transform="matrix(10,0,0,10,275.8,68.1)" />
<use xlink:href="#f1_p" transform="matrix(10,0,0,10,283.9,68.1)" />
<use xlink:href="#f1_v" transform="matrix(10,0,0,10,294.3,68.1)" />
<use xlink:href="#f1_d" transform="matrix(10,0,0,10,301.9,68.1)" />
<use xlink:href="#f1_e" transform="matrix(10,0,0,10,310.8,68.1)" />
<use xlink:href="#f1_b" transform="matrix(10,0,0,10,319.6,68.1)" />
<use xlink:href="#f1_5" transform="matrix(10,0,0,10,328.4,68.1)" />
<use xlink:href="#f1_7" transform="matrix(10,0,0,10,333,68.1)" />
<use xlink:href="#f1_1k" transform="matrix(10,0,0,10,339.2,68.1)" />
<use xlink:href="#f1_1p" transform="matrix(10,0,0,10,343.1,68.1)" />
<use xlink:href="#f1_1r" transform="matrix(10,0,0,10,354.5,68.1)" />
<use xlink:href="#f1_1c" transform="matrix(10,0,0,10,362.9,68.1)" />
<use xlink:href="#f1_1t" transform="matrix(10,0,0,10,370.6,68.1)" />
<use xlink:href="#f1_1v" transform="matrix(10,0,0,10,376.7,68.1)" />
<use xlink:href="#f1_1k" transform="matrix(10,0,0,10,382.4,68.1)" />
<use xlink:href="#f1_1e" transform="matrix(10,0,0,10,386.3,68.1)" />
<use xlink:href="#f1_1w" transform="matrix(10,0,0,10,393.4,68.1)" />
<use xlink:href="#f1_1n" transform="matrix(10,0,0,10,401.9,68.1)" />
<use xlink:href="#f1_1c" transform="matrix(10,0,0,10,405.7,68.1)" />
<use xlink:href="#f1_1t" transform="matrix(10,0,0,10,413.5,68.1)" />
<use xlink:href="#f1_7" transform="matrix(10,0,0,10,418.6,68.1)" />
<use xlink:href="#f1_1q" transform="matrix(10,0,0,10,58,86.4)" />
<use xlink:href="#f1_1d" transform="matrix(10,0,0,10,66.4,86.4)" />
<use xlink:href="#f1_1l" transform="matrix(10,0,0,10,74.9,86.4)" />
<use xlink:href="#f1_1g" transform="matrix(10,0,0,10,78.8,86.4)" />
<use xlink:href="#f1_1e" transform="matrix(10,0,0,10,86.8,86.4)" />
<use xlink:href="#f1_1v" transform="matrix(10,0,0,10,93.9,86.4)" />
<use xlink:href="#f1_8" transform="matrix(10,0,0,10,99.6,86.4)" />
<use xlink:href="#f1_1q" transform="matrix(10,0,0,10,104.8,86.4)" />
<use xlink:href="#f1_1t" transform="matrix(10,0,0,10,113.3,86.4)" />
<use xlink:href="#f1_1k" transform="matrix(10,0,0,10,119.4,86.4)" />
<use xlink:href="#f1_1g" transform="matrix(10,0,0,10,123.3,86.4)" />
<use xlink:href="#f1_1p" transform="matrix(10,0,0,10,131.3,86.4)" />
<use xlink:href="#f1_1v" transform="matrix(10,0,0,10,139.8,86.4)" />
<use xlink:href="#f1_1g" transform="matrix(10,0,0,10,145.4,86.4)" />
<use xlink:href="#f1_1f" transform="matrix(10,0,0,10,153.4,86.4)" />
<use xlink:href="#f1_1u" transform="matrix(10,0,0,10,164.9,86.4)" />
<use xlink:href="#f1_1q" transform="matrix(10,0,0,10,171.5,86.4)" />
<use xlink:href="#f1_1h" transform="matrix(10,0,0,10,179.9,86.4)" />
<use xlink:href="#f1_1v" transform="matrix(10,0,0,10,185.1,86.4)" />
<use xlink:href="#f1_1y" transform="matrix(10,0,0,10,190.7,86.4)" />
<use xlink:href="#f1_1c" transform="matrix(10,0,0,10,202.4,86.4)" />
<use xlink:href="#f1_1t" transform="matrix(10,0,0,10,210.1,86.4)" />
<use xlink:href="#f1_1g" transform="matrix(10,0,0,10,216.3,86.4)" />
<use xlink:href="#f1_1f" transform="matrix(10,0,0,10,227.2,86.4)" />
<use xlink:href="#f1_1g" transform="matrix(10,0,0,10,235.7,86.4)" />
<use xlink:href="#f1_1x" transform="matrix(10,0,0,10,243.5,86.4)" />
<use xlink:href="#f1_1g" transform="matrix(10,0,0,10,251,86.4)" />
<use xlink:href="#f1_1n" transform="matrix(10,0,0,10,259,86.4)" />
<use xlink:href="#f1_1q" transform="matrix(10,0,0,10,262.9,86.4)" />
<use xlink:href="#f1_1r" transform="matrix(10,0,0,10,271.4,86.4)" />
<use xlink:href="#f1_1o" transform="matrix(10,0,0,10,279.8,86.4)" />
<use xlink:href="#f1_1g" transform="matrix(10,0,0,10,292.3,86.4)" />
<use xlink:href="#f1_1p" transform="matrix(10,0,0,10,300.3,86.4)" />
<use xlink:href="#f1_1v" transform="matrix(10,0,0,10,308.7,86.4)" />
<use xlink:href="#f1_7" transform="matrix(10,0,0,10,314.4,86.4)" />
<use xlink:href="#f1_t" transform="matrix(10,0,0,10,320.6,86.4)" />
<use xlink:href="#f1_17" transform="matrix(10,0,0,10,331.7,86.4)" />
<use xlink:href="#f1_v" transform="matrix(10,0,0,10,342.8,86.4)" />
<use xlink:href="#f1_1r" transform="matrix(10,0,0,10,350.5,86.4)" />
<use xlink:href="#f1_1t" transform="matrix(10,0,0,10,358.9,86.4)" />
<use xlink:href="#f1_1q" transform="matrix(10,0,0,10,365,86.4)" />
<use xlink:href="#f1_1i" transform="matrix(10,0,0,10,373.4,86.4)" />
<use xlink:href="#f1_1t" transform="matrix(10,0,0,10,381.2,86.4)" />
<use xlink:href="#f1_1c" transform="matrix(10,0,0,10,387.1,86.4)" />
<use xlink:href="#f1_1o" transform="matrix(10,0,0,10,394.8,86.4)" />
<use xlink:href="#f1_1o" transform="matrix(10,0,0,10,407.3,86.4)" />
<use xlink:href="#f1_1k" transform="matrix(10,0,0,10,419.8,86.4)" />
<use xlink:href="#f1_1p" transform="matrix(10,0,0,10,423.7,86.4)" />
<use xlink:href="#f1_1i" transform="matrix(10,0,0,10,432.1,86.4)" />
<use xlink:href="#f1_1c" transform="matrix(10,0,0,10,442.9,86.4)" />
<use xlink:href="#f1_1p" transform="matrix(10,0,0,10,450.6,86.4)" />
<use xlink:href="#f1_1f" transform="matrix(10,0,0,10,459,86.4)" />
<use xlink:href="#f1_1o" transform="matrix(10,0,0,10,58,104.7)" />
<use xlink:href="#f1_1w" transform="matrix(10,0,0,10,70.5,104.7)" />
<use xlink:href="#f1_1n" transform="matrix(10,0,0,10,78.9,104.7)" />
<use xlink:href="#f1_1v" transform="matrix(10,0,0,10,82.8,104.7)" />
<use xlink:href="#f1_1k" transform="matrix(10,0,0,10,88.5,104.7)" />
<use xlink:href="#f1_8" transform="matrix(10,0,0,10,92.4,104.7)" />
<use xlink:href="#f1_1v" transform="matrix(10,0,0,10,97.7,104.7)" />
<use xlink:href="#f1_1j" transform="matrix(10,0,0,10,103.3,104.7)" />
<use xlink:href="#f1_1t" transform="matrix(10,0,0,10,111.8,104.7)" />
<use xlink:href="#f1_1g" transform="matrix(10,0,0,10,117.9,104.7)" />
<use xlink:href="#f1_1c" transform="matrix(10,0,0,10,125.9,104.7)" />
<use xlink:href="#f1_1f" transform="matrix(10,0,0,10,133.6,104.7)" />
<use xlink:href="#f1_1k" transform="matrix(10,0,0,10,142.1,104.7)" />
<use xlink:href="#f1_1p" transform="matrix(10,0,0,10,146,104.7)" />
<use xlink:href="#f1_1i" transform="matrix(10,0,0,10,154.5,104.7)" />
<use xlink:href="#f1_9" transform="matrix(10,0,0,10,162.3,104.7)" />
<use xlink:href="#f2_r" transform="matrix(10,0,0,10,43.3,127.5)" />
<use xlink:href="#f2_15" transform="matrix(10,0,0,10,51.2,127.5)" />
<use xlink:href="#f2_1i" transform="matrix(10,0,0,10,59.1,127.5)" />
<use xlink:href="#f2_1b" transform="matrix(10,0,0,10,67.8,127.5)" />
<use xlink:href="#f2_1o" transform="matrix(10,0,0,10,75.7,127.5)" />
<use xlink:href="#f2_15" transform="matrix(10,0,0,10,84.3,127.5)" />
<use xlink:href="#f2_1b" transform="matrix(10,0,0,10,92.3,127.5)" />
<use xlink:href="#f2_19" transform="matrix(10,0,0,10,100.1,127.5)" />
<use xlink:href="#f2_1m" transform="matrix(10,0,0,10,108.3,127.5)" />
<use xlink:href="#f2_1o" transform="matrix(10,0,0,10,117.8,127.5)" />
<use xlink:href="#f2_1m" transform="matrix(10,0,0,10,126.5,127.5)" />
<use xlink:href="#f2_19" transform="matrix(10,0,0,10,133.1,127.5)" />
<use xlink:href="#f2_18" transform="matrix(10,0,0,10,141.3,127.5)" />
<use xlink:href="#f2_f" transform="matrix(10,0,0,10,149.9,127.5)" />
<use xlink:href="#f0_1" transform="matrix(9,0,0,9,43.3,145.8)" />
<use xlink:href="#f1_w" transform="matrix(10,0,0,10,58,145.8)" />
<use xlink:href="#f1_1c" transform="matrix(10,0,0,10,64.7,145.8)" />
<use xlink:href="#f1_1x" transform="matrix(10,0,0,10,72.2,145.8)" />
<use xlink:href="#f1_1c" transform="matrix(10,0,0,10,80,145.8)" />
<use xlink:href="#f1_7" transform="matrix(10,0,0,10,87.7,145.8)" />
<use xlink:href="#f1_12" transform="matrix(10,0,0,10,93.9,145.8)" />
<use xlink:href="#f1_20" transform="matrix(10,0,0,10,103.2,145.8)" />
<use xlink:href="#f1_1v" transform="matrix(10,0,0,10,111,145.8)" />
<use xlink:href="#f1_1j" transform="matrix(10,0,0,10,116.6,145.8)" />
<use xlink:href="#f1_1q" transform="matrix(10,0,0,10,125.1,145.8)" />
<use xlink:href="#f1_1p" transform="matrix(10,0,0,10,133.6,145.8)" />
<use xlink:href="#f1_7" transform="matrix(10,0,0,10,142,145.8)" />
<use xlink:href="#f1_14" transform="matrix(10,0,0,10,148.2,145.8)" />
<use xlink:href="#f1_7" transform="matrix(10,0,0,10,158,145.8)" />
<use xlink:href="#f1_o" transform="matrix(10,0,0,10,164.2,145.8)" />
<use xlink:href="#f1_1c" transform="matrix(10,0,0,10,174,145.8)" />
<use xlink:href="#f1_1u" transform="matrix(10,0,0,10,181.7,145.8)" />
<use xlink:href="#f1_1j" transform="matrix(10,0,0,10,188.3,145.8)" />
</g>
<path d="M43.3,168.1l3.9,0" class="g1_3" />
<path d="M51,168.1l3.9,0" class="g1_3" />
<path d="M58.7,168.1l3.9,0" class="g1_3" />
<path d="M66.4,168.1l3.9,0" class="g1_3" />
<path d="M74.1,168.1l3.9,0" class="g1_3" />
<path d="M81.8,168.1l3.9,0" class="g1_3" />
<path d="M89.5,168.1l3.9,0" class="g1_3" />
<path d="M97.2,168.1l3.9,0" class="g1_3" />
<path d="M104.9,168.1l3.9,0" class="g1_3" />
<path d="M112.6,168.1l3.9,0" class="g1_3" />
<path d="M120.3,168.1l3.9,0" class="g1_3" />
<path d="M128,168.1l3.9,0" class="g1_3" />
<path d="M135.7,168.1l3.9,0" class="g1_3" />
<path d="M143.4,168.1l3.9,0" class="g1_3" />
<path d="M151.1,168.1l3.9,0" class="g1_3" />
<path d="M158.8,168.1l3.9,0" class="g1_3" />
<path d="M166.5,168.1l3.9,0" class="g1_3" />
<path d="M174.2,168.1l3.9,0" class="g1_3" />
<path d="M181.9,168.1l3.9,0" class="g1_3" />
<path d="M189.6,168.1l3.9,0" class="g1_3" />
<path d="M197.3,168.1l3.9,0" class="g1_3" />
<path d="M205,168.1l3.9,0" class="g1_3" />
<path d="M212.7,168.1l3.9,0" class="g1_3" />
<path d="M220.4,168.1l3.9,0" class="g1_3" />
<path d="M228.1,168.1l3.9,0" class="g1_3" />
<path d="M235.8,168.1l3.9,0" class="g1_3" />
<path d="M243.5,168.1l3.9,0" class="g1_3" />
<path d="M251.3,168.1l3.8,0" class="g1_3" />
<path d="M259,168.1l3.8,0" class="g1_3" />
<path d="M266.7,168.1l3.8,0" class="g1_3" />
<path d="M274.4,168.1l3.8,0" class="g1_3" />
<path d="M282.1,168.1l3.8,0" class="g1_3" />
<path d="M289.8,168.1l3.8,0" class="g1_3" />
<path d="M297.5,168.1l3.8,0" class="g1_3" />
<path d="M305.2,168.1l3.8,0" class="g1_3" />
<path d="M312.9,168.1l3.8,0" class="g1_3" />
<path d="M320.6,168.1l3.8,0" class="g1_3" />
<path d="M328.3,168.1l3.8,0" class="g1_3" />
<path d="M336,168.1l3.8,0" class="g1_3" />
<path d="M343.7,168.1l3.8,0" class="g1_3" />
<path d="M351.4,168.1l3.8,0" class="g1_3" />
<path d="M359.1,168.1l3.8,0" class="g1_3" />
<path d="M366.8,168.1l3.8,0" class="g1_3" />
<path d="M374.5,168.1l3.8,0" class="g1_3" />
<path d="M382.2,168.1l3.8,0" class="g1_3" />
<path d="M389.9,168.1l3.8,0" class="g1_3" />
<path d="M397.6,168.1l3.8,0" class="g1_3" />
<path d="M405.3,168.1l3.8,0" class="g1_3" />
<path d="M413,168.1l3.8,0" class="g1_3" />
<path d="M420.7,168.1l3.8,0" class="g1_3" />
<path d="M428.4,168.1l3.8,0" class="g1_3" />
<path d="M436.1,168.1l3.8,0" class="g1_3" />
<path d="M443.8,168.1l3.8,0" class="g1_3" />
<path d="M451.5,168.1l3.8,0" class="g1_3" />
<path d="M459.2,168.1l3.8,0" class="g1_3" />
<path d="M466.9,168.1l3.8,0" class="g1_3" />
<path d="M474.6,168.1l3.8,0" class="g1_3" />
<path d="M482.3,168.1l3.9,0" class="g1_3" />
<path d="M490,168.1l3.9,0" class="g1_3" />
<path d="M497.7,168.1l3.9,0" class="g1_3" />
<path d="M505.4,168.1l3.9,0" class="g1_3" />
<g fill="#000000" >
<use xlink:href="#f1_12" transform="matrix(10,0,0,10,43.3,1266.9)" />
<use xlink:href="#f1_1c" transform="matrix(10,0,0,10,52.2,1266.9)" />
<use xlink:href="#f1_1i" transform="matrix(10,0,0,10,59.9,1266.9)" />
<use xlink:href="#f1_1g" transform="matrix(10,0,0,10,67.7,1266.9)" />
<use xlink:href="#f1_e" transform="matrix(10,0,0,10,78.6,1266.9)" />
<use xlink:href="#f1_1q" transform="matrix(10,0,0,10,91.9,1266.9)" />
<use xlink:href="#f1_1h" transform="matrix(10,0,0,10,100.4,1266.9)" />
<use xlink:href="#f1_e" transform="matrix(10,0,0,10,108.5,1266.9)" />
<use xlink:href="#f1_22" transform="matrix(10,0,0,10,121.7,1266.9)" />
<use xlink:href="#f1_z" transform="matrix(10,0,0,10,130.8,1266.9)" />
<use xlink:href="#f1_1c" transform="matrix(10,0,0,10,144.8,1266.9)" />
<use xlink:href="#f1_1p" transform="matrix(10,0,0,10,152.5,1266.9)" />
<use xlink:href="#f1_1k" transform="matrix(10,0,0,10,160.9,1266.9)" />
<use xlink:href="#f1_1u" transform="matrix(10,0,0,10,164.8,1266.9)" />
<use xlink:href="#f1_1j" transform="matrix(10,0,0,10,171.4,1266.9)" />
<use xlink:href="#f1_x" transform="matrix(10,0,0,10,182.8,1266.9)" />
<use xlink:href="#f1_1w" transform="matrix(10,0,0,10,193.2,1266.9)" />
<use xlink:href="#f1_1m" transform="matrix(10,0,0,10,201.7,1266.9)" />
<use xlink:href="#f1_1t" transform="matrix(10,0,0,10,209.7,1266.9)" />
<use xlink:href="#f1_1g" transform="matrix(10,0,0,10,215.8,1266.9)" />
<use xlink:href="#f1_1l" transform="matrix(10,0,0,10,223.8,1266.9)" />
<use xlink:href="#f1_1c" transform="matrix(10,0,0,10,227.6,1266.9)" />
<use xlink:href="#f1_22" transform="matrix(10,0,0,10,239.8,1266.9)" />
<use xlink:href="#f1_1m" transform="matrix(10,0,0,10,248.8,1266.9)" />
<use xlink:href="#f1_1w" transform="matrix(10,0,0,10,256.8,1266.9)" />
<use xlink:href="#f1_1m" transform="matrix(10,0,0,10,265.3,1266.9)" />
<use xlink:href="#f1_1t" transform="matrix(10,0,0,10,273.2,1266.9)" />
<use xlink:href="#f1_1g" transform="matrix(10,0,0,10,279.4,1266.9)" />
<use xlink:href="#f1_1l" transform="matrix(10,0,0,10,287.4,1266.9)" />
<use xlink:href="#f1_1c" transform="matrix(10,0,0,10,291.2,1266.9)" />
<use xlink:href="#f1_9" transform="matrix(10,0,0,10,298.9,1266.9)" />
<use xlink:href="#f1_1o" transform="matrix(10,0,0,10,302.2,1266.9)" />
<use xlink:href="#f1_m" transform="matrix(10,0,0,10,314.7,1266.9)" />
<use xlink:href="#f1_1i" transform="matrix(10,0,0,10,327.2,1266.9)" />
<use xlink:href="#f1_1o" transform="matrix(10,0,0,10,334.9,1266.9)" />
<use xlink:href="#f1_1c" transform="matrix(10,0,0,10,347.4,1266.9)" />
<use xlink:href="#f1_1k" transform="matrix(10,0,0,10,355.2,1266.9)" />
<use xlink:href="#f1_1n" transform="matrix(10,0,0,10,359.1,1266.9)" />
<use xlink:href="#f1_9" transform="matrix(10,0,0,10,363,1266.9)" />
<use xlink:href="#f1_1e" transform="matrix(10,0,0,10,366.2,1266.9)" />
<use xlink:href="#f1_1q" transform="matrix(10,0,0,10,373.3,1266.9)" />
<use xlink:href="#f1_1o" transform="matrix(10,0,0,10,381.8,1266.9)" />
<use xlink:href="#f1_22" transform="matrix(10,0,0,10,398.7,1266.9)" />
<use xlink:href="#f1_b" transform="matrix(10,0,0,10,407.7,1266.9)" />
<use xlink:href="#f1_d" transform="matrix(10,0,0,10,416.6,1266.9)" />
<use xlink:href="#f1_i" transform="matrix(10,0,0,10,425.4,1266.9)" />
<use xlink:href="#f1_8" transform="matrix(10,0,0,10,434.2,1266.9)" />
<use xlink:href="#f1_e" transform="matrix(10,0,0,10,439.5,1266.9)" />
<use xlink:href="#f1_j" transform="matrix(10,0,0,10,448.3,1266.9)" />
<use xlink:href="#f1_i" transform="matrix(10,0,0,10,457.2,1266.9)" />
<use xlink:href="#f1_8" transform="matrix(10,0,0,10,466,1266.9)" />
<use xlink:href="#f1_b" transform="matrix(10,0,0,10,471.3,1266.9)" />
<use xlink:href="#f1_b" transform="matrix(10,0,0,10,480.1,1266.9)" />
<use xlink:href="#f1_e" transform="matrix(10,0,0,10,488.9,1266.9)" />
<use xlink:href="#f1_i" transform="matrix(10,0,0,10,497.7,1266.9)" />
</g>
<defs>
	<path d="M391.1,77.9c-163.5,0,-304,134.5,-304,305.6c0,161.9,132.9,304,305.5,304c163.5,0,304.1,-134.4,304.1,-305.6C696.7,220,563.8,77.9,391.1,77.9Z" 
	id="f0_1"
	transform="scale(0.001,-0.001)" />

	<path d="M1181,-24.3c-157.4,0,-301,27.4,-429.3,82.4C623.3,111.5,513.3,187.9,423.2,287.2C333.1,385,262.8,502.6,212.4,640.1c-50.5,137.5,-74.9,288.8,-74.9,453.8c0,165,27.5,316.2,79.4,453.7c55,137.5,129.9,255.2,226.2,354.5c96.2,99.3,212.3,175.7,348.3,230.7c134.4,53.5,282.6,81,446.1,81c160.4,0,299.4,-24.5,415.6,-74.9c117.6,-50.4,221.5,-117.6,311.6,-203.2l-96.2,-136c-7.7,-10.7,-15.3,-18.3,-24.5,-24.4c-9.1,-7.7,-22.9,-10.7,-39.7,-10.7c-13.7,0,-27.5,4.6,-41.2,13.7c-15.3,10.7,-33.7,23,-53.5,36.7c-19.9,13.8,-44.3,29,-71.8,45.8c-27.5,16.8,-59.6,32.1,-97.8,45.9c-38.2,13.7,-81,25.9,-131.4,36.6c-50.4,9.2,-106.9,13.8,-172.6,13.8c-117.7,0,-224.6,-19.9,-322.4,-59.6C817.4,1856.3,733.3,1799.7,663.1,1724.9c-70.3,-74.9,-125.3,-165,-165,-272C459.9,1346,440,1226.8,440,1093.9c0,-136,19.9,-258.2,58.1,-365.1C537.8,621.8,591.3,531.7,660,458.3C727.2,383.5,806.7,326.9,899.9,288.8c93.2,-38.2,192.5,-58.1,299.4,-58.1c65.7,0,123.8,4.6,175.7,10.7c51.9,9.2,100.8,19.9,143.6,36.7c45.8,16.8,85.6,36.6,125.3,61.1c36.7,25.9,76.4,55,114.6,90.1c16.8,15.3,33.6,22.9,50.4,22.9c16.8,0,30.5,-6.1,44.3,-19.8L1969.3,305.6C1879.2,201.7,1770.7,120.7,1643.9,62.6C1515.6,4.6,1361.3,-24.3,1181,-24.3Z" 
	id="f1_p"
	transform="scale(5.0E-4,-5.0E-4)" />

	<path d="M849.4,191c152.8,0,267.4,50.4,342.3,154.3c74.8,100.8,113,244.4,113,427.8c0,184.8,-38.2,328.4,-113,430.8c-74.9,102.4,-189.5,154.3,-342.3,154.3c-77.9,0,-145.1,-13.8,-201.6,-39.7c-56.5,-26,-103.9,-64.2,-143.6,-114.6c-36.7,-50.4,-65.7,-111.5,-85.6,-183.3C400.3,947.2,391.1,864.7,391.1,773.1c0,-91.7,9.2,-174.2,27.5,-246c19.9,-71.8,48.9,-132.9,85.6,-181.8c39.7,-50.4,87.1,-88.6,143.6,-114.6C704.3,204.7,771.5,191,849.4,191Zm0,-212.3C736.4,-21.3,634,-3,543.9,33.6C452.2,71.8,374.3,125.3,310.1,194C246,262.8,197.1,346.8,161.9,444.6C126.8,542.4,110,652.4,110,774.6c0,120.7,16.8,230.7,51.9,328.5c35.2,99.3,84.1,183.3,148.2,252c64.2,68.8,142.1,122.3,233.8,160.5c90.1,38.2,192.5,56.5,305.5,56.5c113.1,0,215.5,-18.3,305.6,-56.5c91.7,-38.2,169.6,-91.7,232.2,-160.5c64.2,-68.7,113.1,-152.7,146.7,-252c35.1,-97.8,51.9,-207.8,51.9,-328.5c0,-122.2,-16.8,-232.2,-51.9,-330C1500.3,346.8,1451.4,262.8,1387.2,194C1324.6,125.3,1246.7,71.8,1155,33.6C1064.9,-3,962.5,-21.3,849.4,-21.3Z" 
	id="f1_1q"
	transform="scale(5.0E-4,-5.0E-4)" />

	<path d="M223.1,0l0,1547.6l161.9,0c38.2,0,62.6,-18.3,73.3,-56.5l21.4,-168c67.2,74.8,142.1,134.4,226.1,180.2c82.5,45.9,178.8,68.8,287.3,68.8c84,0,158.8,-13.8,223,-41.3c65.7,-29,119.2,-68.7,162,-119.1c44.3,-52,76.3,-114.6,99.3,-186.4c22.9,-71.8,33.6,-152.8,33.6,-239.9L1511,0L1239,0l0,985.4c0,117.7,-25.9,207.8,-80.9,273.5c-52,64.2,-134.5,96.2,-244.5,96.2c-81,0,-155.8,-19.8,-226.1,-58C618.8,1258.9,554.6,1205.4,495,1139.7L495,0Z" 
	id="f1_1p"
	transform="scale(5.0E-4,-5.0E-4)" />

	<path d="M785.3,198.6c88.6,0,166.5,19.9,232.2,61.1c67.2,41.3,128.3,97.8,184.9,172.7l0,748.6c-50.5,67.2,-105.5,114.6,-163.5,142.1c-61.1,25.9,-126.8,39.7,-198.6,39.7c-145.2,0,-255.2,-52,-333.1,-154.3C429.3,1106.1,391.1,959.4,391.1,768.5c0,-100.9,9.2,-187.9,26,-258.2c16.8,-73.4,42.8,-131.4,76.4,-177.2c33.6,-47.4,74.8,-81,123.7,-102.4c48.9,-21.4,105.4,-32.1,168.1,-32.1ZM695.1,-21.3c-88.6,0,-169.5,16.8,-241.3,51.9c-71.9,33.6,-134.5,84,-184.9,149.7C218.5,246,178.8,328.5,151.3,427.8C123.8,527.1,110,640.1,110,768.5c0,114.6,15.3,220,45.8,319.3c30.6,97.8,74.9,183.3,131.4,255.1c58.1,71.8,128.4,129.9,210.9,169.6c82.5,42.8,175.7,62.6,281.1,62.6c94.7,0,175.7,-16.8,242.9,-47.3c67.2,-33.6,126.8,-77.9,180.3,-136l0,858.6l271.9,0L1474.3,0L1312.4,0c-38.2,0,-62.7,18.3,-73.4,56.5l-24.4,187.9C1148.9,163.5,1072.5,99.3,986.9,51.9C902.9,3.1,805.1,-21.3,695.1,-21.3Z" 
	id="f1_1f"
	transform="scale(5.0E-4,-5.0E-4)" />

	<path d="M704.3,-24.3c-84,0,-158.9,13.7,-224.6,42.6C415.6,45.8,362.1,85.6,317.8,136C273.5,186.4,241.4,249,220,320.8c-22.9,71.8,-33.6,152.8,-33.6,239.9l0,986.9l271.9,0l0,-986.9c0,-117.6,27.5,-207.8,81,-271.9c53.5,-64.2,136,-96.3,244.5,-96.3c79.4,0,154.3,18.3,224.5,56.5c70.3,38.2,134.5,90.2,194.1,157.4l0,1141.2l271.9,0L1474.3,0L1312.4,0c-38.2,0,-62.7,18.3,-73.4,56.5l-21.4,166.6C1150.4,148.2,1075.6,88.6,991.5,42.8C907.5,-1.4,812.8,-24.3,704.3,-24.3Z" 
	id="f1_1w"
	transform="scale(5.0E-4,-5.0E-4)" />

	<path d="M796,-21.3C699.7,-21.3,609.6,-3,525.6,32.1C443.1,67.2,371.3,119.2,310.1,186.4C249,255.1,201.7,337.6,165,436.9c-33.6,99.4,-51.9,210.9,-51.9,337.7c0,114.6,15.2,221.5,48.8,319.3c30.6,97.8,78,181.8,140.6,253.6c61.1,70.3,137.5,125.3,227.6,165c90.2,39.7,194.1,59.6,311.7,59.6c108.5,0,203.2,-16.8,287.2,-53.5c84.1,-33.6,157.4,-84,221.6,-148.2l-71.8,-97.8c-7.7,-10.7,-16.9,-19.8,-24.5,-25.9c-7.6,-6.1,-19.9,-9.2,-35.1,-9.2c-15.3,0,-32.1,6.1,-48.9,18.3c-18.4,13.8,-41.3,27.5,-68.8,42.8c-27.5,15.3,-61.1,29,-99.3,42.8c-39.7,12.2,-88.6,18.3,-145.1,18.3C782.2,1359.7,715,1346,656.9,1320C598.9,1292.5,550,1252.8,510.3,1202.4c-38.2,-50.5,-67.2,-113.1,-88.6,-184.9C403.3,945.7,392.6,864.7,392.6,774.6c0,-93.2,10.7,-177.2,32.1,-249c21.4,-73.4,52,-134.5,90.2,-183.4c38.2,-50.4,85.5,-88.6,142,-113c55,-27.5,117.7,-39.8,186.4,-39.8c65.7,0,120.7,7.7,163.5,24.5c42.8,15.3,77.9,32.1,107,51.9c29,19.9,51.9,36.7,70.2,52c18.4,16.8,36.7,24.4,55,24.4c22.9,0,41.3,-9.1,52,-25.9l76.4,-99.4C1300.1,134.4,1216.1,73.3,1115.3,36.7C1014.4,-3,907.5,-21.3,796,-21.3Z" 
	id="f1_1e"
	transform="scale(5.0E-4,-5.0E-4)" />

	<path d="M692.1,-24.3C569.9,-24.3,476.7,9.2,409.4,77.9c-64.1,68.8,-97.7,166.5,-97.7,294.9l0,947.2l-186.4,0c-16.8,0,-30.6,4.6,-41.3,15.3c-10.7,9.1,-16.8,24.4,-16.8,44.3l0,108.5l253.6,32l62.7,478.2c1.5,15.3,9.1,27.5,19.8,36.7c10.7,10.7,26,15.3,42.8,15.3l137.5,0l0,-533.2l443.1,0l0,-197.1l-443.1,0l0,-928.9c0,-65.7,15.3,-113,47.4,-145.1c32.1,-32.1,71.8,-47.4,122.2,-47.4c29,0,53.5,3.1,74.9,12.2c19.8,6.1,38.2,15.3,53.4,24.5c15.3,9.1,29.1,18.3,38.2,24.4c12.2,9.2,21.4,12.2,29.1,12.2c13.7,0,27.5,-9.1,38.1,-25.9l79.5,-129.9C1019,71.8,962.5,38.2,896.8,12.2C831.1,-12.1,762.4,-24.3,692.1,-24.3Z" 
	id="f1_1v"
	transform="scale(5.0E-4,-5.0E-4)" />

	<path d="M223.1,0l0,1547.6l155.8,0c29,0,50.4,-6.1,61.1,-16.8c10.7,-10.7,18.3,-30.5,22.9,-58l18.4,-241.4c53.4,108.5,117.6,192.5,197,253.6c76.4,59.6,168.1,90.1,273.5,90.1c42.8,0,81,-4.5,116.1,-13.7c35.2,-10.7,67.2,-24.5,96.3,-41.3L1129,1316.9c-7.6,-25.9,-22.9,-38.1,-47.3,-38.1c-13.8,0,-36.7,4.5,-65.7,13.7c-29.1,10.7,-70.3,15.3,-123.8,15.3c-94.7,0,-174.1,-27.5,-238.3,-82.5C591.3,1170.3,537.8,1090.8,495,985.4L495,0Z" 
	id="f1_1t"
	transform="scale(5.0E-4,-5.0E-4)" />

	<path d="M253.6,0l0,1547.6l272,0L525.6,0ZM391.1,1841c-26,0,-51.9,4.6,-73.3,15.3c-24.5,10.6,-44.3,24.4,-61.1,41.2c-18.4,18.3,-32.1,39.7,-42.8,61.1c-10.7,24.5,-15.3,48.9,-15.3,74.9c0,25.9,4.6,51.9,15.3,74.8c10.7,24.5,24.4,45.9,42.8,64.2c16.8,16.8,36.6,30.6,61.1,41.3c21.4,10.6,47.3,15.2,73.3,15.2c26,0,52,-4.6,74.9,-15.2c22.9,-10.7,44.3,-24.5,62.6,-41.3c16.8,-18.3,30.6,-39.7,42.8,-64.2c9.2,-22.9,15.3,-48.9,15.3,-74.8c0,-26,-6.1,-50.4,-15.3,-74.9c-12.2,-21.4,-26,-42.8,-42.8,-61.1c-18.3,-16.8,-39.7,-30.6,-62.6,-41.2C443.1,1845.6,417.1,1841,391.1,1841Z" 
	id="f1_1k"
	transform="scale(5.0E-4,-5.0E-4)" />

	<path d="M653.9,166.5c47.4,0,91.7,4.6,131.4,13.8c39.7,10.7,76.4,24.4,113,42.8c33.6,16.8,67.3,38.2,100.9,64.1c30.5,26,62.6,55,93.2,87.1l0,322.4C967.1,692.1,860.1,682.9,773.1,666.1C686,650.8,614.2,631,559.2,605C504.2,579,464.4,550,440,514.9C414,479.7,401.8,441.5,401.8,398.8c0,-41.3,6.1,-76.4,19.9,-105.5c13.7,-29,30.5,-53.4,53.4,-73.3c23,-18.3,48.9,-32.1,79.5,-39.7c30.5,-9.2,64.2,-13.8,99.3,-13.8Zm-81,-190.8c-59.6,0,-116.1,9.1,-169.6,24.3C351.4,18.3,305.6,42.8,267.4,76.4C229.2,110,198.6,152.8,174.2,204.7c-21.4,50.4,-33.6,111.6,-33.6,181.8c0,61.1,16.8,120.7,50.4,175.7c33.6,58.1,87.1,107,163.4,151.3c73.4,44.3,172.7,79.4,293.4,108.4c120.7,27.5,268.9,42.8,444.6,47.4l0,120.7c0,120.7,-26,210.8,-78,271.9c-50.4,62.7,-126.8,93.2,-227.6,93.2c-65.7,0,-122.2,-7.6,-166.5,-25.9c-45.9,-15.3,-85.6,-35.2,-119.2,-55C469,1252.8,440,1234.4,415.6,1216.1c-23,-15.3,-47.4,-24.4,-70.3,-24.4c-18.4,0,-33.6,4.6,-48.9,15.2c-12.2,9.2,-24.5,21.4,-32.1,35.2l-48.9,87.1c85.6,82.5,177.2,143.6,276.5,184.8c99.4,41.3,207.8,61.1,328.5,61.1c87.1,0,163.5,-13.7,230.7,-42.7c67.2,-29.1,123.8,-68.8,169.6,-119.2c45.8,-50.4,81,-113.1,103.9,-184.9c22.9,-71.8,35.1,-151.2,35.1,-238.3l0,-990L1239,0c-25.9,0,-47.3,4.6,-64.1,12.2c-16.8,7.7,-27.5,26,-32.1,52l-30.6,143.6C1071,171.1,1031.3,137.5,993.1,110C954.9,79.4,913.6,55,870.8,36.7C828.1,15.3,782.2,1.5,733.3,-9.1C686,-19.8,632.5,-24.3,572.9,-24.3Z" 
	id="f1_1c"
	transform="scale(5.0E-4,-5.0E-4)" />

	<path d="M253.6,0l0,2250.4l272,0L525.6,0Z" 
	id="f1_1n"
	transform="scale(5.0E-4,-5.0E-4)" />

	<path d="M611.1,-24.3C502.6,-24.3,404.9,-6,317.8,27.5c-87.1,36.7,-162,81,-223.1,136l64.2,103.9c7.6,13.7,18.3,22.9,29,30.5c10.7,7.7,26,10.7,44.3,10.7c18.4,0,38.2,-7.6,58.1,-21.4c19.8,-13.7,45.8,-30.5,73.3,-47.3c30.6,-16.8,64.2,-33.6,107,-47.4c39.7,-13.7,91.6,-21.4,154.3,-21.4c53.4,0,99.3,6.1,139,21.4c39.7,12.2,73.3,32.1,99.3,55c26,22.9,45.8,50.4,59.6,81c12.2,30.5,18.3,62.6,18.3,97.8c0,42.7,-12.2,77.9,-33.6,105.4c-24.4,29,-53.5,51.9,-91.7,73.3c-38.2,18.3,-80.9,36.7,-128.3,51.9C638.6,670.7,589.7,686,537.8,702.8c-48.9,16.8,-99.3,35.1,-146.7,55c-48.9,21.4,-91.7,47.3,-129.8,79.4c-38.2,32.1,-68.8,70.3,-90.2,116.1C146.7,1000.7,136,1057.2,136,1122.9c0,59.6,12.2,116.1,36.6,169.6c24.5,55,59.6,103.9,107,143.6c47.3,42.8,103.9,74.9,172.6,99.3c68.8,24.5,146.7,36.7,233.8,36.7c102.3,0,194,-16.8,273.4,-47.4c82.5,-33.6,151.3,-76.4,210.9,-132.9l-61.1,-99.3c-12.3,-22.9,-30.6,-33.6,-56.6,-33.6c-15.2,0,-32,6.1,-51.9,16.8c-19.9,10.7,-42.8,22.9,-71.8,38.2c-27.5,12.2,-61.1,26,-99.3,36.7c-38.2,12.2,-84,18.3,-137.5,18.3c-45.8,0,-87.1,-6.1,-123.8,-18.3c-36.6,-10.7,-67.2,-27.5,-94.7,-47.4c-24.4,-19.9,-45.8,-44.3,-58,-71.8c-15.3,-26,-21.4,-55,-21.4,-87.1c0,-39.7,12.2,-73.3,33.6,-99.3c24.4,-26,53.5,-48.9,91.6,-68.7c38.2,-19.9,81,-36.7,128.4,-50.5c47.3,-15.2,97.8,-30.5,146.6,-48.9c52,-15.2,100.9,-35.1,148.2,-55C990,802.1,1032.8,776.1,1071,745.6c38.2,-30.6,68.7,-67.3,90.1,-113.1c24.5,-42.8,35.2,-96.2,35.2,-158.9c0,-71.8,-12.3,-137.5,-38.2,-198.6C1132.1,215.4,1095.4,161.9,1045,119.2C994.6,73.3,933.5,39.7,861.7,13.8C789.9,-12.1,705.8,-24.3,611.1,-24.3Z" 
	id="f1_1u"
	transform="scale(5.0E-4,-5.0E-4)" />

	<path d="M223.1,0l0,1547.6l161.9,0c38.2,0,62.6,-18.3,73.3,-56.5l19.9,-158.9c56.5,70.3,120.7,128.4,191,172.7c71.8,44.3,154.3,67.2,247.5,67.2c105.4,0,189.4,-29,253.6,-87.1c65.7,-58.1,111.5,-136,140.5,-235.3c21.4,56.6,48.9,103.9,85.6,145.2c33.6,41.2,73.3,74.8,117.6,100.8c44.3,26,90.2,45.8,139.1,58.1c50.4,12.2,100.8,18.3,151.2,18.3c81,0,154.3,-13.8,218.5,-38.2c62.6,-27.5,116.1,-64.2,161.9,-114.6c42.8,-50.4,77.9,-111.5,100.9,-184.9c22.9,-71.8,35.1,-155.8,35.1,-249L2320.7,0L2048.8,0l0,985.4c0,120.7,-26,212.4,-79.5,276.5c-53.5,61.2,-129.9,93.2,-230.7,93.2c-44.3,0,-87.1,-7.6,-128.3,-22.9c-39.7,-16.8,-74.9,-39.7,-105.4,-70.3c-30.6,-30.5,-55,-68.7,-71.8,-116.1c-18.4,-45.8,-27.5,-99.3,-27.5,-160.4L1405.6,0l-272,0l0,985.4c0,123.8,-24.4,217,-74.8,278.1c-50.5,61.1,-122.3,91.6,-218.5,91.6c-67.2,0,-129.9,-18.3,-186.4,-53.4C595.8,1265,542.4,1216.1,495,1153.5L495,0Z" 
	id="f1_1o"
	transform="scale(5.0E-4,-5.0E-4)" />

	<path d="M232.2,0l0,2250.4l273.5,0l0,-1324.6l70.3,0c19.8,0,36.6,3.1,50.4,9.2c13.7,4.6,27.5,16.8,44.3,33.6l488.9,524c15.3,16.8,30.5,29.1,45.8,39.8c15.3,10.7,35.2,15.2,61.1,15.2l247.5,0L944.2,941.1C930.4,924.3,916.7,909,901.4,895.3c-12.2,-13.8,-29,-24.5,-45.8,-35.2c18.3,-12.2,35.1,-25.9,48.8,-41.2c15.3,-16.8,29.1,-35.1,42.8,-55L1552.2,0L1307.8,0c-22.9,0,-41.3,4.6,-58.1,12.2c-15.3,9.2,-30.5,22.9,-44.3,41.3l-508.7,634c-15.3,21.4,-30.6,35.1,-45.9,42.8c-15.2,6.1,-38.2,9.1,-68.7,9.1l-76.4,0L505.7,0Z" 
	id="f1_1m"
	transform="scale(5.0E-4,-5.0E-4)" />

	<path d="M757.8,-358.9c73.3,0,139,6.1,197.1,19.8c58,13.8,106.9,32.1,148.2,56.6c39.7,24.4,70.2,53.4,91.6,87c21.4,33.7,32.1,70.3,32.1,111.6c0,38.2,-10.7,70.2,-32.1,93.1c-21.4,22.9,-50.4,41.2,-87.1,55C1071,76.4,1028.2,85.6,980.8,91.7c-47.3,6.1,-97.7,10.7,-151.2,12.2c-53.5,3,-107,6.1,-162,9.2c-55,3,-106.9,9.1,-157.3,16.8C452.2,102.4,404.9,68.8,369.7,29c-36.6,-39.6,-55,-87,-55,-142c0,-35.1,9.2,-67.2,27.5,-97.7c16.8,-29.1,44.3,-55,81,-76.4c36.7,-22.9,82.5,-39.7,139,-52c55,-13.7,120.7,-19.8,195.6,-19.8ZM744,756.3c55,0,103.9,7.6,145.2,22.9c42.7,15.2,77.9,36.6,106.9,64.1c29,27.5,50.4,61.1,64.2,97.8c13.7,39.7,21.4,81,21.4,126.8c0,94.7,-29.1,169.6,-85.6,226.1c-58,56.6,-142.1,84.1,-252.1,84.1c-108.4,0,-192.5,-27.5,-249,-84.1c-58.1,-56.5,-87.1,-131.4,-87.1,-226.1c0,-45.8,7.7,-87.1,22.9,-126.8C444.6,904.4,466,870.8,495,843.3c29,-27.5,64.2,-48.9,105.4,-64.1C641.7,763.9,690.6,756.3,744,756.3Zm9.2,-1313.8c-113.1,0,-212.4,10.7,-297.9,33.6C371.3,-501,301,-472,244.4,-433.8c-56.5,38.2,-97.7,81,-125.2,131.4c-29.1,48.9,-42.8,100.8,-42.8,154.3c0,76.4,24.4,142.1,73.3,193.9c47.4,55,114.6,96.3,198.6,128.4C304,194,268.9,221.5,244.4,256.7c-27.5,33.6,-39.7,79.4,-39.7,135.9c0,23,4.6,45.9,12.2,68.8c7.7,24.4,21.4,48.9,36.7,71.8c18.3,22.9,38.2,45.8,62.7,67.2c24.4,21.4,53.4,39.7,85.5,56.5c-76.4,42.8,-136,99.4,-178.7,171.2c-44.3,70.2,-65.7,152.7,-65.7,247.5c0,74.8,13.7,143.6,44.3,204.7c27.5,62.6,68.7,114.6,120.7,158.9c51.9,42.7,114.5,76.4,184.8,99.3c73.4,22.9,151.3,35.1,236.8,35.1c67.3,0,129.9,-7.6,187.9,-21.4c59.6,-15.3,113.1,-36.6,160.5,-65.7l420.1,0l0,-100.8c0,-33.6,-21.4,-55,-64.2,-64.2l-175.7,-24.4c35.2,-65.7,52,-140.6,52,-221.5c0,-74.9,-13.8,-143.7,-44.3,-204.8C1252.8,808.2,1211.5,756.3,1161.1,711.9C1109.2,667.6,1048.1,634,977.8,611.1C906,588.2,828.1,576,744,576c-71.8,0,-140.5,9.1,-204.7,25.9C507.2,582.1,482.8,559.2,464.4,536.3C449.2,513.3,440,490.4,440,467.5c0,-36.7,15.3,-64.2,44.3,-82.5c29,-19.9,68.8,-33.6,117.6,-41.2C650.8,336.1,705.8,330,768.5,328.5c62.6,-1.6,125.3,-4.6,190.9,-10.7c64.2,-3.1,126.9,-12.2,189.5,-22.9c62.6,-10.7,117.6,-29.1,166.5,-55c48.9,-26,88.6,-61.1,117.7,-105.5c29,-44.3,44.3,-102.3,44.3,-174c0,-65.7,-16.8,-129.9,-50.5,-192.5c-32,-62.7,-79.4,-117.7,-142,-165c-62.7,-48.9,-137.5,-88.6,-227.7,-116.1c-90.1,-30.6,-190.9,-44.3,-304,-44.3Z" 
	id="f1_1i"
	transform="scale(5.0E-4,-5.0E-4)" />

	<path d="M1232.9,942.6c0,62.7,-9.1,120.7,-26,172.7c-16.8,53.5,-42.7,97.8,-76.3,137.5c-33.7,36.6,-74.9,67.2,-122.3,88.6c-48.9,19.9,-103.9,30.5,-166.5,30.5c-131.4,0,-235.3,-38.1,-310.1,-113C456.8,1182.5,409.4,1077.1,391.1,942.6ZM851,-21.3C744,-21.3,644.7,-3,556.1,33.6c-91.7,35.2,-168,88.6,-235.3,158.9C256.7,261.3,204.7,348.3,168.1,450.7c-36.7,102.4,-55,221.5,-55,354.4c0,108.5,16.8,209.3,48.8,302.5c33.7,93.2,81,175.7,143.7,243c62.6,70.2,137.5,123.7,227.6,161.9c90.1,39.7,191,59.6,302.5,59.6c93.2,0,178.7,-15.3,256.7,-47.4c77.9,-30.5,146.6,-74.8,203.2,-134.4c56.5,-58.1,100.8,-129.9,134.4,-217c30.6,-85.5,47.4,-183.3,47.4,-293.3c0,-42.8,-4.6,-71.8,-13.8,-85.6c-9.2,-13.7,-26,-21.3,-51.9,-21.3l-1029.8,0c1.6,-97.8,15.3,-183.4,39.8,-255.2C446.1,446.1,479.7,385,522.5,336.1c42.8,-47.3,93.2,-84,152.8,-106.9c59.6,-24.5,125.3,-36.7,198.6,-36.7c68.7,0,126.8,7.6,177.2,24.4c48.9,15.3,91.7,32.1,126.8,50.5c35.2,18.3,65.7,35.1,90.2,50.4c22.9,16.8,44.3,24.4,61.1,24.4c22.9,0,39.7,-9.1,51.9,-25.9l76.4,-99.4C1423.9,175.7,1384.2,140.6,1336.8,110C1289.4,81,1240.6,56.5,1185.6,36.7C1133.6,16.8,1077.1,3.1,1020.6,-6C964,-16.7,907.5,-21.3,851,-21.3Z" 
	id="f1_1g"
	transform="scale(5.0E-4,-5.0E-4)" />

	<path d="M284.2,0l0,1315.4l-171.1,19.9c-21.4,4.6,-39.8,12.2,-52,24.4c-15.3,9.2,-21.4,26,-21.4,45.9l0,111.5l244.5,0l0,149.7c0,88.6,12.2,166.5,36.6,236.8c26,67.2,61.1,125.3,107,174.2c47.3,45.8,102.3,82.5,168,106.9c65.7,24.5,139.1,36.7,220,36.7c68.8,0,133,-10.7,192.5,-30.6l-6.1,-135.9c-1.5,-19.9,-9.1,-32.1,-25.9,-36.7c-16.9,-4.6,-39.8,-6.1,-68.8,-6.1l-47.4,0c-47.3,0,-90.1,-6.1,-126.8,-18.3c-39.7,-12.3,-71.8,-32.1,-99.3,-59.6C606.5,1906.7,585.1,1870,571.4,1825.7c-15.3,-44.3,-22.9,-100.8,-22.9,-166.5l0,-142.1l447.6,0l0,-197.1l-438.5,0L557.6,0Z" 
	id="f1_1h"
	transform="scale(5.0E-4,-5.0E-4)" />

	<path d="M774.6,-24.3C632.5,-24.3,504.2,1.5,388.1,51.9c-117.7,52,-217,122.3,-299.5,209.4l85.6,140.5c7.6,10.7,18.3,19.9,30.5,29c10.7,6.1,24.5,10.7,38.2,10.7c21.4,0,45.9,-10.7,73.4,-35.1C343.8,385,378.9,359,418.6,331.5C461.4,304,510.3,278.1,568.3,256.7c59.6,-24.5,131.4,-35.2,215.5,-35.2c70.2,0,132.9,9.2,187.9,29.1c55,19.8,100.8,45.8,140.5,82.5c36.7,33.6,67.2,76.3,87.1,125.2c19.9,48.9,30.6,103.9,30.6,163.5c0,65.7,-15.3,120.7,-44.3,163.5c-30.6,41.2,-70.3,76.4,-119.2,105.4c-48.9,29,-103.9,53.5,-168.1,71.8c-61.1,21.4,-125.2,41.3,-192.5,61.1c-64.1,21.4,-128.3,45.8,-192.5,73.3c-61.1,27.5,-117.6,62.7,-166.5,107c-48.9,44.3,-88.6,97.8,-117.6,165c-30.6,64.2,-45.9,146.7,-45.9,242.9c0,77.9,15.3,152.8,45.9,224.6c29,71.8,73.3,136,129.8,192.5c56.6,56.5,126.8,100.8,212.4,134.4c82.5,33.6,180.3,50.5,288.7,50.5c122.3,0,233.8,-19.9,334.6,-58.1c100.9,-38.2,189.5,-94.7,264.3,-168.1l-71.8,-140.5c-9.1,-15.3,-18.3,-26,-29,-35.2c-10.7,-6.1,-22.9,-10.6,-39.7,-10.6c-16.8,0,-38.2,9.1,-59.6,25.9c-24.5,16.8,-52,36.7,-88.6,58.1c-33.6,19.8,-76.4,39.7,-125.3,56.5c-50.4,16.8,-110,26,-180.3,26c-65.7,0,-125.3,-9.2,-175.7,-27.5C638.6,1923.5,595.8,1899,562.2,1868.5C527.1,1837.9,501.1,1802.8,484.3,1760c-16.8,-39.7,-26,-85.6,-26,-132.9c0,-61.1,15.3,-111.5,45.9,-151.3c29,-41.2,68.7,-74.8,119.1,-103.9c48.9,-29,103.9,-53.4,168.1,-73.3c61.1,-21.4,125.3,-42.8,192.5,-65.7c64.2,-22.9,128.3,-47.3,192.5,-74.8c61.1,-29.1,117.6,-64.2,168,-107c48.9,-42.8,88.7,-94.7,119.2,-157.3c29,-62.7,44.3,-139.1,44.3,-229.2c0,-96.3,-16.8,-184.9,-48.9,-270.4C1426.9,311.7,1378.1,238.3,1316.9,175.7C1252.8,113.1,1176.4,64.2,1084.7,29C994.6,-6,890.7,-24.3,774.6,-24.3Z" 
	id="f1_15"
	transform="scale(5.0E-4,-5.0E-4)" />

	<path d="M522.5,0L21.4,1547.6l213.9,0c22.9,0,41.2,-6.1,55,-16.8c13.7,-10.7,24.4,-24.4,29,-39.7L615.7,495c7.6,-36.7,15.3,-71.8,22.9,-106.9c7.7,-33.7,13.8,-67.3,18.3,-102.4c7.7,35.1,16.9,68.7,27.5,102.4c10.7,35.1,21.4,70.2,32.1,106.9l327,1002.2c4.6,15.3,13.7,27.5,25.9,38.2c13.8,10.7,29.1,15.3,48.9,15.3l117.7,0c19.8,0,36.6,-4.6,50.4,-15.3c13.7,-10.7,22.9,-22.9,27.5,-38.2L1633.2,495c10.7,-35.1,21.4,-70.3,29,-105.4c9.2,-35.2,18.4,-68.8,26,-102.4c4.6,33.6,12.2,68.8,19.9,105.4c7.6,36.7,16.8,70.3,25.9,102.4l302.5,996.1c4.6,16.8,15.3,30.6,29.1,39.7c13.7,12.3,30.5,16.8,50.4,16.8l204.7,0L1819.6,0L1604.2,0c-26,0,-44.3,16.8,-55,51.9L1206.9,1101.5c-7.6,22.9,-15.2,47.4,-19.8,71.8c-4.6,23,-10.7,47.4,-15.3,70.3c-4.6,-22.9,-10.7,-47.3,-15.3,-71.8c-4.6,-24.4,-12.2,-48.9,-19.8,-71.8L789.9,51.9C779.2,16.8,757.8,0,727.2,0Z" 
	id="f1_1y"
	transform="scale(5.0E-4,-5.0E-4)" />

	<path d="M624.9,-447.5C548.5,-329.9,482.8,-213.8,430.8,-99.2C375.8,15.3,333.1,131.4,299.4,247.5c-32,116.1,-56.5,232.2,-71.8,351.4C212.4,715,204.7,837.2,204.7,961c0,123.7,7.7,244.4,22.9,362.1c15.3,117.6,39.8,235.2,71.8,351.3c33.7,114.6,76.4,230.7,131.4,345.3c52,114.6,117.7,232.2,194.1,349.9l120.7,-74.9c10.7,-7.6,19.8,-15.3,27.5,-24.4c7.6,-9.2,10.7,-21.4,10.7,-35.2c0,-15.2,-4.6,-32,-15.3,-51.9C661.5,1998.3,580.6,1802.8,525.6,1596.5C469,1390.3,441.5,1179.4,441.5,961c0,-218.5,27.5,-429.3,84.1,-634.1C582.1,120.7,663.1,-74.8,768.5,-261.2c6.1,-10.6,10.7,-21.3,12.2,-29c1.5,-7.6,3.1,-16.8,3.1,-24.4c0,-13.8,-3.1,-26,-10.7,-35.2c-7.7,-9.1,-16.8,-16.8,-27.5,-24.4L624.9,-447.5Z" 
	id="f1_4"
	transform="scale(5.0E-4,-5.0E-4)" />

	<path d="M1219.2,233.8c117.6,0,224.6,19.8,320.8,59.5c96.3,38.2,177.2,94.8,244.4,168.1c67.3,74.9,119.2,165,155.9,271.9c36.6,105.5,55,226.1,55,360.6c0,134.4,-18.4,255.1,-55,362.1c-36.7,106.9,-88.6,197.1,-155.9,270.4c-67.2,74.9,-148.1,131.4,-244.4,171.1c-96.2,39.7,-203.2,59.6,-320.8,59.6c-117.7,0,-223.1,-19.9,-319.3,-59.6c-96.3,-39.7,-177.3,-96.2,-246,-171.1C586.7,1653.1,534.7,1562.9,498.1,1456c-36.7,-107,-55,-227.7,-55,-362.1c0,-134.5,18.3,-255.1,55,-360.6c36.6,-106.9,88.6,-197,155.8,-271.9c68.7,-73.3,149.7,-129.9,246,-168.1c96.2,-39.7,201.6,-59.5,319.3,-59.5Zm0,-256.6c-160.4,0,-307.1,27.4,-440,80.9c-132.9,55,-246,131.3,-340.7,230.7c-94.7,99.3,-168.1,216.9,-220,352.9c-52,137.5,-77.9,288.7,-77.9,452.2c0,163.5,25.9,314.7,77.9,452.2c51.9,136,125.3,253.6,220,354.5c94.7,97.7,207.8,175.7,340.7,230.7c132.9,55,279.6,82.5,440,82.5c160.4,0,308.6,-27.5,440,-82.5c134.4,-55,247.5,-133,342.2,-230.7c94.7,-100.9,168,-218.5,220,-354.5c51.9,-137.5,77.9,-288.7,77.9,-452.2c0,-163.5,-26,-314.7,-77.9,-452.2c-52,-136,-125.3,-253.6,-220,-352.9C1906.7,189.4,1793.6,113.1,1659.2,58.1C1527.8,4.6,1379.6,-22.8,1219.2,-22.8Z" 
	id="f1_11"
	transform="scale(5.0E-4,-5.0E-4)" />

	<path d="M265.8,0l0,2189.3l218.5,0c26,0,47.4,-3,61.1,-7.6c13.8,-4.6,27.5,-19.9,41.3,-42.8L1342.9,791.4c13.8,-24.5,26,-50.4,38.2,-76.4c9.2,-27.5,19.9,-55,30.6,-82.5c10.7,29,21.4,55,32.1,82.5c10.6,24.4,24.4,51.9,38.1,77.9l741,1346c13.8,22.9,27.5,38.2,41.3,42.8c13.7,4.6,35.1,7.6,61.1,7.6l218.5,0L2543.8,0L2284,0l0,1608.8c0,21.3,0,44.3,1.6,68.7c1.5,24.4,3,48.9,4.5,74.9L1540,383.5c-26,-45.9,-61.1,-68.8,-106.9,-68.8l-42.8,0c-45.9,0,-81,22.9,-107,68.8L516.4,1756.9c3,-25.9,6.1,-51.9,6.1,-77.9c3.1,-25.9,3.1,-48.9,3.1,-70.2L525.6,0Z" 
	id="f1_z"
	transform="scale(5.0E-4,-5.0E-4)" />

	<path d="M942.6,1054.2c84.1,0,158.9,10.7,224.6,33.6c64.2,22.9,117.7,53.5,162,94.7c44.3,39.7,76.4,87.1,99.3,143.6c22.9,56.5,33.6,117.7,33.6,184.9c0,139,-42.8,249,-129.9,326.9c-85.5,77.9,-215.4,117.7,-389.6,117.7l-351.3,0l0,-901.4ZM296.4,0l0,2189.3l646.2,0c139.1,0,258.2,-16.8,362.1,-47.4c100.9,-33.6,186.4,-77.9,253.6,-137.5c67.3,-59.5,117.7,-129.8,149.8,-213.8c33.6,-84.1,50.4,-177.3,50.4,-279.6c0,-102.4,-18.4,-195.6,-53.5,-279.6c-35.1,-84,-88.6,-157.4,-155.8,-218.5C1478.9,951.8,1394.9,904.4,1292.5,870.8C1190.1,835.7,1074,818.9,942.6,818.9l-351.3,0L591.3,0Z" 
	id="f1_12"
	transform="scale(5.0E-4,-5.0E-4)" />

	<path d="M320.8,0l0,2189.3l296.4,0L617.2,0Z" 
	id="f1_v"
	transform="scale(5.0E-4,-5.0E-4)" />

	<path d="M158.9,0l0,93.2c0,19.9,3,39.7,12.2,59.6c6.1,19.8,19.9,39.7,36.7,56.5L909,913.6c58.1,59.6,111.6,116.1,158.9,171.1c47.4,53.5,88.6,108.5,123.8,163.5c33.6,55,59.6,111.5,77.9,166.5c18.3,58.1,27.5,117.7,27.5,181.8c0,64.2,-10.7,120.7,-30.6,169.6c-19.8,47.4,-48.9,87.1,-84,119.2c-35.1,32.1,-77.9,55,-125.3,70.3c-47.3,16.8,-99.3,24.4,-154.3,24.4c-55,0,-105.4,-7.6,-152.8,-24.4c-47.3,-16.8,-88.6,-39.8,-123.7,-67.3c-36.7,-30.5,-67.2,-64.1,-91.7,-103.9c-25.9,-39.7,-42.8,-84,-53.4,-131.3c-7.7,-29.1,-19.9,-50.5,-36.7,-64.2C427.8,1575.1,406.4,1569,380.4,1569c-4.6,0,-10.7,0,-16.8,1.6c-4.6,0,-10.7,0,-18.3,1.5l-142.1,24.4c13.7,99.3,41.2,187.9,82.5,264.3c41.2,78,93.2,142.1,154.3,194.1c64.2,51.9,134.4,91.6,216.9,117.6c79.5,27.5,168.1,41.3,261.3,41.3c93.2,0,178.7,-13.8,259.7,-41.3c81,-27.5,149.7,-67.2,209.3,-119.2c58.1,-53.4,103.9,-117.6,137.5,-192.5c33.6,-74.8,50.4,-160.4,50.4,-256.6c0,-81,-12.2,-157.4,-36.6,-226.1c-24.5,-68.8,-58.1,-136,-99.3,-198.7C1397.9,1115.3,1349,1054.2,1295.6,993.1C1240.6,935,1182.5,873.9,1121.4,811.3L545.4,221.5c41.3,10.7,82.5,19.9,123.8,26c41.2,7.6,82.5,10.7,120.7,10.7l733.3,0c29,0,53.5,-9.2,70.3,-26c16.8,-16.8,25.9,-39.7,25.9,-67.2l0,-165Z" 
	id="f1_d"
	transform="scale(5.0E-4,-5.0E-4)" />

	<path d="M906,-24.3c-116.1,0,-215.4,15.2,-297.9,42.6C525.6,48.9,455.3,88.6,398.8,139C342.2,189.4,294.9,250.6,258.2,320.8C221.5,389.6,191,466,165,546.9l116.1,48.9c21.4,9.2,42.8,13.8,64.2,13.8c19.8,0,38.2,-4.6,55,-13.8c15.3,-7.6,27.5,-21.4,35.1,-39.7c1.5,-4.6,4.6,-9.2,6.1,-12.2c1.6,-6.1,4.6,-10.7,6.1,-15.3c13.8,-29,32.1,-62.6,52,-100.8C519.4,391.1,546.9,356,582.1,323.9C617.2,291.8,660,264.3,711.9,241.4c50.5,-22.9,114.6,-33.6,191,-33.6c76.4,0,143.6,12.2,200.2,36.6c58,26,106.9,58.1,143.6,97.8c39.7,39.7,67.2,84.1,87.1,132.9c19.8,48.9,29,97.8,29,145.2c0,59.6,-7.7,113,-24.5,161.9c-15.2,48.9,-42.7,91.7,-85.5,126.8c-39.7,35.2,-97.8,64.2,-171.1,84.1c-71.8,19.8,-165,30.5,-279.6,30.5l0,197.1c93.2,1.5,172.6,10.7,236.8,30.6c67.2,19.8,120.7,45.8,161.9,79.4c41.3,33.6,71.8,73.3,91.7,120.7c18.3,47.4,27.5,99.3,27.5,155.8c0,62.7,-9.2,117.7,-30.6,165c-18.3,47.4,-45.8,85.6,-80.9,116.1c-35.2,30.6,-74.9,53.5,-123.8,68.8c-45.8,15.3,-97.8,22.9,-152.8,22.9c-55,0,-105.4,-7.6,-152.7,-24.4c-47.4,-16.8,-88.6,-39.8,-125.3,-67.3c-35.1,-30.5,-65.7,-64.1,-90.1,-103.9c-24.5,-41.2,-42.8,-84,-55,-131.3c-7.7,-29.1,-19.9,-50.5,-36.7,-64.2C455.3,1575.1,435.4,1569,409.4,1569c-4.5,0,-10.6,0,-15.2,1.6c-6.1,0,-12.3,0,-19.9,1.5l-142.1,24.4c13.8,99.3,41.3,187.9,82.5,264.3c41.3,78,91.7,142.1,155.9,194.1c61.1,51.9,134.4,91.6,213.8,117.6c82.5,27.5,169.6,41.3,262.8,41.3c93.2,0,178.8,-13.8,256.7,-39.8c77.9,-25.9,146.7,-64.1,201.7,-113c58,-48.9,100.8,-108.5,132.9,-177.2c32.1,-68.8,47.3,-146.7,47.3,-230.7c0,-68.8,-9.1,-131.4,-27.5,-186.4c-16.8,-53.5,-42.7,-100.9,-76.4,-143.6c-32,-39.8,-71.8,-74.9,-119.1,-103.9c-47.4,-29.1,-99.3,-52,-157.4,-68.8c142.1,-38.2,249,-100.8,322.4,-189.4c70.3,-88.6,106.9,-200.2,106.9,-333.1c0,-100.8,-18.3,-191,-58,-271.9C1540,275,1486.5,207.8,1420.8,149.7C1355.1,93.2,1277.2,50.4,1188.6,21.4C1101.5,-9.1,1006.8,-24.3,906,-24.3Z" 
	id="f1_e"
	transform="scale(5.0E-4,-5.0E-4)" />

	<path d="M884.6,206.3c67.2,0,131.4,15.2,194,44.3c62.7,30.5,116.1,80.9,165,149.7c45.8,68.7,84,160.4,113.1,273.5c27.5,113,41.2,253.6,41.2,420.1c0,166.5,-13.7,307.1,-41.2,421.7c-29.1,113,-67.3,204.7,-113.1,273.4c-48.9,68.8,-102.3,119.2,-165,148.2c-62.6,30.6,-126.8,45.9,-194,45.9c-67.2,0,-131.4,-15.3,-194,-45.9C627.9,1908.2,574.4,1857.8,527.1,1789c-47.4,-68.7,-84,-160.4,-111.5,-273.4C386.5,1401,372.8,1260.4,372.8,1093.9c0,-166.5,13.7,-307.1,42.8,-420.1C443.1,560.7,479.7,469,527.1,400.3C574.4,331.5,627.9,281.1,690.6,250.6c62.6,-29.1,126.8,-44.3,194,-44.3Zm0,-229.1C773.1,-22.8,669.2,0,571.4,44.3C476.7,88.6,392.6,157.4,320.8,249C249,340.7,194,456.8,152.8,595.8C111.5,736.4,91.7,902.9,91.7,1093.9c0,191,19.8,357.5,61.1,498c41.2,140.6,96.2,256.7,168,348.4c71.8,93.2,155.9,161.9,250.6,206.2c97.8,44.3,201.7,67.3,313.2,67.3c111.5,0,215.4,-23,313.2,-67.3c96.2,-44.3,180.3,-113,252.1,-206.2c71.8,-91.7,126.8,-207.8,169.5,-348.4c39.8,-140.5,61.2,-307,61.2,-498c0,-191,-21.4,-357.5,-61.2,-498.1C1576.7,456.8,1521.7,340.7,1449.9,249C1378.1,157.4,1294,88.6,1197.8,44.3C1100,0,996.1,-22.8,884.6,-22.8Z" 
	id="f1_b"
	transform="scale(5.0E-4,-5.0E-4)" />

	<path d="M271.9,-447.5l-120.6,73.3c-10.7,7.6,-19.9,15.3,-27.5,24.4c-7.7,9.2,-10.7,21.4,-10.7,35.2c0,7.6,1.5,16.8,3,24.4c1.5,7.7,6.1,18.4,12.2,29c105.5,186.4,186.4,381.9,243,588.1c56.5,204.8,84,415.6,84,634.1c0,218.4,-27.5,429.3,-82.5,635.5c-56.5,206.3,-137.5,401.8,-244.5,586.7c-10.7,19.9,-15.2,36.7,-15.2,51.9c0,13.8,3,26,10.7,35.2c7.6,9.1,16.8,16.8,27.5,24.4l120.6,74.9c76.4,-117.7,140.6,-235.3,195.6,-349.9C519.4,1905.1,563.8,1789,595.8,1674.4c33.6,-116.1,58.1,-233.7,73.4,-351.3C684.4,1205.4,692.1,1084.7,692.1,961c0,-123.8,-7.7,-246,-22.9,-362.1C653.9,479.7,629.4,363.6,595.8,247.5C563.8,131.4,519.4,15.3,467.5,-99.2C412.5,-213.8,348.3,-329.9,271.9,-447.5Z" 
	id="f1_5"
	transform="scale(5.0E-4,-5.0E-4)" />

	<path d="M223.1,-413.9l-45.9,44.3c-13.7,12.2,-19.8,25.9,-19.8,42.8c0,13.7,7.6,27.5,21.4,41.2c10.6,10.7,22.9,26,38.1,44.3c16.9,19.9,32.1,41.3,48.9,65.7c16.8,24.4,30.6,51.9,45.9,81c12.2,29,22.9,61.1,29,94.6L320.8,0C294.9,0,270.4,4.6,249,13.8c-21.4,9.1,-39.7,22.9,-56.5,38.1C177.2,70.3,165,88.6,155.8,113.1c-7.6,21.3,-12.2,47.3,-12.2,74.8c0,22.9,4.6,45.9,12.2,65.7c9.2,21.4,21.4,39.7,36.7,55c16.8,16.8,35.1,29,58.1,38.2c22.9,9.2,47.3,13.8,73.3,13.8c30.5,0,58,-6.2,82.5,-16.8c22.9,-10.7,42.8,-26,58,-47.4c16.9,-18.3,29.1,-42.8,36.7,-67.2c7.7,-27.5,12.2,-55,12.2,-85.6C513.3,97.8,507.2,50.4,493.5,0C479.7,-48.8,461.4,-97.7,436.9,-146.6c-24.4,-47.3,-55,-94.7,-91.6,-140.5C310.1,-333,268.9,-375.7,223.1,-413.9Z" 
	id="f1_7"
	transform="scale(5.0E-4,-5.0E-4)" />

	<path d="M858.6,189.4c143.6,0,253.6,52,331.5,154.4c78,102.3,116.2,249,116.2,440c0,100.8,-9.2,187.9,-26,259.7c-18.4,71.8,-44.3,131.4,-77.9,178.7c-33.6,45.9,-74.9,79.5,-123.8,100.9c-48.9,21.3,-103.9,32,-166.5,32c-88.6,0,-166.5,-19.8,-233.8,-61.1C612.6,1252.8,551.5,1196.3,495,1121.4l0,-748.6C545.4,305.6,598.9,258.2,660,230.7c58.1,-27.5,125.3,-41.3,198.6,-41.3ZM223.1,-523.9l0,2071.5l161.9,0c38.2,0,62.6,-18.3,73.3,-56.5l23,-183.3c65.6,81,142,145.1,227.6,194c84,48.9,181.8,73.3,293.3,73.3c88.6,0,169.6,-16.8,241.4,-50.4c71.8,-35.1,134.5,-85.5,184.9,-152.8c50.4,-65.6,90.1,-148.1,117.6,-247.5c27.5,-99.3,41.3,-212.3,41.3,-340.6c0,-114.6,-15.3,-220,-45.9,-319.4C1511,366.7,1466.7,281.1,1410.1,210.8C1353.6,137.5,1283.3,82.5,1200.8,39.7c-84,-39.7,-177.2,-61,-281.1,-61C823.5,-21.3,742.5,-6,675.3,26C606.5,58.1,546.9,102.4,495,160.4l0,-684.3Z" 
	id="f1_1r"
	transform="scale(5.0E-4,-5.0E-4)" />

	<path d="M867.8,189.4c145.1,0,255.1,52,333,154.4c78,102.3,116.1,249,116.1,440c0,100.8,-9.1,187.9,-27.5,259.7c-16.8,71.8,-42.7,131.4,-76.3,178.7c-33.7,45.9,-74.9,79.5,-123.8,100.9c-48.9,21.3,-103.9,32,-166.5,32c-88.6,0,-166.5,-19.8,-232.2,-61.1C623.3,1252.8,562.2,1196.3,505.7,1121.4l0,-748.6C554.6,305.6,608.1,258.2,669.2,230.7c58,-27.5,125.2,-41.3,198.6,-41.3ZM928.9,-21.3c-99.3,0,-184.9,19.9,-253.6,58C605,74.9,543.9,129.9,491.9,198.6L478.2,58.1C470.6,19.9,446.1,0,407.9,0L232.2,0l0,2250.4l273.5,0l0,-925.8c64.2,74.8,137.5,134.4,221.5,178.7c82.5,45.9,177.2,68.8,284.2,68.8c90.1,0,171.1,-16.8,242.9,-50.4c71.8,-33.6,134.5,-84.1,184.9,-149.8c50.4,-67.2,90.1,-149.7,117.6,-247.5c27.5,-99.3,41.3,-212.3,41.3,-340.6c0,-114.6,-15.3,-220,-45.9,-319.4C1521.7,366.7,1477.4,281.1,1420.8,210.8C1362.8,137.5,1292.5,82.5,1210,39.7C1126,0,1032.8,-21.3,928.9,-21.3Z" 
	id="f1_1d"
	transform="scale(5.0E-4,-5.0E-4)" />

	<path d="M88.6,-556c-33.6,0,-64.2,3,-91.6,7.6c-27.5,4.6,-55,12.2,-82.5,22.9l12.3,146.7c1.5,13.8,6.1,21.4,13.7,24.5c7.7,4.5,18.3,6.1,33.6,6.1l25.9,0c9.2,-1.6,19.9,-1.6,33.6,-1.6c79.5,0,136,18.4,169.6,56.6c33.6,36.6,50.4,96.2,50.4,178.7l0,1662.1l272,0l0,-1662.1c0,-62.6,-7.7,-120.7,-24.5,-172.6c-16.8,-55,-42.8,-100.9,-76.4,-140.6C388.1,-467.4,343.8,-498,287.2,-522.4C232.2,-543.8,166.5,-556,88.6,-556ZM391.1,1841c-26,0,-51.9,4.6,-73.3,15.3c-24.5,10.6,-44.3,24.4,-61.1,41.2c-18.4,18.3,-32.1,39.7,-42.8,61.1c-10.7,24.5,-15.3,48.9,-15.3,74.9c0,25.9,4.6,51.9,15.3,74.8c10.7,24.5,24.4,45.9,42.8,64.2c16.8,16.8,36.6,30.6,61.1,41.3c21.4,10.6,47.3,15.2,73.3,15.2c26,0,52,-4.6,74.9,-15.2c22.9,-10.7,44.3,-24.5,62.6,-41.3c16.8,-18.3,30.6,-39.7,42.8,-64.2c9.2,-22.9,15.3,-48.9,15.3,-74.8c0,-26,-6.1,-50.4,-15.3,-74.9c-12.2,-21.4,-26,-42.8,-42.8,-61.1c-18.3,-16.8,-39.7,-30.6,-62.6,-41.2C443.1,1845.6,417.1,1841,391.1,1841Z" 
	id="f1_1l"
	transform="scale(5.0E-4,-5.0E-4)" />

	<path d="M152.8,800.6l0,230.7l754.7,0l0,-230.7Z" 
	id="f1_8"
	transform="scale(5.0E-4,-5.0E-4)" />

	<path d="M658.5,0L27.5,1547.6l223.1,0c21.3,0,39.7,-6.1,53.4,-16.8c13.8,-10.7,24.5,-24.4,30.6,-39.7L727.2,495c13.8,-36.7,26,-73.3,33.6,-110c7.7,-36.7,15.3,-73.3,23,-108.5c7.6,35.2,16.8,71.8,25.9,108.5c9.2,36.7,21.4,73.3,35.2,110l397.2,996.1c6.1,16.8,16.8,30.6,29,39.7c15.3,12.3,32.1,16.8,52,16.8l212.3,0L904.4,0Z" 
	id="f1_1x"
	transform="scale(5.0E-4,-5.0E-4)" />

	<path d="M1220.7,-24.3c-158.9,0,-304,27.4,-436.9,82.4c-133,53.4,-246,129.8,-342.3,229.1C345.3,385,271.9,502.6,216.9,640.1C165,777.6,137.5,928.9,137.5,1093.9c0,166.5,26,319.3,79.4,456.8c52,137.5,126.9,255.1,223.1,352.9c97.8,99.3,215.4,175.7,354.4,229.2c137.5,53.5,291.9,81,463,81c87,0,166.5,-6.2,241.4,-19.9c74.8,-12.2,143.6,-30.6,206.2,-55c64.2,-22.9,123.8,-52,177.2,-85.6c53.5,-35.1,103.9,-73.3,151.3,-116.1l-84.1,-134.4c-16.8,-27.5,-39.7,-41.3,-67.2,-41.3c-16.8,0,-33.6,6.1,-53.4,16.8c-26,13.8,-53.5,32.1,-85.6,52c-32.1,19.8,-70.3,39.7,-114.6,58c-45.8,19.9,-99.3,35.2,-161.9,48.9c-61.1,13.8,-134.5,19.9,-218.5,19.9c-123.8,0,-235.3,-19.9,-334.6,-59.6C814.3,1856.3,728.8,1799.7,658.5,1723.3c-70.3,-73.3,-123.8,-165,-162,-271.9C458.3,1346,440,1226.8,440,1093.9c0,-139,19.9,-262.8,58.1,-369.7c39.7,-110,94.7,-201.7,166.5,-276.6C736.4,372.8,820.4,314.7,918.2,275c97.8,-39.7,206.2,-59.6,323.9,-59.6c59.6,0,113,3.1,163.5,7.7c48.8,6.1,94.7,15.2,139,25.9c44.3,10.7,85.5,24.5,123.7,41.3c38.2,15.3,78,33.6,116.1,53.5l0,482.7l-339.1,0c-19.9,0,-35.2,6.1,-45.9,16.8c-12.2,10.7,-18.3,24.5,-18.3,41.3l0,168l672.2,0l0,-840.2c-55,-39.8,-113,-74.9,-171.1,-103.9C1821.1,79.4,1758.5,55,1689.7,33.6C1622.5,15.3,1550.7,0,1472.8,-9.1c-77.9,-10.7,-162,-15.2,-252.1,-15.2Z" 
	id="f1_t"
	transform="scale(5.0E-4,-5.0E-4)" />

	<path d="M1116.8,-25.9C982.4,-25.9,861.7,-3,753.2,41.3C644.7,85.6,553.1,148.2,478.2,226.1C403.3,305.6,345.3,398.8,305.6,507.2C264.3,615.7,244.4,731.8,244.4,858.6l0,1330.7l294.9,0l0,-1329.2c0,-91.6,13.8,-175.7,38.2,-252C605,531.7,641.7,466,690.6,411C741,356,800.6,313.2,873.9,281.1c70.3,-30.5,152.8,-45.8,242.9,-45.8c90.1,0,171.1,15.3,242.9,45.8c71.8,30.6,131.4,73.3,180.3,128.3c50.4,55,88.6,120.7,113.1,197.1c27.5,76.4,39.7,160.4,39.7,252.1l0,1330.7l294.8,0l0,-1330.7c0,-126.8,-19.8,-242.9,-59.5,-351.4C1886.8,398.8,1830.3,305.6,1753.9,226.1C1680.6,148.2,1588.9,85.6,1480.4,41.3C1371.9,-3,1251.3,-25.9,1116.8,-25.9Z" 
	id="f1_17"
	transform="scale(5.0E-4,-5.0E-4)" />

	<path d="M223.1,0l0,2250.4l271.9,0l0,-910.5c65.7,70.2,139,126.8,220,169.5c81,41.3,172.6,62.7,278.1,62.7c84,0,158.8,-13.8,223,-41.3c65.7,-29,119.2,-68.7,162,-119.1c44.3,-52,76.3,-114.6,99.3,-186.4c22.9,-71.8,33.6,-152.8,33.6,-239.9L1511,0L1239,0l0,985.4c0,117.7,-25.9,207.8,-80.9,273.5c-52,64.2,-134.5,96.2,-244.5,96.2c-81,0,-155.8,-19.8,-226.1,-58C618.8,1258.9,554.6,1205.4,495,1139.7L495,0Z" 
	id="f1_1j"
	transform="scale(5.0E-4,-5.0E-4)" />

	<path d="M323.9,-22.8c-26,0,-52,4.6,-74.9,13.7C226.1,1.5,204.7,15.3,189.4,32.1C171.1,48.9,158.9,70.3,149.7,91.7c-10.7,24.4,-15.3,48.9,-15.3,76.4c0,25.9,4.6,51.9,15.3,74.8c9.2,22.9,21.4,44.3,39.7,61.1c15.3,16.8,36.7,30.6,59.6,41.3c22.9,10.7,48.9,15.3,74.9,15.3c26,0,51.9,-4.6,74.9,-15.3c22.9,-10.7,44.3,-24.5,61.1,-41.3c16.8,-16.8,30.5,-38.2,41.2,-61.1C510.3,220,514.9,194,514.9,168.1c0,-27.5,-4.6,-52,-13.8,-76.4C490.4,70.3,476.7,48.9,459.9,32.1C443.1,15.3,421.7,1.5,398.8,-9.1c-23,-9.1,-48.9,-13.7,-74.9,-13.7Z" 
	id="f1_9"
	transform="scale(5.0E-4,-5.0E-4)" />

	<path d="M223.1,0l0,2209.2l410.9,0l0,-1870l884.6,0L1518.6,0Z" 
	id="f2_r"
	transform="scale(5.0E-4,-5.0E-4)" />

	<path d="M696.7,235.3c38.2,0,74.8,3,106.9,10.7c32.1,7.6,64.2,18.3,91.7,32.1c30.5,13.7,58,32,85.5,51.9c26,21.4,53.5,45.8,81,74.9l0,264.3C951.8,664.6,860.1,653.9,785.3,641.7C711.9,626.4,652.4,609.6,608.1,588.2C563.8,566.8,531.7,542.4,513.3,513.3c-19.8,-29,-29,-59.5,-29,-93.2c0,-65.7,19.9,-113,59.6,-142C582.1,249,634,235.3,696.7,235.3ZM579,-24.3c-65.7,0,-126.8,9.1,-183.3,27.4C339.2,19.9,291.8,47.4,250.6,82.5c-39.8,35.1,-70.3,79.4,-93.2,132.9c-23,53.5,-33.6,114.6,-33.6,184.9c0,59.6,15.2,117.6,47.3,174.1c30.6,58.1,82.5,110,154.3,155.9c71.8,47.3,168.1,85.5,288.8,116.1c120.7,30.5,268.9,47.4,447.6,51.9l0,91.7c0,105.4,-22.9,183.3,-65.7,232.2c-45.8,52,-110,76.4,-194,76.4c-61.1,0,-111.5,-7.6,-152.8,-21.4c-41.2,-13.7,-76.4,-30.5,-105.4,-48.9c-30.6,-16.8,-58.1,-33.6,-84,-47.3c-26,-13.8,-53.5,-21.4,-84.1,-21.4c-25.9,0,-47.3,6.1,-65.7,19.8c-18.3,13.8,-33.6,29.1,-44.3,48.9L197.1,1349c180.3,165,397.2,247.5,652.3,247.5c91.7,0,174.2,-15.2,244.5,-44.3c73.3,-30.5,132.9,-73.3,183.3,-125.3c50.4,-55,88.6,-117.6,113.1,-192.5C1417.8,1159.6,1430,1078.6,1430,990L1430,0L1260.4,0c-35.1,0,-64.1,6.1,-84,15.3c-19.9,12.2,-35.1,33.6,-45.8,65.7l-33.7,111.5C1057.2,157.4,1017.5,125.3,980.8,97.8C941.1,71.8,902.9,48.9,861.7,30.6C820.4,12.2,777.6,-1.4,731.8,-10.6C686,-19.8,635.6,-24.3,579,-24.3Z" 
	id="f2_15"
	transform="scale(5.0E-4,-5.0E-4)" />

	<path d="M201.7,0l0,1567.5l230.7,0c48.9,0,80.9,-22.9,96.2,-68.7l26,-123.8c32.1,32.1,65.7,62.6,99.3,88.6c36.7,26,73.3,48.9,113,68.8c38.2,19.8,81,33.6,125.3,44.3c44.3,10.7,93.2,15.2,146.7,15.2c85.5,0,161.9,-15.2,227.6,-42.7c65.7,-30.6,120.7,-70.3,166.6,-122.3c42.7,-53.4,76.3,-116.1,100.8,-189.4c21.4,-71.8,33.6,-152.8,33.6,-239.9L1567.5,0L1190.1,0l0,997.6c0,96.3,-22.9,169.6,-65.7,221.6c-45.8,53.4,-111.5,79.4,-200.1,79.4c-65.7,0,-126.8,-15.3,-183.3,-44.3C684.4,1225.3,629.4,1184,579,1133.6L579,0Z" 
	id="f2_1i"
	transform="scale(5.0E-4,-5.0E-4)" />

	<path d="M754.7,-282.5c70.3,0,131.4,4.5,181.8,16.8c50.4,9.1,93.2,24.4,126.8,42.7c32.1,19.9,56.6,42.8,71.8,67.3c15.3,27.5,23,55,23,85.5c0,30.6,-9.2,55,-27.5,74.8c-18.4,19.8,-42.8,35.1,-74.9,44.3C1023.6,61.1,986.9,68.8,944.2,73.3c-41.3,4.6,-85.6,9.2,-134.5,12.3C763.9,87.1,715,90.1,663.1,91.7c-48.9,3,-97.8,7.6,-145.2,13.7C475.1,82.5,440,55,415.6,21.4C388.1,-9.1,375.8,-47.3,375.8,-88.5c0,-27.5,6.1,-53.5,21.4,-76.4c12.2,-24.4,35.2,-45.8,64.2,-62.6c30.5,-16.8,70.3,-30.6,117.6,-41.3c47.4,-9.2,107,-13.7,175.7,-13.7ZM744,821.9c47.4,0,87.1,6.2,122.3,18.4c35.1,13.7,62.6,30.5,87,53.5c21.4,22.9,39.8,48.8,52,80.9c10.7,32.1,16.8,65.7,16.8,103.9c0,77.9,-22.9,139,-68.8,183.3C906,1307.8,837.2,1330.7,744,1330.7c-93.2,0,-161.9,-22.9,-209.3,-68.8C488.9,1217.6,466,1156.5,466,1078.6c0,-36.7,6.1,-70.3,16.8,-102.3c12.2,-32.1,30.5,-59.6,51.9,-81c24.5,-24.5,52,-41.3,88.6,-55C656.9,828.1,698.2,821.9,744,821.9Zm4.6,-1373.3c-119.2,0,-223,10.7,-310.1,35.1c-87.1,21.4,-160.4,52,-218.5,91.7c-56.5,36.6,-99.3,80.9,-128.3,131.4c-29.1,50.4,-42.8,102.3,-42.8,155.8c0,73.3,22.9,134.4,67.2,184.8c44.3,50.4,107,90.1,186.4,119.1c-38.2,21.4,-70.3,50.4,-93.2,85.6c-22.9,35.1,-35.1,82.5,-35.1,139c0,22.9,4.6,47.4,12.2,73.3c7.6,24.5,21.4,48.9,36.7,73.4c18.3,24.4,38.2,47.3,64.1,70.3c26,21.3,55,41.2,90.2,58c-79.5,42.8,-142.1,99.3,-188,171.1C145.1,909,122.2,991.5,122.2,1087.8c0,77.9,15.3,146.6,45.9,210.8c32,61.1,74.8,116.1,131.3,158.9c55,45.8,120.7,79.4,195.6,102.4c76.4,22.9,158.9,35.1,249,35.1c67.3,0,129.9,-6.1,189.5,-21.4c59.6,-12.2,113,-33.6,161.9,-59.6l450.7,0l0,-140.5c0,-22.9,-6.1,-41.3,-18.3,-55c-12.2,-13.8,-33.6,-22.9,-62.7,-27.5l-140.5,-26c10.7,-26,18.3,-55,22.9,-84c6.1,-29.1,9.2,-61.1,9.2,-93.2c0,-77.9,-15.3,-146.7,-45.9,-210.9C1278.8,815.8,1236,762.4,1182.5,718.1c-55,-44.3,-119.2,-78,-195.6,-100.9C913.6,592.8,831.1,580.6,744,580.6c-59.6,0,-116.1,6.1,-172.6,16.8C522.5,568.3,498.1,534.7,498.1,498.1c0,-32.1,15.2,-55,42.7,-70.3C571.4,414,608.1,403.3,656.9,397.2c45.9,-6.1,100.9,-9.1,160.5,-12.2c59.5,0,122.2,-4.6,184.8,-9.2c62.7,-4.5,125.3,-13.7,184.9,-27.5c59.6,-12.2,114.6,-32,160.4,-59.5c48.9,-27.5,85.6,-65.7,116.1,-111.6C1491.1,128.3,1506.4,68.8,1506.4,-6c0,-68.8,-16.8,-136,-52,-201.7c-33.6,-65.7,-82.5,-123.7,-146.6,-174.1c-65.7,-50.5,-145.2,-91.7,-238.4,-122.3c-93.1,-32.1,-200.1,-47.3,-320.8,-47.3Z" 
	id="f2_1b"
	transform="scale(5.0E-4,-5.0E-4)" />

	<path d="M698.2,-24.3c-85.6,0,-160.4,15.2,-227.6,42.6C406.4,48.9,349.9,88.6,305.6,142.1C261.3,195.6,226.1,258.2,204.7,330c-24.4,73.3,-35.1,154.3,-35.1,241.4l0,996.1l377.3,0l0,-996.1c0,-96.3,21.4,-169.6,67.3,-223.1c42.7,-51.9,110,-77.9,198.6,-77.9c65.7,0,126.8,13.8,183.3,44.3c56.5,27.5,111.5,68.8,162,119.2l0,1133.6l377.3,0L1535.4,0L1304.7,0c-48.9,0,-80.9,22.9,-96.2,68.8l-26,125.2c-32.1,-32.1,-65.7,-62.6,-100.8,-90.1C1046.5,77.9,1009.9,55,971.7,36.7C931.9,16.8,889.2,3.1,843.3,-9.1C799,-18.2,750.1,-24.3,698.2,-24.3Z" 
	id="f2_1o"
	transform="scale(5.0E-4,-5.0E-4)" />

	<path d="M1188.6,964c0,48.9,-6.1,94.8,-19.8,139.1c-13.8,42.7,-33.7,80.9,-61.2,113c-27.5,32.1,-62.6,58.1,-103.8,76.4c-41.3,19.9,-90.2,29,-146.7,29c-110,0,-195.6,-30.5,-258.2,-93.2C536.3,1165.7,496.5,1078.6,479.7,964ZM867.8,-22.8c-108.5,0,-210.9,18.3,-304,53.4C470.6,67.2,388.1,120.7,319.3,192.5C250.6,262.8,195.6,349.9,155.8,455.3C116.1,559.2,96.3,679.9,96.3,817.4c0,106.9,16.8,207.7,51.9,300.9c35.1,94.8,84,177.3,148.2,247.5c65.7,68.8,143.6,123.8,238.3,165c91.7,41.3,197.1,61.1,314.7,61.1c99.4,0,189.5,-15.2,272,-47.3c84,-32.1,155.8,-77.9,215.4,-139c59.6,-59.6,107,-134.5,140.6,-223.1c33.6,-87.1,50.4,-187.9,50.4,-301c0,-29,-1.5,-51.9,-3.1,-71.8c-3,-18.3,-7.6,-33.6,-15.3,-42.8c-6.1,-12.2,-15.2,-18.3,-25.9,-24.4c-10.7,-3.1,-26,-6.1,-42.8,-6.1l-968.6,0C482.8,576,527.1,456.8,601.9,381.9c74.9,-74.8,175.7,-113,299.5,-113c61.1,0,113,7.6,158.9,21.4c42.8,13.7,82.5,30.5,116.1,47.3c32.1,16.8,61.1,33.7,85.5,47.4c26,13.8,50.5,21.4,73.4,21.4c15.3,0,29,-3.1,39.7,-9.2c10.7,-6.1,21.4,-15.3,29,-25.9L1514,233.8C1472.8,184.9,1425.4,143.6,1373.5,110C1321.5,77.9,1268.1,50.4,1210,30.6C1155,12.2,1096.9,-3,1038.9,-10.6C979.3,-18.2,922.8,-22.8,867.8,-22.8Z" 
	id="f2_19"
	transform="scale(5.0E-4,-5.0E-4)" />

	<path d="M608.1,-24.3c-53.5,0,-107,4.5,-158.9,15.2C398.8,0,348.3,13.8,302.5,30.6C253.6,47.4,210.8,68.8,171.1,91.7C129.9,114.6,94.7,140.6,64.2,168.1l87.1,143.6c10.6,16.8,24.4,30.5,39.7,39.7c15.3,9.2,35.1,13.7,58,13.7c22.9,0,45.9,-6.1,65.7,-19.8c21.4,-13.8,45.9,-27.5,73.4,-42.8c27.5,-15.3,59.5,-29,97.7,-42.8C522.5,246,569.9,239.9,626.4,239.9c44.3,0,82.5,4.5,116.1,16.8c30.6,9.1,58.1,24.4,79.4,41.2c19.9,16.8,35.2,38.2,45.9,59.6c9.1,24.4,13.7,47.4,13.7,71.8c0,36.7,-10.7,67.2,-32.1,90.1c-22.9,23,-51.9,44.4,-88.6,61.2c-35.1,16.8,-76.4,33.6,-122.2,45.8c-47.3,15.3,-94.7,29,-143.6,45.8C447.6,689,400.3,707.4,354.4,730.3c-47.3,21.4,-88.6,48.9,-125.2,82.5C194,846.4,165,887.6,143.6,936.5C120.7,985.4,110,1045,110,1113.8c0,64.1,12.2,125.2,38.2,183.3c26,58,62.6,108.5,111.5,151.2c50.4,44.3,111.6,79.5,186.4,103.9c73.3,27.5,158.9,39.7,255.2,39.7c108.4,0,206.2,-18.3,294.8,-53.4c88.6,-35.2,162,-82.5,221.5,-140.6l-85.5,-136c-10.7,-16.8,-21.4,-27.5,-32.1,-33.6c-10.7,-7.6,-26,-10.7,-42.8,-10.7c-18.3,0,-38.2,4.6,-58,15.3c-21.4,10.7,-45.9,21.4,-73.4,35.2c-27.5,12.2,-58,22.9,-94.7,33.6c-33.6,10.7,-76.4,15.2,-123.7,15.2c-74.9,0,-133,-15.2,-175.7,-47.3c-42.8,-32.1,-64.2,-73.3,-64.2,-123.8c0,-33.6,10.7,-61.1,33.6,-85.5c21.4,-21.4,50.4,-42.8,85.6,-59.6c36.6,-16.8,77.9,-32.1,123.7,-47.4C756.3,941.1,803.6,925.8,851,909c47.3,-16.8,94.7,-35.1,140.5,-56.5c45.9,-19.9,87.1,-45.8,123.8,-79.4c35.1,-30.6,64.1,-70.3,85.5,-114.6c23,-44.3,33.6,-99.3,33.6,-162c0,-74.8,-13.7,-145.1,-41.2,-209.3C1165.7,224.6,1126,169.6,1072.5,122.2C1019,76.4,953.3,39.7,876.9,15.3C797.5,-12.1,708.9,-24.3,608.1,-24.3Z" 
	id="f2_1m"
	transform="scale(5.0E-4,-5.0E-4)" />

	<path d="M802.1,276.5c77.9,0,145.1,16.8,200.1,48.9c55,32.1,107,79.5,155.9,139l0,702.8c-42.8,52,-88.7,88.6,-140.6,110c-48.9,21.4,-103.9,32.1,-161.9,32.1c-56.6,0,-108.5,-10.7,-155.9,-32.1c-45.8,-21.4,-85.5,-53.4,-116.1,-97.8c-33.6,-42.7,-58,-97.7,-74.8,-165c-16.9,-65.6,-26,-145.1,-26,-235.2c0,-91.7,7.6,-169.6,21.4,-232.3c15.2,-64.1,36.6,-116.1,64.1,-155.8c27.5,-41.2,61.1,-70.3,100.9,-88.6c39.7,-16.8,84,-26,132.9,-26ZM673.8,-22.8c-85.6,0,-163.5,18.3,-235.3,53.4c-71.8,35.1,-132.9,87,-184.9,155.8C203.2,253.6,163.5,337.6,134.4,436.9C106.9,536.3,93.2,650.8,93.2,779.2c0,116.1,15.3,224.6,47.4,323.9c32,99.3,76.3,186.3,135.9,259.7c59.6,73.3,129.9,131.4,212.4,171.1c82.5,42.8,175.7,62.6,278,62.6c87.1,0,162,-13.7,224.6,-41.2c62.7,-29,117.7,-65.7,166.6,-113.1l0,828.1l377.3,0L1535.4,0L1304.7,0c-48.9,0,-80.9,22.9,-96.2,68.8L1177.9,220c-32.1,-36.7,-67.2,-70.3,-102.3,-99.3c-35.2,-29,-73.4,-55,-116.2,-76.4C919.7,22.9,873.9,6.1,828.1,-6C779.2,-16.7,728.8,-22.8,673.8,-22.8Z" 
	id="f2_18"
	transform="scale(5.0E-4,-5.0E-4)" />

	<path d="M404.9,0C372.8,0,342.2,6.1,313.2,18.3C284.2,29,259.7,45.8,238.3,65.7C218.5,85.6,201.7,110,189.4,137.5c-10.6,29,-16.8,59.6,-16.8,91.7c0,32.1,6.2,61.1,16.8,90.1c12.3,29,29.1,53.5,48.9,73.3c21.4,19.9,45.9,36.7,74.9,48.9c29,12.3,59.6,18.4,91.7,18.4c32,0,61.1,-6.1,90.1,-18.4c29,-12.2,53.5,-29,73.3,-48.9c19.9,-19.8,36.7,-44.3,48.9,-73.3c12.2,-29,18.4,-58,18.4,-90.1c0,-32.1,-6.2,-62.7,-18.4,-91.7C605,110,588.2,85.6,568.3,65.7C548.5,45.8,524,29,495,18.3C466,6.1,436.9,0,404.9,0Zm0,1089.3c-32.1,0,-62.7,6.1,-91.7,16.8c-29,12.2,-53.5,29,-74.9,48.9c-19.8,19.9,-36.6,44.3,-48.9,73.3c-10.6,27.5,-16.8,58.1,-16.8,90.2c0,32.1,6.2,61.1,16.8,90.1c12.3,29,29.1,53.5,48.9,73.3c21.4,19.9,45.9,36.7,74.9,48.9c29,12.3,59.6,18.4,91.7,18.4c32,0,61.1,-6.1,90.1,-18.4c29,-12.2,53.5,-29,73.3,-48.9c19.9,-19.8,36.7,-44.3,48.9,-73.3c12.2,-29,18.4,-58,18.4,-90.1c0,-32.1,-6.2,-62.7,-18.4,-90.2c-12.2,-29,-29,-53.4,-48.9,-73.3C548.5,1135.1,524,1118.3,495,1106.1c-29,-10.7,-58.1,-16.8,-90.1,-16.8Z" 
	id="f2_f"
	transform="scale(5.0E-4,-5.0E-4)" />

	<path d="M400.3,-24.3C301,-24.3,198.6,-10.6,91.7,18.3c1.5,29.1,4.6,58.1,7.6,88.6c3.1,27.5,6.1,56.6,9.2,85.6c1.5,16.8,7.6,30.6,19.8,42.8c9.2,9.1,26,15.3,47.4,15.3c18.3,0,42.8,-4.6,73.3,-13.8c30.6,-9.2,71.8,-13.7,122.3,-13.7c67.2,0,126.8,10.7,178.7,30.5c53.5,19.9,97.8,52,134.4,94.7c35.2,42.8,62.7,97.8,82.5,165c18.4,65.7,27.5,145.2,27.5,236.8l0,1439.2l294.9,0l0,-1433C1089.3,634,1074,524,1045,427.8C1014.4,331.5,970.1,249,910.6,183.3C852.5,116.1,780.7,64.2,695.1,29C609.6,-6,511.8,-24.3,400.3,-24.3Z" 
	id="f1_w"
	transform="scale(5.0E-4,-5.0E-4)" />

	<path d="M377.4,-523.9L660,90.1L21.4,1547.6l235.3,0c22.9,0,41.2,-6.1,55,-16.8c13.7,-12.2,22.9,-25.9,29,-39.7l414,-974.7c9.2,-22.9,16.8,-44.3,24.5,-67.2c6.1,-22.9,12.2,-45.9,16.8,-68.8c7.6,22.9,13.7,45.9,21.4,68.8c7.6,22.9,15.2,45.8,24.4,68.7l401.8,973.2c6.1,16.8,16.8,30.6,30.6,39.7c15.2,12.3,32.1,16.8,48.9,16.8l216.9,0L676.8,-456.7c-9.2,-19.9,-19.9,-36.7,-35.1,-48.9c-12.3,-12.2,-33.6,-18.3,-62.7,-18.3Z" 
	id="f1_20"
	transform="scale(5.0E-4,-5.0E-4)" />

	<path d="M901.4,1129c87.1,0,161.9,10.7,229.2,32.1c64.1,19.9,119.1,48.9,165,88.6c42.7,36.7,76.3,82.5,99.3,136c22.9,53.5,33.6,111.5,33.6,175.7c0,129.9,-42.8,229.2,-129.9,294.9c-85.5,65.6,-213.9,99.3,-383.5,99.3l-323.8,0l0,-826.6ZM296.4,0l0,2189.3l618.7,0c139.1,0,258.2,-13.7,359.1,-41.2c100.8,-29.1,183.3,-68.8,250.5,-122.3c64.2,-53.4,113.1,-116.1,145.2,-192.5c32,-73.3,47.3,-157.3,47.3,-250.5c0,-77.9,-12.2,-149.7,-36.6,-217c-24.5,-67.2,-59.6,-128.3,-107,-180.2c-45.8,-55,-102.3,-99.3,-168,-137.5c-67.3,-38.2,-143.7,-65.7,-227.7,-85.6c36.7,-21.4,68.8,-51.9,97.8,-93.2L1914.3,0L1651.5,0c-53.4,0,-93.2,21.4,-119.1,62.6L964,844.9c-16.8,24.4,-36.6,41.2,-56.5,53.4c-19.9,9.2,-50.4,15.3,-91.7,15.3l-224.5,0L591.3,0Z" 
	id="f1_14"
	transform="scale(5.0E-4,-5.0E-4)" />

	<path d="M1035.8,235.3c84.1,0,157.4,9.1,217,29c61.1,19.9,111.5,47.4,149.7,81c39.7,36.6,68.8,77.9,87.1,125.3c18.3,48.8,27.5,102.3,27.5,160.4c0,113,-39.7,203.2,-120.7,267.3c-79.5,67.3,-200.1,99.3,-362.1,99.3l-472.1,0l0,-762.3Zm-82.5,973.2c84.1,0,155.9,9.1,217,27.5c61.1,18.3,111.5,44.3,152.8,76.4c39.7,32,68.7,71.8,88.6,117.6c19.8,47.4,29,97.8,29,152.8c0,128.3,-38.2,223,-116.1,282.6c-77.9,59.6,-197.1,90.2,-360.6,90.2l-401.8,0l0,-747.1ZM265.8,0l0,2189.3l698.2,0c134.5,0,250.6,-13.7,346.8,-39.7c97.8,-26,177.3,-64.2,241.4,-113.1c61.1,-48.9,108.5,-108.4,137.5,-178.7c30.6,-71.8,45.9,-151.3,45.9,-239.9c0,-53.5,-9.2,-105.4,-24.5,-155.8c-18.3,-50.4,-42.8,-96.3,-76.4,-139c-35.1,-42.8,-77.9,-81,-128.3,-114.6c-52,-33.6,-113.1,-61.1,-181.8,-82.5c160.4,-32.1,281.1,-88.6,362.1,-172.7c80.9,-84,122.2,-194,122.2,-330c0,-93.2,-16.8,-177.2,-52,-253.6C1723.3,293.3,1674.4,227.6,1607.2,172.6C1543.1,117.6,1462.1,74.9,1365.8,45.8C1271.1,15.3,1162.6,0,1040.4,0Z" 
	id="f1_o"
	transform="scale(5.0E-4,-5.0E-4)" />

	<path d="M351.4,-523.9l0,2866l210.8,0l0,-2866Z" 
	id="f1_22"
	transform="scale(5.0E-4,-5.0E-4)" />

	<path d="M296.4,0l0,2189.3l294.9,0l0,-959.4l111.5,0c38.2,0,70.3,4.5,91.6,13.7c24.5,10.7,45.9,27.5,65.7,50.4l728.8,825c22.9,26,44.3,44.3,64.2,53.5c21.3,12.2,48.8,16.8,80.9,16.8l252.1,0L1151.9,1246.7c-21.3,-22.9,-41.2,-42.8,-61.1,-59.6c-18.3,-16.8,-38.2,-29,-59.5,-39.7c29,-9.2,53.4,-23,74.8,-41.3c21.4,-18.3,44.3,-41.2,67.2,-68.7L2044.2,0L1787.5,0c-19.9,0,-35.1,1.5,-48.9,4.6c-13.7,3,-24.4,7.6,-33.6,12.2c-10.7,4.6,-19.9,12.2,-27.5,19.9c-7.6,7.6,-16.8,16.8,-24.4,25.9L896.8,931.9c-10.7,12.3,-21.4,23,-32.1,30.6c-9.1,9.2,-19.8,16.8,-33.6,22.9c-12.2,6.1,-27.5,10.7,-42.8,13.8c-18.3,1.5,-38.2,3,-62.6,3l-134.4,0L591.3,0Z" 
	id="f1_x"
	transform="scale(5.0E-4,-5.0E-4)" />

	<path d="M1132.1,467.5c32.1,0,62.6,4.6,96.2,15.3c30.6,10.7,62.7,27.5,91.7,53.5c30.6,25.9,58.1,59.5,82.5,103.8c26,44.3,47.4,99.3,64.2,165l116.1,450.7c-39.7,9.2,-82.5,13.8,-129.9,13.8c-76.4,0,-146.6,-16.8,-209.3,-47.4c-64.2,-33.6,-119.2,-74.8,-165,-126.8C1032.8,1043.5,996.1,983.9,971.7,916.7C944.2,849.4,931.9,780.7,931.9,710.4c0,-73.3,16.9,-132.9,50.5,-175.7c33.6,-45.8,84,-67.2,149.7,-67.2ZM1376.5,-365c-175.7,0,-340.7,27.5,-491.9,84C733.3,-224.5,601.9,-145,488.9,-39.6C378.9,67.2,290.3,195.6,226.1,348.3C163.5,501.1,131.4,673.8,131.4,867.8c0,111.5,13.7,218.5,42.8,320.8c27.5,102.4,67.2,198.6,117.6,287.2c50.4,90.2,111.5,171.1,183.3,244.5c71.8,74.8,151.3,137.5,238.4,189.4c87.1,53.5,181.8,94.7,282.6,122.2c100.8,30.6,206.3,44.4,316.3,44.4c93.2,0,184.8,-10.7,275,-30.6c90.1,-19.9,174.1,-50.4,255.1,-90.1c79.4,-39.8,152.8,-88.7,220,-146.7c67.2,-59.6,125.3,-126.8,174.2,-201.7c47.3,-76.4,85.5,-161.9,113,-253.6c26,-94.7,39.7,-195.5,39.7,-304c0,-110,-15.2,-212.4,-45.8,-304c-32.1,-94.8,-74.8,-174.2,-128.3,-243c-55,-68.7,-119.2,-122.2,-192.5,-160.4c-74.9,-38.2,-154.3,-58,-239.9,-58c-79.4,0,-143.6,18.3,-194,58c-50.4,36.7,-81,96.3,-94.7,175.7C1434.6,435.4,1370.4,375.8,1301.7,340.7c-68.8,-35.1,-143.6,-53.5,-223.1,-53.5c-61.1,0,-114.6,10.7,-158.9,30.6c-44.3,21.4,-82.5,50.4,-113,88.6c-29.1,36.7,-52,81,-67.3,131.4c-13.7,50.4,-21.3,105.4,-21.3,165c0,87.1,16.8,174.1,48.8,262.8c33.7,87,82.5,166.5,148.2,238.3c65.7,70.3,146.7,128.3,243,172.6c97.7,44.3,210.8,67.3,337.6,67.3c68.7,0,128.3,-4.6,178.7,-16.9c52,-9.1,100.9,-25.9,146.7,-45.8L1679,829.6c-19.8,-76.4,-29,-139,-29,-189.5c0,-36.6,4.6,-67.2,13.8,-90.1c9.1,-24.4,21.3,-42.8,38.1,-58.1c15.3,-12.2,33.7,-22.9,55,-27.5c19.9,-4.5,42.8,-7.6,65.7,-7.6c50.5,0,97.8,13.8,142.1,42.8c44.3,29,84.1,68.7,119.2,120.7c33.6,51.9,61.1,114.6,79.4,186.4c21.4,73.3,30.6,154.3,30.6,242.9c0,140.5,-22.9,264.3,-67.2,369.7c-45.9,105.4,-108.5,194,-186.4,264.3c-79.5,71.8,-172.7,125.3,-281.1,158.9c-107,36.7,-223.1,53.5,-346.8,53.5c-136,0,-264.3,-26,-383.5,-77.9C809.7,1766.1,705.8,1694.3,617.2,1602.6C528.6,1511,458.3,1402.5,407.9,1277.2C357.5,1151.9,331.5,1016,331.5,867.8c0,-172.7,27.5,-325.4,81,-455.3c55,-131.4,129.9,-241.4,223.1,-330c94.7,-88.5,204.7,-155.7,333,-200c125.3,-44.3,262.8,-67.3,407.9,-67.3c154.3,0,291.8,16.8,411,50.5c117.6,33.6,220,76.3,307.1,128.3c15.3,9.1,29,13.6,41.2,13.6c21.4,0,36.7,-12.1,47.4,-36.5l38.2,-100.9c-108.5,-73.3,-232.2,-131.4,-372.8,-172.6C1711.1,-343.7,1552.2,-365,1376.5,-365Z" 
	id="f1_m"
	transform="scale(5.0E-4,-5.0E-4)" />

	<path d="M371.3,0L1291,1805.8c13.7,26,25.9,48.9,41.2,70.3c12.2,21.4,29.1,41.3,45.9,61.1l-1142.8,0c-16.8,0,-33.6,6.1,-45.9,21.4c-15.2,12.2,-21.3,29,-21.3,45.8l0,184.9l1488,0l0,-122.2c0,-35.2,-3,-62.7,-12.2,-85.6c-6.1,-22.9,-15.3,-41.2,-22.9,-56.5L715,96.3C701.3,70.3,682.9,47.4,660,27.5C637.1,9.2,605,0,565.3,0Z" 
	id="f1_i"
	transform="scale(5.0E-4,-5.0E-4)" />

	<path d="M884.6,192.5c71.8,0,136,9.2,191,30.6c58,18.3,105.4,47.3,143.6,82.5c39.7,36.6,70.2,79.4,91.6,131.3c19.9,48.9,30.6,105.5,30.6,166.6c0,74.8,-12.2,139,-36.7,194c-25.9,51.9,-59.6,96.3,-100.8,129.9c-42.8,33.6,-91.7,58,-146.7,74.8c-55,15.3,-113,22.9,-172.6,22.9c-59.6,0,-117.7,-7.6,-172.7,-22.9C656.9,985.4,608.1,961,565.3,927.4C524,893.8,490.4,849.4,464.4,797.5C440,742.5,427.8,678.3,427.8,603.5c0,-61.1,10.7,-117.7,30.5,-166.6C479.7,385,510.3,342.2,550,305.6c38.2,-35.2,85.6,-64.2,143.6,-82.5c56.5,-21.4,119.2,-30.6,191,-30.6Zm0,1051.1c71.8,0,132.9,10.7,181.8,33.6c51.9,21.4,91.7,50.4,123.7,85.6c32.1,36.6,55,77.9,68.8,125.3c13.7,47.3,21.4,94.7,21.4,145.1c0,50.4,-9.2,99.3,-24.5,143.6c-18.3,44.3,-42.7,84,-76.4,117.6c-32,33.7,-73.3,59.6,-122.2,79.5c-50.4,19.9,-106.9,29,-172.6,29c-65.7,0,-122.2,-9.1,-172.7,-29C663.1,1954,621.8,1928.1,589.7,1894.4c-33.6,-33.6,-58,-73.3,-76.4,-117.6c-15.2,-44.3,-24.4,-93.2,-24.4,-143.6c0,-50.4,7.6,-97.8,21.4,-145.1c13.7,-47.4,36.6,-88.7,68.7,-125.3c32.1,-35.2,71.8,-64.2,123.8,-85.6c50.4,-22.9,110,-33.6,181.8,-33.6Zm0,-1267.9c-108.5,0,-209.3,15.2,-299.5,42.6C495,48.9,417.1,90.1,351.4,143.6C285.7,197.1,235.3,262.8,200.1,339.2C165,417.1,146.7,502.6,146.7,598.9c0,140.5,36.6,256.7,110,348.3c73.3,90.2,178.7,155.9,314.7,194.1C456.8,1184,369.7,1248.2,311.7,1332.2c-59.6,85.6,-88.6,187.9,-88.6,305.6c0,81,15.2,155.8,47.3,226.1c32.1,70.3,76.4,131.4,134.5,183.3c58,52,126.8,93.2,209.3,122.2c79.4,29.1,171.1,44.4,270.4,44.4c99.3,0,189.4,-15.3,270.4,-44.4c81,-29,151.3,-70.2,209.3,-122.2c58.1,-51.9,102.4,-113,134.5,-183.3c32,-70.3,47.3,-145.1,47.3,-226.1c0,-117.7,-29,-220,-88.6,-305.6c-59.6,-84,-145.1,-148.2,-259.7,-190.9c136,-38.2,241.4,-103.9,314.7,-194.1c73.3,-91.6,110,-207.8,110,-348.3c0,-96.3,-18.3,-181.8,-55,-259.7C1532.4,262.8,1481.9,197.1,1417.8,143.6C1352.1,90.1,1274.2,48.9,1184,18.3C1093.9,-9.1,993.1,-24.3,884.6,-24.3Z" 
	id="f1_j"
	transform="scale(5.0E-4,-5.0E-4)" />


</defs>
</svg>