<?xml version="1.0" encoding="UTF-8" standalone="no"?>
<!DOCTYPE svg PUBLIC "-//W3C//DTD SVG 1.1//EN"
"http://www.w3.org/Graphics/SVG/1.1/DTD/svg11.dtd">
<svg viewBox="0 0 909 1286" version="1.1" xmlns="http://www.w3.org/2000/svg" xmlns:xlink="http://www.w3.org/1999/xlink">
<defs>
<style type="text/css"><![CDATA[
.g1_100{
fill: none;
stroke: #000000;
stroke-width: 0.6080556;
stroke-linecap: butt;
stroke-linejoin: miter;
}
]]></style>
</defs>
<g fill="#000000" >
<use xlink:href="#f0_i" transform="matrix(12,0,0,12,43.3,96.9)" />
<use xlink:href="#f0_g" transform="matrix(12,0,0,12,53.6,96.9)" />
<use xlink:href="#f0_m" transform="matrix(12,0,0,12,213.4,96.9)" />
<use xlink:href="#f0_1t" transform="matrix(12,0,0,12,229,96.9)" />
<use xlink:href="#f0_1s" transform="matrix(12,0,0,12,240.4,96.9)" />
<use xlink:href="#f0_1n" transform="matrix(12,0,0,12,248.4,96.9)" />
<use xlink:href="#f0_8" transform="matrix(12,0,0,12,258.6,96.9)" />
<use xlink:href="#f0_1f" transform="matrix(12,0,0,12,265.5,96.9)" />
<use xlink:href="#f0_1d" transform="matrix(12,0,0,12,275.8,96.9)" />
<use xlink:href="#f0_1m" transform="matrix(12,0,0,12,285.1,96.9)" />
<use xlink:href="#f0_1d" transform="matrix(12,0,0,12,296.6,96.9)" />
<use xlink:href="#f0_1q" transform="matrix(12,0,0,12,305.9,96.9)" />
<use xlink:href="#f0_19" transform="matrix(12,0,0,12,314.3,96.9)" />
<use xlink:href="#f0_1s" transform="matrix(12,0,0,12,324.3,96.9)" />
<use xlink:href="#f0_1d" transform="matrix(12,0,0,12,332.3,96.9)" />
<use xlink:href="#f0_1c" transform="matrix(12,0,0,12,341.7,96.9)" />
<use xlink:href="#f0_1q" transform="matrix(12,0,0,12,359.9,96.9)" />
<use xlink:href="#f0_1d" transform="matrix(12,0,0,12,368.3,96.9)" />
<use xlink:href="#f0_1o" transform="matrix(12,0,0,12,377.7,96.9)" />
<use xlink:href="#f0_1n" transform="matrix(12,0,0,12,389.7,96.9)" />
<use xlink:href="#f0_1q" transform="matrix(12,0,0,12,400,96.9)" />
<use xlink:href="#f0_1s" transform="matrix(12,0,0,12,408.4,96.9)" />
<use xlink:href="#f0_1e" transform="matrix(12,0,0,12,423.2,96.9)" />
<use xlink:href="#f0_1n" transform="matrix(12,0,0,12,429.5,96.9)" />
<use xlink:href="#f0_1q" transform="matrix(12,0,0,12,439.8,96.9)" />
<use xlink:href="#f0_a" transform="matrix(12,0,0,12,455,96.9)" />
<use xlink:href="#f0_b" transform="matrix(12,0,0,12,465.3,96.9)" />
<use xlink:href="#f0_8" transform="matrix(12,0,0,12,475.6,96.9)" />
<use xlink:href="#f0_19" transform="matrix(12,0,0,12,482.4,96.9)" />
<use xlink:href="#f0_1h" transform="matrix(12,0,0,12,492.4,96.9)" />
<use xlink:href="#f0_1q" transform="matrix(12,0,0,12,498.1,96.9)" />
<use xlink:href="#f0_1k" transform="matrix(12,0,0,12,506.5,96.9)" />
<use xlink:href="#f0_1h" transform="matrix(12,0,0,12,512.2,96.9)" />
<use xlink:href="#f0_1m" transform="matrix(12,0,0,12,517.9,96.9)" />
<use xlink:href="#f0_1d" transform="matrix(12,0,0,12,529.3,96.9)" />
<use xlink:href="#f0_1c" transform="matrix(12,0,0,12,545.6,96.9)" />
<use xlink:href="#f0_19" transform="matrix(12,0,0,12,557,96.9)" />
<use xlink:href="#f0_1s" transform="matrix(12,0,0,12,567,96.9)" />
<use xlink:href="#f0_19" transform="matrix(12,0,0,12,574.9,96.9)" />
<use xlink:href="#f0_1r" transform="matrix(12,0,0,12,584.9,96.9)" />
<use xlink:href="#f0_1d" transform="matrix(12,0,0,12,593,96.9)" />
<use xlink:href="#f0_1s" transform="matrix(12,0,0,12,602.4,96.9)" />
<use xlink:href="#f0_6" transform="matrix(12,0,0,12,617.3,96.9)" />
<use xlink:href="#f0_1" transform="matrix(12,0,0,12,625.2,96.9)" />
<use xlink:href="#f0_1u" transform="matrix(12,0,0,12,636.7,96.9)" />
<use xlink:href="#f0_1d" transform="matrix(12,0,0,12,646.9,96.9)" />
<use xlink:href="#f0_1a" transform="matrix(12,0,0,12,663.1,96.9)" />
<use xlink:href="#f0_19" transform="matrix(12,0,0,12,674.6,96.9)" />
<use xlink:href="#f0_1r" transform="matrix(12,0,0,12,684.6,96.9)" />
<use xlink:href="#f0_1d" transform="matrix(12,0,0,12,692.7,96.9)" />
<use xlink:href="#f0_1j" transform="matrix(12,0,0,12,708.9,96.9)" />
<use xlink:href="#f0_1d" transform="matrix(12,0,0,12,719.2,96.9)" />
<use xlink:href="#f0_1q" transform="matrix(12,0,0,12,728.5,96.9)" />
<use xlink:href="#f0_1m" transform="matrix(12,0,0,12,736.9,96.9)" />
<use xlink:href="#f0_1d" transform="matrix(12,0,0,12,748.3,96.9)" />
<use xlink:href="#f0_1k" transform="matrix(12,0,0,12,757.7,96.9)" />
<use xlink:href="#f0_1r" transform="matrix(12,0,0,12,763.4,96.9)" />
<use xlink:href="#f0_7" transform="matrix(12,0,0,12,771.5,96.9)" />
</g>
<path d="M43.3,103.8l736.2,0" class="g1_100" />
<defs>
	<path d="M430.8,42.8c110,0,232.3,38.2,232.3,160.4c0,77.9,-65.7,114.6,-116.2,143.6L336.1,467.5C262.8,426.3,194,356,194,244.4C194,123.8,279.6,42.8,430.8,42.8Zm84.1,556.1c87,50.4,114.5,116.1,114.5,178.7c0,100.9,-73.3,169.6,-203.1,169.6c-35.2,0,-198.7,-3,-198.7,-125.3c0,-50.4,42.8,-85.5,73.4,-102.3L514.9,598.9ZM426.3,-18.2C224.6,-18.2,71.8,67.2,71.8,242.9c0,79.5,29,184.9,201.7,261.3C160.4,563.8,119.2,655.4,119.2,737.9c0,148.2,108.4,264.3,311.6,264.3c166.6,0,307.1,-67.2,307.1,-224.6C737.9,658.5,652.4,601.9,576,562.2C653.9,519.4,785.3,447.6,785.3,281.1c0,-177.2,-132.9,-299.3,-359,-299.3Z" 
	id="f0_i"
	transform="scale(0.001,-0.001)" />

	<path d="M432.4,42.8c158.9,0,158.9,122.2,158.9,273.5c0,152.7,0,275,-151.3,275c-90.1,0,-171.1,-79.5,-171.1,-267.4c0,-13.8,0,-136,21.4,-186.4c6.1,-12.2,44.3,-94.7,142.1,-94.7Zm1.5,-61C71.8,-18.2,71.8,381.9,71.8,484.3c0,398.8,258.2,517.9,449.2,517.9c160.4,0,221.5,-93.2,221.5,-184.8c0,-67.3,-50.4,-93.2,-90.1,-93.2c-48.9,0,-90.2,35.1,-90.2,90.1c0,41.3,24.5,84,82.5,90.1C608.1,942.6,553.1,947.2,524,947.2c-99.3,0,-177.2,-59.6,-210.8,-123.7C270.4,741,265.8,646.3,265.8,553.1l0,-41.3c61.1,129.9,158.9,129.9,189.5,129.9c181.8,0,330,-113.1,330,-327C785.3,100.8,635.6,-18.2,433.9,-18.2Z" 
	id="f0_g"
	transform="scale(0.001,-0.001)" />

	<path d="M759.3,369.7l-177.2,440L403.3,369.7ZM59.6,0l0,65.7l27.5,0c33.6,0,39.7,0,77.9,4.6c42.8,4.6,42.8,7.6,53.5,32.1l378.9,931.9c10.7,27.5,13.7,35.1,51.9,35.1c36.7,0,39.7,-7.6,50.4,-35.1L1092.4,65.7l145.1,0L1199.3,3.1l-262.8,0C788.3,3.1,994.6,0,739.4,0l0,65.7l143.7,0L786.8,304l-409.4,0l-81,-198.6c-3.1,-6.1,-3.1,-9.1,-7.6,-22.9C331.5,65.7,389.6,65.7,423.2,65.7L388.1,3.1L191,3.1C99.3,3.1,235.3,0,59.6,0Z" 
	id="f0_m"
	transform="scale(0.001,-0.001)" />

	<path d="M435.4,-9.1c-163.5,0,-265.8,44.2,-265.8,197l0,362.1c0,59.6,-10.7,59.6,-105.4,59.6l0,65.7l271.9,12.2l0,-524c0,-84.1,6.1,-122.2,120.7,-122.2c119.2,0,187.9,93.1,187.9,209.3l0,299.4c0,59.6,-10.7,59.6,-105.4,59.6l0,65.7l272,12.2l0,-562.2c0,-59.6,10.6,-59.6,105.4,-59.6L916.7,0L652.4,-9.1l0,123.7l-1.6,0C585.1,-9.1,472.1,-9.1,435.4,-9.1Z" 
	id="f0_1t"
	transform="scale(0.001,-0.001)" />

	<path d="M391.1,-9.1c-110,0,-235.3,35.1,-235.3,197l0,424.7l-123.7,0l0,50.5c151.2,4.5,224.6,155.8,226.1,307l64.2,0l0,-291.8l220,0l0,-65.7l-220,0l0,-429.3c0,-35.1,0,-137.5,91.6,-137.5c47.4,0,93.2,44.3,93.2,145.2l0,79.4l64.2,0l0,-81C571.4,76.4,504.2,-9.1,391.1,-9.1Z" 
	id="f0_1s"
	transform="scale(0.001,-0.001)" />

	<path d="M429.3,45.8c197.1,0,197.1,177.3,197.1,304.1c0,73.3,0,152.7,-30.6,207.7c-25.9,42.8,-80.9,84.1,-168,84.1c-65.7,0,-134.5,-27.5,-168.1,-88.6c-29,-55,-29,-131.4,-29,-203.2c0,-125.3,0,-304.1,198.6,-304.1ZM427.8,-9.1C187.9,-9.1,47.4,134.4,47.4,334.6c0,198.6,132.9,357.5,381.9,357.5c239.9,0,380.4,-151.3,380.4,-357.5C809.7,142.1,676.8,-9.1,427.8,-9.1Z" 
	id="f0_1n"
	transform="scale(0.001,-0.001)" />

	<path d="M18.3,268.9l0,140.5l458.4,0l0,-140.5Z" 
	id="f0_8"
	transform="scale(0.001,-0.001)" />

	<path d="M429.3,-258.1c201.7,0,255.1,88.6,255.1,142.1c0,79.4,-106.9,99.3,-218.4,99.3l-174.2,0c-22.9,0,-119.2,0,-119.2,-97.8c0,-58,55,-143.6,256.7,-143.6ZM380.4,287.2c132.9,0,132.9,105.4,132.9,175.7c0,70.3,0,175.7,-132.9,175.7C247.5,638.6,247.5,533.2,247.5,462.9c0,-70.3,0,-175.7,132.9,-175.7ZM427.8,-307C146.7,-307,47.4,-204.6,47.4,-114.5c0,87.1,94.7,122.1,131.4,131.3c-32.1,24.5,-67.3,81,-67.3,146.7c0,55,27.5,108.4,53.5,137.5C100.8,352.9,85.6,415.6,85.6,462.9c0,107,84,224.6,294.8,224.6c77.9,0,137.5,-13.7,200.2,-50.4c32,27.5,94.7,59.6,160.4,59.6c64.1,0,91.6,-48.9,91.6,-85.6C832.6,579,811.3,550,771.5,550c-39.7,0,-61.1,29,-61.1,61.1c0,19.9,4.6,26,9.2,33.6c-26,-3,-62.7,-9.1,-107,-33.6C631,595.8,675.3,540.8,675.3,462.9C675.3,356,591.3,238.3,380.4,238.3c-22.9,0,-108.5,0,-181.8,39.8c-16.8,-19.9,-18.3,-42.8,-18.3,-55c0,-29.1,18.3,-87.1,84,-97.8c7.6,-1.5,74.9,-1.5,113.1,-1.5c134.4,0,232.2,0,305.5,-36.7c38.2,-18.3,126.8,-62.7,126.8,-197C809.7,-224.5,681.4,-307,427.8,-307Z" 
	id="f0_1f"
	transform="scale(0.001,-0.001)" />

	<path d="M594.3,381.9C592.8,458.3,579,641.7,415.6,641.7c-65.7,0,-119.2,-33.6,-148.2,-82.5C235.3,504.2,233.8,444.6,230.7,381.9ZM435.4,-9.1c-230.7,0,-388,139,-388,352.9c0,192.5,129.8,348.3,368.2,348.3c88.6,0,174.1,-19.9,238.3,-84c70.3,-71.8,81,-186.4,81,-232.3c0,-38.2,-9.2,-38.2,-44.3,-38.2l-459.9,0c0,-85.5,1.5,-291.8,223.1,-291.8c73.3,0,174.1,32.1,213.8,131.4c9.2,19.9,10.7,24.5,35.2,24.5c9.1,0,32.1,0,32.1,-22.9c0,-26,-68.8,-187.9,-299.5,-187.9Z" 
	id="f0_1d"
	transform="scale(0.001,-0.001)" />

	<path d="M64.2,0l0,65.7l105.4,0l0,484.3c0,59.6,-10.7,59.6,-105.4,59.6l0,65.7l258.2,12.2l0,-168.1l1.5,0C375.8,634,470.6,687.5,580.6,687.5c168,0,230.7,-74.9,230.7,-220l0,-401.8l105.4,0L881.5,3.1l-197.1,0C574.4,3.1,727.2,0,539.3,0l0,65.7l105.4,0l0,418.6c0,116.1,-32.1,152.8,-88.6,152.8c-97.8,0,-220,-81,-220,-246l0,-325.4l105.4,0L406.4,3.1l-197.1,0C99.3,3.1,252.1,0,64.2,0Z" 
	id="f0_1m"
	transform="scale(0.001,-0.001)" />

	<path d="M53.5,0l0,65.7l105.4,0l0,484.3c0,59.6,-10.7,59.6,-105.4,59.6l0,65.7L304,687.5l0,-169.6l1.6,0c21.3,64.2,73.3,169.6,194,169.6c73.3,0,152.8,-42.8,152.8,-120.7c0,-62.6,-50.5,-88.6,-88.6,-88.6c-38.2,0,-88.7,26,-88.7,88.6c0,27.5,10.7,53.5,32.1,70.3C328.5,637.1,317.8,394.2,317.8,343.8l0,-278.1l132.9,0L414,3.1l-210.8,0C88.6,3.1,246,0,53.5,0Z" 
	id="f0_1q"
	transform="scale(0.001,-0.001)" />

	<path d="M359,41.3c48.9,0,177.3,27.5,177.3,171.1l0,143.6C386.5,348.3,221.5,301,221.5,161.9C221.5,91.7,284.2,41.3,359,41.3ZM334.6,-9.1C229.2,-9.1,51.9,21.4,51.9,160.4c0,169.6,243,236.8,484.4,236.8l0,61.1c0,125.3,-62.7,183.4,-166.6,183.4c-29,0,-65.7,0,-116.1,-13.8c26,-16.8,36.7,-44.3,36.7,-73.3c0,-58.1,-44.3,-90.2,-90.2,-90.2c-41.2,0,-90.1,27.5,-90.1,91.7c0,128.3,180.3,136,265.8,136c215.5,0,327,-94.7,327,-235.3l0,-330c0,-35.1,0,-59.6,96.2,-61.1c21.4,0,35.2,0,35.2,-32.1C834.2,0,821.9,0,789.9,0l-78,0C557.6,0,557.6,65.7,557.6,122.2C527.1,55,452.2,-9.1,334.6,-9.1Z" 
	id="f0_19"
	transform="scale(0.001,-0.001)" />

	<path d="M430.8,41.3c55,0,133,19.8,197.1,113l0,388.1c-50.4,67.2,-117.6,94.7,-180.3,94.7c-35.1,0,-125.2,-9.2,-172.6,-94.7C241.4,484.3,241.4,407.9,241.4,336.1c0,-100.8,0,-294.8,189.4,-294.8ZM412.5,-9.1C209.3,-9.1,58.1,120.7,58.1,339.2c0,213.9,154.3,348.3,371.2,348.3c105.4,0,172.6,-44.3,206.3,-73.3l0,308.6c0,59.6,-10.7,59.6,-105.5,59.6l0,65.7l264.3,12.2l0,-935c0,-59.6,10.7,-59.6,105.5,-59.6L899.9,0l-272,-9.1l0,79.4C568.3,19.9,496.5,-9.1,412.5,-9.1Z" 
	id="f0_1c"
	transform="scale(0.001,-0.001)" />

	<path d="M504.2,41.3c97.7,0,207.7,77.9,207.7,299.4c0,201.7,-90.1,291.8,-189.4,291.8c-59.6,0,-140.6,-24.4,-197.1,-97.8l0,-388C372.8,74.9,438.5,41.3,504.2,41.3ZM53.5,-296.3l0,65.7l105.4,0l0,780.6c0,59.6,-10.7,59.6,-105.4,59.6l0,65.7l264.3,12.2l0,-79.4c61.1,48.8,139,79.4,229.1,79.4c206.3,0,348.4,-136,348.4,-346.8C895.3,117.6,731.8,-9.1,522.5,-9.1C430.8,-9.1,363.6,29,325.4,62.6l0,-293.2l105.4,0l-35.1,-62.6l-197.1,0c-110,0,42.8,-3.1,-145.1,-3.1Z" 
	id="f0_1o"
	transform="scale(0.001,-0.001)" />

	<path d="M67.2,0l0,65.7l105.4,0l0,546.9l-113,0l0,65.7l113,0l0,155.9c0,177.2,169.6,235.2,308.7,235.2c108.4,0,163.4,-64.1,163.4,-126.8c0,-67.2,-55,-90.1,-88.6,-90.1c-39.7,0,-88.6,27.5,-88.6,88.6c0,32.1,13.8,58.1,36.7,73.3c-9.2,3.1,-12.3,4.6,-29.1,4.6C424.7,1019,323.9,994.6,323.9,835.7l0,-157.4l181.8,0l0,-65.7l-174.2,0l0,-546.9l132.9,0L427.8,3.1l-210.9,0C102.4,3.1,259.7,0,67.2,0Z" 
	id="f0_1e"
	transform="scale(0.001,-0.001)" />

	<path d="M429.3,32.1c36.7,0,77.9,15.3,108.5,45.8c45.8,45.9,68.7,67.2,68.7,427.8c0,93.2,0,216.9,-13.7,294.9C571.4,928.9,476.7,951.8,427.8,951.8c-33.6,0,-143.6,-10.7,-165,-161.9C250.6,710.4,250.6,612.6,250.6,505.7C250.6,146.7,275,122.2,313.2,84C343.8,51.9,380.4,32.1,429.3,32.1Zm-1.5,-50.3C67.2,-18.2,67.2,340.7,67.2,487.4c0,148.2,0,514.8,362.1,514.8c360.6,0,360.6,-368.2,360.6,-514.8c0,-151.3,-1.6,-505.6,-362.1,-505.6Z" 
	id="f0_a"
	transform="scale(0.001,-0.001)" />

	<path d="M143.6,0l0,65.7l212.4,0l0,802.1c-61.1,-19.9,-142.1,-29,-195.6,-29l-29,0l0,65.6l29,0c33.6,0,203.2,0,316.3,97.8c48.9,0,51.9,0,51.9,-44.3l0,-892.2l209.3,0L673.8,3.1l-305.6,0C207.8,3.1,440,0,143.6,0Z" 
	id="f0_b"
	transform="scale(0.001,-0.001)" />

	<path d="M67.2,0l0,65.7l105.4,0l0,484.3c0,59.6,-10.7,59.6,-100.8,59.6l0,65.7l259.7,12.2l0,-621.8l94.8,0L389.6,3.1l-181.8,0C102.4,3.1,249,0,67.2,0ZM230.7,841.8c-62.6,0,-110,52,-110,110c0,58.1,47.4,110,110,110c59.6,0,110,-47.4,110,-110c0,-62.6,-50.4,-110,-110,-110Z" 
	id="f0_1h"
	transform="scale(0.001,-0.001)" />

	<path d="M67.2,0l0,65.7l105.4,0l0,857.1c0,59.6,-10.7,59.6,-105.4,59.6l0,65.7l264.3,12.2l0,-994.6l105.4,0L401.8,3.1l-191,0C102.4,3.1,252.1,0,67.2,0Z" 
	id="f0_1k"
	transform="scale(0.001,-0.001)" />

	<path d="M81,-9.1C58.1,-9.1,58.1,1.5,58.1,30.6l0,175.7c0,35.1,0,39.7,32,39.7c26,0,27.5,-1.6,36.7,-32.1C169.6,65.7,265.8,41.3,343.8,41.3c32,0,171.1,0,171.1,117.6c0,64.2,-61.1,102.4,-122.3,116.1c-6.1,0,-56.5,9.2,-97.7,16.8C247.5,299.4,58.1,333.1,58.1,493.5c0,198.6,229.1,198.6,275,198.6c55,0,111.5,-9.2,154.3,-33.6c7.6,4.6,24.4,15.3,30.5,19.8c22.9,13.8,26,13.8,35.2,13.8c22.9,0,22.9,-10.7,22.9,-39.7L576,521c0,-35.2,0,-39.7,-32.1,-39.7c-18.3,0,-30.6,0,-32.1,19.8c-3,38.2,-12.2,145.2,-181.8,145.2c-32.1,0,-168.1,0,-168.1,-99.4c0,-73.3,91.7,-90.1,189.5,-106.9c82.5,-15.3,134.4,-24.4,197.1,-76.4C579,336.1,618.8,285.7,618.8,212.4C618.8,9.2,427.8,-9.1,343.8,-9.1c-27.5,0,-110,0,-178.8,53.4l-39.7,-29C94.7,-9.1,91.7,-9.1,81,-9.1Z" 
	id="f0_1r"
	transform="scale(0.001,-0.001)" />

	<path d="M545.4,-383.4c-15.3,0,-18.3,0,-58,33.6C270.4,-172.5,165,100.8,165,381.9c0,275,103.9,556.2,323.9,731.9c39.7,32,42.8,32,56.5,32c7.7,0,26,0,26,-18.3c0,-6.1,-1.5,-7.6,-19.9,-26C380.4,928.9,305.6,681.4,305.6,380.4c0,-268.9,65.7,-537.7,236.8,-708.8c29,-27.5,29,-30.5,29,-36.6c0,-18.4,-18.3,-18.4,-26,-18.4Z" 
	id="f0_6"
	transform="scale(0.001,-0.001)" />

	<path d="M53.5,0l0,65.7l105.4,0l0,546.9l-113.1,0l0,65.7l113.1,0l0,154.3c0,184.9,232.2,236.8,406.4,236.8c154.3,0,223,-88.6,223,-172.6c0,-58,-42.7,-93.2,-93.2,-93.2c-51.9,0,-93.2,36.7,-93.2,93.2c0,39.7,19.9,76.4,67.3,91.7C623.3,1019,568.3,1019,551.5,1019c-61.1,0,-241.4,-15.2,-241.4,-187.9l0,-152.8l220,0l0,6.1l264.3,7.7l0,-626.4l105.5,0L864.7,3.1l-190.9,0C565.3,3.1,715,0,530.1,0l0,65.7l105.5,0l0,491.9c0,53.5,-9.2,55,-47.4,55l-270.4,0l0,-546.9l105.4,0L388.1,3.1l-191,0C88.6,3.1,238.3,0,53.5,0Z" 
	id="f0_1"
	transform="scale(0.001,-0.001)" />

	<path d="M453.8,-7.5c-35.2,0,-38.2,7.5,-52,36.5L132.9,612.6l-96.2,0l39.7,62.7l174.2,0c106.9,0,-41.3,3,142,3l0,-65.7l-84,0L505.7,183.3L684.4,576c7.7,15.3,7.7,16.8,7.7,18.3c0,10.7,-33.6,18.3,-74.9,18.3l87.1,62.7l107,0c3,0,-62.7,3,58,3l0,-65.7c-96.2,0,-102.4,-12.2,-113,-35.1L504.2,26C490.4,-4.5,478.2,-7.5,453.8,-7.5Z" 
	id="f0_1u"
	transform="scale(0.001,-0.001)" />

	<path d="M507.2,41.3c48.9,0,120.7,15.2,168.1,88.6c36.6,56.5,36.6,143.6,36.6,212.3c0,100.9,0,294.9,-189.4,294.9c-64.2,0,-143.6,-27.5,-197.1,-100.8l0,-388.1C346.8,114.6,403.3,41.3,507.2,41.3ZM522.5,-9.1C461.4,-9.1,377.4,7.6,299.4,88.6C275,58.1,249,29,223.1,0L158.9,0l0,922.8c0,59.6,-10.7,59.6,-105.4,59.6l0,65.7l264.3,12.2l0,-450.7c62.6,48.9,134.4,77.9,224.6,77.9C751.7,687.5,895.3,550,895.3,340.7C895.3,119.2,733.3,-9.1,522.5,-9.1Z" 
	id="f0_1a"
	transform="scale(0.001,-0.001)" />

	<path d="M53.5,0l0,65.7l105.4,0l0,857.1c0,59.6,-10.7,59.6,-105.4,59.6l0,65.7l264.3,12.2l0,-702.8l278,223.1c3.1,3,12.3,9.1,12.3,15.2c0,12.3,-36.7,16.8,-55,16.8l35.1,62.7l181.8,0c30.6,0,-56.5,3,70.3,3l0,-65.7c-105.4,0,-122.2,-13.7,-140.6,-29L507.2,427.8L762.4,97.8c16.8,-21.4,22.9,-26,44.3,-30.6c16.8,-1.5,47.3,-1.5,71.8,-1.5L814.3,3.1l-140.5,0C572.9,3.1,715,0,536.3,0l0,65.7c21.3,0,51.9,0,51.9,15.3c0,1.5,0,4.6,-10.7,16.8L392.6,336.1C359,308.6,336.1,288.8,311.7,270.4l0,-204.7l105.4,0L381.9,3.1L194,3.1C88.6,3.1,235.3,0,53.5,0Z" 
	id="f0_1j"
	transform="scale(0.001,-0.001)" />

	<path d="M120.7,-383.4c-7.6,0,-26,0,-26,18.4c0,6.1,1.6,7.6,19.9,25.9c171.1,172.7,246,420.1,246,721c0,268.9,-65.7,537.8,-236.8,708.9c-29.1,27.5,-29.1,30.6,-29.1,36.7c0,18.3,18.4,18.3,26,18.3c15.3,0,18.3,0,58.1,-33.6C395.7,935,501.1,661.5,501.1,380.4c0,-275,-103.9,-556,-323.9,-731.7c-39.7,-32.1,-42.8,-32.1,-56.5,-32.1Z" 
	id="f0_7"
	transform="scale(0.001,-0.001)" />


</defs>
</svg>