<?xml version="1.0" encoding="UTF-8" standalone="no"?>
<!DOCTYPE svg PUBLIC "-//W3C//DTD SVG 1.1//EN"
"http://www.w3.org/Graphics/SVG/1.1/DTD/svg11.dtd">
<svg viewBox="0 0 909 1286" version="1.1" xmlns="http://www.w3.org/2000/svg" xmlns:xlink="http://www.w3.org/1999/xlink">
<defs>
<style type="text/css"><![CDATA[
.g0_1{
fill: #0077AB;
}
.g1_1{
fill: none;
stroke: #D1D1D1;
stroke-width: 0.9136112;
stroke-linecap: butt;
stroke-linejoin: miter;
}
.g2_1{
fill: none;
stroke: #D1D1D1;
stroke-width: 0.6088194;
stroke-linecap: butt;
stroke-linejoin: miter;
}
]]></style>
</defs>
<image preserveAspectRatio="none" x="758" y="24" width="108" height="129" xlink:href="img/1.png" />
<path d="M571.7,204.7H866.1v-3.1H571.7v3.1Z" class="g0_1" />
<path d="M571.7,394.4H866.1v-3H571.7v3Z" class="g0_1" />
<path d="M571.7,466.4h3.8m3.9,0h3.8m3.9,0h3.8m3.9,0h3.8m3.9,0h3.8m3.9,0H614m3.9,0h3.8m3.9,0h3.8m3.9,0h3.8m3.9,0h3.8m3.9,0h3.8m3.9,0h3.8m3.9,0h3.8m3.9,0h3.8m3.9,0h3.8m3.9,0H691m3.9,0h3.8m3.9,0h3.8m3.9,0h3.8m3.9,0h3.8m3.9,0h3.8m3.9,0h3.8m3.9,0h3.8m3.9,0h3.8m3.9,0h3.8m3.9,0H768m3.9,0h3.8m3.9,0h3.8m3.9,0h3.9m3.8,0h3.9m3.8,0h3.9m3.8,0h3.9m3.8,0H822m3.8,0h3.9m3.8,0h3.9m3.8,0h3.9m3.8,0h3.9m3.8,0h3.9M571.7,557.1h3.8m3.9,0h3.8m3.9,0h3.8m3.9,0h3.8m3.9,0h3.8m3.9,0H614m3.9,0h3.8m3.9,0h3.8m3.9,0h3.8m3.9,0h3.8m3.9,0h3.8m3.9,0h3.8m3.9,0h3.8m3.9,0h3.8m3.9,0h3.8m3.9,0H691m3.9,0h3.8m3.9,0h3.8m3.9,0h3.8m3.9,0h3.8m3.9,0h3.8m3.9,0h3.8m3.9,0h3.8m3.9,0h3.8m3.9,0h3.8m3.9,0H768m3.9,0h3.8m3.9,0h3.8m3.9,0h3.9m3.8,0h3.9m3.8,0h3.9m3.8,0h3.9m3.8,0H822m3.8,0h3.9m3.8,0h3.9m3.8,0h3.9m3.8,0h3.9m3.8,0h3.9" class="g1_1" />
<path d="M571.7,695.4H866.1v-3H571.7v3Z" class="g0_1" />
<path d="M671.6,705.5H578c-3.3,0,-6,2.7,-6,6.1v12.8c0,3.4,2.7,6.1,6,6.1h93.6c3.4,0,6.1,-2.7,6.1,-6.1V711.6c0,-3.4,-2.7,-6.1,-6.1,-6.1ZM741.7,705.5H690.3c-3.4,0,-6.1,2.7,-6.1,6.1v12.8c0,3.4,2.7,6.1,6.1,6.1h51.4c3.3,0,6.1,-2.7,6.1,-6.1V711.6c0,-3.4,-2.8,-6.1,-6.1,-6.1ZM793.3,705.5h-33c-3.3,0,-6,2.7,-6,6.1v12.8c0,3.4,2.7,6.1,6,6.1h33c3.4,0,6.1,-2.7,6.1,-6.1V711.6c0,-3.4,-2.7,-6.1,-6.1,-6.1ZM859,705.5H812c-3.4,0,-6.1,2.7,-6.1,6.1v12.8c0,3.4,2.7,6.1,6.1,6.1h47c3.4,0,6.1,-2.7,6.1,-6.1V711.6c0,-3.4,-2.7,-6.1,-6.1,-6.1ZM591.1,732.7H578c-3.3,0,-6,2.7,-6,6.1v12.8c0,3.4,2.7,6.1,6,6.1h13.1c3.3,0,6.1,-2.7,6.1,-6.1V738.8c0,-3.4,-2.8,-6.1,-6.1,-6.1ZM660.5,732.7H609.7c-3.3,0,-6.1,2.7,-6.1,6.1v12.8c0,3.4,2.8,6.1,6.1,6.1h50.8c3.3,0,6.1,-2.7,6.1,-6.1V738.8c0,-3.4,-2.8,-6.1,-6.1,-6.1ZM710.4,732.7H679.1c-3.3,0,-6,2.7,-6,6.1v12.8c0,3.4,2.7,6.1,6,6.1h31.3c3.4,0,6.1,-2.7,6.1,-6.1V738.8c0,-3.4,-2.7,-6.1,-6.1,-6.1ZM761,732.7H726.1c-3.3,0,-6.1,2.7,-6.1,6.1v12.8c0,3.4,2.8,6.1,6.1,6.1H761c3.3,0,6.1,-2.7,6.1,-6.1V738.8c0,-3.4,-2.8,-6.1,-6.1,-6.1ZM822.2,732.7H776.7c-3.4,0,-6.1,2.7,-6.1,6.1v12.8c0,3.4,2.7,6.1,6.1,6.1h45.5c3.4,0,6.1,-2.7,6.1,-6.1V738.8c0,-3.4,-2.7,-6.1,-6.1,-6.1ZM621.8,759.8H578c-3.3,0,-6,2.8,-6,6.1v12.9c0,3.3,2.7,6.1,6,6.1h43.8c3.4,0,6.1,-2.8,6.1,-6.1V765.9c0,-3.3,-2.7,-6.1,-6.1,-6.1ZM695.8,759.8H640.5c-3.4,0,-6.1,2.8,-6.1,6.1v12.9c0,3.3,2.7,6.1,6.1,6.1h55.3c3.4,0,6.1,-2.8,6.1,-6.1V765.9c0,-3.3,-2.7,-6.1,-6.1,-6.1ZM776.5,805.5H578c-3.3,0,-6,2.7,-6,6.1v12.8c0,3.4,2.7,6.1,6,6.1H776.5c3.4,0,6.1,-2.7,6.1,-6.1V811.6c0,-3.4,-2.7,-6.1,-6.1,-6.1ZM856.8,805.5H795.2c-3.4,0,-6.1,2.7,-6.1,6.1v12.8c0,3.4,2.7,6.1,6.1,6.1h61.6c3.4,0,6.1,-2.7,6.1,-6.1V811.6c0,-3.4,-2.7,-6.1,-6.1,-6.1ZM679.6,832.7H578c-3.3,0,-6,2.7,-6,6v12.9c0,3.4,2.7,6.1,6,6.1H679.6c3.4,0,6.1,-2.7,6.1,-6.1V838.7c0,-3.3,-2.7,-6,-6.1,-6ZM831.9,832.7H698.3c-3.4,0,-6.1,2.7,-6.1,6v12.9c0,3.4,2.7,6.1,6.1,6.1H831.9c3.3,0,6.1,-2.7,6.1,-6.1V838.7c0,-3.3,-2.8,-6,-6.1,-6ZM661.4,859.8H578c-3.3,0,-6,2.7,-6,6.1v12.9c0,3.3,2.7,6,6,6h83.4c3.3,0,6.1,-2.7,6.1,-6V865.9c0,-3.4,-2.8,-6.1,-6.1,-6.1ZM805.6,859.8H680c-3.3,0,-6,2.7,-6,6.1v12.9c0,3.3,2.7,6,6,6H805.6c3.4,0,6.1,-2.7,6.1,-6V865.9c0,-3.4,-2.7,-6.1,-6.1,-6.1Z" class="g2_1" />
<path d="M571.7,894.9h3.8m3.9,0h3.8m3.9,0h3.8m3.9,0h3.8m3.9,0h3.8m3.9,0H614m3.9,0h3.8m3.9,0h3.8m3.9,0h3.8m3.9,0h3.8m3.9,0h3.8m3.9,0h3.8m3.9,0h3.8m3.9,0h3.8m3.9,0h3.8m3.9,0H691m3.9,0h3.8m3.9,0h3.8m3.9,0h3.8m3.9,0h3.8m3.9,0h3.8m3.9,0h3.8m3.9,0h3.8m3.9,0h3.8m3.9,0h3.8m3.9,0H768m3.9,0h3.8m3.9,0h3.8m3.9,0h3.9m3.8,0h3.9m3.8,0h3.9m3.8,0h3.9m3.8,0H822m3.8,0h3.9m3.8,0h3.9m3.8,0h3.9m3.8,0h3.9m3.8,0h3.9" class="g1_1" />
<path d="M717,905.5H578c-3.3,0,-6,2.7,-6,6.1v12.8c0,3.4,2.7,6.1,6,6.1H717c3.4,0,6.1,-2.7,6.1,-6.1V911.6c0,-3.4,-2.7,-6.1,-6.1,-6.1ZM792.2,905.5H735.7c-3.4,0,-6.1,2.7,-6.1,6.1v12.8c0,3.4,2.7,6.1,6.1,6.1h56.5c3.3,0,6.1,-2.7,6.1,-6.1V911.6c0,-3.4,-2.8,-6.1,-6.1,-6.1ZM759.5,932.6H578c-3.3,0,-6,2.8,-6,6.1v12.9c0,3.3,2.7,6.1,6,6.1H759.5c3.4,0,6.1,-2.8,6.1,-6.1V938.7c0,-3.3,-2.7,-6.1,-6.1,-6.1ZM758.6,959.8H578c-3.3,0,-6,2.7,-6,6.1v12.8c0,3.4,2.7,6.1,6,6.1H758.6c3.4,0,6.1,-2.7,6.1,-6.1V965.9c0,-3.4,-2.7,-6.1,-6.1,-6.1ZM838.8,959.8H777.3c-3.4,0,-6.1,2.7,-6.1,6.1v12.8c0,3.4,2.7,6.1,6.1,6.1h61.5c3.3,0,6.1,-2.7,6.1,-6.1V965.9c0,-3.4,-2.8,-6.1,-6.1,-6.1ZM645.4,987H578c-3.3,0,-6,2.7,-6,6v12.9c0,3.4,2.7,6.1,6,6.1h67.4c3.3,0,6.1,-2.7,6.1,-6.1V993c0,-3.3,-2.8,-6,-6.1,-6ZM779.9,987H664c-3.3,0,-6,2.7,-6,6v12.9c0,3.4,2.7,6.1,6,6.1H779.9c3.4,0,6.1,-2.7,6.1,-6.1V993c0,-3.3,-2.7,-6,-6.1,-6ZM848.3,987H798.6c-3.4,0,-6.1,2.7,-6.1,6v12.9c0,3.4,2.7,6.1,6.1,6.1h49.7c3.3,0,6,-2.7,6,-6.1V993c0,-3.3,-2.7,-6,-6,-6Z" class="g2_1" />
<path d="M571.7,1022.1h3.8m3.9,0h3.8m3.9,0h3.8m3.9,0h3.8m3.9,0h3.8m3.9,0H614m3.9,0h3.8m3.9,0h3.8m3.9,0h3.8m3.9,0h3.8m3.9,0h3.8m3.9,0h3.8m3.9,0h3.8m3.9,0h3.8m3.9,0h3.8m3.9,0H691m3.9,0h3.8m3.9,0h3.8m3.9,0h3.8m3.9,0h3.8m3.9,0h3.8m3.9,0h3.8m3.9,0h3.8m3.9,0h3.8m3.9,0h3.8m3.9,0H768m3.9,0h3.8m3.9,0h3.8m3.9,0h3.9m3.8,0h3.9m3.8,0h3.9m3.8,0h3.9m3.8,0H822m3.8,0h3.9m3.8,0h3.9m3.8,0h3.9m3.8,0h3.9m3.8,0h3.9" class="g1_1" />
<path d="M706.7,1032.6H578c-3.3,0,-6,2.7,-6,6.1v12.9c0,3.3,2.7,6.1,6,6.1H706.7c3.3,0,6.1,-2.8,6.1,-6.1v-12.9c0,-3.4,-2.8,-6.1,-6.1,-6.1ZM778.7,1032.6H722.4c-3.4,0,-6.1,2.7,-6.1,6.1v12.9c0,3.3,2.7,6.1,6.1,6.1h56.3c3.3,0,6.1,-2.8,6.1,-6.1v-12.9c0,-3.4,-2.8,-6.1,-6.1,-6.1ZM832.8,1032.6H797.3c-3.3,0,-6.1,2.7,-6.1,6.1v12.9c0,3.3,2.8,6.1,6.1,6.1h35.5c3.3,0,6.1,-2.8,6.1,-6.1v-12.9c0,-3.4,-2.8,-6.1,-6.1,-6.1Z" class="g2_1" />
<path d="M571.7,1067.8h3.8m3.9,0h3.8m3.9,0h3.8m3.9,0h3.8m3.9,0h3.8m3.9,0H614m3.9,0h3.8m3.9,0h3.8m3.9,0h3.8m3.9,0h3.8m3.9,0h3.8m3.9,0h3.8m3.9,0h3.8m3.9,0h3.8m3.9,0h3.8m3.9,0H691m3.9,0h3.8m3.9,0h3.8m3.9,0h3.8m3.9,0h3.8m3.9,0h3.8m3.9,0h3.8m3.9,0h3.8m3.9,0h3.8m3.9,0h3.8m3.9,0H768m3.9,0h3.8m3.9,0h3.8m3.9,0h3.9m3.8,0h3.9m3.8,0h3.9m3.8,0h3.9m3.8,0H822m3.8,0h3.9m3.8,0h3.9m3.8,0h3.9m3.8,0h3.9m3.8,0h3.9" class="g1_1" />
<path d="M669.5,1078.3H578c-3.3,0,-6,2.7,-6,6.1v12.8c0,3.4,2.7,6.1,6,6.1h91.5c3.4,0,6.1,-2.7,6.1,-6.1v-12.8c0,-3.4,-2.7,-6.1,-6.1,-6.1ZM754.4,1078.3H688.2c-3.4,0,-6.1,2.7,-6.1,6.1v12.8c0,3.4,2.7,6.1,6.1,6.1h66.2c3.3,0,6.1,-2.7,6.1,-6.1v-12.8c0,-3.4,-2.8,-6.1,-6.1,-6.1Z" class="g2_1" />
<path d="M571.7,1113.4h3.8m3.9,0h3.8m3.9,0h3.8m3.9,0h3.8m3.9,0h3.8m3.9,0H614m3.9,0h3.8m3.9,0h3.8m3.9,0h3.8m3.9,0h3.8m3.9,0h3.8m3.9,0h3.8m3.9,0h3.8m3.9,0h3.8m3.9,0h3.8m3.9,0H691m3.9,0h3.8m3.9,0h3.8m3.9,0h3.8m3.9,0h3.8m3.9,0h3.8m3.9,0h3.8m3.9,0h3.8m3.9,0h3.8m3.9,0h3.8m3.9,0H768m3.9,0h3.8m3.9,0h3.8m3.9,0h3.9m3.8,0h3.9m3.8,0h3.9m3.8,0h3.9m3.8,0H822m3.8,0h3.9m3.8,0h3.9m3.8,0h3.9m3.8,0h3.9m3.8,0h3.9" class="g1_1" />
<path d="M632.1,1123.9H578c-3.3,0,-6,2.8,-6,6.1v12.9c0,3.3,2.7,6.1,6,6.1h54.1c3.3,0,6.1,-2.8,6.1,-6.1V1130c0,-3.3,-2.8,-6.1,-6.1,-6.1ZM792,1123.9H650.7c-3.3,0,-6,2.8,-6,6.1v12.9c0,3.3,2.7,6.1,6,6.1H792c3.4,0,6.1,-2.8,6.1,-6.1V1130c0,-3.3,-2.7,-6.1,-6.1,-6.1ZM678.3,1151.1H578c-3.3,0,-6,2.7,-6,6.1V1170c0,3.4,2.7,6.1,6,6.1H678.3c3.4,0,6.1,-2.7,6.1,-6.1v-12.8c0,-3.4,-2.7,-6.1,-6.1,-6.1ZM720.9,1151.1h-24c-3.3,0,-6,2.7,-6,6.1V1170c0,3.4,2.7,6.1,6,6.1h24c3.4,0,6.1,-2.7,6.1,-6.1v-12.8c0,-3.4,-2.7,-6.1,-6.1,-6.1ZM774.4,1151.1H739.6c-3.4,0,-6.1,2.7,-6.1,6.1V1170c0,3.4,2.7,6.1,6.1,6.1h34.8c3.4,0,6.1,-2.7,6.1,-6.1v-12.8c0,-3.4,-2.7,-6.1,-6.1,-6.1ZM647.3,1178.3H578c-3.3,0,-6,2.7,-6,6.1v12.8c0,3.4,2.7,6.1,6,6.1h69.3c3.4,0,6.1,-2.7,6.1,-6.1v-12.8c0,-3.4,-2.7,-6.1,-6.1,-6.1ZM727,1178.3H666c-3.4,0,-6.1,2.7,-6.1,6.1v12.8c0,3.4,2.7,6.1,6.1,6.1h61c3.4,0,6.1,-2.7,6.1,-6.1v-12.8c0,-3.4,-2.7,-6.1,-6.1,-6.1ZM810.7,1178.3h-65c-3.4,0,-6.1,2.7,-6.1,6.1v12.8c0,3.4,2.7,6.1,6.1,6.1h65c3.4,0,6.1,-2.7,6.1,-6.1v-12.8c0,-3.4,-2.7,-6.1,-6.1,-6.1ZM655.2,1205.4H578c-3.3,0,-6,2.8,-6,6.1v12.9c0,3.3,2.7,6.1,6,6.1h77.2c3.4,0,6.1,-2.8,6.1,-6.1v-12.9c0,-3.3,-2.7,-6.1,-6.1,-6.1ZM750.6,1205.4H673.9c-3.4,0,-6.1,2.8,-6.1,6.1v12.9c0,3.3,2.7,6.1,6.1,6.1h76.7c3.4,0,6.1,-2.8,6.1,-6.1v-12.9c0,-3.3,-2.7,-6.1,-6.1,-6.1Z" class="g2_1" />
<path d="M43.3,204.7H519.7v-3.1H43.3v3.1Z" class="g0_1" />
<path d="M43.3,411.2h3.9m3.8,0h3.9m3.8,0h3.9m3.8,0h3.9m3.8,0H78m3.8,0h3.9m3.8,0h3.9m3.8,0h3.9m3.8,0h3.9m3.8,0h3.9m3.8,0h3.9m3.8,0h3.9m3.8,0h3.9m3.8,0h3.9m3.8,0H155m3.8,0h3.9m3.8,0h3.9m3.8,0h3.9m3.8,0h3.9m3.8,0h3.9m3.8,0h3.9m3.8,0h3.9m3.8,0h3.9m3.8,0h3.9m3.8,0H232m3.8,0h3.9m3.8,0h3.9m3.9,0h3.8m3.9,0h3.8m3.9,0h3.8m3.9,0h3.8m3.9,0h3.8m3.9,0h3.8m3.9,0h3.8m3.9,0H309m3.9,0h3.8m3.9,0h3.8m3.9,0h3.8m3.9,0h3.8m3.9,0h3.8m3.9,0h3.8m3.9,0h3.8m3.9,0h3.8m3.9,0h3.8m3.9,0H386m3.9,0h3.8m3.9,0h3.8m3.9,0h3.8m3.9,0h3.8m3.9,0h3.8m3.9,0h3.8m3.9,0h3.8m3.9,0h3.8m3.9,0h3.8m3.9,0H463m3.9,0h3.8m3.9,0h3.8m3.9,0h3.9m3.8,0h3.9m3.8,0h3.9m3.8,0h3.9M43.3,536h3.9m3.8,0h3.9m3.8,0h3.9m3.8,0h3.9m3.8,0H78m3.8,0h3.9m3.8,0h3.9m3.8,0h3.9m3.8,0h3.9m3.8,0h3.9m3.8,0h3.9m3.8,0h3.9m3.8,0h3.9m3.8,0h3.9m3.8,0H155m3.8,0h3.9m3.8,0h3.9m3.8,0h3.9m3.8,0h3.9m3.8,0h3.9m3.8,0h3.9m3.8,0h3.9m3.8,0h3.9m3.8,0h3.9m3.8,0H232m3.8,0h3.9m3.8,0h3.9m3.9,0h3.8m3.9,0h3.8m3.9,0h3.8m3.9,0h3.8m3.9,0h3.8m3.9,0h3.8m3.9,0h3.8m3.9,0H309m3.9,0h3.8m3.9,0h3.8m3.9,0h3.8m3.9,0h3.8m3.9,0h3.8m3.9,0h3.8m3.9,0h3.8m3.9,0h3.8m3.9,0h3.8m3.9,0H386m3.9,0h3.8m3.9,0h3.8m3.9,0h3.8m3.9,0h3.8m3.9,0h3.8m3.9,0h3.8m3.9,0h3.8m3.9,0h3.8m3.9,0h3.8m3.9,0H463m3.9,0h3.8m3.9,0h3.8m3.9,0h3.9m3.8,0h3.9m3.8,0h3.9m3.8,0h3.9M58,656.3h3.8m3.9,0h3.8m3.9,0h3.8m3.9,0h3.8m3.9,0h3.8m3.9,0h3.8m3.9,0H108m3.9,0h3.8m3.9,0h3.8m3.9,0h3.8m3.9,0h3.8m3.9,0h3.8m3.9,0h3.8m3.9,0h3.8m3.9,0h3.8m3.9,0h3.8m3.9,0H185m3.9,0h3.8m3.9,0h3.8m3.9,0h3.8m3.9,0h3.8m3.9,0h3.8m3.9,0h3.8m3.9,0h3.8m3.9,0h3.8m3.9,0h3.8m3.9,0h3.9m3.8,0h3.9m3.8,0h3.9m3.8,0h3.9m3.8,0h3.9m3.8,0h3.9m3.8,0h3.9m3.8,0H316m3.8,0h3.9m3.8,0h3.9m3.8,0h3.9m3.8,0h3.9m3.8,0h3.9m3.8,0h3.9m3.8,0h3.9m3.8,0h3.9m3.8,0h3.9m3.8,0H393m3.8,0h3.9m3.8,0h3.9m3.8,0h3.9m3.8,0h3.9m3.8,0h3.9m3.8,0h3.9m3.8,0h3.9m3.8,0h3.9m3.8,0h3.9m3.8,0H470m3.8,0h3.9m3.8,0h3.9m3.8,0h3.9m3.8,0h3.9m3.9,0h3.8" class="g1_1" />
<path d="M43.3,720H519.7v-3.1H43.3V720Z" class="g0_1" />
<path d="M43.3,940.2h3.9m3.8,0h3.9m3.8,0h3.9m3.8,0h3.9m3.8,0H78m3.8,0h3.9m3.8,0h3.9m3.8,0h3.9m3.8,0h3.9m3.8,0h3.9m3.8,0h3.9m3.8,0h3.9m3.8,0h3.9m3.8,0h3.9m3.8,0H155m3.8,0h3.9m3.8,0h3.9m3.8,0h3.9m3.8,0h3.9m3.8,0h3.9m3.8,0h3.9m3.8,0h3.9m3.8,0h3.9m3.8,0h3.9m3.8,0H232m3.8,0h3.9m3.8,0h3.9m3.9,0h3.8m3.9,0h3.8m3.9,0h3.8m3.9,0h3.8m3.9,0h3.8m3.9,0h3.8m3.9,0h3.8m3.9,0H309m3.9,0h3.8m3.9,0h3.8m3.9,0h3.8m3.9,0h3.8m3.9,0h3.8m3.9,0h3.8m3.9,0h3.8m3.9,0h3.8m3.9,0h3.8m3.9,0H386m3.9,0h3.8m3.9,0h3.8m3.9,0h3.8m3.9,0h3.8m3.9,0h3.8m3.9,0h3.8m3.9,0h3.8m3.9,0h3.8m3.9,0h3.8m3.9,0H463m3.9,0h3.8m3.9,0h3.8m3.9,0h3.9m3.8,0h3.9m3.8,0h3.9m3.8,0h3.9" class="g1_1" />
</svg>