<?xml version="1.0" encoding="UTF-8" standalone="no"?>
<!DOCTYPE svg PUBLIC "-//W3C//DTD SVG 1.1//EN"
"http://www.w3.org/Graphics/SVG/1.1/DTD/svg11.dtd">
<svg viewBox="0 0 909 1286" version="1.1" xmlns="http://www.w3.org/2000/svg" xmlns:xlink="http://www.w3.org/1999/xlink">
<defs>
<style type="text/css"><![CDATA[
.g0_1{
fill: #0077AB;
}
.g1_1{
fill: none;
stroke: #D1D1D1;
stroke-width: 0.9136112;
stroke-linecap: butt;
stroke-linejoin: miter;
}
.g2_1{
fill: none;
stroke: #D1D1D1;
stroke-width: 0.6088194;
stroke-linecap: butt;
stroke-linejoin: miter;
}
]]></style>
</defs>
<path d="M571.7,194.7H866.1v-3.1H571.7v3.1Z" class="g0_1" />
<path d="M571.7,384.4H866.1v-3H571.7v3Z" class="g0_1" />
<path d="M571.7,456.4h3.8m3.9,0h3.8m3.9,0h3.8m3.9,0h3.8m3.9,0h3.8m3.9,0H614m3.9,0h3.8m3.9,0h3.8m3.9,0h3.8m3.9,0h3.8m3.9,0h3.8m3.9,0h3.8m3.9,0h3.8m3.9,0h3.8m3.9,0h3.8m3.9,0H691m3.9,0h3.8m3.9,0h3.8m3.9,0h3.8m3.9,0h3.8m3.9,0h3.8m3.9,0h3.8m3.9,0h3.8m3.9,0h3.8m3.9,0h3.8m3.9,0H768m3.9,0h3.8m3.9,0h3.8m3.9,0h3.9m3.8,0h3.9m3.8,0h3.9m3.8,0h3.9m3.8,0H822m3.8,0h3.9m3.8,0h3.9m3.8,0h3.9m3.8,0h3.9m3.8,0h3.9M571.7,547.1h3.8m3.9,0h3.8m3.9,0h3.8m3.9,0h3.8m3.9,0h3.8m3.9,0H614m3.9,0h3.8m3.9,0h3.8m3.9,0h3.8m3.9,0h3.8m3.9,0h3.8m3.9,0h3.8m3.9,0h3.8m3.9,0h3.8m3.9,0h3.8m3.9,0H691m3.9,0h3.8m3.9,0h3.8m3.9,0h3.8m3.9,0h3.8m3.9,0h3.8m3.9,0h3.8m3.9,0h3.8m3.9,0h3.8m3.9,0h3.8m3.9,0H768m3.9,0h3.8m3.9,0h3.8m3.9,0h3.9m3.8,0h3.9m3.8,0h3.9m3.8,0h3.9m3.8,0H822m3.8,0h3.9m3.8,0h3.9m3.8,0h3.9m3.8,0h3.9m3.8,0h3.9" class="g1_1" />
<path d="M571.7,685.4H866.1v-3H571.7v3Z" class="g0_1" />
<path d="M671.6,695.5H578c-3.3,0,-6,2.7,-6,6.1v12.9c0,3.3,2.7,6,6,6h93.6c3.4,0,6.1,-2.7,6.1,-6V701.6c0,-3.4,-2.7,-6.1,-6.1,-6.1ZM741.7,695.5H690.3c-3.4,0,-6.1,2.7,-6.1,6.1v12.9c0,3.3,2.7,6,6.1,6h51.4c3.3,0,6.1,-2.7,6.1,-6V701.6c0,-3.4,-2.8,-6.1,-6.1,-6.1ZM793.3,695.5h-33c-3.3,0,-6,2.7,-6,6.1v12.9c0,3.3,2.7,6,6,6h33c3.4,0,6.1,-2.7,6.1,-6V701.6c0,-3.4,-2.7,-6.1,-6.1,-6.1ZM859,695.5H812c-3.4,0,-6.1,2.7,-6.1,6.1v12.9c0,3.3,2.7,6,6.1,6h47c3.4,0,6.1,-2.7,6.1,-6V701.6c0,-3.4,-2.7,-6.1,-6.1,-6.1ZM591.1,722.7H578c-3.3,0,-6,2.7,-6,6.1v12.8c0,3.4,2.7,6.1,6,6.1h13.1c3.3,0,6.1,-2.7,6.1,-6.1V728.8c0,-3.4,-2.8,-6.1,-6.1,-6.1ZM660.5,722.7H609.7c-3.3,0,-6.1,2.7,-6.1,6.1v12.8c0,3.4,2.8,6.1,6.1,6.1h50.8c3.3,0,6.1,-2.7,6.1,-6.1V728.8c0,-3.4,-2.8,-6.1,-6.1,-6.1ZM710.4,722.7H679.1c-3.3,0,-6,2.7,-6,6.1v12.8c0,3.4,2.7,6.1,6,6.1h31.3c3.4,0,6.1,-2.7,6.1,-6.1V728.8c0,-3.4,-2.7,-6.1,-6.1,-6.1ZM761,722.7H726.1c-3.3,0,-6.1,2.7,-6.1,6.1v12.8c0,3.4,2.8,6.1,6.1,6.1H761c3.3,0,6.1,-2.7,6.1,-6.1V728.8c0,-3.4,-2.8,-6.1,-6.1,-6.1ZM822.2,722.7H776.7c-3.4,0,-6.1,2.7,-6.1,6.1v12.8c0,3.4,2.7,6.1,6.1,6.1h45.5c3.4,0,6.1,-2.7,6.1,-6.1V728.8c0,-3.4,-2.7,-6.1,-6.1,-6.1ZM621.8,749.8H578c-3.3,0,-6,2.8,-6,6.1v12.9c0,3.3,2.7,6.1,6,6.1h43.8c3.4,0,6.1,-2.8,6.1,-6.1V755.9c0,-3.3,-2.7,-6.1,-6.1,-6.1ZM695.8,749.8H640.5c-3.4,0,-6.1,2.8,-6.1,6.1v12.9c0,3.3,2.7,6.1,6.1,6.1h55.3c3.4,0,6.1,-2.8,6.1,-6.1V755.9c0,-3.3,-2.7,-6.1,-6.1,-6.1ZM776.5,795.5H578c-3.3,0,-6,2.7,-6,6.1v12.8c0,3.4,2.7,6.1,6,6.1H776.5c3.4,0,6.1,-2.7,6.1,-6.1V801.6c0,-3.4,-2.7,-6.1,-6.1,-6.1ZM856.8,795.5H795.2c-3.4,0,-6.1,2.7,-6.1,6.1v12.8c0,3.4,2.7,6.1,6.1,6.1h61.6c3.4,0,6.1,-2.7,6.1,-6.1V801.6c0,-3.4,-2.7,-6.1,-6.1,-6.1ZM679.6,822.7H578c-3.3,0,-6,2.7,-6,6.1v12.8c0,3.4,2.7,6.1,6,6.1H679.6c3.4,0,6.1,-2.7,6.1,-6.1V828.8c0,-3.4,-2.7,-6.1,-6.1,-6.1ZM831.9,822.7H698.3c-3.4,0,-6.1,2.7,-6.1,6.1v12.8c0,3.4,2.7,6.1,6.1,6.1H831.9c3.3,0,6.1,-2.7,6.1,-6.1V828.8c0,-3.4,-2.8,-6.1,-6.1,-6.1ZM661.4,849.8H578c-3.3,0,-6,2.8,-6,6.1v12.9c0,3.3,2.7,6.1,6,6.1h83.4c3.3,0,6.1,-2.8,6.1,-6.1V855.9c0,-3.3,-2.8,-6.1,-6.1,-6.1ZM805.6,849.8H680c-3.3,0,-6,2.8,-6,6.1v12.9c0,3.3,2.7,6.1,6,6.1H805.6c3.4,0,6.1,-2.8,6.1,-6.1V855.9c0,-3.3,-2.7,-6.1,-6.1,-6.1Z" class="g2_1" />
<path d="M571.7,885h3.8m3.9,0h3.8m3.9,0h3.8m3.9,0h3.8m3.9,0h3.8m3.9,0H614m3.9,0h3.8m3.9,0h3.8m3.9,0h3.8m3.9,0h3.8m3.9,0h3.8m3.9,0h3.8m3.9,0h3.8m3.9,0h3.8m3.9,0h3.8m3.9,0H691m3.9,0h3.8m3.9,0h3.8m3.9,0h3.8m3.9,0h3.8m3.9,0h3.8m3.9,0h3.8m3.9,0h3.8m3.9,0h3.8m3.9,0h3.8m3.9,0H768m3.9,0h3.8m3.9,0h3.8m3.9,0h3.9m3.8,0h3.9m3.8,0h3.9m3.8,0h3.9m3.8,0H822m3.8,0h3.9m3.8,0h3.9m3.8,0h3.9m3.8,0h3.9m3.8,0h3.9" class="g1_1" />
<path d="M717,895.5H578c-3.3,0,-6,2.7,-6,6.1v12.8c0,3.4,2.7,6.1,6,6.1H717c3.4,0,6.1,-2.7,6.1,-6.1V901.6c0,-3.4,-2.7,-6.1,-6.1,-6.1ZM792.2,895.5H735.7c-3.4,0,-6.1,2.7,-6.1,6.1v12.8c0,3.4,2.7,6.1,6.1,6.1h56.5c3.3,0,6.1,-2.7,6.1,-6.1V901.6c0,-3.4,-2.8,-6.1,-6.1,-6.1ZM759.5,922.6H578c-3.3,0,-6,2.8,-6,6.1v12.9c0,3.4,2.7,6.1,6,6.1H759.5c3.4,0,6.1,-2.7,6.1,-6.1V928.7c0,-3.3,-2.7,-6.1,-6.1,-6.1ZM758.6,949.8H578c-3.3,0,-6,2.7,-6,6.1v12.9c0,3.3,2.7,6,6,6H758.6c3.4,0,6.1,-2.7,6.1,-6V955.9c0,-3.4,-2.7,-6.1,-6.1,-6.1ZM838.8,949.8H777.3c-3.4,0,-6.1,2.7,-6.1,6.1v12.9c0,3.3,2.7,6,6.1,6h61.5c3.3,0,6.1,-2.7,6.1,-6V955.9c0,-3.4,-2.8,-6.1,-6.1,-6.1ZM645.4,977H578c-3.3,0,-6,2.7,-6,6.1v12.8c0,3.4,2.7,6.1,6,6.1h67.4c3.3,0,6.1,-2.7,6.1,-6.1V983.1c0,-3.4,-2.8,-6.1,-6.1,-6.1ZM779.9,977H664c-3.3,0,-6,2.7,-6,6.1v12.8c0,3.4,2.7,6.1,6,6.1H779.9c3.4,0,6.1,-2.7,6.1,-6.1V983.1c0,-3.4,-2.7,-6.1,-6.1,-6.1ZM848.3,977H798.6c-3.4,0,-6.1,2.7,-6.1,6.1v12.8c0,3.4,2.7,6.1,6.1,6.1h49.7c3.3,0,6,-2.7,6,-6.1V983.1c0,-3.4,-2.7,-6.1,-6,-6.1Z" class="g2_1" />
<path d="M571.7,1012.1h3.8m3.9,0h3.8m3.9,0h3.8m3.9,0h3.8m3.9,0h3.8m3.9,0H614m3.9,0h3.8m3.9,0h3.8m3.9,0h3.8m3.9,0h3.8m3.9,0h3.8m3.9,0h3.8m3.9,0h3.8m3.9,0h3.8m3.9,0h3.8m3.9,0H691m3.9,0h3.8m3.9,0h3.8m3.9,0h3.8m3.9,0h3.8m3.9,0h3.8m3.9,0h3.8m3.9,0h3.8m3.9,0h3.8m3.9,0h3.8m3.9,0H768m3.9,0h3.8m3.9,0h3.8m3.9,0h3.9m3.8,0h3.9m3.8,0h3.9m3.8,0h3.9m3.8,0H822m3.8,0h3.9m3.8,0h3.9m3.8,0h3.9m3.8,0h3.9m3.8,0h3.9" class="g1_1" />
<path d="M706.7,1022.6H578c-3.3,0,-6,2.8,-6,6.1v12.9c0,3.3,2.7,6.1,6,6.1H706.7c3.3,0,6.1,-2.8,6.1,-6.1v-12.9c0,-3.3,-2.8,-6.1,-6.1,-6.1ZM778.7,1022.6H722.4c-3.4,0,-6.1,2.8,-6.1,6.1v12.9c0,3.3,2.7,6.1,6.1,6.1h56.3c3.3,0,6.1,-2.8,6.1,-6.1v-12.9c0,-3.3,-2.8,-6.1,-6.1,-6.1ZM832.8,1022.6H797.3c-3.3,0,-6.1,2.8,-6.1,6.1v12.9c0,3.3,2.8,6.1,6.1,6.1h35.5c3.3,0,6.1,-2.8,6.1,-6.1v-12.9c0,-3.3,-2.8,-6.1,-6.1,-6.1Z" class="g2_1" />
<path d="M571.7,1057.8h3.8m3.9,0h3.8m3.9,0h3.8m3.9,0h3.8m3.9,0h3.8m3.9,0H614m3.9,0h3.8m3.9,0h3.8m3.9,0h3.8m3.9,0h3.8m3.9,0h3.8m3.9,0h3.8m3.9,0h3.8m3.9,0h3.8m3.9,0h3.8m3.9,0H691m3.9,0h3.8m3.9,0h3.8m3.9,0h3.8m3.9,0h3.8m3.9,0h3.8m3.9,0h3.8m3.9,0h3.8m3.9,0h3.8m3.9,0h3.8m3.9,0H768m3.9,0h3.8m3.9,0h3.8m3.9,0h3.9m3.8,0h3.9m3.8,0h3.9m3.8,0h3.9m3.8,0H822m3.8,0h3.9m3.8,0h3.9m3.8,0h3.9m3.8,0h3.9m3.8,0h3.9" class="g1_1" />
<path d="M669.5,1068.3H578c-3.3,0,-6,2.7,-6,6.1v12.8c0,3.4,2.7,6.1,6,6.1h91.5c3.4,0,6.1,-2.7,6.1,-6.1v-12.8c0,-3.4,-2.7,-6.1,-6.1,-6.1ZM754.4,1068.3H688.2c-3.4,0,-6.1,2.7,-6.1,6.1v12.8c0,3.4,2.7,6.1,6.1,6.1h66.2c3.3,0,6.1,-2.7,6.1,-6.1v-12.8c0,-3.4,-2.8,-6.1,-6.1,-6.1Z" class="g2_1" />
<path d="M571.7,1103.4h3.8m3.9,0h3.8m3.9,0h3.8m3.9,0h3.8m3.9,0h3.8m3.9,0H614m3.9,0h3.8m3.9,0h3.8m3.9,0h3.8m3.9,0h3.8m3.9,0h3.8m3.9,0h3.8m3.9,0h3.8m3.9,0h3.8m3.9,0h3.8m3.9,0H691m3.9,0h3.8m3.9,0h3.8m3.9,0h3.8m3.9,0h3.8m3.9,0h3.8m3.9,0h3.8m3.9,0h3.8m3.9,0h3.8m3.9,0h3.8m3.9,0H768m3.9,0h3.8m3.9,0h3.8m3.9,0h3.9m3.8,0h3.9m3.8,0h3.9m3.8,0h3.9m3.8,0H822m3.8,0h3.9m3.8,0h3.9m3.8,0h3.9m3.8,0h3.9m3.8,0h3.9" class="g1_1" />
<path d="M632.1,1114H578c-3.3,0,-6,2.7,-6,6v12.9c0,3.4,2.7,6.1,6,6.1h54.1c3.3,0,6.1,-2.7,6.1,-6.1V1120c0,-3.3,-2.8,-6,-6.1,-6ZM792,1114H650.7c-3.3,0,-6,2.7,-6,6v12.9c0,3.4,2.7,6.1,6,6.1H792c3.4,0,6.1,-2.7,6.1,-6.1V1120c0,-3.3,-2.7,-6,-6.1,-6ZM678.3,1141.1H578c-3.3,0,-6,2.7,-6,6.1v12.9c0,3.3,2.7,6,6,6H678.3c3.4,0,6.1,-2.7,6.1,-6v-12.9c0,-3.4,-2.7,-6.1,-6.1,-6.1ZM720.9,1141.1h-24c-3.3,0,-6,2.7,-6,6.1v12.9c0,3.3,2.7,6,6,6h24c3.4,0,6.1,-2.7,6.1,-6v-12.9c0,-3.4,-2.7,-6.1,-6.1,-6.1ZM774.4,1141.1H739.6c-3.4,0,-6.1,2.7,-6.1,6.1v12.9c0,3.3,2.7,6,6.1,6h34.8c3.4,0,6.1,-2.7,6.1,-6v-12.9c0,-3.4,-2.7,-6.1,-6.1,-6.1ZM647.3,1168.3H578c-3.3,0,-6,2.7,-6,6.1v12.8c0,3.4,2.7,6.1,6,6.1h69.3c3.4,0,6.1,-2.7,6.1,-6.1v-12.8c0,-3.4,-2.7,-6.1,-6.1,-6.1ZM727,1168.3H666c-3.4,0,-6.1,2.7,-6.1,6.1v12.8c0,3.4,2.7,6.1,6.1,6.1h61c3.4,0,6.1,-2.7,6.1,-6.1v-12.8c0,-3.4,-2.7,-6.1,-6.1,-6.1ZM810.7,1168.3h-65c-3.4,0,-6.1,2.7,-6.1,6.1v12.8c0,3.4,2.7,6.1,6.1,6.1h65c3.4,0,6.1,-2.7,6.1,-6.1v-12.8c0,-3.4,-2.7,-6.1,-6.1,-6.1ZM655.2,1195.4H578c-3.3,0,-6,2.8,-6,6.1v12.9c0,3.3,2.7,6.1,6,6.1h77.2c3.4,0,6.1,-2.8,6.1,-6.1v-12.9c0,-3.3,-2.7,-6.1,-6.1,-6.1ZM750.6,1195.4H673.9c-3.4,0,-6.1,2.8,-6.1,6.1v12.9c0,3.3,2.7,6.1,6.1,6.1h76.7c3.4,0,6.1,-2.8,6.1,-6.1v-12.9c0,-3.3,-2.7,-6.1,-6.1,-6.1Z" class="g2_1" />
<path d="M43.3,194.7H519.7v-3.1H43.3v3.1Z" class="g0_1" />
<path d="M43.3,497.1h3.9m3.8,0h3.9m3.8,0h3.9m3.8,0h3.9m3.8,0H78m3.8,0h3.9m3.8,0h3.9m3.8,0h3.9m3.8,0h3.9m3.8,0h3.9m3.8,0h3.9m3.8,0h3.9m3.8,0h3.9m3.8,0h3.9m3.8,0H155m3.8,0h3.9m3.8,0h3.9m3.8,0h3.9m3.8,0h3.9m3.8,0h3.9m3.8,0h3.9m3.8,0h3.9m3.8,0h3.9m3.8,0h3.9m3.8,0H232m3.8,0h3.9m3.8,0h3.9m3.9,0h3.8m3.9,0h3.8m3.9,0h3.8m3.9,0h3.8m3.9,0h3.8m3.9,0h3.8m3.9,0h3.8m3.9,0H309m3.9,0h3.8m3.9,0h3.8m3.9,0h3.8m3.9,0h3.8m3.9,0h3.8m3.9,0h3.8m3.9,0h3.8m3.9,0h3.8m3.9,0h3.8m3.9,0H386m3.9,0h3.8m3.9,0h3.8m3.9,0h3.8m3.9,0h3.8m3.9,0h3.8m3.9,0h3.8m3.9,0h3.8m3.9,0h3.8m3.9,0h3.8m3.9,0H463m3.9,0h3.8m3.9,0h3.8m3.9,0h3.9m3.8,0h3.9m3.8,0h3.9m3.8,0h3.9M43.3,784.8h3.9m3.8,0h3.9m3.8,0h3.9m3.8,0h3.9m3.8,0H78m3.8,0h3.9m3.8,0h3.9m3.8,0h3.9m3.8,0h3.9m3.8,0h3.9m3.8,0h3.9m3.8,0h3.9m3.8,0h3.9m3.8,0h3.9m3.8,0H155m3.8,0h3.9m3.8,0h3.9m3.8,0h3.9m3.8,0h3.9m3.8,0h3.9m3.8,0h3.9m3.8,0h3.9m3.8,0h3.9m3.8,0h3.9m3.8,0H232m3.8,0h3.9m3.8,0h3.9m3.9,0h3.8m3.9,0h3.8m3.9,0h3.8m3.9,0h3.8m3.9,0h3.8m3.9,0h3.8m3.9,0h3.8m3.9,0H309m3.9,0h3.8m3.9,0h3.8m3.9,0h3.8m3.9,0h3.8m3.9,0h3.8m3.9,0h3.8m3.9,0h3.8m3.9,0h3.8m3.9,0h3.8m3.9,0H386m3.9,0h3.8m3.9,0h3.8m3.9,0h3.8m3.9,0h3.8m3.9,0h3.8m3.9,0h3.8m3.9,0h3.8m3.9,0h3.8m3.9,0h3.8m3.9,0H463m3.9,0h3.8m3.9,0h3.8m3.9,0h3.9m3.8,0h3.9m3.8,0h3.9m3.8,0h3.9" class="g1_1" />
</svg>