<?xml version="1.0" encoding="UTF-8" standalone="no"?>
<!DOCTYPE svg PUBLIC "-//W3C//DTD SVG 1.1//EN"
"http://www.w3.org/Graphics/SVG/1.1/DTD/svg11.dtd">
<svg viewBox="0 0 909 1286" version="1.1" xmlns="http://www.w3.org/2000/svg" xmlns:xlink="http://www.w3.org/1999/xlink">
<defs>
<style type="text/css"><![CDATA[
.g0_1{
fill: #0077AB;
}
.g1_1{
fill: none;
stroke: #D1D1D1;
stroke-width: 0.913;
stroke-linecap: butt;
stroke-linejoin: miter;
}
.g2_1{
fill: none;
stroke: #D1D1D1;
stroke-width: 0.608;
stroke-linecap: butt;
stroke-linejoin: miter;
}
]]></style>
</defs>
<path d="M571.7,194.7H866.1v-3.1H571.7v3.1Z" class="g0_1"/>
<path d="M571.7,445.5H866.1v-3.1H571.7v3.1Z" class="g0_1"/>
<path d="M571.7,517.5h3.8m3.9,0h3.8m3.9,0h3.8m3.9,0h3.8m3.9,0h3.8m3.9,0H614m3.9,0h3.8m3.9,0h3.8m3.9,0h3.8m3.9,0h3.8m3.9,0h3.8m3.9,0h3.8m3.9,0h3.8m3.9,0h3.8m3.9,0h3.8m3.9,0H691m3.9,0h3.8m3.9,0h3.8m3.9,0h3.8m3.9,0h3.8m3.9,0h3.8m3.9,0h3.8m3.9,0h3.8m3.9,0h3.8m3.9,0h3.8m3.9,0H768m3.9,0h3.8m3.9,0h3.8m3.9,0h3.9m3.8,0h3.9m3.8,0h3.9m3.8,0h3.9m3.8,0H822m3.8,0h3.9m3.8,0h3.9m3.8,0h3.9m3.8,0h3.9m3.8,0h3.9M571.7,608.2h3.8m3.9,0h3.8m3.9,0h3.8m3.9,0h3.8m3.9,0h3.8m3.9,0H614m3.9,0h3.8m3.9,0h3.8m3.9,0h3.8m3.9,0h3.8m3.9,0h3.8m3.9,0h3.8m3.9,0h3.8m3.9,0h3.8m3.9,0h3.8m3.9,0H691m3.9,0h3.8m3.9,0h3.8m3.9,0h3.8m3.9,0h3.8m3.9,0h3.8m3.9,0h3.8m3.9,0h3.8m3.9,0h3.8m3.9,0h3.8m3.9,0H768m3.9,0h3.8m3.9,0h3.8m3.9,0h3.9m3.8,0h3.9m3.8,0h3.9m3.8,0h3.9m3.8,0H822m3.8,0h3.9m3.8,0h3.9m3.8,0h3.9m3.8,0h3.9m3.8,0h3.9" class="g1_1"/>
<path d="M571.7,746.5H866.1v-3.1H571.7v3.1Z" class="g0_1"/>
<path d="M571.7,864.7h3.8m3.9,0h3.8m3.9,0h3.8m3.9,0h3.8m3.9,0h3.8m3.9,0H614m3.9,0h3.8m3.9,0h3.8m3.9,0h3.8m3.9,0h3.8m3.9,0h3.8m3.9,0h3.8m3.9,0h3.8m3.9,0h3.8m3.9,0h3.8m3.9,0H691m3.9,0h3.8m3.9,0h3.8m3.9,0h3.8m3.9,0h3.8m3.9,0h3.8m3.9,0h3.8m3.9,0h3.8m3.9,0h3.8m3.9,0h3.8m3.9,0H768m3.9,0h3.8m3.9,0h3.8m3.9,0h3.9m3.8,0h3.9m3.8,0h3.9m3.8,0h3.9m3.8,0H822m3.8,0h3.9m3.8,0h3.9m3.8,0h3.9m3.8,0h3.9m3.8,0h3.9" class="g1_1"/>
<path d="M634.3,875.3H578c-3.3,0,-6,2.7,-6,6.1v12.8c0,3.4,2.7,6.1,6,6.1h56.3c3.4,0,6.1,-2.7,6.1,-6.1V881.4c0,-3.4,-2.7,-6.1,-6.1,-6.1ZM688.4,875.3H653c-3.4,0,-6.1,2.7,-6.1,6.1v12.8c0,3.4,2.7,6.1,6.1,6.1h35.4c3.4,0,6.1,-2.7,6.1,-6.1V881.4c0,-3.4,-2.7,-6.1,-6.1,-6.1ZM783.9,875.3H707.1c-3.4,0,-6.1,2.7,-6.1,6.1v12.8c0,3.4,2.7,6.1,6.1,6.1h76.8c3.3,0,6,-2.7,6,-6.1V881.4c0,-3.4,-2.7,-6.1,-6,-6.1ZM672.5,902.4H578c-3.3,0,-6,2.8,-6,6.1v12.9c0,3.3,2.7,6.1,6,6.1h94.5c3.4,0,6.1,-2.8,6.1,-6.1V908.5c0,-3.3,-2.7,-6.1,-6.1,-6.1ZM743.1,902.4H691.2c-3.4,0,-6.1,2.8,-6.1,6.1v12.9c0,3.3,2.7,6.1,6.1,6.1h51.9c3.3,0,6.1,-2.8,6.1,-6.1V908.5c0,-3.3,-2.8,-6.1,-6.1,-6.1ZM697,929.6H578c-3.3,0,-6,2.7,-6,6.1v12.8c0,3.4,2.7,6.1,6,6.1H697c3.3,0,6.1,-2.7,6.1,-6.1V935.7c0,-3.4,-2.8,-6.1,-6.1,-6.1Z" class="g2_1"/>
<path d="M571.7,964.7h3.8m3.9,0h3.8m3.9,0h3.8m3.9,0h3.8m3.9,0h3.8m3.9,0H614m3.9,0h3.8m3.9,0h3.8m3.9,0h3.8m3.9,0h3.8m3.9,0h3.8m3.9,0h3.8m3.9,0h3.8m3.9,0h3.8m3.9,0h3.8m3.9,0H691m3.9,0h3.8m3.9,0h3.8m3.9,0h3.8m3.9,0h3.8m3.9,0h3.8m3.9,0h3.8m3.9,0h3.8m3.9,0h3.8m3.9,0h3.8m3.9,0H768m3.9,0h3.8m3.9,0h3.8m3.9,0h3.9m3.8,0h3.9m3.8,0h3.9m3.8,0h3.9m3.8,0H822m3.8,0h3.9m3.8,0h3.9m3.8,0h3.9m3.8,0h3.9m3.8,0h3.9" class="g1_1"/>
<path d="M669.5,975.3H578c-3.3,0,-6,2.7,-6,6v12.9c0,3.4,2.7,6.1,6,6.1h91.5c3.4,0,6.1,-2.7,6.1,-6.1V981.3c0,-3.3,-2.7,-6,-6.1,-6ZM742.2,975.3h-54c-3.4,0,-6.1,2.7,-6.1,6v12.9c0,3.4,2.7,6.1,6.1,6.1h54c3.4,0,6.1,-2.7,6.1,-6.1V981.3c0,-3.3,-2.7,-6,-6.1,-6ZM784.8,975.3H760.9c-3.4,0,-6.1,2.7,-6.1,6v12.9c0,3.4,2.7,6.1,6.1,6.1h23.9c3.4,0,6.1,-2.7,6.1,-6.1V981.3c0,-3.3,-2.7,-6,-6.1,-6ZM838.3,975.3H803.5c-3.4,0,-6.1,2.7,-6.1,6v12.9c0,3.4,2.7,6.1,6.1,6.1h34.8c3.4,0,6.1,-2.7,6.1,-6.1V981.3c0,-3.3,-2.7,-6,-6.1,-6ZM639.1,1002.4H578c-3.3,0,-6,2.7,-6,6.1v12.9c0,3.3,2.7,6,6,6h61.1c3.4,0,6.1,-2.7,6.1,-6v-12.9c0,-3.4,-2.7,-6.1,-6.1,-6.1ZM722.8,1002.4h-65c-3.4,0,-6.1,2.7,-6.1,6.1v12.9c0,3.3,2.7,6,6.1,6h65c3.3,0,6.1,-2.7,6.1,-6v-12.9c0,-3.4,-2.8,-6.1,-6.1,-6.1ZM777.9,1002.4H741.4c-3.3,0,-6.1,2.7,-6.1,6.1v12.9c0,3.3,2.8,6,6.1,6h36.5c3.4,0,6.1,-2.7,6.1,-6v-12.9c0,-3.4,-2.7,-6.1,-6.1,-6.1ZM655.2,1029.6H578c-3.3,0,-6,2.7,-6,6.1v12.8c0,3.4,2.7,6.1,6,6.1h77.2c3.4,0,6.1,-2.7,6.1,-6.1v-12.8c0,-3.4,-2.7,-6.1,-6.1,-6.1ZM709.7,1029.6H673.9c-3.4,0,-6.1,2.7,-6.1,6.1v12.8c0,3.4,2.7,6.1,6.1,6.1h35.8c3.4,0,6.1,-2.7,6.1,-6.1v-12.8c0,-3.4,-2.7,-6.1,-6.1,-6.1Z" class="g2_1"/>
<path d="M43.3,194.7H519.7v-3.1H43.3v3.1Z" class="g0_1"/>
<path d="M43.3,456h3.9m3.8,0h3.9m3.8,0h3.9m3.8,0h3.9m3.8,0H78m3.8,0h3.9m3.8,0h3.9m3.8,0h3.9m3.8,0h3.9m3.8,0h3.9m3.8,0h3.9m3.8,0h3.9m3.8,0h3.9m3.8,0h3.9m3.8,0H155m3.8,0h3.9m3.8,0h3.9m3.8,0h3.9m3.8,0h3.9m3.8,0h3.9m3.8,0h3.9m3.8,0h3.9m3.8,0h3.9m3.8,0h3.9m3.8,0H232m3.8,0h3.9m3.8,0h3.9m3.9,0h3.8m3.9,0h3.8m3.9,0h3.8m3.9,0h3.8m3.9,0h3.8m3.9,0h3.8m3.9,0h3.8m3.9,0H309m3.9,0h3.8m3.9,0h3.8m3.9,0h3.8m3.9,0h3.8m3.9,0h3.8m3.9,0h3.8m3.9,0h3.8m3.9,0h3.8m3.9,0h3.8m3.9,0H386m3.9,0h3.8m3.9,0h3.8m3.9,0h3.8m3.9,0h3.8m3.9,0h3.8m3.9,0h3.8m3.9,0h3.8m3.9,0h3.8m3.9,0h3.8m3.9,0H463m3.9,0h3.8m3.9,0h3.8m3.9,0h3.9m3.8,0h3.9m3.8,0h3.9m3.8,0h3.9M43.3,658.4h3.9m3.8,0h3.9m3.8,0h3.9m3.8,0h3.9m3.8,0H78m3.8,0h3.9m3.8,0h3.9m3.8,0h3.9m3.8,0h3.9m3.8,0h3.9m3.8,0h3.9m3.8,0h3.9m3.8,0h3.9m3.8,0h3.9m3.8,0H155m3.8,0h3.9m3.8,0h3.9m3.8,0h3.9m3.8,0h3.9m3.8,0h3.9m3.8,0h3.9m3.8,0h3.9m3.8,0h3.9m3.8,0h3.9m3.8,0H232m3.8,0h3.9m3.8,0h3.9m3.9,0h3.8m3.9,0h3.8m3.9,0h3.8m3.9,0h3.8m3.9,0h3.8m3.9,0h3.8m3.9,0h3.8m3.9,0H309m3.9,0h3.8m3.9,0h3.8m3.9,0h3.8m3.9,0h3.8m3.9,0h3.8m3.9,0h3.8m3.9,0h3.8m3.9,0h3.8m3.9,0h3.8m3.9,0H386m3.9,0h3.8m3.9,0h3.8m3.9,0h3.8m3.9,0h3.8m3.9,0h3.8m3.9,0h3.8m3.9,0h3.8m3.9,0h3.8m3.9,0h3.8m3.9,0H463m3.9,0h3.8m3.9,0h3.8m3.9,0h3.9m3.8,0h3.9m3.8,0h3.9m3.8,0h3.9M43.3,920.2h3.9m3.8,0h3.9m3.8,0h3.9m3.8,0h3.9m3.8,0H78m3.8,0h3.9m3.8,0h3.9m3.8,0h3.9m3.8,0h3.9m3.8,0h3.9m3.8,0h3.9m3.8,0h3.9m3.8,0h3.9m3.8,0h3.9m3.8,0H155m3.8,0h3.9m3.8,0h3.9m3.8,0h3.9m3.8,0h3.9m3.8,0h3.9m3.8,0h3.9m3.8,0h3.9m3.8,0h3.9m3.8,0h3.9m3.8,0H232m3.8,0h3.9m3.8,0h3.9m3.9,0h3.8m3.9,0h3.8m3.9,0h3.8m3.9,0h3.8m3.9,0h3.8m3.9,0h3.8m3.9,0h3.8m3.9,0H309m3.9,0h3.8m3.9,0h3.8m3.9,0h3.8m3.9,0h3.8m3.9,0h3.8m3.9,0h3.8m3.9,0h3.8m3.9,0h3.8m3.9,0h3.8m3.9,0H386m3.9,0h3.8m3.9,0h3.8m3.9,0h3.8m3.9,0h3.8m3.9,0h3.8m3.9,0h3.8m3.9,0h3.8m3.9,0h3.8m3.9,0h3.8m3.9,0H463m3.9,0h3.8m3.9,0h3.8m3.9,0h3.9m3.8,0h3.9m3.8,0h3.9m3.8,0h3.9" class="g1_1"/>
</svg>