<?xml version="1.0" encoding="UTF-8" standalone="no"?>
<!DOCTYPE svg PUBLIC "-//W3C//DTD SVG 1.1//EN"
"http://www.w3.org/Graphics/SVG/1.1/DTD/svg11.dtd">
<svg viewBox="0 0 909 1286" version="1.1" xmlns="http://www.w3.org/2000/svg" xmlns:xlink="http://www.w3.org/1999/xlink">
<defs>
<style type="text/css"><![CDATA[
.g0_1{
fill: #0077AB;
}
.g1_1{
fill: none;
stroke: #D1D1D1;
stroke-width: 0.913;
stroke-linecap: butt;
stroke-linejoin: miter;
}
.g2_1{
fill: none;
stroke: #D1D1D1;
stroke-width: 0.608;
stroke-linecap: butt;
stroke-linejoin: miter;
}
]]></style>
</defs>
<path d="M571.7,192.8H866.1v-3H571.7v3Z" class="g0_1"/>
<path d="M571.7,425.2H866.1v-3H571.7v3Z" class="g0_1"/>
<path d="M571.7,497.2h3.8m3.9,0h3.8m3.9,0h3.8m3.9,0h3.8m3.9,0h3.8m3.9,0H614m3.9,0h3.8m3.9,0h3.8m3.9,0h3.8m3.9,0h3.8m3.9,0h3.8m3.9,0h3.8m3.9,0h3.8m3.9,0h3.8m3.9,0h3.8m3.9,0H691m3.9,0h3.8m3.9,0h3.8m3.9,0h3.8m3.9,0h3.8m3.9,0h3.8m3.9,0h3.8m3.9,0h3.8m3.9,0h3.8m3.9,0h3.8m3.9,0H768m3.9,0h3.8m3.9,0h3.8m3.9,0h3.9m3.8,0h3.9m3.8,0h3.9m3.8,0h3.9m3.8,0H822m3.8,0h3.9m3.8,0h3.9m3.8,0h3.9m3.8,0h3.9m3.8,0h3.9M571.7,587.9h3.8m3.9,0h3.8m3.9,0h3.8m3.9,0h3.8m3.9,0h3.8m3.9,0H614m3.9,0h3.8m3.9,0h3.8m3.9,0h3.8m3.9,0h3.8m3.9,0h3.8m3.9,0h3.8m3.9,0h3.8m3.9,0h3.8m3.9,0h3.8m3.9,0H691m3.9,0h3.8m3.9,0h3.8m3.9,0h3.8m3.9,0h3.8m3.9,0h3.8m3.9,0h3.8m3.9,0h3.8m3.9,0h3.8m3.9,0h3.8m3.9,0H768m3.9,0h3.8m3.9,0h3.8m3.9,0h3.9m3.8,0h3.9m3.8,0h3.9m3.8,0h3.9m3.8,0H822m3.8,0h3.9m3.8,0h3.9m3.8,0h3.9m3.8,0h3.9m3.8,0h3.9" class="g1_1"/>
<path d="M571.7,726.2H866.1v-3H571.7v3Z" class="g0_1"/>
<path d="M671.6,736.3H578c-3.3,0,-6,2.7,-6,6.1v12.8c0,3.4,2.7,6.1,6,6.1h93.6c3.4,0,6.1,-2.7,6.1,-6.1V742.4c0,-3.4,-2.7,-6.1,-6.1,-6.1ZM741.7,736.3H690.3c-3.4,0,-6.1,2.7,-6.1,6.1v12.8c0,3.4,2.7,6.1,6.1,6.1h51.4c3.3,0,6.1,-2.7,6.1,-6.1V742.4c0,-3.4,-2.8,-6.1,-6.1,-6.1ZM793.3,736.3h-33c-3.3,0,-6,2.7,-6,6.1v12.8c0,3.4,2.7,6.1,6,6.1h33c3.4,0,6.1,-2.7,6.1,-6.1V742.4c0,-3.4,-2.7,-6.1,-6.1,-6.1ZM859,736.3H812c-3.4,0,-6.1,2.7,-6.1,6.1v12.8c0,3.4,2.7,6.1,6.1,6.1h47c3.4,0,6.1,-2.7,6.1,-6.1V742.4c0,-3.4,-2.7,-6.1,-6.1,-6.1ZM591.1,763.4H578c-3.3,0,-6,2.8,-6,6.1v12.9c0,3.4,2.7,6.1,6,6.1h13.1c3.3,0,6.1,-2.7,6.1,-6.1V769.5c0,-3.3,-2.8,-6.1,-6.1,-6.1ZM660.5,763.4H609.7c-3.3,0,-6.1,2.8,-6.1,6.1v12.9c0,3.4,2.8,6.1,6.1,6.1h50.8c3.3,0,6.1,-2.7,6.1,-6.1V769.5c0,-3.3,-2.8,-6.1,-6.1,-6.1ZM710.4,763.4H679.1c-3.3,0,-6,2.8,-6,6.1v12.9c0,3.4,2.7,6.1,6,6.1h31.3c3.4,0,6.1,-2.7,6.1,-6.1V769.5c0,-3.3,-2.7,-6.1,-6.1,-6.1ZM761,763.4H726.1c-3.3,0,-6.1,2.8,-6.1,6.1v12.9c0,3.4,2.8,6.1,6.1,6.1H761c3.3,0,6.1,-2.7,6.1,-6.1V769.5c0,-3.3,-2.8,-6.1,-6.1,-6.1ZM822.2,763.4H776.7c-3.4,0,-6.1,2.8,-6.1,6.1v12.9c0,3.4,2.7,6.1,6.1,6.1h45.5c3.4,0,6.1,-2.7,6.1,-6.1V769.5c0,-3.3,-2.7,-6.1,-6.1,-6.1ZM621.8,790.6H578c-3.3,0,-6,2.7,-6,6.1v12.9c0,3.3,2.7,6,6,6h43.8c3.4,0,6.1,-2.7,6.1,-6V796.7c0,-3.4,-2.7,-6.1,-6.1,-6.1ZM695.8,790.6H640.5c-3.4,0,-6.1,2.7,-6.1,6.1v12.9c0,3.3,2.7,6,6.1,6h55.3c3.4,0,6.1,-2.7,6.1,-6V796.7c0,-3.4,-2.7,-6.1,-6.1,-6.1ZM776.5,836.3H578c-3.3,0,-6,2.7,-6,6.1v12.8c0,3.4,2.7,6.1,6,6.1H776.5c3.4,0,6.1,-2.7,6.1,-6.1V842.4c0,-3.4,-2.7,-6.1,-6.1,-6.1ZM856.8,836.3H795.2c-3.4,0,-6.1,2.7,-6.1,6.1v12.8c0,3.4,2.7,6.1,6.1,6.1h61.6c3.4,0,6.1,-2.7,6.1,-6.1V842.4c0,-3.4,-2.7,-6.1,-6.1,-6.1ZM679.6,863.4H578c-3.3,0,-6,2.8,-6,6.1v12.9c0,3.3,2.7,6.1,6,6.1H679.6c3.4,0,6.1,-2.8,6.1,-6.1V869.5c0,-3.3,-2.7,-6.1,-6.1,-6.1ZM831.9,863.4H698.3c-3.4,0,-6.1,2.8,-6.1,6.1v12.9c0,3.3,2.7,6.1,6.1,6.1H831.9c3.3,0,6.1,-2.8,6.1,-6.1V869.5c0,-3.3,-2.8,-6.1,-6.1,-6.1ZM700.1,890.6H578c-3.3,0,-6,2.7,-6,6.1v12.8c0,3.4,2.7,6.1,6,6.1H700.1c3.4,0,6.1,-2.7,6.1,-6.1V896.7c0,-3.4,-2.7,-6.1,-6.1,-6.1ZM844.4,890.6H718.8c-3.4,0,-6.1,2.7,-6.1,6.1v12.8c0,3.4,2.7,6.1,6.1,6.1H844.4c3.3,0,6.1,-2.7,6.1,-6.1V896.7c0,-3.4,-2.8,-6.1,-6.1,-6.1Z" class="g2_1"/>
<path d="M571.7,925.7h3.8m3.9,0h3.8m3.9,0h3.8m3.9,0h3.8m3.9,0h3.8m3.9,0H614m3.9,0h3.8m3.9,0h3.8m3.9,0h3.8m3.9,0h3.8m3.9,0h3.8m3.9,0h3.8m3.9,0h3.8m3.9,0h3.8m3.9,0h3.8m3.9,0H691m3.9,0h3.8m3.9,0h3.8m3.9,0h3.8m3.9,0h3.8m3.9,0h3.8m3.9,0h3.8m3.9,0h3.8m3.9,0h3.8m3.9,0h3.8m3.9,0H768m3.9,0h3.8m3.9,0h3.8m3.9,0h3.9m3.8,0h3.9m3.8,0h3.9m3.8,0h3.9m3.8,0H822m3.8,0h3.9m3.8,0h3.9m3.8,0h3.9m3.8,0h3.9m3.8,0h3.9" class="g1_1"/>
<path d="M717,936.3H578c-3.3,0,-6,2.7,-6,6v12.9c0,3.4,2.7,6.1,6,6.1H717c3.4,0,6.1,-2.7,6.1,-6.1V942.3c0,-3.3,-2.7,-6,-6.1,-6ZM792.2,936.3H735.7c-3.4,0,-6.1,2.7,-6.1,6v12.9c0,3.4,2.7,6.1,6.1,6.1h56.5c3.3,0,6.1,-2.7,6.1,-6.1V942.3c0,-3.3,-2.8,-6,-6.1,-6ZM759.5,963.4H578c-3.3,0,-6,2.7,-6,6.1v12.9c0,3.3,2.7,6,6,6H759.5c3.4,0,6.1,-2.7,6.1,-6V969.5c0,-3.4,-2.7,-6.1,-6.1,-6.1ZM758.6,990.6H578c-3.3,0,-6,2.7,-6,6.1v12.8c0,3.4,2.7,6.1,6,6.1H758.6c3.4,0,6.1,-2.7,6.1,-6.1V996.7c0,-3.4,-2.7,-6.1,-6.1,-6.1ZM838.8,990.6H777.3c-3.4,0,-6.1,2.7,-6.1,6.1v12.8c0,3.4,2.7,6.1,6.1,6.1h61.5c3.3,0,6.1,-2.7,6.1,-6.1V996.7c0,-3.4,-2.8,-6.1,-6.1,-6.1ZM645.4,1017.7H578c-3.3,0,-6,2.8,-6,6.1v12.9c0,3.3,2.7,6.1,6,6.1h67.4c3.3,0,6.1,-2.8,6.1,-6.1v-12.9c0,-3.3,-2.8,-6.1,-6.1,-6.1ZM779.9,1017.7H664c-3.3,0,-6,2.8,-6,6.1v12.9c0,3.3,2.7,6.1,6,6.1H779.9c3.4,0,6.1,-2.8,6.1,-6.1v-12.9c0,-3.3,-2.7,-6.1,-6.1,-6.1ZM848.3,1017.7H798.6c-3.4,0,-6.1,2.8,-6.1,6.1v12.9c0,3.3,2.7,6.1,6.1,6.1h49.7c3.3,0,6,-2.8,6,-6.1v-12.9c0,-3.3,-2.7,-6.1,-6,-6.1Z" class="g2_1"/>
<path d="M571.7,1052.9h3.8m3.9,0h3.8m3.9,0h3.8m3.9,0h3.8m3.9,0h3.8m3.9,0H614m3.9,0h3.8m3.9,0h3.8m3.9,0h3.8m3.9,0h3.8m3.9,0h3.8m3.9,0h3.8m3.9,0h3.8m3.9,0h3.8m3.9,0h3.8m3.9,0H691m3.9,0h3.8m3.9,0h3.8m3.9,0h3.8m3.9,0h3.8m3.9,0h3.8m3.9,0h3.8m3.9,0h3.8m3.9,0h3.8m3.9,0h3.8m3.9,0H768m3.9,0h3.8m3.9,0h3.8m3.9,0h3.9m3.8,0h3.9m3.8,0h3.9m3.8,0h3.9m3.8,0H822m3.8,0h3.9m3.8,0h3.9m3.8,0h3.9m3.8,0h3.9m3.8,0h3.9" class="g1_1"/>
<path d="M706.7,1063.4H578c-3.3,0,-6,2.7,-6,6.1v12.8c0,3.4,2.7,6.1,6,6.1H706.7c3.3,0,6.1,-2.7,6.1,-6.1v-12.8c0,-3.4,-2.8,-6.1,-6.1,-6.1ZM778.7,1063.4H722.4c-3.4,0,-6.1,2.7,-6.1,6.1v12.8c0,3.4,2.7,6.1,6.1,6.1h56.3c3.3,0,6.1,-2.7,6.1,-6.1v-12.8c0,-3.4,-2.8,-6.1,-6.1,-6.1ZM832.8,1063.4H797.3c-3.3,0,-6.1,2.7,-6.1,6.1v12.8c0,3.4,2.8,6.1,6.1,6.1h35.5c3.3,0,6.1,-2.7,6.1,-6.1v-12.8c0,-3.4,-2.8,-6.1,-6.1,-6.1Z" class="g2_1"/>
<path d="M571.7,1098.5h3.8m3.9,0h3.8m3.9,0h3.8m3.9,0h3.8m3.9,0h3.8m3.9,0H614m3.9,0h3.8m3.9,0h3.8m3.9,0h3.8m3.9,0h3.8m3.9,0h3.8m3.9,0h3.8m3.9,0h3.8m3.9,0h3.8m3.9,0h3.8m3.9,0H691m3.9,0h3.8m3.9,0h3.8m3.9,0h3.8m3.9,0h3.8m3.9,0h3.8m3.9,0h3.8m3.9,0h3.8m3.9,0h3.8m3.9,0h3.8m3.9,0H768m3.9,0h3.8m3.9,0h3.8m3.9,0h3.9m3.8,0h3.9m3.8,0h3.9m3.8,0h3.9m3.8,0H822m3.8,0h3.9m3.8,0h3.9m3.8,0h3.9m3.8,0h3.9m3.8,0h3.9" class="g1_1"/>
<path d="M669.5,1109.1H578c-3.3,0,-6,2.7,-6,6.1V1128c0,3.4,2.7,6.1,6,6.1h91.5c3.4,0,6.1,-2.7,6.1,-6.1v-12.8c0,-3.4,-2.7,-6.1,-6.1,-6.1ZM754.4,1109.1H688.2c-3.4,0,-6.1,2.7,-6.1,6.1V1128c0,3.4,2.7,6.1,6.1,6.1h66.2c3.3,0,6.1,-2.7,6.1,-6.1v-12.8c0,-3.4,-2.8,-6.1,-6.1,-6.1Z" class="g2_1"/>
<path d="M571.7,1144.2h3.8m3.9,0h3.8m3.9,0h3.8m3.9,0h3.8m3.9,0h3.8m3.9,0H614m3.9,0h3.8m3.9,0h3.8m3.9,0h3.8m3.9,0h3.8m3.9,0h3.8m3.9,0h3.8m3.9,0h3.8m3.9,0h3.8m3.9,0h3.8m3.9,0H691m3.9,0h3.8m3.9,0h3.8m3.9,0h3.8m3.9,0h3.8m3.9,0h3.8m3.9,0h3.8m3.9,0h3.8m3.9,0h3.8m3.9,0h3.8m3.9,0H768m3.9,0h3.8m3.9,0h3.8m3.9,0h3.9m3.8,0h3.9m3.8,0h3.9m3.8,0h3.9m3.8,0H822m3.8,0h3.9m3.8,0h3.9m3.8,0h3.9m3.8,0h3.9m3.8,0h3.9" class="g1_1"/>
<path d="M632.1,1154.7H578c-3.3,0,-6,2.8,-6,6.1v12.9c0,3.3,2.7,6.1,6,6.1h54.1c3.3,0,6.1,-2.8,6.1,-6.1v-12.9c0,-3.3,-2.8,-6.1,-6.1,-6.1ZM792.1,1154.7H650.7c-3.3,0,-6,2.8,-6,6.1v12.9c0,3.3,2.7,6.1,6,6.1H792.1c3.3,0,6,-2.8,6,-6.1v-12.9c0,-3.3,-2.7,-6.1,-6,-6.1ZM678.3,1181.9H578c-3.3,0,-6,2.7,-6,6.1v12.8c0,3.4,2.7,6.1,6,6.1H678.3c3.4,0,6.1,-2.7,6.1,-6.1V1188c0,-3.4,-2.7,-6.1,-6.1,-6.1ZM720.9,1181.9h-24c-3.3,0,-6,2.7,-6,6.1v12.8c0,3.4,2.7,6.1,6,6.1h24c3.4,0,6.1,-2.7,6.1,-6.1V1188c0,-3.4,-2.7,-6.1,-6.1,-6.1ZM774.4,1181.9H739.6c-3.4,0,-6.1,2.7,-6.1,6.1v12.8c0,3.4,2.7,6.1,6.1,6.1h34.8c3.4,0,6.1,-2.7,6.1,-6.1V1188c0,-3.4,-2.7,-6.1,-6.1,-6.1ZM647.3,1209H578c-3.3,0,-6,2.8,-6,6.1V1228c0,3.4,2.7,6.1,6,6.1h69.3c3.4,0,6.1,-2.7,6.1,-6.1v-12.9c0,-3.3,-2.7,-6.1,-6.1,-6.1ZM727,1209H666c-3.4,0,-6.1,2.8,-6.1,6.1V1228c0,3.4,2.7,6.1,6.1,6.1h61c3.4,0,6.1,-2.7,6.1,-6.1v-12.9c0,-3.3,-2.7,-6.1,-6.1,-6.1ZM810.7,1209h-65c-3.4,0,-6.1,2.8,-6.1,6.1V1228c0,3.4,2.7,6.1,6.1,6.1h65c3.4,0,6.1,-2.7,6.1,-6.1v-12.9c0,-3.3,-2.7,-6.1,-6.1,-6.1ZM655.2,1236.2H578c-3.3,0,-6,2.7,-6,6.1v12.9c0,3.3,2.7,6,6,6h77.2c3.4,0,6.1,-2.7,6.1,-6v-12.9c0,-3.4,-2.7,-6.1,-6.1,-6.1ZM750.6,1236.2H673.9c-3.4,0,-6.1,2.7,-6.1,6.1v12.9c0,3.3,2.7,6,6.1,6h76.7c3.4,0,6.1,-2.7,6.1,-6v-12.9c0,-3.4,-2.7,-6.1,-6.1,-6.1ZM810.8,1236.2H769.3c-3.4,0,-6.1,2.7,-6.1,6.1v12.9c0,3.3,2.7,6,6.1,6h41.5c3.4,0,6.1,-2.7,6.1,-6v-12.9c0,-3.4,-2.7,-6.1,-6.1,-6.1Z" class="g2_1"/>
<path d="M43.3,192.8H519.7v-3H43.3v3Z" class="g0_1"/>
<path d="M43.3,416.6h3.9m3.8,0h3.9m3.8,0h3.9m3.8,0h3.9m3.8,0H78m3.8,0h3.9m3.8,0h3.9m3.8,0h3.9m3.8,0h3.9m3.8,0h3.9m3.8,0h3.9m3.8,0h3.9m3.8,0h3.9m3.8,0h3.9m3.8,0H155m3.8,0h3.9m3.8,0h3.9m3.8,0h3.9m3.8,0h3.9m3.8,0h3.9m3.8,0h3.9m3.8,0h3.9m3.8,0h3.9m3.8,0h3.9m3.8,0H232m3.8,0h3.9m3.8,0h3.9m3.9,0h3.8m3.9,0h3.8m3.9,0h3.8m3.9,0h3.8m3.9,0h3.8m3.9,0h3.8m3.9,0h3.8m3.9,0H309m3.9,0h3.8m3.9,0h3.8m3.9,0h3.8m3.9,0h3.8m3.9,0h3.8m3.9,0h3.8m3.9,0h3.8m3.9,0h3.8m3.9,0h3.8m3.9,0H386m3.9,0h3.8m3.9,0h3.8m3.9,0h3.8m3.9,0h3.8m3.9,0h3.8m3.9,0h3.8m3.9,0h3.8m3.9,0h3.8m3.9,0h3.8m3.9,0H463m3.9,0h3.8m3.9,0h3.8m3.9,0h3.9m3.8,0h3.9m3.8,0h3.9m3.8,0h3.9M43.3,577h3.9m3.8,0h3.9m3.8,0h3.9m3.8,0h3.9m3.8,0H78m3.8,0h3.9m3.8,0h3.9m3.8,0h3.9m3.8,0h3.9m3.8,0h3.9m3.8,0h3.9m3.8,0h3.9m3.8,0h3.9m3.8,0h3.9m3.8,0H155m3.8,0h3.9m3.8,0h3.9m3.8,0h3.9m3.8,0h3.9m3.8,0h3.9m3.8,0h3.9m3.8,0h3.9m3.8,0h3.9m3.8,0h3.9m3.8,0H232m3.8,0h3.9m3.8,0h3.9m3.9,0h3.8m3.9,0h3.8m3.9,0h3.8m3.9,0h3.8m3.9,0h3.8m3.9,0h3.8m3.9,0h3.8m3.9,0H309m3.9,0h3.8m3.9,0h3.8m3.9,0h3.8m3.9,0h3.8m3.9,0h3.8m3.9,0h3.8m3.9,0h3.8m3.9,0h3.8m3.9,0h3.8m3.9,0H386m3.9,0h3.8m3.9,0h3.8m3.9,0h3.8m3.9,0h3.8m3.9,0h3.8m3.9,0h3.8m3.9,0h3.8m3.9,0h3.8m3.9,0h3.8m3.9,0H463m3.9,0h3.8m3.9,0h3.8m3.9,0h3.9m3.8,0h3.9m3.8,0h3.9m3.8,0h3.9M43.3,878.8h3.9m3.8,0h3.9m3.8,0h3.9m3.8,0h3.9m3.8,0H78m3.8,0h3.9m3.8,0h3.9m3.8,0h3.9m3.8,0h3.9m3.8,0h3.9m3.8,0h3.9m3.8,0h3.9m3.8,0h3.9m3.8,0h3.9m3.8,0H155m3.8,0h3.9m3.8,0h3.9m3.8,0h3.9m3.8,0h3.9m3.8,0h3.9m3.8,0h3.9m3.8,0h3.9m3.8,0h3.9m3.8,0h3.9m3.8,0H232m3.8,0h3.9m3.8,0h3.9m3.9,0h3.8m3.9,0h3.8m3.9,0h3.8m3.9,0h3.8m3.9,0h3.8m3.9,0h3.8m3.9,0h3.8m3.9,0H309m3.9,0h3.8m3.9,0h3.8m3.9,0h3.8m3.9,0h3.8m3.9,0h3.8m3.9,0h3.8m3.9,0h3.8m3.9,0h3.8m3.9,0h3.8m3.9,0H386m3.9,0h3.8m3.9,0h3.8m3.9,0h3.8m3.9,0h3.8m3.9,0h3.8m3.9,0h3.8m3.9,0h3.8m3.9,0h3.8m3.9,0h3.8m3.9,0H463m3.9,0h3.8m3.9,0h3.8m3.9,0h3.9m3.8,0h3.9m3.8,0h3.9m3.8,0h3.9m-466,204.5h3.9m3.8,0h3.9m3.8,0h3.9m3.8,0h3.9m3.8,0H78m3.8,0h3.9m3.8,0h3.9m3.8,0h3.9m3.8,0h3.9m3.8,0h3.9m3.8,0h3.9m3.8,0h3.9m3.8,0h3.9m3.8,0h3.9m3.8,0H155m3.8,0h3.9m3.8,0h3.9m3.8,0h3.9m3.8,0h3.9m3.8,0h3.9m3.8,0h3.9m3.8,0h3.9m3.8,0h3.9m3.8,0h3.9m3.8,0H232m3.8,0h3.9m3.8,0h3.9m3.9,0h3.8m3.9,0h3.8m3.9,0h3.8m3.9,0h3.8m3.9,0h3.8m3.9,0h3.8m3.9,0h3.8m3.9,0H309m3.9,0h3.8m3.9,0h3.8m3.9,0h3.8m3.9,0h3.8m3.9,0h3.8m3.9,0h3.8m3.9,0h3.8m3.9,0h3.8m3.9,0h3.8m3.9,0H386m3.9,0h3.8m3.9,0h3.8m3.9,0h3.8m3.9,0h3.8m3.9,0h3.8m3.9,0h3.8m3.9,0h3.8m3.9,0h3.8m3.9,0h3.8m3.9,0H463m3.9,0h3.8m3.9,0h3.8m3.9,0h3.9m3.8,0h3.9m3.8,0h3.9m3.8,0h3.9" class="g1_1"/>
</svg>