<?xml version="1.0" encoding="UTF-8" standalone="no"?>
<!DOCTYPE svg PUBLIC "-//W3C//DTD SVG 1.1//EN"
"http://www.w3.org/Graphics/SVG/1.1/DTD/svg11.dtd">
<svg viewBox="0 0 1512 2138" version="1.1" xmlns="http://www.w3.org/2000/svg" xmlns:xlink="http://www.w3.org/1999/xlink">
<defs>
<style type="text/css"><![CDATA[
.g1_1{
fill: #D9D9D9;
}
.g2_1{
fill: #363C47;
}
.g3_1{
fill: #FFFFFF;
}
.g4_1{
fill: none;
stroke: #D4D5D5;
stroke-width: 3.2083333;
stroke-linecap: butt;
stroke-linejoin: round;
}
.g5_1{
fill: none;
stroke: #FFFFFF;
stroke-width: 3.2083333;
stroke-linecap: butt;
stroke-linejoin: round;
}
.g6_1{
fill: #242831;
}
.g7_1{
fill: none;
stroke: #385D8A;
stroke-width: 3.0555556;
stroke-linecap: butt;
stroke-linejoin: round;
}
]]></style>
</defs>
<path fill-rule="evenodd" d="M42.2,2062l1428.5,0l0,-0.8l-1428.5,0l0,0.8Z" class="g1_1" />
<path fill-rule="evenodd" d="M137.5,45.8l6.3,0.3l6.1,0.7l5.9,1.2l5.8,1.7l5.6,2.2l5.4,2.5l5.2,2.9l4.8,3.3l4.6,3.6l4.3,4l4,4.3l3.6,4.6l3.3,4.9l2.9,5.1l2.6,5.4l2.1,5.6l1.7,5.8l1.2,5.9l0.8,6.2l0.2,6.2l-0.2,6.3l-0.8,6.1l-1.2,6l-1.7,5.8l-2.1,5.5l-2.6,5.5l-2.9,5.1l-3.3,4.9l-3.6,4.6l-4,4.2l-4.3,4l-4.6,3.7l-4.8,3.3l-5.2,2.9l-5.4,2.5l-5.6,2.1l-5.8,1.7l-5.9,1.2l-6.1,0.8l-6.3,0.2l-6.3,-0.2l-6.1,-0.8l-5.9,-1.2l-5.8,-1.7l-5.6,-2.1l-5.4,-2.5l-5.2,-2.9l-4.8,-3.3l-4.6,-3.7l-4.3,-4l-4,-4.2l-3.6,-4.6l-3.3,-4.9l-2.9,-5.1l-2.6,-5.5L65,146.4l-1.7,-5.8l-1.2,-6l-0.8,-6.1l-0.2,-6.3L61.3,116l0.8,-6.2l1.2,-5.9L65,98.1l2.1,-5.6l2.6,-5.4L72.6,82l3.3,-4.9l3.6,-4.6l4,-4.3l4.3,-4l4.6,-3.6l4.8,-3.3l5.2,-2.9l5.4,-2.5l5.6,-2.2L119.2,48l5.9,-1.2l6.1,-0.7l6.3,-0.3Z" class="g2_1" />
<path fill-rule="evenodd" d="M179.8,141l0.6,0.1l0.6,0.1l0.5,0.2l0.5,0.2l0.3,0.3l0.9,0.6l0.4,0.9l0,1.1l-0.2,1.6l-0.4,1.3l-0.9,1.3L181,150l-0.3,0.3l-1,0.6l-1,0.8l-1.2,0.7l-1.3,0.7l-1.6,0.7l-1.7,0.7l-1.6,0.6l0.3,1.5l0.7,1.4l0.6,1.4l0.9,1.2l0.4,0.6l1.3,1.4l1.3,0.9l1.2,0.2l0.6,0l0.5,-0.1l0.5,-0.2l0.9,-0.5l0.4,-0.1l0.6,0l0.2,0.2l0,1l0,0.4l-0.2,0.4l-0.2,0.3l-0.2,0.4l-0.3,0.3l-0.3,0.4l-0.4,0.4l-0.4,0.4l-1.3,0.8l-1.5,0.4l-1.1,0.1l-1.3,-0.1l-1.1,-0.4l-1.1,-0.6l-1,-0.8l-1,-1.2l-0.9,-1.3l-1,-1.6l-0.8,-1.8l-0.8,-2.1l-0.4,-1.3l-0.9,1.4l-0.7,1.4l-0.6,1.3l-0.1,0.5l-1.6,3.5l-0.5,1l-0.4,0.8l-0.4,0.5l-0.4,0.6l-0.5,0.2l-0.9,0L159,168.2l-0.4,-0.1l-0.5,-0.2l-0.3,-0.2l-0.3,-0.3l-0.6,-0.5l-0.3,-0.6l0,-1l0.1,-0.5l0.4,-0.7l1.1,-2.2l0.5,-1.1l0.6,-1.2l0.5,-1.2l0.5,-1.3l0.6,-1.3l0.5,-1.3l0.5,-1.3l0.5,-1.5l0.5,-1.4l0.5,-1.5l0.5,-1.4l0.5,-1.6l0.4,-1.6l0.6,-1.6l0.4,-1.6l0.5,-1.7l0.5,-1.7l0.3,-1.1l0.3,-1.7l0.4,-1.6l0.3,-1.5l0.3,-1.5l0.3,-1.4l0.3,-1.5l0.1,-1l0.7,-1.7l1.5,-0.5l0.7,0l0.6,0.1l0.5,0.4l1,0.8l0.4,0.8l0,0.8l0,0.9l-0.2,1l-0.1,1l-0.3,1.4l-0.4,1.5l-0.6,2.1l-0.3,1.5l-0.4,1.1l-0.6,1.9l-0.6,1.7l-0.4,1.5l-0.4,1.3l-0.4,1l-2.6,7.1l-0.5,1.4l-0.2,0.4l1.6,-0.7l1.6,-0.8l1.5,-0.7l1.3,-0.8l1.1,-0.8l1.1,-0.9l0.8,-0.8l1.3,-1.3l0.5,-1.4l0.2,-0.7l0,-0.5L177.2,144l-0.4,-0.2l-0.3,-0.3l-0.3,-0.3L176,142.8l0.1,-0.3l0.1,-0.3l0.3,-0.4l0.6,-0.3l0.5,-0.3l0.7,-0.2l1.5,0Z" class="g3_1" />
<path fill-rule="evenodd" d="M123.5,152.3l-0.1,0.4l-0.2,0.3l0,0.1l1.5,-1.9l1.3,-1.6l1,-1.4l0.9,-1.1l0.6,-0.8l0.4,-0.5l1.3,-1.4l1.1,-1.2l0.8,-0.7l1.5,-0.9l1.4,-0.4l1,-0.2l1.7,0.3l1.2,0.8l0.8,1.4L140,145l0,0.2l-0.1,1.4l-0.3,1.5l-0.3,1l-0.7,1.8l-0.5,1.1l0,0.2l3.8,-5.1l2.2,-2.5l1.3,-1.4l1.1,-0.9l0.9,-0.6l1,-0.5l0.9,-0.2l1.2,0l0.6,0.2l0.6,0.2l0.6,0.2l0.5,0.3l0.4,0.4l0.9,1.2l0.4,1.6l0,0.7l0,1.4l-0.4,1.5l-0.5,1.3l-0.7,1.5l-0.7,1.3l-0.3,0.6l-0.6,1.4l-0.7,1.3l-0.8,1.9l-0.6,1.7l-0.3,1.3l-0.2,1.1l0,1.2l0.4,0.5l1.5,0l0.7,-0.2l0.6,-0.3l0.6,-0.4l0.4,-0.1l0.5,0l0.1,0.2l0,0.3l-0.2,1.5l-0.8,1.3l-1.3,1.1l-1.6,0.9l-1.3,0.2l-0.9,0l-0.7,-0.1L146.1,168l-0.5,-0.2l-0.5,-0.4L144.7,167l-0.9,-1.2l-0.5,-1.5l-0.1,-1.1l0.1,-1.6l0.2,-1.5l0.3,-1.1l0.4,-1.4l0.6,-1.5l0.3,-0.7l0.7,-1.5l0.6,-1.4l0.9,-1.4l0.4,-0.8l0.3,-0.7l0.5,-1.2l0.3,-0.8l0,-1.3L148.4,146l-0.7,0l-0.7,0.2l-1,0.7l-1.2,1.1l-1.4,1.6l-0.8,1l-1.2,1.6l-1,1.4l-0.8,1.2l-0.6,0.9l-0.2,0.1l-1.8,2.7l-0.8,1.5l-0.7,1.5l-0.6,1.2l-0.2,0.5l-1.3,3.1l-0.4,0.8l-0.3,0.5l-0.5,0.5l-0.3,0.2l-0.9,0l-0.4,0l-0.4,-0.2L129.8,168l-0.4,-0.2l-0.2,-0.3l-0.7,-0.4l-0.4,-0.6l0,-1.1l0.2,-0.8l0.4,-1l0.5,-1.3l0.7,-1.4l0.2,-0.6l3.7,-7.7l0.8,-2l0.7,-1.6l0.3,-1.3l0.1,-0.6l0,-0.7L135.4,146l-0.8,0l-0.8,0.2l-1,0.6l-1.2,1l-1.5,1.5l-1,1l-1.3,1.5l-1.1,1.3l-0.9,1.1l-0.8,0.9l-2.6,3.4l-0.9,1.5l-0.7,1.5l-0.6,1.2l-0.2,0.5l-1.4,3.1l-0.3,0.8l-0.4,0.5l-0.6,0.5l-0.3,0.2l-0.9,0l-0.4,-0.1l-0.5,-0.1l-0.4,-0.2l-0.4,-0.2l-0.3,-0.3l-0.7,-0.5l-0.3,-0.6l0,-1l0.2,-0.5l0.4,-0.7l1,-2.2l0.3,-0.6l0.3,-0.8l0.5,-1l1.5,-3.5l0.8,-2.2l0.7,-1.9l0.5,-1.6l0.5,-1.5l0.3,-1.2l0.1,-0.9l0.1,-0.6l0,-0.9l-0.2,-0.6l-0.6,-0.4L119,143.8l-0.3,-0.3l0,-0.6l0.4,-0.5l0.2,-0.3l0.3,-0.2l0.4,-0.3l0.8,-0.4l0.8,-0.2l1.6,0l0.6,0.1l0.5,0.2l0.4,0.2l0.4,0.2l0.3,0.3l0.7,0.6l0.3,0.6l0,1.4l-0.1,0.6l-0.1,0.7l-0.2,0.7l-0.3,0.7l-0.2,0.7l-0.2,0.7l-0.3,0.6l-0.3,0.7l-0.7,1.4l-0.5,0.9Z" class="g3_1" />
<path d="M205.8,810l0,-622.2" class="g4_1" />
<path d="M205.8,222.1l0,-34.3" class="g5_1" />
<path fill-rule="evenodd" d="M205.8,307.9l1.7,0.3l1.7,0.5l1.3,0.9l1.2,1.2l0.9,1.4l0.6,1.7l0.2,1.7l0,0.1l-0.2,1.8l-0.5,1.6l-0.9,1.4l-1.2,1.3l-1.4,0.9l-1.6,0.6l-1.7,0.2l-0.1,0L204,323.4l-1.6,-0.7l-1.3,-0.8l-1.2,-1.2L199,319.2l-0.6,-1.5l-0.2,-1.8l0,-0.2l0.2,-1.7l0.5,-1.6l0.9,-1.5l1.2,-1.2l1.4,-0.9l1.6,-0.6l1.6,-0.3l0.2,0Z" class="g6_1" />
<path fill-rule="evenodd" d="M205.8,537.1l1.7,0.2l1.7,0.6l1.3,0.9l1.2,1.2l0.9,1.4l0.6,1.6l0.2,1.8l0,0.1l-0.2,1.8l-0.5,1.6l-0.9,1.4l-1.2,1.3l-1.4,0.9l-1.6,0.5l-1.7,0.3l-0.1,0L204,552.5l-1.6,-0.6L201.1,551l-1.2,-1.1L199,548.4l-0.6,-1.6L198.2,545l0,-0.1l0.2,-1.7l0.5,-1.7l0.9,-1.4l1.2,-1.2l1.4,-1l1.6,-0.6l1.6,-0.2l0.2,0Z" class="g6_1" />
<path fill-rule="evenodd" d="M205.8,688.3l1.7,0.3l1.7,0.5l1.3,1l1.2,1.1l0.9,1.4l0.6,1.7l0.2,1.8l-0.2,1.8l-0.5,1.7l-0.9,1.4l-1.2,1.2l-1.4,0.9l-1.6,0.6l-1.7,0.2l-0.1,0L204,703.8l-1.6,-0.7l-1.3,-0.8l-1.2,-1.2L199,699.6l-0.6,-1.5l-0.2,-1.8l0,-0.2l0.2,-1.7l0.5,-1.6l0.9,-1.5l1.2,-1.2l1.4,-0.9l1.6,-0.6l1.6,-0.3l0.2,0Z" class="g6_1" />
<path d="M205.8,2022.9L205.8,810" class="g4_1" />
<path fill-rule="evenodd" d="M205.8,930l1.7,0.2l1.7,0.5l1.3,1l1.2,1.2l0.9,1.4l0.6,1.6l0.2,1.8l0,0.1l-0.2,1.8l-0.5,1.6l-0.9,1.4l-1.2,1.3l-1.4,0.9l-1.6,0.6l-1.7,0.2l-0.1,0L204,945.5l-1.6,-0.7L201.1,944l-1.2,-1.2L199,941.3l-0.6,-1.5l-0.2,-1.9l0,-0.1l0.2,-1.7l0.5,-1.7l0.9,-1.5l1.2,-1.1l1.4,-1l1.6,-0.6l1.6,-0.2l0.2,0Z" class="g6_1" />
<path fill-rule="evenodd" d="M205.8,1226.2l1.7,0.2l1.7,0.6l1.3,0.9l1.2,1.2l0.9,1.4l0.6,1.6l0.2,1.8l0,0.1l-0.2,1.8l-0.5,1.6l-0.9,1.4l-1.2,1.3l-1.4,0.9l-1.6,0.5l-1.7,0.3l-0.1,0l-1.8,-0.2l-1.6,-0.6l-1.3,-0.9l-1.2,-1.1l-0.9,-1.5l-0.6,-1.6l-0.2,-1.8l0,-0.1l0.2,-1.7l0.5,-1.7l0.9,-1.4L201,1228l1.4,-0.9l1.6,-0.7l1.6,-0.2l0.2,0Z" class="g6_1" />
<path fill-rule="evenodd" d="M205.8,1561.4l1.7,0.2l1.7,0.6l1.3,0.9l1.2,1.2l0.9,1.4l0.6,1.6l0.2,1.8l0,0.1l-0.2,1.8l-0.5,1.6l-0.9,1.4l-1.2,1.3l-1.4,0.9l-1.6,0.5l-1.7,0.3l-0.1,0l-1.8,-0.2l-1.6,-0.6l-1.3,-0.9l-1.2,-1.1l-0.9,-1.5l-0.6,-1.6l-0.2,-1.8l0,-0.1l0.2,-1.7l0.5,-1.7l0.9,-1.4l1.2,-1.2l1.4,-1l1.6,-0.6l1.6,-0.2l0.2,0Z" class="g6_1" />
<image preserveAspectRatio="none" x="178" y="217" width="57" height="58" xlink:href="img/1.png" />
<image preserveAspectRatio="none" x="178" y="840" width="57" height="57" xlink:href="img/2.png" />
<image preserveAspectRatio="none" x="1074" y="563" width="57" height="56" xlink:href="img/3.png" />
<image preserveAspectRatio="none" x="1074" y="915" width="57" height="57" xlink:href="img/4.png" />
<image preserveAspectRatio="none" x="1074" y="1461" width="57" height="56" xlink:href="img/5.png" />
<image preserveAspectRatio="none" x="1086" y="65" width="365" height="454" xlink:href="img/6.png" />
<path d="M1085.6,126c0,-33.6,27.2,-60.9,60.9,-60.9l243.7,0c33.6,0,60.9,27.3,60.9,60.9l0,332.5c0,33.7,-27.3,60.9,-60.9,60.9l-243.7,0c-33.7,0,-60.9,-27.2,-60.9,-60.9Z" class="g7_1" />
</svg>