<?xml version="1.0" encoding="UTF-8" standalone="no"?>
<!DOCTYPE svg PUBLIC "-//W3C//DTD SVG 1.1//EN"
"http://www.w3.org/Graphics/SVG/1.1/DTD/svg11.dtd">
<svg viewBox="0 0 909 1286" version="1.1" xmlns="http://www.w3.org/2000/svg" xmlns:xlink="http://www.w3.org/1999/xlink">
<defs>
<style type="text/css"><![CDATA[
.g1_80{
fill: none;
stroke: #000000;
stroke-width: 0.6080556;
stroke-linecap: butt;
stroke-linejoin: miter;
}
]]></style>
</defs>
<g fill="#000000" >
<use xlink:href="#f0_g" transform="matrix(12,0,0,12,43.3,96.9)" />
<use xlink:href="#f0_g" transform="matrix(12,0,0,12,53.6,96.9)" />
<use xlink:href="#f0_r" transform="matrix(12,0,0,12,563.2,96.9)" />
<use xlink:href="#f0_1h" transform="matrix(12,0,0,12,576.1,96.9)" />
<use xlink:href="#f0_1m" transform="matrix(12,0,0,12,581.8,96.9)" />
<use xlink:href="#f0_1c" transform="matrix(12,0,0,12,593.2,96.9)" />
<use xlink:href="#f0_1h" transform="matrix(12,0,0,12,604.7,96.9)" />
<use xlink:href="#f0_1m" transform="matrix(12,0,0,12,610.4,96.9)" />
<use xlink:href="#f0_1f" transform="matrix(12,0,0,12,621.8,96.9)" />
<use xlink:href="#f0_1r" transform="matrix(12,0,0,12,632.1,96.9)" />
<use xlink:href="#f0_1n" transform="matrix(12,0,0,12,647,96.9)" />
<use xlink:href="#f0_1e" transform="matrix(12,0,0,12,657.3,96.9)" />
<use xlink:href="#f0_1d" transform="matrix(12,0,0,12,670.4,96.9)" />
<use xlink:href="#f0_1w" transform="matrix(12,0,0,12,679.8,96.9)" />
<use xlink:href="#f0_1o" transform="matrix(12,0,0,12,690.6,96.9)" />
<use xlink:href="#f0_1d" transform="matrix(12,0,0,12,702.6,96.9)" />
<use xlink:href="#f0_1q" transform="matrix(12,0,0,12,712,96.9)" />
<use xlink:href="#f0_1h" transform="matrix(12,0,0,12,720.4,96.9)" />
<use xlink:href="#f0_1l" transform="matrix(12,0,0,12,726.1,96.9)" />
<use xlink:href="#f0_1d" transform="matrix(12,0,0,12,743.2,96.9)" />
<use xlink:href="#f0_1m" transform="matrix(12,0,0,12,752.6,96.9)" />
<use xlink:href="#f0_1s" transform="matrix(12,0,0,12,763.4,96.9)" />
<use xlink:href="#f0_1r" transform="matrix(12,0,0,12,771.4,96.9)" />
</g>
<path d="M43.3,103.8l736.2,0" class="g1_80" />
<defs>
	<path d="M432.4,42.8c158.9,0,158.9,122.2,158.9,273.5c0,152.7,0,275,-151.3,275c-90.1,0,-171.1,-79.5,-171.1,-267.4c0,-13.8,0,-136,21.4,-186.4c6.1,-12.2,44.3,-94.7,142.1,-94.7Zm1.5,-61C71.8,-18.2,71.8,381.9,71.8,484.3c0,398.8,258.2,517.9,449.2,517.9c160.4,0,221.5,-93.2,221.5,-184.8c0,-67.3,-50.4,-93.2,-90.1,-93.2c-48.9,0,-90.2,35.1,-90.2,90.1c0,41.3,24.5,84,82.5,90.1C608.1,942.6,553.1,947.2,524,947.2c-99.3,0,-177.2,-59.6,-210.8,-123.7C270.4,741,265.8,646.3,265.8,553.1l0,-41.3c61.1,129.9,158.9,129.9,189.5,129.9c181.8,0,330,-113.1,330,-327C785.3,100.8,635.6,-18.2,433.9,-18.2Z" 
	id="f0_g"
	transform="scale(0.001,-0.001)" />

	<path d="M58.1,0l0,65.7l161.9,0l0,909l-161.9,0l0,65.7l904.4,0l44.3,-362.1l-64.2,0C921.3,863.2,883.1,974.7,640.1,974.7l-218.4,0l0,-421.6l84,0c146.7,0,158.9,67.2,158.9,178.7l64.2,0l0,-423.2l-64.2,0c0,111.5,-12.2,178.8,-158.9,178.8l-84,0l0,-421.7l203.2,0L550,3.1l-273.5,0C102.4,3.1,333.1,0,58.1,0Z" 
	id="f0_r"
	transform="scale(0.001,-0.001)" />

	<path d="M67.2,0l0,65.7l105.4,0l0,484.3c0,59.6,-10.7,59.6,-100.8,59.6l0,65.7l259.7,12.2l0,-621.8l94.8,0L389.6,3.1l-181.8,0C102.4,3.1,249,0,67.2,0ZM230.7,841.8c-62.6,0,-110,52,-110,110c0,58.1,47.4,110,110,110c59.6,0,110,-47.4,110,-110c0,-62.6,-50.4,-110,-110,-110Z" 
	id="f0_1h"
	transform="scale(0.001,-0.001)" />

	<path d="M64.2,0l0,65.7l105.4,0l0,484.3c0,59.6,-10.7,59.6,-105.4,59.6l0,65.7l258.2,12.2l0,-168.1l1.5,0C375.8,634,470.6,687.5,580.6,687.5c168,0,230.7,-74.9,230.7,-220l0,-401.8l105.4,0L881.5,3.1l-197.1,0C574.4,3.1,727.2,0,539.3,0l0,65.7l105.4,0l0,418.6c0,116.1,-32.1,152.8,-88.6,152.8c-97.8,0,-220,-81,-220,-246l0,-325.4l105.4,0L406.4,3.1l-197.1,0C99.3,3.1,252.1,0,64.2,0Z" 
	id="f0_1m"
	transform="scale(0.001,-0.001)" />

	<path d="M430.8,41.3c55,0,133,19.8,197.1,113l0,388.1c-50.4,67.2,-117.6,94.7,-180.3,94.7c-35.1,0,-125.2,-9.2,-172.6,-94.7C241.4,484.3,241.4,407.9,241.4,336.1c0,-100.8,0,-294.8,189.4,-294.8ZM412.5,-9.1C209.3,-9.1,58.1,120.7,58.1,339.2c0,213.9,154.3,348.3,371.2,348.3c105.4,0,172.6,-44.3,206.3,-73.3l0,308.6c0,59.6,-10.7,59.6,-105.5,59.6l0,65.7l264.3,12.2l0,-935c0,-59.6,10.7,-59.6,105.5,-59.6L899.9,0l-272,-9.1l0,79.4C568.3,19.9,496.5,-9.1,412.5,-9.1Z" 
	id="f0_1c"
	transform="scale(0.001,-0.001)" />

	<path d="M429.3,-258.1c201.7,0,255.1,88.6,255.1,142.1c0,79.4,-106.9,99.3,-218.4,99.3l-174.2,0c-22.9,0,-119.2,0,-119.2,-97.8c0,-58,55,-143.6,256.7,-143.6ZM380.4,287.2c132.9,0,132.9,105.4,132.9,175.7c0,70.3,0,175.7,-132.9,175.7C247.5,638.6,247.5,533.2,247.5,462.9c0,-70.3,0,-175.7,132.9,-175.7ZM427.8,-307C146.7,-307,47.4,-204.6,47.4,-114.5c0,87.1,94.7,122.1,131.4,131.3c-32.1,24.5,-67.3,81,-67.3,146.7c0,55,27.5,108.4,53.5,137.5C100.8,352.9,85.6,415.6,85.6,462.9c0,107,84,224.6,294.8,224.6c77.9,0,137.5,-13.7,200.2,-50.4c32,27.5,94.7,59.6,160.4,59.6c64.1,0,91.6,-48.9,91.6,-85.6C832.6,579,811.3,550,771.5,550c-39.7,0,-61.1,29,-61.1,61.1c0,19.9,4.6,26,9.2,33.6c-26,-3,-62.7,-9.1,-107,-33.6C631,595.8,675.3,540.8,675.3,462.9C675.3,356,591.3,238.3,380.4,238.3c-22.9,0,-108.5,0,-181.8,39.8c-16.8,-19.9,-18.3,-42.8,-18.3,-55c0,-29.1,18.3,-87.1,84,-97.8c7.6,-1.5,74.9,-1.5,113.1,-1.5c134.4,0,232.2,0,305.5,-36.7c38.2,-18.3,126.8,-62.7,126.8,-197C809.7,-224.5,681.4,-307,427.8,-307Z" 
	id="f0_1f"
	transform="scale(0.001,-0.001)" />

	<path d="M81,-9.1C58.1,-9.1,58.1,1.5,58.1,30.6l0,175.7c0,35.1,0,39.7,32,39.7c26,0,27.5,-1.6,36.7,-32.1C169.6,65.7,265.8,41.3,343.8,41.3c32,0,171.1,0,171.1,117.6c0,64.2,-61.1,102.4,-122.3,116.1c-6.1,0,-56.5,9.2,-97.7,16.8C247.5,299.4,58.1,333.1,58.1,493.5c0,198.6,229.1,198.6,275,198.6c55,0,111.5,-9.2,154.3,-33.6c7.6,4.6,24.4,15.3,30.5,19.8c22.9,13.8,26,13.8,35.2,13.8c22.9,0,22.9,-10.7,22.9,-39.7L576,521c0,-35.2,0,-39.7,-32.1,-39.7c-18.3,0,-30.6,0,-32.1,19.8c-3,38.2,-12.2,145.2,-181.8,145.2c-32.1,0,-168.1,0,-168.1,-99.4c0,-73.3,91.7,-90.1,189.5,-106.9c82.5,-15.3,134.4,-24.4,197.1,-76.4C579,336.1,618.8,285.7,618.8,212.4C618.8,9.2,427.8,-9.1,343.8,-9.1c-27.5,0,-110,0,-178.8,53.4l-39.7,-29C94.7,-9.1,91.7,-9.1,81,-9.1Z" 
	id="f0_1r"
	transform="scale(0.001,-0.001)" />

	<path d="M429.3,45.8c197.1,0,197.1,177.3,197.1,304.1c0,73.3,0,152.7,-30.6,207.7c-25.9,42.8,-80.9,84.1,-168,84.1c-65.7,0,-134.5,-27.5,-168.1,-88.6c-29,-55,-29,-131.4,-29,-203.2c0,-125.3,0,-304.1,198.6,-304.1ZM427.8,-9.1C187.9,-9.1,47.4,134.4,47.4,334.6c0,198.6,132.9,357.5,381.9,357.5c239.9,0,380.4,-151.3,380.4,-357.5C809.7,142.1,676.8,-9.1,427.8,-9.1Z" 
	id="f0_1n"
	transform="scale(0.001,-0.001)" />

	<path d="M67.2,0l0,65.7l105.4,0l0,546.9l-113,0l0,65.7l113,0l0,155.9c0,177.2,169.6,235.2,308.7,235.2c108.4,0,163.4,-64.1,163.4,-126.8c0,-67.2,-55,-90.1,-88.6,-90.1c-39.7,0,-88.6,27.5,-88.6,88.6c0,32.1,13.8,58.1,36.7,73.3c-9.2,3.1,-12.3,4.6,-29.1,4.6C424.7,1019,323.9,994.6,323.9,835.7l0,-157.4l181.8,0l0,-65.7l-174.2,0l0,-546.9l132.9,0L427.8,3.1l-210.9,0C102.4,3.1,259.7,0,67.2,0Z" 
	id="f0_1e"
	transform="scale(0.001,-0.001)" />

	<path d="M594.3,381.9C592.8,458.3,579,641.7,415.6,641.7c-65.7,0,-119.2,-33.6,-148.2,-82.5C235.3,504.2,233.8,444.6,230.7,381.9ZM435.4,-9.1c-230.7,0,-388,139,-388,352.9c0,192.5,129.8,348.3,368.2,348.3c88.6,0,174.1,-19.9,238.3,-84c70.3,-71.8,81,-186.4,81,-232.3c0,-38.2,-9.2,-38.2,-44.3,-38.2l-459.9,0c0,-85.5,1.5,-291.8,223.1,-291.8c73.3,0,174.1,32.1,213.8,131.4c9.2,19.9,10.7,24.5,35.2,24.5c9.1,0,32.1,0,32.1,-22.9c0,-26,-68.8,-187.9,-299.5,-187.9Z" 
	id="f0_1d"
	transform="scale(0.001,-0.001)" />

	<path d="M27.5,0l0,65.7c126.8,0,137.5,10.7,155.8,32.1L381.9,322.4L143.6,612.6l-108.5,0l42.8,62.7l169.6,0c103.9,0,-41.2,3,139,3l0,-65.7l-64.1,0L473.6,427.8L606.5,577.5c3.1,3.1,10.7,13.8,10.7,16.8c0,10.7,-32.1,18.3,-61.1,18.3l42.8,62.7l161.9,0c3.1,0,-51.9,3,88.6,3l0,-65.7c-126.8,0,-140.5,-12.2,-157.3,-32L514.9,377.4L773.1,65.7l106.9,0L837.2,3.1l-169.6,0C565.3,3.1,710.4,0,528.6,0l0,65.7l64.2,0L423.2,271.9L270.4,99.3C259.7,87.1,259.7,85.6,259.7,84c0,-10.7,32.1,-18.3,61.1,-18.3L278.1,3.1l-155.9,0C119.2,3.1,169.6,0,27.5,0Z" 
	id="f0_1w"
	transform="scale(0.001,-0.001)" />

	<path d="M504.2,41.3c97.7,0,207.7,77.9,207.7,299.4c0,201.7,-90.1,291.8,-189.4,291.8c-59.6,0,-140.6,-24.4,-197.1,-97.8l0,-388C372.8,74.9,438.5,41.3,504.2,41.3ZM53.5,-296.3l0,65.7l105.4,0l0,780.6c0,59.6,-10.7,59.6,-105.4,59.6l0,65.7l264.3,12.2l0,-79.4c61.1,48.8,139,79.4,229.1,79.4c206.3,0,348.4,-136,348.4,-346.8C895.3,117.6,731.8,-9.1,522.5,-9.1C430.8,-9.1,363.6,29,325.4,62.6l0,-293.2l105.4,0l-35.1,-62.6l-197.1,0c-110,0,42.8,-3.1,-145.1,-3.1Z" 
	id="f0_1o"
	transform="scale(0.001,-0.001)" />

	<path d="M53.5,0l0,65.7l105.4,0l0,484.3c0,59.6,-10.7,59.6,-105.4,59.6l0,65.7L304,687.5l0,-169.6l1.6,0c21.3,64.2,73.3,169.6,194,169.6c73.3,0,152.8,-42.8,152.8,-120.7c0,-62.6,-50.5,-88.6,-88.6,-88.6c-38.2,0,-88.7,26,-88.7,88.6c0,27.5,10.7,53.5,32.1,70.3C328.5,637.1,317.8,394.2,317.8,343.8l0,-278.1l132.9,0L414,3.1l-210.8,0C88.6,3.1,246,0,53.5,0Z" 
	id="f0_1q"
	transform="scale(0.001,-0.001)" />

	<path d="M64.2,0l0,65.7l105.4,0l0,484.3c0,59.6,-10.7,59.6,-105.4,59.6l0,65.7l258.2,12.2l0,-168.1l1.5,0C356,592.8,435.4,687.5,582.1,687.5c97.8,0,201.7,-22.9,226.1,-152.8c24.4,48.9,96.2,152.8,250.6,152.8c171.1,0,230.6,-79.4,230.6,-220l0,-401.8l105.5,0L1359.7,3.1l-197.1,0C1052.6,3.1,1205.4,0,1017.5,0l0,65.7l105.4,0l0,418.6c0,119.2,-33.6,152.8,-90.1,152.8c-96.3,0,-220,-79.5,-220,-246l0,-325.4l105.4,0L883.1,3.1L686,3.1C576,3.1,728.8,0,540.8,0l0,65.7l105.5,0l0,418.6c0,119.2,-33.7,152.8,-90.2,152.8c-96.2,0,-220,-79.5,-220,-246l0,-325.4l105.4,0L406.4,3.1l-197.1,0C99.3,3.1,252.1,0,64.2,0Z" 
	id="f0_1l"
	transform="scale(0.001,-0.001)" />

	<path d="M391.1,-9.1c-110,0,-235.3,35.1,-235.3,197l0,424.7l-123.7,0l0,50.5c151.2,4.5,224.6,155.8,226.1,307l64.2,0l0,-291.8l220,0l0,-65.7l-220,0l0,-429.3c0,-35.1,0,-137.5,91.6,-137.5c47.4,0,93.2,44.3,93.2,145.2l0,79.4l64.2,0l0,-81C571.4,76.4,504.2,-9.1,391.1,-9.1Z" 
	id="f0_1s"
	transform="scale(0.001,-0.001)" />


</defs>
</svg>